<?xml version="1.0" encoding="UTF-8" standalone="no"?>
<!-- Created with Inkscape (http://www.inkscape.org/) -->

<svg
   version="1.1"
   id="svg1"
   width="538.56"
   height="302.72"
   viewBox="0 0 538.56 302.72"
   sodipodi:docname="node-2.pdf"
   xmlns:inkscape="http://www.inkscape.org/namespaces/inkscape"
   xmlns:sodipodi="http://sodipodi.sourceforge.net/DTD/sodipodi-0.dtd"
   xmlns="http://www.w3.org/2000/svg"
   xmlns:svg="http://www.w3.org/2000/svg">
  <defs
     id="defs1">
    <clipPath
       clipPathUnits="userSpaceOnUse"
       id="clipPath2">
      <path
         d="M 0,0 H 1683.3333 V 943.50531 H 0 Z"
         transform="scale(0.33386139)"
         clip-rule="evenodd"
         id="path2" />
    </clipPath>
    <clipPath
       clipPathUnits="userSpaceOnUse"
       id="clipPath4">
      <path
         d="M 0,0 H 1683.3333 V 940.51007 H 0 Z"
         transform="matrix(0.33386139,0,0,0.33386139,-0.5,-0.5)"
         clip-rule="evenodd"
         id="path4" />
    </clipPath>
    <clipPath
       clipPathUnits="userSpaceOnUse"
       id="clipPath6">
      <path
         d="M 0,0 H 1683.3333 V 940.51007 H 0 Z"
         transform="matrix(0.33386139,0,0,0.33386139,-0.5,-0.5)"
         clip-rule="evenodd"
         id="path6" />
    </clipPath>
    <clipPath
       clipPathUnits="userSpaceOnUse"
       id="clipPath8">
      <path
         d="M 0,0 H 1683.3333 V 940.51007 H 0 Z"
         transform="scale(0.33386139)"
         clip-rule="evenodd"
         id="path8" />
    </clipPath>
    <clipPath
       clipPathUnits="userSpaceOnUse"
       id="clipPath9">
      <path
         d="M 0,0 H 1683.3333 V 940.51007 H 0 Z"
         transform="matrix(0.33385805,0,0,0.33385805,-164.76563,-43)"
         clip-rule="evenodd"
         id="path9" />
    </clipPath>
    <clipPath
       clipPathUnits="userSpaceOnUse"
       id="clipPath11">
      <path
         d="M 0,0 H 1683.3333 V 940.51007 H 0 Z"
         transform="matrix(0.33386139,0,0,0.33386139,-0.5,-0.5)"
         clip-rule="evenodd"
         id="path11" />
    </clipPath>
    <clipPath
       clipPathUnits="userSpaceOnUse"
       id="clipPath13">
      <path
         d="M 0,0 H 1683.3333 V 940.51007 H 0 Z"
         transform="matrix(0.33386139,0,0,0.33386139,-0.5,-0.5)"
         clip-rule="evenodd"
         id="path13" />
    </clipPath>
    <clipPath
       clipPathUnits="userSpaceOnUse"
       id="clipPath15">
      <path
         d="M 0,0 H 1683.3333 V 940.51007 H 0 Z"
         transform="matrix(0.33386139,0,0,0.33386139,-0.5,-0.5)"
         clip-rule="evenodd"
         id="path15" />
    </clipPath>
    <clipPath
       clipPathUnits="userSpaceOnUse"
       id="clipPath17">
      <path
         d="M 0,0 H 1683.3333 V 940.51007 H 0 Z"
         transform="matrix(0.33386139,0,0,0.33386139,-0.5,-0.5)"
         clip-rule="evenodd"
         id="path17" />
    </clipPath>
    <clipPath
       clipPathUnits="userSpaceOnUse"
       id="clipPath19">
      <path
         d="M 0,0 H 1683.3333 V 940.51007 H 0 Z"
         transform="scale(0.33386139)"
         clip-rule="evenodd"
         id="path19" />
    </clipPath>
    <clipPath
       clipPathUnits="userSpaceOnUse"
       id="clipPath20">
      <path
         d="M 0,0 H 1683.3333 V 940.51007 H 0 Z"
         transform="matrix(0.33385805,0,0,0.33385805,-241.64063,-158)"
         clip-rule="evenodd"
         id="path20" />
    </clipPath>
    <clipPath
       clipPathUnits="userSpaceOnUse"
       id="clipPath22">
      <path
         d="M 0,0 H 1683.3333 V 940.51007 H 0 Z"
         transform="scale(0.33386139)"
         clip-rule="evenodd"
         id="path22" />
    </clipPath>
    <clipPath
       clipPathUnits="userSpaceOnUse"
       id="clipPath23">
      <path
         d="M 0,0 H 1683.3333 V 940.51007 H 0 Z"
         transform="matrix(0.33385805,0,0,0.33385805,-187.76563,-278)"
         clip-rule="evenodd"
         id="path23" />
    </clipPath>
    <clipPath
       clipPathUnits="userSpaceOnUse"
       id="clipPath25">
      <path
         d="M 0,0 H 1683.3333 V 940.51007 H 0 Z"
         transform="scale(0.33386139)"
         clip-rule="evenodd"
         id="path25" />
    </clipPath>
    <clipPath
       clipPathUnits="userSpaceOnUse"
       id="clipPath26">
      <path
         d="M 0,0 H 1683.3333 V 940.51007 H 0 Z"
         transform="matrix(0.33385805,0,0,0.33385805,-339.42188,-278)"
         clip-rule="evenodd"
         id="path26" />
    </clipPath>
    <clipPath
       clipPathUnits="userSpaceOnUse"
       id="clipPath28">
      <path
         d="M 0,0 H 1683.3333 V 940.51007 H 0 Z"
         transform="scale(0.33386139)"
         clip-rule="evenodd"
         id="path28" />
    </clipPath>
    <clipPath
       clipPathUnits="userSpaceOnUse"
       id="clipPath29">
      <path
         d="M 0,0 H 1683.3333 V 940.51007 H 0 Z"
         transform="matrix(0.33385805,0,0,0.33385805,-13.953125,-41)"
         clip-rule="evenodd"
         id="path29" />
    </clipPath>
    <clipPath
       clipPathUnits="userSpaceOnUse"
       id="clipPath31">
      <path
         d="M 0,0 H 1683.3333 V 940.51007 H 0 Z"
         transform="scale(0.33386139)"
         clip-rule="evenodd"
         id="path31" />
    </clipPath>
    <clipPath
       clipPathUnits="userSpaceOnUse"
       id="clipPath32">
      <path
         d="M 0,0 H 1683.3333 V 940.51007 H 0 Z"
         transform="matrix(0.33385805,0,0,0.33385805,-12.859375,-146)"
         clip-rule="evenodd"
         id="path32" />
    </clipPath>
    <clipPath
       clipPathUnits="userSpaceOnUse"
       id="clipPath33">
      <path
         d="M 0,0 H 1683.3333 V 940.51007 H 0 Z"
         transform="matrix(0.33385805,0,0,0.33385805,-1.28125,-166)"
         clip-rule="evenodd"
         id="path33" />
    </clipPath>
    <clipPath
       clipPathUnits="userSpaceOnUse"
       id="clipPath34">
      <path
         d="M 0,0 H 1683.3333 V 940.51007 H 0 Z"
         transform="matrix(0.33385805,0,0,0.33385805,-12.859375,-266)"
         clip-rule="evenodd"
         id="path34" />
    </clipPath>
    <clipPath
       clipPathUnits="userSpaceOnUse"
       id="clipPath35">
      <path
         d="M 0,0 H 1683.3333 V 940.51007 H 0 Z"
         transform="matrix(0.33385805,0,0,0.33385805,-1.28125,-286)"
         clip-rule="evenodd"
         id="path35" />
    </clipPath>
    <clipPath
       clipPathUnits="userSpaceOnUse"
       id="clipPath37">
      <path
         d="M 0,0 H 1683.3333 V 940.51007 H 0 Z"
         transform="scale(0.33386139)"
         clip-rule="evenodd"
         id="path37" />
    </clipPath>
    <clipPath
       clipPathUnits="userSpaceOnUse"
       id="clipPath39">
      <path
         d="M 0,0 H 1683.3333 V 940.51007 H 0 Z"
         transform="matrix(-0.33386139,0,0,-0.33386139,930.00002,542)"
         clip-rule="evenodd"
         id="path39" />
    </clipPath>
    <clipPath
       clipPathUnits="userSpaceOnUse"
       id="clipPath40">
      <path
         d="M 0,0 H 1683.3333 V 940.51007 H 0 Z"
         transform="matrix(0.33385805,0,0,0.33385805,-482,-276)"
         clip-rule="evenodd"
         id="path40" />
    </clipPath>
  </defs>
  <sodipodi:namedview
     id="namedview1"
     pagecolor="#ffffff"
     bordercolor="#000000"
     borderopacity="0.25"
     inkscape:showpageshadow="2"
     inkscape:pageopacity="0.0"
     inkscape:pagecheckerboard="0"
     inkscape:deskcolor="#d1d1d1">
    <inkscape:page
       x="0"
       y="0"
       inkscape:label="1"
       id="page1"
       width="538.56"
       height="302.72"
       margin="0"
       bleed="0" />
  </sodipodi:namedview>
  <g
     id="g1"
     inkscape:groupmode="layer"
     inkscape:label="1">
    <path
       id="path1"
       d="M 0,0 H 562 V 315 H 0 Z"
       style="fill:#ffffff;fill-opacity:1;fill-rule:nonzero;stroke:none"
       transform="scale(0.95848156)"
       clip-path="url(#clipPath2)" />
    <path
       id="path3"
       d="m 280,71 v 29.9"
       style="fill:none;stroke:#000000;stroke-width:1;stroke-linecap:butt;stroke-linejoin:miter;stroke-miterlimit:10;stroke-dasharray:none;stroke-opacity:1"
       transform="matrix(0.95848156,0,0,0.95848156,0.47924078,0.47924078)"
       clip-path="url(#clipPath4)" />
    <path
       id="path5"
       d="M 280,107.65 275.5,98.650002 280,100.9 284.5,98.650002 Z"
       style="fill:#000000;fill-opacity:1;fill-rule:nonzero;stroke:#000000;stroke-width:1;stroke-linecap:butt;stroke-linejoin:miter;stroke-miterlimit:10;stroke-dasharray:none;stroke-opacity:1"
       transform="matrix(0.95848156,0,0,0.95848156,0.47924078,0.47924078)"
       clip-path="url(#clipPath6)" />
    <path
       id="path7"
       d="M 120,1 H 440 V 71 H 120 Z"
       style="fill:#d5e8d4;fill-opacity:1;fill-rule:nonzero;stroke:#82b366;stroke-width:1;stroke-linecap:butt;stroke-linejoin:miter;stroke-miterlimit:10;stroke-dasharray:none;stroke-opacity:1"
       transform="scale(0.95848156)"
       clip-path="url(#clipPath8)" />
    <text
       id="text8"
       xml:space="preserve"
       transform="matrix(0.95849116,0,0,0.95849116,157.9264,41.21512)"
       clip-path="url(#clipPath9)"><tspan
         style="font-variant:normal;font-weight:normal;font-size:20px;font-family:Helvetica;writing-mode:lr-tb;fill:#000000;fill-opacity:1;fill-rule:nonzero;stroke:none"
         x="0 10 21.123047 31.123047 42.246094 52.246094 62.246094 68.90625 73.349609 84.472656 90.029297 95.585938 110.0293 121.15234 132.27539 143.39844 148.95508 167.48047 178.60352 184.16016 202.68555 209.3457 213.78906 219.3457"
         y="0"
         sodipodi:role="line"
         id="tspan8">Javascript Code We Write</tspan></text>
    <path
       id="path10"
       d="m 360,191 v 29.89999"
       style="fill:none;stroke:#000000;stroke-width:1;stroke-linecap:butt;stroke-linejoin:miter;stroke-miterlimit:10;stroke-dasharray:none;stroke-opacity:1"
       transform="matrix(0.95848156,0,0,0.95848156,0.47924078,0.47924078)"
       clip-path="url(#clipPath11)" />
    <path
       id="path12"
       d="m 360,227.64999 -4.5,-9 4.5,2.25 4.5,-2.25 z"
       style="fill:#000000;fill-opacity:1;fill-rule:nonzero;stroke:#000000;stroke-width:1;stroke-linecap:butt;stroke-linejoin:miter;stroke-miterlimit:10;stroke-dasharray:none;stroke-opacity:1"
       transform="matrix(0.95848156,0,0,0.95848156,0.47924078,0.47924078)"
       clip-path="url(#clipPath13)" />
    <path
       id="path14"
       d="m 200,191 v 29.89999"
       style="fill:none;stroke:#000000;stroke-width:1;stroke-linecap:butt;stroke-linejoin:miter;stroke-miterlimit:10;stroke-dasharray:none;stroke-opacity:1"
       transform="matrix(0.95848156,0,0,0.95848156,0.47924078,0.47924078)"
       clip-path="url(#clipPath15)" />
    <path
       id="path16"
       d="m 200,227.64999 -4.5,-9 4.5,2.25 4.5,-2.25 z"
       style="fill:#000000;fill-opacity:1;fill-rule:nonzero;stroke:#000000;stroke-width:1;stroke-linecap:butt;stroke-linejoin:miter;stroke-miterlimit:10;stroke-dasharray:none;stroke-opacity:1"
       transform="matrix(0.95848156,0,0,0.95848156,0.47924078,0.47924078)"
       clip-path="url(#clipPath17)" />
    <path
       id="path18"
       d="m 120,111 h 320 v 80 H 120 Z"
       style="fill:#dae8fc;fill-opacity:1;fill-rule:nonzero;stroke:#6c8ebf;stroke-width:1;stroke-linecap:butt;stroke-linejoin:miter;stroke-miterlimit:10;stroke-dasharray:none;stroke-opacity:1"
       transform="scale(0.95848156)"
       clip-path="url(#clipPath19)" />
    <text
       id="text19"
       xml:space="preserve"
       transform="matrix(0.95849116,0,0,0.95849116,231.61041,151.4416)"
       clip-path="url(#clipPath20)"><tspan
         style="font-variant:normal;font-weight:normal;font-size:20px;font-family:Helvetica;writing-mode:lr-tb;fill:#000000;fill-opacity:1;fill-rule:nonzero;stroke:none"
         x="0 14.443359 25.566406 36.689453 47.8125 53.369141 63.369141"
         y="0"
         sodipodi:role="line"
         id="tspan19">Node JS</tspan></text>
    <path
       id="path21"
       d="m 125,231 h 150 v 80 H 125 Z"
       style="fill:#f8cecc;fill-opacity:1;fill-rule:nonzero;stroke:#b85450;stroke-width:1;stroke-linecap:butt;stroke-linejoin:miter;stroke-miterlimit:10;stroke-dasharray:none;stroke-opacity:1"
       transform="scale(0.95848156)"
       clip-path="url(#clipPath22)" />
    <text
       id="text22"
       xml:space="preserve"
       transform="matrix(0.95849116,0,0,0.95849116,179.9717,266.46054)"
       clip-path="url(#clipPath23)"><tspan
         style="font-variant:normal;font-weight:normal;font-size:20px;font-family:Helvetica;writing-mode:lr-tb;fill:#000000;fill-opacity:1;fill-rule:nonzero;stroke:none"
         x="0 13.339844"
         y="0"
         sodipodi:role="line"
         id="tspan22">V8</tspan></text>
    <path
       id="path24"
       d="m 285,231 h 150 v 80 H 285 Z"
       style="fill:#ffe6cc;fill-opacity:1;fill-rule:nonzero;stroke:#d79b00;stroke-width:1;stroke-linecap:butt;stroke-linejoin:miter;stroke-miterlimit:10;stroke-dasharray:none;stroke-opacity:1"
       transform="scale(0.95848156)"
       clip-path="url(#clipPath25)" />
    <text
       id="text25"
       xml:space="preserve"
       transform="matrix(0.95849116,0,0,0.95849116,325.33287,266.46054)"
       clip-path="url(#clipPath26)"><tspan
         style="font-variant:normal;font-weight:normal;font-size:20px;font-family:Helvetica;writing-mode:lr-tb;fill:#000000;fill-opacity:1;fill-rule:nonzero;stroke:none"
         x="0 4.4433594 8.8867188 20.009766 31.132812"
         y="0"
         sodipodi:role="line"
         id="tspan25">libuv</tspan></text>
    <path
       id="path27"
       d="m 110,1 h -7.5 C 97.5,1 95,4.333333 95,11 v 15 c 0,6.666668 -2.5,10 -7.5,10 h -3.75 c -2.5,0 -1.25,0 3.75,0 h 3.75 c 2.5,0 3.75,3.333332 3.75,10 v 15 c 0,6.666664 2.5,10 7.5,10 h 7.5"
       style="fill:none;stroke:#000000;stroke-width:1;stroke-linecap:butt;stroke-linejoin:miter;stroke-miterlimit:10;stroke-dasharray:none;stroke-opacity:1"
       transform="scale(0.95848156)"
       clip-path="url(#clipPath28)" />
    <text
       id="text28"
       xml:space="preserve"
       transform="matrix(0.95849116,0,0,0.95849116,13.373947,39.298138)"
       clip-path="url(#clipPath29)"><tspan
         style="font-style:oblique;font-variant:normal;font-weight:normal;font-size:16px;font-family:Helvetica;writing-mode:lr-tb;fill:#000000;fill-opacity:1;fill-rule:nonzero;stroke:none"
         x="0 8.8984375 17.796875 26.695312 40.921875 45.367188 53.367188"
         y="0"
         sodipodi:role="line"
         id="tspan28">100% JS</tspan></text>
    <path
       id="path30"
       d="m 110,111 h -7.5 c -5,0 -7.5,3.33334 -7.5,10 v 20 c 0,6.66667 -2.5,10 -7.5,10 h -3.75 c -2.5,0 -1.25,0 3.75,0 h 3.75 c 2.5,0 3.75,3.33333 3.75,10 v 20 c 0,6.66667 2.5,10 7.5,10 h 7.5"
       style="fill:none;stroke:#000000;stroke-width:1;stroke-linecap:butt;stroke-linejoin:miter;stroke-miterlimit:10;stroke-dasharray:none;stroke-opacity:1"
       transform="scale(0.95848156)"
       clip-path="url(#clipPath31)" />
    <text
       id="text31"
       xml:space="preserve"
       transform="matrix(0.95849116,0,0,0.95849116,12.325597,139.93971)"
       clip-path="url(#clipPath32)"><tspan
         style="font-style:oblique;font-variant:normal;font-weight:normal;font-size:16px;font-family:Helvetica;writing-mode:lr-tb;fill:#000000;fill-opacity:1;fill-rule:nonzero;stroke:none"
         x="0 8.8984375 17.796875 32.023438 36.46875 44.46875"
         y="0"
         sodipodi:role="line"
         id="tspan31">50% JS</tspan></text>
    <text
       id="text32"
       xml:space="preserve"
       transform="matrix(0.95849116,0,0,0.95849116,1.2280668,159.10953)"
       clip-path="url(#clipPath33)"><tspan
         style="font-style:oblique;font-variant:normal;font-weight:normal;font-size:16px;font-family:Helvetica;writing-mode:lr-tb;fill:#000000;fill-opacity:1;fill-rule:nonzero;stroke:none"
         x="0 8.8984375 17.796875 32.023438 36.46875 48.023438 57.367188"
         y="0"
         sodipodi:role="line"
         id="tspan32">50% C++</tspan></text>
    <text
       id="text33"
       xml:space="preserve"
       transform="matrix(0.95849116,0,0,0.95849116,12.325597,254.95865)"
       clip-path="url(#clipPath34)"><tspan
         style="font-style:oblique;font-variant:normal;font-weight:normal;font-size:16px;font-family:Helvetica;writing-mode:lr-tb;fill:#000000;fill-opacity:1;fill-rule:nonzero;stroke:none"
         x="0 8.8984375 17.796875 32.023438 36.46875 44.46875"
         y="0"
         sodipodi:role="line"
         id="tspan33">30% JS</tspan></text>
    <text
       id="text34"
       xml:space="preserve"
       transform="matrix(0.95849116,0,0,0.95849116,1.2280668,274.12847)"
       clip-path="url(#clipPath35)"><tspan
         style="font-style:oblique;font-variant:normal;font-weight:normal;font-size:16px;font-family:Helvetica;writing-mode:lr-tb;fill:#000000;fill-opacity:1;fill-rule:nonzero;stroke:none"
         x="0 8.8984375 17.796875 32.023438 36.46875 48.023438 57.367188"
         y="0"
         sodipodi:role="line"
         id="tspan34">70% C++</tspan></text>
    <path
       id="path36"
       d="m 110,231 h -7.5 c -5,0 -7.5,3.33333 -7.5,10 v 20 c 0,6.66666 -2.5,10 -7.5,10 h -3.75 c -2.5,0 -1.25,0 3.75,0 h 3.75 c 2.5,0 3.75,3.33334 3.75,10 v 20 c 0,6.66666 2.5,10 7.5,10 h 7.5"
       style="fill:none;stroke:#000000;stroke-width:1;stroke-linecap:butt;stroke-linejoin:miter;stroke-miterlimit:10;stroke-dasharray:none;stroke-opacity:1"
       transform="scale(0.95848156)"
       clip-path="url(#clipPath37)" />
    <path
       id="path38"
       d="m 480,231 h -7.5 c -5,0 -7.5,3.33333 -7.5,10 v 20 c 0,6.66666 -2.5,10 -7.5,10 h -3.75 c -2.5,0 -1.25,0 3.75,0 h 3.75 c 2.5,0 3.75,3.33334 3.75,10 v 20 c 0,6.66666 2.5,10 7.5,10 h 7.5"
       style="fill:none;stroke:#000000;stroke-width:1;stroke-linecap:butt;stroke-linejoin:miter;stroke-miterlimit:10;stroke-dasharray:none;stroke-opacity:1"
       transform="matrix(-0.95848156,0,0,-0.95848156,891.38787,519.49701)"
       clip-path="url(#clipPath39)" />
    <text
       id="text39"
       xml:space="preserve"
       transform="matrix(0.95849116,0,0,0.95849116,461.99274,264.54356)"
       clip-path="url(#clipPath40)"><tspan
         style="font-style:oblique;font-variant:normal;font-weight:normal;font-size:16px;font-family:Helvetica;writing-mode:lr-tb;fill:#000000;fill-opacity:1;fill-rule:nonzero;stroke:none"
         x="0 8.8984375 17.796875 26.695312 40.921875 45.367188 56.921875 66.265625"
         y="0"
         sodipodi:role="line"
         id="tspan39">100% C++</tspan></text>
  </g>
</svg>
