<?xml version="1.0" encoding="UTF-8" standalone="no"?>
<!-- Created with Inkscape (http://www.inkscape.org/) -->

<svg
   version="1.1"
   id="svg1"
   width="378.55997"
   height="298.56"
   viewBox="0 0 378.55997 298.56"
   sodipodi:docname="node-19.pdf"
   xmlns:inkscape="http://www.inkscape.org/namespaces/inkscape"
   xmlns:sodipodi="http://sodipodi.sourceforge.net/DTD/sodipodi-0.dtd"
   xmlns="http://www.w3.org/2000/svg"
   xmlns:svg="http://www.w3.org/2000/svg">
  <defs
     id="defs1">
    <clipPath
       clipPathUnits="userSpaceOnUse"
       id="clipPath2">
      <path
         d="M 0,0 H 1183.3333 V 931.68774 H 0 Z"
         transform="scale(0.33380283)"
         clip-rule="evenodd"
         id="path2" />
    </clipPath>
    <clipPath
       clipPathUnits="userSpaceOnUse"
       id="clipPath4">
      <path
         d="M 0,0 H 1183.3333 V 931.68774 H 0 Z"
         transform="matrix(0.33380283,0,0,0.33380283,-0.49999999,-0.49999999)"
         clip-rule="evenodd"
         id="path4" />
    </clipPath>
    <clipPath
       clipPathUnits="userSpaceOnUse"
       id="clipPath6">
      <path
         d="M 0,0 H 1183.3333 V 931.68774 H 0 Z"
         transform="matrix(0.33380283,0,0,0.33380283,-0.49999999,-0.49999999)"
         clip-rule="evenodd"
         id="path6" />
    </clipPath>
    <clipPath
       clipPathUnits="userSpaceOnUse"
       id="clipPath8">
      <path
         d="M 0,0 H 1183.3333 V 931.68774 H 0 Z"
         transform="scale(0.33380283)"
         clip-rule="evenodd"
         id="path8" />
    </clipPath>
    <clipPath
       clipPathUnits="userSpaceOnUse"
       id="clipPath9">
      <path
         d="M 0,0 H 1183.3333 V 931.68774 H 0 Z"
         transform="matrix(0.33379948,0,0,0.33379948,-123.04687,-46)"
         clip-rule="evenodd"
         id="path9" />
    </clipPath>
    <clipPath
       clipPathUnits="userSpaceOnUse"
       id="clipPath11">
      <path
         d="M 0,0 H 1183.3333 V 931.68774 H 0 Z"
         transform="matrix(0.33380283,0,0,0.33380283,-0.49999999,-0.49999999)"
         clip-rule="evenodd"
         id="path11" />
    </clipPath>
    <clipPath
       clipPathUnits="userSpaceOnUse"
       id="clipPath13">
      <path
         d="M 0,0 H 1183.3333 V 931.68774 H 0 Z"
         transform="matrix(0.33380283,0,0,0.33380283,-0.49999999,-0.49999999)"
         clip-rule="evenodd"
         id="path13" />
    </clipPath>
    <clipPath
       clipPathUnits="userSpaceOnUse"
       id="clipPath15">
      <path
         d="M 0,0 H 1183.3333 V 931.68774 H 0 Z"
         transform="scale(0.33380283)"
         clip-rule="evenodd"
         id="path15" />
    </clipPath>
    <clipPath
       clipPathUnits="userSpaceOnUse"
       id="clipPath16">
      <path
         d="M 0,0 H 1183.3333 V 931.68774 H 0 Z"
         transform="matrix(0.33379948,0,0,0.33379948,-101.35938,-146)"
         clip-rule="evenodd"
         id="path16" />
    </clipPath>
    <clipPath
       clipPathUnits="userSpaceOnUse"
       id="clipPath18">
      <path
         d="M 0,0 H 1183.3333 V 931.68774 H 0 Z"
         transform="matrix(0.33380283,0,0,0.33380283,-0.49999999,-0.49999999)"
         clip-rule="evenodd"
         id="path18" />
    </clipPath>
    <clipPath
       clipPathUnits="userSpaceOnUse"
       id="clipPath20">
      <path
         d="M 0,0 H 1183.3333 V 931.68774 H 0 Z"
         transform="matrix(0.33380283,0,0,0.33380283,-0.49999999,-0.49999999)"
         clip-rule="evenodd"
         id="path20" />
    </clipPath>
    <clipPath
       clipPathUnits="userSpaceOnUse"
       id="clipPath21">
      <path
         d="M 0,0 H 1183.3333 V 931.68774 H 0 Z"
         transform="matrix(0.33379948,0,0,0.33379948,-0.140625,-26)"
         clip-rule="evenodd"
         id="path21" />
    </clipPath>
    <clipPath
       clipPathUnits="userSpaceOnUse"
       id="clipPath23">
      <path
         d="M 0,0 H 1183.3333 V 931.68774 H 0 Z"
         transform="scale(0.33380283)"
         clip-rule="evenodd"
         id="path23" />
    </clipPath>
    <clipPath
       clipPathUnits="userSpaceOnUse"
       id="clipPath24">
      <path
         d="M 0,0 H 1183.3333 V 931.68774 H 0 Z"
         transform="matrix(0.33379948,0,0,0.33379948,-133.59375,-256)"
         clip-rule="evenodd"
         id="path24" />
    </clipPath>
  </defs>
  <sodipodi:namedview
     id="namedview1"
     pagecolor="#ffffff"
     bordercolor="#000000"
     borderopacity="0.25"
     inkscape:showpageshadow="2"
     inkscape:pageopacity="0.0"
     inkscape:pagecheckerboard="0"
     inkscape:deskcolor="#d1d1d1">
    <inkscape:page
       x="0"
       y="0"
       inkscape:label="1"
       id="page1"
       width="378.55997"
       height="298.56"
       margin="0"
       bleed="0" />
  </sodipodi:namedview>
  <g
     id="g1"
     inkscape:groupmode="layer"
     inkscape:label="1">
    <path
       id="path1"
       d="M 0,0 H 395 V 311 H 0 Z"
       style="fill:#ffffff;fill-opacity:1;fill-rule:nonzero;stroke:none"
       transform="scale(0.95864972)"
       clip-path="url(#clipPath2)" />
    <path
       id="path3"
       d="M 232,69 V 98.900002"
       style="fill:none;stroke:#000000;stroke-width:1;stroke-linecap:butt;stroke-linejoin:miter;stroke-miterlimit:10;stroke-dasharray:none;stroke-opacity:1"
       transform="matrix(0.95864972,0,0,0.95864972,0.47932485,0.47932485)"
       clip-path="url(#clipPath4)" />
    <path
       id="path5"
       d="m 232,105.65 -4.5,-8.999998 4.5,2.25 4.5,-2.25 z"
       style="fill:#000000;fill-opacity:1;fill-rule:nonzero;stroke:#000000;stroke-width:1;stroke-linecap:butt;stroke-linejoin:miter;stroke-miterlimit:10;stroke-dasharray:none;stroke-opacity:1"
       transform="matrix(0.95864972,0,0,0.95864972,0.47932485,0.47932485)"
       clip-path="url(#clipPath6)" />
    <path
       id="path7"
       d="M 72,9 H 392 V 69 H 72 Z"
       style="fill:#dae8fc;fill-opacity:1;fill-rule:nonzero;stroke:#6c8ebf;stroke-width:1;stroke-linecap:butt;stroke-linejoin:miter;stroke-miterlimit:10;stroke-dasharray:none;stroke-opacity:1"
       transform="scale(0.95864972)"
       clip-path="url(#clipPath8)" />
    <text
       id="text8"
       xml:space="preserve"
       transform="matrix(0.95865932,0,0,0.95865932,117.96003,44.098329)"
       clip-path="url(#clipPath9)"><tspan
         style="font-variant:normal;font-weight:normal;font-size:20px;font-family:Helvetica;writing-mode:lr-tb;fill:#000000;fill-opacity:1;fill-rule:nonzero;stroke:none"
         x="0 12.216797 23.339844 34.462891 44.462891 50.019531 54.462891 65.585938 76.708984 82.265625 95.605469 108.94531 122.28516 136.72852 148.94531 160.06836 165.625 175.625 186.74805 191.19141 195.63477 206.75781"
         y="0"
         sodipodi:role="line"
         id="tspan8">Function PBKDF2 called</tspan></text>
    <path
       id="path10"
       d="m 232,169 v 39.89999"
       style="fill:none;stroke:#000000;stroke-width:1;stroke-linecap:butt;stroke-linejoin:miter;stroke-miterlimit:10;stroke-dasharray:none;stroke-opacity:1"
       transform="matrix(0.95864972,0,0,0.95864972,0.47932485,0.47932485)"
       clip-path="url(#clipPath11)" />
    <path
       id="path12"
       d="m 232,215.64999 -4.5,-9 4.5,2.25 4.5,-2.25 z"
       style="fill:#000000;fill-opacity:1;fill-rule:nonzero;stroke:#000000;stroke-width:1;stroke-linecap:butt;stroke-linejoin:miter;stroke-miterlimit:10;stroke-dasharray:none;stroke-opacity:1"
       transform="matrix(0.95864972,0,0,0.95864972,0.47932485,0.47932485)"
       clip-path="url(#clipPath13)" />
    <path
       id="path14"
       d="m 72,109 h 320 v 60 H 72 Z"
       style="fill:#dae8fc;fill-opacity:1;fill-rule:nonzero;stroke:#6c8ebf;stroke-width:1;stroke-linecap:butt;stroke-linejoin:miter;stroke-miterlimit:10;stroke-dasharray:none;stroke-opacity:1"
       transform="scale(0.95864972)"
       clip-path="url(#clipPath15)" />
    <text
       id="text15"
       xml:space="preserve"
       transform="matrix(0.95865932,0,0,0.95865932,97.16911,139.96426)"
       clip-path="url(#clipPath16)"><tspan
         style="font-variant:normal;font-weight:normal;font-size:20px;font-family:Helvetica;writing-mode:lr-tb;fill:#000000;fill-opacity:1;fill-rule:nonzero;stroke:none"
         x="0 12.216797 23.339844 34.462891 44.462891 50.019531 54.462891 65.585938 76.708984 82.265625 93.388672 104.51172 115.63477 125.63477 131.19141 142.31445 147.87109 155.6543 161.21094 172.33398 183.45703 191.24023 196.79688 207.91992 213.47656 219.0332 233.47656 244.59961 251.25977"
         y="0"
         sodipodi:role="line"
         id="tspan15">Function does a *ton* of work</tspan></text>
    <path
       id="path17"
       d="M 52,9 V 288.89999"
       style="fill:none;stroke:#000000;stroke-width:1;stroke-linecap:butt;stroke-linejoin:miter;stroke-miterlimit:10;stroke-dasharray:none;stroke-opacity:1"
       transform="matrix(0.95864972,0,0,0.95864972,0.47932485,0.47932485)"
       clip-path="url(#clipPath18)" />
    <path
       id="path19"
       d="m 52,295.64999 -4.5,-9 4.5,2.25 4.5,-2.25 z"
       style="fill:#000000;fill-opacity:1;fill-rule:nonzero;stroke:#000000;stroke-width:1;stroke-linecap:butt;stroke-linejoin:miter;stroke-miterlimit:10;stroke-dasharray:none;stroke-opacity:1"
       transform="matrix(0.95864972,0,0,0.95864972,0.47932485,0.47932485)"
       clip-path="url(#clipPath20)" />
    <text
       id="text20"
       xml:space="preserve"
       transform="matrix(0.95865932,0,0,0.95865932,0.13481147,24.925142)"
       clip-path="url(#clipPath21)"><tspan
         style="font-variant:normal;font-weight:normal;font-size:20px;font-family:Helvetica;writing-mode:lr-tb;fill:#000000;fill-opacity:1;fill-rule:nonzero;stroke:none"
         x="0 11.484375 15.927734 32.587891"
         y="0"
         sodipodi:role="line"
         id="tspan20">Time</tspan></text>
    <path
       id="path22"
       d="m 72,219 h 320 v 60 H 72 Z"
       style="fill:#dae8fc;fill-opacity:1;fill-rule:nonzero;stroke:#6c8ebf;stroke-width:1;stroke-linecap:butt;stroke-linejoin:miter;stroke-miterlimit:10;stroke-dasharray:none;stroke-opacity:1"
       transform="scale(0.95864972)"
       clip-path="url(#clipPath23)" />
    <text
       id="text23"
       xml:space="preserve"
       transform="matrix(0.95865932,0,0,0.95865932,128.07089,245.41679)"
       clip-path="url(#clipPath24)"><tspan
         style="font-variant:normal;font-weight:normal;font-size:20px;font-family:Helvetica;writing-mode:lr-tb;fill:#000000;fill-opacity:1;fill-rule:nonzero;stroke:none"
         x="0 14.443359 25.566406 35.566406 46.689453 51.132812 56.689453 62.246094 72.246094 83.369141 94.492188 104.49219 115.61523 120.05859 131.18164 136.73828 141.18164 152.30469 163.42773 174.55078 185.67383"
         y="0"
         sodipodi:role="line"
         id="tspan23">Result console logged</tspan></text>
  </g>
</svg>
