<?xml version="1.0" encoding="UTF-8" standalone="no"?>
<!-- Created with Inkscape (http://www.inkscape.org/) -->

<svg
   version="1.1"
   id="svg1"
   width="320"
   height="357.44"
   viewBox="0 0 320 357.44"
   sodipodi:docname="node-25.pdf"
   xmlns:inkscape="http://www.inkscape.org/namespaces/inkscape"
   xmlns:sodipodi="http://sodipodi.sourceforge.net/DTD/sodipodi-0.dtd"
   xmlns="http://www.w3.org/2000/svg"
   xmlns:svg="http://www.w3.org/2000/svg">
  <defs
     id="defs1">
    <clipPath
       clipPathUnits="userSpaceOnUse"
       id="clipPath2">
      <path
         d="M 0,0 H 999.99994 V 1113.7725 H 0 Z"
         transform="scale(0.33400001)"
         clip-rule="evenodd"
         id="path2" />
    </clipPath>
    <clipPath
       clipPathUnits="userSpaceOnUse"
       id="clipPath3">
      <path
         d="M 0,0 H 999.99994 V 1110.7784 H 0 Z"
         transform="matrix(0.33399666,0,0,0.33399666,-78.1875,-19)"
         clip-rule="evenodd"
         id="path3" />
    </clipPath>
    <clipPath
       clipPathUnits="userSpaceOnUse"
       id="clipPath5">
      <path
         d="M 0,0 H 999.99994 V 1110.7784 H 0 Z"
         transform="scale(0.33400001)"
         clip-rule="evenodd"
         id="path5" />
    </clipPath>
    <clipPath
       clipPathUnits="userSpaceOnUse"
       id="clipPath7">
      <path
         d="M 0,0 H 999.99994 V 1110.7784 H 0 Z"
         transform="scale(0.33400001)"
         clip-rule="evenodd"
         id="path7" />
    </clipPath>
    <clipPath
       clipPathUnits="userSpaceOnUse"
       id="clipPath8">
      <path
         d="M 0,0 H 999.99994 V 1110.7784 H 0 Z"
         transform="matrix(0.33399666,0,0,0.33399666,-50.421875,-78)"
         clip-rule="evenodd"
         id="path8" />
    </clipPath>
    <clipPath
       clipPathUnits="userSpaceOnUse"
       id="clipPath10">
      <path
         d="M 0,0 H 999.99994 V 1110.7784 H 0 Z"
         transform="scale(0.33400001)"
         clip-rule="evenodd"
         id="path10" />
    </clipPath>
    <clipPath
       clipPathUnits="userSpaceOnUse"
       id="clipPath11">
      <path
         d="M 0,0 H 999.99994 V 1110.7784 H 0 Z"
         transform="matrix(0.33399666,0,0,0.33399666,-214.42188,-78)"
         clip-rule="evenodd"
         id="path11" />
    </clipPath>
    <clipPath
       clipPathUnits="userSpaceOnUse"
       id="clipPath13">
      <path
         d="M 0,0 H 999.99994 V 1110.7784 H 0 Z"
         transform="matrix(0.33400001,0,0,0.33400001,-0.49999999,-0.49999999)"
         clip-rule="evenodd"
         id="path13" />
    </clipPath>
    <clipPath
       clipPathUnits="userSpaceOnUse"
       id="clipPath15">
      <path
         d="M 0,0 H 999.99994 V 1110.7784 H 0 Z"
         transform="matrix(0.33400001,0,0,0.33400001,-0.49999999,-0.49999999)"
         clip-rule="evenodd"
         id="path15" />
    </clipPath>
    <clipPath
       clipPathUnits="userSpaceOnUse"
       id="clipPath17">
      <path
         d="M 0,0 H 999.99994 V 1110.7784 H 0 Z"
         transform="scale(0.33400001)"
         clip-rule="evenodd"
         id="path17" />
    </clipPath>
    <clipPath
       clipPathUnits="userSpaceOnUse"
       id="clipPath18">
      <path
         d="M 0,0 H 999.99994 V 1110.7784 H 0 Z"
         transform="matrix(0.33399666,0,0,0.33399666,-69.453124,-170)"
         clip-rule="evenodd"
         id="path18" />
    </clipPath>
    <clipPath
       clipPathUnits="userSpaceOnUse"
       id="clipPath20">
      <path
         d="M 0,0 H 999.99994 V 1110.7784 H 0 Z"
         transform="matrix(0.33400001,0,0,0.33400001,-0.49999999,-0.49999999)"
         clip-rule="evenodd"
         id="path20" />
    </clipPath>
    <clipPath
       clipPathUnits="userSpaceOnUse"
       id="clipPath22">
      <path
         d="M 0,0 H 999.99994 V 1110.7784 H 0 Z"
         transform="matrix(0.33400001,0,0,0.33400001,-0.49999999,-0.49999999)"
         clip-rule="evenodd"
         id="path22" />
    </clipPath>
    <clipPath
       clipPathUnits="userSpaceOnUse"
       id="clipPath24">
      <path
         d="M 0,0 H 999.99994 V 1110.7784 H 0 Z"
         transform="scale(0.33400001)"
         clip-rule="evenodd"
         id="path24" />
    </clipPath>
    <clipPath
       clipPathUnits="userSpaceOnUse"
       id="clipPath25">
      <path
         d="M 0,0 H 999.99994 V 1110.7784 H 0 Z"
         transform="matrix(0.33399666,0,0,0.33399666,-111.51562,-240)"
         clip-rule="evenodd"
         id="path25" />
    </clipPath>
    <clipPath
       clipPathUnits="userSpaceOnUse"
       id="clipPath27">
      <path
         d="M 0,0 H 999.99994 V 1110.7784 H 0 Z"
         transform="matrix(0.33400001,0,0,0.33400001,-0.49999999,-0.49999999)"
         clip-rule="evenodd"
         id="path27" />
    </clipPath>
    <clipPath
       clipPathUnits="userSpaceOnUse"
       id="clipPath29">
      <path
         d="M 0,0 H 999.99994 V 1110.7784 H 0 Z"
         transform="matrix(0.33400001,0,0,0.33400001,-0.49999999,-0.49999999)"
         clip-rule="evenodd"
         id="path29" />
    </clipPath>
    <clipPath
       clipPathUnits="userSpaceOnUse"
       id="clipPath31">
      <path
         d="M 0,0 H 999.99994 V 1110.7784 H 0 Z"
         transform="scale(0.33400001)"
         clip-rule="evenodd"
         id="path31" />
    </clipPath>
    <clipPath
       clipPathUnits="userSpaceOnUse"
       id="clipPath32">
      <path
         d="M 0,0 H 999.99994 V 1110.7784 H 0 Z"
         transform="matrix(0.33399666,0,0,0.33399666,-31.359375,-276)"
         clip-rule="evenodd"
         id="path32" />
    </clipPath>
    <clipPath
       clipPathUnits="userSpaceOnUse"
       id="clipPath34">
      <path
         d="M 0,0 H 999.99994 V 1110.7784 H 0 Z"
         transform="matrix(0.33400001,0,0,0.33400001,-0.49999999,-0.49999999)"
         clip-rule="evenodd"
         id="path34" />
    </clipPath>
    <clipPath
       clipPathUnits="userSpaceOnUse"
       id="clipPath36">
      <path
         d="M 0,0 H 999.99994 V 1110.7784 H 0 Z"
         transform="matrix(0.33400001,0,0,0.33400001,-0.49999999,-0.49999999)"
         clip-rule="evenodd"
         id="path36" />
    </clipPath>
    <clipPath
       clipPathUnits="userSpaceOnUse"
       id="clipPath38">
      <path
         d="M 0,0 H 999.99994 V 1110.7784 H 0 Z"
         transform="scale(0.33400001)"
         clip-rule="evenodd"
         id="path38" />
    </clipPath>
    <clipPath
       clipPathUnits="userSpaceOnUse"
       id="clipPath39">
      <path
         d="M 0,0 H 999.99994 V 1110.7784 H 0 Z"
         transform="matrix(0.33399666,0,0,0.33399666,-101.35937,-276)"
         clip-rule="evenodd"
         id="path39" />
    </clipPath>
    <clipPath
       clipPathUnits="userSpaceOnUse"
       id="clipPath41">
      <path
         d="M 0,0 H 999.99994 V 1110.7784 H 0 Z"
         transform="scale(0.33400001)"
         clip-rule="evenodd"
         id="path41" />
    </clipPath>
    <clipPath
       clipPathUnits="userSpaceOnUse"
       id="clipPath42">
      <path
         d="M 0,0 H 999.99994 V 1110.7784 H 0 Z"
         transform="matrix(0.33399666,0,0,0.33399666,-171.35938,-276)"
         clip-rule="evenodd"
         id="path42" />
    </clipPath>
    <clipPath
       clipPathUnits="userSpaceOnUse"
       id="clipPath44">
      <path
         d="M 0,0 H 999.99994 V 1110.7784 H 0 Z"
         transform="scale(0.33400001)"
         clip-rule="evenodd"
         id="path44" />
    </clipPath>
    <clipPath
       clipPathUnits="userSpaceOnUse"
       id="clipPath45">
      <path
         d="M 0,0 H 999.99994 V 1110.7784 H 0 Z"
         transform="matrix(0.33399666,0,0,0.33399666,-241.35938,-276)"
         clip-rule="evenodd"
         id="path45" />
    </clipPath>
    <clipPath
       clipPathUnits="userSpaceOnUse"
       id="clipPath47">
      <path
         d="M 0,0 H 999.99994 V 1110.7784 H 0 Z"
         transform="matrix(0.33400001,0,0,0.33400001,-0.49999999,-0.49999999)"
         clip-rule="evenodd"
         id="path47" />
    </clipPath>
    <clipPath
       clipPathUnits="userSpaceOnUse"
       id="clipPath49">
      <path
         d="M 0,0 H 999.99994 V 1110.7784 H 0 Z"
         transform="matrix(0.33400001,0,0,0.33400001,-0.49999999,-0.49999999)"
         clip-rule="evenodd"
         id="path49" />
    </clipPath>
    <clipPath
       clipPathUnits="userSpaceOnUse"
       id="clipPath51">
      <path
         d="M 0,0 H 999.99994 V 1110.7784 H 0 Z"
         transform="scale(0.33400001)"
         clip-rule="evenodd"
         id="path51" />
    </clipPath>
    <clipPath
       clipPathUnits="userSpaceOnUse"
       id="clipPath52">
      <path
         d="M 0,0 H 999.99994 V 1110.7784 H 0 Z"
         transform="matrix(0.33399666,0,0,0.33399666,-10.703125,-348)"
         clip-rule="evenodd"
         id="path52" />
    </clipPath>
    <clipPath
       clipPathUnits="userSpaceOnUse"
       id="clipPath53">
      <path
         d="M 0,0 H 999.99994 V 1110.7784 H 0 Z"
         transform="matrix(0.33399666,0,0,0.33399666,-28.765625,-364)"
         clip-rule="evenodd"
         id="path53" />
    </clipPath>
    <clipPath
       clipPathUnits="userSpaceOnUse"
       id="clipPath55">
      <path
         d="M 0,0 H 999.99994 V 1110.7784 H 0 Z"
         transform="matrix(0.33400001,0,0,0.33400001,-0.49999999,-0.49999999)"
         clip-rule="evenodd"
         id="path55" />
    </clipPath>
    <clipPath
       clipPathUnits="userSpaceOnUse"
       id="clipPath57">
      <path
         d="M 0,0 H 999.99994 V 1110.7784 H 0 Z"
         transform="matrix(0.33400001,0,0,0.33400001,-0.49999999,-0.49999999)"
         clip-rule="evenodd"
         id="path57" />
    </clipPath>
    <clipPath
       clipPathUnits="userSpaceOnUse"
       id="clipPath59">
      <path
         d="M 0,0 H 999.99994 V 1110.7784 H 0 Z"
         transform="scale(0.33400001)"
         clip-rule="evenodd"
         id="path59" />
    </clipPath>
    <clipPath
       clipPathUnits="userSpaceOnUse"
       id="clipPath60">
      <path
         d="M 0,0 H 999.99994 V 1110.7784 H 0 Z"
         transform="matrix(0.33399666,0,0,0.33399666,-105.70312,-348)"
         clip-rule="evenodd"
         id="path60" />
    </clipPath>
    <clipPath
       clipPathUnits="userSpaceOnUse"
       id="clipPath61">
      <path
         d="M 0,0 H 999.99994 V 1110.7784 H 0 Z"
         transform="matrix(0.33399666,0,0,0.33399666,-123.76562,-364)"
         clip-rule="evenodd"
         id="path61" />
    </clipPath>
  </defs>
  <sodipodi:namedview
     id="namedview1"
     pagecolor="#ffffff"
     bordercolor="#000000"
     borderopacity="0.25"
     inkscape:showpageshadow="2"
     inkscape:pageopacity="0.0"
     inkscape:pagecheckerboard="0"
     inkscape:deskcolor="#d1d1d1">
    <inkscape:page
       x="0"
       y="0"
       inkscape:label="1"
       id="page1"
       width="320"
       height="357.44"
       margin="0"
       bleed="0" />
  </sodipodi:namedview>
  <g
     id="g1"
     inkscape:groupmode="layer"
     inkscape:label="1">
    <path
       id="path1"
       d="M 0,0 H 334 V 372 H 0 Z"
       style="fill:#ffffff;fill-opacity:1;fill-rule:nonzero;stroke:none"
       transform="scale(0.95808377)"
       clip-path="url(#clipPath2)" />
    <text
       id="text2"
       xml:space="preserve"
       transform="matrix(0.95809337,0,0,0.95809337,74.910925,18.203774)"
       clip-path="url(#clipPath3)"><tspan
         style="font-variant:normal;font-weight:700;font-size:20px;font-family:Helvetica;writing-mode:lr-tb;fill:#000000;fill-opacity:1;fill-rule:nonzero;stroke:none"
         x="0 11.123047 22.246094 33.369141 44.492188 50.048828 66.708984 77.832031 88.955078 101.17188 113.38867 125.60547 136.72852 142.28516 155.625 163.4082"
         y="0"
         sodipodi:role="line"
         id="tspan2">2015 Macbook Pro</tspan></text>
    <path
       id="path4"
       d="m 1,23 h 330 v 90 H 1 Z"
       style="fill:#d5e8d4;fill-opacity:1;fill-rule:nonzero;stroke:#82b366;stroke-width:1;stroke-linecap:butt;stroke-linejoin:miter;stroke-miterlimit:10;stroke-dasharray:none;stroke-opacity:1"
       transform="scale(0.95808377)"
       clip-path="url(#clipPath5)" />
    <path
       id="path6"
       d="M 14,43 H 158 V 98 H 14 Z"
       style="fill:#f8cecc;fill-opacity:1;fill-rule:nonzero;stroke:#b85450;stroke-width:1;stroke-linecap:butt;stroke-linejoin:miter;stroke-miterlimit:10;stroke-dasharray:none;stroke-opacity:1"
       transform="scale(0.95808377)"
       clip-path="url(#clipPath7)" />
    <text
       id="text7"
       xml:space="preserve"
       transform="matrix(0.95809337,0,0,0.95809337,48.308864,74.731283)"
       clip-path="url(#clipPath8)"><tspan
         style="font-variant:normal;font-weight:normal;font-size:20px;font-family:Helvetica;writing-mode:lr-tb;fill:#000000;fill-opacity:1;fill-rule:nonzero;stroke:none"
         x="0 14.443359 25.566406 32.226562 43.349609 48.90625 60.029297"
         y="0"
         sodipodi:role="line"
         id="tspan7">Core #1</tspan></text>
    <path
       id="path9"
       d="M 178,43 H 322 V 98 H 178 Z"
       style="fill:#dae8fc;fill-opacity:1;fill-rule:nonzero;stroke:#6c8ebf;stroke-width:1;stroke-linecap:butt;stroke-linejoin:miter;stroke-miterlimit:10;stroke-dasharray:none;stroke-opacity:1"
       transform="scale(0.95808377)"
       clip-path="url(#clipPath10)" />
    <text
       id="text10"
       xml:space="preserve"
       transform="matrix(0.95809337,0,0,0.95809337,205.43618,74.731283)"
       clip-path="url(#clipPath11)"><tspan
         style="font-variant:normal;font-weight:normal;font-size:20px;font-family:Helvetica;writing-mode:lr-tb;fill:#000000;fill-opacity:1;fill-rule:nonzero;stroke:none"
         x="0 14.443359 25.566406 32.226562 43.349609 48.90625 60.029297"
         y="0"
         sodipodi:role="line"
         id="tspan10">Core #2</tspan></text>
    <path
       id="path12"
       d="M 166,143 V 123.11"
       style="fill:none;stroke:#000000;stroke-width:1;stroke-linecap:butt;stroke-linejoin:miter;stroke-miterlimit:10;stroke-dasharray:none;stroke-opacity:1"
       transform="matrix(0.95808377,0,0,0.95808377,0.47904188,0.47904188)"
       clip-path="url(#clipPath13)" />
    <path
       id="path14"
       d="m 166,116.36 4.5,9 -4.5,-2.25 -4.5,2.25 z"
       style="fill:#000000;fill-opacity:1;fill-rule:nonzero;stroke:#000000;stroke-width:1;stroke-linecap:butt;stroke-linejoin:miter;stroke-miterlimit:10;stroke-dasharray:none;stroke-opacity:1"
       transform="matrix(0.95808377,0,0,0.95808377,0.47904188,0.47904188)"
       clip-path="url(#clipPath15)" />
    <path
       id="path16"
       d="m 1,143 h 330 v 40 H 1 Z"
       style="fill:#ffffff;fill-opacity:1;fill-rule:nonzero;stroke:#000000;stroke-width:1;stroke-linecap:butt;stroke-linejoin:miter;stroke-miterlimit:10;stroke-dasharray:none;stroke-opacity:1"
       transform="scale(0.95808377)"
       clip-path="url(#clipPath17)" />
    <text
       id="text17"
       xml:space="preserve"
       transform="matrix(0.95809337,0,0,0.95809337,66.542578,162.87587)"
       clip-path="url(#clipPath18)"><tspan
         style="font-variant:normal;font-weight:normal;font-size:20px;font-family:Helvetica;writing-mode:lr-tb;fill:#000000;fill-opacity:1;fill-rule:nonzero;stroke:none"
         x="0 15.556641 28.896484 34.101562 46.318359 57.441406 64.101562 75.224609 86.347656 97.470703 103.02734 116.36719 126.36719 137.49023 148.61328 159.73633 170.85938 175.30273 186.42578"
         y="0"
         sodipodi:role="line"
         id="tspan17">OS Thread Scheduler</tspan></text>
    <path
       id="path19"
       d="M 166,213 V 193.11"
       style="fill:none;stroke:#000000;stroke-width:1;stroke-linecap:butt;stroke-linejoin:miter;stroke-miterlimit:10;stroke-dasharray:none;stroke-opacity:1"
       transform="matrix(0.95808377,0,0,0.95808377,0.47904188,0.47904188)"
       clip-path="url(#clipPath20)" />
    <path
       id="path21"
       d="m 166,186.36 4.5,9 -4.5,-2.25 -4.5,2.25 z"
       style="fill:#000000;fill-opacity:1;fill-rule:nonzero;stroke:#000000;stroke-width:1;stroke-linecap:butt;stroke-linejoin:miter;stroke-miterlimit:10;stroke-dasharray:none;stroke-opacity:1"
       transform="matrix(0.95808377,0,0,0.95808377,0.47904188,0.47904188)"
       clip-path="url(#clipPath22)" />
    <path
       id="path23"
       d="m 26,213 h 280 v 40 H 26 Z"
       style="fill:#f5f5f5;fill-opacity:1;fill-rule:nonzero;stroke:#666666;stroke-width:1;stroke-linecap:butt;stroke-linejoin:miter;stroke-miterlimit:10;stroke-dasharray:none;stroke-opacity:1"
       transform="scale(0.95808377)"
       clip-path="url(#clipPath24)" />
    <text
       id="text24"
       xml:space="preserve"
       transform="matrix(0.95809337,0,0,0.95809337,106.84238,229.94241)"
       clip-path="url(#clipPath25)"><tspan
         style="font-variant:normal;font-weight:normal;font-size:20px;font-family:Helvetica;writing-mode:lr-tb;fill:#000000;fill-opacity:1;fill-rule:nonzero;stroke:none"
         x="0 12.216797 23.339844 30 41.123047 52.246094 63.369141 68.925781 82.265625 93.388672 104.51172"
         y="0"
         sodipodi:role="line"
         id="tspan24">Thread Pool</tspan></text>
    <path
       id="path26"
       d="M 61,253 V 175.5 H 86 V 108.11"
       style="fill:none;stroke:#000000;stroke-width:1;stroke-linecap:butt;stroke-linejoin:miter;stroke-miterlimit:10;stroke-dasharray:none;stroke-opacity:1"
       transform="matrix(0.95808377,0,0,0.95808377,0.47904188,0.47904188)"
       clip-path="url(#clipPath27)" />
    <path
       id="path28"
       d="m 86,101.36 4.5,9 -4.5,-2.25 -4.5,2.25 z"
       style="fill:#000000;fill-opacity:1;fill-rule:nonzero;stroke:#000000;stroke-width:1;stroke-linecap:butt;stroke-linejoin:miter;stroke-miterlimit:10;stroke-dasharray:none;stroke-opacity:1"
       transform="matrix(0.95808377,0,0,0.95808377,0.47904188,0.47904188)"
       clip-path="url(#clipPath29)" />
    <path
       id="path30"
       d="m 26,253 h 70 v 35 H 26 Z"
       style="fill:#f5f5f5;fill-opacity:1;fill-rule:nonzero;stroke:#666666;stroke-width:1;stroke-linecap:butt;stroke-linejoin:miter;stroke-miterlimit:10;stroke-dasharray:none;stroke-opacity:1"
       transform="scale(0.95808377)"
       clip-path="url(#clipPath31)" />
    <text
       id="text31"
       xml:space="preserve"
       transform="matrix(0.95809337,0,0,0.95809337,30.045209,264.43377)"
       clip-path="url(#clipPath32)"><tspan
         style="font-variant:normal;font-weight:normal;font-size:13px;font-family:Helvetica;writing-mode:lr-tb;fill:#000000;fill-opacity:1;fill-rule:nonzero;stroke:none"
         x="0 7.940918 15.170898 19.5 26.72998 33.959961 41.189941 44.801758 52.031738"
         y="0"
         sodipodi:role="line"
         id="tspan31">Thread #1</tspan></text>
    <path
       id="path33"
       d="M 131,253 V 175.5 H 250 V 108.11"
       style="fill:none;stroke:#000000;stroke-width:1;stroke-linecap:butt;stroke-linejoin:miter;stroke-miterlimit:10;stroke-dasharray:none;stroke-opacity:1"
       transform="matrix(0.95808377,0,0,0.95808377,0.47904188,0.47904188)"
       clip-path="url(#clipPath34)" />
    <path
       id="path35"
       d="m 250,101.36 4.5,9 -4.5,-2.25 -4.5,2.25 z"
       style="fill:#000000;fill-opacity:1;fill-rule:nonzero;stroke:#000000;stroke-width:1;stroke-linecap:butt;stroke-linejoin:miter;stroke-miterlimit:10;stroke-dasharray:none;stroke-opacity:1"
       transform="matrix(0.95808377,0,0,0.95808377,0.47904188,0.47904188)"
       clip-path="url(#clipPath36)" />
    <path
       id="path37"
       d="m 96,253 h 70 v 35 H 96 Z"
       style="fill:#f5f5f5;fill-opacity:1;fill-rule:nonzero;stroke:#666666;stroke-width:1;stroke-linecap:butt;stroke-linejoin:miter;stroke-miterlimit:10;stroke-dasharray:none;stroke-opacity:1"
       transform="scale(0.95808377)"
       clip-path="url(#clipPath38)" />
    <text
       id="text38"
       xml:space="preserve"
       transform="matrix(0.95809337,0,0,0.95809337,97.111745,264.43377)"
       clip-path="url(#clipPath39)"><tspan
         style="font-variant:normal;font-weight:normal;font-size:13px;font-family:Helvetica;writing-mode:lr-tb;fill:#000000;fill-opacity:1;fill-rule:nonzero;stroke:none"
         x="0 7.940918 15.170898 19.5 26.72998 33.959961 41.189941 44.801758 52.031738"
         y="0"
         sodipodi:role="line"
         id="tspan38">Thread #2</tspan></text>
    <path
       id="path40"
       d="m 166,253 h 70 v 35 h -70 z"
       style="fill:#f5f5f5;fill-opacity:1;fill-rule:nonzero;stroke:#666666;stroke-width:1;stroke-linecap:butt;stroke-linejoin:miter;stroke-miterlimit:10;stroke-dasharray:none;stroke-opacity:1"
       transform="scale(0.95808377)"
       clip-path="url(#clipPath41)" />
    <text
       id="text41"
       xml:space="preserve"
       transform="matrix(0.95809337,0,0,0.95809337,164.17829,264.43377)"
       clip-path="url(#clipPath42)"><tspan
         style="font-variant:normal;font-weight:normal;font-size:13px;font-family:Helvetica;writing-mode:lr-tb;fill:#000000;fill-opacity:1;fill-rule:nonzero;stroke:none"
         x="0 7.940918 15.170898 19.5 26.72998 33.959961 41.189941 44.801758 52.031738"
         y="0"
         sodipodi:role="line"
         id="tspan41">Thread #3</tspan></text>
    <path
       id="path43"
       d="m 236,253 h 70 v 35 h -70 z"
       style="fill:#f5f5f5;fill-opacity:1;fill-rule:nonzero;stroke:#666666;stroke-width:1;stroke-linecap:butt;stroke-linejoin:miter;stroke-miterlimit:10;stroke-dasharray:none;stroke-opacity:1"
       transform="scale(0.95808377)"
       clip-path="url(#clipPath44)" />
    <text
       id="text44"
       xml:space="preserve"
       transform="matrix(0.95809337,0,0,0.95809337,231.24482,264.43377)"
       clip-path="url(#clipPath45)"><tspan
         style="font-variant:normal;font-weight:normal;font-size:13px;font-family:Helvetica;writing-mode:lr-tb;fill:#000000;fill-opacity:1;fill-rule:nonzero;stroke:none"
         x="0 7.940918 15.170898 19.5 26.72998 33.959961 41.189941 44.801758 52.031738"
         y="0"
         sodipodi:role="line"
         id="tspan44">Thread #4</tspan></text>
    <path
       id="path46"
       d="M 36,333 V 310.5 H 61 V 298.10999"
       style="fill:none;stroke:#000000;stroke-width:1;stroke-linecap:butt;stroke-linejoin:miter;stroke-miterlimit:10;stroke-dasharray:none;stroke-opacity:1"
       transform="matrix(0.95808377,0,0,0.95808377,0.47904188,0.47904188)"
       clip-path="url(#clipPath47)" />
    <path
       id="path48"
       d="m 61,291.35999 4.5,9 -4.5,-2.25 -4.5,2.25 z"
       style="fill:#000000;fill-opacity:1;fill-rule:nonzero;stroke:#000000;stroke-width:1;stroke-linecap:butt;stroke-linejoin:miter;stroke-miterlimit:10;stroke-dasharray:none;stroke-opacity:1"
       transform="matrix(0.95808377,0,0,0.95808377,0.47904188,0.47904188)"
       clip-path="url(#clipPath49)" />
    <path
       id="path50"
       d="m 1,333 h 70 v 35 H 1 Z"
       style="fill:#f5f5f5;fill-opacity:1;fill-rule:nonzero;stroke:#666666;stroke-width:1;stroke-linecap:butt;stroke-linejoin:miter;stroke-miterlimit:10;stroke-dasharray:none;stroke-opacity:1"
       transform="scale(0.95808377)"
       clip-path="url(#clipPath51)" />
    <text
       id="text51"
       xml:space="preserve"
       transform="matrix(0.95809337,0,0,0.95809337,10.254593,333.41649)"
       clip-path="url(#clipPath52)"><tspan
         style="font-variant:normal;font-weight:normal;font-size:13px;font-family:Helvetica;writing-mode:lr-tb;fill:#000000;fill-opacity:1;fill-rule:nonzero;stroke:none"
         x="0 8.6708984 17.341797 26.012695 35.400879 43.341797"
         y="0"
         sodipodi:role="line"
         id="tspan51">PBKDF2</tspan></text>
    <text
       id="text52"
       xml:space="preserve"
       transform="matrix(0.95809337,0,0,0.95809337,27.560155,348.74599)"
       clip-path="url(#clipPath53)"><tspan
         style="font-variant:normal;font-weight:normal;font-size:13px;font-family:Helvetica;writing-mode:lr-tb;fill:#000000;fill-opacity:1;fill-rule:nonzero;stroke:none"
         x="0 7.2299805"
         y="0"
         sodipodi:role="line"
         id="tspan52">#1</tspan></text>
    <path
       id="path54"
       d="M 131,333 V 298.10999"
       style="fill:none;stroke:#000000;stroke-width:1;stroke-linecap:butt;stroke-linejoin:miter;stroke-miterlimit:10;stroke-dasharray:none;stroke-opacity:1"
       transform="matrix(0.95808377,0,0,0.95808377,0.47904188,0.47904188)"
       clip-path="url(#clipPath55)" />
    <path
       id="path56"
       d="m 131,291.35999 4.5,9 -4.5,-2.25 -4.5,2.25 z"
       style="fill:#000000;fill-opacity:1;fill-rule:nonzero;stroke:#000000;stroke-width:1;stroke-linecap:butt;stroke-linejoin:miter;stroke-miterlimit:10;stroke-dasharray:none;stroke-opacity:1"
       transform="matrix(0.95808377,0,0,0.95808377,0.47904188,0.47904188)"
       clip-path="url(#clipPath57)" />
    <path
       id="path58"
       d="m 96,333 h 70 v 35 H 96 Z"
       style="fill:#f5f5f5;fill-opacity:1;fill-rule:nonzero;stroke:#666666;stroke-width:1;stroke-linecap:butt;stroke-linejoin:miter;stroke-miterlimit:10;stroke-dasharray:none;stroke-opacity:1"
       transform="scale(0.95808377)"
       clip-path="url(#clipPath59)" />
    <text
       id="text59"
       xml:space="preserve"
       transform="matrix(0.95809337,0,0,0.95809337,101.27346,333.41649)"
       clip-path="url(#clipPath60)"><tspan
         style="font-variant:normal;font-weight:normal;font-size:13px;font-family:Helvetica;writing-mode:lr-tb;fill:#000000;fill-opacity:1;fill-rule:nonzero;stroke:none"
         x="0 8.6708984 17.341797 26.012695 35.400879 43.341797"
         y="0"
         sodipodi:role="line"
         id="tspan59">PBKDF2</tspan></text>
    <text
       id="text60"
       xml:space="preserve"
       transform="matrix(0.95809337,0,0,0.95809337,118.57902,348.74599)"
       clip-path="url(#clipPath61)"><tspan
         style="font-variant:normal;font-weight:normal;font-size:13px;font-family:Helvetica;writing-mode:lr-tb;fill:#000000;fill-opacity:1;fill-rule:nonzero;stroke:none"
         x="0 7.2299805"
         y="0"
         sodipodi:role="line"
         id="tspan60">#2</tspan></text>
  </g>
</svg>
