<?xml version="1.0" encoding="UTF-8" standalone="no"?>
<!-- Created with Inkscape (http://www.inkscape.org/) -->

<svg
   version="1.1"
   id="svg1"
   width="358.72"
   height="274.56"
   viewBox="0 0 358.72 274.56"
   sodipodi:docname="node-17.pdf"
   xmlns:inkscape="http://www.inkscape.org/namespaces/inkscape"
   xmlns:sodipodi="http://sodipodi.sourceforge.net/DTD/sodipodi-0.dtd"
   xmlns="http://www.w3.org/2000/svg"
   xmlns:svg="http://www.w3.org/2000/svg">
  <defs
     id="defs1">
    <clipPath
       clipPathUnits="userSpaceOnUse"
       id="clipPath2">
      <path
         d="M 0,0 H 1120.8334 V 857.10785 H 0 Z"
         transform="scale(0.33368031)"
         clip-rule="evenodd"
         id="path2" />
    </clipPath>
    <clipPath
       clipPathUnits="userSpaceOnUse"
       id="clipPath4">
      <path
         d="M 0,0 H 1120.8334 V 851.11407 H 0 Z"
         transform="scale(0.33368031)"
         clip-rule="evenodd"
         id="path4" />
    </clipPath>
    <clipPath
       clipPathUnits="userSpaceOnUse"
       id="clipPath5">
      <path
         d="M 0,0 H 1120.8334 V 851.11407 H 0 Z"
         transform="matrix(0.33367695,0,0,0.33367695,-117.09375,-19)"
         clip-rule="evenodd"
         id="path5" />
    </clipPath>
    <clipPath
       clipPathUnits="userSpaceOnUse"
       id="clipPath7">
      <path
         d="M 0,0 H 1120.8334 V 851.11407 H 0 Z"
         transform="scale(0.33368031)"
         clip-rule="evenodd"
         id="path7" />
    </clipPath>
    <clipPath
       clipPathUnits="userSpaceOnUse"
       id="clipPath8">
      <path
         d="M 0,0 H 1120.8334 V 851.11407 H 0 Z"
         transform="matrix(0.33367695,0,0,0.33367695,-122.0625,-240)"
         clip-rule="evenodd"
         id="path8" />
    </clipPath>
    <clipPath
       clipPathUnits="userSpaceOnUse"
       id="clipPath10">
      <path
         d="M 0,0 H 1120.8334 V 851.11407 H 0 Z"
         transform="matrix(0.33368031,0,0,0.33368031,-0.50000001,-0.50000001)"
         clip-rule="evenodd"
         id="path10" />
    </clipPath>
    <clipPath
       clipPathUnits="userSpaceOnUse"
       id="clipPath12">
      <path
         d="M 0,0 H 1120.8334 V 851.11407 H 0 Z"
         transform="matrix(0.33368031,0,0,0.33368031,-0.50000001,-0.50000001)"
         clip-rule="evenodd"
         id="path12" />
    </clipPath>
  </defs>
  <sodipodi:namedview
     id="namedview1"
     pagecolor="#ffffff"
     bordercolor="#000000"
     borderopacity="0.25"
     inkscape:showpageshadow="2"
     inkscape:pageopacity="0.0"
     inkscape:pagecheckerboard="0"
     inkscape:deskcolor="#d1d1d1">
    <inkscape:page
       x="0"
       y="0"
       inkscape:label="1"
       id="page1"
       width="358.72"
       height="274.56"
       margin="0"
       bleed="0" />
  </sodipodi:namedview>
  <g
     id="g1"
     inkscape:groupmode="layer"
     inkscape:label="1">
    <path
       id="path1"
       d="M 0,0 H 374 V 286 H 0 Z"
       style="fill:#ffffff;fill-opacity:1;fill-rule:nonzero;stroke:none"
       transform="scale(0.95900172)"
       clip-path="url(#clipPath2)" />
    <path
       id="path3"
       d="M 1,24 H 371 V 281 H 1 Z"
       style="fill:#d5e8d4;fill-opacity:1;fill-rule:nonzero;stroke:#82b366;stroke-width:1;stroke-linecap:butt;stroke-linejoin:miter;stroke-miterlimit:10;stroke-dasharray:none;stroke-opacity:1"
       transform="scale(0.95900172)"
       clip-path="url(#clipPath4)" />
    <text
       id="text4"
       xml:space="preserve"
       transform="matrix(0.95901135,0,0,0.95901135,112.29424,18.221216)"
       clip-path="url(#clipPath5)"><tspan
         style="font-variant:normal;font-weight:700;font-size:20px;font-family:Helvetica;writing-mode:lr-tb;fill:#000000;fill-opacity:1;fill-rule:nonzero;stroke:none"
         x="0 14.443359 26.660156 38.876953 50 55.556641 68.896484 76.679688 88.896484 101.11328 108.89648 120.01953"
         y="0"
         sodipodi:role="line"
         id="tspan4">Node Program</tspan></text>
    <path
       id="path6"
       d="m 48.5,49 h 275 v 202 h -275 z"
       style="fill:#dae8fc;fill-opacity:1;fill-rule:nonzero;stroke:#6c8ebf;stroke-width:1;stroke-linecap:butt;stroke-linejoin:miter;stroke-miterlimit:10;stroke-dasharray:none;stroke-opacity:1"
       transform="scale(0.95900172)"
       clip-path="url(#clipPath7)" />
    <text
       id="text7"
       xml:space="preserve"
       transform="matrix(0.95901135,0,0,0.95901135,117.05932,230.16272)"
       clip-path="url(#clipPath8)"><tspan
         style="font-style:oblique;font-variant:normal;font-weight:700;font-size:20px;font-family:Helvetica;writing-mode:lr-tb;fill:#000000;fill-opacity:1;fill-rule:nonzero;stroke:none"
         x="0 9.4824219 22.822266 33.945312 45.068359 57.285156 63.945312 69.501953 81.71875 93.935547 106.15234 118.36914"
         y="0"
         sodipodi:role="line"
         id="tspan7">&quot;Event Loop&quot;</tspan></text>
    <path
       id="path9"
       d="m 171,91 -5,5 c -3.33333,3.333336 -7.35667,7.35667 -12.07001,12.07 L 147.47,114.54 C 143.15666,118.84666 141,124.33334 141,131 v 10 c 0,6.66667 1.85001,12.77333 5.55,18.32001 l 8.9,13.35998 c 3.69999,5.54668 8.71333,9.37334 15.04001,11.48001 l 11.01998,3.68 c 6.32668,2.10667 12.47335,1.66999 18.44001,-1.31 l 5.52,-2.76 c 3.68666,-1.84666 7.02001,-5.75 10,-11.71 l 2.77001,-5.53 c 1.83999,-3.68666 3.81332,-8.69333 5.91999,-15.02001 L 227.84,140.49 c 2.10667,-6.32667 2.10667,-12.65333 0,-18.98 l -3.68,-11.02 c -2.10667,-6.32667 -6.32,-10.543337 -12.64,-12.650004 l -10.93,-3.639999"
       style="fill:none;stroke:#000000;stroke-width:1;stroke-linecap:butt;stroke-linejoin:miter;stroke-miterlimit:10;stroke-dasharray:none;stroke-opacity:1"
       transform="matrix(0.95900172,0,0,0.95900172,0.47950087,0.47950087)"
       clip-path="url(#clipPath10)" />
    <path
       id="path11"
       d="m 194.17999,92.059998 9.97,-1.419999 L 200.59,94.199997 201.3,99.18 Z"
       style="fill:#000000;fill-opacity:1;fill-rule:nonzero;stroke:#000000;stroke-width:1;stroke-linecap:butt;stroke-linejoin:miter;stroke-miterlimit:10;stroke-dasharray:none;stroke-opacity:1"
       transform="matrix(0.95900172,0,0,0.95900172,0.47950087,0.47950087)"
       clip-path="url(#clipPath12)" />
  </g>
</svg>
