<?xml version="1.0" encoding="UTF-8" standalone="no"?>
<!-- Created with Inkscape (http://www.inkscape.org/) -->

<svg
   version="1.1"
   id="svg1"
   width="340.16"
   height="373.44"
   viewBox="0 0 340.16 373.44"
   sodipodi:docname="node-28.pdf"
   xmlns:inkscape="http://www.inkscape.org/namespaces/inkscape"
   xmlns:sodipodi="http://sodipodi.sourceforge.net/DTD/sodipodi-0.dtd"
   xmlns="http://www.w3.org/2000/svg"
   xmlns:svg="http://www.w3.org/2000/svg">
  <defs
     id="defs1">
    <clipPath
       clipPathUnits="userSpaceOnUse"
       id="clipPath2">
      <path
         d="M 0,0 H 1062.5 V 1164.548 H 0 Z"
         transform="scale(0.33317647)"
         clip-rule="evenodd"
         id="path2" />
    </clipPath>
    <clipPath
       clipPathUnits="userSpaceOnUse"
       id="clipPath3">
      <path
         d="M 0,0 H 1062.5 V 1164.548 H 0 Z"
         transform="matrix(0.33317314,0,0,0.33317314,-88.1875,-19)"
         clip-rule="evenodd"
         id="path3" />
    </clipPath>
    <clipPath
       clipPathUnits="userSpaceOnUse"
       id="clipPath5">
      <path
         d="M 0,0 H 1062.5 V 1164.548 H 0 Z"
         transform="scale(0.33317647)"
         clip-rule="evenodd"
         id="path5" />
    </clipPath>
    <clipPath
       clipPathUnits="userSpaceOnUse"
       id="clipPath7">
      <path
         d="M 0,0 H 1062.5 V 1164.548 H 0 Z"
         transform="scale(0.33317647)"
         clip-rule="evenodd"
         id="path7" />
    </clipPath>
    <clipPath
       clipPathUnits="userSpaceOnUse"
       id="clipPath8">
      <path
         d="M 0,0 H 1062.5 V 1164.548 H 0 Z"
         transform="matrix(0.33317314,0,0,0.33317314,-60.421874,-78)"
         clip-rule="evenodd"
         id="path8" />
    </clipPath>
    <clipPath
       clipPathUnits="userSpaceOnUse"
       id="clipPath10">
      <path
         d="M 0,0 H 1062.5 V 1164.548 H 0 Z"
         transform="scale(0.33317647)"
         clip-rule="evenodd"
         id="path10" />
    </clipPath>
    <clipPath
       clipPathUnits="userSpaceOnUse"
       id="clipPath11">
      <path
         d="M 0,0 H 1062.5 V 1164.548 H 0 Z"
         transform="matrix(0.33317314,0,0,0.33317314,-224.42188,-78)"
         clip-rule="evenodd"
         id="path11" />
    </clipPath>
    <clipPath
       clipPathUnits="userSpaceOnUse"
       id="clipPath13">
      <path
         d="M 0,0 H 1062.5 V 1164.548 H 0 Z"
         transform="matrix(0.33317647,0,0,0.33317647,-0.49999999,-0.49999999)"
         clip-rule="evenodd"
         id="path13" />
    </clipPath>
    <clipPath
       clipPathUnits="userSpaceOnUse"
       id="clipPath15">
      <path
         d="M 0,0 H 1062.5 V 1164.548 H 0 Z"
         transform="matrix(0.33317647,0,0,0.33317647,-0.49999999,-0.49999999)"
         clip-rule="evenodd"
         id="path15" />
    </clipPath>
    <clipPath
       clipPathUnits="userSpaceOnUse"
       id="clipPath17">
      <path
         d="M 0,0 H 1062.5 V 1164.548 H 0 Z"
         transform="scale(0.33317647)"
         clip-rule="evenodd"
         id="path17" />
    </clipPath>
    <clipPath
       clipPathUnits="userSpaceOnUse"
       id="clipPath18">
      <path
         d="M 0,0 H 1062.5 V 1164.548 H 0 Z"
         transform="matrix(0.33317314,0,0,0.33317314,-79.453125,-170)"
         clip-rule="evenodd"
         id="path18" />
    </clipPath>
    <clipPath
       clipPathUnits="userSpaceOnUse"
       id="clipPath20">
      <path
         d="M 0,0 H 1062.5 V 1164.548 H 0 Z"
         transform="matrix(0.33317647,0,0,0.33317647,-0.49999999,-0.49999999)"
         clip-rule="evenodd"
         id="path20" />
    </clipPath>
    <clipPath
       clipPathUnits="userSpaceOnUse"
       id="clipPath22">
      <path
         d="M 0,0 H 1062.5 V 1164.548 H 0 Z"
         transform="matrix(0.33317647,0,0,0.33317647,-0.49999999,-0.49999999)"
         clip-rule="evenodd"
         id="path22" />
    </clipPath>
    <clipPath
       clipPathUnits="userSpaceOnUse"
       id="clipPath24">
      <path
         d="M 0,0 H 1062.5 V 1164.548 H 0 Z"
         transform="scale(0.33317647)"
         clip-rule="evenodd"
         id="path24" />
    </clipPath>
    <clipPath
       clipPathUnits="userSpaceOnUse"
       id="clipPath25">
      <path
         d="M 0,0 H 1062.5 V 1164.548 H 0 Z"
         transform="matrix(0.33317314,0,0,0.33317314,-121.51562,-250)"
         clip-rule="evenodd"
         id="path25" />
    </clipPath>
    <clipPath
       clipPathUnits="userSpaceOnUse"
       id="clipPath27">
      <path
         d="M 0,0 H 1062.5 V 1164.548 H 0 Z"
         transform="scale(0.33317647)"
         clip-rule="evenodd"
         id="path27" />
    </clipPath>
    <clipPath
       clipPathUnits="userSpaceOnUse"
       id="clipPath28">
      <path
         d="M 0,0 H 1062.5 V 1164.548 H 0 Z"
         transform="matrix(0.33317314,0,0,0.33317314,-6.359375,-286)"
         clip-rule="evenodd"
         id="path28" />
    </clipPath>
    <clipPath
       clipPathUnits="userSpaceOnUse"
       id="clipPath30">
      <path
         d="M 0,0 H 1062.5 V 1164.548 H 0 Z"
         transform="scale(0.33317647)"
         clip-rule="evenodd"
         id="path30" />
    </clipPath>
    <clipPath
       clipPathUnits="userSpaceOnUse"
       id="clipPath31">
      <path
         d="M 0,0 H 1062.5 V 1164.548 H 0 Z"
         transform="matrix(0.33317314,0,0,0.33317314,-76.359375,-286)"
         clip-rule="evenodd"
         id="path31" />
    </clipPath>
    <clipPath
       clipPathUnits="userSpaceOnUse"
       id="clipPath33">
      <path
         d="M 0,0 H 1062.5 V 1164.548 H 0 Z"
         transform="matrix(0.33317647,0,0,0.33317647,-0.49999999,-0.49999999)"
         clip-rule="evenodd"
         id="path33" />
    </clipPath>
    <clipPath
       clipPathUnits="userSpaceOnUse"
       id="clipPath35">
      <path
         d="M 0,0 H 1062.5 V 1164.548 H 0 Z"
         transform="matrix(0.33317647,0,0,0.33317647,-0.49999999,-0.49999999)"
         clip-rule="evenodd"
         id="path35" />
    </clipPath>
    <clipPath
       clipPathUnits="userSpaceOnUse"
       id="clipPath37">
      <path
         d="M 0,0 H 1062.5 V 1164.548 H 0 Z"
         transform="scale(0.33317647)"
         clip-rule="evenodd"
         id="path37" />
    </clipPath>
    <clipPath
       clipPathUnits="userSpaceOnUse"
       id="clipPath38">
      <path
         d="M 0,0 H 1062.5 V 1164.548 H 0 Z"
         transform="matrix(0.33317314,0,0,0.33317314,-10.703125,-365)"
         clip-rule="evenodd"
         id="path38" />
    </clipPath>
    <clipPath
       clipPathUnits="userSpaceOnUse"
       id="clipPath39">
      <path
         d="M 0,0 H 1062.5 V 1164.548 H 0 Z"
         transform="matrix(0.33317314,0,0,0.33317314,-28.765625,-381)"
         clip-rule="evenodd"
         id="path39" />
    </clipPath>
    <clipPath
       clipPathUnits="userSpaceOnUse"
       id="clipPath41">
      <path
         d="M 0,0 H 1062.5 V 1164.548 H 0 Z"
         transform="matrix(0.33317647,0,0,0.33317647,-0.49999999,-0.49999999)"
         clip-rule="evenodd"
         id="path41" />
    </clipPath>
    <clipPath
       clipPathUnits="userSpaceOnUse"
       id="clipPath43">
      <path
         d="M 0,0 H 1062.5 V 1164.548 H 0 Z"
         transform="matrix(0.33317647,0,0,0.33317647,-0.49999999,-0.49999999)"
         clip-rule="evenodd"
         id="path43" />
    </clipPath>
    <clipPath
       clipPathUnits="userSpaceOnUse"
       id="clipPath45">
      <path
         d="M 0,0 H 1062.5 V 1164.548 H 0 Z"
         transform="scale(0.33317647)"
         clip-rule="evenodd"
         id="path45" />
    </clipPath>
    <clipPath
       clipPathUnits="userSpaceOnUse"
       id="clipPath46">
      <path
         d="M 0,0 H 1062.5 V 1164.548 H 0 Z"
         transform="matrix(0.33317314,0,0,0.33317314,-80.703125,-365)"
         clip-rule="evenodd"
         id="path46" />
    </clipPath>
    <clipPath
       clipPathUnits="userSpaceOnUse"
       id="clipPath47">
      <path
         d="M 0,0 H 1062.5 V 1164.548 H 0 Z"
         transform="matrix(0.33317314,0,0,0.33317314,-98.765625,-381)"
         clip-rule="evenodd"
         id="path47" />
    </clipPath>
    <clipPath
       clipPathUnits="userSpaceOnUse"
       id="clipPath49">
      <path
         d="M 0,0 H 1062.5 V 1164.548 H 0 Z"
         transform="matrix(0.33317647,0,0,0.33317647,-0.49999999,-0.49999999)"
         clip-rule="evenodd"
         id="path49" />
    </clipPath>
    <clipPath
       clipPathUnits="userSpaceOnUse"
       id="clipPath51">
      <path
         d="M 0,0 H 1062.5 V 1164.548 H 0 Z"
         transform="matrix(0.33317647,0,0,0.33317647,-0.49999999,-0.49999999)"
         clip-rule="evenodd"
         id="path51" />
    </clipPath>
    <clipPath
       clipPathUnits="userSpaceOnUse"
       id="clipPath53">
      <path
         d="M 0,0 H 1062.5 V 1164.548 H 0 Z"
         transform="scale(0.33317647)"
         clip-rule="evenodd"
         id="path53" />
    </clipPath>
    <clipPath
       clipPathUnits="userSpaceOnUse"
       id="clipPath54">
      <path
         d="M 0,0 H 1062.5 V 1164.548 H 0 Z"
         transform="matrix(0.33317314,0,0,0.33317314,-150.70312,-365)"
         clip-rule="evenodd"
         id="path54" />
    </clipPath>
    <clipPath
       clipPathUnits="userSpaceOnUse"
       id="clipPath55">
      <path
         d="M 0,0 H 1062.5 V 1164.548 H 0 Z"
         transform="matrix(0.33317314,0,0,0.33317314,-168.76562,-381)"
         clip-rule="evenodd"
         id="path55" />
    </clipPath>
    <clipPath
       clipPathUnits="userSpaceOnUse"
       id="clipPath57">
      <path
         d="M 0,0 H 1062.5 V 1164.548 H 0 Z"
         transform="matrix(0.33317647,0,0,0.33317647,-0.49999999,-0.49999999)"
         clip-rule="evenodd"
         id="path57" />
    </clipPath>
    <clipPath
       clipPathUnits="userSpaceOnUse"
       id="clipPath59">
      <path
         d="M 0,0 H 1062.5 V 1164.548 H 0 Z"
         transform="matrix(0.33317647,0,0,0.33317647,-0.49999999,-0.49999999)"
         clip-rule="evenodd"
         id="path59" />
    </clipPath>
    <clipPath
       clipPathUnits="userSpaceOnUse"
       id="clipPath61">
      <path
         d="M 0,0 H 1062.5 V 1164.548 H 0 Z"
         transform="scale(0.33317647)"
         clip-rule="evenodd"
         id="path61" />
    </clipPath>
    <clipPath
       clipPathUnits="userSpaceOnUse"
       id="clipPath62">
      <path
         d="M 0,0 H 1062.5 V 1164.548 H 0 Z"
         transform="matrix(0.33317314,0,0,0.33317314,-220.70313,-365)"
         clip-rule="evenodd"
         id="path62" />
    </clipPath>
    <clipPath
       clipPathUnits="userSpaceOnUse"
       id="clipPath63">
      <path
         d="M 0,0 H 1062.5 V 1164.548 H 0 Z"
         transform="matrix(0.33317314,0,0,0.33317314,-238.76563,-381)"
         clip-rule="evenodd"
         id="path63" />
    </clipPath>
    <clipPath
       clipPathUnits="userSpaceOnUse"
       id="clipPath65">
      <path
         d="M 0,0 H 1062.5 V 1164.548 H 0 Z"
         transform="matrix(0.33317647,0,0,0.33317647,-0.49999999,-0.49999999)"
         clip-rule="evenodd"
         id="path65" />
    </clipPath>
    <clipPath
       clipPathUnits="userSpaceOnUse"
       id="clipPath67">
      <path
         d="M 0,0 H 1062.5 V 1164.548 H 0 Z"
         transform="matrix(0.33317647,0,0,0.33317647,-0.49999999,-0.49999999)"
         clip-rule="evenodd"
         id="path67" />
    </clipPath>
    <clipPath
       clipPathUnits="userSpaceOnUse"
       id="clipPath69">
      <path
         d="M 0,0 H 1062.5 V 1164.548 H 0 Z"
         transform="scale(0.33317647)"
         clip-rule="evenodd"
         id="path69" />
    </clipPath>
    <clipPath
       clipPathUnits="userSpaceOnUse"
       id="clipPath70">
      <path
         d="M 0,0 H 1062.5 V 1164.548 H 0 Z"
         transform="matrix(0.33317314,0,0,0.33317314,-290.70313,-365)"
         clip-rule="evenodd"
         id="path70" />
    </clipPath>
    <clipPath
       clipPathUnits="userSpaceOnUse"
       id="clipPath71">
      <path
         d="M 0,0 H 1062.5 V 1164.548 H 0 Z"
         transform="matrix(0.33317314,0,0,0.33317314,-308.76563,-381)"
         clip-rule="evenodd"
         id="path71" />
    </clipPath>
    <clipPath
       clipPathUnits="userSpaceOnUse"
       id="clipPath73">
      <path
         d="M 0,0 H 1062.5 V 1164.548 H 0 Z"
         transform="scale(0.33317647)"
         clip-rule="evenodd"
         id="path73" />
    </clipPath>
    <clipPath
       clipPathUnits="userSpaceOnUse"
       id="clipPath74">
      <path
         d="M 0,0 H 1062.5 V 1164.548 H 0 Z"
         transform="matrix(0.33317314,0,0,0.33317314,-146.35938,-286)"
         clip-rule="evenodd"
         id="path74" />
    </clipPath>
    <clipPath
       clipPathUnits="userSpaceOnUse"
       id="clipPath76">
      <path
         d="M 0,0 H 1062.5 V 1164.548 H 0 Z"
         transform="scale(0.33317647)"
         clip-rule="evenodd"
         id="path76" />
    </clipPath>
    <clipPath
       clipPathUnits="userSpaceOnUse"
       id="clipPath77">
      <path
         d="M 0,0 H 1062.5 V 1164.548 H 0 Z"
         transform="matrix(0.33317314,0,0,0.33317314,-216.35938,-286)"
         clip-rule="evenodd"
         id="path77" />
    </clipPath>
    <clipPath
       clipPathUnits="userSpaceOnUse"
       id="clipPath79">
      <path
         d="M 0,0 H 1062.5 V 1164.548 H 0 Z"
         transform="scale(0.33317647)"
         clip-rule="evenodd"
         id="path79" />
    </clipPath>
    <clipPath
       clipPathUnits="userSpaceOnUse"
       id="clipPath80">
      <path
         d="M 0,0 H 1062.5 V 1164.548 H 0 Z"
         transform="matrix(0.33317314,0,0,0.33317314,-286.35938,-286)"
         clip-rule="evenodd"
         id="path80" />
    </clipPath>
  </defs>
  <sodipodi:namedview
     id="namedview1"
     pagecolor="#ffffff"
     bordercolor="#000000"
     borderopacity="0.25"
     inkscape:showpageshadow="2"
     inkscape:pageopacity="0.0"
     inkscape:pagecheckerboard="0"
     inkscape:deskcolor="#d1d1d1">
    <inkscape:page
       x="0"
       y="0"
       inkscape:label="1"
       id="page1"
       width="340.16"
       height="373.44"
       margin="0"
       bleed="0" />
  </sodipodi:namedview>
  <g
     id="g1"
     inkscape:groupmode="layer"
     inkscape:label="1">
    <path
       id="path1"
       d="M 0,0 H 354 V 388 H 0 Z"
       style="fill:#ffffff;fill-opacity:1;fill-rule:nonzero;stroke:none"
       transform="scale(0.96045193)"
       clip-path="url(#clipPath2)" />
    <text
       id="text2"
       xml:space="preserve"
       transform="matrix(0.96046153,0,0,0.96046153,84.700701,18.248769)"
       clip-path="url(#clipPath3)"><tspan
         style="font-variant:normal;font-weight:700;font-size:20px;font-family:Helvetica;writing-mode:lr-tb;fill:#000000;fill-opacity:1;fill-rule:nonzero;stroke:none"
         x="0 11.123047 22.246094 33.369141 44.492188 50.048828 66.708984 77.832031 88.955078 101.17188 113.38867 125.60547 136.72852 142.28516 155.625 163.4082"
         y="0"
         sodipodi:role="line"
         id="tspan2">2015 Macbook Pro</tspan></text>
    <path
       id="path4"
       d="m 11,23 h 330 v 90 H 11 Z"
       style="fill:#d5e8d4;fill-opacity:1;fill-rule:nonzero;stroke:#82b366;stroke-width:1;stroke-linecap:butt;stroke-linejoin:miter;stroke-miterlimit:10;stroke-dasharray:none;stroke-opacity:1"
       transform="scale(0.96045193)"
       clip-path="url(#clipPath5)" />
    <path
       id="path6"
       d="M 24,43 H 168 V 98 H 24 Z"
       style="fill:#f8cecc;fill-opacity:1;fill-rule:nonzero;stroke:#b85450;stroke-width:1;stroke-linecap:butt;stroke-linejoin:miter;stroke-miterlimit:10;stroke-dasharray:none;stroke-opacity:1"
       transform="scale(0.96045193)"
       clip-path="url(#clipPath7)" />
    <text
       id="text7"
       xml:space="preserve"
       transform="matrix(0.96046153,0,0,0.96046153,58.032886,74.915999)"
       clip-path="url(#clipPath8)"><tspan
         style="font-variant:normal;font-weight:normal;font-size:20px;font-family:Helvetica;writing-mode:lr-tb;fill:#000000;fill-opacity:1;fill-rule:nonzero;stroke:none"
         x="0 14.443359 25.566406 32.226562 43.349609 48.90625 60.029297"
         y="0"
         sodipodi:role="line"
         id="tspan7">Core #1</tspan></text>
    <path
       id="path9"
       d="M 188,43 H 332 V 98 H 188 Z"
       style="fill:#dae8fc;fill-opacity:1;fill-rule:nonzero;stroke:#6c8ebf;stroke-width:1;stroke-linecap:butt;stroke-linejoin:miter;stroke-miterlimit:10;stroke-dasharray:none;stroke-opacity:1"
       transform="scale(0.96045193)"
       clip-path="url(#clipPath10)" />
    <text
       id="text10"
       xml:space="preserve"
       transform="matrix(0.96046153,0,0,0.96046153,215.54858,74.915999)"
       clip-path="url(#clipPath11)"><tspan
         style="font-variant:normal;font-weight:normal;font-size:20px;font-family:Helvetica;writing-mode:lr-tb;fill:#000000;fill-opacity:1;fill-rule:nonzero;stroke:none"
         x="0 14.443359 25.566406 32.226562 43.349609 48.90625 60.029297"
         y="0"
         sodipodi:role="line"
         id="tspan10">Core #2</tspan></text>
    <path
       id="path12"
       d="M 176,143 V 123.11"
       style="fill:none;stroke:#000000;stroke-width:1;stroke-linecap:butt;stroke-linejoin:miter;stroke-miterlimit:10;stroke-dasharray:none;stroke-opacity:1"
       transform="matrix(0.96045193,0,0,0.96045193,0.48022596,0.48022596)"
       clip-path="url(#clipPath13)" />
    <path
       id="path14"
       d="m 176,116.36 4.5,9 -4.5,-2.25 -4.5,2.25 z"
       style="fill:#000000;fill-opacity:1;fill-rule:nonzero;stroke:#000000;stroke-width:1;stroke-linecap:butt;stroke-linejoin:miter;stroke-miterlimit:10;stroke-dasharray:none;stroke-opacity:1"
       transform="matrix(0.96045193,0,0,0.96045193,0.48022596,0.48022596)"
       clip-path="url(#clipPath15)" />
    <path
       id="path16"
       d="m 11,143 h 330 v 40 H 11 Z"
       style="fill:#ffffff;fill-opacity:1;fill-rule:nonzero;stroke:#000000;stroke-width:1;stroke-linecap:butt;stroke-linejoin:miter;stroke-miterlimit:10;stroke-dasharray:none;stroke-opacity:1"
       transform="scale(0.96045193)"
       clip-path="url(#clipPath17)" />
    <text
       id="text17"
       xml:space="preserve"
       transform="matrix(0.96046153,0,0,0.96046153,76.31167,163.27846)"
       clip-path="url(#clipPath18)"><tspan
         style="font-variant:normal;font-weight:normal;font-size:20px;font-family:Helvetica;writing-mode:lr-tb;fill:#000000;fill-opacity:1;fill-rule:nonzero;stroke:none"
         x="0 15.556641 28.896484 34.101562 46.318359 57.441406 64.101562 75.224609 86.347656 97.470703 103.02734 116.36719 126.36719 137.49023 148.61328 159.73633 170.85938 175.30273 186.42578"
         y="0"
         sodipodi:role="line"
         id="tspan17">OS Thread Scheduler</tspan></text>
    <path
       id="path19"
       d="M 176,223 V 193.11"
       style="fill:none;stroke:#000000;stroke-width:1;stroke-linecap:butt;stroke-linejoin:miter;stroke-miterlimit:10;stroke-dasharray:none;stroke-opacity:1"
       transform="matrix(0.96045193,0,0,0.96045193,0.48022596,0.48022596)"
       clip-path="url(#clipPath20)" />
    <path
       id="path21"
       d="m 176,186.36 4.5,9 -4.5,-2.25 -4.5,2.25 z"
       style="fill:#000000;fill-opacity:1;fill-rule:nonzero;stroke:#000000;stroke-width:1;stroke-linecap:butt;stroke-linejoin:miter;stroke-miterlimit:10;stroke-dasharray:none;stroke-opacity:1"
       transform="matrix(0.96045193,0,0,0.96045193,0.48022596,0.48022596)"
       clip-path="url(#clipPath22)" />
    <path
       id="path23"
       d="m 1,223 h 350 v 40 H 1 Z"
       style="fill:#f5f5f5;fill-opacity:1;fill-rule:nonzero;stroke:#666666;stroke-width:1;stroke-linecap:butt;stroke-linejoin:miter;stroke-miterlimit:10;stroke-dasharray:none;stroke-opacity:1"
       transform="scale(0.96045193)"
       clip-path="url(#clipPath24)" />
    <text
       id="text24"
       xml:space="preserve"
       transform="matrix(0.96046153,0,0,0.96046153,116.71108,240.11538)"
       clip-path="url(#clipPath25)"><tspan
         style="font-variant:normal;font-weight:normal;font-size:20px;font-family:Helvetica;writing-mode:lr-tb;fill:#000000;fill-opacity:1;fill-rule:nonzero;stroke:none"
         x="0 12.216797 23.339844 30 41.123047 52.246094 63.369141 68.925781 82.265625 93.388672 104.51172"
         y="0"
         sodipodi:role="line"
         id="tspan24">Thread Pool</tspan></text>
    <path
       id="path26"
       d="m 1,263 h 70 v 35 H 1 Z"
       style="fill:#f5f5f5;fill-opacity:1;fill-rule:nonzero;stroke:#666666;stroke-width:1;stroke-linecap:butt;stroke-linejoin:miter;stroke-miterlimit:10;stroke-dasharray:none;stroke-opacity:1"
       transform="scale(0.96045193)"
       clip-path="url(#clipPath27)" />
    <text
       id="text27"
       xml:space="preserve"
       transform="matrix(0.96046153,0,0,0.96046153,6.107935,274.692)"
       clip-path="url(#clipPath28)"><tspan
         style="font-variant:normal;font-weight:normal;font-size:13px;font-family:Helvetica;writing-mode:lr-tb;fill:#000000;fill-opacity:1;fill-rule:nonzero;stroke:none"
         x="0 7.940918 15.170898 19.5 26.72998 33.959961 41.189941 44.801758 52.031738"
         y="0"
         sodipodi:role="line"
         id="tspan27">Thread #1</tspan></text>
    <path
       id="path29"
       d="m 71,263 h 70 v 35 H 71 Z"
       style="fill:#f5f5f5;fill-opacity:1;fill-rule:nonzero;stroke:#666666;stroke-width:1;stroke-linecap:butt;stroke-linejoin:miter;stroke-miterlimit:10;stroke-dasharray:none;stroke-opacity:1"
       transform="scale(0.96045193)"
       clip-path="url(#clipPath30)" />
    <text
       id="text30"
       xml:space="preserve"
       transform="matrix(0.96046153,0,0,0.96046153,73.340242,274.692)"
       clip-path="url(#clipPath31)"><tspan
         style="font-variant:normal;font-weight:normal;font-size:13px;font-family:Helvetica;writing-mode:lr-tb;fill:#000000;fill-opacity:1;fill-rule:nonzero;stroke:none"
         x="0 7.940918 15.170898 19.5 26.72998 33.959961 41.189941 44.801758 52.031738"
         y="0"
         sodipodi:role="line"
         id="tspan30">Thread #2</tspan></text>
    <path
       id="path32"
       d="M 36,350.5 V 308.10999"
       style="fill:none;stroke:#000000;stroke-width:1;stroke-linecap:butt;stroke-linejoin:miter;stroke-miterlimit:10;stroke-dasharray:none;stroke-opacity:1"
       transform="matrix(0.96045193,0,0,0.96045193,0.48022596,0.48022596)"
       clip-path="url(#clipPath33)" />
    <path
       id="path34"
       d="m 36,301.35999 4.5,9 -4.5,-2.25 -4.5,2.25 z"
       style="fill:#000000;fill-opacity:1;fill-rule:nonzero;stroke:#000000;stroke-width:1;stroke-linecap:butt;stroke-linejoin:miter;stroke-miterlimit:10;stroke-dasharray:none;stroke-opacity:1"
       transform="matrix(0.96045193,0,0,0.96045193,0.48022596,0.48022596)"
       clip-path="url(#clipPath35)" />
    <path
       id="path36"
       d="m 1,350.5 h 70 v 35 H 1 Z"
       style="fill:#f5f5f5;fill-opacity:1;fill-rule:nonzero;stroke:#666666;stroke-width:1;stroke-linecap:butt;stroke-linejoin:miter;stroke-miterlimit:10;stroke-dasharray:none;stroke-opacity:1"
       transform="scale(0.96045193)"
       clip-path="url(#clipPath37)" />
    <text
       id="text37"
       xml:space="preserve"
       transform="matrix(0.96046153,0,0,0.96046153,10.27994,350.56846)"
       clip-path="url(#clipPath38)"><tspan
         style="font-variant:normal;font-weight:normal;font-size:13px;font-family:Helvetica;writing-mode:lr-tb;fill:#000000;fill-opacity:1;fill-rule:nonzero;stroke:none"
         x="0 8.6708984 17.341797 26.012695 35.400879 43.341797"
         y="0"
         sodipodi:role="line"
         id="tspan37">PBKDF2</tspan></text>
    <text
       id="text38"
       xml:space="preserve"
       transform="matrix(0.96046153,0,0,0.96046153,27.628276,365.93584)"
       clip-path="url(#clipPath39)"><tspan
         style="font-variant:normal;font-weight:normal;font-size:13px;font-family:Helvetica;writing-mode:lr-tb;fill:#000000;fill-opacity:1;fill-rule:nonzero;stroke:none"
         x="0 7.2299805"
         y="0"
         sodipodi:role="line"
         id="tspan38">#1</tspan></text>
    <path
       id="path40"
       d="M 106,350.5 V 308.10999"
       style="fill:none;stroke:#000000;stroke-width:1;stroke-linecap:butt;stroke-linejoin:miter;stroke-miterlimit:10;stroke-dasharray:none;stroke-opacity:1"
       transform="matrix(0.96045193,0,0,0.96045193,0.48022596,0.48022596)"
       clip-path="url(#clipPath41)" />
    <path
       id="path42"
       d="m 106,301.35999 4.5,9 -4.5,-2.25 -4.5,2.25 z"
       style="fill:#000000;fill-opacity:1;fill-rule:nonzero;stroke:#000000;stroke-width:1;stroke-linecap:butt;stroke-linejoin:miter;stroke-miterlimit:10;stroke-dasharray:none;stroke-opacity:1"
       transform="matrix(0.96045193,0,0,0.96045193,0.48022596,0.48022596)"
       clip-path="url(#clipPath43)" />
    <path
       id="path44"
       d="m 71,350.5 h 70 v 35 H 71 Z"
       style="fill:#f5f5f5;fill-opacity:1;fill-rule:nonzero;stroke:#666666;stroke-width:1;stroke-linecap:butt;stroke-linejoin:miter;stroke-miterlimit:10;stroke-dasharray:none;stroke-opacity:1"
       transform="scale(0.96045193)"
       clip-path="url(#clipPath45)" />
    <text
       id="text45"
       xml:space="preserve"
       transform="matrix(0.96046153,0,0,0.96046153,77.512247,350.56846)"
       clip-path="url(#clipPath46)"><tspan
         style="font-variant:normal;font-weight:normal;font-size:13px;font-family:Helvetica;writing-mode:lr-tb;fill:#000000;fill-opacity:1;fill-rule:nonzero;stroke:none"
         x="0 8.6708984 17.341797 26.012695 35.400879 43.341797"
         y="0"
         sodipodi:role="line"
         id="tspan45">PBKDF2</tspan></text>
    <text
       id="text46"
       xml:space="preserve"
       transform="matrix(0.96046153,0,0,0.96046153,94.860583,365.93584)"
       clip-path="url(#clipPath47)"><tspan
         style="font-variant:normal;font-weight:normal;font-size:13px;font-family:Helvetica;writing-mode:lr-tb;fill:#000000;fill-opacity:1;fill-rule:nonzero;stroke:none"
         x="0 7.2299805"
         y="0"
         sodipodi:role="line"
         id="tspan46">#2</tspan></text>
    <path
       id="path48"
       d="M 176,350.5 V 308.10999"
       style="fill:none;stroke:#000000;stroke-width:1;stroke-linecap:butt;stroke-linejoin:miter;stroke-miterlimit:10;stroke-dasharray:none;stroke-opacity:1"
       transform="matrix(0.96045193,0,0,0.96045193,0.48022596,0.48022596)"
       clip-path="url(#clipPath49)" />
    <path
       id="path50"
       d="m 176,301.35999 4.5,9 -4.5,-2.25 -4.5,2.25 z"
       style="fill:#000000;fill-opacity:1;fill-rule:nonzero;stroke:#000000;stroke-width:1;stroke-linecap:butt;stroke-linejoin:miter;stroke-miterlimit:10;stroke-dasharray:none;stroke-opacity:1"
       transform="matrix(0.96045193,0,0,0.96045193,0.48022596,0.48022596)"
       clip-path="url(#clipPath51)" />
    <path
       id="path52"
       d="m 141,350.5 h 70 v 35 h -70 z"
       style="fill:#f5f5f5;fill-opacity:1;fill-rule:nonzero;stroke:#666666;stroke-width:1;stroke-linecap:butt;stroke-linejoin:miter;stroke-miterlimit:10;stroke-dasharray:none;stroke-opacity:1"
       transform="scale(0.96045193)"
       clip-path="url(#clipPath53)" />
    <text
       id="text53"
       xml:space="preserve"
       transform="matrix(0.96046153,0,0,0.96046153,144.74455,350.56846)"
       clip-path="url(#clipPath54)"><tspan
         style="font-variant:normal;font-weight:normal;font-size:13px;font-family:Helvetica;writing-mode:lr-tb;fill:#000000;fill-opacity:1;fill-rule:nonzero;stroke:none"
         x="0 8.6708984 17.341797 26.012695 35.400879 43.341797"
         y="0"
         sodipodi:role="line"
         id="tspan53">PBKDF2</tspan></text>
    <text
       id="text54"
       xml:space="preserve"
       transform="matrix(0.96046153,0,0,0.96046153,162.09289,365.93584)"
       clip-path="url(#clipPath55)"><tspan
         style="font-variant:normal;font-weight:normal;font-size:13px;font-family:Helvetica;writing-mode:lr-tb;fill:#000000;fill-opacity:1;fill-rule:nonzero;stroke:none"
         x="0 7.2299805"
         y="0"
         sodipodi:role="line"
         id="tspan54">#3</tspan></text>
    <path
       id="path56"
       d="M 246,350.5 V 308.10999"
       style="fill:none;stroke:#000000;stroke-width:1;stroke-linecap:butt;stroke-linejoin:miter;stroke-miterlimit:10;stroke-dasharray:none;stroke-opacity:1"
       transform="matrix(0.96045193,0,0,0.96045193,0.48022596,0.48022596)"
       clip-path="url(#clipPath57)" />
    <path
       id="path58"
       d="m 246,301.35999 4.5,9 -4.5,-2.25 -4.5,2.25 z"
       style="fill:#000000;fill-opacity:1;fill-rule:nonzero;stroke:#000000;stroke-width:1;stroke-linecap:butt;stroke-linejoin:miter;stroke-miterlimit:10;stroke-dasharray:none;stroke-opacity:1"
       transform="matrix(0.96045193,0,0,0.96045193,0.48022596,0.48022596)"
       clip-path="url(#clipPath59)" />
    <path
       id="path60"
       d="m 211,350.5 h 70 v 35 h -70 z"
       style="fill:#f5f5f5;fill-opacity:1;fill-rule:nonzero;stroke:#666666;stroke-width:1;stroke-linecap:butt;stroke-linejoin:miter;stroke-miterlimit:10;stroke-dasharray:none;stroke-opacity:1"
       transform="scale(0.96045193)"
       clip-path="url(#clipPath61)" />
    <text
       id="text61"
       xml:space="preserve"
       transform="matrix(0.96046153,0,0,0.96046153,211.97687,350.56846)"
       clip-path="url(#clipPath62)"><tspan
         style="font-variant:normal;font-weight:normal;font-size:13px;font-family:Helvetica;writing-mode:lr-tb;fill:#000000;fill-opacity:1;fill-rule:nonzero;stroke:none"
         x="0 8.6708984 17.341797 26.012695 35.400879 43.341797"
         y="0"
         sodipodi:role="line"
         id="tspan61">PBKDF2</tspan></text>
    <text
       id="text62"
       xml:space="preserve"
       transform="matrix(0.96046153,0,0,0.96046153,229.3252,365.93584)"
       clip-path="url(#clipPath63)"><tspan
         style="font-variant:normal;font-weight:normal;font-size:13px;font-family:Helvetica;writing-mode:lr-tb;fill:#000000;fill-opacity:1;fill-rule:nonzero;stroke:none"
         x="0 7.2299805"
         y="0"
         sodipodi:role="line"
         id="tspan62">#4</tspan></text>
    <path
       id="path64"
       d="M 316,350.5 V 308.10999"
       style="fill:none;stroke:#000000;stroke-width:1;stroke-linecap:butt;stroke-linejoin:miter;stroke-miterlimit:10;stroke-dasharray:none;stroke-opacity:1"
       transform="matrix(0.96045193,0,0,0.96045193,0.48022596,0.48022596)"
       clip-path="url(#clipPath65)" />
    <path
       id="path66"
       d="m 316,301.35999 4.5,9 -4.5,-2.25 -4.5,2.25 z"
       style="fill:#000000;fill-opacity:1;fill-rule:nonzero;stroke:#000000;stroke-width:1;stroke-linecap:butt;stroke-linejoin:miter;stroke-miterlimit:10;stroke-dasharray:none;stroke-opacity:1"
       transform="matrix(0.96045193,0,0,0.96045193,0.48022596,0.48022596)"
       clip-path="url(#clipPath67)" />
    <path
       id="path68"
       d="m 281,350.5 h 70 v 35 h -70 z"
       style="fill:#f5f5f5;fill-opacity:1;fill-rule:nonzero;stroke:#666666;stroke-width:1;stroke-linecap:butt;stroke-linejoin:miter;stroke-miterlimit:10;stroke-dasharray:none;stroke-opacity:1"
       transform="scale(0.96045193)"
       clip-path="url(#clipPath69)" />
    <text
       id="text69"
       xml:space="preserve"
       transform="matrix(0.96046153,0,0,0.96046153,279.20917,350.56846)"
       clip-path="url(#clipPath70)"><tspan
         style="font-variant:normal;font-weight:normal;font-size:13px;font-family:Helvetica;writing-mode:lr-tb;fill:#000000;fill-opacity:1;fill-rule:nonzero;stroke:none"
         x="0 8.6708984 17.341797 26.012695 35.400879 43.341797"
         y="0"
         sodipodi:role="line"
         id="tspan69">PBKDF2</tspan></text>
    <text
       id="text70"
       xml:space="preserve"
       transform="matrix(0.96046153,0,0,0.96046153,296.55751,365.93584)"
       clip-path="url(#clipPath71)"><tspan
         style="font-variant:normal;font-weight:normal;font-size:13px;font-family:Helvetica;writing-mode:lr-tb;fill:#000000;fill-opacity:1;fill-rule:nonzero;stroke:none"
         x="0 7.2299805"
         y="0"
         sodipodi:role="line"
         id="tspan70">#5</tspan></text>
    <path
       id="path72"
       d="m 141,263 h 70 v 35 h -70 z"
       style="fill:#f5f5f5;fill-opacity:1;fill-rule:nonzero;stroke:#666666;stroke-width:1;stroke-linecap:butt;stroke-linejoin:miter;stroke-miterlimit:10;stroke-dasharray:none;stroke-opacity:1"
       transform="scale(0.96045193)"
       clip-path="url(#clipPath73)" />
    <text
       id="text73"
       xml:space="preserve"
       transform="matrix(0.96046153,0,0,0.96046153,140.57255,274.692)"
       clip-path="url(#clipPath74)"><tspan
         style="font-variant:normal;font-weight:normal;font-size:13px;font-family:Helvetica;writing-mode:lr-tb;fill:#000000;fill-opacity:1;fill-rule:nonzero;stroke:none"
         x="0 7.940918 15.170898 19.5 26.72998 33.959961 41.189941 44.801758 52.031738"
         y="0"
         sodipodi:role="line"
         id="tspan73">Thread #3</tspan></text>
    <path
       id="path75"
       d="m 211,263 h 70 v 35 h -70 z"
       style="fill:#f5f5f5;fill-opacity:1;fill-rule:nonzero;stroke:#666666;stroke-width:1;stroke-linecap:butt;stroke-linejoin:miter;stroke-miterlimit:10;stroke-dasharray:none;stroke-opacity:1"
       transform="scale(0.96045193)"
       clip-path="url(#clipPath76)" />
    <text
       id="text76"
       xml:space="preserve"
       transform="matrix(0.96046153,0,0,0.96046153,207.80486,274.692)"
       clip-path="url(#clipPath77)"><tspan
         style="font-variant:normal;font-weight:normal;font-size:13px;font-family:Helvetica;writing-mode:lr-tb;fill:#000000;fill-opacity:1;fill-rule:nonzero;stroke:none"
         x="0 7.940918 15.170898 19.5 26.72998 33.959961 41.189941 44.801758 52.031738"
         y="0"
         sodipodi:role="line"
         id="tspan76">Thread #4</tspan></text>
    <path
       id="path78"
       d="m 281,263 h 70 v 35 h -70 z"
       style="fill:#f5f5f5;fill-opacity:1;fill-rule:nonzero;stroke:#666666;stroke-width:1;stroke-linecap:butt;stroke-linejoin:miter;stroke-miterlimit:10;stroke-dasharray:none;stroke-opacity:1"
       transform="scale(0.96045193)"
       clip-path="url(#clipPath79)" />
    <text
       id="text79"
       xml:space="preserve"
       transform="matrix(0.96046153,0,0,0.96046153,275.03717,274.692)"
       clip-path="url(#clipPath80)"><tspan
         style="font-variant:normal;font-weight:normal;font-size:13px;font-family:Helvetica;writing-mode:lr-tb;fill:#000000;fill-opacity:1;fill-rule:nonzero;stroke:none"
         x="0 7.940918 15.170898 19.5 26.72998 33.959961 41.189941 44.801758 52.031738"
         y="0"
         sodipodi:role="line"
         id="tspan79">Thread #5</tspan></text>
  </g>
</svg>
