<?xml version="1.0" encoding="UTF-8" standalone="no"?>
<!-- Created with Inkscape (http://www.inkscape.org/) -->

<svg
   version="1.1"
   id="svg1"
   width="512"
   height="398.72"
   viewBox="0 0 512 398.72"
   sodipodi:docname="node-3.pdf"
   xmlns:inkscape="http://www.inkscape.org/namespaces/inkscape"
   xmlns:sodipodi="http://sodipodi.sourceforge.net/DTD/sodipodi-0.dtd"
   xmlns="http://www.w3.org/2000/svg"
   xmlns:svg="http://www.w3.org/2000/svg">
  <defs
     id="defs1">
    <clipPath
       clipPathUnits="userSpaceOnUse"
       id="clipPath2">
      <path
         d="M 0,0 H 1600 V 1243.4457 H 0 Z"
         transform="scale(0.33375)"
         clip-rule="evenodd"
         id="path2" />
    </clipPath>
    <clipPath
       clipPathUnits="userSpaceOnUse"
       id="clipPath4">
      <path
         d="M 0,0 H 1600 V 1240.4495 H 0 Z"
         transform="matrix(0.33375,0,0,0.33375,-0.5,-0.5)"
         clip-rule="evenodd"
         id="path4" />
    </clipPath>
    <clipPath
       clipPathUnits="userSpaceOnUse"
       id="clipPath6">
      <path
         d="M 0,0 H 1600 V 1240.4495 H 0 Z"
         transform="matrix(0.33375,0,0,0.33375,-0.5,-0.5)"
         clip-rule="evenodd"
         id="path6" />
    </clipPath>
    <clipPath
       clipPathUnits="userSpaceOnUse"
       id="clipPath8">
      <path
         d="M 0,0 H 1600 V 1240.4495 H 0 Z"
         transform="scale(0.33375)"
         clip-rule="evenodd"
         id="path8" />
    </clipPath>
    <clipPath
       clipPathUnits="userSpaceOnUse"
       id="clipPath9">
      <path
         d="M 0,0 H 1600 V 1240.4495 H 0 Z"
         transform="matrix(0.33374666,0,0,0.33374666,-138.76563,-43)"
         clip-rule="evenodd"
         id="path9" />
    </clipPath>
    <clipPath
       clipPathUnits="userSpaceOnUse"
       id="clipPath11">
      <path
         d="M 0,0 H 1600 V 1240.4495 H 0 Z"
         transform="matrix(0.33375,0,0,0.33375,-0.5,-0.5)"
         clip-rule="evenodd"
         id="path11" />
    </clipPath>
    <clipPath
       clipPathUnits="userSpaceOnUse"
       id="clipPath13">
      <path
         d="M 0,0 H 1600 V 1240.4495 H 0 Z"
         transform="matrix(0.33375,0,0,0.33375,-0.5,-0.5)"
         clip-rule="evenodd"
         id="path13" />
    </clipPath>
    <clipPath
       clipPathUnits="userSpaceOnUse"
       id="clipPath15">
      <path
         d="M 0,0 H 1600 V 1240.4495 H 0 Z"
         transform="matrix(0.33375,0,0,0.33375,-0.5,-0.5)"
         clip-rule="evenodd"
         id="path15" />
    </clipPath>
    <clipPath
       clipPathUnits="userSpaceOnUse"
       id="clipPath17">
      <path
         d="M 0,0 H 1600 V 1240.4495 H 0 Z"
         transform="matrix(0.33375,0,0,0.33375,-0.5,-0.5)"
         clip-rule="evenodd"
         id="path17" />
    </clipPath>
    <clipPath
       clipPathUnits="userSpaceOnUse"
       id="clipPath19">
      <path
         d="M 0,0 H 1600 V 1240.4495 H 0 Z"
         transform="scale(0.33375)"
         clip-rule="evenodd"
         id="path19" />
    </clipPath>
    <clipPath
       clipPathUnits="userSpaceOnUse"
       id="clipPath21">
      <path
         d="M 0,0 H 1600 V 1240.4495 H 0 Z"
         transform="scale(0.33375)"
         clip-rule="evenodd"
         id="path21" />
    </clipPath>
    <clipPath
       clipPathUnits="userSpaceOnUse"
       id="clipPath22">
      <path
         d="M 0,0 H 1600 V 1240.4495 H 0 Z"
         transform="matrix(0.33374666,0,0,0.33374666,-161.76562,-378)"
         clip-rule="evenodd"
         id="path22" />
    </clipPath>
    <clipPath
       clipPathUnits="userSpaceOnUse"
       id="clipPath24">
      <path
         d="M 0,0 H 1600 V 1240.4495 H 0 Z"
         transform="scale(0.33375)"
         clip-rule="evenodd"
         id="path24" />
    </clipPath>
    <clipPath
       clipPathUnits="userSpaceOnUse"
       id="clipPath25">
      <path
         d="M 0,0 H 1600 V 1240.4495 H 0 Z"
         transform="matrix(0.33374666,0,0,0.33374666,-313.42189,-378)"
         clip-rule="evenodd"
         id="path25" />
    </clipPath>
    <clipPath
       clipPathUnits="userSpaceOnUse"
       id="clipPath27">
      <path
         d="M 0,0 H 1600 V 1240.4495 H 0 Z"
         transform="scale(0.33375)"
         clip-rule="evenodd"
         id="path27" />
    </clipPath>
    <clipPath
       clipPathUnits="userSpaceOnUse"
       id="clipPath28">
      <path
         d="M 0,0 H 1600 V 1240.4495 H 0 Z"
         transform="matrix(0.33374666,0,0,0.33374666,-157.31251,-166)"
         clip-rule="evenodd"
         id="path28" />
    </clipPath>
    <clipPath
       clipPathUnits="userSpaceOnUse"
       id="clipPath30">
      <path
         d="M 0,0 H 1600 V 1240.4495 H 0 Z"
         transform="scale(0.33375)"
         clip-rule="evenodd"
         id="path30" />
    </clipPath>
    <clipPath
       clipPathUnits="userSpaceOnUse"
       id="clipPath31">
      <path
         d="M 0,0 H 1600 V 1240.4495 H 0 Z"
         transform="matrix(0.33374666,0,0,0.33374666,0.25000001,-191)"
         clip-rule="evenodd"
         id="path31" />
    </clipPath>
    <clipPath
       clipPathUnits="userSpaceOnUse"
       id="clipPath33">
      <path
         d="M 0,0 H 1600 V 1240.4495 H 0 Z"
         transform="scale(0.33375)"
         clip-rule="evenodd"
         id="path33" />
    </clipPath>
    <clipPath
       clipPathUnits="userSpaceOnUse"
       id="clipPath34">
      <path
         d="M 0,0 H 1600 V 1240.4495 H 0 Z"
         transform="matrix(0.33374666,0,0,0.33374666,-326.21875,-166)"
         clip-rule="evenodd"
         id="path34" />
    </clipPath>
    <clipPath
       clipPathUnits="userSpaceOnUse"
       id="clipPath36">
      <path
         d="M 0,0 H 1600 V 1240.4495 H 0 Z"
         transform="scale(0.33375)"
         clip-rule="evenodd"
         id="path36" />
    </clipPath>
    <clipPath
       clipPathUnits="userSpaceOnUse"
       id="clipPath37">
      <path
         d="M 0,0 H 1600 V 1240.4495 H 0 Z"
         transform="matrix(0.33374666,0,0,0.33374666,-146.76563,-216)"
         clip-rule="evenodd"
         id="path37" />
    </clipPath>
    <clipPath
       clipPathUnits="userSpaceOnUse"
       id="clipPath39">
      <path
         d="M 0,0 H 1600 V 1240.4495 H 0 Z"
         transform="scale(0.33375)"
         clip-rule="evenodd"
         id="path39" />
    </clipPath>
    <clipPath
       clipPathUnits="userSpaceOnUse"
       id="clipPath40">
      <path
         d="M 0,0 H 1600 V 1240.4495 H 0 Z"
         transform="matrix(0.33374666,0,0,0.33374666,-314.53125,-216)"
         clip-rule="evenodd"
         id="path40" />
    </clipPath>
    <clipPath
       clipPathUnits="userSpaceOnUse"
       id="clipPath42">
      <path
         d="M 0,0 H 1600 V 1240.4495 H 0 Z"
         transform="matrix(-0.33375,0,0,-0.33375,848.00001,317)"
         clip-rule="evenodd"
         id="path42" />
    </clipPath>
    <clipPath
       clipPathUnits="userSpaceOnUse"
       id="clipPath43">
      <path
         d="M 0,0 H 1600 V 1240.4495 H 0 Z"
         transform="matrix(0.33374666,0,0,0.33374666,-454,-145)"
         clip-rule="evenodd"
         id="path43" />
    </clipPath>
    <clipPath
       clipPathUnits="userSpaceOnUse"
       id="clipPath44">
      <path
         d="M 0,0 H 1600 V 1240.4495 H 0 Z"
         transform="matrix(0.33374666,0,0,0.33374666,-454,-164)"
         clip-rule="evenodd"
         id="path44" />
    </clipPath>
    <clipPath
       clipPathUnits="userSpaceOnUse"
       id="clipPath45">
      <path
         d="M 0,0 H 1600 V 1240.4495 H 0 Z"
         transform="matrix(0.33374666,0,0,0.33374666,-454,-183)"
         clip-rule="evenodd"
         id="path45" />
    </clipPath>
  </defs>
  <sodipodi:namedview
     id="namedview1"
     pagecolor="#ffffff"
     bordercolor="#000000"
     borderopacity="0.25"
     inkscape:showpageshadow="2"
     inkscape:pageopacity="0.0"
     inkscape:pagecheckerboard="0"
     inkscape:deskcolor="#d1d1d1">
    <inkscape:page
       x="0"
       y="0"
       inkscape:label="1"
       id="page1"
       width="512"
       height="398.72"
       margin="0"
       bleed="0" />
  </sodipodi:namedview>
  <g
     id="g1"
     inkscape:groupmode="layer"
     inkscape:label="1">
    <path
       id="path1"
       d="M 0,0 H 534 V 415 H 0 Z"
       style="fill:#ffffff;fill-opacity:1;fill-rule:nonzero;stroke:none"
       transform="scale(0.95880146)"
       clip-path="url(#clipPath2)" />
    <path
       id="path3"
       d="m 254,71 v 29.9"
       style="fill:none;stroke:#000000;stroke-width:1;stroke-linecap:butt;stroke-linejoin:miter;stroke-miterlimit:10;stroke-dasharray:none;stroke-opacity:1"
       transform="matrix(0.95880146,0,0,0.95880146,0.47940073,0.47940073)"
       clip-path="url(#clipPath4)" />
    <path
       id="path5"
       d="M 254,107.65 249.5,98.650002 254,100.9 258.5,98.650002 Z"
       style="fill:#000000;fill-opacity:1;fill-rule:nonzero;stroke:#000000;stroke-width:1;stroke-linecap:butt;stroke-linejoin:miter;stroke-miterlimit:10;stroke-dasharray:none;stroke-opacity:1"
       transform="matrix(0.95880146,0,0,0.95880146,0.47940073,0.47940073)"
       clip-path="url(#clipPath6)" />
    <path
       id="path7"
       d="M 94,1 H 414 V 71 H 94 Z"
       style="fill:#d5e8d4;fill-opacity:1;fill-rule:nonzero;stroke:#82b366;stroke-width:1;stroke-linecap:butt;stroke-linejoin:miter;stroke-miterlimit:10;stroke-dasharray:none;stroke-opacity:1"
       transform="scale(0.95880146)"
       clip-path="url(#clipPath8)" />
    <text
       id="text8"
       xml:space="preserve"
       transform="matrix(0.95881106,0,0,0.95881106,133.05002,41.228876)"
       clip-path="url(#clipPath9)"><tspan
         style="font-variant:normal;font-weight:normal;font-size:20px;font-family:Helvetica;writing-mode:lr-tb;fill:#000000;fill-opacity:1;fill-rule:nonzero;stroke:none"
         x="0 10 21.123047 31.123047 42.246094 52.246094 62.246094 68.90625 73.349609 84.472656 90.029297 95.585938 110.0293 121.15234 132.27539 143.39844 148.95508 167.48047 178.60352 184.16016 202.68555 209.3457 213.78906 219.3457"
         y="0"
         sodipodi:role="line"
         id="tspan8">Javascript Code We Write</tspan></text>
    <path
       id="path10"
       d="m 334,261 v 59.89999"
       style="fill:none;stroke:#000000;stroke-width:1;stroke-linecap:butt;stroke-linejoin:miter;stroke-miterlimit:10;stroke-dasharray:none;stroke-opacity:1"
       transform="matrix(0.95880146,0,0,0.95880146,0.47940073,0.47940073)"
       clip-path="url(#clipPath11)" />
    <path
       id="path12"
       d="m 334,327.64999 -4.5,-9 4.5,2.25 4.5,-2.25 z"
       style="fill:#000000;fill-opacity:1;fill-rule:nonzero;stroke:#000000;stroke-width:1;stroke-linecap:butt;stroke-linejoin:miter;stroke-miterlimit:10;stroke-dasharray:none;stroke-opacity:1"
       transform="matrix(0.95880146,0,0,0.95880146,0.47940073,0.47940073)"
       clip-path="url(#clipPath13)" />
    <path
       id="path14"
       d="m 174,261 v 59.89999"
       style="fill:none;stroke:#000000;stroke-width:1;stroke-linecap:butt;stroke-linejoin:miter;stroke-miterlimit:10;stroke-dasharray:none;stroke-opacity:1"
       transform="matrix(0.95880146,0,0,0.95880146,0.47940073,0.47940073)"
       clip-path="url(#clipPath15)" />
    <path
       id="path16"
       d="m 174,327.64999 -4.5,-9 4.5,2.25 4.5,-2.25 z"
       style="fill:#000000;fill-opacity:1;fill-rule:nonzero;stroke:#000000;stroke-width:1;stroke-linecap:butt;stroke-linejoin:miter;stroke-miterlimit:10;stroke-dasharray:none;stroke-opacity:1"
       transform="matrix(0.95880146,0,0,0.95880146,0.47940073,0.47940073)"
       clip-path="url(#clipPath17)" />
    <path
       id="path18"
       d="M 94,111 H 414 V 261 H 94 Z"
       style="fill:#dae8fc;fill-opacity:1;fill-rule:nonzero;stroke:#6c8ebf;stroke-width:1;stroke-linecap:butt;stroke-linejoin:miter;stroke-miterlimit:10;stroke-dasharray:none;stroke-opacity:1"
       transform="scale(0.95880146)"
       clip-path="url(#clipPath19)" />
    <path
       id="path20"
       d="m 99,331 h 150 v 80 H 99 Z"
       style="fill:#f8cecc;fill-opacity:1;fill-rule:nonzero;stroke:#b85450;stroke-width:1;stroke-linecap:butt;stroke-linejoin:miter;stroke-miterlimit:10;stroke-dasharray:none;stroke-opacity:1"
       transform="scale(0.95880146)"
       clip-path="url(#clipPath21)" />
    <text
       id="text21"
       xml:space="preserve"
       transform="matrix(0.95881106,0,0,0.95881106,155.10267,362.43058)"
       clip-path="url(#clipPath22)"><tspan
         style="font-variant:normal;font-weight:normal;font-size:20px;font-family:Helvetica;writing-mode:lr-tb;fill:#000000;fill-opacity:1;fill-rule:nonzero;stroke:none"
         x="0 13.339844"
         y="0"
         sodipodi:role="line"
         id="tspan21">V8</tspan></text>
    <path
       id="path23"
       d="m 259,331 h 150 v 80 H 259 Z"
       style="fill:#ffe6cc;fill-opacity:1;fill-rule:nonzero;stroke:#d79b00;stroke-width:1;stroke-linecap:butt;stroke-linejoin:miter;stroke-miterlimit:10;stroke-dasharray:none;stroke-opacity:1"
       transform="scale(0.95880146)"
       clip-path="url(#clipPath24)" />
    <text
       id="text24"
       xml:space="preserve"
       transform="matrix(0.95881106,0,0,0.95881106,300.51237,362.43058)"
       clip-path="url(#clipPath25)"><tspan
         style="font-variant:normal;font-weight:normal;font-size:20px;font-family:Helvetica;writing-mode:lr-tb;fill:#000000;fill-opacity:1;fill-rule:nonzero;stroke:none"
         x="0 4.4433594 8.8867188 20.009766 31.132812"
         y="0"
         sodipodi:role="line"
         id="tspan24">libuv</tspan></text>
    <path
       id="path26"
       d="m 114,141 h 120 v 35 H 114 Z"
       style="fill:#ffffff;fill-opacity:1;fill-rule:nonzero;stroke:#000000;stroke-width:1;stroke-linecap:butt;stroke-linejoin:miter;stroke-miterlimit:10;stroke-dasharray:none;stroke-opacity:1"
       transform="scale(0.95880146)"
       clip-path="url(#clipPath27)" />
    <text
       id="text27"
       xml:space="preserve"
       transform="matrix(0.95881106,0,0,0.95881106,150.83297,159.16264)"
       clip-path="url(#clipPath28)"><tspan
         style="font-variant:normal;font-weight:normal;font-size:20px;font-family:Helvetica;writing-mode:lr-tb;fill:#000000;fill-opacity:1;fill-rule:nonzero;stroke:none"
         x="0 11.123047 16.679688 22.236328"
         y="0"
         sodipodi:role="line"
         id="tspan27">http</tspan></text>
    <path
       id="path29"
       d="M 84,111 H 74 c -6.666664,0 -10,3.33334 -10,10 v 55 c 0,6.66667 -3.333332,10 -10,10 h -5 c -3.333332,0 -1.666668,0 5,0 h 5 c 3.333332,0 5,3.33333 5,10 v 55 c 0,6.66666 3.333336,10 10,10 h 10"
       style="fill:none;stroke:#000000;stroke-width:1;stroke-linecap:butt;stroke-linejoin:miter;stroke-miterlimit:10;stroke-dasharray:none;stroke-opacity:1"
       transform="scale(0.95880146)"
       clip-path="url(#clipPath30)" />
    <text
       id="text30"
       xml:space="preserve"
       transform="matrix(0.95881106,0,0,0.95881106,-0.23970277,183.13291)"
       clip-path="url(#clipPath31)"><tspan
         style="font-style:oblique;font-variant:normal;font-weight:normal;font-size:16px;font-family:Helvetica;writing-mode:lr-tb;fill:#000000;fill-opacity:1;fill-rule:nonzero;stroke:none"
         x="0 11.554688 20.453125 29.351562"
         y="0"
         sodipodi:role="line"
         id="tspan30">Node</tspan></text>
    <path
       id="path32"
       d="m 274,141 h 120 v 35 H 274 Z"
       style="fill:#ffffff;fill-opacity:1;fill-rule:nonzero;stroke:#000000;stroke-width:1;stroke-linecap:butt;stroke-linejoin:miter;stroke-miterlimit:10;stroke-dasharray:none;stroke-opacity:1"
       transform="scale(0.95880146)"
       clip-path="url(#clipPath33)" />
    <text
       id="text33"
       xml:space="preserve"
       transform="matrix(0.95881106,0,0,0.95881106,312.78215,159.16264)"
       clip-path="url(#clipPath34)"><tspan
         style="font-variant:normal;font-weight:normal;font-size:20px;font-family:Helvetica;writing-mode:lr-tb;fill:#000000;fill-opacity:1;fill-rule:nonzero;stroke:none"
         x="0 5.5566406"
         y="0"
         sodipodi:role="line"
         id="tspan33">fs</tspan></text>
    <path
       id="path35"
       d="m 114,191 h 120 v 35 H 114 Z"
       style="fill:#ffffff;fill-opacity:1;fill-rule:nonzero;stroke:#000000;stroke-width:1;stroke-linecap:butt;stroke-linejoin:miter;stroke-miterlimit:10;stroke-dasharray:none;stroke-opacity:1"
       transform="scale(0.95880146)"
       clip-path="url(#clipPath36)" />
    <text
       id="text36"
       xml:space="preserve"
       transform="matrix(0.95881106,0,0,0.95881106,140.72051,207.10319)"
       clip-path="url(#clipPath37)"><tspan
         style="font-variant:normal;font-weight:normal;font-size:20px;font-family:Helvetica;writing-mode:lr-tb;fill:#000000;fill-opacity:1;fill-rule:nonzero;stroke:none"
         x="0 10 16.660156 26.660156 37.783203 43.339844"
         y="0"
         sodipodi:role="line"
         id="tspan36">crypto</tspan></text>
    <path
       id="path38"
       d="m 274,191 h 120 v 35 H 274 Z"
       style="fill:#ffffff;fill-opacity:1;fill-rule:nonzero;stroke:#000000;stroke-width:1;stroke-linecap:butt;stroke-linejoin:miter;stroke-miterlimit:10;stroke-dasharray:none;stroke-opacity:1"
       transform="scale(0.95880146)"
       clip-path="url(#clipPath39)" />
    <text
       id="text39"
       xml:space="preserve"
       transform="matrix(0.95881106,0,0,0.95881106,301.57604,207.10319)"
       clip-path="url(#clipPath40)"><tspan
         style="font-variant:normal;font-weight:normal;font-size:20px;font-family:Helvetica;writing-mode:lr-tb;fill:#000000;fill-opacity:1;fill-rule:nonzero;stroke:none"
         x="0 11.123047 22.246094 27.802734"
         y="0"
         sodipodi:role="line"
         id="tspan39">path</tspan></text>
    <path
       id="path41"
       d="m 449,141 h -15 c -6.66666,0 -10,2.91667 -10,8.75 v 4.38 c 0,2.91333 -3.33334,4.37 -10,4.37 h -7.5 c -5,0 -4.16666,0 2.5,0 h 7.5 c 5,0 7.5,2.91667 7.5,8.75 v 4.38 c 0,2.91333 3.33334,4.37 10,4.37 h 15"
       style="fill:none;stroke:#000000;stroke-width:1;stroke-linecap:butt;stroke-linejoin:miter;stroke-miterlimit:10;stroke-dasharray:none;stroke-opacity:1"
       transform="matrix(-0.95880146,0,0,-0.95880146,813.06365,303.94006)"
       clip-path="url(#clipPath42)" />
    <text
       id="text42"
       xml:space="preserve"
       transform="matrix(0.95881106,0,0,0.95881106,435.30022,139.0276)"
       clip-path="url(#clipPath43)"><tspan
         style="font-style:oblique;font-variant:normal;font-weight:normal;font-size:16px;font-family:Helvetica;writing-mode:lr-tb;fill:#000000;fill-opacity:1;fill-rule:nonzero;stroke:none"
         x="0 10.671875 15.117188 24.015625 32.914062 41.8125 50.710938 56.039062"
         y="0"
         sodipodi:role="line"
         id="tspan42">Standard</tspan></text>
    <text
       id="text43"
       xml:space="preserve"
       transform="matrix(0.95881106,0,0,0.95881106,435.30022,157.24501)"
       clip-path="url(#clipPath44)"><tspan
         style="font-style:oblique;font-variant:normal;font-weight:normal;font-size:16px;font-family:Helvetica;writing-mode:lr-tb;fill:#000000;fill-opacity:1;fill-rule:nonzero;stroke:none"
         x="0 3.5546875 7.109375 16.007812 21.335938 30.234375 35.5625"
         y="0"
         sodipodi:role="line"
         id="tspan43">library</tspan></text>
    <text
       id="text44"
       xml:space="preserve"
       transform="matrix(0.95881106,0,0,0.95881106,435.30022,175.46242)"
       clip-path="url(#clipPath45)"><tspan
         style="font-style:oblique;font-variant:normal;font-weight:normal;font-size:16px;font-family:Helvetica;writing-mode:lr-tb;fill:#000000;fill-opacity:1;fill-rule:nonzero;stroke:none"
         x="0 13.328125 22.226562 31.125 40.023438 43.578125"
         y="0"
         sodipodi:role="line"
         id="tspan44">module</tspan></text>
  </g>
</svg>
