<?xml version="1.0" encoding="UTF-8" standalone="no"?>
<!-- Created with Inkscape (http://www.inkscape.org/) -->

<svg
   version="1.1"
   id="svg1"
   width="677.44"
   height="252.16"
   viewBox="0 0 677.44 252.16"
   sodipodi:docname="node-31.pdf"
   xmlns:inkscape="http://www.inkscape.org/namespaces/inkscape"
   xmlns:sodipodi="http://sodipodi.sourceforge.net/DTD/sodipodi-0.dtd"
   xmlns="http://www.w3.org/2000/svg"
   xmlns:svg="http://www.w3.org/2000/svg">
  <defs
     id="defs1">
    <clipPath
       clipPathUnits="userSpaceOnUse"
       id="clipPath2">
      <path
         d="M 0,0 H 2116.6665 V 787.388 H 0 Z"
         transform="scale(0.33401576)"
         clip-rule="evenodd"
         id="path2" />
    </clipPath>
    <clipPath
       clipPathUnits="userSpaceOnUse"
       id="clipPath4">
      <path
         d="M 0,0 H 2116.6665 V 784.3941 H 0 Z"
         transform="scale(0.33401576)"
         clip-rule="evenodd"
         id="path4" />
    </clipPath>
    <clipPath
       clipPathUnits="userSpaceOnUse"
       id="clipPath5">
      <path
         d="M 0,0 H 2116.6665 V 784.3941 H 0 Z"
         transform="matrix(0.3340124,0,0,0.3340124,-34.890625,-192)"
         clip-rule="evenodd"
         id="path5" />
    </clipPath>
    <clipPath
       clipPathUnits="userSpaceOnUse"
       id="clipPath6">
      <path
         d="M 0,0 H 2116.6665 V 784.3941 H 0 Z"
         transform="matrix(0.3340124,0,0,0.3340124,-84.703125,-215.99999)"
         clip-rule="evenodd"
         id="path6" />
    </clipPath>
    <clipPath
       clipPathUnits="userSpaceOnUse"
       id="clipPath8">
      <path
         d="M 0,0 H 2116.6665 V 784.3941 H 0 Z"
         transform="scale(0.33401576)"
         clip-rule="evenodd"
         id="path8" />
    </clipPath>
    <clipPath
       clipPathUnits="userSpaceOnUse"
       id="clipPath9">
      <path
         d="M 0,0 H 2116.6665 V 784.3941 H 0 Z"
         transform="matrix(0.3340124,0,0,0.3340124,-396.92188,-180)"
         clip-rule="evenodd"
         id="path9" />
    </clipPath>
    <clipPath
       clipPathUnits="userSpaceOnUse"
       id="clipPath10">
      <path
         d="M 0,0 H 2116.6665 V 784.3941 H 0 Z"
         transform="matrix(0.3340124,0,0,0.3340124,-448.60938,-204)"
         clip-rule="evenodd"
         id="path10" />
    </clipPath>
    <clipPath
       clipPathUnits="userSpaceOnUse"
       id="clipPath11">
      <path
         d="M 0,0 H 2116.6665 V 784.3941 H 0 Z"
         transform="matrix(0.3340124,0,0,0.3340124,-427.01563,-228)"
         clip-rule="evenodd"
         id="path11" />
    </clipPath>
    <clipPath
       clipPathUnits="userSpaceOnUse"
       id="clipPath13">
      <path
         d="M 0,0 H 2116.6665 V 784.3941 H 0 Z"
         transform="scale(0.33401576)"
         clip-rule="evenodd"
         id="path13" />
    </clipPath>
    <clipPath
       clipPathUnits="userSpaceOnUse"
       id="clipPath14">
      <path
         d="M 0,0 H 2116.6665 V 784.3941 H 0 Z"
         transform="matrix(0.3340124,0,0,0.3340124,-24.140625,-92)"
         clip-rule="evenodd"
         id="path14" />
    </clipPath>
    <clipPath
       clipPathUnits="userSpaceOnUse"
       id="clipPath15">
      <path
         d="M 0,0 H 2116.6665 V 784.3941 H 0 Z"
         transform="matrix(0.3340124,0,0,0.3340124,-41.6875,-116)"
         clip-rule="evenodd"
         id="path15" />
    </clipPath>
    <clipPath
       clipPathUnits="userSpaceOnUse"
       id="clipPath17">
      <path
         d="M 0,0 H 2116.6665 V 784.3941 H 0 Z"
         transform="scale(0.33401576)"
         clip-rule="evenodd"
         id="path17" />
    </clipPath>
    <clipPath
       clipPathUnits="userSpaceOnUse"
       id="clipPath18">
      <path
         d="M 0,0 H 2116.6665 V 784.3941 H 0 Z"
         transform="matrix(0.3340124,0,0,0.3340124,-418.59375,-79.999999)"
         clip-rule="evenodd"
         id="path18" />
    </clipPath>
    <clipPath
       clipPathUnits="userSpaceOnUse"
       id="clipPath19">
      <path
         d="M 0,0 H 2116.6665 V 784.3941 H 0 Z"
         transform="matrix(0.3340124,0,0,0.3340124,-397.8125,-104)"
         clip-rule="evenodd"
         id="path19" />
    </clipPath>
    <clipPath
       clipPathUnits="userSpaceOnUse"
       id="clipPath20">
      <path
         d="M 0,0 H 2116.6665 V 784.3941 H 0 Z"
         transform="matrix(0.3340124,0,0,0.3340124,-424.34375,-128)"
         clip-rule="evenodd"
         id="path20" />
    </clipPath>
    <clipPath
       clipPathUnits="userSpaceOnUse"
       id="clipPath22">
      <path
         d="M 0,0 H 2116.6665 V 784.3941 H 0 Z"
         transform="matrix(0.33401576,0,0,0.33401576,-0.50000001,-0.50000001)"
         clip-rule="evenodd"
         id="path22" />
    </clipPath>
    <clipPath
       clipPathUnits="userSpaceOnUse"
       id="clipPath24">
      <path
         d="M 0,0 H 2116.6665 V 784.3941 H 0 Z"
         transform="matrix(0.33401576,0,0,0.33401576,-0.50000001,-0.50000001)"
         clip-rule="evenodd"
         id="path24" />
    </clipPath>
    <clipPath
       clipPathUnits="userSpaceOnUse"
       id="clipPath25">
      <path
         d="M 0,0 H 2116.6665 V 784.3941 H 0 Z"
         transform="matrix(0.3340124,0,0,0.3340124,-128.67187,-24)"
         clip-rule="evenodd"
         id="path25" />
    </clipPath>
    <clipPath
       clipPathUnits="userSpaceOnUse"
       id="clipPath26">
      <path
         d="M 0,0 H 2116.6665 V 784.3941 H 0 Z"
         transform="matrix(0.3340124,0,0,0.3340124,-495.875,-24)"
         clip-rule="evenodd"
         id="path26" />
    </clipPath>
  </defs>
  <sodipodi:namedview
     id="namedview1"
     pagecolor="#ffffff"
     bordercolor="#000000"
     borderopacity="0.25"
     inkscape:showpageshadow="2"
     inkscape:pageopacity="0.0"
     inkscape:pagecheckerboard="0"
     inkscape:deskcolor="#d1d1d1">
    <inkscape:page
       x="0"
       y="0"
       inkscape:label="1"
       id="page1"
       width="677.44"
       height="252.16"
       margin="0"
       bleed="0" />
  </sodipodi:namedview>
  <g
     id="g1"
     inkscape:groupmode="layer"
     inkscape:label="1">
    <path
       id="path1"
       d="M 0,0 H 707 V 263 H 0 Z"
       style="fill:#ffffff;fill-opacity:1;fill-rule:nonzero;stroke:none"
       transform="scale(0.95803858)"
       clip-path="url(#clipPath2)" />
    <path
       id="path3"
       d="m 22,157 h 300 v 80 H 22 Z"
       style="fill:#dae8fc;fill-opacity:1;fill-rule:nonzero;stroke:#6c8ebf;stroke-width:1;stroke-linecap:butt;stroke-linejoin:miter;stroke-miterlimit:10;stroke-dasharray:none;stroke-opacity:1"
       transform="scale(0.95803858)"
       clip-path="url(#clipPath4)" />
    <g
       id="g4" />
    <text
       id="text4"
       xml:space="preserve"
       transform="matrix(0.95804822,0,0,0.95804822,33.426901,183.94526)"
       clip-path="url(#clipPath5)"><tspan
         style="font-variant:normal;font-weight:normal;font-size:20px;font-family:Helvetica;writing-mode:lr-tb;fill:#000000;fill-opacity:1;fill-rule:nonzero;stroke:none"
         x="0 14.443359 25.566406 40.009766 45.566406 56.689453 67.8125 78.935547 88.935547 94.492188 100.04883 111.17188 115.61523 125.61523 131.17188 142.29492 152.29492 157.85156 168.97461 178.97461 188.97461 200.09766 210.09766 215.6543 225.6543 231.21094 242.33398 247.53906 253.0957 258.65234 268.65234"
         y="0"
         sodipodi:role="line"
         id="tspan4">How does this os async stuff ﬁt</tspan></text>
    <text
       id="text5"
       xml:space="preserve"
       transform="matrix(0.95804822,0,0,0.95804822,81.149678,206.93841)"
       clip-path="url(#clipPath6)"><tspan
         style="font-variant:normal;font-weight:normal;font-size:20px;font-family:Helvetica;writing-mode:lr-tb;fill:#000000;fill-opacity:1;fill-rule:nonzero;stroke:none"
         x="0 4.4433594 15.566406 21.123047 32.246094 37.802734 43.359375 54.482422 65.605469 71.162109 82.285156 92.285156 103.4082 114.53125 120.08789 125.64453 130.08789 141.21094 152.33398 163.45703"
         y="0"
         sodipodi:role="line"
         id="tspan5">into the event loop?</tspan></text>
    <path
       id="path7"
       d="m 382,157 h 300 v 80 H 382 Z"
       style="fill:#d5e8d4;fill-opacity:1;fill-rule:nonzero;stroke:#82b366;stroke-width:1;stroke-linecap:butt;stroke-linejoin:miter;stroke-miterlimit:10;stroke-dasharray:none;stroke-opacity:1"
       transform="scale(0.95803858)"
       clip-path="url(#clipPath8)" />
    <text
       id="text8"
       xml:space="preserve"
       transform="matrix(0.95804822,0,0,0.95804822,380.2703,172.44868)"
       clip-path="url(#clipPath9)"><tspan
         style="font-variant:normal;font-weight:normal;font-size:20px;font-family:Helvetica;writing-mode:lr-tb;fill:#000000;fill-opacity:1;fill-rule:nonzero;stroke:none"
         x="0 10 21.123047 31.123047 41.123047 51.123047 56.679688 67.802734 77.802734 82.246094 93.369141 104.49219 110.04883 115.60547 126.72852 137.85156 143.4082 154.53125 165.6543 176.77734 187.90039 194.56055 199.00391 209.00391 213.44727 224.57031 235.69336 241.25 256.80664"
         y="0"
         sodipodi:role="line"
         id="tspan8">Tasks using the underlying OS</tspan></text>
    <g
       id="g9" />
    <text
       id="text9"
       xml:space="preserve"
       transform="matrix(0.95804822,0,0,0.95804822,429.78942,195.44184)"
       clip-path="url(#clipPath10)"><tspan
         style="font-variant:normal;font-weight:normal;font-size:20px;font-family:Helvetica;writing-mode:lr-tb;fill:#000000;fill-opacity:1;fill-rule:nonzero;stroke:none"
         x="0 11.123047 17.783203 28.90625 34.462891 41.123047 52.246094 62.246094 73.369141 83.369141 88.925781 100.04883 111.17188 116.72852 121.17188 132.29492 137.85156 148.97461 160.09766"
         y="0"
         sodipodi:role="line"
         id="tspan9">are reﬂected in our</tspan></text>
    <text
       id="text10"
       xml:space="preserve"
       transform="matrix(0.95804822,0,0,0.95804822,409.10156,218.43499)"
       clip-path="url(#clipPath11)"><tspan
         style="font-variant:normal;font-weight:normal;font-size:20px;font-family:Helvetica;writing-mode:lr-tb;fill:#000000;fill-opacity:1;fill-rule:nonzero;stroke:none"
         x="0 3.8183594 14.941406 26.064453 37.1875 48.310547 52.753906 63.876953 75 90.556641 103.89648 113.89648 125.01953 135.01953 145.01953 155.01953 158.83789 164.39453 175.51758 182.17773 188.83789 199.96094"
         y="0"
         sodipodi:role="line"
         id="tspan10">'pendingOSTasks' array</tspan></text>
    <path
       id="path12"
       d="m 22,57 h 300 v 80 H 22 Z"
       style="fill:#dae8fc;fill-opacity:1;fill-rule:nonzero;stroke:#6c8ebf;stroke-width:1;stroke-linecap:butt;stroke-linejoin:miter;stroke-miterlimit:10;stroke-dasharray:none;stroke-opacity:1"
       transform="scale(0.95803858)"
       clip-path="url(#clipPath13)" />
    <text
       id="text13"
       xml:space="preserve"
       transform="matrix(0.95804822,0,0,0.95804822,23.127883,88.140436)"
       clip-path="url(#clipPath14)"><tspan
         style="font-variant:normal;font-weight:normal;font-size:20px;font-family:Helvetica;writing-mode:lr-tb;fill:#000000;fill-opacity:1;fill-rule:nonzero;stroke:none"
         x="0 18.876953 30 41.123047 46.679688 52.236328 57.792969 68.916016 80.039062 90.039062 95.595703 100.03906 111.16211 122.28516 132.28516 137.8418 142.28516 153.4082 158.96484 170.08789 181.21094 192.33398 203.45703 209.01367 219.01367 224.57031 235.69336 241.25 245.69336 250.13672 261.25977 267.91992 279.04297 285.70312"
         y="0"
         sodipodi:role="line"
         id="tspan13">What functions in node std library</tspan></text>
    <text
       id="text14"
       xml:space="preserve"
       transform="matrix(0.95804822,0,0,0.95804822,39.938635,111.13359)"
       clip-path="url(#clipPath15)"><tspan
         style="font-variant:normal;font-weight:normal;font-size:20px;font-family:Helvetica;writing-mode:lr-tb;fill:#000000;fill-opacity:1;fill-rule:nonzero;stroke:none"
         x="0 11.123047 21.123047 32.246094 37.802734 43.359375 54.482422 65.605469 71.162109 86.71875 100.05859 103.87695 113.87695 119.43359 130.55664 140.55664 150.55664 161.67969 171.67969 177.23633 182.79297 193.91602 205.03906 210.5957 221.71875 228.37891 239.50195 249.50195"
         y="0"
         sodipodi:role="line"
         id="tspan14">use the OS's async features?</tspan></text>
    <path
       id="path16"
       d="m 382,57 h 300 v 80 H 382 Z"
       style="fill:#d5e8d4;fill-opacity:1;fill-rule:nonzero;stroke:#82b366;stroke-width:1;stroke-linecap:butt;stroke-linejoin:miter;stroke-miterlimit:10;stroke-dasharray:none;stroke-opacity:1"
       transform="scale(0.95803858)"
       clip-path="url(#clipPath17)" />
    <text
       id="text17"
       xml:space="preserve"
       transform="matrix(0.95804822,0,0,0.95804822,401.033,76.643857)"
       clip-path="url(#clipPath18)"><tspan
         style="font-variant:normal;font-weight:normal;font-size:20px;font-family:Helvetica;writing-mode:lr-tb;fill:#000000;fill-opacity:1;fill-rule:nonzero;stroke:none"
         x="0 13.339844 17.783203 34.443359 45.566406 55.566406 61.123047 66.679688 77.802734 87.802734 98.925781 105.58594 115.58594 121.14258 132.26562 136.70898 147.83203 158.95508 164.51172 175.63477 182.29492 193.41797 204.54102 215.66406"
         y="0"
         sodipodi:role="line"
         id="tspan17">Almost everything around</tspan></text>
    <text
       id="text18"
       xml:space="preserve"
       transform="matrix(0.95804822,0,0,0.95804822,381.12356,99.637014)"
       clip-path="url(#clipPath19)"><tspan
         style="font-variant:normal;font-weight:normal;font-size:20px;font-family:Helvetica;writing-mode:lr-tb;fill:#000000;fill-opacity:1;fill-rule:nonzero;stroke:none"
         x="0 11.123047 22.246094 27.802734 42.246094 53.369141 60.029297 70.029297 74.472656 85.595703 96.71875 102.27539 107.83203 118.95508 125.61523 131.17188 142.29492 146.73828 151.18164 156.73828 172.29492 185.63477 189.45312 199.45312 205.00977 210.56641 216.12305 229.46289 240.58594 257.24609"
         y="0"
         sodipodi:role="line"
         id="tspan18">networking for all OS's.  Some</tspan></text>
    <g
       id="g19" />
    <text
       id="text19"
       xml:space="preserve"
       transform="matrix(0.95804822,0,0,0.95804822,406.54177,122.63017)"
       clip-path="url(#clipPath20)"><tspan
         style="font-variant:normal;font-weight:normal;font-size:20px;font-family:Helvetica;writing-mode:lr-tb;fill:#000000;fill-opacity:1;fill-rule:nonzero;stroke:none"
         x="0 11.123047 16.679688 27.802734 38.925781 45.585938 51.142578 61.142578 66.699219 77.822266 83.027344 88.583984 94.140625 98.583984 108.58398 114.14062 129.69727 143.03711 148.59375 158.59375 169.7168 180.83984 190.83984 195.2832 205.2832"
         y="0"
         sodipodi:role="line"
         id="tspan19">other stuff is OS speciﬁc</tspan></text>
    <path
       id="path21"
       d="M 2,37 H 702.01001"
       style="fill:none;stroke:#000000;stroke-width:1;stroke-linecap:butt;stroke-linejoin:miter;stroke-miterlimit:10;stroke-dasharray:none;stroke-opacity:1"
       transform="matrix(0.95803858,0,0,0.95803858,0.4790193,0.4790193)"
       clip-path="url(#clipPath22)" />
    <path
       id="path23"
       d="M 352,257 V 2"
       style="fill:none;stroke:#000000;stroke-width:1;stroke-linecap:butt;stroke-linejoin:miter;stroke-miterlimit:10;stroke-dasharray:none;stroke-opacity:1"
       transform="matrix(0.95803858,0,0,0.95803858,0.4790193,0.4790193)"
       clip-path="url(#clipPath24)" />
    <text
       id="text24"
       xml:space="preserve"
       transform="matrix(0.95804822,0,0,0.95804822,123.27386,22.993157)"
       clip-path="url(#clipPath25)"><tspan
         style="font-variant:normal;font-weight:700;font-size:20px;font-family:Helvetica;writing-mode:lr-tb;fill:#000000;fill-opacity:1;fill-rule:nonzero;stroke:none"
         x="0 15.556641 27.773438 38.896484 50.019531 56.679688 62.236328 74.453125"
         y="0"
         sodipodi:role="line"
         id="tspan24">Question</tspan></text>
    <text
       id="text25"
       xml:space="preserve"
       transform="matrix(0.95804822,0,0,0.95804822,475.07216,22.993157)"
       clip-path="url(#clipPath26)"><tspan
         style="font-variant:normal;font-weight:700;font-size:20px;font-family:Helvetica;writing-mode:lr-tb;fill:#000000;fill-opacity:1;fill-rule:nonzero;stroke:none"
         x="0 14.443359 26.660156 37.783203 53.339844 64.462891"
         y="0"
         sodipodi:role="line"
         id="tspan25">Answer</tspan></text>
  </g>
</svg>
