<?xml version="1.0" encoding="UTF-8" standalone="no"?>
<!-- Created with Inkscape (http://www.inkscape.org/) -->

<svg
   version="1.1"
   id="svg1"
   width="682.56"
   height="400"
   viewBox="0 0 682.56 400"
   sodipodi:docname="node-6.pdf"
   xmlns:inkscape="http://www.inkscape.org/namespaces/inkscape"
   xmlns:sodipodi="http://sodipodi.sourceforge.net/DTD/sodipodi-0.dtd"
   xmlns="http://www.w3.org/2000/svg"
   xmlns:svg="http://www.w3.org/2000/svg">
  <defs
     id="defs1">
    <clipPath
       clipPathUnits="userSpaceOnUse"
       id="clipPath2">
      <path
         d="M 0,0 H 2133.3333 V 1249.4382 H 0 Z"
         transform="scale(0.33375)"
         clip-rule="evenodd"
         id="path2" />
    </clipPath>
    <clipPath
       clipPathUnits="userSpaceOnUse"
       id="clipPath4">
      <path
         d="M 0,0 H 2133.3333 V 1243.4457 H 0 Z"
         transform="matrix(0.33375,0,0,0.33375,-0.5,-0.5)"
         clip-rule="evenodd"
         id="path4" />
    </clipPath>
    <clipPath
       clipPathUnits="userSpaceOnUse"
       id="clipPath6">
      <path
         d="M 0,0 H 2133.3333 V 1243.4457 H 0 Z"
         transform="matrix(0.33375,0,0,0.33375,-0.5,-0.5)"
         clip-rule="evenodd"
         id="path6" />
    </clipPath>
    <clipPath
       clipPathUnits="userSpaceOnUse"
       id="clipPath8">
      <path
         d="M 0,0 H 2133.3333 V 1243.4457 H 0 Z"
         transform="scale(0.33375)"
         clip-rule="evenodd"
         id="path8" />
    </clipPath>
    <clipPath
       clipPathUnits="userSpaceOnUse"
       id="clipPath9">
      <path
         d="M 0,0 H 2133.3333 V 1243.4457 H 0 Z"
         transform="matrix(0.33374666,0,0,0.33374666,-194.76563,-28)"
         clip-rule="evenodd"
         id="path9" />
    </clipPath>
    <clipPath
       clipPathUnits="userSpaceOnUse"
       id="clipPath11">
      <path
         d="M 0,0 H 2133.3333 V 1243.4457 H 0 Z"
         transform="matrix(0.33375,0,0,0.33375,-0.5,-0.5)"
         clip-rule="evenodd"
         id="path11" />
    </clipPath>
    <clipPath
       clipPathUnits="userSpaceOnUse"
       id="clipPath13">
      <path
         d="M 0,0 H 2133.3333 V 1243.4457 H 0 Z"
         transform="matrix(0.33375,0,0,0.33375,-0.5,-0.5)"
         clip-rule="evenodd"
         id="path13" />
    </clipPath>
    <clipPath
       clipPathUnits="userSpaceOnUse"
       id="clipPath15">
      <path
         d="M 0,0 H 2133.3333 V 1243.4457 H 0 Z"
         transform="scale(0.33375)"
         clip-rule="evenodd"
         id="path15" />
    </clipPath>
    <clipPath
       clipPathUnits="userSpaceOnUse"
       id="clipPath16">
      <path
         d="M 0,0 H 2133.3333 V 1243.4457 H 0 Z"
         transform="matrix(0.33374666,0,0,0.33374666,-298.26564,-235)"
         clip-rule="evenodd"
         id="path16" />
    </clipPath>
    <clipPath
       clipPathUnits="userSpaceOnUse"
       id="clipPath18">
      <path
         d="M 0,0 H 2133.3333 V 1243.4457 H 0 Z"
         transform="scale(0.33375)"
         clip-rule="evenodd"
         id="path18" />
    </clipPath>
    <clipPath
       clipPathUnits="userSpaceOnUse"
       id="clipPath19">
      <path
         d="M 0,0 H 2133.3333 V 1243.4457 H 0 Z"
         transform="matrix(0.33374666,0,0,0.33374666,-289.42188,-394)"
         clip-rule="evenodd"
         id="path19" />
    </clipPath>
    <clipPath
       clipPathUnits="userSpaceOnUse"
       id="clipPath21">
      <path
         d="M 0,0 H 2133.3333 V 1243.4457 H 0 Z"
         transform="matrix(0.33375,0,0,0.33375,-0.5,-0.5)"
         clip-rule="evenodd"
         id="path21" />
    </clipPath>
    <clipPath
       clipPathUnits="userSpaceOnUse"
       id="clipPath23">
      <path
         d="M 0,0 H 2133.3333 V 1243.4457 H 0 Z"
         transform="matrix(0.33375,0,0,0.33375,-0.5,-0.5)"
         clip-rule="evenodd"
         id="path23" />
    </clipPath>
    <clipPath
       clipPathUnits="userSpaceOnUse"
       id="clipPath25">
      <path
         d="M 0,0 H 2133.3333 V 1243.4457 H 0 Z"
         transform="scale(0.33375)"
         clip-rule="evenodd"
         id="path25" />
    </clipPath>
    <clipPath
       clipPathUnits="userSpaceOnUse"
       id="clipPath26">
      <path
         d="M 0,0 H 2133.3333 V 1243.4457 H 0 Z"
         transform="matrix(0.33374666,0,0,0.33374666,-208.59376,-87.000001)"
         clip-rule="evenodd"
         id="path26" />
    </clipPath>
    <clipPath
       clipPathUnits="userSpaceOnUse"
       id="clipPath27">
      <path
         d="M 0,0 H 2133.3333 V 1243.4457 H 0 Z"
         transform="matrix(0.33374666,0,0,0.33374666,-205.5,-111)"
         clip-rule="evenodd"
         id="path27" />
    </clipPath>
    <clipPath
       clipPathUnits="userSpaceOnUse"
       id="clipPath29">
      <path
         d="M 0,0 H 2133.3333 V 1243.4457 H 0 Z"
         transform="matrix(0.33375,0,0,0.33375,-0.5,-0.5)"
         clip-rule="evenodd"
         id="path29" />
    </clipPath>
    <clipPath
       clipPathUnits="userSpaceOnUse"
       id="clipPath31">
      <path
         d="M 0,0 H 2133.3333 V 1243.4457 H 0 Z"
         transform="matrix(0.33375,0,0,0.33375,-0.5,-0.5)"
         clip-rule="evenodd"
         id="path31" />
    </clipPath>
    <clipPath
       clipPathUnits="userSpaceOnUse"
       id="clipPath33">
      <path
         d="M 0,0 H 2133.3333 V 1243.4457 H 0 Z"
         transform="scale(0.33375)"
         clip-rule="evenodd"
         id="path33" />
    </clipPath>
    <clipPath
       clipPathUnits="userSpaceOnUse"
       id="clipPath34">
      <path
         d="M 0,0 H 2133.3333 V 1243.4457 H 0 Z"
         transform="matrix(0.33374666,0,0,0.33374666,-234.70313,-297.00001)"
         clip-rule="evenodd"
         id="path34" />
    </clipPath>
    <clipPath
       clipPathUnits="userSpaceOnUse"
       id="clipPath35">
      <path
         d="M 0,0 H 2133.3333 V 1243.4457 H 0 Z"
         transform="matrix(0.33374666,0,0,0.33374666,-198.28125,-321)"
         clip-rule="evenodd"
         id="path35" />
    </clipPath>
    <clipPath
       clipPathUnits="userSpaceOnUse"
       id="clipPath37">
      <path
         d="M 0,0 H 2133.3333 V 1243.4457 H 0 Z"
         transform="scale(0.33375)"
         clip-rule="evenodd"
         id="path37" />
    </clipPath>
    <clipPath
       clipPathUnits="userSpaceOnUse"
       id="clipPath38">
      <path
         d="M 0,0 H 2133.3333 V 1243.4457 H 0 Z"
         transform="matrix(0.33374666,0,0,0.33374666,-6.625,-87.000001)"
         clip-rule="evenodd"
         id="path38" />
    </clipPath>
    <clipPath
       clipPathUnits="userSpaceOnUse"
       id="clipPath39">
      <path
         d="M 0,0 H 2133.3333 V 1243.4457 H 0 Z"
         transform="matrix(0.33374666,0,0,0.33374666,-52.859376,-107)"
         clip-rule="evenodd"
         id="path39" />
    </clipPath>
    <clipPath
       clipPathUnits="userSpaceOnUse"
       id="clipPath41">
      <path
         d="M 0,0 H 2133.3333 V 1243.4457 H 0 Z"
         transform="scale(0.33375)"
         clip-rule="evenodd"
         id="path41" />
    </clipPath>
    <clipPath
       clipPathUnits="userSpaceOnUse"
       id="clipPath42">
      <path
         d="M 0,0 H 2133.3333 V 1243.4457 H 0 Z"
         transform="matrix(0.33374666,0,0,0.33374666,-6.625,-297.00001)"
         clip-rule="evenodd"
         id="path42" />
    </clipPath>
    <clipPath
       clipPathUnits="userSpaceOnUse"
       id="clipPath43">
      <path
         d="M 0,0 H 2133.3333 V 1243.4457 H 0 Z"
         transform="matrix(0.33374666,0,0,0.33374666,-41.28125,-317)"
         clip-rule="evenodd"
         id="path43" />
    </clipPath>
    <clipPath
       clipPathUnits="userSpaceOnUse"
       id="clipPath44">
      <path
         d="M 0,0 H 2133.3333 V 1243.4457 H 0 Z"
         transform="matrix(0.33374666,0,0,0.33374666,-452,-223)"
         clip-rule="evenodd"
         id="path44" />
    </clipPath>
    <clipPath
       clipPathUnits="userSpaceOnUse"
       id="clipPath45">
      <path
         d="M 0,0 H 2133.3333 V 1243.4457 H 0 Z"
         transform="matrix(0.33374666,0,0,0.33374666,-452,-243)"
         clip-rule="evenodd"
         id="path45" />
    </clipPath>
    <clipPath
       clipPathUnits="userSpaceOnUse"
       id="clipPath47">
      <path
         d="M 0,0 H 2133.3333 V 1243.4457 H 0 Z"
         transform="matrix(-0.33375,0,0,-0.33375,860.00003,455.99999)"
         clip-rule="evenodd"
         id="path47" />
    </clipPath>
    <clipPath
       clipPathUnits="userSpaceOnUse"
       id="clipPath49">
      <path
         d="M 0,0 H 2133.3333 V 1243.4457 H 0 Z"
         transform="matrix(-0.33375,0,0,-0.33375,1005.02,770.99998)"
         clip-rule="evenodd"
         id="path49" />
    </clipPath>
    <clipPath
       clipPathUnits="userSpaceOnUse"
       id="clipPath50">
      <path
         d="M 0,0 H 2133.3333 V 1243.4457 H 0 Z"
         transform="matrix(0.33374666,0,0,0.33374666,-527,-382.00001)"
         clip-rule="evenodd"
         id="path50" />
    </clipPath>
    <clipPath
       clipPathUnits="userSpaceOnUse"
       id="clipPath51">
      <path
         d="M 0,0 H 2133.3333 V 1243.4457 H 0 Z"
         transform="matrix(0.33374666,0,0,0.33374666,-527,-402)"
         clip-rule="evenodd"
         id="path51" />
    </clipPath>
    <clipPath
       clipPathUnits="userSpaceOnUse"
       id="clipPath53">
      <path
         d="M 0,0 H 2133.3333 V 1243.4457 H 0 Z"
         transform="matrix(0.33375,0,0,0.33375,-0.5,-0.5)"
         clip-rule="evenodd"
         id="path53" />
    </clipPath>
    <clipPath
       clipPathUnits="userSpaceOnUse"
       id="clipPath55">
      <path
         d="M 0,0 H 2133.3333 V 1243.4457 H 0 Z"
         transform="matrix(0.33375,0,0,0.33375,-0.5,-0.5)"
         clip-rule="evenodd"
         id="path55" />
    </clipPath>
    <clipPath
       clipPathUnits="userSpaceOnUse"
       id="clipPath57">
      <path
         d="M 0,0 H 2133.3333 V 1243.4457 H 0 Z"
         transform="scale(0.33375)"
         clip-rule="evenodd"
         id="path57" />
    </clipPath>
    <clipPath
       clipPathUnits="userSpaceOnUse"
       id="clipPath58">
      <path
         d="M 0,0 H 2133.3333 V 1243.4457 H 0 Z"
         transform="matrix(0.33374666,0,0,0.33374666,-233.78125,-169)"
         clip-rule="evenodd"
         id="path58" />
    </clipPath>
    <clipPath
       clipPathUnits="userSpaceOnUse"
       id="clipPath59">
      <path
         d="M 0,0 H 2133.3333 V 1243.4457 H 0 Z"
         transform="matrix(0.33374666,0,0,0.33374666,-452,-158)"
         clip-rule="evenodd"
         id="path59" />
    </clipPath>
    <clipPath
       clipPathUnits="userSpaceOnUse"
       id="clipPath60">
      <path
         d="M 0,0 H 2133.3333 V 1243.4457 H 0 Z"
         transform="matrix(0.33374666,0,0,0.33374666,-452,-178)"
         clip-rule="evenodd"
         id="path60" />
    </clipPath>
    <clipPath
       clipPathUnits="userSpaceOnUse"
       id="clipPath62">
      <path
         d="M 0,0 H 2133.3333 V 1243.4457 H 0 Z"
         transform="matrix(-0.33375,0,0,-0.33375,860.00003,326)"
         clip-rule="evenodd"
         id="path62" />
    </clipPath>
  </defs>
  <sodipodi:namedview
     id="namedview1"
     pagecolor="#ffffff"
     bordercolor="#000000"
     borderopacity="0.25"
     inkscape:showpageshadow="2"
     inkscape:pageopacity="0.0"
     inkscape:pagecheckerboard="0"
     inkscape:deskcolor="#d1d1d1">
    <inkscape:page
       x="0"
       y="0"
       inkscape:label="1"
       id="page1"
       width="682.56"
       height="400"
       margin="0"
       bleed="0" />
  </sodipodi:namedview>
  <g
     id="g1"
     inkscape:groupmode="layer"
     inkscape:label="1">
    <path
       id="path1"
       d="M 0,0 H 712 V 417 H 0 Z"
       style="fill:#ffffff;fill-opacity:1;fill-rule:nonzero;stroke:none"
       transform="scale(0.95880146)"
       clip-path="url(#clipPath2)" />
    <path
       id="path3"
       d="M 310,41 V 61 42 51.900002"
       style="fill:none;stroke:#000000;stroke-width:1;stroke-linecap:butt;stroke-linejoin:miter;stroke-miterlimit:10;stroke-dasharray:none;stroke-opacity:1"
       transform="matrix(0.95880146,0,0,0.95880146,0.47940073,0.47940073)"
       clip-path="url(#clipPath4)" />
    <path
       id="path5"
       d="m 310,58.650002 -4.5,-9 4.5,2.25 4.5,-2.25 z"
       style="fill:#000000;fill-opacity:1;fill-rule:nonzero;stroke:#000000;stroke-width:1;stroke-linecap:butt;stroke-linejoin:miter;stroke-miterlimit:10;stroke-dasharray:none;stroke-opacity:1"
       transform="matrix(0.95880146,0,0,0.95880146,0.47940073,0.47940073)"
       clip-path="url(#clipPath6)" />
    <path
       id="path7"
       d="M 150,1 H 470 V 41 H 150 Z"
       style="fill:#d5e8d4;fill-opacity:1;fill-rule:nonzero;stroke:#82b366;stroke-width:1;stroke-linecap:butt;stroke-linejoin:miter;stroke-miterlimit:10;stroke-dasharray:none;stroke-opacity:1"
       transform="scale(0.95880146)"
       clip-path="url(#clipPath8)" />
    <text
       id="text8"
       xml:space="preserve"
       transform="matrix(0.95881106,0,0,0.95881106,186.74344,26.84671)"
       clip-path="url(#clipPath9)"><tspan
         style="font-variant:normal;font-weight:normal;font-size:20px;font-family:Helvetica;writing-mode:lr-tb;fill:#000000;fill-opacity:1;fill-rule:nonzero;stroke:none"
         x="0 10 21.123047 31.123047 42.246094 52.246094 62.246094 68.90625 73.349609 84.472656 90.029297 95.585938 110.0293 121.15234 132.27539 143.39844 148.95508 167.48047 178.60352 184.16016 202.68555 209.3457 213.78906 219.3457"
         y="0"
         sodipodi:role="line"
         id="tspan8">Javascript Code We Write</tspan></text>
    <path
       id="path10"
       d="m 310,248 v 20 -16 9.89999"
       style="fill:none;stroke:#000000;stroke-width:1;stroke-linecap:butt;stroke-linejoin:miter;stroke-miterlimit:10;stroke-dasharray:none;stroke-opacity:1"
       transform="matrix(0.95880146,0,0,0.95880146,0.47940073,0.47940073)"
       clip-path="url(#clipPath11)" />
    <path
       id="path12"
       d="m 310,268.64999 -4.5,-9 4.5,2.25 4.5,-2.25 z"
       style="fill:#000000;fill-opacity:1;fill-rule:nonzero;stroke:#000000;stroke-width:1;stroke-linecap:butt;stroke-linejoin:miter;stroke-miterlimit:10;stroke-dasharray:none;stroke-opacity:1"
       transform="matrix(0.95880146,0,0,0.95880146,0.47940073,0.47940073)"
       clip-path="url(#clipPath13)" />
    <path
       id="path14"
       d="m 217.5,208 h 185 v 40 h -185 z"
       style="fill:#f8cecc;fill-opacity:1;fill-rule:nonzero;stroke:#b85450;stroke-width:1;stroke-linecap:butt;stroke-linejoin:miter;stroke-miterlimit:10;stroke-dasharray:none;stroke-opacity:1"
       transform="scale(0.95880146)"
       clip-path="url(#clipPath15)" />
    <text
       id="text15"
       xml:space="preserve"
       transform="matrix(0.95881106,0,0,0.95881106,285.98039,225.3206)"
       clip-path="url(#clipPath16)"><tspan
         style="font-variant:normal;font-weight:normal;font-size:20px;font-family:Helvetica;writing-mode:lr-tb;fill:#000000;fill-opacity:1;fill-rule:nonzero;stroke:none"
         x="0 13.339844"
         y="0"
         sodipodi:role="line"
         id="tspan15">V8</tspan></text>
    <path
       id="path17"
       d="m 150,362 h 320 v 50 H 150 Z"
       style="fill:#ffe6cc;fill-opacity:1;fill-rule:nonzero;stroke:#d79b00;stroke-width:1;stroke-linecap:butt;stroke-linejoin:miter;stroke-miterlimit:10;stroke-dasharray:none;stroke-opacity:1"
       transform="scale(0.95880146)"
       clip-path="url(#clipPath18)" />
    <text
       id="text18"
       xml:space="preserve"
       transform="matrix(0.95881106,0,0,0.95881106,277.5009,377.77156)"
       clip-path="url(#clipPath19)"><tspan
         style="font-variant:normal;font-weight:normal;font-size:20px;font-family:Helvetica;writing-mode:lr-tb;fill:#000000;fill-opacity:1;fill-rule:nonzero;stroke:none"
         x="0 4.4433594 8.8867188 20.009766 31.132812"
         y="0"
         sodipodi:role="line"
         id="tspan18">libuv</tspan></text>
    <path
       id="path20"
       d="m 310,122 v 9.89999"
       style="fill:none;stroke:#000000;stroke-width:1;stroke-linecap:butt;stroke-linejoin:miter;stroke-miterlimit:10;stroke-dasharray:none;stroke-opacity:1"
       transform="matrix(0.95880146,0,0,0.95880146,0.47940073,0.47940073)"
       clip-path="url(#clipPath21)" />
    <path
       id="path22"
       d="m 310,138.64999 -4.5,-9 4.5,2.25 4.5,-2.25 z"
       style="fill:#000000;fill-opacity:1;fill-rule:nonzero;stroke:#000000;stroke-width:1;stroke-linecap:butt;stroke-linejoin:miter;stroke-miterlimit:10;stroke-dasharray:none;stroke-opacity:1"
       transform="matrix(0.95880146,0,0,0.95880146,0.47940073,0.47940073)"
       clip-path="url(#clipPath23)" />
    <path
       id="path24"
       d="m 150,62 h 320 v 60 H 150 Z"
       style="fill:#dae8fc;fill-opacity:1;fill-rule:nonzero;stroke:#6c8ebf;stroke-width:1;stroke-linecap:butt;stroke-linejoin:miter;stroke-miterlimit:10;stroke-dasharray:none;stroke-opacity:1"
       transform="scale(0.95880146)"
       clip-path="url(#clipPath25)" />
    <text
       id="text25"
       xml:space="preserve"
       transform="matrix(0.95881106,0,0,0.95881106,200.002,83.416563)"
       clip-path="url(#clipPath26)"><tspan
         style="font-variant:normal;font-weight:normal;font-size:20px;font-family:Helvetica;writing-mode:lr-tb;fill:#000000;fill-opacity:1;fill-rule:nonzero;stroke:none"
         x="0 14.443359 25.566406 36.689453 47.8125 51.630859 61.630859 67.1875 77.1875 88.310547 98.310547 109.43359 119.43359 129.43359 136.09375 140.53711 151.66016 157.2168 162.77344 176.11328 180.55664 191.67969"
         y="0"
         sodipodi:role="line"
         id="tspan25">Node's Javascript Side</tspan></text>
    <text
       id="text26"
       xml:space="preserve"
       transform="matrix(0.95881106,0,0,0.95881106,197.03567,106.42803)"
       clip-path="url(#clipPath27)"><tspan
         style="font-variant:normal;font-weight:normal;font-size:20px;font-family:Helvetica;writing-mode:lr-tb;fill:#000000;fill-opacity:1;fill-rule:nonzero;stroke:none"
         x="0 6.6601562 11.103516 15.546875 26.669922 32.226562 37.783203 48.90625 53.349609 64.472656 75.595703 82.255859 87.8125 92.255859 103.37891 108.93555 123.37891 134.50195 145.625 156.74805 162.30469 168.96484 180.08789 191.21094 202.33398"
         y="0"
         sodipodi:role="line"
         id="tspan26">(lib folder in Node repo)</tspan></text>
    <path
       id="path28"
       d="m 310,332 v 20 -10 9.89999"
       style="fill:none;stroke:#000000;stroke-width:1;stroke-linecap:butt;stroke-linejoin:miter;stroke-miterlimit:10;stroke-dasharray:none;stroke-opacity:1"
       transform="matrix(0.95880146,0,0,0.95880146,0.47940073,0.47940073)"
       clip-path="url(#clipPath29)" />
    <path
       id="path30"
       d="m 310,358.64999 -4.5,-9 4.5,2.25 4.5,-2.25 z"
       style="fill:#000000;fill-opacity:1;fill-rule:nonzero;stroke:#000000;stroke-width:1;stroke-linecap:butt;stroke-linejoin:miter;stroke-miterlimit:10;stroke-dasharray:none;stroke-opacity:1"
       transform="matrix(0.95880146,0,0,0.95880146,0.47940073,0.47940073)"
       clip-path="url(#clipPath31)" />
    <path
       id="path32"
       d="m 150,272 h 320 v 60 H 150 Z"
       style="fill:#dae8fc;fill-opacity:1;fill-rule:nonzero;stroke:#6c8ebf;stroke-width:1;stroke-linecap:butt;stroke-linejoin:miter;stroke-miterlimit:10;stroke-dasharray:none;stroke-opacity:1"
       transform="scale(0.95880146)"
       clip-path="url(#clipPath33)" />
    <text
       id="text33"
       xml:space="preserve"
       transform="matrix(0.95881106,0,0,0.95881106,225.03596,284.76689)"
       clip-path="url(#clipPath34)"><tspan
         style="font-variant:normal;font-weight:normal;font-size:20px;font-family:Helvetica;writing-mode:lr-tb;fill:#000000;fill-opacity:1;fill-rule:nonzero;stroke:none"
         x="0 14.443359 25.566406 36.689453 47.8125 51.630859 61.630859 67.1875 81.630859 93.310547 104.99023 110.54688 123.88672 128.33008 139.45312"
         y="0"
         sodipodi:role="line"
         id="tspan33">Node's C++ Side</tspan></text>
    <text
       id="text34"
       xml:space="preserve"
       transform="matrix(0.95881106,0,0,0.95881106,190.11426,307.77835)"
       clip-path="url(#clipPath35)"><tspan
         style="font-variant:normal;font-weight:normal;font-size:20px;font-family:Helvetica;writing-mode:lr-tb;fill:#000000;fill-opacity:1;fill-rule:nonzero;stroke:none"
         x="0 6.6601562 16.660156 23.320312 33.320312 38.876953 44.433594 55.556641 60 71.123047 82.246094 88.90625 94.462891 98.90625 110.0293 115.58594 130.0293 141.15234 152.27539 163.39844 168.95508 183.39844 194.52148 205.64453 216.76758"
         y="0"
         sodipodi:role="line"
         id="tspan34">(src folder in Node Repo)</tspan></text>
    <path
       id="path36"
       d="m 140,62 h -7.5 c -5,0 -7.5,3.333336 -7.5,10 v 10 c 0,6.666664 -2.5,10 -7.5,10 h -3.75 c -2.5,0 -1.25,0 3.75,0 h 3.75 c 2.5,0 3.75,3.333336 3.75,10 v 10 c 0,6.66666 2.5,10 7.5,10 h 7.5"
       style="fill:none;stroke:#000000;stroke-width:1;stroke-linecap:butt;stroke-linejoin:miter;stroke-miterlimit:10;stroke-dasharray:none;stroke-opacity:1"
       transform="scale(0.95880146)"
       clip-path="url(#clipPath37)" />
    <text
       id="text37"
       xml:space="preserve"
       transform="matrix(0.95881106,0,0,0.95881106,6.3521233,83.416563)"
       clip-path="url(#clipPath38)"><tspan
         style="font-style:oblique;font-variant:normal;font-weight:normal;font-size:16px;font-family:Helvetica;writing-mode:lr-tb;fill:#000000;fill-opacity:1;fill-rule:nonzero;stroke:none"
         x="0 11.554688 20.453125 29.351562 38.25 42.695312 51.59375 55.148438 64.046875 69.375 78.273438 83.601562 91.601562 96.046875"
         y="0"
         sodipodi:role="line"
         id="tspan37">Node Library -</tspan></text>
    <text
       id="text38"
       xml:space="preserve"
       transform="matrix(0.95881106,0,0,0.95881106,50.682154,102.59278)"
       clip-path="url(#clipPath39)"><tspan
         style="font-style:oblique;font-variant:normal;font-weight:normal;font-size:16px;font-family:Helvetica;writing-mode:lr-tb;fill:#000000;fill-opacity:1;fill-rule:nonzero;stroke:none"
         x="0 8 18.671875 23.117188 33.789062 37.34375 46.242188"
         y="0"
         sodipodi:role="line"
         id="tspan38">JS Side</tspan></text>
    <path
       id="path40"
       d="m 140,272 h -7.5 c -5,0 -7.5,3.33334 -7.5,10 v 10 c 0,6.66666 -2.5,10 -7.5,10 h -3.75 c -2.5,0 -1.25,0 3.75,0 h 3.75 c 2.5,0 3.75,3.33334 3.75,10 v 10 c 0,6.66666 2.5,10 7.5,10 h 7.5"
       style="fill:none;stroke:#000000;stroke-width:1;stroke-linecap:butt;stroke-linejoin:miter;stroke-miterlimit:10;stroke-dasharray:none;stroke-opacity:1"
       transform="scale(0.95880146)"
       clip-path="url(#clipPath41)" />
    <text
       id="text41"
       xml:space="preserve"
       transform="matrix(0.95881106,0,0,0.95881106,6.3521233,284.76689)"
       clip-path="url(#clipPath42)"><tspan
         style="font-style:oblique;font-variant:normal;font-weight:normal;font-size:16px;font-family:Helvetica;writing-mode:lr-tb;fill:#000000;fill-opacity:1;fill-rule:nonzero;stroke:none"
         x="0 11.554688 20.453125 29.351562 38.25 42.695312 51.59375 55.148438 64.046875 69.375 78.273438 83.601562 91.601562 96.046875"
         y="0"
         sodipodi:role="line"
         id="tspan41">Node Library -</tspan></text>
    <text
       id="text42"
       xml:space="preserve"
       transform="matrix(0.95881106,0,0,0.95881106,39.580919,303.94311)"
       clip-path="url(#clipPath43)"><tspan
         style="font-style:oblique;font-variant:normal;font-weight:normal;font-size:16px;font-family:Helvetica;writing-mode:lr-tb;fill:#000000;fill-opacity:1;fill-rule:nonzero;stroke:none"
         x="0 11.554688 20.898438 30.242188 34.6875 45.359375 48.914062 57.8125"
         y="0"
         sodipodi:role="line"
         id="tspan42">C++ Side</tspan></text>
    <text
       id="text43"
       xml:space="preserve"
       transform="matrix(0.95881106,0,0,0.95881106,433.3826,213.81487)"
       clip-path="url(#clipPath44)"><tspan
         style="font-style:oblique;font-variant:normal;font-weight:normal;font-size:16px;font-family:Helvetica;writing-mode:lr-tb;fill:#000000;fill-opacity:1;fill-rule:nonzero;stroke:none"
         x="0 11.554688 20.453125 29.351562 37.351562 46.25 51.578125 56.023438 64.023438 68.46875 76.46875 85.367188 88.921875 97.820312 106.71875 114.71875 119.16406 128.0625 136.96094 141.40625 152.96094 161.85938 170.75781"
         y="0"
         sodipodi:role="line"
         id="tspan43">Converts values between</tspan></text>
    <text
       id="text44"
       xml:space="preserve"
       transform="matrix(0.95881106,0,0,0.95881106,433.3826,232.99109)"
       clip-path="url(#clipPath45)"><tspan
         style="font-style:oblique;font-variant:normal;font-weight:normal;font-size:16px;font-family:Helvetica;writing-mode:lr-tb;fill:#000000;fill-opacity:1;fill-rule:nonzero;stroke:none"
         x="0 8 18.671875 23.117188 32.015625 40.914062 49.8125 54.257812 65.8125 75.15625 84.5 88.945312 100.5 109.39844 114.72656 118.28125"
         y="0"
         sodipodi:role="line"
         id="tspan44">JS and C++ world</tspan></text>
    <path
       id="path46"
       d="m 450,209.5 h -10 c -6.66666,0 -10,3.08333 -10,9.25 v 4.63 c 0,3.08001 -3.33334,4.62 -10,4.62 h -5 c -3.33334,0 -1.66666,0 5,0 h 5 c 3.33334,0 5,3.08333 5,9.25 v 4.63 c 0,3.08001 3.33334,4.62 10,4.62 h 10"
       style="fill:none;stroke:#000000;stroke-width:1;stroke-linecap:butt;stroke-linejoin:miter;stroke-miterlimit:10;stroke-dasharray:none;stroke-opacity:1"
       transform="matrix(-0.95880146,0,0,-0.95880146,824.56928,437.21346)"
       clip-path="url(#clipPath47)" />
    <path
       id="path48"
       d="m 525.01001,362 h -12.5 c -6.66666,0 -10,3.33334 -10,10 v 6.75 c 0,4.5 -3.33667,6.75 -10.01001,6.75 h -6.25 c -4.16666,0 -2.91666,0 3.75,0 h 6.25 c 4.17334,0 6.26001,3.33334 6.26001,10 v 6.75 c 0,4.5 3.33334,6.75 10,6.75 h 12.5"
       style="fill:none;stroke:#000000;stroke-width:1;stroke-linecap:butt;stroke-linejoin:miter;stroke-miterlimit:10;stroke-dasharray:none;stroke-opacity:1"
       transform="matrix(-0.95880146,0,0,-0.95880146,963.61465,739.23591)"
       clip-path="url(#clipPath49)" />
    <text
       id="text49"
       xml:space="preserve"
       transform="matrix(0.95881106,0,0,0.95881106,505.29343,366.26583)"
       clip-path="url(#clipPath50)"><tspan
         style="font-style:oblique;font-variant:normal;font-weight:normal;font-size:16px;font-family:Helvetica;writing-mode:lr-tb;fill:#000000;fill-opacity:1;fill-rule:nonzero;stroke:none"
         x="0 12.445312 16 24 32.898438 40.898438 45.34375 56.898438 65.796875 74.695312 83.59375 88.039062 96.9375 105.83594 113.83594 121.83594 126.28125 135.17969 143.17969 151.17969 160.07812 168.07812"
         y="0"
         sodipodi:role="line"
         id="tspan49">Gives Node easy access</tspan></text>
    <text
       id="text50"
       xml:space="preserve"
       transform="matrix(0.95881106,0,0,0.95881106,505.29343,385.44205)"
       clip-path="url(#clipPath51)"><tspan
         style="font-style:oblique;font-variant:normal;font-weight:normal;font-size:16px;font-family:Helvetica;writing-mode:lr-tb;fill:#000000;fill-opacity:1;fill-rule:nonzero;stroke:none"
         x="0 4.4453125 13.34375 17.789062 26.6875 35.585938 44.484375 53.382812 58.710938 62.265625 70.265625 73.820312 82.71875 91.617188 96.0625 108.50781"
         y="0"
         sodipodi:role="line"
         id="tspan50">to underlying OS</tspan></text>
    <path
       id="path52"
       d="m 310,182 v 20 -14 9.89999"
       style="fill:none;stroke:#000000;stroke-width:1;stroke-linecap:butt;stroke-linejoin:miter;stroke-miterlimit:10;stroke-dasharray:none;stroke-opacity:1"
       transform="matrix(0.95880146,0,0,0.95880146,0.47940073,0.47940073)"
       clip-path="url(#clipPath53)" />
    <path
       id="path54"
       d="m 310,204.64999 -4.5,-9 4.5,2.25 4.5,-2.25 z"
       style="fill:#000000;fill-opacity:1;fill-rule:nonzero;stroke:#000000;stroke-width:1;stroke-linecap:butt;stroke-linejoin:miter;stroke-miterlimit:10;stroke-dasharray:none;stroke-opacity:1"
       transform="matrix(0.95880146,0,0,0.95880146,0.47940073,0.47940073)"
       clip-path="url(#clipPath55)" />
    <path
       id="path56"
       d="m 217.5,142 h 185 v 40 h -185 z"
       style="fill:#f8cecc;fill-opacity:1;fill-rule:nonzero;stroke:#b85450;stroke-width:1;stroke-linecap:butt;stroke-linejoin:miter;stroke-miterlimit:10;stroke-dasharray:none;stroke-opacity:1"
       transform="scale(0.95880146)"
       clip-path="url(#clipPath57)" />
    <text
       id="text57"
       xml:space="preserve"
       transform="matrix(0.95881106,0,0,0.95881106,224.15205,162.03907)"
       clip-path="url(#clipPath58)"><tspan
         style="font-variant:normal;font-weight:normal;font-size:20px;font-family:Helvetica;writing-mode:lr-tb;fill:#000000;fill-opacity:1;fill-rule:nonzero;stroke:none"
         x="0 11.123047 17.783203 28.90625 38.90625 50.029297 60.029297 70.029297 75.585938 86.708984 91.152344 102.27539 113.39844 117.8418 128.96484 140.08789 146.74805"
         y="0"
         sodipodi:role="line"
         id="tspan57">process.binding()</tspan></text>
    <text
       id="text58"
       xml:space="preserve"
       transform="matrix(0.95881106,0,0,0.95881106,433.3826,151.49215)"
       clip-path="url(#clipPath59)"><tspan
         style="font-style:oblique;font-variant:normal;font-weight:normal;font-size:16px;font-family:Helvetica;writing-mode:lr-tb;fill:#000000;fill-opacity:1;fill-rule:nonzero;stroke:none"
         x="0 11.554688 20.453125 29.351562 38.25 47.148438 55.148438 59.59375 67.59375 72.039062 80.039062 90.710938 95.15625 104.05469 112.95312 121.85156 126.29688 137.85156 147.19531"
         y="0"
         sodipodi:role="line"
         id="tspan58">Connects JS and C++</tspan></text>
    <text
       id="text59"
       xml:space="preserve"
       transform="matrix(0.95881106,0,0,0.95881106,433.3826,170.66837)"
       clip-path="url(#clipPath60)"><tspan
         style="font-style:oblique;font-variant:normal;font-weight:normal;font-size:16px;font-family:Helvetica;writing-mode:lr-tb;fill:#000000;fill-opacity:1;fill-rule:nonzero;stroke:none"
         x="0 4.4453125 13.34375 22.242188 30.242188 34.6875 38.242188 47.140625 56.039062"
         y="0"
         sodipodi:role="line"
         id="tspan59">functions</tspan></text>
    <path
       id="path61"
       d="m 450,144.5 h -10 c -6.66666,0 -10,3.08333 -10,9.25 v 4.63 c 0,3.08001 -3.33334,4.62 -10,4.62 h -5 c -3.33334,0 -1.66666,0 5,0 h 5 c 3.33334,0 5,3.08333 5,9.25 v 4.63 c 0,3.08001 3.33334,4.62 10,4.62 h 10"
       style="fill:none;stroke:#000000;stroke-width:1;stroke-linecap:butt;stroke-linejoin:miter;stroke-miterlimit:10;stroke-dasharray:none;stroke-opacity:1"
       transform="matrix(-0.95880146,0,0,-0.95880146,824.56928,312.56928)"
       clip-path="url(#clipPath62)" />
  </g>
</svg>
