<?xml version="1.0" encoding="UTF-8" standalone="no"?>
<!-- Created with Inkscape (http://www.inkscape.org/) -->

<svg
   version="1.1"
   id="svg1"
   width="462.71997"
   height="312"
   viewBox="0 0 462.71997 312"
   sodipodi:docname="node-7.pdf"
   xmlns:inkscape="http://www.inkscape.org/namespaces/inkscape"
   xmlns:sodipodi="http://sodipodi.sourceforge.net/DTD/sodipodi-0.dtd"
   xmlns="http://www.w3.org/2000/svg"
   xmlns:svg="http://www.w3.org/2000/svg">
  <defs
     id="defs1">
    <clipPath
       clipPathUnits="userSpaceOnUse"
       id="clipPath2">
      <path
         d="M 0,0 H 1445.8334 V 972.8692 H 0 Z"
         transform="scale(0.33406341)"
         clip-rule="evenodd"
         id="path2" />
    </clipPath>
    <clipPath
       clipPathUnits="userSpaceOnUse"
       id="clipPath4">
      <path
         d="M 0,0 H 1445.8334 V 969.87579 H 0 Z"
         transform="matrix(0.33406341,0,0,0.33406341,-0.50000001,-0.50000001)"
         clip-rule="evenodd"
         id="path4" />
    </clipPath>
    <clipPath
       clipPathUnits="userSpaceOnUse"
       id="clipPath6">
      <path
         d="M 0,0 H 1445.8334 V 969.87579 H 0 Z"
         transform="matrix(0.33406341,0,0,0.33406341,-0.50000001,-0.50000001)"
         clip-rule="evenodd"
         id="path6" />
    </clipPath>
    <clipPath
       clipPathUnits="userSpaceOnUse"
       id="clipPath8">
      <path
         d="M 0,0 H 1445.8334 V 969.87579 H 0 Z"
         transform="scale(0.33406341)"
         clip-rule="evenodd"
         id="path8" />
    </clipPath>
    <clipPath
       clipPathUnits="userSpaceOnUse"
       id="clipPath9">
      <path
         d="M 0,0 H 1445.8334 V 969.87579 H 0 Z"
         transform="matrix(0.33406005,0,0,0.33406005,-204.76563,-28)"
         clip-rule="evenodd"
         id="path9" />
    </clipPath>
    <clipPath
       clipPathUnits="userSpaceOnUse"
       id="clipPath11">
      <path
         d="M 0,0 H 1445.8334 V 969.87579 H 0 Z"
         transform="matrix(0.33406341,0,0,0.33406341,-0.50000001,-0.50000001)"
         clip-rule="evenodd"
         id="path11" />
    </clipPath>
    <clipPath
       clipPathUnits="userSpaceOnUse"
       id="clipPath13">
      <path
         d="M 0,0 H 1445.8334 V 969.87579 H 0 Z"
         transform="matrix(0.33406341,0,0,0.33406341,-0.50000001,-0.50000001)"
         clip-rule="evenodd"
         id="path13" />
    </clipPath>
    <clipPath
       clipPathUnits="userSpaceOnUse"
       id="clipPath15">
      <path
         d="M 0,0 H 1445.8334 V 969.87579 H 0 Z"
         transform="scale(0.33406341)"
         clip-rule="evenodd"
         id="path15" />
    </clipPath>
    <clipPath
       clipPathUnits="userSpaceOnUse"
       id="clipPath16">
      <path
         d="M 0,0 H 1445.8334 V 969.87579 H 0 Z"
         transform="matrix(0.33406005,0,0,0.33406005,-236.625,-108)"
         clip-rule="evenodd"
         id="path16" />
    </clipPath>
    <clipPath
       clipPathUnits="userSpaceOnUse"
       id="clipPath18">
      <path
         d="M 0,0 H 1445.8334 V 969.87579 H 0 Z"
         transform="matrix(0.33406341,0,0,0.33406341,-0.50000001,-0.50000001)"
         clip-rule="evenodd"
         id="path18" />
    </clipPath>
    <clipPath
       clipPathUnits="userSpaceOnUse"
       id="clipPath20">
      <path
         d="M 0,0 H 1445.8334 V 969.87579 H 0 Z"
         transform="matrix(0.33406341,0,0,0.33406341,-0.50000001,-0.50000001)"
         clip-rule="evenodd"
         id="path20" />
    </clipPath>
    <clipPath
       clipPathUnits="userSpaceOnUse"
       id="clipPath22">
      <path
         d="M 0,0 H 1445.8334 V 969.87579 H 0 Z"
         transform="scale(0.33406341)"
         clip-rule="evenodd"
         id="path22" />
    </clipPath>
    <clipPath
       clipPathUnits="userSpaceOnUse"
       id="clipPath23">
      <path
         d="M 0,0 H 1445.8334 V 969.87579 H 0 Z"
         transform="matrix(0.33406005,0,0,0.33406005,-253.3125,-298)"
         clip-rule="evenodd"
         id="path23" />
    </clipPath>
    <clipPath
       clipPathUnits="userSpaceOnUse"
       id="clipPath25">
      <path
         d="M 0,0 H 1445.8334 V 969.87579 H 0 Z"
         transform="scale(0.33406341)"
         clip-rule="evenodd"
         id="path25" />
    </clipPath>
    <clipPath
       clipPathUnits="userSpaceOnUse"
       id="clipPath26">
      <path
         d="M 0,0 H 1445.8334 V 969.87579 H 0 Z"
         transform="matrix(0.33406005,0,0,0.33406005,-10.671875,-191)"
         clip-rule="evenodd"
         id="path26" />
    </clipPath>
    <clipPath
       clipPathUnits="userSpaceOnUse"
       id="clipPath27">
      <path
         d="M 0,0 H 1445.8334 V 969.87579 H 0 Z"
         transform="matrix(0.33406005,0,0,0.33406005,-55.515625,-211)"
         clip-rule="evenodd"
         id="path27" />
    </clipPath>
    <clipPath
       clipPathUnits="userSpaceOnUse"
       id="clipPath29">
      <path
         d="M 0,0 H 1445.8334 V 969.87579 H 0 Z"
         transform="scale(0.33406341)"
         clip-rule="evenodd"
         id="path29" />
    </clipPath>
    <clipPath
       clipPathUnits="userSpaceOnUse"
       id="clipPath30">
      <path
         d="M 0,0 H 1445.8334 V 969.87579 H 0 Z"
         transform="matrix(0.33406005,0,0,0.33406005,-212.23438,-200)"
         clip-rule="evenodd"
         id="path30" />
    </clipPath>
  </defs>
  <sodipodi:namedview
     id="namedview1"
     pagecolor="#ffffff"
     bordercolor="#000000"
     borderopacity="0.25"
     inkscape:showpageshadow="2"
     inkscape:pageopacity="0.0"
     inkscape:pagecheckerboard="0"
     inkscape:deskcolor="#d1d1d1">
    <inkscape:page
       x="0"
       y="0"
       inkscape:label="1"
       id="page1"
       width="462.71997"
       height="312"
       margin="0"
       bleed="0" />
  </sodipodi:namedview>
  <g
     id="g1"
     inkscape:groupmode="layer"
     inkscape:label="1">
    <path
       id="path1"
       d="M 0,0 H 483 V 325 H 0 Z"
       style="fill:#ffffff;fill-opacity:1;fill-rule:nonzero;stroke:none"
       transform="scale(0.95790194)"
       clip-path="url(#clipPath2)" />
    <path
       id="path3"
       d="M 320,41 V 61 51 60.900002"
       style="fill:none;stroke:#000000;stroke-width:1;stroke-linecap:butt;stroke-linejoin:miter;stroke-miterlimit:10;stroke-dasharray:none;stroke-opacity:1"
       transform="matrix(0.95790194,0,0,0.95790194,0.47895098,0.47895098)"
       clip-path="url(#clipPath4)" />
    <path
       id="path5"
       d="m 320,67.650002 -4.5,-9 4.5,2.25 4.5,-2.25 z"
       style="fill:#000000;fill-opacity:1;fill-rule:nonzero;stroke:#000000;stroke-width:1;stroke-linecap:butt;stroke-linejoin:miter;stroke-miterlimit:10;stroke-dasharray:none;stroke-opacity:1"
       transform="matrix(0.95790194,0,0,0.95790194,0.47895098,0.47895098)"
       clip-path="url(#clipPath6)" />
    <path
       id="path7"
       d="M 160,1 H 480 V 41 H 160 Z"
       style="fill:#d5e8d4;fill-opacity:1;fill-rule:nonzero;stroke:#82b366;stroke-width:1;stroke-linecap:butt;stroke-linejoin:miter;stroke-miterlimit:10;stroke-dasharray:none;stroke-opacity:1"
       transform="scale(0.95790194)"
       clip-path="url(#clipPath8)" />
    <text
       id="text8"
       xml:space="preserve"
       transform="matrix(0.95791158,0,0,0.95791158,196.14737,26.821524)"
       clip-path="url(#clipPath9)"><tspan
         style="font-variant:normal;font-weight:normal;font-size:20px;font-family:Helvetica;writing-mode:lr-tb;fill:#000000;fill-opacity:1;fill-rule:nonzero;stroke:none"
         x="0 10 21.123047 31.123047 42.246094 52.246094 62.246094 68.90625 73.349609 84.472656 90.029297 95.585938 110.0293 121.15234 132.27539 143.39844 148.95508 167.48047 178.60352 184.16016 202.68555 209.3457 213.78906 219.3457"
         y="0"
         sodipodi:role="line"
         id="tspan8">Javascript Code We Write</tspan></text>
    <path
       id="path10"
       d="m 320,131 v 21.89999"
       style="fill:none;stroke:#000000;stroke-width:1;stroke-linecap:butt;stroke-linejoin:miter;stroke-miterlimit:10;stroke-dasharray:none;stroke-opacity:1"
       transform="matrix(0.95790194,0,0,0.95790194,0.47895098,0.47895098)"
       clip-path="url(#clipPath11)" />
    <path
       id="path12"
       d="m 320,159.64999 -4.5,-9 4.5,2.25 4.5,-2.25 z"
       style="fill:#000000;fill-opacity:1;fill-rule:nonzero;stroke:#000000;stroke-width:1;stroke-linecap:butt;stroke-linejoin:miter;stroke-miterlimit:10;stroke-dasharray:none;stroke-opacity:1"
       transform="matrix(0.95790194,0,0,0.95790194,0.47895098,0.47895098)"
       clip-path="url(#clipPath13)" />
    <path
       id="path14"
       d="m 160,71 h 320 v 60 H 160 Z"
       style="fill:#dae8fc;fill-opacity:1;fill-rule:nonzero;stroke:#6c8ebf;stroke-width:1;stroke-linecap:butt;stroke-linejoin:miter;stroke-miterlimit:10;stroke-dasharray:none;stroke-opacity:1"
       transform="scale(0.95790194)"
       clip-path="url(#clipPath15)" />
    <text
       id="text15"
       xml:space="preserve"
       transform="matrix(0.95791158,0,0,0.95791158,226.66583,103.45445)"
       clip-path="url(#clipPath16)"><tspan
         style="font-variant:normal;font-weight:normal;font-size:20px;font-family:Helvetica;writing-mode:lr-tb;fill:#000000;fill-opacity:1;fill-rule:nonzero;stroke:none"
         x="0 5.5566406 16.679688 27.802734 37.802734 43.359375 47.802734 58.925781 70.048828 75.605469 88.945312 102.28516 115.625 130.06836 142.28516 153.4082 160.06836"
         y="0"
         sodipodi:role="line"
         id="tspan15">function PBKDF2()</tspan></text>
    <path
       id="path17"
       d="M 320,261 V 233.11"
       style="fill:none;stroke:#000000;stroke-width:1;stroke-linecap:butt;stroke-linejoin:miter;stroke-miterlimit:10;stroke-dasharray:none;stroke-opacity:1"
       transform="matrix(0.95790194,0,0,0.95790194,0.47895098,0.47895098)"
       clip-path="url(#clipPath18)" />
    <path
       id="path19"
       d="m 320,226.36 4.5,9 -4.5,-2.25 -4.5,2.25 z"
       style="fill:#000000;fill-opacity:1;fill-rule:nonzero;stroke:#000000;stroke-width:1;stroke-linecap:butt;stroke-linejoin:miter;stroke-miterlimit:10;stroke-dasharray:none;stroke-opacity:1"
       transform="matrix(0.95790194,0,0,0.95790194,0.47895098,0.47895098)"
       clip-path="url(#clipPath20)" />
    <path
       id="path21"
       d="m 160,261 h 320 v 60 H 160 Z"
       style="fill:#dae8fc;fill-opacity:1;fill-rule:nonzero;stroke:#6c8ebf;stroke-width:1;stroke-linecap:butt;stroke-linejoin:miter;stroke-miterlimit:10;stroke-dasharray:none;stroke-opacity:1"
       transform="scale(0.95790194)"
       clip-path="url(#clipPath22)" />
    <text
       id="text22"
       xml:space="preserve"
       transform="matrix(0.95791158,0,0,0.95791158,242.65098,285.45765)"
       clip-path="url(#clipPath23)"><tspan
         style="font-variant:normal;font-weight:normal;font-size:20px;font-family:Helvetica;writing-mode:lr-tb;fill:#000000;fill-opacity:1;fill-rule:nonzero;stroke:none"
         x="0 10 21.123047 25.566406 36.689453 42.246094 55.585938 68.925781 82.265625 96.708984 108.92578 120.04883 126.70898"
         y="0"
         sodipodi:role="line"
         id="tspan22">void PBKDF2()</tspan></text>
    <path
       id="path24"
       d="m 150,71 h -7.5 c -5,0 -7.5,3.333336 -7.5,10 v 105 c 0,6.66667 -2.5,10 -7.5,10 h -3.75 c -2.5,0 -1.25,0 3.75,0 h 3.75 c 2.5,0 3.75,3.33333 3.75,10 v 105 c 0,6.66666 2.5,10 7.5,10 h 7.5"
       style="fill:none;stroke:#000000;stroke-width:1;stroke-linecap:butt;stroke-linejoin:miter;stroke-miterlimit:10;stroke-dasharray:none;stroke-opacity:1"
       transform="scale(0.95790194)"
       clip-path="url(#clipPath25)" />
    <text
       id="text25"
       xml:space="preserve"
       transform="matrix(0.95791158,0,0,0.95791158,10.222713,182.96111)"
       clip-path="url(#clipPath26)"><tspan
         style="font-style:oblique;font-variant:normal;font-weight:normal;font-size:16px;font-family:Helvetica;writing-mode:lr-tb;fill:#000000;fill-opacity:1;fill-rule:nonzero;stroke:none"
         x="0 11.554688 20.453125 29.351562 38.25 41.304688 49.304688 53.75 61.75 67.078125 75.078125 83.976562 88.421875"
         y="0"
         sodipodi:role="line"
         id="tspan25">Node's crypto</tspan></text>
    <text
       id="text26"
       xml:space="preserve"
       transform="matrix(0.95791158,0,0,0.95791158,53.17906,202.11934)"
       clip-path="url(#clipPath27)"><tspan
         style="font-style:oblique;font-variant:normal;font-weight:normal;font-size:16px;font-family:Helvetica;writing-mode:lr-tb;fill:#000000;fill-opacity:1;fill-rule:nonzero;stroke:none"
         x="0 13.328125 22.226562 31.125 40.023438 43.578125"
         y="0"
         sodipodi:role="line"
         id="tspan26">Module</tspan></text>
    <path
       id="path28"
       d="m 160,163 h 320 v 60 H 160 Z"
       style="fill:#dae8fc;fill-opacity:1;fill-rule:nonzero;stroke:#6c8ebf;stroke-width:1;stroke-linecap:butt;stroke-linejoin:miter;stroke-miterlimit:10;stroke-dasharray:none;stroke-opacity:1"
       transform="scale(0.95790194)"
       clip-path="url(#clipPath29)" />
    <text
       id="text29"
       xml:space="preserve"
       transform="matrix(0.95791158,0,0,0.95791158,203.30177,191.58232)"
       clip-path="url(#clipPath30)"><tspan
         style="font-variant:normal;font-weight:normal;font-size:20px;font-family:Helvetica;writing-mode:lr-tb;fill:#000000;fill-opacity:1;fill-rule:nonzero;stroke:none"
         x="0 11.123047 17.783203 28.90625 38.90625 50.029297 60.029297 70.029297 75.585938 86.708984 91.152344 102.27539 113.39844 117.8418 128.96484 140.08789 146.74805 150.56641 160.56641 167.22656 177.22656 188.34961 193.90625 205.0293 208.84766"
         y="0"
         sodipodi:role="line"
         id="tspan29">process.binding('crypto')</tspan></text>
  </g>
</svg>
