<?xml version="1.0" encoding="UTF-8" standalone="no"?>
<!-- Created with Inkscape (http://www.inkscape.org/) -->

<svg
   version="1.1"
   id="svg1"
   width="320"
   height="326.72"
   viewBox="0 0 320 326.72"
   sodipodi:docname="node-9.pdf"
   xmlns:inkscape="http://www.inkscape.org/namespaces/inkscape"
   xmlns:sodipodi="http://sodipodi.sourceforge.net/DTD/sodipodi-0.dtd"
   xmlns="http://www.w3.org/2000/svg"
   xmlns:svg="http://www.w3.org/2000/svg">
  <defs
     id="defs1">
    <clipPath
       clipPathUnits="userSpaceOnUse"
       id="clipPath2">
      <path
         d="M 0,0 H 999.99994 V 1017.964 H 0 Z"
         transform="scale(0.33400001)"
         clip-rule="evenodd"
         id="path2" />
    </clipPath>
    <clipPath
       clipPathUnits="userSpaceOnUse"
       id="clipPath4">
      <path
         d="M 0,0 H 999.99994 V 1014.97 H 0 Z"
         transform="scale(0.33400001)"
         clip-rule="evenodd"
         id="path4" />
    </clipPath>
    <clipPath
       clipPathUnits="userSpaceOnUse"
       id="clipPath5">
      <path
         d="M 0,0 H 999.99994 V 1014.97 H 0 Z"
         transform="matrix(0.33399666,0,0,0.33399666,-119.04687,-25)"
         clip-rule="evenodd"
         id="path5" />
    </clipPath>
    <clipPath
       clipPathUnits="userSpaceOnUse"
       id="clipPath6">
      <path
         d="M 0,0 H 999.99994 V 1014.97 H 0 Z"
         transform="matrix(0.33399666,0,0,0.33399666,-69.09375,-308)"
         clip-rule="evenodd"
         id="path6" />
    </clipPath>
    <clipPath
       clipPathUnits="userSpaceOnUse"
       id="clipPath7">
      <path
         d="M 0,0 H 999.99994 V 1014.97 H 0 Z"
         transform="matrix(0.33399666,0,0,0.33399666,-125.25,-332)"
         clip-rule="evenodd"
         id="path7" />
    </clipPath>
    <clipPath
       clipPathUnits="userSpaceOnUse"
       id="clipPath9">
      <path
         d="M 0,0 H 999.99994 V 1014.97 H 0 Z"
         transform="scale(0.33400001)"
         clip-rule="evenodd"
         id="path9" />
    </clipPath>
    <clipPath
       clipPathUnits="userSpaceOnUse"
       id="clipPath10">
      <path
         d="M 0,0 H 999.99994 V 1014.97 H 0 Z"
         transform="matrix(0.33399666,0,0,0.33399666,-57.8125,-79.999999)"
         clip-rule="evenodd"
         id="path10" />
    </clipPath>
    <clipPath
       clipPathUnits="userSpaceOnUse"
       id="clipPath11">
      <path
         d="M 0,0 H 999.99994 V 1014.97 H 0 Z"
         transform="matrix(0.33399666,0,0,0.33399666,-24,-108)"
         clip-rule="evenodd"
         id="path11" />
    </clipPath>
    <clipPath
       clipPathUnits="userSpaceOnUse"
       id="clipPath12">
      <path
         d="M 0,0 H 999.99994 V 1014.97 H 0 Z"
         transform="matrix(0.33399666,0,0,0.33399666,-25,-129)"
         clip-rule="evenodd"
         id="path12" />
    </clipPath>
    <clipPath
       clipPathUnits="userSpaceOnUse"
       id="clipPath13">
      <path
         d="M 0,0 H 999.99994 V 1014.97 H 0 Z"
         transform="matrix(0.33399666,0,0,0.33399666,-25,-149)"
         clip-rule="evenodd"
         id="path13" />
    </clipPath>
    <clipPath
       clipPathUnits="userSpaceOnUse"
       id="clipPath14">
      <path
         d="M 0,0 H 999.99994 V 1014.97 H 0 Z"
         transform="matrix(0.33399666,0,0,0.33399666,-25,-170)"
         clip-rule="evenodd"
         id="path14" />
    </clipPath>
    <clipPath
       clipPathUnits="userSpaceOnUse"
       id="clipPath16">
      <path
         d="M 0,0 H 999.99994 V 1014.97 H 0 Z"
         transform="scale(0.33400001)"
         clip-rule="evenodd"
         id="path16" />
    </clipPath>
    <clipPath
       clipPathUnits="userSpaceOnUse"
       id="clipPath17">
      <path
         d="M 0,0 H 999.99994 V 1014.97 H 0 Z"
         transform="matrix(0.33399666,0,0,0.33399666,-212.81249,-79.999999)"
         clip-rule="evenodd"
         id="path17" />
    </clipPath>
    <clipPath
       clipPathUnits="userSpaceOnUse"
       id="clipPath18">
      <path
         d="M 0,0 H 999.99994 V 1014.97 H 0 Z"
         transform="matrix(0.33399666,0,0,0.33399666,-180,-108)"
         clip-rule="evenodd"
         id="path18" />
    </clipPath>
    <clipPath
       clipPathUnits="userSpaceOnUse"
       id="clipPath19">
      <path
         d="M 0,0 H 999.99994 V 1014.97 H 0 Z"
         transform="matrix(0.33399666,0,0,0.33399666,-181,-129)"
         clip-rule="evenodd"
         id="path19" />
    </clipPath>
    <clipPath
       clipPathUnits="userSpaceOnUse"
       id="clipPath20">
      <path
         d="M 0,0 H 999.99994 V 1014.97 H 0 Z"
         transform="matrix(0.33399666,0,0,0.33399666,-181,-149)"
         clip-rule="evenodd"
         id="path20" />
    </clipPath>
    <clipPath
       clipPathUnits="userSpaceOnUse"
       id="clipPath21">
      <path
         d="M 0,0 H 999.99994 V 1014.97 H 0 Z"
         transform="matrix(0.33399666,0,0,0.33399666,-181,-170)"
         clip-rule="evenodd"
         id="path21" />
    </clipPath>
  </defs>
  <sodipodi:namedview
     id="namedview1"
     pagecolor="#ffffff"
     bordercolor="#000000"
     borderopacity="0.25"
     inkscape:showpageshadow="2"
     inkscape:pageopacity="0.0"
     inkscape:pagecheckerboard="0"
     inkscape:deskcolor="#d1d1d1">
    <inkscape:page
       x="0"
       y="0"
       inkscape:label="1"
       id="page1"
       width="320"
       height="326.72"
       margin="0"
       bleed="0" />
  </sodipodi:namedview>
  <g
     id="g1"
     inkscape:groupmode="layer"
     inkscape:label="1">
    <path
       id="path1"
       d="M 0,0 H 334 V 340 H 0 Z"
       style="fill:#ffffff;fill-opacity:1;fill-rule:nonzero;stroke:none"
       transform="scale(0.95808377)"
       clip-path="url(#clipPath2)" />
    <path
       id="path3"
       d="M 1,36 H 331 V 286 H 1 Z"
       style="fill:#dae8fc;fill-opacity:1;fill-rule:nonzero;stroke:#6c8ebf;stroke-width:1;stroke-linecap:butt;stroke-linejoin:miter;stroke-miterlimit:10;stroke-dasharray:none;stroke-opacity:1"
       transform="scale(0.95808377)"
       clip-path="url(#clipPath4)" />
    <text
       id="text4"
       xml:space="preserve"
       transform="matrix(0.95809337,0,0,0.95809337,114.05802,23.952334)"
       clip-path="url(#clipPath5)"><tspan
         style="font-variant:normal;font-weight:normal;font-size:26px;font-family:Helvetica;writing-mode:lr-tb;fill:#000000;fill-opacity:1;fill-rule:nonzero;stroke:none"
         x="0 17.341797 26 40.459961 53.459961 67.919922 80.919922"
         y="0"
         sodipodi:role="line"
         id="tspan4">Process</tspan></text>
    <text
       id="text5"
       xml:space="preserve"
       transform="matrix(0.95809337,0,0,0.95809337,66.198264,295.09276)"
       clip-path="url(#clipPath6)"><tspan
         style="font-style:oblique;font-variant:normal;font-weight:normal;font-size:20px;font-family:Helvetica;writing-mode:lr-tb;fill:#000000;fill-opacity:1;fill-rule:nonzero;stroke:none"
         x="0 5.5566406 16.679688 26.679688 32.236328 43.359375 54.482422 64.482422 75.605469 81.162109 92.285156 97.841797 103.39844 114.52148 120.07812 126.73828 137.86133 148.98438 160.10742 164.55078 175.67383"
         y="0"
         sodipodi:role="line"
         id="tspan5">Instance of a running</tspan></text>
    <text
       id="text6"
       xml:space="preserve"
       transform="matrix(0.95809337,0,0,0.95809337,120.00119,318.087)"
       clip-path="url(#clipPath7)"><tspan
         style="font-style:oblique;font-variant:normal;font-weight:normal;font-size:20px;font-family:Helvetica;writing-mode:lr-tb;fill:#000000;fill-opacity:1;fill-rule:nonzero;stroke:none"
         x="0 11.123047 17.783203 28.90625 40.029297 46.689453 57.8125"
         y="0"
         sodipodi:role="line"
         id="tspan6">program</tspan></text>
    <path
       id="path8"
       d="m 17.5,83.5 h 145 v 170 h -145 z"
       style="fill:#ffffff;fill-opacity:1;fill-rule:nonzero;stroke:#000000;stroke-width:1;stroke-linecap:butt;stroke-linejoin:miter;stroke-miterlimit:10;stroke-dasharray:none;stroke-opacity:1"
       transform="scale(0.95808377)"
       clip-path="url(#clipPath9)" />
    <text
       id="text9"
       xml:space="preserve"
       transform="matrix(0.95809337,0,0,0.95809337,55.389773,76.647469)"
       clip-path="url(#clipPath10)"><tspan
         style="font-style:oblique;font-variant:normal;font-weight:normal;font-size:20px;font-family:Helvetica;writing-mode:lr-tb;fill:#000000;fill-opacity:1;fill-rule:nonzero;stroke:none"
         x="0 12.216797 23.339844 30 41.123047 52.246094"
         y="0"
         sodipodi:role="line"
         id="tspan9">Thread</tspan></text>
    <text
       id="text10"
       xml:space="preserve"
       transform="matrix(0.95809337,0,0,0.95809337,22.994241,103.47408)"
       clip-path="url(#clipPath11)"><tspan
         style="font-variant:normal;font-weight:normal;font-size:11px;font-family:Helvetica;writing-mode:lr-tb;fill:#000000;fill-opacity:1;fill-rule:nonzero;stroke:none"
         x="0 9.1630859 15.280762 17.724609 20.780762 23.224609 29.342285 31.786133 37.286133 40.342285 46.459961 49.516113 55.633789 61.133789 64.189941"
         y="0"
         sodipodi:role="line"
         id="tspan10">Multiply 2 by 2</tspan></text>
    <text
       id="text11"
       xml:space="preserve"
       transform="matrix(0.95809337,0,0,0.95809337,23.952334,123.59404)"
       clip-path="url(#clipPath12)"><tspan
         style="font-variant:normal;font-weight:normal;font-size:11px;font-family:Helvetica;writing-mode:lr-tb;fill:#000000;fill-opacity:1;fill-rule:nonzero;stroke:none"
         x="0 7.3369141 10.393066 16.510742 20.173828 26.291504 29.347656 33.010742 39.128418 44.628418 50.746094 53.189941 56.246094 59.302246 61.746094 67.86377 70.919922 76.419922 82.537598 86.200684 88.644531 94.762207 100.87988 103.32373"
         y="0"
         sodipodi:role="line"
         id="tspan11">Store result in variable</tspan></text>
    <text
       id="text12"
       xml:space="preserve"
       transform="matrix(0.95809337,0,0,0.95809337,23.952334,142.75591)"
       clip-path="url(#clipPath13)"><tspan
         style="font-variant:normal;font-weight:normal;font-size:11px;font-family:Helvetica;writing-mode:lr-tb;fill:#000000;fill-opacity:1;fill-rule:nonzero;stroke:none"
         x="0 7.9438477 10.387695 15.887695 18.331543 24.449219 30.566895 33.623047 39.123047 45.240723 48.903809 51.347656 57.465332 63.583008 66.026855 72.144531 75.200684 81.318359 86.818359 89.874512"
         y="0"
         sodipodi:role="line"
         id="tspan12">Divide variable by 2</tspan></text>
    <text
       id="text13"
       xml:space="preserve"
       transform="matrix(0.95809337,0,0,0.95809337,23.952334,162.87587)"
       clip-path="url(#clipPath14)"><tspan
         style="font-variant:normal;font-weight:normal;font-size:11px;font-family:Helvetica;writing-mode:lr-tb;fill:#000000;fill-opacity:1;fill-rule:nonzero;stroke:none"
         x="0 3.0561523 8.5561523 11.612305 17.112305 23.22998 26.893066 29.336914 35.45459 41.572266 44.016113 50.133789 53.189941 59.307617 65.425293 71.542969 77.660645 80.104492 83.160645 86.216797 92.334473 95.390625 101.5083"
         y="0"
         sodipodi:role="line"
         id="tspan13">Is variable equal to 2?</tspan></text>
    <path
       id="path15"
       d="m 172.5,83.5 h 145 v 170 h -145 z"
       style="fill:#ffffff;fill-opacity:1;fill-rule:nonzero;stroke:#000000;stroke-width:1;stroke-linecap:butt;stroke-linejoin:miter;stroke-miterlimit:10;stroke-dasharray:none;stroke-opacity:1"
       transform="scale(0.95808377)"
       clip-path="url(#clipPath16)" />
    <text
       id="text16"
       xml:space="preserve"
       transform="matrix(0.95809337,0,0,0.95809337,203.89424,76.647469)"
       clip-path="url(#clipPath17)"><tspan
         style="font-style:oblique;font-variant:normal;font-weight:normal;font-size:20px;font-family:Helvetica;writing-mode:lr-tb;fill:#000000;fill-opacity:1;fill-rule:nonzero;stroke:none"
         x="0 12.216797 23.339844 30 41.123047 52.246094"
         y="0"
         sodipodi:role="line"
         id="tspan16">Thread</tspan></text>
    <text
       id="text17"
       xml:space="preserve"
       transform="matrix(0.95809337,0,0,0.95809337,172.45681,103.47408)"
       clip-path="url(#clipPath18)"><tspan
         style="font-variant:normal;font-weight:normal;font-size:11px;font-family:Helvetica;writing-mode:lr-tb;fill:#000000;fill-opacity:1;fill-rule:nonzero;stroke:none"
         x="0 9.1630859 15.280762 17.724609 20.780762 23.224609 29.342285 31.786133 37.286133 40.342285 46.459961 49.516113 55.633789 61.133789 64.189941"
         y="0"
         sodipodi:role="line"
         id="tspan17">Multiply 3 by 3</tspan></text>
    <text
       id="text18"
       xml:space="preserve"
       transform="matrix(0.95809337,0,0,0.95809337,173.4149,123.59404)"
       clip-path="url(#clipPath19)"><tspan
         style="font-variant:normal;font-weight:normal;font-size:11px;font-family:Helvetica;writing-mode:lr-tb;fill:#000000;fill-opacity:1;fill-rule:nonzero;stroke:none"
         x="0 7.3369141 10.393066 16.510742 20.173828 26.291504 29.347656 33.010742 39.128418 44.628418 50.746094 53.189941 56.246094 59.302246 61.746094 67.86377 70.919922 76.419922 82.537598 86.200684 88.644531 94.762207 100.87988 103.32373"
         y="0"
         sodipodi:role="line"
         id="tspan18">Store result in variable</tspan></text>
    <text
       id="text19"
       xml:space="preserve"
       transform="matrix(0.95809337,0,0,0.95809337,173.4149,142.75591)"
       clip-path="url(#clipPath20)"><tspan
         style="font-variant:normal;font-weight:normal;font-size:11px;font-family:Helvetica;writing-mode:lr-tb;fill:#000000;fill-opacity:1;fill-rule:nonzero;stroke:none"
         x="0 7.9438477 10.387695 15.887695 18.331543 24.449219 30.566895 33.623047 39.123047 45.240723 48.903809 51.347656 57.465332 63.583008 66.026855 72.144531 75.200684 81.318359 86.818359 89.874512"
         y="0"
         sodipodi:role="line"
         id="tspan19">Divide variable by 3</tspan></text>
    <text
       id="text20"
       xml:space="preserve"
       transform="matrix(0.95809337,0,0,0.95809337,173.4149,162.87587)"
       clip-path="url(#clipPath21)"><tspan
         style="font-variant:normal;font-weight:normal;font-size:11px;font-family:Helvetica;writing-mode:lr-tb;fill:#000000;fill-opacity:1;fill-rule:nonzero;stroke:none"
         x="0 3.0561523 8.5561523 11.612305 17.112305 23.22998 26.893066 29.336914 35.45459 41.572266 44.016113 50.133789 53.189941 59.307617 65.425293 71.542969 77.660645 80.104492 83.160645 86.216797 92.334473 95.390625 101.5083"
         y="0"
         sodipodi:role="line"
         id="tspan20">Is variable equal to 3?</tspan></text>
  </g>
</svg>
