<?xml version="1.0" encoding="UTF-8" standalone="no"?>
<!-- Created with Inkscape (http://www.inkscape.org/) -->

<svg
   version="1.1"
   id="svg1"
   width="453.44"
   height="389.44"
   viewBox="0 0 453.44 389.44"
   sodipodi:docname="node-23.pdf"
   xmlns:inkscape="http://www.inkscape.org/namespaces/inkscape"
   xmlns:sodipodi="http://sodipodi.sourceforge.net/DTD/sodipodi-0.dtd"
   xmlns="http://www.w3.org/2000/svg"
   xmlns:svg="http://www.w3.org/2000/svg">
  <defs
     id="defs1">
    <clipPath
       clipPathUnits="userSpaceOnUse"
       id="clipPath2">
      <path
         d="M 0,0 H 1416.6665 V 1215.9971 H 0 Z"
         transform="scale(0.33388239)"
         clip-rule="evenodd"
         id="path2" />
    </clipPath>
    <clipPath
       clipPathUnits="userSpaceOnUse"
       id="clipPath4">
      <path
         d="M 0,0 H 1416.6665 V 1210.007 H 0 Z"
         transform="matrix(0.33388239,0,0,0.33388239,-0.50000001,-0.50000001)"
         clip-rule="evenodd"
         id="path4" />
    </clipPath>
    <clipPath
       clipPathUnits="userSpaceOnUse"
       id="clipPath6">
      <path
         d="M 0,0 H 1416.6665 V 1210.007 H 0 Z"
         transform="matrix(0.33388239,0,0,0.33388239,-0.50000001,-0.50000001)"
         clip-rule="evenodd"
         id="path6" />
    </clipPath>
    <clipPath
       clipPathUnits="userSpaceOnUse"
       id="clipPath8">
      <path
         d="M 0,0 H 1416.6665 V 1210.007 H 0 Z"
         transform="scale(0.33388239)"
         clip-rule="evenodd"
         id="path8" />
    </clipPath>
    <clipPath
       clipPathUnits="userSpaceOnUse"
       id="clipPath9">
      <path
         d="M 0,0 H 1416.6665 V 1210.007 H 0 Z"
         transform="matrix(0.33387904,0,0,0.33387904,-194.76563,-28)"
         clip-rule="evenodd"
         id="path9" />
    </clipPath>
    <clipPath
       clipPathUnits="userSpaceOnUse"
       id="clipPath11">
      <path
         d="M 0,0 H 1416.6665 V 1210.007 H 0 Z"
         transform="scale(0.33388239)"
         clip-rule="evenodd"
         id="path11" />
    </clipPath>
    <clipPath
       clipPathUnits="userSpaceOnUse"
       id="clipPath12">
      <path
         d="M 0,0 H 1416.6665 V 1210.007 H 0 Z"
         transform="matrix(0.33387904,0,0,0.33387904,-298.26563,-168)"
         clip-rule="evenodd"
         id="path12" />
    </clipPath>
    <clipPath
       clipPathUnits="userSpaceOnUse"
       id="clipPath14">
      <path
         d="M 0,0 H 1416.6665 V 1210.007 H 0 Z"
         transform="matrix(0.33388239,0,0,0.33388239,-0.50000001,-0.50000001)"
         clip-rule="evenodd"
         id="path14" />
    </clipPath>
    <clipPath
       clipPathUnits="userSpaceOnUse"
       id="clipPath16">
      <path
         d="M 0,0 H 1416.6665 V 1210.007 H 0 Z"
         transform="matrix(0.33388239,0,0,0.33388239,-0.50000001,-0.50000001)"
         clip-rule="evenodd"
         id="path16" />
    </clipPath>
    <clipPath
       clipPathUnits="userSpaceOnUse"
       id="clipPath18">
      <path
         d="M 0,0 H 1416.6665 V 1210.007 H 0 Z"
         transform="scale(0.33388239)"
         clip-rule="evenodd"
         id="path18" />
    </clipPath>
    <clipPath
       clipPathUnits="userSpaceOnUse"
       id="clipPath19">
      <path
         d="M 0,0 H 1416.6665 V 1210.007 H 0 Z"
         transform="matrix(0.33387904,0,0,0.33387904,-279.96875,-98.000001)"
         clip-rule="evenodd"
         id="path19" />
    </clipPath>
    <clipPath
       clipPathUnits="userSpaceOnUse"
       id="clipPath21">
      <path
         d="M 0,0 H 1416.6665 V 1210.007 H 0 Z"
         transform="matrix(0.33388239,0,0,0.33388239,-0.50000001,-0.50000001)"
         clip-rule="evenodd"
         id="path21" />
    </clipPath>
    <clipPath
       clipPathUnits="userSpaceOnUse"
       id="clipPath23">
      <path
         d="M 0,0 H 1416.6665 V 1210.007 H 0 Z"
         transform="matrix(0.33388239,0,0,0.33388239,-0.50000001,-0.50000001)"
         clip-rule="evenodd"
         id="path23" />
    </clipPath>
    <clipPath
       clipPathUnits="userSpaceOnUse"
       id="clipPath25">
      <path
         d="M 0,0 H 1416.6665 V 1210.007 H 0 Z"
         transform="scale(0.33388239)"
         clip-rule="evenodd"
         id="path25" />
    </clipPath>
    <clipPath
       clipPathUnits="userSpaceOnUse"
       id="clipPath26">
      <path
         d="M 0,0 H 1416.6665 V 1210.007 H 0 Z"
         transform="matrix(0.33387904,0,0,0.33387904,-234.70313,-244)"
         clip-rule="evenodd"
         id="path26" />
    </clipPath>
    <clipPath
       clipPathUnits="userSpaceOnUse"
       id="clipPath28">
      <path
         d="M 0,0 H 1416.6665 V 1210.007 H 0 Z"
         transform="scale(0.33388239)"
         clip-rule="evenodd"
         id="path28" />
    </clipPath>
    <clipPath
       clipPathUnits="userSpaceOnUse"
       id="clipPath29">
      <path
         d="M 0,0 H 1416.6665 V 1210.007 H 0 Z"
         transform="matrix(0.33387904,0,0,0.33387904,-10.671875,-86.000001)"
         clip-rule="evenodd"
         id="path29" />
    </clipPath>
    <clipPath
       clipPathUnits="userSpaceOnUse"
       id="clipPath30">
      <path
         d="M 0,0 H 1416.6665 V 1210.007 H 0 Z"
         transform="matrix(0.33387904,0,0,0.33387904,-55.515626,-106)"
         clip-rule="evenodd"
         id="path30" />
    </clipPath>
    <clipPath
       clipPathUnits="userSpaceOnUse"
       id="clipPath32">
      <path
         d="M 0,0 H 1416.6665 V 1210.007 H 0 Z"
         transform="scale(0.33388239)"
         clip-rule="evenodd"
         id="path32" />
    </clipPath>
    <clipPath
       clipPathUnits="userSpaceOnUse"
       id="clipPath33">
      <path
         d="M 0,0 H 1416.6665 V 1210.007 H 0 Z"
         transform="matrix(0.33387904,0,0,0.33387904,-289.42188,-290)"
         clip-rule="evenodd"
         id="path33" />
    </clipPath>
    <clipPath
       clipPathUnits="userSpaceOnUse"
       id="clipPath35">
      <path
         d="M 0,0 H 1416.6665 V 1210.007 H 0 Z"
         transform="scale(0.33388239)"
         clip-rule="evenodd"
         id="path35" />
    </clipPath>
    <clipPath
       clipPathUnits="userSpaceOnUse"
       id="clipPath36">
      <path
         d="M 0,0 H 1416.6665 V 1210.007 H 0 Z"
         transform="matrix(0.33387904,0,0,0.33387904,-208.3125,-341)"
         clip-rule="evenodd"
         id="path36" />
    </clipPath>
    <clipPath
       clipPathUnits="userSpaceOnUse"
       id="clipPath37">
      <path
         d="M 0,0 H 1416.6665 V 1210.007 H 0 Z"
         transform="matrix(0.33387904,0,0,0.33387904,-219.98438,-365)"
         clip-rule="evenodd"
         id="path37" />
    </clipPath>
    <clipPath
       clipPathUnits="userSpaceOnUse"
       id="clipPath39">
      <path
         d="M 0,0 H 1416.6665 V 1210.007 H 0 Z"
         transform="scale(0.33388239)"
         clip-rule="evenodd"
         id="path39" />
    </clipPath>
    <clipPath
       clipPathUnits="userSpaceOnUse"
       id="clipPath40">
      <path
         d="M 0,0 H 1416.6665 V 1210.007 H 0 Z"
         transform="matrix(0.33387904,0,0,0.33387904,-280.35938,-334)"
         clip-rule="evenodd"
         id="path40" />
    </clipPath>
    <clipPath
       clipPathUnits="userSpaceOnUse"
       id="clipPath42">
      <path
         d="M 0,0 H 1416.6665 V 1210.007 H 0 Z"
         transform="scale(0.33388239)"
         clip-rule="evenodd"
         id="path42" />
    </clipPath>
    <clipPath
       clipPathUnits="userSpaceOnUse"
       id="clipPath43">
      <path
         d="M 0,0 H 1416.6665 V 1210.007 H 0 Z"
         transform="matrix(0.33387904,0,0,0.33387904,-350.35938,-334)"
         clip-rule="evenodd"
         id="path43" />
    </clipPath>
    <clipPath
       clipPathUnits="userSpaceOnUse"
       id="clipPath45">
      <path
         d="M 0,0 H 1416.6665 V 1210.007 H 0 Z"
         transform="scale(0.33388239)"
         clip-rule="evenodd"
         id="path45" />
    </clipPath>
    <clipPath
       clipPathUnits="userSpaceOnUse"
       id="clipPath46">
      <path
         d="M 0,0 H 1416.6665 V 1210.007 H 0 Z"
         transform="matrix(0.33387904,0,0,0.33387904,-280.35938,-369)"
         clip-rule="evenodd"
         id="path46" />
    </clipPath>
    <clipPath
       clipPathUnits="userSpaceOnUse"
       id="clipPath48">
      <path
         d="M 0,0 H 1416.6665 V 1210.007 H 0 Z"
         transform="scale(0.33388239)"
         clip-rule="evenodd"
         id="path48" />
    </clipPath>
    <clipPath
       clipPathUnits="userSpaceOnUse"
       id="clipPath49">
      <path
         d="M 0,0 H 1416.6665 V 1210.007 H 0 Z"
         transform="matrix(0.33387904,0,0,0.33387904,-350.35938,-369)"
         clip-rule="evenodd"
         id="path49" />
    </clipPath>
  </defs>
  <sodipodi:namedview
     id="namedview1"
     pagecolor="#ffffff"
     bordercolor="#000000"
     borderopacity="0.25"
     inkscape:showpageshadow="2"
     inkscape:pageopacity="0.0"
     inkscape:pagecheckerboard="0"
     inkscape:deskcolor="#d1d1d1">
    <inkscape:page
       x="0"
       y="0"
       inkscape:label="1"
       id="page1"
       width="453.44"
       height="389.44"
       margin="0"
       bleed="0" />
  </sodipodi:namedview>
  <g
     id="g1"
     inkscape:groupmode="layer"
     inkscape:label="1">
    <path
       id="path1"
       d="M 0,0 H 473 V 406 H 0 Z"
       style="fill:#ffffff;fill-opacity:1;fill-rule:nonzero;stroke:none"
       transform="scale(0.95842127)"
       clip-path="url(#clipPath2)" />
    <path
       id="path3"
       d="M 310,41 V 61 51 60.900002"
       style="fill:none;stroke:#000000;stroke-width:1;stroke-linecap:butt;stroke-linejoin:miter;stroke-miterlimit:10;stroke-dasharray:none;stroke-opacity:1"
       transform="matrix(0.95842127,0,0,0.95842127,0.47921064,0.47921064)"
       clip-path="url(#clipPath4)" />
    <path
       id="path5"
       d="m 310,67.650002 -4.5,-9 4.5,2.25 4.5,-2.25 z"
       style="fill:#000000;fill-opacity:1;fill-rule:nonzero;stroke:#000000;stroke-width:1;stroke-linecap:butt;stroke-linejoin:miter;stroke-miterlimit:10;stroke-dasharray:none;stroke-opacity:1"
       transform="matrix(0.95842127,0,0,0.95842127,0.47921064,0.47921064)"
       clip-path="url(#clipPath6)" />
    <path
       id="path7"
       d="M 150,1 H 470 V 41 H 150 Z"
       style="fill:#d5e8d4;fill-opacity:1;fill-rule:nonzero;stroke:#82b366;stroke-width:1;stroke-linecap:butt;stroke-linejoin:miter;stroke-miterlimit:10;stroke-dasharray:none;stroke-opacity:1"
       transform="scale(0.95842127)"
       clip-path="url(#clipPath8)" />
    <text
       id="text8"
       xml:space="preserve"
       transform="matrix(0.9584309,0,0,0.9584309,186.6694,26.836065)"
       clip-path="url(#clipPath9)"><tspan
         style="font-variant:normal;font-weight:normal;font-size:20px;font-family:Helvetica;writing-mode:lr-tb;fill:#000000;fill-opacity:1;fill-rule:nonzero;stroke:none"
         x="0 10 21.123047 31.123047 42.246094 52.246094 62.246094 68.90625 73.349609 84.472656 90.029297 95.585938 110.0293 121.15234 132.27539 143.39844 148.95508 167.48047 178.60352 184.16016 202.68555 209.3457 213.78906 219.3457"
         y="0"
         sodipodi:role="line"
         id="tspan8">Javascript Code We Write</tspan></text>
    <path
       id="path10"
       d="m 217.5,141 h 185 v 40 h -185 z"
       style="fill:#f8cecc;fill-opacity:1;fill-rule:nonzero;stroke:#b85450;stroke-width:1;stroke-linecap:butt;stroke-linejoin:miter;stroke-miterlimit:10;stroke-dasharray:none;stroke-opacity:1"
       transform="scale(0.95842127)"
       clip-path="url(#clipPath11)" />
    <text
       id="text11"
       xml:space="preserve"
       transform="matrix(0.9584309,0,0,0.9584309,285.867,161.01639)"
       clip-path="url(#clipPath12)"><tspan
         style="font-variant:normal;font-weight:normal;font-size:20px;font-family:Helvetica;writing-mode:lr-tb;fill:#000000;fill-opacity:1;fill-rule:nonzero;stroke:none"
         x="0 13.339844"
         y="0"
         sodipodi:role="line"
         id="tspan11">V8</tspan></text>
    <path
       id="path13"
       d="m 310,111 v 19.89999"
       style="fill:none;stroke:#000000;stroke-width:1;stroke-linecap:butt;stroke-linejoin:miter;stroke-miterlimit:10;stroke-dasharray:none;stroke-opacity:1"
       transform="matrix(0.95842127,0,0,0.95842127,0.47921064,0.47921064)"
       clip-path="url(#clipPath14)" />
    <path
       id="path15"
       d="m 310,137.64999 -4.5,-9 4.5,2.25 4.5,-2.25 z"
       style="fill:#000000;fill-opacity:1;fill-rule:nonzero;stroke:#000000;stroke-width:1;stroke-linecap:butt;stroke-linejoin:miter;stroke-miterlimit:10;stroke-dasharray:none;stroke-opacity:1"
       transform="matrix(0.95842127,0,0,0.95842127,0.47921064,0.47921064)"
       clip-path="url(#clipPath16)" />
    <path
       id="path17"
       d="m 150,71 h 320 v 40 H 150 Z"
       style="fill:#dae8fc;fill-opacity:1;fill-rule:nonzero;stroke:#6c8ebf;stroke-width:1;stroke-linecap:butt;stroke-linejoin:miter;stroke-miterlimit:10;stroke-dasharray:none;stroke-opacity:1"
       transform="scale(0.95842127)"
       clip-path="url(#clipPath18)" />
    <text
       id="text18"
       xml:space="preserve"
       transform="matrix(0.9584309,0,0,0.9584309,268.3307,93.926229)"
       clip-path="url(#clipPath19)"><tspan
         style="font-variant:normal;font-weight:normal;font-size:20px;font-family:Helvetica;writing-mode:lr-tb;fill:#000000;fill-opacity:1;fill-rule:nonzero;stroke:none"
         x="0 11.123047 22.246094 32.246094 43.369141 48.925781"
         y="0"
         sodipodi:role="line"
         id="tspan18">pbkdf2</tspan></text>
    <path
       id="path20"
       d="M 310,221 V 191.11"
       style="fill:none;stroke:#000000;stroke-width:1;stroke-linecap:butt;stroke-linejoin:miter;stroke-miterlimit:10;stroke-dasharray:none;stroke-opacity:1"
       transform="matrix(0.95842127,0,0,0.95842127,0.47921064,0.47921064)"
       clip-path="url(#clipPath21)" />
    <path
       id="path22"
       d="m 310,184.36 4.5,9 -4.5,-2.25 -4.5,2.25 z"
       style="fill:#000000;fill-opacity:1;fill-rule:nonzero;stroke:#000000;stroke-width:1;stroke-linecap:butt;stroke-linejoin:miter;stroke-miterlimit:10;stroke-dasharray:none;stroke-opacity:1"
       transform="matrix(0.95842127,0,0,0.95842127,0.47921064,0.47921064)"
       clip-path="url(#clipPath23)" />
    <path
       id="path24"
       d="m 150,221 h 320 v 80 H 150 Z"
       style="fill:#dae8fc;fill-opacity:1;fill-rule:nonzero;stroke:#6c8ebf;stroke-width:1;stroke-linecap:butt;stroke-linejoin:miter;stroke-miterlimit:10;stroke-dasharray:none;stroke-opacity:1"
       transform="scale(0.95842127)"
       clip-path="url(#clipPath25)" />
    <text
       id="text25"
       xml:space="preserve"
       transform="matrix(0.9584309,0,0,0.9584309,224.94673,233.85714)"
       clip-path="url(#clipPath26)"><tspan
         style="font-variant:normal;font-weight:normal;font-size:20px;font-family:Helvetica;writing-mode:lr-tb;fill:#000000;fill-opacity:1;fill-rule:nonzero;stroke:none"
         x="0 14.443359 25.566406 36.689453 47.8125 51.630859 61.630859 67.1875 81.630859 93.310547 104.99023 110.54688 123.88672 128.33008 139.45312"
         y="0"
         sodipodi:role="line"
         id="tspan25">Node's C++ Side</tspan></text>
    <path
       id="path27"
       d="m 140,71 h -7.5 c -5,0 -7.5,3.333336 -7.5,10 v 5 c 0,3.333336 -2.5,5 -7.5,5 h -3.75 c -2.5,0 -1.25,0 3.75,0 h 3.75 c 2.5,0 3.75,3.333336 3.75,10 v 5 c 0,3.33334 2.5,5 7.5,5 h 7.5"
       style="fill:none;stroke:#000000;stroke-width:1;stroke-linecap:butt;stroke-linejoin:miter;stroke-miterlimit:10;stroke-dasharray:none;stroke-opacity:1"
       transform="scale(0.95842127)"
       clip-path="url(#clipPath28)" />
    <text
       id="text28"
       xml:space="preserve"
       transform="matrix(0.9584309,0,0,0.9584309,10.228255,82.425058)"
       clip-path="url(#clipPath29)"><tspan
         style="font-style:oblique;font-variant:normal;font-weight:normal;font-size:16px;font-family:Helvetica;writing-mode:lr-tb;fill:#000000;fill-opacity:1;fill-rule:nonzero;stroke:none"
         x="0 11.554688 20.453125 29.351562 38.25 41.304688 49.304688 53.75 61.75 67.078125 75.078125 83.976562 88.421875"
         y="0"
         sodipodi:role="line"
         id="tspan28">Node's crypto</tspan></text>
    <text
       id="text29"
       xml:space="preserve"
       transform="matrix(0.9584309,0,0,0.9584309,53.207891,101.59368)"
       clip-path="url(#clipPath30)"><tspan
         style="font-style:oblique;font-variant:normal;font-weight:normal;font-size:16px;font-family:Helvetica;writing-mode:lr-tb;fill:#000000;fill-opacity:1;fill-rule:nonzero;stroke:none"
         x="0 13.328125 22.226562 31.125 40.023438 43.578125"
         y="0"
         sodipodi:role="line"
         id="tspan29">Module</tspan></text>
    <path
       id="path31"
       d="M 190,261 H 430 V 401 H 190 Z"
       style="fill:#ffe6cc;fill-opacity:1;fill-rule:nonzero;stroke:#d79b00;stroke-width:1;stroke-linecap:butt;stroke-linejoin:miter;stroke-miterlimit:10;stroke-dasharray:none;stroke-opacity:1"
       transform="scale(0.95842127)"
       clip-path="url(#clipPath32)" />
    <text
       id="text32"
       xml:space="preserve"
       transform="matrix(0.9584309,0,0,0.9584309,277.39087,277.94496)"
       clip-path="url(#clipPath33)"><tspan
         style="font-variant:normal;font-weight:normal;font-size:20px;font-family:Helvetica;writing-mode:lr-tb;fill:#000000;fill-opacity:1;fill-rule:nonzero;stroke:none"
         x="0 4.4433594 8.8867188 20.009766 31.132812"
         y="0"
         sodipodi:role="line"
         id="tspan32">libuv</tspan></text>
    <path
       id="path34"
       d="m 205,311 h 70 v 70 h -70 z"
       style="fill:#f5f5f5;fill-opacity:1;fill-rule:nonzero;stroke:#666666;stroke-width:1;stroke-linecap:butt;stroke-linejoin:miter;stroke-miterlimit:10;stroke-dasharray:none;stroke-opacity:1"
       transform="scale(0.95842127)"
       clip-path="url(#clipPath35)" />
    <text
       id="text35"
       xml:space="preserve"
       transform="matrix(0.9584309,0,0,0.9584309,199.65314,326.82494)"
       clip-path="url(#clipPath36)"><tspan
         style="font-variant:normal;font-weight:normal;font-size:20px;font-family:Helvetica;writing-mode:lr-tb;fill:#000000;fill-opacity:1;fill-rule:nonzero;stroke:none"
         x="0 12.216797 23.339844 30 41.123047 52.246094"
         y="0"
         sodipodi:role="line"
         id="tspan35">Thread</tspan></text>
    <text
       id="text36"
       xml:space="preserve"
       transform="matrix(0.9584309,0,0,0.9584309,210.83983,349.82728)"
       clip-path="url(#clipPath37)"><tspan
         style="font-variant:normal;font-weight:normal;font-size:20px;font-family:Helvetica;writing-mode:lr-tb;fill:#000000;fill-opacity:1;fill-rule:nonzero;stroke:none"
         x="0 13.339844 24.462891 35.585938"
         y="0"
         sodipodi:role="line"
         id="tspan36">Pool</tspan></text>
    <path
       id="path38"
       d="m 275,311 h 70 v 35 h -70 z"
       style="fill:#f5f5f5;fill-opacity:1;fill-rule:nonzero;stroke:#666666;stroke-width:1;stroke-linecap:butt;stroke-linejoin:miter;stroke-miterlimit:10;stroke-dasharray:none;stroke-opacity:1"
       transform="scale(0.95842127)"
       clip-path="url(#clipPath39)" />
    <text
       id="text39"
       xml:space="preserve"
       transform="matrix(0.9584309,0,0,0.9584309,268.70509,320.11592)"
       clip-path="url(#clipPath40)"><tspan
         style="font-variant:normal;font-weight:normal;font-size:13px;font-family:Helvetica;writing-mode:lr-tb;fill:#000000;fill-opacity:1;fill-rule:nonzero;stroke:none"
         x="0 7.940918 15.170898 19.5 26.72998 33.959961 41.189941 44.801758 52.031738"
         y="0"
         sodipodi:role="line"
         id="tspan39">Thread #1</tspan></text>
    <path
       id="path41"
       d="m 345,311 h 70 v 35 h -70 z"
       style="fill:#f5f5f5;fill-opacity:1;fill-rule:nonzero;stroke:#666666;stroke-width:1;stroke-linecap:butt;stroke-linejoin:miter;stroke-miterlimit:10;stroke-dasharray:none;stroke-opacity:1"
       transform="scale(0.95842127)"
       clip-path="url(#clipPath42)" />
    <text
       id="text42"
       xml:space="preserve"
       transform="matrix(0.9584309,0,0,0.9584309,335.79526,320.11592)"
       clip-path="url(#clipPath43)"><tspan
         style="font-variant:normal;font-weight:normal;font-size:13px;font-family:Helvetica;writing-mode:lr-tb;fill:#000000;fill-opacity:1;fill-rule:nonzero;stroke:none"
         x="0 7.940918 15.170898 19.5 26.72998 33.959961 41.189941 44.801758 52.031738"
         y="0"
         sodipodi:role="line"
         id="tspan42">Thread #2</tspan></text>
    <path
       id="path44"
       d="m 275,346 h 70 v 35 h -70 z"
       style="fill:#f5f5f5;fill-opacity:1;fill-rule:nonzero;stroke:#666666;stroke-width:1;stroke-linecap:butt;stroke-linejoin:miter;stroke-miterlimit:10;stroke-dasharray:none;stroke-opacity:1"
       transform="scale(0.95842127)"
       clip-path="url(#clipPath45)" />
    <text
       id="text45"
       xml:space="preserve"
       transform="matrix(0.9584309,0,0,0.9584309,268.70509,353.661)"
       clip-path="url(#clipPath46)"><tspan
         style="font-variant:normal;font-weight:normal;font-size:13px;font-family:Helvetica;writing-mode:lr-tb;fill:#000000;fill-opacity:1;fill-rule:nonzero;stroke:none"
         x="0 7.940918 15.170898 19.5 26.72998 33.959961 41.189941 44.801758 52.031738"
         y="0"
         sodipodi:role="line"
         id="tspan45">Thread #3</tspan></text>
    <path
       id="path47"
       d="m 345,346 h 70 v 35 h -70 z"
       style="fill:#f5f5f5;fill-opacity:1;fill-rule:nonzero;stroke:#666666;stroke-width:1;stroke-linecap:butt;stroke-linejoin:miter;stroke-miterlimit:10;stroke-dasharray:none;stroke-opacity:1"
       transform="scale(0.95842127)"
       clip-path="url(#clipPath48)" />
    <text
       id="text48"
       xml:space="preserve"
       transform="matrix(0.9584309,0,0,0.9584309,335.79526,353.661)"
       clip-path="url(#clipPath49)"><tspan
         style="font-variant:normal;font-weight:normal;font-size:13px;font-family:Helvetica;writing-mode:lr-tb;fill:#000000;fill-opacity:1;fill-rule:nonzero;stroke:none"
         x="0 7.940918 15.170898 19.5 26.72998 33.959961 41.189941 44.801758 52.031738"
         y="0"
         sodipodi:role="line"
         id="tspan48">Thread #4</tspan></text>
  </g>
</svg>
