<?xml version="1.0" encoding="UTF-8" standalone="no"?>
<!-- Created with Inkscape (http://www.inkscape.org/) -->

<svg
   version="1.1"
   id="svg1"
   width="550.71997"
   height="254.71999"
   viewBox="0 0 550.71997 254.71999"
   sodipodi:docname="node-18.pdf"
   xmlns:inkscape="http://www.inkscape.org/namespaces/inkscape"
   xmlns:sodipodi="http://sodipodi.sourceforge.net/DTD/sodipodi-0.dtd"
   xmlns="http://www.w3.org/2000/svg"
   xmlns:svg="http://www.w3.org/2000/svg">
  <defs
     id="defs1">
    <clipPath
       clipPathUnits="userSpaceOnUse"
       id="clipPath2">
      <path
         d="M 0,0 H 1720.8334 V 794.46136 H 0 Z"
         transform="scale(0.33355932)"
         clip-rule="evenodd"
         id="path2" />
    </clipPath>
    <clipPath
       clipPathUnits="userSpaceOnUse"
       id="clipPath4">
      <path
         d="M 0,0 H 1720.8334 V 791.46344 H 0 Z"
         transform="scale(0.33355932)"
         clip-rule="evenodd"
         id="path4" />
    </clipPath>
    <clipPath
       clipPathUnits="userSpaceOnUse"
       id="clipPath6">
      <path
         d="M 0,0 H 1720.8334 V 791.46344 H 0 Z"
         transform="scale(0.33355932)"
         clip-rule="evenodd"
         id="path6" />
    </clipPath>
    <clipPath
       clipPathUnits="userSpaceOnUse"
       id="clipPath8">
      <path
         d="M 0,0 H 1720.8334 V 791.46344 H 0 Z"
         transform="matrix(0.33355932,0,0,0.33355932,-0.5,-0.5)"
         clip-rule="evenodd"
         id="path8" />
    </clipPath>
    <clipPath
       clipPathUnits="userSpaceOnUse"
       id="clipPath10">
      <path
         d="M 0,0 H 1720.8334 V 791.46344 H 0 Z"
         transform="matrix(0.33355932,0,0,0.33355932,-0.5,-0.5)"
         clip-rule="evenodd"
         id="path10" />
    </clipPath>
    <clipPath
       clipPathUnits="userSpaceOnUse"
       id="clipPath12">
      <path
         d="M 0,0 H 1720.8334 V 791.46344 H 0 Z"
         transform="scale(0.33355932)"
         clip-rule="evenodd"
         id="path12" />
    </clipPath>
    <clipPath
       clipPathUnits="userSpaceOnUse"
       id="clipPath13">
      <path
         d="M 0,0 H 1720.8334 V 791.46344 H 0 Z"
         transform="matrix(0.33355598,0,0,0.33355598,-36.25,-70)"
         clip-rule="evenodd"
         id="path13" />
    </clipPath>
    <clipPath
       clipPathUnits="userSpaceOnUse"
       id="clipPath14">
      <path
         d="M 0,0 H 1720.8334 V 791.46344 H 0 Z"
         transform="matrix(0.33355598,0,0,0.33355598,-89.625,-70)"
         clip-rule="evenodd"
         id="path14" />
    </clipPath>
    <clipPath
       clipPathUnits="userSpaceOnUse"
       id="clipPath16">
      <path
         d="M 0,0 H 1720.8334 V 791.46344 H 0 Z"
         transform="scale(0.33355932)"
         clip-rule="evenodd"
         id="path16" />
    </clipPath>
    <clipPath
       clipPathUnits="userSpaceOnUse"
       id="clipPath17">
      <path
         d="M 0,0 H 1720.8334 V 791.46344 H 0 Z"
         transform="matrix(0.33355598,0,0,0.33355598,-387.78125,-68)"
         clip-rule="evenodd"
         id="path17" />
    </clipPath>
    <clipPath
       clipPathUnits="userSpaceOnUse"
       id="clipPath19">
      <path
         d="M 0,0 H 1720.8334 V 791.46344 H 0 Z"
         transform="matrix(0.33355932,0,0,0.33355932,-0.5,-0.5)"
         clip-rule="evenodd"
         id="path19" />
    </clipPath>
    <clipPath
       clipPathUnits="userSpaceOnUse"
       id="clipPath21">
      <path
         d="M 0,0 H 1720.8334 V 791.46344 H 0 Z"
         transform="matrix(0.33355932,0,0,0.33355932,-0.5,-0.5)"
         clip-rule="evenodd"
         id="path21" />
    </clipPath>
    <clipPath
       clipPathUnits="userSpaceOnUse"
       id="clipPath23">
      <path
         d="M 0,0 H 1720.8334 V 791.46344 H 0 Z"
         transform="scale(0.33355932)"
         clip-rule="evenodd"
         id="path23" />
    </clipPath>
    <clipPath
       clipPathUnits="userSpaceOnUse"
       id="clipPath24">
      <path
         d="M 0,0 H 1720.8334 V 791.46344 H 0 Z"
         transform="matrix(0.33355598,0,0,0.33355598,-60.90625,-193)"
         clip-rule="evenodd"
         id="path24" />
    </clipPath>
    <clipPath
       clipPathUnits="userSpaceOnUse"
       id="clipPath25">
      <path
         d="M 0,0 H 1720.8334 V 791.46344 H 0 Z"
         transform="matrix(0.33355598,0,0,0.33355598,-153.25977,-193)"
         clip-rule="evenodd"
         id="path25" />
    </clipPath>
    <clipPath
       clipPathUnits="userSpaceOnUse"
       id="clipPath26">
      <path
         d="M 0,0 H 1720.8334 V 791.46344 H 0 Z"
         transform="matrix(0.33355598,0,0,0.33355598,-13.96875,-223)"
         clip-rule="evenodd"
         id="path26" />
    </clipPath>
    <clipPath
       clipPathUnits="userSpaceOnUse"
       id="clipPath28">
      <path
         d="M 0,0 H 1720.8334 V 791.46344 H 0 Z"
         transform="scale(0.33355932)"
         clip-rule="evenodd"
         id="path28" />
    </clipPath>
    <clipPath
       clipPathUnits="userSpaceOnUse"
       id="clipPath29">
      <path
         d="M 0,0 H 1720.8334 V 791.46344 H 0 Z"
         transform="matrix(0.33355598,0,0,0.33355598,-362.51563,-210)"
         clip-rule="evenodd"
         id="path29" />
    </clipPath>
    <clipPath
       clipPathUnits="userSpaceOnUse"
       id="clipPath30">
      <path
         d="M 0,0 H 1720.8334 V 791.46344 H 0 Z"
         transform="matrix(0.33355598,0,0,0.33355598,-413.05664,-210)"
         clip-rule="evenodd"
         id="path30" />
    </clipPath>
  </defs>
  <sodipodi:namedview
     id="namedview1"
     pagecolor="#ffffff"
     bordercolor="#000000"
     borderopacity="0.25"
     inkscape:showpageshadow="2"
     inkscape:pageopacity="0.0"
     inkscape:pagecheckerboard="0"
     inkscape:deskcolor="#d1d1d1">
    <inkscape:page
       x="0"
       y="0"
       inkscape:label="1"
       id="page1"
       width="550.71997"
       height="254.71999"
       margin="0"
       bleed="0" />
  </sodipodi:namedview>
  <g
     id="g1"
     inkscape:groupmode="layer"
     inkscape:label="1">
    <path
       id="path1"
       d="M 0,0 H 574 V 265 H 0 Z"
       style="fill:#ffffff;fill-opacity:1;fill-rule:nonzero;stroke:none"
       transform="scale(0.95934956)"
       clip-path="url(#clipPath2)" />
    <path
       id="path3"
       d="M 1,141 H 571.01001 V 261 H 1 Z"
       style="fill:#d5e8d4;fill-opacity:1;fill-rule:nonzero;stroke:#82b366;stroke-width:1;stroke-linecap:butt;stroke-linejoin:miter;stroke-miterlimit:10;stroke-dasharray:none;stroke-opacity:1"
       transform="scale(0.95934956)"
       clip-path="url(#clipPath4)" />
    <path
       id="path5"
       d="M 1,1 H 571.01001 V 121 H 1 Z"
       style="fill:#dae8fc;fill-opacity:1;fill-rule:nonzero;stroke:#6c8ebf;stroke-width:1;stroke-linecap:butt;stroke-linejoin:miter;stroke-miterlimit:10;stroke-dasharray:none;stroke-opacity:1"
       transform="scale(0.95934956)"
       clip-path="url(#clipPath6)" />
    <path
       id="path7"
       d="m 251,61 h 55 44.89999"
       style="fill:none;stroke:#000000;stroke-width:1;stroke-linecap:butt;stroke-linejoin:miter;stroke-miterlimit:10;stroke-dasharray:none;stroke-opacity:1"
       transform="matrix(0.95934956,0,0,0.95934956,0.47967478,0.47967478)"
       clip-path="url(#clipPath8)" />
    <path
       id="path9"
       d="m 357.64999,61 -9,4.5 2.25,-4.5 -2.25,-4.5 z"
       style="fill:#000000;fill-opacity:1;fill-rule:nonzero;stroke:#000000;stroke-width:1;stroke-linecap:butt;stroke-linejoin:miter;stroke-miterlimit:10;stroke-dasharray:none;stroke-opacity:1"
       transform="matrix(0.95934956,0,0,0.95934956,0.47967478,0.47967478)"
       clip-path="url(#clipPath10)" />
    <path
       id="path11"
       d="M 11,11 H 251 V 111 H 11 Z"
       style="fill:#ffffff;fill-opacity:1;fill-rule:nonzero;stroke:#000000;stroke-width:1;stroke-linecap:butt;stroke-linejoin:miter;stroke-miterlimit:10;stroke-dasharray:none;stroke-opacity:1"
       transform="scale(0.95934956)"
       clip-path="url(#clipPath12)" />
    <text
       id="text12"
       xml:space="preserve"
       transform="matrix(0.95935916,0,0,0.95935916,34.77677,67.155141)"
       clip-path="url(#clipPath13)"><tspan
         style="font-variant:normal;font-weight:normal;font-size:20px;font-family:Helvetica;writing-mode:lr-tb;fill:#000000;fill-opacity:1;fill-rule:nonzero;stroke:none"
         x="0 14.443359 25.566406 36.689453 47.8125"
         y="0"
         sodipodi:role="line"
         id="tspan12">Node </tspan></text>
    <text
       id="text13"
       xml:space="preserve"
       transform="matrix(0.95935916,0,0,0.95935916,85.982565,67.155141)"
       clip-path="url(#clipPath14)"><tspan
         style="font-variant:normal;font-weight:700;font-size:25px;font-family:Helvetica;writing-mode:lr-tb;fill:#000000;fill-opacity:1;fill-rule:nonzero;stroke:none"
         x="0 16.674805 30.578613 44.482422 59.753418 68.078613 75.024414 90.29541 105.56641 120.8374"
         y="0"
         sodipodi:role="line"
         id="tspan13">Event Loop</tspan></text>
    <path
       id="path15"
       d="M 361,11 H 561 V 111 H 361 Z"
       style="fill:#ffffff;fill-opacity:1;fill-rule:nonzero;stroke:#000000;stroke-width:1;stroke-linecap:butt;stroke-linejoin:miter;stroke-miterlimit:10;stroke-dasharray:none;stroke-opacity:1"
       transform="scale(0.95934956)"
       clip-path="url(#clipPath16)" />
    <text
       id="text16"
       xml:space="preserve"
       transform="matrix(0.95935916,0,0,0.95935916,372.02149,65.236423)"
       clip-path="url(#clipPath17)"><tspan
         style="font-variant:normal;font-weight:normal;font-size:20px;font-family:Helvetica;writing-mode:lr-tb;fill:#000000;fill-opacity:1;fill-rule:nonzero;stroke:none"
         x="0 13.339844 17.783203 28.90625 40.029297 44.472656 55.595703 60.800781 73.017578 84.140625 90.800781 101.92383 113.04688 124.16992 135.29297"
         y="0"
         sodipodi:role="line"
         id="tspan16">Single Threaded</tspan></text>
    <path
       id="path18"
       d="m 251,201 h 55 44.89999"
       style="fill:none;stroke:#000000;stroke-width:1;stroke-linecap:butt;stroke-linejoin:miter;stroke-miterlimit:10;stroke-dasharray:none;stroke-opacity:1"
       transform="matrix(0.95934956,0,0,0.95934956,0.47967478,0.47967478)"
       clip-path="url(#clipPath19)" />
    <path
       id="path20"
       d="m 357.64999,201 -9,4.5 2.25,-4.5 -2.25,-4.5 z"
       style="fill:#000000;fill-opacity:1;fill-rule:nonzero;stroke:#000000;stroke-width:1;stroke-linecap:butt;stroke-linejoin:miter;stroke-miterlimit:10;stroke-dasharray:none;stroke-opacity:1"
       transform="matrix(0.95934956,0,0,0.95934956,0.47967478,0.47967478)"
       clip-path="url(#clipPath21)" />
    <path
       id="path22"
       d="M 11,151 H 251 V 251 H 11 Z"
       style="fill:#ffffff;fill-opacity:1;fill-rule:nonzero;stroke:#000000;stroke-width:1;stroke-linecap:butt;stroke-linejoin:miter;stroke-miterlimit:10;stroke-dasharray:none;stroke-opacity:1"
       transform="scale(0.95934956)"
       clip-path="url(#clipPath23)" />
    <text
       id="text23"
       xml:space="preserve"
       transform="matrix(0.95935916,0,0,0.95935916,58.430969,185.15632)"
       clip-path="url(#clipPath24)"><tspan
         style="font-variant:normal;font-weight:700;font-size:22px;font-family:Helvetica;writing-mode:lr-tb;fill:#000000;fill-opacity:1;fill-rule:nonzero;stroke:none"
         x="0 14.673828 28.112305 47.673828 59.90918 66.021484 79.459961"
         y="0"
         sodipodi:role="line"
         id="tspan23">Some of</tspan></text>
    <text
       id="text24"
       xml:space="preserve"
       transform="matrix(0.95935916,0,0,0.95935916,147.03116,185.15632)"
       clip-path="url(#clipPath25)"><tspan
         style="font-variant:normal;font-weight:normal;font-size:20px;font-family:Helvetica;writing-mode:lr-tb;fill:#000000;fill-opacity:1;fill-rule:nonzero;stroke:none"
         x="0 14.443359 25.566406 36.689453"
         y="0"
         sodipodi:role="line"
         id="tspan24">Node</tspan></text>
    <text
       id="text25"
       xml:space="preserve"
       transform="matrix(0.95935916,0,0,0.95935916,13.401048,213.93709)"
       clip-path="url(#clipPath26)"><tspan
         style="font-variant:normal;font-weight:700;font-size:26px;font-family:Helvetica;writing-mode:lr-tb;fill:#000000;fill-opacity:1;fill-rule:nonzero;stroke:none"
         x="0 15.881836 26 40.459961 63.578125 78.038086 98.261719 114.14355 124.26172 138.72168 145.94531 163.28711 171.94531 187.82715 195.05078 210.93262 218.15625"
         y="0"
         sodipodi:role="line"
         id="tspan25">Framework/Std Lib</tspan></text>
    <path
       id="path27"
       d="M 361,151 H 561 V 251 H 361 Z"
       style="fill:#ffffff;fill-opacity:1;fill-rule:nonzero;stroke:#000000;stroke-width:1;stroke-linecap:butt;stroke-linejoin:miter;stroke-miterlimit:10;stroke-dasharray:none;stroke-opacity:1"
       transform="scale(0.95934956)"
       clip-path="url(#clipPath28)" />
    <text
       id="text28"
       xml:space="preserve"
       transform="matrix(0.95935916,0,0,0.95935916,347.78269,201.46542)"
       clip-path="url(#clipPath29)"><tspan
         style="font-variant:normal;font-weight:700;font-size:27px;font-family:Helvetica;writing-mode:lr-tb;fill:#000000;fill-opacity:1;fill-rule:nonzero;stroke:none"
         x="0 19.498535 35.991211"
         y="0"
         sodipodi:role="line"
         id="tspan28">Not</tspan></text>
    <text
       id="text29"
       xml:space="preserve"
       transform="matrix(0.95935916,0,0,0.95935916,396.26967,201.46542)"
       clip-path="url(#clipPath30)"><tspan
         style="font-variant:normal;font-weight:normal;font-size:20px;font-family:Helvetica;writing-mode:lr-tb;fill:#000000;fill-opacity:1;fill-rule:nonzero;stroke:none"
         x="0 13.339844 17.783203 28.90625 40.029297 44.472656 55.595703 60.800781 73.017578 84.140625 90.800781 101.92383 113.04688 124.16992 135.29297"
         y="0"
         sodipodi:role="line"
         id="tspan29">Single Threaded</tspan></text>
  </g>
</svg>
