<?xml version="1.0" encoding="UTF-8" standalone="no"?>
<!-- Created with Inkscape (http://www.inkscape.org/) -->

<svg
   version="1.1"
   id="svg1"
   width="530.56"
   height="274.56"
   viewBox="0 0 530.56 274.56"
   sodipodi:docname="node-5.pdf"
   xmlns:inkscape="http://www.inkscape.org/namespaces/inkscape"
   xmlns:sodipodi="http://sodipodi.sourceforge.net/DTD/sodipodi-0.dtd"
   xmlns="http://www.w3.org/2000/svg"
   xmlns:svg="http://www.w3.org/2000/svg">
  <defs
     id="defs1">
    <clipPath
       clipPathUnits="userSpaceOnUse"
       id="clipPath2">
      <path
         d="M 0,0 H 1658.3333 V 857.65515 H 0 Z"
         transform="scale(0.33346735)"
         clip-rule="evenodd"
         id="path2" />
    </clipPath>
    <clipPath
       clipPathUnits="userSpaceOnUse"
       id="clipPath4">
      <path
         d="M 0,0 H 1658.3333 V 851.65759 H 0 Z"
         transform="matrix(0.33346735,0,0,0.33346735,-0.5,-0.5)"
         clip-rule="evenodd"
         id="path4" />
    </clipPath>
    <clipPath
       clipPathUnits="userSpaceOnUse"
       id="clipPath6">
      <path
         d="M 0,0 H 1658.3333 V 851.65759 H 0 Z"
         transform="matrix(0.33346735,0,0,0.33346735,-0.5,-0.5)"
         clip-rule="evenodd"
         id="path6" />
    </clipPath>
    <clipPath
       clipPathUnits="userSpaceOnUse"
       id="clipPath8">
      <path
         d="M 0,0 H 1658.3333 V 851.65759 H 0 Z"
         transform="scale(0.33346735)"
         clip-rule="evenodd"
         id="path8" />
    </clipPath>
    <clipPath
       clipPathUnits="userSpaceOnUse"
       id="clipPath9">
      <path
         d="M 0,0 H 1658.3333 V 851.65759 H 0 Z"
         transform="matrix(0.33346401,0,0,0.33346401,-278.82813,-158)"
         clip-rule="evenodd"
         id="path9" />
    </clipPath>
    <clipPath
       clipPathUnits="userSpaceOnUse"
       id="clipPath11">
      <path
         d="M 0,0 H 1658.3333 V 851.65759 H 0 Z"
         transform="matrix(0.33346735,0,0,0.33346735,-0.5,-0.5)"
         clip-rule="evenodd"
         id="path11" />
    </clipPath>
    <clipPath
       clipPathUnits="userSpaceOnUse"
       id="clipPath13">
      <path
         d="M 0,0 H 1658.3333 V 851.65759 H 0 Z"
         transform="matrix(0.33346735,0,0,0.33346735,-0.5,-0.5)"
         clip-rule="evenodd"
         id="path13" />
    </clipPath>
    <clipPath
       clipPathUnits="userSpaceOnUse"
       id="clipPath15">
      <path
         d="M 0,0 H 1658.3333 V 851.65759 H 0 Z"
         transform="scale(0.33346735)"
         clip-rule="evenodd"
         id="path15" />
    </clipPath>
    <clipPath
       clipPathUnits="userSpaceOnUse"
       id="clipPath16">
      <path
         d="M 0,0 H 1658.3333 V 851.65759 H 0 Z"
         transform="matrix(0.33346401,0,0,0.33346401,-167.1875,-38)"
         clip-rule="evenodd"
         id="path16" />
    </clipPath>
    <clipPath
       clipPathUnits="userSpaceOnUse"
       id="clipPath18">
      <path
         d="M 0,0 H 1658.3333 V 851.65759 H 0 Z"
         transform="matrix(0.33346735,0,0,0.33346735,-0.5,-0.5)"
         clip-rule="evenodd"
         id="path18" />
    </clipPath>
    <clipPath
       clipPathUnits="userSpaceOnUse"
       id="clipPath20">
      <path
         d="M 0,0 H 1658.3333 V 851.65759 H 0 Z"
         transform="matrix(0.33346735,0,0,0.33346735,-0.5,-0.5)"
         clip-rule="evenodd"
         id="path20" />
    </clipPath>
    <clipPath
       clipPathUnits="userSpaceOnUse"
       id="clipPath22">
      <path
         d="M 0,0 H 1658.3333 V 851.65759 H 0 Z"
         transform="scale(0.33346735)"
         clip-rule="evenodd"
         id="path22" />
    </clipPath>
    <clipPath
       clipPathUnits="userSpaceOnUse"
       id="clipPath23">
      <path
         d="M 0,0 H 1658.3333 V 851.65759 H 0 Z"
         transform="matrix(0.33346401,0,0,0.33346401,-334.4375,-38)"
         clip-rule="evenodd"
         id="path23" />
    </clipPath>
    <clipPath
       clipPathUnits="userSpaceOnUse"
       id="clipPath25">
      <path
         d="M 0,0 H 1658.3333 V 851.65759 H 0 Z"
         transform="scale(0.33346735)"
         clip-rule="evenodd"
         id="path25" />
    </clipPath>
    <clipPath
       clipPathUnits="userSpaceOnUse"
       id="clipPath26">
      <path
         d="M 0,0 H 1658.3333 V 851.65759 H 0 Z"
         transform="matrix(0.33346401,0,0,0.33346401,-328.3125,-258)"
         clip-rule="evenodd"
         id="path26" />
    </clipPath>
    <clipPath
       clipPathUnits="userSpaceOnUse"
       id="clipPath28">
      <path
         d="M 0,0 H 1658.3333 V 851.65759 H 0 Z"
         transform="matrix(0.33346735,0,0,0.33346735,-0.5,-0.5)"
         clip-rule="evenodd"
         id="path28" />
    </clipPath>
    <clipPath
       clipPathUnits="userSpaceOnUse"
       id="clipPath30">
      <path
         d="M 0,0 H 1658.3333 V 851.65759 H 0 Z"
         transform="matrix(0.33346735,0,0,0.33346735,-0.5,-0.5)"
         clip-rule="evenodd"
         id="path30" />
    </clipPath>
    <clipPath
       clipPathUnits="userSpaceOnUse"
       id="clipPath32">
      <path
         d="M 0,0 H 1658.3333 V 851.65759 H 0 Z"
         transform="scale(0.33346735)"
         clip-rule="evenodd"
         id="path32" />
    </clipPath>
    <clipPath
       clipPathUnits="userSpaceOnUse"
       id="clipPath33">
      <path
         d="M 0,0 H 1658.3333 V 851.65759 H 0 Z"
         transform="matrix(0.33346401,0,0,0.33346401,-464.98438,-26)"
         clip-rule="evenodd"
         id="path33" />
    </clipPath>
    <clipPath
       clipPathUnits="userSpaceOnUse"
       id="clipPath34">
      <path
         d="M 0,0 H 1658.3333 V 851.65759 H 0 Z"
         transform="matrix(0.33346401,0,0,0.33346401,-455.53124,-49.999999)"
         clip-rule="evenodd"
         id="path34" />
    </clipPath>
    <clipPath
       clipPathUnits="userSpaceOnUse"
       id="clipPath36">
      <path
         d="M 0,0 H 1658.3333 V 851.65759 H 0 Z"
         transform="scale(0.33346735)"
         clip-rule="evenodd"
         id="path36" />
    </clipPath>
    <clipPath
       clipPathUnits="userSpaceOnUse"
       id="clipPath37">
      <path
         d="M 0,0 H 1658.3333 V 851.65759 H 0 Z"
         transform="matrix(0.33346401,0,0,0.33346401,-25.984375,-146)"
         clip-rule="evenodd"
         id="path37" />
    </clipPath>
    <clipPath
       clipPathUnits="userSpaceOnUse"
       id="clipPath38">
      <path
         d="M 0,0 H 1658.3333 V 851.65759 H 0 Z"
         transform="matrix(0.33346401,0,0,0.33346401,-60.3125,-166)"
         clip-rule="evenodd"
         id="path38" />
    </clipPath>
  </defs>
  <sodipodi:namedview
     id="namedview1"
     pagecolor="#ffffff"
     bordercolor="#000000"
     borderopacity="0.25"
     inkscape:showpageshadow="2"
     inkscape:pageopacity="0.0"
     inkscape:pagecheckerboard="0"
     inkscape:deskcolor="#d1d1d1">
    <inkscape:page
       x="0"
       y="0"
       inkscape:label="1"
       id="page1"
       width="530.56"
       height="274.56"
       margin="0"
       bleed="0" />
  </sodipodi:namedview>
  <g
     id="g1"
     inkscape:groupmode="layer"
     inkscape:label="1">
    <path
       id="path1"
       d="M 0,0 H 553 V 286 H 0 Z"
       style="fill:#ffffff;fill-opacity:1;fill-rule:nonzero;stroke:none"
       transform="scale(0.95961414)"
       clip-path="url(#clipPath2)" />
    <path
       id="path3"
       d="m 350,181 v 29.89999"
       style="fill:none;stroke:#000000;stroke-width:1;stroke-linecap:butt;stroke-linejoin:miter;stroke-miterlimit:10;stroke-dasharray:none;stroke-opacity:1"
       transform="matrix(0.95961414,0,0,0.95961414,0.47980707,0.47980707)"
       clip-path="url(#clipPath4)" />
    <path
       id="path5"
       d="m 350,217.64999 -4.5,-9 4.5,2.25 4.5,-2.25 z"
       style="fill:#000000;fill-opacity:1;fill-rule:nonzero;stroke:#000000;stroke-width:1;stroke-linecap:butt;stroke-linejoin:miter;stroke-miterlimit:10;stroke-dasharray:none;stroke-opacity:1"
       transform="matrix(0.95961414,0,0,0.95961414,0.47980707,0.47980707)"
       clip-path="url(#clipPath6)" />
    <path
       id="path7"
       d="m 210,121 h 280 v 60 H 210 Z"
       style="fill:#dae8fc;fill-opacity:1;fill-rule:nonzero;stroke:#6c8ebf;stroke-width:1;stroke-linecap:butt;stroke-linejoin:miter;stroke-miterlimit:10;stroke-dasharray:none;stroke-opacity:1"
       transform="scale(0.95961414)"
       clip-path="url(#clipPath8)" />
    <text
       id="text8"
       xml:space="preserve"
       transform="matrix(0.95962377,0,0,0.95962377,267.5701,151.62056)"
       clip-path="url(#clipPath9)"><tspan
         style="font-variant:normal;font-weight:normal;font-size:20px;font-family:Helvetica;writing-mode:lr-tb;fill:#000000;fill-opacity:1;fill-rule:nonzero;stroke:none"
         x="0 11.123047 22.246094 32.246094 43.369141 48.925781 60.048828 65.605469 77.822266 88.945312 100.06836 110.06836 115.625 120.06836 131.19141"
         y="0"
         sodipodi:role="line"
         id="tspan8">pbkdf2 Function</tspan></text>
    <path
       id="path10"
       d="m 210,61 v 30 h 70 v 19.9"
       style="fill:none;stroke:#000000;stroke-width:1;stroke-linecap:butt;stroke-linejoin:miter;stroke-miterlimit:10;stroke-dasharray:none;stroke-opacity:1"
       transform="matrix(0.95961414,0,0,0.95961414,0.47980707,0.47980707)"
       clip-path="url(#clipPath11)" />
    <path
       id="path12"
       d="m 280,117.65 -4.5,-9 4.5,2.25 4.5,-2.25 z"
       style="fill:#000000;fill-opacity:1;fill-rule:nonzero;stroke:#000000;stroke-width:1;stroke-linecap:butt;stroke-linejoin:miter;stroke-miterlimit:10;stroke-dasharray:none;stroke-opacity:1"
       transform="matrix(0.95961414,0,0,0.95961414,0.47980707,0.47980707)"
       clip-path="url(#clipPath13)" />
    <path
       id="path14"
       d="M 150,1 H 270 V 61 H 150 Z"
       style="fill:#ffffff;fill-opacity:1;fill-rule:nonzero;stroke:#000000;stroke-width:1;stroke-linecap:butt;stroke-linejoin:miter;stroke-miterlimit:10;stroke-dasharray:none;stroke-opacity:1"
       transform="scale(0.95961414)"
       clip-path="url(#clipPath15)" />
    <text
       id="text15"
       xml:space="preserve"
       transform="matrix(0.95962377,0,0,0.95962377,160.4371,36.465703)"
       clip-path="url(#clipPath16)"><tspan
         style="font-variant:normal;font-weight:normal;font-size:20px;font-family:Helvetica;writing-mode:lr-tb;fill:#000000;fill-opacity:1;fill-rule:nonzero;stroke:none"
         x="0 11.123047 22.246094 32.246094 42.246094 56.689453 67.8125 74.472656"
         y="0"
         sodipodi:role="line"
         id="tspan15">password</tspan></text>
    <path
       id="path17"
       d="m 350,61 v 49.9"
       style="fill:none;stroke:#000000;stroke-width:1;stroke-linecap:butt;stroke-linejoin:miter;stroke-miterlimit:10;stroke-dasharray:none;stroke-opacity:1"
       transform="matrix(0.95961414,0,0,0.95961414,0.47980707,0.47980707)"
       clip-path="url(#clipPath18)" />
    <path
       id="path19"
       d="m 350,117.65 -4.5,-9 4.5,2.25 4.5,-2.25 z"
       style="fill:#000000;fill-opacity:1;fill-rule:nonzero;stroke:#000000;stroke-width:1;stroke-linecap:butt;stroke-linejoin:miter;stroke-miterlimit:10;stroke-dasharray:none;stroke-opacity:1"
       transform="matrix(0.95961414,0,0,0.95961414,0.47980707,0.47980707)"
       clip-path="url(#clipPath20)" />
    <path
       id="path21"
       d="M 290,1 H 410 V 61 H 290 Z"
       style="fill:#ffffff;fill-opacity:1;fill-rule:nonzero;stroke:#000000;stroke-width:1;stroke-linecap:butt;stroke-linejoin:miter;stroke-miterlimit:10;stroke-dasharray:none;stroke-opacity:1"
       transform="scale(0.95961414)"
       clip-path="url(#clipPath22)" />
    <text
       id="text22"
       xml:space="preserve"
       transform="matrix(0.95962377,0,0,0.95962377,320.93417,36.465703)"
       clip-path="url(#clipPath23)"><tspan
         style="font-variant:normal;font-weight:normal;font-size:20px;font-family:Helvetica;writing-mode:lr-tb;fill:#000000;fill-opacity:1;fill-rule:nonzero;stroke:none"
         x="0 10 21.123047 25.566406"
         y="0"
         sodipodi:role="line"
         id="tspan22">salt</tspan></text>
    <path
       id="path24"
       d="m 290,221 h 120 v 60 H 290 Z"
       style="fill:#ffffff;fill-opacity:1;fill-rule:nonzero;stroke:#000000;stroke-width:1;stroke-linecap:butt;stroke-linejoin:miter;stroke-miterlimit:10;stroke-dasharray:none;stroke-opacity:1"
       transform="scale(0.95961414)"
       clip-path="url(#clipPath25)" />
    <text
       id="text25"
       xml:space="preserve"
       transform="matrix(0.95962377,0,0,0.95962377,315.05648,247.58293)"
       clip-path="url(#clipPath26)"><tspan
         style="font-variant:normal;font-weight:normal;font-size:20px;font-family:Helvetica;writing-mode:lr-tb;fill:#000000;fill-opacity:1;fill-rule:nonzero;stroke:none"
         x="0 11.123047 22.246094 32.246094"
         y="0"
         sodipodi:role="line"
         id="tspan25">hash</tspan></text>
    <path
       id="path27"
       d="m 490,61 v 30 h -70 v 19.9"
       style="fill:none;stroke:#000000;stroke-width:1;stroke-linecap:butt;stroke-linejoin:miter;stroke-miterlimit:10;stroke-dasharray:none;stroke-opacity:1"
       transform="matrix(0.95961414,0,0,0.95961414,0.47980707,0.47980707)"
       clip-path="url(#clipPath28)" />
    <path
       id="path29"
       d="m 420,117.65 -4.5,-9 4.5,2.25 4.5,-2.25 z"
       style="fill:#000000;fill-opacity:1;fill-rule:nonzero;stroke:#000000;stroke-width:1;stroke-linecap:butt;stroke-linejoin:miter;stroke-miterlimit:10;stroke-dasharray:none;stroke-opacity:1"
       transform="matrix(0.95961414,0,0,0.95961414,0.47980707,0.47980707)"
       clip-path="url(#clipPath30)" />
    <path
       id="path31"
       d="M 430,1 H 550 V 61 H 430 Z"
       style="fill:#ffffff;fill-opacity:1;fill-rule:nonzero;stroke:#000000;stroke-width:1;stroke-linecap:butt;stroke-linejoin:miter;stroke-miterlimit:10;stroke-dasharray:none;stroke-opacity:1"
       transform="scale(0.95961414)"
       clip-path="url(#clipPath32)" />
    <text
       id="text32"
       xml:space="preserve"
       transform="matrix(0.95962377,0,0,0.95962377,446.21006,24.950218)"
       clip-path="url(#clipPath33)"><tspan
         style="font-variant:normal;font-weight:normal;font-size:20px;font-family:Helvetica;writing-mode:lr-tb;fill:#000000;fill-opacity:1;fill-rule:nonzero;stroke:none"
         x="0 15.556641 21.113281 32.236328 43.359375"
         y="0"
         sodipodi:role="line"
         id="tspan32">Other</tspan></text>
    <text
       id="text33"
       xml:space="preserve"
       transform="matrix(0.95962377,0,0,0.95962377,437.13861,47.981188)"
       clip-path="url(#clipPath34)"><tspan
         style="font-variant:normal;font-weight:normal;font-size:20px;font-family:Helvetica;writing-mode:lr-tb;fill:#000000;fill-opacity:1;fill-rule:nonzero;stroke:none"
         x="0 15.556641 26.679688 32.236328 36.679688 47.802734 58.925781"
         y="0"
         sodipodi:role="line"
         id="tspan33">Options</tspan></text>
    <path
       id="path35"
       d="m 200,121 h -7.5 c -5,0 -7.5,3.33334 -7.5,10 v 10 c 0,6.66667 -2.5,10 -7.5,10 h -3.75 c -2.5,0 -1.25,0 3.75,0 h 3.75 c 2.5,0 3.75,3.33333 3.75,10 v 10 c 0,6.66667 2.5,10 7.5,10 h 7.5"
       style="fill:none;stroke:#000000;stroke-width:1;stroke-linecap:butt;stroke-linejoin:miter;stroke-miterlimit:10;stroke-dasharray:none;stroke-opacity:1"
       transform="scale(0.95961414)"
       clip-path="url(#clipPath36)" />
    <text
       id="text36"
       xml:space="preserve"
       transform="matrix(0.95962377,0,0,0.95962377,24.935224,140.10507)"
       clip-path="url(#clipPath37)"><tspan
         style="font-style:oblique;font-variant:normal;font-weight:normal;font-size:16px;font-family:Helvetica;writing-mode:lr-tb;fill:#000000;fill-opacity:1;fill-rule:nonzero;stroke:none"
         x="0 9.7734375 18.671875 27.570312 35.570312 40.015625 43.570312 52.46875 61.367188 65.8125 69.367188 78.265625 82.710938 94.265625 103.16406 112.0625 120.96094 124.01562"
         y="0"
         sodipodi:role="line"
         id="tspan36">Function in Node's</tspan></text>
    <text
       id="text37"
       xml:space="preserve"
       transform="matrix(0.95962377,0,0,0.95962377,57.877309,159.29755)"
       clip-path="url(#clipPath38)"><tspan
         style="font-style:oblique;font-variant:normal;font-weight:normal;font-size:16px;font-family:Helvetica;writing-mode:lr-tb;fill:#000000;fill-opacity:1;fill-rule:nonzero;stroke:none"
         x="0 3.0546875 11.054688 16.382812 24.382812 33.28125 37.726562 46.625 49.679688 54.125 57.679688 61.234375 70.132812 75.460938 84.359375 89.6875"
         y="0"
         sodipodi:role="line"
         id="tspan37">'crypto' library</tspan></text>
  </g>
</svg>
