<?xml version="1.0" encoding="UTF-8" standalone="no"?>
<!-- Created with Inkscape (http://www.inkscape.org/) -->

<svg
   version="1.1"
   id="svg1"
   width="437.44"
   height="348.16"
   viewBox="0 0 437.44 348.16"
   sodipodi:docname="node-21.pdf"
   xmlns:inkscape="http://www.inkscape.org/namespaces/inkscape"
   xmlns:sodipodi="http://sodipodi.sourceforge.net/DTD/sodipodi-0.dtd"
   xmlns="http://www.w3.org/2000/svg"
   xmlns:svg="http://www.w3.org/2000/svg">
  <defs
     id="defs1">
    <clipPath
       clipPathUnits="userSpaceOnUse"
       id="clipPath2">
      <path
         d="M 0,0 H 1366.6665 V 1084.9414 H 0 Z"
         transform="scale(0.33365856)"
         clip-rule="evenodd"
         id="path2" />
    </clipPath>
    <clipPath
       clipPathUnits="userSpaceOnUse"
       id="clipPath4">
      <path
         d="M 0,0 H 1366.6665 V 1084.9414 H 0 Z"
         transform="matrix(0.33365856,0,0,0.33365856,-0.5,-0.5)"
         clip-rule="evenodd"
         id="path4" />
    </clipPath>
    <clipPath
       clipPathUnits="userSpaceOnUse"
       id="clipPath6">
      <path
         d="M 0,0 H 1366.6665 V 1084.9414 H 0 Z"
         transform="matrix(0.33365856,0,0,0.33365856,-0.5,-0.5)"
         clip-rule="evenodd"
         id="path6" />
    </clipPath>
    <clipPath
       clipPathUnits="userSpaceOnUse"
       id="clipPath8">
      <path
         d="M 0,0 H 1366.6665 V 1084.9414 H 0 Z"
         transform="scale(0.33365856)"
         clip-rule="evenodd"
         id="path8" />
    </clipPath>
    <clipPath
       clipPathUnits="userSpaceOnUse"
       id="clipPath9">
      <path
         d="M 0,0 H 1366.6665 V 1084.9414 H 0 Z"
         transform="matrix(0.33365522,0,0,0.33365522,-138.0625,-122)"
         clip-rule="evenodd"
         id="path9" />
    </clipPath>
    <clipPath
       clipPathUnits="userSpaceOnUse"
       id="clipPath10">
      <path
         d="M 0,0 H 1366.6665 V 1084.9414 H 0 Z"
         transform="matrix(0.33365522,0,0,0.33365522,-0.140625,-67)"
         clip-rule="evenodd"
         id="path10" />
    </clipPath>
    <clipPath
       clipPathUnits="userSpaceOnUse"
       id="clipPath12">
      <path
         d="M 0,0 H 1366.6665 V 1084.9414 H 0 Z"
         transform="matrix(0.33365856,0,0,0.33365856,-0.5,-0.5)"
         clip-rule="evenodd"
         id="path12" />
    </clipPath>
    <clipPath
       clipPathUnits="userSpaceOnUse"
       id="clipPath13">
      <path
         d="M 0,0 H 1366.6665 V 1084.9414 H 0 Z"
         transform="matrix(0.33365522,0,0,0.33365522,-61.4375,-67)"
         clip-rule="evenodd"
         id="path13" />
    </clipPath>
    <clipPath
       clipPathUnits="userSpaceOnUse"
       id="clipPath14">
      <path
         d="M 0,0 H 1366.6665 V 1084.9414 H 0 Z"
         transform="matrix(0.33365522,0,0,0.33365522,-122.6875,-31)"
         clip-rule="evenodd"
         id="path14" />
    </clipPath>
    <clipPath
       clipPathUnits="userSpaceOnUse"
       id="clipPath15">
      <path
         d="M 0,0 H 1366.6665 V 1084.9414 H 0 Z"
         transform="matrix(0.33365522,0,0,0.33365522,-146.57226,-31)"
         clip-rule="evenodd"
         id="path15" />
    </clipPath>
    <clipPath
       clipPathUnits="userSpaceOnUse"
       id="clipPath17">
      <path
         d="M 0,0 H 1366.6665 V 1084.9414 H 0 Z"
         transform="matrix(0.33365856,0,0,0.33365856,-0.5,-0.5)"
         clip-rule="evenodd"
         id="path17" />
    </clipPath>
    <clipPath
       clipPathUnits="userSpaceOnUse"
       id="clipPath19">
      <path
         d="M 0,0 H 1366.6665 V 1084.9414 H 0 Z"
         transform="matrix(0.33365856,0,0,0.33365856,-0.5,-0.5)"
         clip-rule="evenodd"
         id="path19" />
    </clipPath>
    <clipPath
       clipPathUnits="userSpaceOnUse"
       id="clipPath20">
      <path
         d="M 0,0 H 1366.6665 V 1084.9414 H 0 Z"
         transform="matrix(0.33365522,0,0,0.33365522,-49.4375,-187)"
         clip-rule="evenodd"
         id="path20" />
    </clipPath>
    <clipPath
       clipPathUnits="userSpaceOnUse"
       id="clipPath22">
      <path
         d="M 0,0 H 1366.6665 V 1084.9414 H 0 Z"
         transform="scale(0.33365856)"
         clip-rule="evenodd"
         id="path22" />
    </clipPath>
    <clipPath
       clipPathUnits="userSpaceOnUse"
       id="clipPath23">
      <path
         d="M 0,0 H 1366.6665 V 1084.9414 H 0 Z"
         transform="matrix(0.33365522,0,0,0.33365522,-298.0625,-252)"
         clip-rule="evenodd"
         id="path23" />
    </clipPath>
    <clipPath
       clipPathUnits="userSpaceOnUse"
       id="clipPath25">
      <path
         d="M 0,0 H 1366.6665 V 1084.9414 H 0 Z"
         transform="matrix(0.33365856,0,0,0.33365856,-0.5,-0.5)"
         clip-rule="evenodd"
         id="path25" />
    </clipPath>
    <clipPath
       clipPathUnits="userSpaceOnUse"
       id="clipPath26">
      <path
         d="M 0,0 H 1366.6665 V 1084.9414 H 0 Z"
         transform="matrix(0.33365522,0,0,0.33365522,-50.4375,-317)"
         clip-rule="evenodd"
         id="path26" />
    </clipPath>
  </defs>
  <sodipodi:namedview
     id="namedview1"
     pagecolor="#ffffff"
     bordercolor="#000000"
     borderopacity="0.25"
     inkscape:showpageshadow="2"
     inkscape:pageopacity="0.0"
     inkscape:pagecheckerboard="0"
     inkscape:deskcolor="#d1d1d1">
    <inkscape:page
       x="0"
       y="0"
       inkscape:label="1"
       id="page1"
       width="437.44"
       height="348.16"
       margin="0"
       bleed="0" />
  </sodipodi:namedview>
  <g
     id="g1"
     inkscape:groupmode="layer"
     inkscape:label="1">
    <path
       id="path1"
       d="M 0,0 H 456 V 362 H 0 Z"
       style="fill:#ffffff;fill-opacity:1;fill-rule:nonzero;stroke:none"
       transform="scale(0.95906422)"
       clip-path="url(#clipPath2)" />
    <path
       id="path3"
       d="M 102,50 V 339.89999"
       style="fill:none;stroke:#000000;stroke-width:1;stroke-linecap:butt;stroke-linejoin:miter;stroke-miterlimit:10;stroke-dasharray:none;stroke-opacity:1"
       transform="matrix(0.95906422,0,0,0.95906422,0.47953211,0.47953211)"
       clip-path="url(#clipPath4)" />
    <path
       id="path5"
       d="m 102,346.64999 -4.5,-9 4.5,2.25 4.5,-2.25 z"
       style="fill:#000000;fill-opacity:1;fill-rule:nonzero;stroke:#000000;stroke-width:1;stroke-linecap:butt;stroke-linejoin:miter;stroke-miterlimit:10;stroke-dasharray:none;stroke-opacity:1"
       transform="matrix(0.95906422,0,0,0.95906422,0.47953211,0.47953211)"
       clip-path="url(#clipPath6)" />
    <path
       id="path7"
       d="M 122,50 H 242 V 180 H 122 Z"
       style="fill:#ffffff;fill-opacity:1;fill-rule:nonzero;stroke:#000000;stroke-width:1;stroke-linecap:butt;stroke-linejoin:miter;stroke-miterlimit:10;stroke-dasharray:none;stroke-opacity:1"
       transform="scale(0.95906422)"
       clip-path="url(#clipPath8)" />
    <text
       id="text8"
       xml:space="preserve"
       transform="matrix(0.95907382,0,0,0.95907382,132.41213,117.00701)"
       clip-path="url(#clipPath9)"><tspan
         style="font-variant:normal;font-weight:normal;font-size:20px;font-family:Helvetica;writing-mode:lr-tb;fill:#000000;fill-opacity:1;fill-rule:nonzero;stroke:none"
         x="0 11.123047 22.246094 32.246094 43.369141 48.925781 60.048828 65.605469 76.728516"
         y="0"
         sodipodi:role="line"
         id="tspan8">pbkdf2 #1</tspan></text>
    <text
       id="text9"
       xml:space="preserve"
       transform="matrix(0.95907382,0,0,0.95907382,0.13486976,64.257946)"
       clip-path="url(#clipPath10)"><tspan
         style="font-style:oblique;font-variant:normal;font-weight:normal;font-size:20px;font-family:Helvetica;writing-mode:lr-tb;fill:#000000;fill-opacity:1;fill-rule:nonzero;stroke:none"
         x="0 11.484375 15.927734 32.587891"
         y="0"
         sodipodi:role="line"
         id="tspan9">Time</tspan></text>
    <path
       id="path11"
       d="M 102,50 H 452"
       style="fill:none;stroke:#000000;stroke-width:1;stroke-linecap:butt;stroke-linejoin:miter;stroke-miterlimit:10;stroke-dasharray:none;stroke-opacity:1"
       transform="matrix(0.95906422,0,0,0.95906422,0.47953211,0.47953211)"
       clip-path="url(#clipPath12)" />
    <text
       id="text12"
       xml:space="preserve"
       transform="matrix(0.95907382,0,0,0.95907382,58.923098,64.257946)"
       clip-path="url(#clipPath13)"><tspan
         style="font-style:oblique;font-variant:normal;font-weight:normal;font-size:20px;font-family:Helvetica;writing-mode:lr-tb;fill:#000000;fill-opacity:1;fill-rule:nonzero;stroke:none"
         x="0 11.123047"
         y="0"
         sodipodi:role="line"
         id="tspan12">0s</tspan></text>
    <text
       id="text13"
       xml:space="preserve"
       transform="matrix(0.95907382,0,0,0.95907382,117.66637,29.731288)"
       clip-path="url(#clipPath14)"><tspan
         style="font-style:oblique;font-variant:normal;font-weight:700;font-size:30px;font-family:Helvetica;writing-mode:lr-tb;fill:#000000;fill-opacity:1;fill-rule:nonzero;stroke:none"
         x="0 8.3349609"
         y="0"
         sodipodi:role="line"
         id="tspan13">If</tspan></text>
    <text
       id="text14"
       xml:space="preserve"
       transform="matrix(0.95907382,0,0,0.95907382,140.57362,29.731288)"
       clip-path="url(#clipPath15)"><tspan
         style="font-style:oblique;font-variant:normal;font-weight:normal;font-size:20px;font-family:Helvetica;writing-mode:lr-tb;fill:#000000;fill-opacity:1;fill-rule:nonzero;stroke:none"
         x="0 14.443359 25.566406 36.689453 47.8125 53.369141 67.8125 78.935547 85.595703 96.71875 102.27539 112.27539 116.71875 127.8418 138.96484 143.4082 154.53125 160.08789 165.64453 176.76758 183.42773 194.55078 205.67383 216.79688 227.91992 239.04297 244.59961 250.15625"
         y="0"
         sodipodi:role="line"
         id="tspan14">Node were single threaded...</tspan></text>
    <path
       id="path16"
       d="m 73.5,25.5 v -12 h 26 V 2 l 21,17.5 -21,17.5 V 25.5 Z"
       style="fill:#f8cecc;fill-opacity:1;fill-rule:nonzero;stroke:#b85450;stroke-width:1;stroke-linecap:butt;stroke-linejoin:miter;stroke-miterlimit:10;stroke-dasharray:none;stroke-opacity:1"
       transform="matrix(0.95906422,0,0,0.95906422,0.47953211,0.47953211)"
       clip-path="url(#clipPath17)" />
    <path
       id="path18"
       d="m 451.99799,181.5 -9.0001,-0.0122 0.004,-3 9.00009,0.0122 m -18.00418,2.97568 -9.00009,-0.0122 0.004,-3 9.00009,0.0122 m -18.00421,2.97567 -9.00006,-0.0122 0.004,-3 9.00006,0.0122 m -18.00418,2.97568 -9.00009,-0.0122 0.004,-3 9.0001,0.0122 m -18.00422,2.97566 -9.00006,-0.0122 0.004,-3 9.00006,0.0122 m -18.00418,2.97568 -9.00006,-0.0122 0.004,-3 9.00006,0.0122 m -18.00418,2.97568 -9.00009,-0.0122 0.004,-3 9.00009,0.0122 m -18.00418,2.97568 -9.00009,-0.0122 0.004,-3 9.0001,0.0122 m -18.00422,2.97567 -9.00009,-0.0122 0.004,-3 9.00009,0.0122 m -18.00418,2.97568 -9.00009,-0.0122 0.004,-3 9.00009,0.0122 m -18.00421,2.97568 -9.00006,-0.0122 0.004,-3 9.00006,0.0122 m -18.00418,2.97568 -9.0001,-0.0122 0.004,-3 9.00009,0.0122 m -18.00422,2.97566 -9.00009,-0.0122 0.004,-3 9.0001,0.0122 m -18.00423,2.97568 -9.00009,-0.0122 0.004,-3 9.00009,0.0122 m -18.00421,2.97567 -9.00008,-0.0122 0.004,-3 9.00008,0.0122 m -18.00423,2.97568 -9.00009,-0.0122 0.004,-3 9.00009,0.0122 m -18.00424,2.97568 -9.00007,-0.0122 0.004,-3 9.00006,0.0122 m -18.00421,2.97568 -9.00009,-0.0122 0.004,-3 9.00009,0.0122 m -18.00424,2.97567 -9.00006,-0.0122 0.004,-3 9.00006,0.0122 m -18.00421,2.97567 -9.00009,-0.0122 0.004,-3 9.00009,0.0122 m -18.004215,2.97567 -9.000061,-0.0122 0.0041,-3 9.000061,0.0122"
       style="fill:#000000;fill-opacity:1;fill-rule:nonzero;stroke:none"
       transform="matrix(0.95906422,0,0,0.95906422,0.47953211,0.47953211)"
       clip-path="url(#clipPath19)" />
    <text
       id="text19"
       xml:space="preserve"
       transform="matrix(0.95907382,0,0,0.95907382,47.414212,179.3468)"
       clip-path="url(#clipPath20)"><tspan
         style="font-style:oblique;font-variant:normal;font-weight:normal;font-size:20px;font-family:Helvetica;writing-mode:lr-tb;fill:#000000;fill-opacity:1;fill-rule:nonzero;stroke:none"
         x="0 11.123047"
         y="0"
         sodipodi:role="line"
         id="tspan19">1s</tspan></text>
    <path
       id="path21"
       d="M 282,180 H 402 V 310 H 282 Z"
       style="fill:#ffffff;fill-opacity:1;fill-rule:nonzero;stroke:#000000;stroke-width:1;stroke-linecap:butt;stroke-linejoin:miter;stroke-miterlimit:10;stroke-dasharray:none;stroke-opacity:1"
       transform="scale(0.95906422)"
       clip-path="url(#clipPath22)" />
    <text
       id="text22"
       xml:space="preserve"
       transform="matrix(0.95907382,0,0,0.95907382,285.86394,241.6866)"
       clip-path="url(#clipPath23)"><tspan
         style="font-variant:normal;font-weight:normal;font-size:20px;font-family:Helvetica;writing-mode:lr-tb;fill:#000000;fill-opacity:1;fill-rule:nonzero;stroke:none"
         x="0 11.123047 22.246094 32.246094 43.369141 48.925781 60.048828 65.605469 76.728516"
         y="0"
         sodipodi:role="line"
         id="tspan22">pbkdf2 #2</tspan></text>
    <path
       id="path24"
       d="m 447.49799,311.5 -9.0001,-0.0122 0.004,-3 9.00009,0.0122 m -18.00418,2.97568 -9.00009,-0.0122 0.004,-3 9.00009,0.0122 m -18.00421,2.97567 -9.00006,-0.0122 0.004,-3 9.00006,0.0122 m -18.00418,2.97568 -9.00009,-0.0122 0.004,-3 9.0001,0.0122 m -18.00422,2.97568 -9.00006,-0.0122 0.004,-3 9.00006,0.0122 m -18.00418,2.97568 -9.00006,-0.0122 0.004,-3 9.00006,0.0122 m -18.00418,2.97567 -9.00009,-0.0122 0.004,-3 9.00009,0.0122 m -18.00418,2.97568 -9.00009,-0.0122 0.004,-3 9.0001,0.0122 m -18.00422,2.97565 -9.00009,-0.0121 0.004,-3 9.00009,0.0121 m -18.00418,2.97568 -9.00009,-0.0122 0.004,-3 9.00009,0.0122 m -18.00421,2.97567 -9.00006,-0.0121 0.004,-3 9.00006,0.0121 m -18.00418,2.97568 -9.0001,-0.0121 0.004,-3 9.00009,0.0121 m -18.00422,2.97568 -9.00009,-0.0122 0.004,-3 9.0001,0.0122 m -18.00423,2.97568 -9.00009,-0.0122 0.004,-3 9.00009,0.0122 m -18.00421,2.97567 -9.00008,-0.0121 0.004,-3 9.00008,0.0121 m -18.00423,2.97568 -9.00009,-0.0122 0.004,-3 9.00009,0.0122 m -18.00424,2.97568 -9.00007,-0.0122 0.004,-3 9.00006,0.0122 m -18.00421,2.97568 -9.00009,-0.0122 0.004,-3 9.00009,0.0122 m -18.00424,2.97567 -9.00006,-0.0122 0.004,-3 9.00006,0.0122 m -18.00421,2.97568 -9.000094,-0.0122 0.0041,-3 9.000094,0.0122 m -18.004214,2.97568 -9.000061,-0.0122 0.0041,-3 9.000061,0.0122"
       style="fill:#000000;fill-opacity:1;fill-rule:nonzero;stroke:none"
       transform="matrix(0.95906422,0,0,0.95906422,0.47953211,0.47953211)"
       clip-path="url(#clipPath25)" />
    <text
       id="text25"
       xml:space="preserve"
       transform="matrix(0.95907382,0,0,0.95907382,48.373286,304.0264)"
       clip-path="url(#clipPath26)"><tspan
         style="font-style:oblique;font-variant:normal;font-weight:normal;font-size:20px;font-family:Helvetica;writing-mode:lr-tb;fill:#000000;fill-opacity:1;fill-rule:nonzero;stroke:none"
         x="0 11.123047"
         y="0"
         sodipodi:role="line"
         id="tspan25">2s</tspan></text>
  </g>
</svg>
