<?xml version="1.0" encoding="UTF-8" standalone="no"?>
<!-- Created with Inkscape (http://www.inkscape.org/) -->

<svg
   version="1.1"
   id="svg1"
   width="625.27997"
   height="208"
   viewBox="0 0 625.27997 208"
   sodipodi:docname="node-13.pdf"
   xmlns:inkscape="http://www.inkscape.org/namespaces/inkscape"
   xmlns:sodipodi="http://sodipodi.sourceforge.net/DTD/sodipodi-0.dtd"
   xmlns="http://www.w3.org/2000/svg"
   xmlns:svg="http://www.w3.org/2000/svg">
  <defs
     id="defs1">
    <clipPath
       clipPathUnits="userSpaceOnUse"
       id="clipPath2">
      <path
         d="M 0,0 H 1954.1665 V 647.39258 H 0 Z"
         transform="scale(0.33364608)"
         clip-rule="evenodd"
         id="path2" />
    </clipPath>
    <clipPath
       clipPathUnits="userSpaceOnUse"
       id="clipPath4">
      <path
         d="M 0,0 H 1954.1665 V 647.39258 H 0 Z"
         transform="scale(0.33364608)"
         clip-rule="evenodd"
         id="path4" />
    </clipPath>
    <clipPath
       clipPathUnits="userSpaceOnUse"
       id="clipPath6">
      <path
         d="M 0,0 H 1954.1665 V 647.39258 H 0 Z"
         transform="scale(0.33364608)"
         clip-rule="evenodd"
         id="path6" />
    </clipPath>
    <clipPath
       clipPathUnits="userSpaceOnUse"
       id="clipPath7">
      <path
         d="M 0,0 H 1954.1665 V 647.39258 H 0 Z"
         transform="matrix(0.33364274,0,0,0.33364274,-121.65625,-94.999999)"
         clip-rule="evenodd"
         id="path7" />
    </clipPath>
    <clipPath
       clipPathUnits="userSpaceOnUse"
       id="clipPath9">
      <path
         d="M 0,0 H 1954.1665 V 647.39258 H 0 Z"
         transform="scale(0.33364608)"
         clip-rule="evenodd"
         id="path9" />
    </clipPath>
    <clipPath
       clipPathUnits="userSpaceOnUse"
       id="clipPath10">
      <path
         d="M 0,0 H 1954.1665 V 647.39258 H 0 Z"
         transform="matrix(0.33364274,0,0,0.33364274,-170.03125,-94.999999)"
         clip-rule="evenodd"
         id="path10" />
    </clipPath>
    <clipPath
       clipPathUnits="userSpaceOnUse"
       id="clipPath12">
      <path
         d="M 0,0 H 1954.1665 V 647.39258 H 0 Z"
         transform="scale(0.33364608)"
         clip-rule="evenodd"
         id="path12" />
    </clipPath>
    <clipPath
       clipPathUnits="userSpaceOnUse"
       id="clipPath13">
      <path
         d="M 0,0 H 1954.1665 V 647.39258 H 0 Z"
         transform="matrix(0.33364274,0,0,0.33364274,-122.65625,-177.99999)"
         clip-rule="evenodd"
         id="path13" />
    </clipPath>
    <clipPath
       clipPathUnits="userSpaceOnUse"
       id="clipPath15">
      <path
         d="M 0,0 H 1954.1665 V 647.39258 H 0 Z"
         transform="scale(0.33364608)"
         clip-rule="evenodd"
         id="path15" />
    </clipPath>
    <clipPath
       clipPathUnits="userSpaceOnUse"
       id="clipPath16">
      <path
         d="M 0,0 H 1954.1665 V 647.39258 H 0 Z"
         transform="matrix(0.33364274,0,0,0.33364274,-176,-166)"
         clip-rule="evenodd"
         id="path16" />
    </clipPath>
    <clipPath
       clipPathUnits="userSpaceOnUse"
       id="clipPath17">
      <path
         d="M 0,0 H 1954.1665 V 647.39258 H 0 Z"
         transform="matrix(0.33364274,0,0,0.33364274,-204.92188,-190)"
         clip-rule="evenodd"
         id="path17" />
    </clipPath>
    <clipPath
       clipPathUnits="userSpaceOnUse"
       id="clipPath19">
      <path
         d="M 0,0 H 1954.1665 V 647.39258 H 0 Z"
         transform="scale(0.33364608)"
         clip-rule="evenodd"
         id="path19" />
    </clipPath>
    <clipPath
       clipPathUnits="userSpaceOnUse"
       id="clipPath20">
      <path
         d="M 0,0 H 1954.1665 V 647.39258 H 0 Z"
         transform="matrix(0.33364274,0,0,0.33364274,-179.90625,-34)"
         clip-rule="evenodd"
         id="path20" />
    </clipPath>
    <clipPath
       clipPathUnits="userSpaceOnUse"
       id="clipPath22">
      <path
         d="M 0,0 H 1954.1665 V 647.39258 H 0 Z"
         transform="scale(0.33364608)"
         clip-rule="evenodd"
         id="path22" />
    </clipPath>
    <clipPath
       clipPathUnits="userSpaceOnUse"
       id="clipPath24">
      <path
         d="M 0,0 H 1954.1665 V 647.39258 H 0 Z"
         transform="scale(0.33364608)"
         clip-rule="evenodd"
         id="path24" />
    </clipPath>
    <clipPath
       clipPathUnits="userSpaceOnUse"
       id="clipPath25">
      <path
         d="M 0,0 H 1954.1665 V 647.39258 H 0 Z"
         transform="matrix(0.33364274,0,0,0.33364274,-411.65625,-94.999999)"
         clip-rule="evenodd"
         id="path25" />
    </clipPath>
    <clipPath
       clipPathUnits="userSpaceOnUse"
       id="clipPath27">
      <path
         d="M 0,0 H 1954.1665 V 647.39258 H 0 Z"
         transform="scale(0.33364608)"
         clip-rule="evenodd"
         id="path27" />
    </clipPath>
    <clipPath
       clipPathUnits="userSpaceOnUse"
       id="clipPath28">
      <path
         d="M 0,0 H 1954.1665 V 647.39258 H 0 Z"
         transform="matrix(0.33364274,0,0,0.33364274,-481.14063,-94.999999)"
         clip-rule="evenodd"
         id="path28" />
    </clipPath>
    <clipPath
       clipPathUnits="userSpaceOnUse"
       id="clipPath30">
      <path
         d="M 0,0 H 1954.1665 V 647.39258 H 0 Z"
         transform="scale(0.33364608)"
         clip-rule="evenodd"
         id="path30" />
    </clipPath>
    <clipPath
       clipPathUnits="userSpaceOnUse"
       id="clipPath31">
      <path
         d="M 0,0 H 1954.1665 V 647.39258 H 0 Z"
         transform="matrix(0.33364274,0,0,0.33364274,-469.90625,-34)"
         clip-rule="evenodd"
         id="path31" />
    </clipPath>
    <clipPath
       clipPathUnits="userSpaceOnUse"
       id="clipPath33">
      <path
         d="M 0,0 H 1954.1665 V 647.39258 H 0 Z"
         transform="scale(0.33364608)"
         clip-rule="evenodd"
         id="path33" />
    </clipPath>
    <clipPath
       clipPathUnits="userSpaceOnUse"
       id="clipPath34">
      <path
         d="M 0,0 H 1954.1665 V 647.39258 H 0 Z"
         transform="matrix(0.33364274,0,0,0.33364274,-10.65625,-112.99999)"
         clip-rule="evenodd"
         id="path34" />
    </clipPath>
    <clipPath
       clipPathUnits="userSpaceOnUse"
       id="clipPath35">
      <path
         d="M 0,0 H 1954.1665 V 647.39258 H 0 Z"
         transform="matrix(0.33364274,0,0,0.33364274,-0.09375,-137)"
         clip-rule="evenodd"
         id="path35" />
    </clipPath>
    <clipPath
       clipPathUnits="userSpaceOnUse"
       id="clipPath36">
      <path
         d="M 0,0 H 1954.1665 V 647.39258 H 0 Z"
         transform="matrix(0.33364274,0,0,0.33364274,-2.328125,-161)"
         clip-rule="evenodd"
         id="path36" />
    </clipPath>
  </defs>
  <sodipodi:namedview
     id="namedview1"
     pagecolor="#ffffff"
     bordercolor="#000000"
     borderopacity="0.25"
     inkscape:showpageshadow="2"
     inkscape:pageopacity="0.0"
     inkscape:pagecheckerboard="0"
     inkscape:deskcolor="#d1d1d1">
    <inkscape:page
       x="0"
       y="0"
       inkscape:label="1"
       id="page1"
       width="625.27997"
       height="208"
       margin="0"
       bleed="0" />
  </sodipodi:namedview>
  <g
     id="g1"
     inkscape:groupmode="layer"
     inkscape:label="1">
    <path
       id="path1"
       d="M 0,0 H 652 V 216 H 0 Z"
       style="fill:#ffffff;fill-opacity:1;fill-rule:nonzero;stroke:none"
       transform="scale(0.95910009)"
       clip-path="url(#clipPath2)" />
    <path
       id="path3"
       d="m 92,42.5 h 267 v 170 H 92 Z"
       style="fill:#d5e8d4;fill-opacity:1;fill-rule:nonzero;stroke:#82b366;stroke-width:1;stroke-linecap:butt;stroke-linejoin:miter;stroke-miterlimit:10;stroke-dasharray:none;stroke-opacity:1"
       transform="scale(0.95910009)"
       clip-path="url(#clipPath4)" />
    <path
       id="path5"
       d="m 105,62.5 h 50 v 50 h -50 z"
       style="fill:#ffffff;fill-opacity:1;fill-rule:nonzero;stroke:#000000;stroke-width:1;stroke-linecap:butt;stroke-linejoin:miter;stroke-miterlimit:10;stroke-dasharray:none;stroke-opacity:1"
       transform="scale(0.95910009)"
       clip-path="url(#clipPath6)" />
    <text
       id="text6"
       xml:space="preserve"
       transform="matrix(0.95910969,0,0,0.95910969,116.68169,91.11542)"
       clip-path="url(#clipPath7)"><tspan
         style="font-variant:normal;font-weight:normal;font-size:20px;font-family:Helvetica;writing-mode:lr-tb;fill:#000000;fill-opacity:1;fill-rule:nonzero;stroke:none"
         x="0 11.123047"
         y="0"
         sodipodi:role="line"
         id="tspan6">1.</tspan></text>
    <path
       id="path8"
       d="m 154,62.5 h 191 v 50 H 154 Z"
       style="fill:#ffffff;fill-opacity:1;fill-rule:nonzero;stroke:#000000;stroke-width:1;stroke-linecap:butt;stroke-linejoin:miter;stroke-miterlimit:10;stroke-dasharray:none;stroke-opacity:1"
       transform="scale(0.95910009)"
       clip-path="url(#clipPath9)" />
    <g
       id="g9" />
    <text
       id="text9"
       xml:space="preserve"
       transform="matrix(0.95910969,0,0,0.95910969,163.07862,91.11542)"
       clip-path="url(#clipPath10)"><tspan
         style="font-variant:normal;font-weight:normal;font-size:20px;font-family:Helvetica;writing-mode:lr-tb;fill:#000000;fill-opacity:1;fill-rule:nonzero;stroke:none"
         x="0 14.443359 25.566406 36.689453 47.8125 53.369141 63.369141 67.8125 78.935547 84.492188 90.048828 96.708984 107.83203 124.49219 130.04883 144.49219"
         y="0"
         sodipodi:role="line"
         id="tspan9">Read ï¬le from HD</tspan></text>
    <path
       id="path11"
       d="m 105.5,146.5 h 50 v 50 h -50 z"
       style="fill:#ffffff;fill-opacity:1;fill-rule:nonzero;stroke:#000000;stroke-width:1;stroke-linecap:butt;stroke-linejoin:miter;stroke-miterlimit:10;stroke-dasharray:none;stroke-opacity:1"
       transform="scale(0.95910009)"
       clip-path="url(#clipPath12)" />
    <text
       id="text12"
       xml:space="preserve"
       transform="matrix(0.95910969,0,0,0.95910969,117.6408,170.72152)"
       clip-path="url(#clipPath13)"><tspan
         style="font-variant:normal;font-weight:normal;font-size:20px;font-family:Helvetica;writing-mode:lr-tb;fill:#000000;fill-opacity:1;fill-rule:nonzero;stroke:none"
         x="0 11.123047"
         y="0"
         sodipodi:role="line"
         id="tspan12">2.</tspan></text>
    <path
       id="path14"
       d="m 154.5,146.5 h 191 v 50 h -191 z"
       style="fill:#ffffff;fill-opacity:1;fill-rule:nonzero;stroke:#000000;stroke-width:1;stroke-linecap:butt;stroke-linejoin:miter;stroke-miterlimit:10;stroke-dasharray:none;stroke-opacity:1"
       transform="scale(0.95910009)"
       clip-path="url(#clipPath15)" />
    <text
       id="text15"
       xml:space="preserve"
       transform="matrix(0.95910969,0,0,0.95910969,168.80331,159.21221)"
       clip-path="url(#clipPath16)"><tspan
         style="font-variant:normal;font-weight:normal;font-size:20px;font-family:Helvetica;writing-mode:lr-tb;fill:#000000;fill-opacity:1;fill-rule:nonzero;stroke:none"
         x="0 14.443359 25.566406 36.689453 47.8125 53.369141 58.925781 70.048828 81.171875 97.832031 108.95508 120.07812 126.73828 132.29492 143.41797"
         y="0"
         sodipodi:role="line"
         id="tspan15">Count number of</tspan></text>
    <text
       id="text16"
       xml:space="preserve"
       transform="matrix(0.95910969,0,0,0.95910969,196.54256,182.23084)"
       clip-path="url(#clipPath17)"><tspan
         style="font-variant:normal;font-weight:normal;font-size:20px;font-family:Helvetica;writing-mode:lr-tb;fill:#000000;fill-opacity:1;fill-rule:nonzero;stroke:none"
         x="0 4.4433594 15.566406 21.123047 26.679688 37.802734 44.462891 54.462891 60.019531 64.462891 75.585938 81.142578 85.585938"
         y="0"
         sodipodi:role="line"
         id="tspan16">letters in it</tspan></text>
    <path
       id="path18"
       d="m 92,1.5 h 267 v 51 H 92 Z"
       style="fill:#d5e8d4;fill-opacity:1;fill-rule:nonzero;stroke:#82b366;stroke-width:1;stroke-linecap:butt;stroke-linejoin:miter;stroke-miterlimit:10;stroke-dasharray:none;stroke-opacity:1"
       transform="scale(0.95910009)"
       clip-path="url(#clipPath19)" />
    <text
       id="text19"
       xml:space="preserve"
       transform="matrix(0.95910969,0,0,0.95910969,172.54983,32.609729)"
       clip-path="url(#clipPath20)"><tspan
         style="font-variant:normal;font-weight:normal;font-size:20px;font-family:Helvetica;writing-mode:lr-tb;fill:#000000;fill-opacity:1;fill-rule:nonzero;stroke:none"
         x="0 12.216797 23.339844 30 41.123047 52.246094 63.369141 68.925781 80.048828"
         y="0"
         sodipodi:role="line"
         id="tspan19">Thread #1</tspan></text>
    <path
       id="path21"
       d="m 382,42.5 h 267 v 170 H 382 Z"
       style="fill:#d5e8d4;fill-opacity:1;fill-rule:nonzero;stroke:#82b366;stroke-width:1;stroke-linecap:butt;stroke-linejoin:miter;stroke-miterlimit:10;stroke-dasharray:none;stroke-opacity:1"
       transform="scale(0.95910009)"
       clip-path="url(#clipPath22)" />
    <path
       id="path23"
       d="m 395,62.5 h 50 v 50 h -50 z"
       style="fill:#ffffff;fill-opacity:1;fill-rule:nonzero;stroke:#000000;stroke-width:1;stroke-linecap:butt;stroke-linejoin:miter;stroke-miterlimit:10;stroke-dasharray:none;stroke-opacity:1"
       transform="scale(0.95910009)"
       clip-path="url(#clipPath24)" />
    <text
       id="text24"
       xml:space="preserve"
       transform="matrix(0.95910969,0,0,0.95910969,394.8235,91.11542)"
       clip-path="url(#clipPath25)"><tspan
         style="font-variant:normal;font-weight:normal;font-size:20px;font-family:Helvetica;writing-mode:lr-tb;fill:#000000;fill-opacity:1;fill-rule:nonzero;stroke:none"
         x="0 11.123047"
         y="0"
         sodipodi:role="line"
         id="tspan24">1.</tspan></text>
    <path
       id="path26"
       d="m 444,62.5 h 191 v 50 H 444 Z"
       style="fill:#ffffff;fill-opacity:1;fill-rule:nonzero;stroke:#000000;stroke-width:1;stroke-linecap:butt;stroke-linejoin:miter;stroke-miterlimit:10;stroke-dasharray:none;stroke-opacity:1"
       transform="scale(0.95910009)"
       clip-path="url(#clipPath27)" />
    <text
       id="text27"
       xml:space="preserve"
       transform="matrix(0.95910969,0,0,0.95910969,461.46664,91.11542)"
       clip-path="url(#clipPath28)"><tspan
         style="font-variant:normal;font-weight:normal;font-size:20px;font-family:Helvetica;writing-mode:lr-tb;fill:#000000;fill-opacity:1;fill-rule:nonzero;stroke:none"
         x="0 16.660156 27.783203 32.226562 37.783203 42.226562 53.349609 57.792969 67.792969 73.349609 84.472656 90.029297 100.0293 105.58594"
         y="0"
         sodipodi:role="line"
         id="tspan27">Multiply 3 x 3</tspan></text>
    <path
       id="path29"
       d="m 382,1.5 h 267 v 51 H 382 Z"
       style="fill:#d5e8d4;fill-opacity:1;fill-rule:nonzero;stroke:#82b366;stroke-width:1;stroke-linecap:butt;stroke-linejoin:miter;stroke-miterlimit:10;stroke-dasharray:none;stroke-opacity:1"
       transform="scale(0.95910009)"
       clip-path="url(#clipPath30)" />
    <text
       id="text30"
       xml:space="preserve"
       transform="matrix(0.95910969,0,0,0.95910969,450.69164,32.609729)"
       clip-path="url(#clipPath31)"><tspan
         style="font-variant:normal;font-weight:normal;font-size:20px;font-family:Helvetica;writing-mode:lr-tb;fill:#000000;fill-opacity:1;fill-rule:nonzero;stroke:none"
         x="0 12.216797 23.339844 30 41.123047 52.246094 63.369141 68.925781 80.048828"
         y="0"
         sodipodi:role="line"
         id="tspan30">Thread #2</tspan></text>
    <path
       id="path32"
       d="M 100,112 H 84.5 c -6.666664,0 -10,3 -10,9 v 4.5 c 0,3 -3.333336,4.5 -10,4.5 h -7.75 c -5.166668,0 -4.416668,0 2.25,0 h 7.75 c 5.166664,0 7.75,3 7.75,9 v 4.5 c 0,3 3.333336,4.5 10,4.5 H 100"
       style="fill:none;stroke:#000000;stroke-width:1;stroke-linecap:butt;stroke-linejoin:miter;stroke-miterlimit:10;stroke-dasharray:none;stroke-opacity:1"
       transform="scale(0.95910009)"
       clip-path="url(#clipPath33)" />
    <text
       id="text33"
       xml:space="preserve"
       transform="matrix(0.95910969,0,0,0.95910969,10.220513,108.37939)"
       clip-path="url(#clipPath34)"><tspan
         style="font-style:oblique;font-variant:normal;font-weight:normal;font-size:20px;font-family:Helvetica;writing-mode:lr-tb;fill:#000000;fill-opacity:1;fill-rule:nonzero;stroke:none"
         x="0 5.5566406 11.113281"
         y="0"
         sodipodi:role="line"
         id="tspan33">I/O</tspan></text>
    <text
       id="text34"
       xml:space="preserve"
       transform="matrix(0.95910969,0,0,0.95910969,0.08991653,131.39803)"
       clip-path="url(#clipPath35)"><tspan
         style="font-style:oblique;font-variant:normal;font-weight:normal;font-size:20px;font-family:Helvetica;writing-mode:lr-tb;fill:#000000;fill-opacity:1;fill-rule:nonzero;stroke:none"
         x="0 5.5566406 16.679688 26.679688 37.802734"
         y="0"
         sodipodi:role="line"
         id="tspan34">takes</tspan></text>
    <text
       id="text35"
       xml:space="preserve"
       transform="matrix(0.95910969,0,0,0.95910969,2.2329272,154.41666)"
       clip-path="url(#clipPath36)"><tspan
         style="font-style:oblique;font-variant:normal;font-weight:normal;font-size:20px;font-family:Helvetica;writing-mode:lr-tb;fill:#000000;fill-opacity:1;fill-rule:nonzero;stroke:none"
         x="0 5.5566406 10 26.660156 37.783203"
         y="0"
         sodipodi:role="line"
         id="tspan35">time!</tspan></text>
  </g>
</svg>
