<?xml version="1.0" encoding="UTF-8" standalone="no"?>
<!-- Created with Inkscape (http://www.inkscape.org/) -->

<svg
   version="1.1"
   id="svg1"
   width="686.71997"
   height="309.44"
   viewBox="0 0 686.71997 309.44"
   sodipodi:docname="node-24.pdf"
   xmlns:inkscape="http://www.inkscape.org/namespaces/inkscape"
   xmlns:sodipodi="http://sodipodi.sourceforge.net/DTD/sodipodi-0.dtd"
   xmlns="http://www.w3.org/2000/svg"
   xmlns:svg="http://www.w3.org/2000/svg">
  <defs
     id="defs1">
    <clipPath
       clipPathUnits="userSpaceOnUse"
       id="clipPath2">
      <path
         d="M 0,0 H 2145.8333 V 965.02557 H 0 Z"
         transform="scale(0.33366992)"
         clip-rule="evenodd"
         id="path2" />
    </clipPath>
    <clipPath
       clipPathUnits="userSpaceOnUse"
       id="clipPath4">
      <path
         d="M 0,0 H 2145.8333 V 962.02856 H 0 Z"
         transform="matrix(0.33366992,0,0,0.33366992,-0.49999999,-0.49999999)"
         clip-rule="evenodd"
         id="path4" />
    </clipPath>
    <clipPath
       clipPathUnits="userSpaceOnUse"
       id="clipPath6">
      <path
         d="M 0,0 H 2145.8333 V 962.02856 H 0 Z"
         transform="matrix(0.33366992,0,0,0.33366992,-0.49999999,-0.49999999)"
         clip-rule="evenodd"
         id="path6" />
    </clipPath>
    <clipPath
       clipPathUnits="userSpaceOnUse"
       id="clipPath8">
      <path
         d="M 0,0 H 2145.8333 V 962.02856 H 0 Z"
         transform="scale(0.33366992)"
         clip-rule="evenodd"
         id="path8" />
    </clipPath>
    <clipPath
       clipPathUnits="userSpaceOnUse"
       id="clipPath9">
      <path
         d="M 0,0 H 2145.8333 V 962.02856 H 0 Z"
         transform="matrix(0.33366658,0,0,0.33366658,-128.0625,-80.999999)"
         clip-rule="evenodd"
         id="path9" />
    </clipPath>
    <clipPath
       clipPathUnits="userSpaceOnUse"
       id="clipPath10">
      <path
         d="M 0,0 H 2145.8333 V 962.02856 H 0 Z"
         transform="matrix(0.33366658,0,0,0.33366658,-0.140625,-26)"
         clip-rule="evenodd"
         id="path10" />
    </clipPath>
    <clipPath
       clipPathUnits="userSpaceOnUse"
       id="clipPath12">
      <path
         d="M 0,0 H 2145.8333 V 962.02856 H 0 Z"
         transform="matrix(0.33366992,0,0,0.33366992,-0.49999999,-0.49999999)"
         clip-rule="evenodd"
         id="path12" />
    </clipPath>
    <clipPath
       clipPathUnits="userSpaceOnUse"
       id="clipPath13">
      <path
         d="M 0,0 H 2145.8333 V 962.02856 H 0 Z"
         transform="matrix(0.33366658,0,0,0.33366658,-61.437499,-26)"
         clip-rule="evenodd"
         id="path13" />
    </clipPath>
    <clipPath
       clipPathUnits="userSpaceOnUse"
       id="clipPath15">
      <path
         d="M 0,0 H 2145.8333 V 962.02856 H 0 Z"
         transform="matrix(0.33366992,0,0,0.33366992,-0.49999999,-0.49999999)"
         clip-rule="evenodd"
         id="path15" />
    </clipPath>
    <clipPath
       clipPathUnits="userSpaceOnUse"
       id="clipPath16">
      <path
         d="M 0,0 H 2145.8333 V 962.02856 H 0 Z"
         transform="matrix(0.33366658,0,0,0.33366658,-49.4375,-146)"
         clip-rule="evenodd"
         id="path16" />
    </clipPath>
    <clipPath
       clipPathUnits="userSpaceOnUse"
       id="clipPath18">
      <path
         d="M 0,0 H 2145.8333 V 962.02856 H 0 Z"
         transform="matrix(0.33366992,0,0,0.33366992,-0.49999999,-0.49999999)"
         clip-rule="evenodd"
         id="path18" />
    </clipPath>
    <clipPath
       clipPathUnits="userSpaceOnUse"
       id="clipPath19">
      <path
         d="M 0,0 H 2145.8333 V 962.02856 H 0 Z"
         transform="matrix(0.33366658,0,0,0.33366658,-50.437499,-275.99999)"
         clip-rule="evenodd"
         id="path19" />
    </clipPath>
    <clipPath
       clipPathUnits="userSpaceOnUse"
       id="clipPath21">
      <path
         d="M 0,0 H 2145.8333 V 962.02856 H 0 Z"
         transform="scale(0.33366992)"
         clip-rule="evenodd"
         id="path21" />
    </clipPath>
    <clipPath
       clipPathUnits="userSpaceOnUse"
       id="clipPath22">
      <path
         d="M 0,0 H 2145.8333 V 962.02856 H 0 Z"
         transform="matrix(0.33366658,0,0,0.33366658,-238.0625,-80.999999)"
         clip-rule="evenodd"
         id="path22" />
    </clipPath>
    <clipPath
       clipPathUnits="userSpaceOnUse"
       id="clipPath24">
      <path
         d="M 0,0 H 2145.8333 V 962.02856 H 0 Z"
         transform="scale(0.33366992)"
         clip-rule="evenodd"
         id="path24" />
    </clipPath>
    <clipPath
       clipPathUnits="userSpaceOnUse"
       id="clipPath25">
      <path
         d="M 0,0 H 2145.8333 V 962.02856 H 0 Z"
         transform="matrix(0.33366658,0,0,0.33366658,-348.0625,-80.999999)"
         clip-rule="evenodd"
         id="path25" />
    </clipPath>
    <clipPath
       clipPathUnits="userSpaceOnUse"
       id="clipPath27">
      <path
         d="M 0,0 H 2145.8333 V 962.02856 H 0 Z"
         transform="scale(0.33366992)"
         clip-rule="evenodd"
         id="path27" />
    </clipPath>
    <clipPath
       clipPathUnits="userSpaceOnUse"
       id="clipPath28">
      <path
         d="M 0,0 H 2145.8333 V 962.02856 H 0 Z"
         transform="matrix(0.33366658,0,0,0.33366658,-458.0625,-80.999999)"
         clip-rule="evenodd"
         id="path28" />
    </clipPath>
    <clipPath
       clipPathUnits="userSpaceOnUse"
       id="clipPath30">
      <path
         d="M 0,0 H 2145.8333 V 962.02856 H 0 Z"
         transform="scale(0.33366992)"
         clip-rule="evenodd"
         id="path30" />
    </clipPath>
    <clipPath
       clipPathUnits="userSpaceOnUse"
       id="clipPath31">
      <path
         d="M 0,0 H 2145.8333 V 962.02856 H 0 Z"
         transform="matrix(0.33366658,0,0,0.33366658,-568.0625,-211)"
         clip-rule="evenodd"
         id="path31" />
    </clipPath>
  </defs>
  <sodipodi:namedview
     id="namedview1"
     pagecolor="#ffffff"
     bordercolor="#000000"
     borderopacity="0.25"
     inkscape:showpageshadow="2"
     inkscape:pageopacity="0.0"
     inkscape:pagecheckerboard="0"
     inkscape:deskcolor="#d1d1d1">
    <inkscape:page
       x="0"
       y="0"
       inkscape:label="1"
       id="page1"
       width="686.71997"
       height="309.44"
       margin="0"
       bleed="0" />
  </sodipodi:namedview>
  <g
     id="g1"
     inkscape:groupmode="layer"
     inkscape:label="1">
    <path
       id="path1"
       d="M 0,0 H 716 V 322 H 0 Z"
       style="fill:#ffffff;fill-opacity:1;fill-rule:nonzero;stroke:none"
       transform="scale(0.95903158)"
       clip-path="url(#clipPath2)" />
    <path
       id="path3"
       d="M 102,9 V 298.89999"
       style="fill:none;stroke:#000000;stroke-width:1;stroke-linecap:butt;stroke-linejoin:miter;stroke-miterlimit:10;stroke-dasharray:none;stroke-opacity:1"
       transform="matrix(0.95903158,0,0,0.95903158,0.47951578,0.47951578)"
       clip-path="url(#clipPath4)" />
    <path
       id="path5"
       d="m 102,305.64999 -4.5,-9 4.5,2.25 4.5,-2.25 z"
       style="fill:#000000;fill-opacity:1;fill-rule:nonzero;stroke:#000000;stroke-width:1;stroke-linecap:butt;stroke-linejoin:miter;stroke-miterlimit:10;stroke-dasharray:none;stroke-opacity:1"
       transform="matrix(0.95903158,0,0,0.95903158,0.47951578,0.47951578)"
       clip-path="url(#clipPath6)" />
    <path
       id="path7"
       d="M 122,9 H 222 V 139 H 122 Z"
       style="fill:#ffffff;fill-opacity:1;fill-rule:nonzero;stroke:#000000;stroke-width:1;stroke-linecap:butt;stroke-linejoin:miter;stroke-miterlimit:10;stroke-dasharray:none;stroke-opacity:1"
       transform="scale(0.95903158)"
       clip-path="url(#clipPath8)" />
    <text
       id="text8"
       xml:space="preserve"
       transform="matrix(0.95904118,0,0,0.95904118,122.81721,77.682335)"
       clip-path="url(#clipPath9)"><tspan
         style="font-variant:normal;font-weight:normal;font-size:20px;font-family:Helvetica;writing-mode:lr-tb;fill:#000000;fill-opacity:1;fill-rule:nonzero;stroke:none"
         x="0 11.123047 22.246094 32.246094 43.369141 48.925781 60.048828 65.605469 76.728516"
         y="0"
         sodipodi:role="line"
         id="tspan8">pbkdf2 #1</tspan></text>
    <text
       id="text9"
       xml:space="preserve"
       transform="matrix(0.95904118,0,0,0.95904118,0.13486517,24.935071)"
       clip-path="url(#clipPath10)"><tspan
         style="font-style:oblique;font-variant:normal;font-weight:normal;font-size:20px;font-family:Helvetica;writing-mode:lr-tb;fill:#000000;fill-opacity:1;fill-rule:nonzero;stroke:none"
         x="0 11.484375 15.927734 32.587891"
         y="0"
         sodipodi:role="line"
         id="tspan9">Time</tspan></text>
    <path
       id="path11"
       d="M 102,9 H 712.01001"
       style="fill:none;stroke:#000000;stroke-width:1;stroke-linecap:butt;stroke-linejoin:miter;stroke-miterlimit:10;stroke-dasharray:none;stroke-opacity:1"
       transform="matrix(0.95903158,0,0,0.95903158,0.47951578,0.47951578)"
       clip-path="url(#clipPath12)" />
    <text
       id="text12"
       xml:space="preserve"
       transform="matrix(0.95904118,0,0,0.95904118,58.921092,24.935071)"
       clip-path="url(#clipPath13)"><tspan
         style="font-style:oblique;font-variant:normal;font-weight:normal;font-size:20px;font-family:Helvetica;writing-mode:lr-tb;fill:#000000;fill-opacity:1;fill-rule:nonzero;stroke:none"
         x="0 11.123047"
         y="0"
         sodipodi:role="line"
         id="tspan12">0s</tspan></text>
    <path
       id="path14"
       d="m 712.00879,140.5 -9.00006,-0.007 0.002,-3 9.00006,0.007 m -18.00262,2.98572 -9.00007,-0.007 0.002,-3 9.00006,0.007 m -18.00263,2.98572 -9.00006,-0.007 0.002,-3 9.00006,0.007 m -18.00262,2.9857 -9.00006,-0.007 0.002,-3 9.00006,0.007 m -18.00256,2.98572 -9.00012,-0.007 0.002,-3 9.00012,0.007 m -18.00263,2.98571 -9.00012,-0.007 0.002,-3 9.00013,0.007 m -18.00263,2.98572 -9.00006,-0.007 0.002,-3 9.00006,0.007 m -18.00262,2.9857 -9.00006,-0.007 0.002,-3 9.00006,0.007 m -18.00262,2.98572 -9.00007,-0.007 0.002,-3 9.00006,0.007 m -18.00263,2.98572 -9.00006,-0.007 0.002,-3 9.00006,0.007 m -18.00256,2.98572 -9.00012,-0.007 0.002,-3 9.00012,0.007 m -18.00262,2.98571 -9.00009,-0.007 0.002,-3 9.00015,0.007 m -18.0026,2.98571 -9.00012,-0.007 0.002,-3 9.00012,0.007 m -18.00256,2.98571 -9.00009,-0.007 0.002,-3 9.00009,0.007 m -18.00256,2.98572 -9.00006,-0.007 0.002,-3 9.00006,0.007 m -18.00253,2.98572 -9.0001,-0.007 0.002,-3 9.0001,0.007 m -18.00257,2.9857 -9.00009,-0.007 0.002,-3 9.00009,0.007 m -18.00256,2.98572 -9.00009,-0.007 0.002,-3 9.00009,0.007 m -18.00256,2.98572 -9.0001,-0.007 0.002,-3 9.00009,0.007 m -18.00257,2.98572 -9.00009,-0.007 0.002,-3 9.00009,0.007 m -18.00253,2.98571 -9.00006,-0.007 0.002,-3 9.00006,0.007 m -18.00253,2.98571 -9.00009,-0.007 0.002,-3 9.00009,0.007 m -18.00257,2.98571 -9.00009,-0.007 0.002,-3 9.0001,0.007 m -18.00257,2.98572 -9.00009,-0.007 0.002,-3 9.00009,0.007 m -18.00256,2.98572 -9.00009,-0.007 0.002,-3 9.00009,0.007 m -18.00256,2.9857 -9.0001,-0.007 0.002,-3 9.0001,0.007 m -18.00254,2.98572 -9.00009,-0.007 0.002,-3 9.00009,0.007 m -18.00256,2.98572 -9.00009,-0.007 0.002,-3 9.00009,0.007 m -18.00253,2.98572 -9.00009,-0.007 0.002,-3 9.00009,0.007 m -18.00254,2.98571 -9.00012,-0.007 0.002,-3 9.00013,0.007 m -18.00257,2.98571 -9.00012,-0.007 0.002,-3 9.00012,0.007 m -18.00256,2.98571 -9.00012,-0.007 0.002,-3 9.00012,0.007 m -18.00257,2.98572 -9.00006,-0.007 0.002,-3 9.00007,0.007 m -18.00257,2.98572 -9.00006,-0.007 0.002,-3 9.00006,0.007 m -18.00256,2.9857 -9.000062,-0.007 0.0024,-3 9.000061,0.007 M 82.002716,140 h -0.0039 l 0.0024,-3 h 0.0039"
       style="fill:#000000;fill-opacity:1;fill-rule:nonzero;stroke:none"
       transform="matrix(0.95903158,0,0,0.95903158,0.47951578,0.47951578)"
       clip-path="url(#clipPath15)" />
    <text
       id="text15"
       xml:space="preserve"
       transform="matrix(0.95904118,0,0,0.95904118,47.412598,140.02001)"
       clip-path="url(#clipPath16)"><tspan
         style="font-style:oblique;font-variant:normal;font-weight:normal;font-size:20px;font-family:Helvetica;writing-mode:lr-tb;fill:#000000;fill-opacity:1;fill-rule:nonzero;stroke:none"
         x="0 11.123047"
         y="0"
         sodipodi:role="line"
         id="tspan15">2s</tspan></text>
    <path
       id="path17"
       d="m 712.00885,270.5 -9.00006,-0.007 0.002,-3 9.00006,0.007 m -18.0025,2.98581 -9.00006,-0.007 0.002,-3 9.00006,0.007 m -18.00251,2.98581 -9.00006,-0.007 0.002,-3 9.00006,0.007 m -18.0025,2.98584 -9.00006,-0.007 0.002,-3 9.00006,0.007 m -18.0025,2.98581 -9.00006,-0.007 0.002,-3 9.00006,0.007 m -18.00244,2.98581 -9.00013,-0.007 0.002,-3 9.00012,0.007 m -18.0025,2.98581 -9.00012,-0.007 0.002,-3 9.00012,0.007 m -18.0025,2.98581 -9.00012,-0.007 0.002,-3 9.00012,0.007 m -18.0025,2.98584 -9.00006,-0.007 0.002,-3 9.00007,0.007 m -18.00251,2.9858 -9.00006,-0.007 0.002,-3 9.00006,0.007 m -18.0025,2.98581 -9.00006,-0.007 0.002,-3 9.00006,0.007 m -18.0025,2.98581 -9.00009,-0.007 0.002,-3 9.00003,0.007 m -18.00251,2.98584 -9.00009,-0.007 0.002,-3 9.00009,0.007 m -18.00253,2.98581 -9.00012,-0.007 0.002,-3 9.00012,0.007 m -18.00256,2.98581 -9.00009,-0.007 0.002,-3 9.00009,0.007 m -18.00256,2.98581 -9.0001,-0.007 0.002,-3 9.0001,0.007 m -18.00257,2.98581 -9.00009,-0.007 0.002,-3 9.00009,0.007 m -18.00256,2.98584 -9.00009,-0.007 0.002,-3 9.00009,0.007 m -18.00253,2.98581 -9.0001,-0.007 0.002,-3 9.00009,0.007 m -18.00257,2.98581 -9.00009,-0.007 0.002,-3 9.00009,0.007 m -18.00256,2.98581 -9.00006,-0.007 0.002,-3 9.00006,0.007 m -18.00253,2.98581 -9.00009,-0.007 0.002,-3 9.00009,0.007 m -18.00257,2.98584 -9.00009,-0.007 0.002,-3 9.00009,0.007 m -18.00256,2.98581 -9.00009,-0.007 0.002,-3 9.00009,0.007 m -18.00256,2.98581 -9.00009,-0.007 0.002,-3 9.00009,0.007 m -18.00253,2.98581 -9.00008,-0.007 0.002,-3 9.00011,0.007 m -18.00255,2.98581 -9.00009,-0.007 0.002,-3 9.00009,0.007 m -18.00254,2.98583 -9.00009,-0.007 0.002,-3 9.00009,0.007 m -18.0025,2.98581 -9.00012,-0.007 0.002,-3 9.00012,0.007 m -18.00253,2.98581 -9.00012,-0.007 0.002,-3 9.00012,0.007 m -18.00253,2.98581 -9.00013,-0.007 0.002,-3 9.00013,0.007 m -18.00254,2.98581 -9.00012,-0.007 0.002,-3 9.00012,0.007 m -18.00253,2.98584 -9.00007,-0.007 0.002,-3 9.00005,0.007 m -18.00254,2.98581 -9.00006,-0.007 0.002,-3 9.00006,0.007 m -18.00254,2.98581 -9.000065,-0.007 0.0024,-3 9.00006,0.007 m -18.002547,2.98581 -4.503907,-0.004 0.0024,-3 4.503906,0.004"
       style="fill:#000000;fill-opacity:1;fill-rule:nonzero;stroke:none"
       transform="matrix(0.95903158,0,0,0.95903158,0.47951578,0.47951578)"
       clip-path="url(#clipPath18)" />
    <text
       id="text18"
       xml:space="preserve"
       transform="matrix(0.95904118,0,0,0.95904118,48.371639,264.69536)"
       clip-path="url(#clipPath19)"><tspan
         style="font-style:oblique;font-variant:normal;font-weight:normal;font-size:20px;font-family:Helvetica;writing-mode:lr-tb;fill:#000000;fill-opacity:1;fill-rule:nonzero;stroke:none"
         x="0 11.123047"
         y="0"
         sodipodi:role="line"
         id="tspan18">3s</tspan></text>
    <path
       id="path20"
       d="M 232,9 H 332 V 139 H 232 Z"
       style="fill:#ffffff;fill-opacity:1;fill-rule:nonzero;stroke:#000000;stroke-width:1;stroke-linecap:butt;stroke-linejoin:miter;stroke-miterlimit:10;stroke-dasharray:none;stroke-opacity:1"
       transform="scale(0.95903158)"
       clip-path="url(#clipPath21)" />
    <text
       id="text21"
       xml:space="preserve"
       transform="matrix(0.95904118,0,0,0.95904118,228.31174,77.682335)"
       clip-path="url(#clipPath22)"><tspan
         style="font-variant:normal;font-weight:normal;font-size:20px;font-family:Helvetica;writing-mode:lr-tb;fill:#000000;fill-opacity:1;fill-rule:nonzero;stroke:none"
         x="0 11.123047 22.246094 32.246094 43.369141 48.925781 60.048828 65.605469 76.728516"
         y="0"
         sodipodi:role="line"
         id="tspan21">pbkdf2 #2</tspan></text>
    <path
       id="path23"
       d="M 342,9 H 442 V 139 H 342 Z"
       style="fill:#ffffff;fill-opacity:1;fill-rule:nonzero;stroke:#000000;stroke-width:1;stroke-linecap:butt;stroke-linejoin:miter;stroke-miterlimit:10;stroke-dasharray:none;stroke-opacity:1"
       transform="scale(0.95903158)"
       clip-path="url(#clipPath24)" />
    <text
       id="text24"
       xml:space="preserve"
       transform="matrix(0.95904118,0,0,0.95904118,333.80627,77.682335)"
       clip-path="url(#clipPath25)"><tspan
         style="font-variant:normal;font-weight:normal;font-size:20px;font-family:Helvetica;writing-mode:lr-tb;fill:#000000;fill-opacity:1;fill-rule:nonzero;stroke:none"
         x="0 11.123047 22.246094 32.246094 43.369141 48.925781 60.048828 65.605469 76.728516"
         y="0"
         sodipodi:role="line"
         id="tspan24">pbkdf2 #3</tspan></text>
    <path
       id="path26"
       d="M 452,9 H 552 V 139 H 452 Z"
       style="fill:#ffffff;fill-opacity:1;fill-rule:nonzero;stroke:#000000;stroke-width:1;stroke-linecap:butt;stroke-linejoin:miter;stroke-miterlimit:10;stroke-dasharray:none;stroke-opacity:1"
       transform="scale(0.95903158)"
       clip-path="url(#clipPath27)" />
    <text
       id="text27"
       xml:space="preserve"
       transform="matrix(0.95904118,0,0,0.95904118,439.3008,77.682335)"
       clip-path="url(#clipPath28)"><tspan
         style="font-variant:normal;font-weight:normal;font-size:20px;font-family:Helvetica;writing-mode:lr-tb;fill:#000000;fill-opacity:1;fill-rule:nonzero;stroke:none"
         x="0 11.123047 22.246094 32.246094 43.369141 48.925781 60.048828 65.605469 76.728516"
         y="0"
         sodipodi:role="line"
         id="tspan27">pbkdf2 #4</tspan></text>
    <path
       id="path29"
       d="m 562.01001,139 h 100 v 130 h -100 z"
       style="fill:#ffffff;fill-opacity:1;fill-rule:nonzero;stroke:#000000;stroke-width:1;stroke-linecap:butt;stroke-linejoin:miter;stroke-miterlimit:10;stroke-dasharray:none;stroke-opacity:1"
       transform="scale(0.95903158)"
       clip-path="url(#clipPath30)" />
    <text
       id="text30"
       xml:space="preserve"
       transform="matrix(0.95904118,0,0,0.95904118,544.79533,202.35769)"
       clip-path="url(#clipPath31)"><tspan
         style="font-variant:normal;font-weight:normal;font-size:20px;font-family:Helvetica;writing-mode:lr-tb;fill:#000000;fill-opacity:1;fill-rule:nonzero;stroke:none"
         x="0 11.123047 22.246094 32.246094 43.369141 48.925781 60.048828 65.605469 76.728516"
         y="0"
         sodipodi:role="line"
         id="tspan30">pbkdf2 #5</tspan></text>
  </g>
</svg>
