<?xml version="1.0" encoding="UTF-8" standalone="no"?>
<!-- Created with Inkscape (http://www.inkscape.org/) -->

<svg
   version="1.1"
   id="svg1"
   width="336"
   height="241.27998"
   viewBox="0 0 336 241.27998"
   sodipodi:docname="node-4.pdf"
   xmlns:inkscape="http://www.inkscape.org/namespaces/inkscape"
   xmlns:sodipodi="http://sodipodi.sourceforge.net/DTD/sodipodi-0.dtd"
   xmlns="http://www.w3.org/2000/svg"
   xmlns:svg="http://www.w3.org/2000/svg">
  <defs
     id="defs1">
    <clipPath
       clipPathUnits="userSpaceOnUse"
       id="clipPath2">
      <path
         d="M 0,0 H 1049.9999 V 751.70447 H 0 Z"
         transform="scale(0.33523812)"
         clip-rule="evenodd"
         id="path2" />
    </clipPath>
    <clipPath
       clipPathUnits="userSpaceOnUse"
       id="clipPath4">
      <path
         d="M 0,0 H 1049.9999 V 748.7215 H 0 Z"
         transform="matrix(0.33523812,0,0,0.33523812,-0.49999999,-0.49999999)"
         clip-rule="evenodd"
         id="path4" />
    </clipPath>
    <clipPath
       clipPathUnits="userSpaceOnUse"
       id="clipPath6">
      <path
         d="M 0,0 H 1049.9999 V 748.7215 H 0 Z"
         transform="matrix(0.33523812,0,0,0.33523812,-0.49999999,-0.49999999)"
         clip-rule="evenodd"
         id="path6" />
    </clipPath>
    <clipPath
       clipPathUnits="userSpaceOnUse"
       id="clipPath8">
      <path
         d="M 0,0 H 1049.9999 V 748.7215 H 0 Z"
         transform="scale(0.33523812)"
         clip-rule="evenodd"
         id="path8" />
    </clipPath>
    <clipPath
       clipPathUnits="userSpaceOnUse"
       id="clipPath9">
      <path
         d="M 0,0 H 1049.9999 V 748.7215 H 0 Z"
         transform="matrix(0.33523477,0,0,0.33523477,-45.015625,-34)"
         clip-rule="evenodd"
         id="path9" />
    </clipPath>
    <clipPath
       clipPathUnits="userSpaceOnUse"
       id="clipPath10">
      <path
         d="M 0,0 H 1049.9999 V 748.7215 H 0 Z"
         transform="matrix(0.33523477,0,0,0.33523477,-161.76563,-58.000001)"
         clip-rule="evenodd"
         id="path10" />
    </clipPath>
    <clipPath
       clipPathUnits="userSpaceOnUse"
       id="clipPath12">
      <path
         d="M 0,0 H 1049.9999 V 748.7215 H 0 Z"
         transform="scale(0.33523812)"
         clip-rule="evenodd"
         id="path12" />
    </clipPath>
    <clipPath
       clipPathUnits="userSpaceOnUse"
       id="clipPath13">
      <path
         d="M 0,0 H 1049.9999 V 748.7215 H 0 Z"
         transform="matrix(0.33523477,0,0,0.33523477,-39.46875,-104)"
         clip-rule="evenodd"
         id="path13" />
    </clipPath>
    <clipPath
       clipPathUnits="userSpaceOnUse"
       id="clipPath14">
      <path
         d="M 0,0 H 1049.9999 V 748.7215 H 0 Z"
         transform="matrix(0.33523477,0,0,0.33523477,-107.82812,-128)"
         clip-rule="evenodd"
         id="path14" />
    </clipPath>
    <clipPath
       clipPathUnits="userSpaceOnUse"
       id="clipPath16">
      <path
         d="M 0,0 H 1049.9999 V 748.7215 H 0 Z"
         transform="scale(0.33523812)"
         clip-rule="evenodd"
         id="path16" />
    </clipPath>
    <clipPath
       clipPathUnits="userSpaceOnUse"
       id="clipPath17">
      <path
         d="M 0,0 H 1049.9999 V 748.7215 H 0 Z"
         transform="matrix(0.33523477,0,0,0.33523477,-39.453125,-174)"
         clip-rule="evenodd"
         id="path17" />
    </clipPath>
    <clipPath
       clipPathUnits="userSpaceOnUse"
       id="clipPath18">
      <path
         d="M 0,0 H 1049.9999 V 748.7215 H 0 Z"
         transform="matrix(0.33523477,0,0,0.33523477,-85.609375,-198)"
         clip-rule="evenodd"
         id="path18" />
    </clipPath>
  </defs>
  <sodipodi:namedview
     id="namedview1"
     pagecolor="#ffffff"
     bordercolor="#000000"
     borderopacity="0.25"
     inkscape:showpageshadow="2"
     inkscape:pageopacity="0.0"
     inkscape:pagecheckerboard="0"
     inkscape:deskcolor="#d1d1d1">
    <inkscape:page
       x="0"
       y="0"
       inkscape:label="1"
       id="page1"
       width="336"
       height="241.27998"
       margin="0"
       bleed="0" />
  </sodipodi:namedview>
  <g
     id="g1"
     inkscape:groupmode="layer"
     inkscape:label="1">
    <path
       id="path1"
       d="M 0,0 H 352 V 252 H 0 Z"
       style="fill:#ffffff;fill-opacity:1;fill-rule:nonzero;stroke:none"
       transform="scale(0.95454534)"
       clip-path="url(#clipPath2)" />
    <path
       id="path3"
       d="M 9,9 V 228.89999"
       style="fill:none;stroke:#000000;stroke-width:1;stroke-linecap:butt;stroke-linejoin:miter;stroke-miterlimit:10;stroke-dasharray:none;stroke-opacity:1"
       transform="matrix(0.95454534,0,0,0.95454534,0.47727266,0.47727266)"
       clip-path="url(#clipPath4)" />
    <path
       id="path5"
       d="m 9,235.64999 -4.5,-9 4.5,2.25 4.5,-2.25 z"
       style="fill:#000000;fill-opacity:1;fill-rule:nonzero;stroke:#000000;stroke-width:1;stroke-linecap:butt;stroke-linejoin:miter;stroke-miterlimit:10;stroke-dasharray:none;stroke-opacity:1"
       transform="matrix(0.95454534,0,0,0.95454534,0.47727266,0.47727266)"
       clip-path="url(#clipPath6)" />
    <path
       id="path7"
       d="M 29,9 H 349 V 69 H 29 Z"
       style="fill:#ffffff;fill-opacity:1;fill-rule:nonzero;stroke:#000000;stroke-width:1;stroke-linecap:butt;stroke-linejoin:miter;stroke-miterlimit:10;stroke-dasharray:none;stroke-opacity:1"
       transform="scale(0.95454534)"
       clip-path="url(#clipPath8)" />
    <text
       id="text8"
       xml:space="preserve"
       transform="matrix(0.95455487,0,0,0.95455487,42.969884,32.454866)"
       clip-path="url(#clipPath9)"><tspan
         style="font-variant:normal;font-weight:normal;font-size:20px;font-family:Helvetica;writing-mode:lr-tb;fill:#000000;fill-opacity:1;fill-rule:nonzero;stroke:none"
         x="0 13.339844 17.783203 27.783203 37.783203 43.339844 54.462891 60.019531 65.576172 76.699219 87.822266 97.822266 103.37891 107.82227 118.94531 130.06836 135.625 140.06836 151.19141 156.74805 171.19141 182.31445 193.4375 204.56055 210.11719 220.11719 225.67383 236.79688 247.91992 259.04297 270.16602 276.82617"
         y="0"
         sodipodi:role="line"
         id="tspan8">Pick a function in Node standard</tspan></text>
    <text
       id="text9"
       xml:space="preserve"
       transform="matrix(0.95455487,0,0,0.95455487,154.41417,55.364183)"
       clip-path="url(#clipPath10)"><tspan
         style="font-variant:normal;font-weight:normal;font-size:20px;font-family:Helvetica;writing-mode:lr-tb;fill:#000000;fill-opacity:1;fill-rule:nonzero;stroke:none"
         x="0 4.4433594 8.8867188 20.009766 26.669922 37.792969 44.453125"
         y="0"
         sodipodi:role="line"
         id="tspan9">library</tspan></text>
    <path
       id="path11"
       d="m 29,79 h 320 v 60 H 29 Z"
       style="fill:#ffffff;fill-opacity:1;fill-rule:nonzero;stroke:#000000;stroke-width:1;stroke-linecap:butt;stroke-linejoin:miter;stroke-miterlimit:10;stroke-dasharray:none;stroke-opacity:1"
       transform="scale(0.95454534)"
       clip-path="url(#clipPath12)" />
    <text
       id="text12"
       xml:space="preserve"
       transform="matrix(0.95455487,0,0,0.95455487,37.675088,99.273707)"
       clip-path="url(#clipPath13)"><tspan
         style="font-variant:normal;font-weight:normal;font-size:20px;font-family:Helvetica;writing-mode:lr-tb;fill:#000000;fill-opacity:1;fill-rule:nonzero;stroke:none"
         x="0 12.216797 16.660156 27.783203 38.90625 44.462891 58.90625 70.029297 81.152344 87.8125 98.935547 104.49219 108.93555 114.49219 124.49219 130.04883 134.49219 151.15234 162.27539 166.71875 177.8418 194.50195 205.625 216.74805 222.30469 233.42773 244.55078 250.10742 254.55078 265.67383 271.23047 276.78711 287.91016"
         y="0"
         sodipodi:role="line"
         id="tspan12">Find where its implemented in the</tspan></text>
    <text
       id="text13"
       xml:space="preserve"
       transform="matrix(0.95455487,0,0,0.95455487,102.92786,122.18302)"
       clip-path="url(#clipPath14)"><tspan
         style="font-variant:normal;font-weight:normal;font-size:20px;font-family:Helvetica;writing-mode:lr-tb;fill:#000000;fill-opacity:1;fill-rule:nonzero;stroke:none"
         x="0 14.443359 25.566406 36.689453 47.8125 53.369141 63.369141 74.492188 85.615234 92.275391 102.27539 113.39844 118.95508 128.95508 140.07812 151.20117"
         y="0"
         sodipodi:role="line"
         id="tspan13">Node source code</tspan></text>
    <path
       id="path15"
       d="m 29,149 h 320 v 60 H 29 Z"
       style="fill:#ffffff;fill-opacity:1;fill-rule:nonzero;stroke:#000000;stroke-width:1;stroke-linecap:butt;stroke-linejoin:miter;stroke-miterlimit:10;stroke-dasharray:none;stroke-opacity:1"
       transform="scale(0.95454534)"
       clip-path="url(#clipPath16)" />
    <text
       id="text16"
       xml:space="preserve"
       transform="matrix(0.95455487,0,0,0.95455487,37.660173,166.09255)"
       clip-path="url(#clipPath17)"><tspan
         style="font-variant:normal;font-weight:normal;font-size:20px;font-family:Helvetica;writing-mode:lr-tb;fill:#000000;fill-opacity:1;fill-rule:nonzero;stroke:none"
         x="0 13.339844 24.462891 35.585938 41.142578 52.265625 63.388672 77.832031 83.388672 96.728516 107.85156 113.4082 124.53125 135.6543 146.77734 152.33398 156.77734 161.2207 172.34375 183.4668 193.4668 199.02344 210.14648 216.80664 227.92969 233.48633 244.60938 254.60938 265.73242 276.85547 282.41211 287.96875"
         y="0"
         sodipodi:role="line"
         id="tspan16">See how V8 and libuv are used to</tspan></text>
    <text
       id="text17"
       xml:space="preserve"
       transform="matrix(0.95455487,0,0,0.95455487,81.718846,189.00186)"
       clip-path="url(#clipPath18)"><tspan
         style="font-variant:normal;font-weight:normal;font-size:20px;font-family:Helvetica;writing-mode:lr-tb;fill:#000000;fill-opacity:1;fill-rule:nonzero;stroke:none"
         x="0 4.4433594 21.103516 32.226562 36.669922 47.792969 64.453125 75.576172 86.699219 92.255859 97.8125 103.36914 114.49219 125.61523 131.17188 136.72852 142.28516 153.4082 164.53125 174.53125 180.08789 184.53125 195.6543"
         y="0"
         sodipodi:role="line"
         id="tspan17">implement that function</tspan></text>
  </g>
</svg>
