<?xml version="1.0" encoding="UTF-8" standalone="no"?>
<!-- Created with Inkscape (http://www.inkscape.org/) -->

<svg
   version="1.1"
   id="svg1"
   width="261.44"
   height="196.15999"
   viewBox="0 0 261.44 196.15999"
   sodipodi:docname="node-1.pdf"
   xmlns:inkscape="http://www.inkscape.org/namespaces/inkscape"
   xmlns:sodipodi="http://sodipodi.sourceforge.net/DTD/sodipodi-0.dtd"
   xmlns="http://www.w3.org/2000/svg"
   xmlns:svg="http://www.w3.org/2000/svg">
  <defs
     id="defs1">
    <clipPath
       clipPathUnits="userSpaceOnUse"
       id="clipPath2">
      <path
         d="M 0,0 H 816.66663 V 611.0097 H 0 Z"
         transform="scale(0.33551024)"
         clip-rule="evenodd"
         id="path2" />
    </clipPath>
    <clipPath
       clipPathUnits="userSpaceOnUse"
       id="clipPath4">
      <path
         d="M 0,0 H 816.66663 V 608.02917 H 0 Z"
         transform="matrix(0.33551024,0,0,0.33551024,-0.50000001,-0.50000001)"
         clip-rule="evenodd"
         id="path4" />
    </clipPath>
    <clipPath
       clipPathUnits="userSpaceOnUse"
       id="clipPath5">
      <path
         d="M 0,0 H 816.66663 V 608.02917 H 0 Z"
         transform="matrix(0.33550688,0,0,0.33550688,-9.6562499,-53)"
         clip-rule="evenodd"
         id="path5" />
    </clipPath>
    <clipPath
       clipPathUnits="userSpaceOnUse"
       id="clipPath7">
      <path
         d="M 0,0 H 816.66663 V 608.02917 H 0 Z"
         transform="matrix(0.33551024,0,0,0.33551024,-0.50000001,-0.50000001)"
         clip-rule="evenodd"
         id="path7" />
    </clipPath>
    <clipPath
       clipPathUnits="userSpaceOnUse"
       id="clipPath8">
      <path
         d="M 0,0 H 816.66663 V 608.02917 H 0 Z"
         transform="matrix(0.33550688,0,0,0.33550688,-122.4375,-34)"
         clip-rule="evenodd"
         id="path8" />
    </clipPath>
    <clipPath
       clipPathUnits="userSpaceOnUse"
       id="clipPath9">
      <path
         d="M 0,0 H 816.66663 V 608.02917 H 0 Z"
         transform="matrix(0.33550688,0,0,0.33550688,-220.5,-34)"
         clip-rule="evenodd"
         id="path9" />
    </clipPath>
    <clipPath
       clipPathUnits="userSpaceOnUse"
       id="clipPath10">
      <path
         d="M 0,0 H 816.66663 V 608.02917 H 0 Z"
         transform="matrix(0.33550688,0,0,0.33550688,-257.85839,-34)"
         clip-rule="evenodd"
         id="path10" />
    </clipPath>
    <clipPath
       clipPathUnits="userSpaceOnUse"
       id="clipPath11">
      <path
         d="M 0,0 H 816.66663 V 608.02917 H 0 Z"
         transform="matrix(0.33550688,0,0,0.33550688,-124.01563,-51)"
         clip-rule="evenodd"
         id="path11" />
    </clipPath>
    <clipPath
       clipPathUnits="userSpaceOnUse"
       id="clipPath12">
      <path
         d="M 0,0 H 816.66663 V 608.02917 H 0 Z"
         transform="matrix(0.33550688,0,0,0.33550688,-147.75,-67.999999)"
         clip-rule="evenodd"
         id="path12" />
    </clipPath>
    <clipPath
       clipPathUnits="userSpaceOnUse"
       id="clipPath14">
      <path
         d="M 0,0 H 816.66663 V 608.02917 H 0 Z"
         transform="matrix(0.33551024,0,0,0.33551024,-0.50000001,-0.50000001)"
         clip-rule="evenodd"
         id="path14" />
    </clipPath>
    <clipPath
       clipPathUnits="userSpaceOnUse"
       id="clipPath15">
      <path
         d="M 0,0 H 816.66663 V 608.02917 H 0 Z"
         transform="matrix(0.33550688,0,0,0.33550688,-123.625,-144)"
         clip-rule="evenodd"
         id="path15" />
    </clipPath>
    <clipPath
       clipPathUnits="userSpaceOnUse"
       id="clipPath16">
      <path
         d="M 0,0 H 816.66663 V 608.02917 H 0 Z"
         transform="matrix(0.33550688,0,0,0.33550688,-134.17187,-161)"
         clip-rule="evenodd"
         id="path16" />
    </clipPath>
    <clipPath
       clipPathUnits="userSpaceOnUse"
       id="clipPath17">
      <path
         d="M 0,0 H 816.66663 V 608.02917 H 0 Z"
         transform="matrix(0.33550688,0,0,0.33550688,-169.54688,-178)"
         clip-rule="evenodd"
         id="path17" />
    </clipPath>
    <clipPath
       clipPathUnits="userSpaceOnUse"
       id="clipPath19">
      <path
         d="M 0,0 H 816.66663 V 608.02917 H 0 Z"
         transform="matrix(0.33551024,0,0,0.33551024,-0.50000001,-0.50000001)"
         clip-rule="evenodd"
         id="path19" />
    </clipPath>
    <clipPath
       clipPathUnits="userSpaceOnUse"
       id="clipPath20">
      <path
         d="M 0,0 H 816.66663 V 608.02917 H 0 Z"
         transform="matrix(0.33550688,0,0,0.33550688,-14.5,-152)"
         clip-rule="evenodd"
         id="path20" />
    </clipPath>
    <clipPath
       clipPathUnits="userSpaceOnUse"
       id="clipPath21">
      <path
         d="M 0,0 H 816.66663 V 608.02917 H 0 Z"
         transform="matrix(0.33550688,0,0,0.33550688,-29.65625,-174)"
         clip-rule="evenodd"
         id="path21" />
    </clipPath>
  </defs>
  <sodipodi:namedview
     id="namedview1"
     pagecolor="#ffffff"
     bordercolor="#000000"
     borderopacity="0.25"
     inkscape:showpageshadow="2"
     inkscape:pageopacity="0.0"
     inkscape:pagecheckerboard="0"
     inkscape:deskcolor="#d1d1d1">
    <inkscape:page
       x="0"
       y="0"
       inkscape:label="1"
       id="page1"
       width="261.44"
       height="196.15999"
       margin="0"
       bleed="0" />
  </sodipodi:namedview>
  <g
     id="g1"
     inkscape:groupmode="layer"
     inkscape:label="1">
    <path
       id="path1"
       d="M 0,0 H 274 V 205 H 0 Z"
       style="fill:#ffffff;fill-opacity:1;fill-rule:nonzero;stroke:none"
       transform="scale(0.95377116)"
       clip-path="url(#clipPath2)" />
    <path
       id="path3"
       d="M 1,1 H 121 V 91 H 1 Z"
       style="fill:#d5e8d4;fill-opacity:1;fill-rule:nonzero;stroke:#82b366;stroke-width:1;stroke-linecap:butt;stroke-linejoin:miter;stroke-miterlimit:10;stroke-dasharray:none;stroke-opacity:1"
       transform="matrix(0.95377116,0,0,0.95377116,0.47688559,0.47688559)"
       clip-path="url(#clipPath4)" />
    <text
       id="text4"
       xml:space="preserve"
       transform="matrix(0.9537807,0,0,0.9537807,9.2099448,50.550377)"
       clip-path="url(#clipPath5)"><tspan
         style="font-variant:normal;font-weight:700;font-size:18px;font-family:Helvetica;writing-mode:lr-tb;fill:#000000;fill-opacity:1;fill-rule:nonzero;stroke:none"
         x="0 12.999023 23.994141 28.995117 34.989258 39.990234 49.658203 59.668945 69.679688 75.673828 80.674805 91.669922"
         y="0"
         sodipodi:role="line"
         id="tspan4">Unit Testing</tspan></text>
    <path
       id="path6"
       d="M 121,1 H 271 V 91 H 121 Z"
       style="fill:#ffffff;fill-opacity:1;fill-rule:nonzero;stroke:#000000;stroke-width:1;stroke-linecap:butt;stroke-linejoin:miter;stroke-miterlimit:10;stroke-dasharray:none;stroke-opacity:1"
       transform="matrix(0.95377116,0,0,0.95377116,0.47688559,0.47688559)"
       clip-path="url(#clipPath7)" />
    <text
       id="text7"
       xml:space="preserve"
       transform="matrix(0.9537807,0,0,0.9537807,116.77852,32.428544)"
       clip-path="url(#clipPath8)"><tspan
         style="font-variant:normal;font-weight:normal;font-size:14px;font-family:Helvetica;writing-mode:lr-tb;fill:#000000;fill-opacity:1;fill-rule:nonzero;stroke:none"
         x="0 9.3378906 16.337891 23.337891 31.124023 35.786133 39.675781 43.56543 47.455078 55.241211 63.027344 66.916992 70.806641 78.592773 86.378906 94.165039"
         y="0"
         sodipodi:role="line"
         id="tspan7">Assert that one </tspan></text>
    <text
       id="text8"
       xml:space="preserve"
       transform="matrix(0.9537807,0,0,0.9537807,210.30864,32.428544)"
       clip-path="url(#clipPath9)"><tspan
         style="font-style:oblique;font-variant:normal;font-weight:normal;font-size:14px;font-family:Helvetica;writing-mode:lr-tb;fill:#000000;fill-opacity:1;fill-rule:nonzero;stroke:none"
         x="0 7.7861328 10.896484 18.682617 25.682617"
         y="0"
         sodipodi:role="line"
         id="tspan8">piece</tspan></text>
    <text
       id="text9"
       xml:space="preserve"
       transform="matrix(0.9537807,0,0,0.9537807,245.94036,32.428544)"
       clip-path="url(#clipPath10)"><tspan
         style="font-variant:normal;font-weight:normal;font-size:14px;font-family:Helvetica;writing-mode:lr-tb;fill:#000000;fill-opacity:1;fill-rule:nonzero;stroke:none"
         x="0 7.7861328"
         y="0"
         sodipodi:role="line"
         id="tspan9">of</tspan></text>
    <text
       id="text10"
       xml:space="preserve"
       transform="matrix(0.9537807,0,0,0.9537807,118.28371,48.642816)"
       clip-path="url(#clipPath11)"><tspan
         style="font-variant:normal;font-weight:normal;font-size:14px;font-family:Helvetica;writing-mode:lr-tb;fill:#000000;fill-opacity:1;fill-rule:nonzero;stroke:none"
         x="0 7 14.786133 22.572266 27.234375 31.124023 38.910156 46.696289 54.482422 58.37207 61.482422 68.482422 72.37207 82.482422 90.268555 94.930664 101.93066 105.04102 112.82715 120.61328 124.50293 128.39258 136.17871"
         y="0"
         sodipodi:role="line"
         id="tspan10">your app is working the</tspan></text>
    <text
       id="text11"
       xml:space="preserve"
       transform="matrix(0.9537807,0,0,0.9537807,140.9211,64.857087)"
       clip-path="url(#clipPath12)"><tspan
         style="font-variant:normal;font-weight:normal;font-size:14px;font-family:Helvetica;writing-mode:lr-tb;fill:#000000;fill-opacity:1;fill-rule:nonzero;stroke:none"
         x="0 10.110352 17.896484 24.896484 28.786133 35.786133 43.572266 51.358398 55.248047 63.03418 70.03418 77.820312 85.606445 92.606445"
         y="0"
         sodipodi:role="line"
         id="tspan11">way you expect</tspan></text>
    <path
       id="path13"
       d="m 121,111 h 150 v 90 H 121 Z"
       style="fill:#ffffff;fill-opacity:1;fill-rule:nonzero;stroke:#000000;stroke-width:1;stroke-linecap:butt;stroke-linejoin:miter;stroke-miterlimit:10;stroke-dasharray:none;stroke-opacity:1"
       transform="matrix(0.95377116,0,0,0.95377116,0.47688559,0.47688559)"
       clip-path="url(#clipPath14)" />
    <text
       id="text14"
       xml:space="preserve"
       transform="matrix(0.9537807,0,0,0.9537807,117.91114,137.34442)"
       clip-path="url(#clipPath15)"><tspan
         style="font-variant:normal;font-weight:normal;font-size:14px;font-family:Helvetica;writing-mode:lr-tb;fill:#000000;fill-opacity:1;fill-rule:nonzero;stroke:none"
         x="0 11.662109 19.448242 26.448242 34.234375 38.124023 45.124023 52.910156 57.572266 65.358398 69.248047 73.137695 80.923828 88.709961 92.599609 96.489258 108.15137 115.9375 119.04785 122.9375 126.04785 133.83398 136.94434"
         y="0"
         sodipodi:role="line"
         id="tspan14">Make sure that multiple</tspan></text>
    <text
       id="text15"
       xml:space="preserve"
       transform="matrix(0.9537807,0,0,0.9537807,127.97054,153.55869)"
       clip-path="url(#clipPath16)"><tspan
         style="font-variant:normal;font-weight:normal;font-size:14px;font-family:Helvetica;writing-mode:lr-tb;fill:#000000;fill-opacity:1;fill-rule:nonzero;stroke:none"
         x="0 2.6728516 10.458984 18.245117 21.355469 25.245117 32.245117 34.917969 38.807617 48.917969 56.704102 61.366211 68.366211 72.255859 76.145508 83.931641 91.717773 99.503906 103.39355 111.17969 118.96582"
         y="0"
         sodipodi:role="line"
         id="tspan15">'units' work together</tspan></text>
    <text
       id="text16"
       xml:space="preserve"
       transform="matrix(0.9537807,0,0,0.9537807,161.71054,169.77296)"
       clip-path="url(#clipPath17)"><tspan
         style="font-variant:normal;font-weight:normal;font-size:14px;font-family:Helvetica;writing-mode:lr-tb;fill:#000000;fill-opacity:1;fill-rule:nonzero;stroke:none"
         x="0 7 14.786133 19.448242 24.110352 31.896484 38.896484 42.786133 45.896484"
         y="0"
         sodipodi:role="line"
         id="tspan16">correctly</tspan></text>
    <path
       id="path18"
       d="m 1,111 h 120 v 90 H 1 Z"
       style="fill:#d5e8d4;fill-opacity:1;fill-rule:nonzero;stroke:#82b366;stroke-width:1;stroke-linecap:butt;stroke-linejoin:miter;stroke-miterlimit:10;stroke-dasharray:none;stroke-opacity:1"
       transform="matrix(0.95377116,0,0,0.95377116,0.47688559,0.47688559)"
       clip-path="url(#clipPath19)" />
    <text
       id="text19"
       xml:space="preserve"
       transform="matrix(0.9537807,0,0,0.9537807,13.82982,144.97467)"
       clip-path="url(#clipPath20)"><tspan
         style="font-variant:normal;font-weight:700;font-size:18px;font-family:Helvetica;writing-mode:lr-tb;fill:#000000;fill-opacity:1;fill-rule:nonzero;stroke:none"
         x="0 5.0009766 15.996094 21.990234 32.000977 42.996094 50.000977 60.011719 66.005859 71.006836 82.001953"
         y="0"
         sodipodi:role="line"
         id="tspan19">Integration</tspan></text>
    <text
       id="text20"
       xml:space="preserve"
       transform="matrix(0.9537807,0,0,0.9537807,28.285559,165.95784)"
       clip-path="url(#clipPath21)"><tspan
         style="font-variant:normal;font-weight:700;font-size:18px;font-family:Helvetica;writing-mode:lr-tb;fill:#000000;fill-opacity:1;fill-rule:nonzero;stroke:none"
         x="0 9.6679688 19.678711 29.689453 35.683594 40.68457 51.679688"
         y="0"
         sodipodi:role="line"
         id="tspan20">Testing</tspan></text>
  </g>
</svg>
