<?xml version="1.0" encoding="UTF-8" standalone="no"?>
<!-- Created with Inkscape (http://www.inkscape.org/) -->

<svg
   version="1.1"
   id="svg1"
   width="494.71997"
   height="202.56"
   viewBox="0 0 494.71997 202.56"
   sodipodi:docname="node-6.pdf"
   xmlns:inkscape="http://www.inkscape.org/namespaces/inkscape"
   xmlns:sodipodi="http://sodipodi.sourceforge.net/DTD/sodipodi-0.dtd"
   xmlns="http://www.w3.org/2000/svg"
   xmlns:svg="http://www.w3.org/2000/svg">
  <defs
     id="defs1">
    <clipPath
       clipPathUnits="userSpaceOnUse"
       id="clipPath2">
      <path
         d="M 0,0 H 1545.8333 V 630.8913 H 0 Z"
         transform="scale(0.33444747)"
         clip-rule="evenodd"
         id="path2" />
    </clipPath>
    <clipPath
       clipPathUnits="userSpaceOnUse"
       id="clipPath4">
      <path
         d="M 0,0 H 1545.8333 V 627.90131 H 0 Z"
         transform="matrix(0.33444747,0,0,0.33444747,-0.5,-0.5)"
         clip-rule="evenodd"
         id="path4" />
    </clipPath>
    <clipPath
       clipPathUnits="userSpaceOnUse"
       id="clipPath5">
      <path
         d="M 0,0 H 1545.8333 V 627.90131 H 0 Z"
         transform="matrix(0.33444411,0,0,0.33444411,-64.515626,-23.000001)"
         clip-rule="evenodd"
         id="path5" />
    </clipPath>
    <clipPath
       clipPathUnits="userSpaceOnUse"
       id="clipPath6">
      <path
         d="M 0,0 H 1545.8333 V 627.90131 H 0 Z"
         transform="matrix(0.33444411,0,0,0.33444411,-289.14063,-23.000001)"
         clip-rule="evenodd"
         id="path6" />
    </clipPath>
    <clipPath
       clipPathUnits="userSpaceOnUse"
       id="clipPath8">
      <path
         d="M 0,0 H 1545.8333 V 627.90131 H 0 Z"
         transform="matrix(0.33444747,0,0,0.33444747,-0.5,-0.5)"
         clip-rule="evenodd"
         id="path8" />
    </clipPath>
    <clipPath
       clipPathUnits="userSpaceOnUse"
       id="clipPath10">
      <path
         d="M 0,0 H 1545.8333 V 627.90131 H 0 Z"
         transform="matrix(0.33444747,0,0,0.33444747,-0.5,-0.5)"
         clip-rule="evenodd"
         id="path10" />
    </clipPath>
    <clipPath
       clipPathUnits="userSpaceOnUse"
       id="clipPath11">
      <path
         d="M 0,0 H 1545.8333 V 627.90131 H 0 Z"
         transform="matrix(0.33444411,0,0,0.33444411,-41.78125,-82.000001)"
         clip-rule="evenodd"
         id="path11" />
    </clipPath>
    <clipPath
       clipPathUnits="userSpaceOnUse"
       id="clipPath12">
      <path
         d="M 0,0 H 1545.8333 V 627.90131 H 0 Z"
         transform="matrix(0.33444411,0,0,0.33444411,-100.14063,-99.000001)"
         clip-rule="evenodd"
         id="path12" />
    </clipPath>
    <clipPath
       clipPathUnits="userSpaceOnUse"
       id="clipPath14">
      <path
         d="M 0,0 H 1545.8333 V 627.90131 H 0 Z"
         transform="matrix(0.33444747,0,0,0.33444747,-0.5,-0.5)"
         clip-rule="evenodd"
         id="path14" />
    </clipPath>
    <clipPath
       clipPathUnits="userSpaceOnUse"
       id="clipPath15">
      <path
         d="M 0,0 H 1545.8333 V 627.90131 H 0 Z"
         transform="matrix(0.33444411,0,0,0.33444411,-294.39063,-82.000001)"
         clip-rule="evenodd"
         id="path15" />
    </clipPath>
    <clipPath
       clipPathUnits="userSpaceOnUse"
       id="clipPath16">
      <path
         d="M 0,0 H 1545.8333 V 627.90131 H 0 Z"
         transform="matrix(0.33444411,0,0,0.33444411,-297.125,-99.000001)"
         clip-rule="evenodd"
         id="path16" />
    </clipPath>
    <clipPath
       clipPathUnits="userSpaceOnUse"
       id="clipPath18">
      <path
         d="M 0,0 H 1545.8333 V 627.90131 H 0 Z"
         transform="matrix(0.33444747,0,0,0.33444747,-0.5,-0.5)"
         clip-rule="evenodd"
         id="path18" />
    </clipPath>
    <clipPath
       clipPathUnits="userSpaceOnUse"
       id="clipPath19">
      <path
         d="M 0,0 H 1545.8333 V 627.90131 H 0 Z"
         transform="matrix(0.33444411,0,0,0.33444411,-49.250001,-152)"
         clip-rule="evenodd"
         id="path19" />
    </clipPath>
    <clipPath
       clipPathUnits="userSpaceOnUse"
       id="clipPath20">
      <path
         d="M 0,0 H 1545.8333 V 627.90131 H 0 Z"
         transform="matrix(0.33444411,0,0,0.33444411,-100.53125,-169)"
         clip-rule="evenodd"
         id="path20" />
    </clipPath>
    <clipPath
       clipPathUnits="userSpaceOnUse"
       id="clipPath22">
      <path
         d="M 0,0 H 1545.8333 V 627.90131 H 0 Z"
         transform="matrix(0.33444747,0,0,0.33444747,-0.5,-0.5)"
         clip-rule="evenodd"
         id="path22" />
    </clipPath>
    <clipPath
       clipPathUnits="userSpaceOnUse"
       id="clipPath23">
      <path
         d="M 0,0 H 1545.8333 V 627.90131 H 0 Z"
         transform="matrix(0.33444411,0,0,0.33444411,-320.45313,-160)"
         clip-rule="evenodd"
         id="path23" />
    </clipPath>
  </defs>
  <sodipodi:namedview
     id="namedview1"
     pagecolor="#ffffff"
     bordercolor="#000000"
     borderopacity="0.25"
     inkscape:showpageshadow="2"
     inkscape:pageopacity="0.0"
     inkscape:pagecheckerboard="0"
     inkscape:deskcolor="#d1d1d1">
    <inkscape:page
       x="0"
       y="0"
       inkscape:label="1"
       id="page1"
       width="494.71997"
       height="202.56"
       margin="0"
       bleed="0" />
  </sodipodi:namedview>
  <g
     id="g1"
     inkscape:groupmode="layer"
     inkscape:label="1">
    <path
       id="path1"
       d="M 0,0 H 517 V 211 H 0 Z"
       style="fill:#ffffff;fill-opacity:1;fill-rule:nonzero;stroke:none"
       transform="scale(0.95680194)"
       clip-path="url(#clipPath2)" />
    <path
       id="path3"
       d="M 2,35 H 512.01001"
       style="fill:none;stroke:#000000;stroke-width:1;stroke-linecap:butt;stroke-linejoin:miter;stroke-miterlimit:10;stroke-dasharray:none;stroke-opacity:1"
       transform="matrix(0.95680194,0,0,0.95680194,0.47840097,0.47840097)"
       clip-path="url(#clipPath4)" />
    <text
       id="text4"
       xml:space="preserve"
       transform="matrix(0.95681154,0,0,0.95681154,61.729295,22.006666)"
       clip-path="url(#clipPath5)"><tspan
         style="font-variant:normal;font-weight:normal;font-size:24px;font-family:Helvetica;writing-mode:lr-tb;fill:#000000;fill-opacity:1;fill-rule:nonzero;stroke:none"
         x="0 17.332031 30.679688 36.011719 42.679688 48.925781 60.925781 74.273438 86.273438 92.941406 98.273438 111.62109"
         y="0"
         sodipodi:role="line"
         id="tspan4">Unit Testing</tspan></text>
    <text
       id="text5"
       xml:space="preserve"
       transform="matrix(0.95681154,0,0,0.95681154,276.65309,22.006666)"
       clip-path="url(#clipPath6)"><tspan
         style="font-variant:normal;font-weight:normal;font-size:24px;font-family:Helvetica;writing-mode:lr-tb;fill:#000000;fill-opacity:1;fill-rule:nonzero;stroke:none"
         x="0 6.6679688 20.015625 26.683594 40.03125 53.378906 61.371094 74.71875 81.386719 86.71875 100.06641 113.41406 119.66016 131.66016 145.00781 157.00781 163.67578 169.00781 182.35547"
         y="0"
         sodipodi:role="line"
         id="tspan5">Integration Testing</tspan></text>
    <path
       id="path7"
       d="M 252,5 V 205"
       style="fill:none;stroke:#000000;stroke-width:1;stroke-linecap:butt;stroke-linejoin:miter;stroke-miterlimit:10;stroke-dasharray:none;stroke-opacity:1"
       transform="matrix(0.95680194,0,0,0.95680194,0.47840097,0.47840097)"
       clip-path="url(#clipPath8)" />
    <path
       id="path9"
       d="m 32,55 h 190 v 60 H 32 Z"
       style="fill:#ffffff;fill-opacity:1;fill-rule:nonzero;stroke:#000000;stroke-width:1;stroke-linecap:butt;stroke-linejoin:miter;stroke-miterlimit:10;stroke-dasharray:none;stroke-opacity:1"
       transform="matrix(0.95680194,0,0,0.95680194,0.47840097,0.47840097)"
       clip-path="url(#clipPath10)" />
    <text
       id="text10"
       xml:space="preserve"
       transform="matrix(0.95681154,0,0,0.95681154,39.976782,78.458547)"
       clip-path="url(#clipPath11)"><tspan
         style="font-variant:normal;font-weight:normal;font-size:14px;font-family:Helvetica;writing-mode:lr-tb;fill:#000000;fill-opacity:1;fill-rule:nonzero;stroke:none"
         x="0 10.889648 18.675781 26.461914 34.248047 38.137695 42.027344 49.813477 54.475586 58.365234 61.475586 69.261719 73.923828 81.709961 89.496094 93.385742 97.275391 105.06152 112.84766 124.50977 131.50977 135.39941 139.28906 142.39941 150.18555 154.84766 162.63379"
         y="0"
         sodipodi:role="line"
         id="tspan10">Good for large teams, large</tspan></text>
    <text
       id="text11"
       xml:space="preserve"
       transform="matrix(0.95681154,0,0,0.95681154,95.815706,94.724343)"
       clip-path="url(#clipPath12)"><tspan
         style="font-variant:normal;font-weight:normal;font-size:14px;font-family:Helvetica;writing-mode:lr-tb;fill:#000000;fill-opacity:1;fill-rule:nonzero;stroke:none"
         x="0 7.7861328 12.448242 20.234375 28.020508 35.806641 42.806641 46.696289"
         y="0"
         sodipodi:role="line"
         id="tspan11">products</tspan></text>
    <path
       id="path13"
       d="m 292,55 h 190 v 60 H 292 Z"
       style="fill:#ffffff;fill-opacity:1;fill-rule:nonzero;stroke:#000000;stroke-width:1;stroke-linecap:butt;stroke-linejoin:miter;stroke-miterlimit:10;stroke-dasharray:none;stroke-opacity:1"
       transform="matrix(0.95680194,0,0,0.95680194,0.47840097,0.47840097)"
       clip-path="url(#clipPath14)" />
    <text
       id="text14"
       xml:space="preserve"
       transform="matrix(0.95681154,0,0,0.95681154,281.67635,78.458547)"
       clip-path="url(#clipPath15)"><tspan
         style="font-variant:normal;font-weight:normal;font-size:14px;font-family:Helvetica;writing-mode:lr-tb;fill:#000000;fill-opacity:1;fill-rule:nonzero;stroke:none"
         x="0 10.889648 18.675781 26.461914 34.248047 38.137695 42.027344 49.813477 54.475586 58.365234 66.151367 73.9375 78.599609 81.709961 88.709961 93.37207 100.37207 104.26172 112.04785 119.83398 127.62012 131.50977 139.2959 143.95801 151.74414 159.53027 167.31641 174.31641 178.20605"
         y="0"
         sodipodi:role="line"
         id="tspan14">Good for early-stage products</tspan></text>
    <text
       id="text15"
       xml:space="preserve"
       transform="matrix(0.95681154,0,0,0.95681154,284.29263,94.724343)"
       clip-path="url(#clipPath16)"><tspan
         style="font-variant:normal;font-weight:normal;font-size:14px;font-family:Helvetica;writing-mode:lr-tb;fill:#000000;fill-opacity:1;fill-rule:nonzero;stroke:none"
         x="0 10.110352 17.896484 25.682617 30.344727 38.130859 42.020508 46.682617 54.46875 58.358398 66.144531 73.144531 77.03418 84.820312 89.482422 92.592773 100.37891 108.16504 112.05469 115.16504 122.16504 126.05469 133.05469 140.84082 152.50293 164.16504 171.95117"
         y="0"
         sodipodi:role="line"
         id="tspan15">where refactoring is common</tspan></text>
    <path
       id="path17"
       d="m 32,125 h 190 v 60 H 32 Z"
       style="fill:#ffffff;fill-opacity:1;fill-rule:nonzero;stroke:#000000;stroke-width:1;stroke-linecap:butt;stroke-linejoin:miter;stroke-miterlimit:10;stroke-dasharray:none;stroke-opacity:1"
       transform="matrix(0.95680194,0,0,0.95680194,0.47840097,0.47840097)"
       clip-path="url(#clipPath18)" />
    <text
       id="text18"
       xml:space="preserve"
       transform="matrix(0.95681154,0,0,0.95681154,47.122969,145.43535)"
       clip-path="url(#clipPath19)"><tspan
         style="font-variant:normal;font-weight:normal;font-size:14px;font-family:Helvetica;writing-mode:lr-tb;fill:#000000;fill-opacity:1;fill-rule:nonzero;stroke:none"
         x="0 10.889648 18.675781 26.461914 34.248047 38.137695 42.027344 49.813477 54.475586 58.365234 61.038086 72.700195 75.810547 82.810547 89.810547 92.920898 100.70703 108.49316 113.15527 120.15527 124.81738 127.92773 131.81738 134.92773 141.92773 149.71387 152.82422"
         y="0"
         sodipodi:role="line"
         id="tspan18">Good for 'mission-critical'</tspan></text>
    <text
       id="text19"
       xml:space="preserve"
       transform="matrix(0.95681154,0,0,0.95681154,96.189461,161.70115)"
       clip-path="url(#clipPath20)"><tspan
         style="font-variant:normal;font-weight:normal;font-size:14px;font-family:Helvetica;writing-mode:lr-tb;fill:#000000;fill-opacity:1;fill-rule:nonzero;stroke:none"
         x="0 11.662109 19.448242 27.234375 35.020508 38.130859 45.916992"
         y="0"
         sodipodi:role="line"
         id="tspan19">modules</tspan></text>
    <path
       id="path21"
       d="m 292,125 h 190 v 60 H 292 Z"
       style="fill:#ffffff;fill-opacity:1;fill-rule:nonzero;stroke:#000000;stroke-width:1;stroke-linecap:butt;stroke-linejoin:miter;stroke-miterlimit:10;stroke-dasharray:none;stroke-opacity:1"
       transform="matrix(0.95680194,0,0,0.95680194,0.47840097,0.47840097)"
       clip-path="url(#clipPath22)" />
    <text
       id="text22"
       xml:space="preserve"
       transform="matrix(0.95681154,0,0,0.95681154,306.61325,153.08985)"
       clip-path="url(#clipPath23)"><tspan
         style="font-variant:normal;font-weight:normal;font-size:14px;font-family:Helvetica;writing-mode:lr-tb;fill:#000000;fill-opacity:1;fill-rule:nonzero;stroke:none"
         x="0 10.889648 18.675781 26.461914 34.248047 38.137695 42.027344 49.813477 54.475586 58.365234 61.475586 69.261719 77.047852 84.833984 91.833984 98.833984 102.72363 109.72363 117.50977 125.2959"
         y="0"
         sodipodi:role="line"
         id="tspan22">Good for legacy code</tspan></text>
  </g>
</svg>
