<?xml version="1.0" encoding="UTF-8" standalone="no"?>
<!-- Created with Inkscape (http://www.inkscape.org/) -->

<svg
   version="1.1"
   id="svg1"
   width="1154.5601"
   height="504"
   viewBox="0 0 1154.5601 504"
   sodipodi:docname="node-11.pdf"
   xmlns:inkscape="http://www.inkscape.org/namespaces/inkscape"
   xmlns:sodipodi="http://sodipodi.sourceforge.net/DTD/sodipodi-0.dtd"
   xmlns="http://www.w3.org/2000/svg"
   xmlns:svg="http://www.w3.org/2000/svg">
  <defs
     id="defs1">
    <clipPath
       clipPathUnits="userSpaceOnUse"
       id="clipPath2">
      <path
         d="M 0,0 H 3608.3333 V 1573.4011 H 0 Z"
         transform="scale(0.33367208)"
         clip-rule="evenodd"
         id="path2" />
    </clipPath>
    <clipPath
       clipPathUnits="userSpaceOnUse"
       id="clipPath4">
      <path
         d="M 0,0 H 3608.3333 V 1570.4042 H 0 Z"
         transform="matrix(0.33367208,0,0,0.33367208,-0.50000001,-0.50000001)"
         clip-rule="evenodd"
         id="path4" />
    </clipPath>
    <clipPath
       clipPathUnits="userSpaceOnUse"
       id="clipPath6">
      <path
         d="M 0,0 H 3608.3333 V 1570.4042 H 0 Z"
         transform="matrix(0.33367208,0,0,0.33367208,-0.50000001,-0.50000001)"
         clip-rule="evenodd"
         id="path6" />
    </clipPath>
    <clipPath
       clipPathUnits="userSpaceOnUse"
       id="clipPath8">
      <path
         d="M 0,0 H 3608.3333 V 1570.4042 H 0 Z"
         transform="matrix(0.33367208,0,0,0.33367208,-0.50000001,-0.50000001)"
         clip-rule="evenodd"
         id="path8" />
    </clipPath>
    <clipPath
       clipPathUnits="userSpaceOnUse"
       id="clipPath10">
      <path
         d="M 0,0 H 3608.3333 V 1570.4042 H 0 Z"
         transform="matrix(0.33367208,0,0,0.33367208,-0.50000001,-0.50000001)"
         clip-rule="evenodd"
         id="path10" />
    </clipPath>
    <clipPath
       clipPathUnits="userSpaceOnUse"
       id="clipPath12">
      <path
         d="M 0,0 H 3608.3333 V 1570.4042 H 0 Z"
         transform="scale(0.33367208)"
         clip-rule="evenodd"
         id="path12" />
    </clipPath>
    <clipPath
       clipPathUnits="userSpaceOnUse"
       id="clipPath13">
      <path
         d="M 0,0 H 3608.3333 V 1570.4042 H 0 Z"
         transform="matrix(0.33366873,0,0,0.33366873,-656.92189,-42)"
         clip-rule="evenodd"
         id="path13" />
    </clipPath>
    <clipPath
       clipPathUnits="userSpaceOnUse"
       id="clipPath15">
      <path
         d="M 0,0 H 3608.3333 V 1570.4042 H 0 Z"
         transform="scale(0.33367208)"
         clip-rule="evenodd"
         id="path15" />
    </clipPath>
    <clipPath
       clipPathUnits="userSpaceOnUse"
       id="clipPath16">
      <path
         d="M 0,0 H 3608.3333 V 1570.4042 H 0 Z"
         transform="matrix(0.33366873,0,0,0.33366873,-363.60938,-172)"
         clip-rule="evenodd"
         id="path16" />
    </clipPath>
    <clipPath
       clipPathUnits="userSpaceOnUse"
       id="clipPath18">
      <path
         d="M 0,0 H 3608.3333 V 1570.4042 H 0 Z"
         transform="matrix(0.33367208,0,0,0.33367208,-0.50000001,-0.50000001)"
         clip-rule="evenodd"
         id="path18" />
    </clipPath>
    <clipPath
       clipPathUnits="userSpaceOnUse"
       id="clipPath20">
      <path
         d="M 0,0 H 3608.3333 V 1570.4042 H 0 Z"
         transform="matrix(0.33367208,0,0,0.33367208,-0.50000001,-0.50000001)"
         clip-rule="evenodd"
         id="path20" />
    </clipPath>
    <clipPath
       clipPathUnits="userSpaceOnUse"
       id="clipPath22">
      <path
         d="M 0,0 H 3608.3333 V 1570.4042 H 0 Z"
         transform="matrix(0.33367208,0,0,0.33367208,-0.50000001,-0.50000001)"
         clip-rule="evenodd"
         id="path22" />
    </clipPath>
    <clipPath
       clipPathUnits="userSpaceOnUse"
       id="clipPath24">
      <path
         d="M 0,0 H 3608.3333 V 1570.4042 H 0 Z"
         transform="matrix(0.33367208,0,0,0.33367208,-0.50000001,-0.50000001)"
         clip-rule="evenodd"
         id="path24" />
    </clipPath>
    <clipPath
       clipPathUnits="userSpaceOnUse"
       id="clipPath26">
      <path
         d="M 0,0 H 3608.3333 V 1570.4042 H 0 Z"
         transform="scale(0.33367208)"
         clip-rule="evenodd"
         id="path26" />
    </clipPath>
    <clipPath
       clipPathUnits="userSpaceOnUse"
       id="clipPath27">
      <path
         d="M 0,0 H 3608.3333 V 1570.4042 H 0 Z"
         transform="matrix(0.33366873,0,0,0.33366873,-927.07813,-172)"
         clip-rule="evenodd"
         id="path27" />
    </clipPath>
    <clipPath
       clipPathUnits="userSpaceOnUse"
       id="clipPath28">
      <path
         d="M 0,0 H 3608.3333 V 1570.4042 H 0 Z"
         transform="matrix(0.33366873,0,0,0.33366873,-976.21875,-172)"
         clip-rule="evenodd"
         id="path28" />
    </clipPath>
    <clipPath
       clipPathUnits="userSpaceOnUse"
       id="clipPath29">
      <path
         d="M 0,0 H 3608.3333 V 1570.4042 H 0 Z"
         transform="matrix(0.33366873,0,0,0.33366873,-1009.27,-172)"
         clip-rule="evenodd"
         id="path29" />
    </clipPath>
    <clipPath
       clipPathUnits="userSpaceOnUse"
       id="clipPath31">
      <path
         d="M 0,0 H 3608.3333 V 1570.4042 H 0 Z"
         transform="scale(0.33367208)"
         clip-rule="evenodd"
         id="path31" />
    </clipPath>
    <clipPath
       clipPathUnits="userSpaceOnUse"
       id="clipPath32">
      <path
         d="M 0,0 H 3608.3333 V 1570.4042 H 0 Z"
         transform="matrix(0.33366873,0,0,0.33366873,-160.79687,-362)"
         clip-rule="evenodd"
         id="path32" />
    </clipPath>
    <clipPath
       clipPathUnits="userSpaceOnUse"
       id="clipPath34">
      <path
         d="M 0,0 H 3608.3333 V 1570.4042 H 0 Z"
         transform="matrix(0.33367208,0,0,0.33367208,-0.50000001,-0.50000001)"
         clip-rule="evenodd"
         id="path34" />
    </clipPath>
    <clipPath
       clipPathUnits="userSpaceOnUse"
       id="clipPath36">
      <path
         d="M 0,0 H 3608.3333 V 1570.4042 H 0 Z"
         transform="matrix(0.33367208,0,0,0.33367208,-0.50000001,-0.50000001)"
         clip-rule="evenodd"
         id="path36" />
    </clipPath>
    <clipPath
       clipPathUnits="userSpaceOnUse"
       id="clipPath38">
      <path
         d="M 0,0 H 3608.3333 V 1570.4042 H 0 Z"
         transform="matrix(0.33367208,0,0,0.33367208,-0.50000001,-0.50000001)"
         clip-rule="evenodd"
         id="path38" />
    </clipPath>
    <clipPath
       clipPathUnits="userSpaceOnUse"
       id="clipPath40">
      <path
         d="M 0,0 H 3608.3333 V 1570.4042 H 0 Z"
         transform="matrix(0.33367208,0,0,0.33367208,-0.50000001,-0.50000001)"
         clip-rule="evenodd"
         id="path40" />
    </clipPath>
    <clipPath
       clipPathUnits="userSpaceOnUse"
       id="clipPath42">
      <path
         d="M 0,0 H 3608.3333 V 1570.4042 H 0 Z"
         transform="scale(0.33367208)"
         clip-rule="evenodd"
         id="path42" />
    </clipPath>
    <clipPath
       clipPathUnits="userSpaceOnUse"
       id="clipPath43">
      <path
         d="M 0,0 H 3608.3333 V 1570.4042 H 0 Z"
         transform="matrix(0.33366873,0,0,0.33366873,-341.90625,-352)"
         clip-rule="evenodd"
         id="path43" />
    </clipPath>
    <clipPath
       clipPathUnits="userSpaceOnUse"
       id="clipPath44">
      <path
         d="M 0,0 H 3608.3333 V 1570.4042 H 0 Z"
         transform="matrix(0.33366873,0,0,0.33366873,-403.3125,-373.00001)"
         clip-rule="evenodd"
         id="path44" />
    </clipPath>
    <clipPath
       clipPathUnits="userSpaceOnUse"
       id="clipPath46">
      <path
         d="M 0,0 H 3608.3333 V 1570.4042 H 0 Z"
         transform="matrix(0.33367208,0,0,0.33367208,-0.50000001,-0.50000001)"
         clip-rule="evenodd"
         id="path46" />
    </clipPath>
    <clipPath
       clipPathUnits="userSpaceOnUse"
       id="clipPath48">
      <path
         d="M 0,0 H 3608.3333 V 1570.4042 H 0 Z"
         transform="matrix(0.33367208,0,0,0.33367208,-0.50000001,-0.50000001)"
         clip-rule="evenodd"
         id="path48" />
    </clipPath>
    <clipPath
       clipPathUnits="userSpaceOnUse"
       id="clipPath50">
      <path
         d="M 0,0 H 3608.3333 V 1570.4042 H 0 Z"
         transform="scale(0.33367208)"
         clip-rule="evenodd"
         id="path50" />
    </clipPath>
    <clipPath
       clipPathUnits="userSpaceOnUse"
       id="clipPath51">
      <path
         d="M 0,0 H 3608.3333 V 1570.4042 H 0 Z"
         transform="matrix(0.33366873,0,0,0.33366873,-556.8125,-352)"
         clip-rule="evenodd"
         id="path51" />
    </clipPath>
    <clipPath
       clipPathUnits="userSpaceOnUse"
       id="clipPath52">
      <path
         d="M 0,0 H 3608.3333 V 1570.4042 H 0 Z"
         transform="matrix(0.33366873,0,0,0.33366873,-651.3125,-352)"
         clip-rule="evenodd"
         id="path52" />
    </clipPath>
    <clipPath
       clipPathUnits="userSpaceOnUse"
       id="clipPath53">
      <path
         d="M 0,0 H 3608.3333 V 1570.4042 H 0 Z"
         transform="matrix(0.33366873,0,0,0.33366873,-608.3125,-373.00001)"
         clip-rule="evenodd"
         id="path53" />
    </clipPath>
    <clipPath
       clipPathUnits="userSpaceOnUse"
       id="clipPath55">
      <path
         d="M 0,0 H 3608.3333 V 1570.4042 H 0 Z"
         transform="scale(0.33367208)"
         clip-rule="evenodd"
         id="path55" />
    </clipPath>
    <clipPath
       clipPathUnits="userSpaceOnUse"
       id="clipPath56">
      <path
         d="M 0,0 H 3608.3333 V 1570.4042 H 0 Z"
         transform="matrix(0.33366873,0,0,0.33366873,-134.8125,-482)"
         clip-rule="evenodd"
         id="path56" />
    </clipPath>
    <clipPath
       clipPathUnits="userSpaceOnUse"
       id="clipPath57">
      <path
         d="M 0,0 H 3608.3333 V 1570.4042 H 0 Z"
         transform="matrix(0.33366873,0,0,0.33366873,-166.46875,-503.00001)"
         clip-rule="evenodd"
         id="path57" />
    </clipPath>
    <clipPath
       clipPathUnits="userSpaceOnUse"
       id="clipPath59">
      <path
         d="M 0,0 H 3608.3333 V 1570.4042 H 0 Z"
         transform="scale(0.33367208)"
         clip-rule="evenodd"
         id="path59" />
    </clipPath>
    <clipPath
       clipPathUnits="userSpaceOnUse"
       id="clipPath60">
      <path
         d="M 0,0 H 3608.3333 V 1570.4042 H 0 Z"
         transform="matrix(0.33366873,0,0,0.33366873,-340,-472)"
         clip-rule="evenodd"
         id="path60" />
    </clipPath>
    <clipPath
       clipPathUnits="userSpaceOnUse"
       id="clipPath61">
      <path
         d="M 0,0 H 3608.3333 V 1570.4042 H 0 Z"
         transform="matrix(0.33366873,0,0,0.33366873,-333.90625,-492)"
         clip-rule="evenodd"
         id="path61" />
    </clipPath>
    <clipPath
       clipPathUnits="userSpaceOnUse"
       id="clipPath62">
      <path
         d="M 0,0 H 3608.3333 V 1570.4042 H 0 Z"
         transform="matrix(0.33366873,0,0,0.33366873,-407.07813,-513.00001)"
         clip-rule="evenodd"
         id="path62" />
    </clipPath>
    <clipPath
       clipPathUnits="userSpaceOnUse"
       id="clipPath64">
      <path
         d="M 0,0 H 3608.3333 V 1570.4042 H 0 Z"
         transform="scale(0.33367208)"
         clip-rule="evenodd"
         id="path64" />
    </clipPath>
    <clipPath
       clipPathUnits="userSpaceOnUse"
       id="clipPath65">
      <path
         d="M 0,0 H 3608.3333 V 1570.4042 H 0 Z"
         transform="matrix(0.33366873,0,0,0.33366873,-544.07813,-482)"
         clip-rule="evenodd"
         id="path65" />
    </clipPath>
    <clipPath
       clipPathUnits="userSpaceOnUse"
       id="clipPath66">
      <path
         d="M 0,0 H 3608.3333 V 1570.4042 H 0 Z"
         transform="matrix(0.33366873,0,0,0.33366873,-592.25,-503.00001)"
         clip-rule="evenodd"
         id="path66" />
    </clipPath>
    <clipPath
       clipPathUnits="userSpaceOnUse"
       id="clipPath68">
      <path
         d="M 0,0 H 3608.3333 V 1570.4042 H 0 Z"
         transform="scale(0.33367208)"
         clip-rule="evenodd"
         id="path68" />
    </clipPath>
    <clipPath
       clipPathUnits="userSpaceOnUse"
       id="clipPath69">
      <path
         d="M 0,0 H 3608.3333 V 1570.4042 H 0 Z"
         transform="matrix(0.33366873,0,0,0.33366873,-820.95314,-282)"
         clip-rule="evenodd"
         id="path69" />
    </clipPath>
    <clipPath
       clipPathUnits="userSpaceOnUse"
       id="clipPath70">
      <path
         d="M 0,0 H 3608.3333 V 1570.4042 H 0 Z"
         transform="matrix(0.33366873,0,0,0.33366873,-867.25,-303.00001)"
         clip-rule="evenodd"
         id="path70" />
    </clipPath>
    <clipPath
       clipPathUnits="userSpaceOnUse"
       id="clipPath72">
      <path
         d="M 0,0 H 3608.3333 V 1570.4042 H 0 Z"
         transform="scale(0.33367208)"
         clip-rule="evenodd"
         id="path72" />
    </clipPath>
    <clipPath
       clipPathUnits="userSpaceOnUse"
       id="clipPath73">
      <path
         d="M 0,0 H 3608.3333 V 1570.4042 H 0 Z"
         transform="matrix(0.33366873,0,0,0.33366873,-1014.4844,-282)"
         clip-rule="evenodd"
         id="path73" />
    </clipPath>
    <clipPath
       clipPathUnits="userSpaceOnUse"
       id="clipPath74">
      <path
         d="M 0,0 H 3608.3333 V 1570.4042 H 0 Z"
         transform="matrix(0.33366873,0,0,0.33366873,-1076.2343,-303.00001)"
         clip-rule="evenodd"
         id="path74" />
    </clipPath>
    <clipPath
       clipPathUnits="userSpaceOnUse"
       id="clipPath76">
      <path
         d="M 0,0 H 3608.3333 V 1570.4042 H 0 Z"
         transform="matrix(-0.33367208,0,0,-0.33367208,1102.0201,332.00001)"
         clip-rule="evenodd"
         id="path76" />
    </clipPath>
    <clipPath
       clipPathUnits="userSpaceOnUse"
       id="clipPath77">
      <path
         d="M 0,0 H 3608.3333 V 1570.4042 H 0 Z"
         transform="matrix(0.33366873,0,0,0.33366873,-574.07813,-162)"
         clip-rule="evenodd"
         id="path77" />
    </clipPath>
    <clipPath
       clipPathUnits="userSpaceOnUse"
       id="clipPath78">
      <path
         d="M 0,0 H 3608.3333 V 1570.4042 H 0 Z"
         transform="matrix(0.33366873,0,0,0.33366873,-568.90625,-183.00001)"
         clip-rule="evenodd"
         id="path78" />
    </clipPath>
    <clipPath
       clipPathUnits="userSpaceOnUse"
       id="clipPath80">
      <path
         d="M 0,0 H 3608.3333 V 1570.4042 H 0 Z"
         transform="scale(0.33367208)"
         clip-rule="evenodd"
         id="path80" />
    </clipPath>
    <clipPath
       clipPathUnits="userSpaceOnUse"
       id="clipPath81">
      <path
         d="M 0,0 H 3608.3333 V 1570.4042 H 0 Z"
         transform="matrix(0.33366873,0,0,0.33366873,-24.140625,-352)"
         clip-rule="evenodd"
         id="path81" />
    </clipPath>
    <clipPath
       clipPathUnits="userSpaceOnUse"
       id="clipPath82">
      <path
         d="M 0,0 H 3608.3333 V 1570.4042 H 0 Z"
         transform="matrix(0.33366873,0,0,0.33366873,0.09375,-373.00001)"
         clip-rule="evenodd"
         id="path82" />
    </clipPath>
    <clipPath
       clipPathUnits="userSpaceOnUse"
       id="clipPath84">
      <path
         d="M 0,0 H 3608.3333 V 1570.4042 H 0 Z"
         transform="matrix(0.33367208,0,0,0.33367208,-0.50000001,-0.50000001)"
         clip-rule="evenodd"
         id="path84" />
    </clipPath>
    <clipPath
       clipPathUnits="userSpaceOnUse"
       id="clipPath86">
      <path
         d="M 0,0 H 3608.3333 V 1570.4042 H 0 Z"
         transform="matrix(0.33367208,0,0,0.33367208,-0.50000001,-0.50000001)"
         clip-rule="evenodd"
         id="path86" />
    </clipPath>
    <clipPath
       clipPathUnits="userSpaceOnUse"
       id="clipPath88">
      <path
         d="M 0,0 H 3608.3333 V 1570.4042 H 0 Z"
         transform="matrix(0.33367208,0,0,0.33367208,-0.50000001,-0.50000001)"
         clip-rule="evenodd"
         id="path88" />
    </clipPath>
    <clipPath
       clipPathUnits="userSpaceOnUse"
       id="clipPath90">
      <path
         d="M 0,0 H 3608.3333 V 1570.4042 H 0 Z"
         transform="matrix(0.33367208,0,0,0.33367208,-0.50000001,-0.50000001)"
         clip-rule="evenodd"
         id="path90" />
    </clipPath>
    <clipPath
       clipPathUnits="userSpaceOnUse"
       id="clipPath92">
      <path
         d="M 0,0 H 3608.3333 V 1570.4042 H 0 Z"
         transform="matrix(0.33367208,0,0,0.33367208,-0.50000001,-0.50000001)"
         clip-rule="evenodd"
         id="path92" />
    </clipPath>
    <clipPath
       clipPathUnits="userSpaceOnUse"
       id="clipPath94">
      <path
         d="M 0,0 H 3608.3333 V 1570.4042 H 0 Z"
         transform="matrix(0.33367208,0,0,0.33367208,-0.50000001,-0.50000001)"
         clip-rule="evenodd"
         id="path94" />
    </clipPath>
    <clipPath
       clipPathUnits="userSpaceOnUse"
       id="clipPath96">
      <path
         d="M 0,0 H 3608.3333 V 1570.4042 H 0 Z"
         transform="scale(0.33367208)"
         clip-rule="evenodd"
         id="path96" />
    </clipPath>
    <clipPath
       clipPathUnits="userSpaceOnUse"
       id="clipPath97">
      <path
         d="M 0,0 H 3608.3333 V 1570.4042 H 0 Z"
         transform="matrix(0.33366873,0,0,0.33366873,-340.46875,-217.00001)"
         clip-rule="evenodd"
         id="path97" />
    </clipPath>
    <clipPath
       clipPathUnits="userSpaceOnUse"
       id="clipPath98">
      <path
         d="M 0,0 H 3608.3333 V 1570.4042 H 0 Z"
         transform="matrix(0.33366873,0,0,0.33366873,-352.76563,-237.00001)"
         clip-rule="evenodd"
         id="path98" />
    </clipPath>
    <clipPath
       clipPathUnits="userSpaceOnUse"
       id="clipPath99">
      <path
         d="M 0,0 H 3608.3333 V 1570.4042 H 0 Z"
         transform="matrix(0.33366873,0,0,0.33366873,-388.65625,-258)"
         clip-rule="evenodd"
         id="path99" />
    </clipPath>
  </defs>
  <sodipodi:namedview
     id="namedview1"
     pagecolor="#ffffff"
     bordercolor="#000000"
     borderopacity="0.25"
     inkscape:showpageshadow="2"
     inkscape:pageopacity="0.0"
     inkscape:pagecheckerboard="0"
     inkscape:deskcolor="#d1d1d1">
    <inkscape:page
       x="0"
       y="0"
       inkscape:label="1"
       id="page1"
       width="1154.5601"
       height="504"
       margin="0"
       bleed="0" />
  </sodipodi:namedview>
  <g
     id="g1"
     inkscape:groupmode="layer"
     inkscape:label="1">
    <path
       id="path1"
       d="M 0,0 H 1204 V 525 H 0 Z"
       style="fill:#ffffff;fill-opacity:1;fill-rule:nonzero;stroke:none"
       transform="scale(0.95902537)"
       clip-path="url(#clipPath2)" />
    <path
       id="path3"
       d="m 648.51001,71 -0.01,30 h -222.5 v 19.9"
       style="fill:none;stroke:#000000;stroke-width:1;stroke-linecap:butt;stroke-linejoin:miter;stroke-miterlimit:10;stroke-dasharray:none;stroke-opacity:1"
       transform="matrix(0.95902537,0,0,0.95902537,0.47951269,0.47951269)"
       clip-path="url(#clipPath4)" />
    <path
       id="path5"
       d="m 426,127.65 -4.5,-9 4.5,2.25 4.5,-2.25 z"
       style="fill:#000000;fill-opacity:1;fill-rule:nonzero;stroke:#000000;stroke-width:1;stroke-linecap:butt;stroke-linejoin:miter;stroke-miterlimit:10;stroke-dasharray:none;stroke-opacity:1"
       transform="matrix(0.95902537,0,0,0.95902537,0.47951269,0.47951269)"
       clip-path="url(#clipPath6)" />
    <path
       id="path7"
       d="m 743.51001,71 -0.01,30 H 1006 v 19.9"
       style="fill:none;stroke:#000000;stroke-width:1;stroke-linecap:butt;stroke-linejoin:miter;stroke-miterlimit:10;stroke-dasharray:none;stroke-opacity:1"
       transform="matrix(0.95902537,0,0,0.95902537,0.47951269,0.47951269)"
       clip-path="url(#clipPath8)" />
    <path
       id="path9"
       d="m 1006,127.65 -4.5,-9 4.5,2.25 4.5,-2.25 z"
       style="fill:#000000;fill-opacity:1;fill-rule:nonzero;stroke:#000000;stroke-width:1;stroke-linecap:butt;stroke-linejoin:miter;stroke-miterlimit:10;stroke-dasharray:none;stroke-opacity:1"
       transform="matrix(0.95902537,0,0,0.95902537,0.47951269,0.47951269)"
       clip-path="url(#clipPath10)" />
    <path
       id="path11"
       d="m 601.01001,1 h 190 v 70 h -190 z"
       style="fill:#ffffff;fill-opacity:1;fill-rule:nonzero;stroke:#000000;stroke-width:1;stroke-linecap:butt;stroke-linejoin:miter;stroke-miterlimit:10;stroke-dasharray:none;stroke-opacity:1"
       transform="scale(0.95902537)"
       clip-path="url(#clipPath12)" />
    <text
       id="text12"
       xml:space="preserve"
       transform="matrix(0.959035,0,0,0.959035,630.01108,40.27947)"
       clip-path="url(#clipPath13)"><tspan
         style="font-variant:normal;font-weight:normal;font-size:17px;font-family:Helvetica;writing-mode:lr-tb;fill:#000000;fill-opacity:1;fill-rule:nonzero;stroke:none"
         x="0 11.338867 15.115723 24.570312 34.024902 38.449219 46.949219 56.403809 64.903809 69.626953"
         y="0"
         sodipodi:role="line"
         id="tspan12">Blog Tests</tspan></text>
    <path
       id="path14"
       d="m 331,131 h 190 v 70 H 331 Z"
       style="fill:#dae8fc;fill-opacity:1;fill-rule:nonzero;stroke:#6c8ebf;stroke-width:1;stroke-linecap:butt;stroke-linejoin:miter;stroke-miterlimit:10;stroke-dasharray:none;stroke-opacity:1"
       transform="scale(0.95902537)"
       clip-path="url(#clipPath15)" />
    <text
       id="text15"
       xml:space="preserve"
       transform="matrix(0.959035,0,0,0.959035,348.71412,164.95402)"
       clip-path="url(#clipPath16)"><tspan
         style="font-variant:normal;font-weight:normal;font-size:17px;font-family:Helvetica;writing-mode:lr-tb;fill:#000000;fill-opacity:1;fill-rule:nonzero;stroke:none"
         x="0 16.04541 25.5 34.95459 44.40918 49.132324 58.586914 68.041504 77.496094 86.950684 96.405273 105.85986 110.58301 115.30615"
         y="0"
         sodipodi:role="line"
         id="tspan15">When Logged In</tspan></text>
    <path
       id="path17"
       d="m 958.51001,201 -0.01,25 h -52.5 l 0.01,14.89999"
       style="fill:none;stroke:#000000;stroke-width:1;stroke-linecap:butt;stroke-linejoin:miter;stroke-miterlimit:10;stroke-dasharray:none;stroke-opacity:1"
       transform="matrix(0.95902537,0,0,0.95902537,0.47951269,0.47951269)"
       clip-path="url(#clipPath18)" />
    <path
       id="path19"
       d="m 906.01001,247.64999 -4.51001,-9 4.51001,2.25 4.48999,-2.25 z"
       style="fill:#000000;fill-opacity:1;fill-rule:nonzero;stroke:#000000;stroke-width:1;stroke-linecap:butt;stroke-linejoin:miter;stroke-miterlimit:10;stroke-dasharray:none;stroke-opacity:1"
       transform="matrix(0.95902537,0,0,0.95902537,0.47951269,0.47951269)"
       clip-path="url(#clipPath20)" />
    <path
       id="path21"
       d="m 1053.51,201 -0.01,25 h 52.5 v 14.89999"
       style="fill:none;stroke:#000000;stroke-width:1;stroke-linecap:butt;stroke-linejoin:miter;stroke-miterlimit:10;stroke-dasharray:none;stroke-opacity:1"
       transform="matrix(0.95902537,0,0,0.95902537,0.47951269,0.47951269)"
       clip-path="url(#clipPath22)" />
    <path
       id="path23"
       d="m 1106,247.64999 -4.5,-9 4.5,2.25 4.5,-2.25 z"
       style="fill:#000000;fill-opacity:1;fill-rule:nonzero;stroke:#000000;stroke-width:1;stroke-linecap:butt;stroke-linejoin:miter;stroke-miterlimit:10;stroke-dasharray:none;stroke-opacity:1"
       transform="matrix(0.95902537,0,0,0.95902537,0.47951269,0.47951269)"
       clip-path="url(#clipPath24)" />
    <path
       id="path25"
       d="M 911.01001,131 H 1101.01 v 70 H 911.01001 Z"
       style="fill:#dae8fc;fill-opacity:1;fill-rule:nonzero;stroke:#6c8ebf;stroke-width:1;stroke-linecap:butt;stroke-linejoin:miter;stroke-miterlimit:10;stroke-dasharray:none;stroke-opacity:1"
       transform="scale(0.95902537)"
       clip-path="url(#clipPath26)" />
    <text
       id="text26"
       xml:space="preserve"
       transform="matrix(0.959035,0,0,0.959035,889.10037,164.95402)"
       clip-path="url(#clipPath27)"><tspan
         style="font-variant:normal;font-weight:normal;font-size:17px;font-family:Helvetica;writing-mode:lr-tb;fill:#000000;fill-opacity:1;fill-rule:nonzero;stroke:none"
         x="0 16.04541 25.5 34.95459 44.40918"
         y="0"
         sodipodi:role="line"
         id="tspan26">When </tspan></text>
    <text
       id="text27"
       xml:space="preserve"
       transform="matrix(0.959035,0,0,0.959035,936.22795,164.95402)"
       clip-path="url(#clipPath28)"><tspan
         style="font-variant:normal;font-weight:700;font-size:17px;font-family:Helvetica;writing-mode:lr-tb;fill:#000000;fill-opacity:1;fill-rule:nonzero;stroke:none"
         x="0 12.276855 22.661133"
         y="0"
         sodipodi:role="line"
         id="tspan27">Not</tspan></text>
    <text
       id="text28"
       xml:space="preserve"
       transform="matrix(0.959035,0,0,0.959035,967.92528,164.95402)"
       clip-path="url(#clipPath29)"><tspan
         style="font-variant:normal;font-weight:normal;font-size:17px;font-family:Helvetica;writing-mode:lr-tb;fill:#000000;fill-opacity:1;fill-rule:nonzero;stroke:none"
         x="0 9.4545898 18.90918 28.36377 37.818359 47.272949 56.727539 61.450684 66.173828"
         y="0"
         sodipodi:role="line"
         id="tspan28">Logged In</tspan></text>
    <path
       id="path30"
       d="m 131,321 h 190 v 70 H 131 Z"
       style="fill:#d5e8d4;fill-opacity:1;fill-rule:nonzero;stroke:#82b366;stroke-width:1;stroke-linecap:butt;stroke-linejoin:miter;stroke-miterlimit:10;stroke-dasharray:none;stroke-opacity:1"
       transform="scale(0.95902537)"
       clip-path="url(#clipPath31)" />
    <text
       id="text31"
       xml:space="preserve"
       transform="matrix(0.959035,0,0,0.959035,154.20983,347.17067)"
       clip-path="url(#clipPath32)"><tspan
         style="font-variant:normal;font-weight:normal;font-size:17px;font-family:Helvetica;writing-mode:lr-tb;fill:#000000;fill-opacity:1;fill-rule:nonzero;stroke:none"
         x="0 12.276855 21.731445 31.186035 35.90918 44.40918 53.86377 63.318359 68.041504 72.764648 82.219238 91.673828 96.396973 101.12012 110.57471 116.23584"
         y="0"
         sodipodi:role="line"
         id="tspan31">Can see the form</tspan></text>
    <path
       id="path33"
       d="m 378.5,391 v 30 H 226 v 19.89999"
       style="fill:none;stroke:#000000;stroke-width:1;stroke-linecap:butt;stroke-linejoin:miter;stroke-miterlimit:10;stroke-dasharray:none;stroke-opacity:1"
       transform="matrix(0.95902537,0,0,0.95902537,0.47951269,0.47951269)"
       clip-path="url(#clipPath34)" />
    <path
       id="path35"
       d="m 226,447.64999 -4.5,-9 4.5,2.25 4.5,-2.25 z"
       style="fill:#000000;fill-opacity:1;fill-rule:nonzero;stroke:#000000;stroke-width:1;stroke-linecap:butt;stroke-linejoin:miter;stroke-miterlimit:10;stroke-dasharray:none;stroke-opacity:1"
       transform="matrix(0.95902537,0,0,0.95902537,0.47951269,0.47951269)"
       clip-path="url(#clipPath36)" />
    <path
       id="path37"
       d="m 473.5,391 v 30 H 426 v 19.89999"
       style="fill:none;stroke:#000000;stroke-width:1;stroke-linecap:butt;stroke-linejoin:miter;stroke-miterlimit:10;stroke-dasharray:none;stroke-opacity:1"
       transform="matrix(0.95902537,0,0,0.95902537,0.47951269,0.47951269)"
       clip-path="url(#clipPath38)" />
    <path
       id="path39"
       d="m 426,447.64999 -4.5,-9 4.5,2.25 4.5,-2.25 z"
       style="fill:#000000;fill-opacity:1;fill-rule:nonzero;stroke:#000000;stroke-width:1;stroke-linecap:butt;stroke-linejoin:miter;stroke-miterlimit:10;stroke-dasharray:none;stroke-opacity:1"
       transform="matrix(0.95902537,0,0,0.95902537,0.47951269,0.47951269)"
       clip-path="url(#clipPath40)" />
    <path
       id="path41"
       d="m 331,321 h 190 v 70 H 331 Z"
       style="fill:#dae8fc;fill-opacity:1;fill-rule:nonzero;stroke:#6c8ebf;stroke-width:1;stroke-linecap:butt;stroke-linejoin:miter;stroke-miterlimit:10;stroke-dasharray:none;stroke-opacity:1"
       transform="scale(0.95902537)"
       clip-path="url(#clipPath42)" />
    <text
       id="text42"
       xml:space="preserve"
       transform="matrix(0.959035,0,0,0.959035,327.90006,337.58032)"
       clip-path="url(#clipPath43)"><tspan
         style="font-variant:normal;font-weight:normal;font-size:17px;font-family:Helvetica;writing-mode:lr-tb;fill:#000000;fill-opacity:1;fill-rule:nonzero;stroke:none"
         x="0 16.04541 25.5 34.95459 44.40918 49.132324 58.586914 67.086914 70.86377 80.318359 89.772949 94.496094 102.99609 112.45068 116.22754 120.00439 129.45898 134.18213 138.90527 148.35986 154.021"
         y="0"
         sodipodi:role="line"
         id="tspan42">When using valid form</tspan></text>
    <text
       id="text43"
       xml:space="preserve"
       transform="matrix(0.959035,0,0,0.959035,386.7908,357.72006)"
       clip-path="url(#clipPath44)"><tspan
         style="font-variant:normal;font-weight:normal;font-size:17px;font-family:Helvetica;writing-mode:lr-tb;fill:#000000;fill-opacity:1;fill-rule:nonzero;stroke:none"
         x="0 3.7768555 13.231445 22.686035 32.140625 36.86377"
         y="0"
         sodipodi:role="line"
         id="tspan43">inputs</tspan></text>
    <path
       id="path45"
       d="m 631.01001,391 v 49.89999"
       style="fill:none;stroke:#000000;stroke-width:1;stroke-linecap:butt;stroke-linejoin:miter;stroke-miterlimit:10;stroke-dasharray:none;stroke-opacity:1"
       transform="matrix(0.95902537,0,0,0.95902537,0.47951269,0.47951269)"
       clip-path="url(#clipPath46)" />
    <path
       id="path47"
       d="m 631.01001,447.64999 -4.5,-9 4.5,2.25 4.5,-2.25 z"
       style="fill:#000000;fill-opacity:1;fill-rule:nonzero;stroke:#000000;stroke-width:1;stroke-linecap:butt;stroke-linejoin:miter;stroke-miterlimit:10;stroke-dasharray:none;stroke-opacity:1"
       transform="matrix(0.95902537,0,0,0.95902537,0.47951269,0.47951269)"
       clip-path="url(#clipPath48)" />
    <path
       id="path49"
       d="m 536.01001,321 h 190 v 70 h -190 z"
       style="fill:#dae8fc;fill-opacity:1;fill-rule:nonzero;stroke:#6c8ebf;stroke-width:1;stroke-linecap:butt;stroke-linejoin:miter;stroke-miterlimit:10;stroke-dasharray:none;stroke-opacity:1"
       transform="scale(0.95902537)"
       clip-path="url(#clipPath50)" />
    <text
       id="text50"
       xml:space="preserve"
       transform="matrix(0.959035,0,0,0.959035,534.00268,337.58032)"
       clip-path="url(#clipPath51)"><tspan
         style="font-variant:normal;font-weight:normal;font-size:17px;font-family:Helvetica;writing-mode:lr-tb;fill:#000000;fill-opacity:1;fill-rule:nonzero;stroke:none"
         x="0 16.04541 25.5 34.95459 44.40918 49.132324 58.586914 67.086914 70.86377 80.318359 89.772949"
         y="0"
         sodipodi:role="line"
         id="tspan50">When using </tspan></text>
    <text
       id="text51"
       xml:space="preserve"
       transform="matrix(0.959035,0,0,0.959035,624.63148,337.58032)"
       clip-path="url(#clipPath52)"><tspan
         style="font-variant:normal;font-weight:700;font-size:17px;font-family:Helvetica;writing-mode:lr-tb;fill:#000000;fill-opacity:1;fill-rule:nonzero;stroke:none"
         x="0 4.7231445 15.107422 24.562012 34.016602 38.739746 43.462891"
         y="0"
         sodipodi:role="line"
         id="tspan51">invalid</tspan></text>
    <text
       id="text52"
       xml:space="preserve"
       transform="matrix(0.959035,0,0,0.959035,583.39298,357.72006)"
       clip-path="url(#clipPath53)"><tspan
         style="font-variant:normal;font-weight:normal;font-size:17px;font-family:Helvetica;writing-mode:lr-tb;fill:#000000;fill-opacity:1;fill-rule:nonzero;stroke:none"
         x="0 3.7768555 13.231445 22.686035 32.140625 36.86377"
         y="0"
         sodipodi:role="line"
         id="tspan52">inputs</tspan></text>
    <path
       id="path54"
       d="m 131,451 h 190 v 70 H 131 Z"
       style="fill:#d5e8d4;fill-opacity:1;fill-rule:nonzero;stroke:#82b366;stroke-width:1;stroke-linecap:butt;stroke-linejoin:miter;stroke-miterlimit:10;stroke-dasharray:none;stroke-opacity:1"
       transform="scale(0.95902537)"
       clip-path="url(#clipPath55)" />
    <text
       id="text55"
       xml:space="preserve"
       transform="matrix(0.959035,0,0,0.959035,129.28991,462.25487)"
       clip-path="url(#clipPath56)"><tspan
         style="font-variant:normal;font-weight:normal;font-size:17px;font-family:Helvetica;writing-mode:lr-tb;fill:#000000;fill-opacity:1;fill-rule:nonzero;stroke:none"
         x="0 11.338867 20.793457 30.248047 44.40918 48.186035 52.90918 57.632324 61.40918 70.86377 80.318359 85.041504 89.764648 99.219238 107.71924 117.17383 125.67383 130.39697 139.85156 148.35156 157.80615 163.46729 168.19043 172.91357"
         y="0"
         sodipodi:role="line"
         id="tspan55">Submitting takes user to</tspan></text>
    <text
       id="text56"
       xml:space="preserve"
       transform="matrix(0.959035,0,0,0.959035,159.64936,482.39461)"
       clip-path="url(#clipPath57)"><tspan
         style="font-variant:normal;font-weight:normal;font-size:17px;font-family:Helvetica;writing-mode:lr-tb;fill:#000000;fill-opacity:1;fill-rule:nonzero;stroke:none"
         x="0 9.4545898 14.177734 19.838867 29.293457 37.793457 41.570312 51.024902 63.301758 68.024902 76.524902 85.024902 90.686035 100.14062 109.59521"
         y="0"
         sodipodi:role="line"
         id="tspan56">a review screen</tspan></text>
    <path
       id="path58"
       d="m 331,451 h 190 v 70 H 331 Z"
       style="fill:#d5e8d4;fill-opacity:1;fill-rule:nonzero;stroke:#82b366;stroke-width:1;stroke-linecap:butt;stroke-linejoin:miter;stroke-miterlimit:10;stroke-dasharray:none;stroke-opacity:1"
       transform="scale(0.95902537)"
       clip-path="url(#clipPath59)" />
    <text
       id="text59"
       xml:space="preserve"
       transform="matrix(0.959035,0,0,0.959035,326.0719,452.66452)"
       clip-path="url(#clipPath60)"><tspan
         style="font-variant:normal;font-weight:normal;font-size:17px;font-family:Helvetica;writing-mode:lr-tb;fill:#000000;fill-opacity:1;fill-rule:nonzero;stroke:none"
         x="0 11.338867 20.793457 30.248047 44.40918 48.186035 52.90918 57.632324 61.40918 70.86377 80.318359 85.041504 89.764648 99.219238 108.67383 118.12842 122.85156 131.35156 140.80615 149.30615 153.08301 162.5376"
         y="0"
         sodipodi:role="line"
         id="tspan59">Submitting then saving</tspan></text>
    <text
       id="text60"
       xml:space="preserve"
       transform="matrix(0.959035,0,0,0.959035,320.22778,471.84522)"
       clip-path="url(#clipPath61)"><tspan
         style="font-variant:normal;font-weight:normal;font-size:17px;font-family:Helvetica;writing-mode:lr-tb;fill:#000000;fill-opacity:1;fill-rule:nonzero;stroke:none"
         x="0 9.4545898 18.90918 28.36377 36.86377 41.586914 51.041504 54.818359 64.272949 73.727539 78.450684 83.173828 92.628418 97.351562 100.59717 111.93604 115.71289 125.16748 134.62207 139.34521 144.06836 153.52295 162.97754 172.43213 180.93213"
         y="0"
         sodipodi:role="line"
         id="tspan60">adds blog to 'Blog Index'</tspan></text>
    <text
       id="text61"
       xml:space="preserve"
       transform="matrix(0.959035,0,0,0.959035,390.40217,491.98496)"
       clip-path="url(#clipPath62)"><tspan
         style="font-variant:normal;font-weight:normal;font-size:17px;font-family:Helvetica;writing-mode:lr-tb;fill:#000000;fill-opacity:1;fill-rule:nonzero;stroke:none"
         x="0 9.4545898 18.90918 28.36377"
         y="0"
         sodipodi:role="line"
         id="tspan61">page</tspan></text>
    <path
       id="path63"
       d="m 536.01001,451 h 190 v 70 h -190 z"
       style="fill:#d5e8d4;fill-opacity:1;fill-rule:nonzero;stroke:#82b366;stroke-width:1;stroke-linecap:butt;stroke-linejoin:miter;stroke-miterlimit:10;stroke-dasharray:none;stroke-opacity:1"
       transform="scale(0.95902537)"
       clip-path="url(#clipPath64)" />
    <text
       id="text64"
       xml:space="preserve"
       transform="matrix(0.959035,0,0,0.959035,521.78997,462.25487)"
       clip-path="url(#clipPath65)"><tspan
         style="font-variant:normal;font-weight:normal;font-size:17px;font-family:Helvetica;writing-mode:lr-tb;fill:#000000;fill-opacity:1;fill-rule:nonzero;stroke:none"
         x="0 11.338867 20.793457 30.248047 44.40918 48.186035 52.90918 57.632324 61.40918 70.86377 80.318359 85.041504 93.541504 102.99609 112.45068 124.72754 133.22754 137.95068 147.40527 153.06641 158.72754 168.18213"
         y="0"
         sodipodi:role="line"
         id="tspan64">Submitting shows error</tspan></text>
    <text
       id="text65"
       xml:space="preserve"
       transform="matrix(0.959035,0,0,0.959035,567.98848,482.39461)"
       clip-path="url(#clipPath66)"><tspan
         style="font-variant:normal;font-weight:normal;font-size:17px;font-family:Helvetica;writing-mode:lr-tb;fill:#000000;fill-opacity:1;fill-rule:nonzero;stroke:none"
         x="0 14.161133 23.615723 32.115723 40.615723 50.070312 59.524902 68.979492"
         y="0"
         sodipodi:role="line"
         id="tspan65">messages</tspan></text>
    <path
       id="path67"
       d="M 811.01001,251 H 1001.01 v 70 H 811.01001 Z"
       style="fill:#d5e8d4;fill-opacity:1;fill-rule:nonzero;stroke:#82b366;stroke-width:1;stroke-linecap:butt;stroke-linejoin:miter;stroke-miterlimit:10;stroke-dasharray:none;stroke-opacity:1"
       transform="scale(0.95902537)"
       clip-path="url(#clipPath68)" />
    <text
       id="text68"
       xml:space="preserve"
       transform="matrix(0.959035,0,0,0.959035,787.32279,270.44787)"
       clip-path="url(#clipPath69)"><tspan
         style="font-variant:normal;font-weight:normal;font-size:17px;font-family:Helvetica;writing-mode:lr-tb;fill:#000000;fill-opacity:1;fill-rule:nonzero;stroke:none"
         x="0 12.276855 17.937988 27.392578 36.847168 41.570312 45.347168 54.801758 64.256348 68.979492 78.434082 83.157227 92.611816 102.06641 110.56641 115.28955 120.0127 125.67383 135.12842 143.62842 153.08301 156.85986 161.58301"
         y="0"
         sodipodi:role="line"
         id="tspan68">Creating a post results</tspan></text>
    <text
       id="text69"
       xml:space="preserve"
       transform="matrix(0.959035,0,0,0.959035,831.7231,290.58761)"
       clip-path="url(#clipPath70)"><tspan
         style="font-variant:normal;font-weight:normal;font-size:17px;font-family:Helvetica;writing-mode:lr-tb;fill:#000000;fill-opacity:1;fill-rule:nonzero;stroke:none"
         x="0 3.7768555 13.231445 17.95459 27.40918 36.86377 41.586914 51.041504 56.702637 62.36377 71.818359"
         y="0"
         sodipodi:role="line"
         id="tspan69">in an error</tspan></text>
    <path
       id="path71"
       d="m 1011.01,251 h 190 v 70 h -190 z"
       style="fill:#d5e8d4;fill-opacity:1;fill-rule:nonzero;stroke:#82b366;stroke-width:1;stroke-linecap:butt;stroke-linejoin:miter;stroke-miterlimit:10;stroke-dasharray:none;stroke-opacity:1"
       transform="scale(0.95902537)"
       clip-path="url(#clipPath72)" />
    <text
       id="text72"
       xml:space="preserve"
       transform="matrix(0.959035,0,0,0.959035,972.92603,270.44787)"
       clip-path="url(#clipPath73)"><tspan
         style="font-variant:normal;font-weight:normal;font-size:17px;font-family:Helvetica;writing-mode:lr-tb;fill:#000000;fill-opacity:1;fill-rule:nonzero;stroke:none"
         x="0 11.040039 14.816895 24.271484 36.54834 40.325195 49.779785 59.234375 63.95752 73.412109 78.135254 87.589844 97.044434 105.54443 110.26758 114.99072 120.65186 130.10645 138.60645 148.06104 151.83789 156.56104 165.06104 169.78418 173.56104"
         y="0"
         sodipodi:role="line"
         id="tspan72">Viewing a post results in</tspan></text>
    <text
       id="text73"
       xml:space="preserve"
       transform="matrix(0.959035,0,0,0.959035,1032.1464,290.58761)"
       clip-path="url(#clipPath74)"><tspan
         style="font-variant:normal;font-weight:normal;font-size:17px;font-family:Helvetica;writing-mode:lr-tb;fill:#000000;fill-opacity:1;fill-rule:nonzero;stroke:none"
         x="0 9.4545898 18.90918 23.632324 33.086914 38.748047 44.40918 53.86377"
         y="0"
         sodipodi:role="line"
         id="tspan73">an error</tspan></text>
    <path
       id="path75"
       d="m 571.01001,131 h -10 c -6.66669,0 -10,3.33333 -10,10 v 15 c 0,6.66667 -3.33331,10 -10,10 h -5 c -3.33331,0 -1.66669,0 5,0 h 5 c 3.33331,0 5,3.33333 5,10 v 15 c 0,6.66667 3.33331,10 10,10 h 10"
       style="fill:none;stroke:#000000;stroke-width:1;stroke-linecap:butt;stroke-linejoin:miter;stroke-miterlimit:10;stroke-dasharray:none;stroke-opacity:1"
       transform="matrix(-0.95902537,0,0,-0.95902537,1056.8652,318.39643)"
       clip-path="url(#clipPath76)" />
    <text
       id="text76"
       xml:space="preserve"
       transform="matrix(0.959035,0,0,0.959035,550.56102,155.36367)"
       clip-path="url(#clipPath77)"><tspan
         style="font-variant:normal;font-weight:700;font-size:17px;font-family:Helvetica;writing-mode:lr-tb;fill:#000000;fill-opacity:1;fill-rule:nonzero;stroke:none"
         x="0 12.276855 21.731445 31.186035 40.640625 47.256348 51.979492 62.36377"
         y="0"
         sodipodi:role="line"
         id="tspan76">Describe</tspan></text>
    <text
       id="text77"
       xml:space="preserve"
       transform="matrix(0.959035,0,0,0.959035,545.60101,175.50341)"
       clip-path="url(#clipPath78)"><tspan
         style="font-variant:normal;font-weight:700;font-size:17px;font-family:Helvetica;writing-mode:lr-tb;fill:#000000;fill-opacity:1;fill-rule:nonzero;stroke:none"
         x="0 11.338867 17 26.45459 32.115723 41.570312 56.686035 66.140625 76.524902"
         y="0"
         sodipodi:role="line"
         id="tspan77">Statement</tspan></text>
    <path
       id="path79"
       d="m 121,321 h -10 c -6.66666,0 -10,3.33334 -10,10 v 15 c 0,6.66666 -3.333336,10 -10,10 h -5 c -3.333336,0 -1.666664,0 5,0 h 5 c 3.333336,0 5,3.33334 5,10 v 15 c 0,6.66666 3.33334,10 10,10 h 10"
       style="fill:none;stroke:#000000;stroke-width:1;stroke-linecap:butt;stroke-linejoin:miter;stroke-miterlimit:10;stroke-dasharray:none;stroke-opacity:1"
       transform="scale(0.95902537)"
       clip-path="url(#clipPath80)" />
    <text
       id="text80"
       xml:space="preserve"
       transform="matrix(0.959035,0,0,0.959035,23.151704,337.58032)"
       clip-path="url(#clipPath81)"><tspan
         style="font-variant:normal;font-weight:700;font-size:17px;font-family:Helvetica;writing-mode:lr-tb;fill:#000000;fill-opacity:1;fill-rule:nonzero;stroke:none"
         x="0 9.1308594 18.585449 28.040039"
         y="0"
         sodipodi:role="line"
         id="tspan80">Test</tspan></text>
    <text
       id="text81"
       xml:space="preserve"
       transform="matrix(0.959035,0,0,0.959035,-0.08990953,357.72006)"
       clip-path="url(#clipPath82)"><tspan
         style="font-variant:normal;font-weight:700;font-size:17px;font-family:Helvetica;writing-mode:lr-tb;fill:#000000;fill-opacity:1;fill-rule:nonzero;stroke:none"
         x="0 11.338867 17 26.45459 32.115723 41.570312 56.686035 66.140625 76.524902"
         y="0"
         sodipodi:role="line"
         id="tspan81">Statement</tspan></text>
    <path
       id="path83"
       d="m 378.5,261 v 30 H 226 v 19.89999"
       style="fill:none;stroke:#000000;stroke-width:1;stroke-linecap:butt;stroke-linejoin:miter;stroke-miterlimit:10;stroke-dasharray:none;stroke-opacity:1"
       transform="matrix(0.95902537,0,0,0.95902537,0.47951269,0.47951269)"
       clip-path="url(#clipPath84)" />
    <path
       id="path85"
       d="m 226,317.64999 -4.5,-9 4.5,2.25 4.5,-2.25 z"
       style="fill:#000000;fill-opacity:1;fill-rule:nonzero;stroke:#000000;stroke-width:1;stroke-linecap:butt;stroke-linejoin:miter;stroke-miterlimit:10;stroke-dasharray:none;stroke-opacity:1"
       transform="matrix(0.95902537,0,0,0.95902537,0.47951269,0.47951269)"
       clip-path="url(#clipPath86)" />
    <path
       id="path87"
       d="m 426,261 v 49.89999"
       style="fill:none;stroke:#000000;stroke-width:1;stroke-linecap:butt;stroke-linejoin:miter;stroke-miterlimit:10;stroke-dasharray:none;stroke-opacity:1"
       transform="matrix(0.95902537,0,0,0.95902537,0.47951269,0.47951269)"
       clip-path="url(#clipPath88)" />
    <path
       id="path89"
       d="m 426,317.64999 -4.5,-9 4.5,2.25 4.5,-2.25 z"
       style="fill:#000000;fill-opacity:1;fill-rule:nonzero;stroke:#000000;stroke-width:1;stroke-linecap:butt;stroke-linejoin:miter;stroke-miterlimit:10;stroke-dasharray:none;stroke-opacity:1"
       transform="matrix(0.95902537,0,0,0.95902537,0.47951269,0.47951269)"
       clip-path="url(#clipPath90)" />
    <path
       id="path91"
       d="m 473.5,261 v 30 H 631 v 19.89999"
       style="fill:none;stroke:#000000;stroke-width:1;stroke-linecap:butt;stroke-linejoin:miter;stroke-miterlimit:10;stroke-dasharray:none;stroke-opacity:1"
       transform="matrix(0.95902537,0,0,0.95902537,0.47951269,0.47951269)"
       clip-path="url(#clipPath92)" />
    <path
       id="path93"
       d="m 631,317.64999 -4.5,-9 4.5,2.25 4.5,-2.25 z"
       style="fill:#000000;fill-opacity:1;fill-rule:nonzero;stroke:#000000;stroke-width:1;stroke-linecap:butt;stroke-linejoin:miter;stroke-miterlimit:10;stroke-dasharray:none;stroke-opacity:1"
       transform="matrix(0.95902537,0,0,0.95902537,0.47951269,0.47951269)"
       clip-path="url(#clipPath94)" />
    <path
       id="path95"
       d="m 331,201 h 190 v 60 H 331 Z"
       style="fill:#dae8fc;fill-opacity:1;fill-rule:nonzero;stroke:#6c8ebf;stroke-width:1;stroke-linecap:butt;stroke-linejoin:miter;stroke-miterlimit:10;stroke-dasharray:none;stroke-opacity:1"
       transform="scale(0.95902537)"
       clip-path="url(#clipPath96)" />
    <text
       id="text96"
       xml:space="preserve"
       transform="matrix(0.959035,0,0,0.959035,326.52145,208.1106)"
       clip-path="url(#clipPath97)"><tspan
         style="font-variant:normal;font-weight:normal;font-size:17px;font-family:Helvetica;writing-mode:lr-tb;fill:#000000;fill-opacity:1;fill-rule:nonzero;stroke:none"
         x="0 11.338867 20.793457 25.516602 34.971191 40.632324 50.086914 61.425781 70.880371 79.380371 88.834961 93.558105 104.89697 109.62012 119.07471 123.79785 133.25244 147.41357 156.86816 166.32275"
         y="0"
         sodipodi:role="line"
         id="tspan96">BeforeEach Statement</tspan></text>
    <text
       id="text97"
       xml:space="preserve"
       transform="matrix(0.959035,0,0,0.959035,338.31459,227.2913)"
       clip-path="url(#clipPath98)"><tspan
         style="font-variant:normal;font-weight:normal;font-size:17px;font-family:Helvetica;writing-mode:lr-tb;fill:#000000;fill-opacity:1;fill-rule:nonzero;stroke:none"
         x="0 8.5 17.95459 32.115723 46.276855 55.731445 65.186035 69.90918 74.632324 84.086914 88.810059 98.264648 102.0415 105.81836 110.5415 115.26465 124.71924 133.21924 137.94238"
         y="0"
         sodipodi:role="line"
         id="tspan97">common to all tests</tspan></text>
    <text
       id="text98"
       xml:space="preserve"
       transform="matrix(0.959035,0,0,0.959035,372.73495,247.43103)"
       clip-path="url(#clipPath99)"><tspan
         style="font-variant:normal;font-weight:normal;font-size:17px;font-family:Helvetica;writing-mode:lr-tb;fill:#000000;fill-opacity:1;fill-rule:nonzero;stroke:none"
         x="0 9.4545898 18.90918 28.36377 37.818359 43.479492 48.202637 52.925781 62.380371 66.157227"
         y="0"
         sodipodi:role="line"
         id="tspan98">under this</tspan></text>
  </g>
</svg>
