<?xml version="1.0" encoding="UTF-8" standalone="no"?>
<!-- Created with Inkscape (http://www.inkscape.org/) -->

<svg
   version="1.1"
   id="svg1"
   width="534.71997"
   height="405.44"
   viewBox="0 0 534.71997 405.44"
   sodipodi:docname="node-4.pdf"
   xmlns:inkscape="http://www.inkscape.org/namespaces/inkscape"
   xmlns:sodipodi="http://sodipodi.sourceforge.net/DTD/sodipodi-0.dtd"
   xmlns="http://www.w3.org/2000/svg"
   xmlns:svg="http://www.w3.org/2000/svg">
  <defs
     id="defs1">
    <clipPath
       clipPathUnits="userSpaceOnUse"
       id="clipPath2">
      <path
         d="M 0,0 H 1670.8334 V 1265.8738 H 0 Z"
         transform="scale(0.33336658)"
         clip-rule="evenodd"
         id="path2" />
    </clipPath>
    <clipPath
       clipPathUnits="userSpaceOnUse"
       id="clipPath4">
      <path
         d="M 0,0 H 1670.8334 V 1262.874 H 0 Z"
         transform="scale(0.33336658)"
         clip-rule="evenodd"
         id="path4" />
    </clipPath>
    <clipPath
       clipPathUnits="userSpaceOnUse"
       id="clipPath5">
      <path
         d="M 0,0 H 1670.8334 V 1262.874 H 0 Z"
         transform="matrix(0.33336325,0,0,0.33336325,-73.296875,-414.99999)"
         clip-rule="evenodd"
         id="path5" />
    </clipPath>
    <clipPath
       clipPathUnits="userSpaceOnUse"
       id="clipPath7">
      <path
         d="M 0,0 H 1670.8334 V 1262.874 H 0 Z"
         transform="scale(0.33336658)"
         clip-rule="evenodd"
         id="path7" />
    </clipPath>
    <clipPath
       clipPathUnits="userSpaceOnUse"
       id="clipPath8">
      <path
         d="M 0,0 H 1670.8334 V 1262.874 H 0 Z"
         transform="matrix(0.33336325,0,0,0.33336325,-105,-267)"
         clip-rule="evenodd"
         id="path8" />
    </clipPath>
    <clipPath
       clipPathUnits="userSpaceOnUse"
       id="clipPath10">
      <path
         d="M 0,0 H 1670.8334 V 1262.874 H 0 Z"
         transform="scale(0.33336658)"
         clip-rule="evenodd"
         id="path10" />
    </clipPath>
    <clipPath
       clipPathUnits="userSpaceOnUse"
       id="clipPath11">
      <path
         d="M 0,0 H 1670.8334 V 1262.874 H 0 Z"
         transform="matrix(0.33336325,0,0,0.33336325,-81.25,-353)"
         clip-rule="evenodd"
         id="path11" />
    </clipPath>
    <clipPath
       clipPathUnits="userSpaceOnUse"
       id="clipPath13">
      <path
         d="M 0,0 H 1670.8334 V 1262.874 H 0 Z"
         transform="scale(0.33336658)"
         clip-rule="evenodd"
         id="path13" />
    </clipPath>
    <clipPath
       clipPathUnits="userSpaceOnUse"
       id="clipPath14">
      <path
         d="M 0,0 H 1670.8334 V 1262.874 H 0 Z"
         transform="matrix(0.33336325,0,0,0.33336325,-343.9375,-414.99999)"
         clip-rule="evenodd"
         id="path14" />
    </clipPath>
    <clipPath
       clipPathUnits="userSpaceOnUse"
       id="clipPath16">
      <path
         d="M 0,0 H 1670.8334 V 1262.874 H 0 Z"
         transform="scale(0.33336658)"
         clip-rule="evenodd"
         id="path16" />
    </clipPath>
    <clipPath
       clipPathUnits="userSpaceOnUse"
       id="clipPath17">
      <path
         d="M 0,0 H 1670.8334 V 1262.874 H 0 Z"
         transform="matrix(0.33336325,0,0,0.33336325,-407.42188,-267)"
         clip-rule="evenodd"
         id="path17" />
    </clipPath>
    <clipPath
       clipPathUnits="userSpaceOnUse"
       id="clipPath19">
      <path
         d="M 0,0 H 1670.8334 V 1262.874 H 0 Z"
         transform="matrix(0.33336658,0,0,0.33336658,-0.49999999,-0.49999999)"
         clip-rule="evenodd"
         id="path19" />
    </clipPath>
    <clipPath
       clipPathUnits="userSpaceOnUse"
       id="clipPath21">
      <path
         d="M 0,0 H 1670.8334 V 1262.874 H 0 Z"
         transform="matrix(0.33336658,0,0,0.33336658,-0.49999999,-0.49999999)"
         clip-rule="evenodd"
         id="path21" />
    </clipPath>
    <clipPath
       clipPathUnits="userSpaceOnUse"
       id="clipPath23">
      <path
         d="M 0,0 H 1670.8334 V 1262.874 H 0 Z"
         transform="matrix(0.33336658,0,0,0.33336658,-0.49999999,-0.49999999)"
         clip-rule="evenodd"
         id="path23" />
    </clipPath>
    <clipPath
       clipPathUnits="userSpaceOnUse"
       id="clipPath25">
      <path
         d="M 0,0 H 1670.8334 V 1262.874 H 0 Z"
         transform="matrix(0.33336658,0,0,0.33336658,-0.49999999,-0.49999999)"
         clip-rule="evenodd"
         id="path25" />
    </clipPath>
    <clipPath
       clipPathUnits="userSpaceOnUse"
       id="clipPath27">
      <path
         d="M 0,0 H 1670.8334 V 1262.874 H 0 Z"
         transform="scale(0.33336658)"
         clip-rule="evenodd"
         id="path27" />
    </clipPath>
    <clipPath
       clipPathUnits="userSpaceOnUse"
       id="clipPath28">
      <path
         d="M 0,0 H 1670.8334 V 1262.874 H 0 Z"
         transform="matrix(0.33336325,0,0,0.33336325,-253.20313,-117)"
         clip-rule="evenodd"
         id="path28" />
    </clipPath>
    <clipPath
       clipPathUnits="userSpaceOnUse"
       id="clipPath30">
      <path
         d="M 0,0 H 1670.8334 V 1262.874 H 0 Z"
         transform="matrix(0.33336658,0,0,0.33336658,-0.49999999,-0.49999999)"
         clip-rule="evenodd"
         id="path30" />
    </clipPath>
    <clipPath
       clipPathUnits="userSpaceOnUse"
       id="clipPath32">
      <path
         d="M 0,0 H 1670.8334 V 1262.874 H 0 Z"
         transform="matrix(0.33336658,0,0,0.33336658,-0.49999999,-0.49999999)"
         clip-rule="evenodd"
         id="path32" />
    </clipPath>
    <clipPath
       clipPathUnits="userSpaceOnUse"
       id="clipPath33">
      <path
         d="M 0,0 H 1670.8334 V 1262.874 H 0 Z"
         transform="matrix(0.33336325,0,0,0.33336325,-230.21875,-22)"
         clip-rule="evenodd"
         id="path33" />
    </clipPath>
  </defs>
  <sodipodi:namedview
     id="namedview1"
     pagecolor="#ffffff"
     bordercolor="#000000"
     borderopacity="0.25"
     inkscape:showpageshadow="2"
     inkscape:pageopacity="0.0"
     inkscape:pagecheckerboard="0"
     inkscape:deskcolor="#d1d1d1">
    <inkscape:page
       x="0"
       y="0"
       inkscape:label="1"
       id="page1"
       width="534.71997"
       height="405.44"
       margin="0"
       bleed="0" />
  </sodipodi:namedview>
  <g
     id="g1"
     inkscape:groupmode="layer"
     inkscape:label="1">
    <path
       id="path1"
       d="M 0,0 H 557 V 422 H 0 Z"
       style="fill:#ffffff;fill-opacity:1;fill-rule:nonzero;stroke:none"
       transform="scale(0.95990422)"
       clip-path="url(#clipPath2)" />
    <path
       id="path3"
       d="M 1,210 H 251 V 390 H 1 Z"
       style="fill:#ffffff;fill-opacity:1;fill-rule:nonzero;stroke:#000000;stroke-width:1;stroke-linecap:butt;stroke-linejoin:miter;stroke-miterlimit:10;stroke-dasharray:none;stroke-opacity:1"
       transform="scale(0.95990422)"
       clip-path="url(#clipPath4)" />
    <text
       id="text4"
       xml:space="preserve"
       transform="matrix(0.95991382,0,0,0.95991382,70.358683,398.36423)"
       clip-path="url(#clipPath5)"><tspan
         style="font-variant:normal;font-weight:700;font-size:19px;font-family:Helvetica;writing-mode:lr-tb;fill:#000000;fill-opacity:1;fill-rule:nonzero;stroke:none"
         x="0 12.672852 23.239746 34.845703 45.412598 50.691406 64.412598 69.691406 80.258301 90.825195"
         y="0"
         sodipodi:role="line"
         id="tspan4">Page Class</tspan></text>
    <path
       id="path6"
       d="m 26,230 h 195 v 60 H 26 Z"
       style="fill:#ffffff;fill-opacity:1;fill-rule:nonzero;stroke:#000000;stroke-width:1;stroke-linecap:butt;stroke-linejoin:miter;stroke-miterlimit:10;stroke-dasharray:none;stroke-opacity:1"
       transform="scale(0.95990422)"
       clip-path="url(#clipPath7)" />
    <text
       id="text7"
       xml:space="preserve"
       transform="matrix(0.95991382,0,0,0.95991382,100.79095,256.29699)"
       clip-path="url(#clipPath8)"><tspan
         style="font-variant:normal;font-weight:normal;font-size:19px;font-family:Helvetica;writing-mode:lr-tb;fill:#000000;fill-opacity:1;fill-rule:nonzero;stroke:none"
         x="0 10.566895 21.133789 26.412598"
         y="0"
         sodipodi:role="line"
         id="tspan7">goto</tspan></text>
    <path
       id="path9"
       d="m 26,316 h 195 v 60 H 26 Z"
       style="fill:#ffffff;fill-opacity:1;fill-rule:nonzero;stroke:#000000;stroke-width:1;stroke-linecap:butt;stroke-linejoin:miter;stroke-miterlimit:10;stroke-dasharray:none;stroke-opacity:1"
       transform="scale(0.95990422)"
       clip-path="url(#clipPath10)" />
    <text
       id="text10"
       xml:space="preserve"
       transform="matrix(0.95991382,0,0,0.95991382,77.992998,338.84958)"
       clip-path="url(#clipPath11)"><tspan
         style="font-variant:normal;font-weight:normal;font-size:19px;font-family:Helvetica;writing-mode:lr-tb;fill:#000000;fill-opacity:1;fill-rule:nonzero;stroke:none"
         x="0 9.5 20.066895 25.345703 39.066895 49.633789 60.200684 69.700684 73.921875"
         y="0"
         sodipodi:role="line"
         id="tspan10">setCookie</tspan></text>
    <path
       id="path12"
       d="m 304.5,210 h 250 v 180 h -250 z"
       style="fill:#ffffff;fill-opacity:1;fill-rule:nonzero;stroke:#000000;stroke-width:1;stroke-linecap:butt;stroke-linejoin:miter;stroke-miterlimit:10;stroke-dasharray:none;stroke-opacity:1"
       transform="scale(0.95990422)"
       clip-path="url(#clipPath13)" />
    <text
       id="text13"
       xml:space="preserve"
       transform="matrix(0.95991382,0,0,0.95991382,330.15036,398.36423)"
       clip-path="url(#clipPath14)"><tspan
         style="font-variant:normal;font-weight:700;font-size:19px;font-family:Helvetica;writing-mode:lr-tb;fill:#000000;fill-opacity:1;fill-rule:nonzero;stroke:none"
         x="0 13.721191 25.327148 35.894043 42.221191 53.827148 70.721191 83.394043 93.960938 105.56689 116.13379 121.4126 135.13379 140.4126 150.97949 161.54639"
         y="0"
         sodipodi:role="line"
         id="tspan13">CustomPage Class</tspan></text>
    <path
       id="path15"
       d="m 329.5,230 h 195 v 60 h -195 z"
       style="fill:#ffffff;fill-opacity:1;fill-rule:nonzero;stroke:#000000;stroke-width:1;stroke-linecap:butt;stroke-linejoin:miter;stroke-miterlimit:10;stroke-dasharray:none;stroke-opacity:1"
       transform="scale(0.95990422)"
       clip-path="url(#clipPath16)" />
    <text
       id="text16"
       xml:space="preserve"
       transform="matrix(0.95991382,0,0,0.95991382,391.08989,256.29699)"
       clip-path="url(#clipPath17)"><tspan
         style="font-variant:normal;font-weight:normal;font-size:19px;font-family:Helvetica;writing-mode:lr-tb;fill:#000000;fill-opacity:1;fill-rule:nonzero;stroke:none"
         x="0 4.2211914 14.788086 25.35498 29.576172"
         y="0"
         sodipodi:role="line"
         id="tspan16">login</tspan></text>
    <path
       id="path18"
       d="m 228.75,140 -0.05,35 H 126 v 24.89999"
       style="fill:none;stroke:#000000;stroke-width:1;stroke-linecap:butt;stroke-linejoin:miter;stroke-miterlimit:10;stroke-dasharray:none;stroke-opacity:1"
       transform="matrix(0.95990422,0,0,0.95990422,0.4799521,0.4799521)"
       clip-path="url(#clipPath19)" />
    <path
       id="path20"
       d="m 126,206.64999 -4.5,-9 4.5,2.25 4.5,-2.25 z"
       style="fill:#000000;fill-opacity:1;fill-rule:nonzero;stroke:#000000;stroke-width:1;stroke-linecap:butt;stroke-linejoin:miter;stroke-miterlimit:10;stroke-dasharray:none;stroke-opacity:1"
       transform="matrix(0.95990422,0,0,0.95990422,0.4799521,0.4799521)"
       clip-path="url(#clipPath21)" />
    <path
       id="path22"
       d="m 326.25,140 0.05,35 h 103.20001 v 24.89999"
       style="fill:none;stroke:#000000;stroke-width:1;stroke-linecap:butt;stroke-linejoin:miter;stroke-miterlimit:10;stroke-dasharray:none;stroke-opacity:1"
       transform="matrix(0.95990422,0,0,0.95990422,0.4799521,0.4799521)"
       clip-path="url(#clipPath23)" />
    <path
       id="path24"
       d="m 429.5,206.64999 -4.5,-9 4.5,2.25 4.5,-2.25 z"
       style="fill:#000000;fill-opacity:1;fill-rule:nonzero;stroke:#000000;stroke-width:1;stroke-linecap:butt;stroke-linejoin:miter;stroke-miterlimit:10;stroke-dasharray:none;stroke-opacity:1"
       transform="matrix(0.95990422,0,0,0.95990422,0.4799521,0.4799521)"
       clip-path="url(#clipPath25)" />
    <path
       id="path26"
       d="m 180,80 h 195 v 60 H 180 Z"
       style="fill:#ffffff;fill-opacity:1;fill-rule:nonzero;stroke:#000000;stroke-width:1;stroke-linecap:butt;stroke-linejoin:miter;stroke-miterlimit:10;stroke-dasharray:none;stroke-opacity:1"
       transform="scale(0.95990422)"
       clip-path="url(#clipPath27)" />
    <text
       id="text27"
       xml:space="preserve"
       transform="matrix(0.95991382,0,0,0.95991382,243.05318,112.30992)"
       clip-path="url(#clipPath28)"><tspan
         style="font-variant:normal;font-weight:normal;font-size:19px;font-family:Helvetica;writing-mode:lr-tb;fill:#000000;fill-opacity:1;fill-rule:nonzero;stroke:none"
         x="0 12.672852 19 29.566895 39.066895"
         y="0"
         sodipodi:role="line"
         id="tspan27">Proxy</tspan></text>
    <path
       id="path29"
       d="M 277.5,30 V 69.900002"
       style="fill:none;stroke:#000000;stroke-width:1;stroke-linecap:butt;stroke-linejoin:miter;stroke-miterlimit:10;stroke-dasharray:none;stroke-opacity:1"
       transform="matrix(0.95990422,0,0,0.95990422,0.4799521,0.4799521)"
       clip-path="url(#clipPath30)" />
    <path
       id="path31"
       d="m 277.5,76.650002 -4.5,-9 4.5,2.25 4.5,-2.25 z"
       style="fill:#000000;fill-opacity:1;fill-rule:nonzero;stroke:#000000;stroke-width:1;stroke-linecap:butt;stroke-linejoin:miter;stroke-miterlimit:10;stroke-dasharray:none;stroke-opacity:1"
       transform="matrix(0.95990422,0,0,0.95990422,0.4799521,0.4799521)"
       clip-path="url(#clipPath32)" />
    <text
       id="text32"
       xml:space="preserve"
       transform="matrix(0.95991382,0,0,0.95991382,220.99016,21.118104)"
       clip-path="url(#clipPath33)"><tspan
         style="font-variant:normal;font-weight:700;font-size:19px;font-family:Helvetica;writing-mode:lr-tb;fill:#000000;fill-opacity:1;fill-rule:nonzero;stroke:none"
         x="0 13.721191 24.288086 29.566895 34.845703 40.124512 44.642578 49.921387 61.527344 73.133301 78.412109 90.018066"
         y="0"
         sodipodi:role="line"
         id="tspan32">Call 'login'</tspan></text>
  </g>
</svg>
