<?xml version="1.0" encoding="UTF-8" standalone="no"?>
<!-- Created with Inkscape (http://www.inkscape.org/) -->

<svg
   version="1.1"
   id="svg1"
   width="722.56"
   height="309.44"
   viewBox="0 0 722.56 309.44"
   sodipodi:docname="node-13.pdf"
   xmlns:inkscape="http://www.inkscape.org/namespaces/inkscape"
   xmlns:sodipodi="http://sodipodi.sourceforge.net/DTD/sodipodi-0.dtd"
   xmlns="http://www.w3.org/2000/svg"
   xmlns:svg="http://www.w3.org/2000/svg">
  <defs
     id="defs1">
    <clipPath
       clipPathUnits="userSpaceOnUse"
       id="clipPath2">
      <path
         d="M 0,0 H 2258.3333 V 964.43408 H 0 Z"
         transform="scale(0.33387454)"
         clip-rule="evenodd"
         id="path2" />
    </clipPath>
    <clipPath
       clipPathUnits="userSpaceOnUse"
       id="clipPath4">
      <path
         d="M 0,0 H 2258.3333 V 961.43896 H 0 Z"
         transform="matrix(0.33387454,0,0,0.33387454,-0.5,-0.5)"
         clip-rule="evenodd"
         id="path4" />
    </clipPath>
    <clipPath
       clipPathUnits="userSpaceOnUse"
       id="clipPath6">
      <path
         d="M 0,0 H 2258.3333 V 961.43896 H 0 Z"
         transform="matrix(0.33387454,0,0,0.33387454,-0.5,-0.5)"
         clip-rule="evenodd"
         id="path6" />
    </clipPath>
    <clipPath
       clipPathUnits="userSpaceOnUse"
       id="clipPath8">
      <path
         d="M 0,0 H 2258.3333 V 961.43896 H 0 Z"
         transform="matrix(0.33387454,0,0,0.33387454,-0.5,-0.5)"
         clip-rule="evenodd"
         id="path8" />
    </clipPath>
    <clipPath
       clipPathUnits="userSpaceOnUse"
       id="clipPath10">
      <path
         d="M 0,0 H 2258.3333 V 961.43896 H 0 Z"
         transform="matrix(0.33387454,0,0,0.33387454,-0.5,-0.5)"
         clip-rule="evenodd"
         id="path10" />
    </clipPath>
    <clipPath
       clipPathUnits="userSpaceOnUse"
       id="clipPath12">
      <path
         d="M 0,0 H 2258.3333 V 961.43896 H 0 Z"
         transform="matrix(0.33387454,0,0,0.33387454,-0.5,-0.5)"
         clip-rule="evenodd"
         id="path12" />
    </clipPath>
    <clipPath
       clipPathUnits="userSpaceOnUse"
       id="clipPath14">
      <path
         d="M 0,0 H 2258.3333 V 961.43896 H 0 Z"
         transform="matrix(0.33387454,0,0,0.33387454,-0.5,-0.5)"
         clip-rule="evenodd"
         id="path14" />
    </clipPath>
    <clipPath
       clipPathUnits="userSpaceOnUse"
       id="clipPath16">
      <path
         d="M 0,0 H 2258.3333 V 961.43896 H 0 Z"
         transform="matrix(0.33387454,0,0,0.33387454,-0.5,-0.5)"
         clip-rule="evenodd"
         id="path16" />
    </clipPath>
    <clipPath
       clipPathUnits="userSpaceOnUse"
       id="clipPath18">
      <path
         d="M 0,0 H 2258.3333 V 961.43896 H 0 Z"
         transform="matrix(0.33387454,0,0,0.33387454,-0.5,-0.5)"
         clip-rule="evenodd"
         id="path18" />
    </clipPath>
    <clipPath
       clipPathUnits="userSpaceOnUse"
       id="clipPath20">
      <path
         d="M 0,0 H 2258.3333 V 961.43896 H 0 Z"
         transform="matrix(0.33387454,0,0,0.33387454,-0.5,-0.5)"
         clip-rule="evenodd"
         id="path20" />
    </clipPath>
    <clipPath
       clipPathUnits="userSpaceOnUse"
       id="clipPath22">
      <path
         d="M 0,0 H 2258.3333 V 961.43896 H 0 Z"
         transform="matrix(0.33387454,0,0,0.33387454,-0.5,-0.5)"
         clip-rule="evenodd"
         id="path22" />
    </clipPath>
    <clipPath
       clipPathUnits="userSpaceOnUse"
       id="clipPath24">
      <path
         d="M 0,0 H 2258.3333 V 961.43896 H 0 Z"
         transform="matrix(0.33387454,0,0,0.33387454,-0.5,-0.5)"
         clip-rule="evenodd"
         id="path24" />
    </clipPath>
    <clipPath
       clipPathUnits="userSpaceOnUse"
       id="clipPath26">
      <path
         d="M 0,0 H 2258.3333 V 961.43896 H 0 Z"
         transform="matrix(0.33387454,0,0,0.33387454,-0.5,-0.5)"
         clip-rule="evenodd"
         id="path26" />
    </clipPath>
    <clipPath
       clipPathUnits="userSpaceOnUse"
       id="clipPath28">
      <path
         d="M 0,0 H 2258.3333 V 961.43896 H 0 Z"
         transform="matrix(0.33387454,0,0,0.33387454,-0.5,-0.5)"
         clip-rule="evenodd"
         id="path28" />
    </clipPath>
    <clipPath
       clipPathUnits="userSpaceOnUse"
       id="clipPath30">
      <path
         d="M 0,0 H 2258.3333 V 961.43896 H 0 Z"
         transform="matrix(0.33387454,0,0,0.33387454,-0.5,-0.5)"
         clip-rule="evenodd"
         id="path30" />
    </clipPath>
    <clipPath
       clipPathUnits="userSpaceOnUse"
       id="clipPath31">
      <path
         d="M 0,0 H 2258.3333 V 961.43896 H 0 Z"
         transform="matrix(0.3338712,0,0,0.3338712,-63,-32)"
         clip-rule="evenodd"
         id="path31" />
    </clipPath>
    <clipPath
       clipPathUnits="userSpaceOnUse"
       id="clipPath32">
      <path
         d="M 0,0 H 2258.3333 V 961.43896 H 0 Z"
         transform="matrix(0.3338712,0,0,0.3338712,-133,-80)"
         clip-rule="evenodd"
         id="path32" />
    </clipPath>
    <clipPath
       clipPathUnits="userSpaceOnUse"
       id="clipPath34">
      <path
         d="M 0,0 H 2258.3333 V 961.43896 H 0 Z"
         transform="scale(0.33387454)"
         clip-rule="evenodd"
         id="path34" />
    </clipPath>
    <clipPath
       clipPathUnits="userSpaceOnUse"
       id="clipPath35">
      <path
         d="M 0,0 H 2258.3333 V 961.43896 H 0 Z"
         transform="matrix(0.3338712,0,0,0.3338712,-617.60938,-115)"
         clip-rule="evenodd"
         id="path35" />
    </clipPath>
    <clipPath
       clipPathUnits="userSpaceOnUse"
       id="clipPath36">
      <path
         d="M 0,0 H 2258.3333 V 961.43896 H 0 Z"
         transform="matrix(0.3338712,0,0,0.3338712,-645.95313,-136)"
         clip-rule="evenodd"
         id="path36" />
    </clipPath>
    <clipPath
       clipPathUnits="userSpaceOnUse"
       id="clipPath38">
      <path
         d="M 0,0 H 2258.3333 V 961.43896 H 0 Z"
         transform="matrix(0.33387454,0,0,0.33387454,-0.5,-0.5)"
         clip-rule="evenodd"
         id="path38" />
    </clipPath>
    <clipPath
       clipPathUnits="userSpaceOnUse"
       id="clipPath40">
      <path
         d="M 0,0 H 2258.3333 V 961.43896 H 0 Z"
         transform="matrix(0.33387454,0,0,0.33387454,-0.5,-0.5)"
         clip-rule="evenodd"
         id="path40" />
    </clipPath>
    <clipPath
       clipPathUnits="userSpaceOnUse"
       id="clipPath41">
      <path
         d="M 0,0 H 2258.3333 V 961.43896 H 0 Z"
         transform="matrix(0.3338712,0,0,0.3338712,-414.76563,-137)"
         clip-rule="evenodd"
         id="path41" />
    </clipPath>
    <clipPath
       clipPathUnits="userSpaceOnUse"
       id="clipPath42">
      <path
         d="M 0,0 H 2258.3333 V 961.43896 H 0 Z"
         transform="matrix(0.3338712,0,0,0.3338712,-436.5,-158)"
         clip-rule="evenodd"
         id="path42" />
    </clipPath>
    <clipPath
       clipPathUnits="userSpaceOnUse"
       id="clipPath44">
      <path
         d="M 0,0 H 2258.3333 V 961.43896 H 0 Z"
         transform="matrix(0.33387454,0,0,0.33387454,-0.5,-0.5)"
         clip-rule="evenodd"
         id="path44" />
    </clipPath>
    <clipPath
       clipPathUnits="userSpaceOnUse"
       id="clipPath45">
      <path
         d="M 0,0 H 2258.3333 V 961.43896 H 0 Z"
         transform="matrix(0.3338712,0,0,0.3338712,-371,-259)"
         clip-rule="evenodd"
         id="path45" />
    </clipPath>
    <clipPath
       clipPathUnits="userSpaceOnUse"
       id="clipPath46">
      <path
         d="M 0,0 H 2258.3333 V 961.43896 H 0 Z"
         transform="matrix(0.3338712,0,0,0.3338712,-376.03125,-279)"
         clip-rule="evenodd"
         id="path46" />
    </clipPath>
    <clipPath
       clipPathUnits="userSpaceOnUse"
       id="clipPath47">
      <path
         d="M 0,0 H 2258.3333 V 961.43896 H 0 Z"
         transform="matrix(0.3338712,0,0,0.3338712,-422.3125,-300)"
         clip-rule="evenodd"
         id="path47" />
    </clipPath>
  </defs>
  <sodipodi:namedview
     id="namedview1"
     pagecolor="#ffffff"
     bordercolor="#000000"
     borderopacity="0.25"
     inkscape:showpageshadow="2"
     inkscape:pageopacity="0.0"
     inkscape:pagecheckerboard="0"
     inkscape:deskcolor="#d1d1d1">
    <inkscape:page
       x="0"
       y="0"
       inkscape:label="1"
       id="page1"
       width="722.56"
       height="309.44"
       margin="0"
       bleed="0" />
  </sodipodi:namedview>
  <g
     id="g1"
     inkscape:groupmode="layer"
     inkscape:label="1">
    <path
       id="path1"
       d="M 0,0 H 754 V 322 H 0 Z"
       style="fill:#ffffff;fill-opacity:1;fill-rule:nonzero;stroke:none"
       transform="scale(0.9584438)"
       clip-path="url(#clipPath2)" />
    <path
       id="path3"
       d="M 1,1 H 341 V 191 H 1 Z"
       style="fill:#ffffff;fill-opacity:1;fill-rule:nonzero;stroke:#666666;stroke-width:1;stroke-linecap:butt;stroke-linejoin:miter;stroke-miterlimit:10;stroke-dasharray:none;stroke-opacity:1"
       transform="matrix(0.9584438,0,0,0.9584438,0.4792219,0.4792219)"
       clip-path="url(#clipPath4)" />
    <path
       id="path5"
       d="m 286.00012,16 c -3e-5,0.656614 -0.0641,1.306923 -0.1922,1.950922 -0.12808,0.643999 -0.31778,1.269314 -0.56906,1.875948 -0.25128,0.606634 -0.55933,1.182928 -0.9241,1.728886 -0.36478,0.545957 -0.77933,1.051084 -1.24362,1.51538 -0.46433,0.464297 -0.96946,0.878844 -1.51545,1.243639 -0.54595,0.364796 -1.12225,0.672833 -1.72888,0.924109 -0.6066,0.251276 -1.2319,0.440964 -1.87588,0.569063 -0.64398,0.1281 -1.29428,0.19215 -1.95093,0.192152 -0.65665,-2e-6 -1.30695,-0.06405 -1.95096,-0.192152 -0.64401,-0.128099 -1.26932,-0.317787 -1.87594,-0.569063 -0.60663,-0.251276 -1.18293,-0.559313 -1.72892,-0.924109 -0.54593,-0.364795 -1.05102,-0.779342 -1.51535,-1.243639 -0.46429,-0.464296 -0.87884,-0.969423 -1.24365,-1.515378 -0.36481,-0.545958 -0.67285,-1.122254 -0.92413,-1.728888 -0.25128,-0.606634 -0.44095,-1.231949 -0.56903,-1.875948 -0.12809,-0.643999 -0.19214,-1.294308 -0.19211,-1.950922 -3e-5,-0.656616 0.064,-1.306924 0.19214,-1.950923 0.12805,-0.644 0.31772,-1.269317 0.569,-1.875951 0.25128,-0.606633 0.55932,-1.182928 0.92413,-1.728885 0.36481,-0.5459561 0.77936,-1.051083 1.24365,-1.5153803 0.46433,-0.4642973 0.96942,-0.8788443 1.51535,-1.2436409 0.54599,-0.3647962 1.12229,-0.6728325 1.72892,-0.9241085 0.60662,-0.2512756 1.23193,-0.4409633 1.87594,-0.5690623 0.64401,-0.1280994 1.29431,-0.1921491 1.95096,-0.1921491 0.65665,0 1.30695,0.06405 1.95093,0.1921491 0.64398,0.128099 1.26928,0.3177867 1.87588,0.5690623 0.60663,0.251276 1.18293,0.5593123 1.72888,0.9241085 0.54599,0.3647966 1.05112,0.7793436 1.51545,1.2436409 0.46429,0.4642973 0.87884,0.9694242 1.24362,1.5153803 0.36477,0.545957 0.67282,1.122252 0.9241,1.728885 0.25128,0.606634 0.44098,1.231951 0.56906,1.875951 0.12812,0.643999 0.19217,1.294307 0.1922,1.950923 z"
       style="fill:none;stroke:#666666;stroke-width:1;stroke-linecap:butt;stroke-linejoin:miter;stroke-miterlimit:10;stroke-dasharray:none;stroke-opacity:1"
       transform="matrix(0.9584438,0,0,0.9584438,0.4792219,0.4792219)"
       clip-path="url(#clipPath6)" />
    <path
       id="path7"
       d="m 311.00012,16 c -3e-5,0.656614 -0.0641,1.306923 -0.1922,1.950922 -0.12808,0.643999 -0.31778,1.269314 -0.56906,1.875948 -0.25125,0.606634 -0.55929,1.182928 -0.9241,1.728886 -0.36478,0.545957 -0.77933,1.051084 -1.24362,1.51538 -0.4643,0.464297 -0.96942,0.878844 -1.51541,1.243639 -0.54596,0.364796 -1.12226,0.672833 -1.72889,0.924109 -0.60663,0.251276 -1.23193,0.440964 -1.87594,0.569063 -0.64402,0.1281 -1.29431,0.19215 -1.9509,0.192152 -0.65662,-2e-6 -1.30692,-0.06405 -1.95093,-0.192152 -0.64401,-0.128099 -1.26932,-0.317787 -1.87597,-0.569063 -0.60663,-0.251276 -1.18293,-0.559313 -1.72889,-0.924109 -0.54596,-0.364795 -1.05108,-0.779342 -1.51538,-1.243639 -0.46429,-0.464296 -0.87884,-0.969423 -1.24365,-1.515378 -0.36478,-0.545958 -0.67282,-1.122254 -0.9241,-1.728888 -0.25125,-0.606634 -0.44095,-1.231949 -0.56906,-1.875948 -0.12809,-0.643999 -0.19211,-1.294308 -0.19211,-1.950922 0,-0.656616 0.0641,-1.306924 0.19214,-1.950923 0.12808,-0.644 0.31778,-1.269317 0.56903,-1.875951 0.25128,-0.606633 0.55932,-1.182928 0.9241,-1.728885 0.36481,-0.5459561 0.77936,-1.051083 1.24365,-1.5153803 0.4643,-0.4642973 0.96942,-0.8788443 1.51538,-1.2436409 0.54596,-0.3647962 1.12226,-0.6728325 1.72889,-0.9241085 0.60665,-0.2512756 1.23196,-0.4409633 1.87597,-0.5690623 0.64401,-0.1280994 1.29431,-0.1921491 1.95093,-0.1921491 0.65659,0 1.30688,0.06405 1.9509,0.1921491 0.64401,0.128099 1.26931,0.3177867 1.87594,0.5690623 0.60663,0.251276 1.18293,0.5593123 1.72889,0.9241085 0.54599,0.3647966 1.05111,0.7793436 1.51541,1.2436409 0.46429,0.4642973 0.87884,0.9694242 1.24362,1.5153803 0.36481,0.545957 0.67285,1.122252 0.9241,1.728885 0.25128,0.606634 0.44098,1.231951 0.56906,1.875951 0.12812,0.643999 0.19217,1.294307 0.1922,1.950923 z"
       style="fill:none;stroke:#666666;stroke-width:1;stroke-linecap:butt;stroke-linejoin:miter;stroke-miterlimit:10;stroke-dasharray:none;stroke-opacity:1"
       transform="matrix(0.9584438,0,0,0.9584438,0.4792219,0.4792219)"
       clip-path="url(#clipPath8)" />
    <path
       id="path9"
       d="m 336.00012,16 c -3e-5,0.656614 -0.0641,1.306923 -0.1922,1.950922 -0.12811,0.643999 -0.31781,1.269314 -0.56906,1.875948 -0.25128,0.606634 -0.55933,1.182928 -0.9241,1.728886 -0.36481,0.545957 -0.77936,1.051084 -1.24362,1.51538 -0.4643,0.464297 -0.96942,0.878844 -1.51541,1.243639 -0.54596,0.364796 -1.12226,0.672833 -1.72889,0.924109 -0.60666,0.251276 -1.23196,0.440964 -1.87594,0.569063 -0.64402,0.1281 -1.29431,0.19215 -1.9509,0.192152 -0.65665,-2e-6 -1.30695,-0.06405 -1.95096,-0.192152 -0.64401,-0.128099 -1.26932,-0.317787 -1.87594,-0.569063 -0.60666,-0.251276 -1.18296,-0.559313 -1.72889,-0.924109 -0.54599,-0.364795 -1.05111,-0.779342 -1.51538,-1.243639 -0.46432,-0.464296 -0.87887,-0.969423 -1.24365,-1.515378 -0.36481,-0.545958 -0.67285,-1.122254 -0.9241,-1.728888 -0.25128,-0.606634 -0.44098,-1.231949 -0.56906,-1.875948 -0.12809,-0.643999 -0.19211,-1.294308 -0.19211,-1.950922 0,-0.656616 0.064,-1.306924 0.19211,-1.950923 0.12808,-0.644 0.31778,-1.269317 0.56906,-1.875951 0.25125,-0.606633 0.55929,-1.182928 0.9241,-1.728885 0.36478,-0.5459561 0.77933,-1.051083 1.24365,-1.5153803 0.46427,-0.4642973 0.96939,-0.8788443 1.51538,-1.2436409 0.54593,-0.3647962 1.12223,-0.6728325 1.72889,-0.9241085 0.60662,-0.2512756 1.23193,-0.4409633 1.87594,-0.5690623 0.64401,-0.1280994 1.29431,-0.1921491 1.95096,-0.1921491 0.65659,0 1.30688,0.06405 1.9509,0.1921491 0.64398,0.128099 1.26928,0.3177867 1.87594,0.5690623 0.60663,0.251276 1.18293,0.5593123 1.72889,0.9241085 0.54599,0.3647966 1.05111,0.7793436 1.51541,1.2436409 0.46426,0.4642973 0.87881,0.9694242 1.24362,1.5153803 0.36477,0.545957 0.67282,1.122252 0.9241,1.728885 0.25125,0.606634 0.44095,1.231951 0.56906,1.875951 0.12812,0.643999 0.19217,1.294307 0.1922,1.950923 z"
       style="fill:none;stroke:#008cff;stroke-width:1;stroke-linecap:butt;stroke-linejoin:miter;stroke-miterlimit:10;stroke-dasharray:none;stroke-opacity:1"
       transform="matrix(0.9584438,0,0,0.9584438,0.4792219,0.4792219)"
       clip-path="url(#clipPath10)" />
    <path
       id="path11"
       d="M 1,41 H 31 V 16 c 0,-2.76 2.240002,-5 5,-5 h 135 c 2.75999,0 5,2.24 5,5 v 25 h 165"
       style="fill:none;stroke:#c4c4c4;stroke-width:1;stroke-linecap:butt;stroke-linejoin:miter;stroke-miterlimit:10;stroke-dasharray:none;stroke-opacity:1"
       transform="matrix(0.9584438,0,0,0.9584438,0.4792219,0.4792219)"
       clip-path="url(#clipPath12)" />
    <path
       id="path13"
       d="M 1,111 H 341"
       style="fill:none;stroke:#c4c4c4;stroke-width:1;stroke-linecap:butt;stroke-linejoin:miter;stroke-miterlimit:10;stroke-dasharray:none;stroke-opacity:1"
       transform="matrix(0.9584438,0,0,0.9584438,0.4792219,0.4792219)"
       clip-path="url(#clipPath14)" />
    <path
       id="path15"
       d="m 101,61 c 0,-2.759998 2.24,-5 5,-5 h 220 c 2.76001,0 5,2.240002 5,5 v 25 c 0,2.760002 -2.23999,5 -5,5 H 106 c -2.76,0 -5,-2.239998 -5,-5 z"
       style="fill:none;stroke:#c4c4c4;stroke-width:1;stroke-linecap:butt;stroke-linejoin:miter;stroke-miterlimit:10;stroke-dasharray:none;stroke-opacity:1"
       transform="matrix(0.9584438,0,0,0.9584438,0.4792219,0.4792219)"
       clip-path="url(#clipPath16)" />
    <path
       id="path17"
       d="m 38,18 h 11 l 4,4 V 36 H 38 Z"
       style="fill:none;stroke:#c4c4c4;stroke-width:1;stroke-linecap:butt;stroke-linejoin:miter;stroke-miterlimit:10;stroke-dasharray:none;stroke-opacity:1"
       transform="matrix(0.9584438,0,0,0.9584438,0.4792219,0.4792219)"
       clip-path="url(#clipPath18)" />
    <path
       id="path19"
       d="m 49,18 v 4 l 4,1"
       style="fill:none;stroke:#c4c4c4;stroke-width:1;stroke-linecap:butt;stroke-linejoin:miter;stroke-miterlimit:10;stroke-dasharray:none;stroke-opacity:1"
       transform="matrix(0.9584438,0,0,0.9584438,0.4792219,0.4792219)"
       clip-path="url(#clipPath20)" />
    <path
       id="path21"
       d="m 108,65 h 11 l 4,4 v 14 h -15 z"
       style="fill:none;stroke:#c4c4c4;stroke-width:1;stroke-linecap:butt;stroke-linejoin:miter;stroke-miterlimit:10;stroke-dasharray:none;stroke-opacity:1"
       transform="matrix(0.9584438,0,0,0.9584438,0.4792219,0.4792219)"
       clip-path="url(#clipPath22)" />
    <path
       id="path23"
       d="m 119,65 v 4 l 4,1"
       style="fill:none;stroke:#c4c4c4;stroke-width:1;stroke-linecap:butt;stroke-linejoin:miter;stroke-miterlimit:10;stroke-dasharray:none;stroke-opacity:1"
       transform="matrix(0.9584438,0,0,0.9584438,0.4792219,0.4792219)"
       clip-path="url(#clipPath24)" />
    <path
       id="path25"
       d="M 13,75 23,65 v 6 h 10 v 8 H 23 v 6 z"
       style="fill:#c4c4c4;fill-opacity:1;fill-rule:nonzero;stroke:#c4c4c4;stroke-width:1;stroke-linecap:butt;stroke-linejoin:miter;stroke-miterlimit:10;stroke-dasharray:none;stroke-opacity:1"
       transform="matrix(0.9584438,0,0,0.9584438,0.4792219,0.4792219)"
       clip-path="url(#clipPath26)" />
    <path
       id="path27"
       d="M 63,75 53,65 v 6 H 43 v 8 h 10 v 6 z"
       style="fill:#c4c4c4;fill-opacity:1;fill-rule:nonzero;stroke:#c4c4c4;stroke-width:1;stroke-linecap:butt;stroke-linejoin:miter;stroke-miterlimit:10;stroke-dasharray:none;stroke-opacity:1"
       transform="matrix(0.9584438,0,0,0.9584438,0.4792219,0.4792219)"
       clip-path="url(#clipPath28)" />
    <path
       id="path29"
       d="m 88.599998,78.300003 c -1.699996,2.839996 -5.379997,3.759995 -8.220001,2.059998 C 77.540001,78.669998 76.610001,75 78.300003,72.150002 79.980003,69.309998 83.650002,68.360001 86.5,70.040001 L 84.900002,71.5 92.800003,73.300003 91,65.800003 89.300003,67.400002 c -3.190002,-2.370003 -7.5,-2.580002 -10.900001,-0.529999 -3.410004,2.049995 -5.239998,5.959999 -4.630005,9.889999 0.61,3.93 3.530006,7.099999 7.390007,8.029999 C 85.029999,85.720001 89.07,84.230003 91.400002,81 Z"
       style="fill:#c4c4c4;fill-opacity:1;fill-rule:nonzero;stroke:#c4c4c4;stroke-width:1;stroke-linecap:butt;stroke-linejoin:miter;stroke-miterlimit:10;stroke-dasharray:none;stroke-opacity:1"
       transform="matrix(0.9584438,0,0,0.9584438,0.4792219,0.4792219)"
       clip-path="url(#clipPath30)" />
    <text
       id="text30"
       xml:space="preserve"
       transform="matrix(0.9584534,0,0,0.9584534,60.382564,30.670509)"
       clip-path="url(#clipPath31)"><tspan
         style="font-variant:normal;font-weight:normal;font-size:17px;font-family:Helvetica;writing-mode:lr-tb;fill:#666666;fill-opacity:1;fill-rule:nonzero;stroke:none"
         x="0 11.338867 20.793457 30.248047 39.702637 44.425781"
         y="0"
         sodipodi:role="line"
         id="tspan30">Page 1</tspan></text>
    <text
       id="text31"
       xml:space="preserve"
       transform="matrix(0.9584534,0,0,0.9584534,127.4743,76.676272)"
       clip-path="url(#clipPath32)"><tspan
         style="font-variant:normal;font-weight:normal;font-size:17px;font-family:Helvetica;writing-mode:lr-tb;fill:#666666;fill-opacity:1;fill-rule:nonzero;stroke:none"
         x="0 9.4545898 14.177734 18.900879 28.355469 36.855469 41.578613 46.301758 51.024902 63.301758 75.578613 86.925781 91.648926 101.10352 106.76465 116.21924 127.56641 132.28955 136.06641"
         y="0"
         sodipodi:role="line"
         id="tspan31">https://www.draw.io</tspan></text>
    <path
       id="path33"
       d="m 591.01001,52 h 160 v 134 h -160 z"
       style="fill:#ffffff;fill-opacity:1;fill-rule:nonzero;stroke:#000000;stroke-width:1;stroke-linecap:butt;stroke-linejoin:miter;stroke-miterlimit:10;stroke-dasharray:none;stroke-opacity:1"
       transform="scale(0.9584438)"
       clip-path="url(#clipPath34)" />
    <text
       id="text34"
       xml:space="preserve"
       transform="matrix(0.9584534,0,0,0.9584534,591.94981,110.22214)"
       clip-path="url(#clipPath35)"><tspan
         style="font-variant:normal;font-weight:normal;font-size:17px;font-family:Helvetica;writing-mode:lr-tb;fill:#000000;fill-opacity:1;fill-rule:nonzero;stroke:none"
         x="0 12.276855 21.731445 31.186035 40.640625 45.36377 56.702637 65.202637 74.657227 80.318359 89.772949 98.272949"
         y="0"
         sodipodi:role="line"
         id="tspan34">Node/Express</tspan></text>
    <text
       id="text35"
       xml:space="preserve"
       transform="matrix(0.9584534,0,0,0.9584534,619.11597,130.34966)"
       clip-path="url(#clipPath36)"><tspan
         style="font-variant:normal;font-weight:normal;font-size:17px;font-family:Helvetica;writing-mode:lr-tb;fill:#000000;fill-opacity:1;fill-rule:nonzero;stroke:none"
         x="0 11.338867 20.793457 26.45459 34.95459 44.40918"
         y="0"
         sodipodi:role="line"
         id="tspan35">Server</tspan></text>
    <path
       id="path37"
       d="m 341,121 239.90002,-1.92"
       style="fill:none;stroke:#000000;stroke-width:1;stroke-linecap:butt;stroke-linejoin:miter;stroke-miterlimit:10;stroke-dasharray:none;stroke-opacity:1"
       transform="matrix(0.9584438,0,0,0.9584438,0.4792219,0.4792219)"
       clip-path="url(#clipPath38)" />
    <path
       id="path39"
       d="M 587.65002,119.03 578.69,123.6 580.90002,119.08 578.62,114.6 Z"
       style="fill:#000000;fill-opacity:1;fill-rule:nonzero;stroke:#000000;stroke-width:1;stroke-linecap:butt;stroke-linejoin:miter;stroke-miterlimit:10;stroke-dasharray:none;stroke-opacity:1"
       transform="matrix(0.9584438,0,0,0.9584438,0.4792219,0.4792219)"
       clip-path="url(#clipPath40)" />
    <text
       id="text40"
       xml:space="preserve"
       transform="matrix(0.9584534,0,0,0.9584534,397.53353,131.30812)"
       clip-path="url(#clipPath41)"><tspan
         style="font-style:oblique;font-variant:normal;font-weight:normal;font-size:17px;font-family:Helvetica;writing-mode:lr-tb;fill:#000000;fill-opacity:1;fill-rule:nonzero;stroke:none"
         x="0 11.338867 15.115723 24.570312 34.024902 42.524902 51.979492 56.702637 70.86377 80.318359 88.818359 98.272949 102.99609"
         y="0"
         sodipodi:role="line"
         id="tspan40">Please make a</tspan></text>
    <text
       id="text41"
       xml:space="preserve"
       transform="matrix(0.9584534,0,0,0.9584534,418.36491,151.43564)"
       clip-path="url(#clipPath42)"><tspan
         style="font-style:oblique;font-variant:normal;font-weight:normal;font-size:17px;font-family:Helvetica;writing-mode:lr-tb;fill:#000000;fill-opacity:1;fill-rule:nonzero;stroke:none"
         x="0 9.4545898 13.231445 22.686035 32.140625 36.86377 46.318359 55.772949 64.272949"
         y="0"
         sodipodi:role="line"
         id="tspan41">blog post</tspan></text>
    <path
       id="path43"
       d="m 366,228 h 210 v 90 H 366 Z"
       style="fill:#f8cecc;fill-opacity:1;fill-rule:nonzero;stroke:#b85450;stroke-width:1;stroke-linecap:butt;stroke-linejoin:miter;stroke-miterlimit:10;stroke-dasharray:none;stroke-opacity:1"
       transform="matrix(0.9584438,0,0,0.9584438,0.4792219,0.4792219)"
       clip-path="url(#clipPath44)" />
    <text
       id="text44"
       xml:space="preserve"
       transform="matrix(0.9584534,0,0,0.9584534,355.58621,248.23943)"
       clip-path="url(#clipPath45)"><tspan
         style="font-variant:normal;font-weight:normal;font-size:17px;font-family:Helvetica;writing-mode:lr-tb;fill:#000000;fill-opacity:1;fill-rule:nonzero;stroke:none"
         x="0 15.746582 25.201172 29.924316 42.201172 51.655762 61.110352 65.833496 70.556641 75.279785 84.734375 89.45752 103.61865 113.07324 121.57324 131.02783 135.75098 144.25098 153.70557 159.3667 168.82129 173.54443 178.26758 187.72217 191.49902"
         y="0"
         sodipodi:role="line"
         id="tspan44">We want to make sure this</tspan></text>
    <text
       id="text45"
       xml:space="preserve"
       transform="matrix(0.9584534,0,0,0.9584534,360.40843,267.4085)"
       clip-path="url(#clipPath46)"><tspan
         style="font-variant:normal;font-weight:normal;font-size:17px;font-family:Helvetica;writing-mode:lr-tb;fill:#000000;fill-opacity:1;fill-rule:nonzero;stroke:none"
         x="0 3.7768555 12.276855 17 26.45459 35.90918 40.632324 45.355469 54.810059 64.264648 72.764648 81.264648 85.041504 94.496094 98.272949 107.72754 112.45068 116.22754 120.95068 125.67383 135.12842 139.85156 149.30615 157.80615 167.26074 172.92188 177.64502 181.42188"
         y="0"
         sodipodi:role="line"
         id="tspan45">is not possible if a user is</tspan></text>
    <text
       id="text46"
       xml:space="preserve"
       transform="matrix(0.9584534,0,0,0.9584534,404.76685,287.53602)"
       clip-path="url(#clipPath47)"><tspan
         style="font-variant:normal;font-weight:normal;font-size:17px;font-family:Helvetica;writing-mode:lr-tb;fill:#000000;fill-opacity:1;fill-rule:nonzero;stroke:none"
         x="0 9.4545898 18.90918 23.632324 28.355469 32.132324 41.586914 51.041504 60.496094 69.950684 79.405273 84.128418 87.905273"
         y="0"
         sodipodi:role="line"
         id="tspan46">not logged in</tspan></text>
  </g>
</svg>
