<?xml version="1.0" encoding="UTF-8" standalone="no"?>
<!-- Created with Inkscape (http://www.inkscape.org/) -->

<svg
   version="1.1"
   id="svg1"
   width="534.71997"
   height="405.44"
   viewBox="0 0 534.71997 405.44"
   sodipodi:docname="node-3.pdf"
   xmlns:inkscape="http://www.inkscape.org/namespaces/inkscape"
   xmlns:sodipodi="http://sodipodi.sourceforge.net/DTD/sodipodi-0.dtd"
   xmlns="http://www.w3.org/2000/svg"
   xmlns:svg="http://www.w3.org/2000/svg">
  <defs
     id="defs1">
    <clipPath
       clipPathUnits="userSpaceOnUse"
       id="clipPath2">
      <path
         d="M 0,0 H 1670.8334 V 1265.8738 H 0 Z"
         transform="scale(0.33336658)"
         clip-rule="evenodd"
         id="path2" />
    </clipPath>
    <clipPath
       clipPathUnits="userSpaceOnUse"
       id="clipPath4">
      <path
         d="M 0,0 H 1670.8334 V 1262.874 H 0 Z"
         transform="scale(0.33336658)"
         clip-rule="evenodd"
         id="path4" />
    </clipPath>
    <clipPath
       clipPathUnits="userSpaceOnUse"
       id="clipPath5">
      <path
         d="M 0,0 H 1670.8334 V 1262.874 H 0 Z"
         transform="matrix(0.33336325,0,0,0.33336325,-51.65625,-414.99999)"
         clip-rule="evenodd"
         id="path5" />
    </clipPath>
    <clipPath
       clipPathUnits="userSpaceOnUse"
       id="clipPath7">
      <path
         d="M 0,0 H 1670.8334 V 1262.874 H 0 Z"
         transform="scale(0.33336658)"
         clip-rule="evenodd"
         id="path7" />
    </clipPath>
    <clipPath
       clipPathUnits="userSpaceOnUse"
       id="clipPath8">
      <path
         d="M 0,0 H 1670.8334 V 1262.874 H 0 Z"
         transform="matrix(0.33336325,0,0,0.33336325,-93.390624,-267)"
         clip-rule="evenodd"
         id="path8" />
    </clipPath>
    <clipPath
       clipPathUnits="userSpaceOnUse"
       id="clipPath10">
      <path
         d="M 0,0 H 1670.8334 V 1262.874 H 0 Z"
         transform="scale(0.33336658)"
         clip-rule="evenodd"
         id="path10" />
    </clipPath>
    <clipPath
       clipPathUnits="userSpaceOnUse"
       id="clipPath11">
      <path
         d="M 0,0 H 1670.8334 V 1262.874 H 0 Z"
         transform="matrix(0.33336325,0,0,0.33336325,-90.75,-353)"
         clip-rule="evenodd"
         id="path11" />
    </clipPath>
    <clipPath
       clipPathUnits="userSpaceOnUse"
       id="clipPath13">
      <path
         d="M 0,0 H 1670.8334 V 1262.874 H 0 Z"
         transform="scale(0.33336658)"
         clip-rule="evenodd"
         id="path13" />
    </clipPath>
    <clipPath
       clipPathUnits="userSpaceOnUse"
       id="clipPath14">
      <path
         d="M 0,0 H 1670.8334 V 1262.874 H 0 Z"
         transform="matrix(0.33336325,0,0,0.33336325,-334.95313,-414.99999)"
         clip-rule="evenodd"
         id="path14" />
    </clipPath>
    <clipPath
       clipPathUnits="userSpaceOnUse"
       id="clipPath16">
      <path
         d="M 0,0 H 1670.8334 V 1262.874 H 0 Z"
         transform="scale(0.33336658)"
         clip-rule="evenodd"
         id="path16" />
    </clipPath>
    <clipPath
       clipPathUnits="userSpaceOnUse"
       id="clipPath17">
      <path
         d="M 0,0 H 1670.8334 V 1262.874 H 0 Z"
         transform="matrix(0.33336325,0,0,0.33336325,-395.28125,-267)"
         clip-rule="evenodd"
         id="path17" />
    </clipPath>
    <clipPath
       clipPathUnits="userSpaceOnUse"
       id="clipPath19">
      <path
         d="M 0,0 H 1670.8334 V 1262.874 H 0 Z"
         transform="scale(0.33336658)"
         clip-rule="evenodd"
         id="path19" />
    </clipPath>
    <clipPath
       clipPathUnits="userSpaceOnUse"
       id="clipPath20">
      <path
         d="M 0,0 H 1670.8334 V 1262.874 H 0 Z"
         transform="matrix(0.33336325,0,0,0.33336325,-401.09375,-353)"
         clip-rule="evenodd"
         id="path20" />
    </clipPath>
    <clipPath
       clipPathUnits="userSpaceOnUse"
       id="clipPath22">
      <path
         d="M 0,0 H 1670.8334 V 1262.874 H 0 Z"
         transform="matrix(0.33336658,0,0,0.33336658,-0.49999999,-0.49999999)"
         clip-rule="evenodd"
         id="path22" />
    </clipPath>
    <clipPath
       clipPathUnits="userSpaceOnUse"
       id="clipPath24">
      <path
         d="M 0,0 H 1670.8334 V 1262.874 H 0 Z"
         transform="matrix(0.33336658,0,0,0.33336658,-0.49999999,-0.49999999)"
         clip-rule="evenodd"
         id="path24" />
    </clipPath>
    <clipPath
       clipPathUnits="userSpaceOnUse"
       id="clipPath26">
      <path
         d="M 0,0 H 1670.8334 V 1262.874 H 0 Z"
         transform="matrix(0.33336658,0,0,0.33336658,-0.49999999,-0.49999999)"
         clip-rule="evenodd"
         id="path26" />
    </clipPath>
    <clipPath
       clipPathUnits="userSpaceOnUse"
       id="clipPath28">
      <path
         d="M 0,0 H 1670.8334 V 1262.874 H 0 Z"
         transform="matrix(0.33336658,0,0,0.33336658,-0.49999999,-0.49999999)"
         clip-rule="evenodd"
         id="path28" />
    </clipPath>
    <clipPath
       clipPathUnits="userSpaceOnUse"
       id="clipPath30">
      <path
         d="M 0,0 H 1670.8334 V 1262.874 H 0 Z"
         transform="scale(0.33336658)"
         clip-rule="evenodd"
         id="path30" />
    </clipPath>
    <clipPath
       clipPathUnits="userSpaceOnUse"
       id="clipPath31">
      <path
         d="M 0,0 H 1670.8334 V 1262.874 H 0 Z"
         transform="matrix(0.33336325,0,0,0.33336325,-253.20313,-117)"
         clip-rule="evenodd"
         id="path31" />
    </clipPath>
    <clipPath
       clipPathUnits="userSpaceOnUse"
       id="clipPath33">
      <path
         d="M 0,0 H 1670.8334 V 1262.874 H 0 Z"
         transform="matrix(0.33336658,0,0,0.33336658,-0.49999999,-0.49999999)"
         clip-rule="evenodd"
         id="path33" />
    </clipPath>
    <clipPath
       clipPathUnits="userSpaceOnUse"
       id="clipPath35">
      <path
         d="M 0,0 H 1670.8334 V 1262.874 H 0 Z"
         transform="matrix(0.33336658,0,0,0.33336658,-0.49999999,-0.49999999)"
         clip-rule="evenodd"
         id="path35" />
    </clipPath>
    <clipPath
       clipPathUnits="userSpaceOnUse"
       id="clipPath36">
      <path
         d="M 0,0 H 1670.8334 V 1262.874 H 0 Z"
         transform="matrix(0.33336325,0,0,0.33336325,-219.65625,-22)"
         clip-rule="evenodd"
         id="path36" />
    </clipPath>
  </defs>
  <sodipodi:namedview
     id="namedview1"
     pagecolor="#ffffff"
     bordercolor="#000000"
     borderopacity="0.25"
     inkscape:showpageshadow="2"
     inkscape:pageopacity="0.0"
     inkscape:pagecheckerboard="0"
     inkscape:deskcolor="#d1d1d1">
    <inkscape:page
       x="0"
       y="0"
       inkscape:label="1"
       id="page1"
       width="534.71997"
       height="405.44"
       margin="0"
       bleed="0" />
  </sodipodi:namedview>
  <g
     id="g1"
     inkscape:groupmode="layer"
     inkscape:label="1">
    <path
       id="path1"
       d="M 0,0 H 557 V 422 H 0 Z"
       style="fill:#ffffff;fill-opacity:1;fill-rule:nonzero;stroke:none"
       transform="scale(0.95990422)"
       clip-path="url(#clipPath2)" />
    <path
       id="path3"
       d="M 1,210 H 251 V 390 H 1 Z"
       style="fill:#ffffff;fill-opacity:1;fill-rule:nonzero;stroke:#000000;stroke-width:1;stroke-linecap:butt;stroke-linejoin:miter;stroke-miterlimit:10;stroke-dasharray:none;stroke-opacity:1"
       transform="scale(0.95990422)"
       clip-path="url(#clipPath4)" />
    <text
       id="text4"
       xml:space="preserve"
       transform="matrix(0.95991382,0,0,0.95991382,49.585548,398.36423)"
       clip-path="url(#clipPath5)"><tspan
         style="font-variant:normal;font-weight:700;font-size:19px;font-family:Helvetica;writing-mode:lr-tb;fill:#000000;fill-opacity:1;fill-rule:nonzero;stroke:none"
         x="0 14.778809 22.172852 32.739746 43.306641 49.633789 54.912598 66.518555 78.124512 88.691406 93.970215 107.69141 112.97021 123.53711 134.104"
         y="0"
         sodipodi:role="line"
         id="tspan4">Greetings Class</tspan></text>
    <path
       id="path6"
       d="m 26,230 h 195 v 60 H 26 Z"
       style="fill:#ffffff;fill-opacity:1;fill-rule:nonzero;stroke:#000000;stroke-width:1;stroke-linecap:butt;stroke-linejoin:miter;stroke-miterlimit:10;stroke-dasharray:none;stroke-opacity:1"
       transform="scale(0.95990422)"
       clip-path="url(#clipPath7)" />
    <text
       id="text7"
       xml:space="preserve"
       transform="matrix(0.95991382,0,0,0.95991382,89.646951,256.29699)"
       clip-path="url(#clipPath8)"><tspan
         style="font-variant:normal;font-weight:normal;font-size:19px;font-family:Helvetica;writing-mode:lr-tb;fill:#000000;fill-opacity:1;fill-rule:nonzero;stroke:none"
         x="0 10.566895 21.133789 31.700684 35.921875 40.143066 49.643066"
         y="0"
         sodipodi:role="line"
         id="tspan7">english</tspan></text>
    <path
       id="path9"
       d="m 26,316 h 195 v 60 H 26 Z"
       style="fill:#ffffff;fill-opacity:1;fill-rule:nonzero;stroke:#000000;stroke-width:1;stroke-linecap:butt;stroke-linejoin:miter;stroke-miterlimit:10;stroke-dasharray:none;stroke-opacity:1"
       transform="scale(0.95990422)"
       clip-path="url(#clipPath10)" />
    <text
       id="text10"
       xml:space="preserve"
       transform="matrix(0.95991382,0,0,0.95991382,87.112179,338.84958)"
       clip-path="url(#clipPath11)"><tspan
         style="font-variant:normal;font-weight:normal;font-size:19px;font-family:Helvetica;writing-mode:lr-tb;fill:#000000;fill-opacity:1;fill-rule:nonzero;stroke:none"
         x="0 9.5 20.066895 30.633789 41.200684 45.421875 54.921875"
         y="0"
         sodipodi:role="line"
         id="tspan10">spanish</tspan></text>
    <path
       id="path12"
       d="m 304.5,210 h 250 v 180 h -250 z"
       style="fill:#ffffff;fill-opacity:1;fill-rule:nonzero;stroke:#000000;stroke-width:1;stroke-linecap:butt;stroke-linejoin:miter;stroke-miterlimit:10;stroke-dasharray:none;stroke-opacity:1"
       transform="scale(0.95990422)"
       clip-path="url(#clipPath13)" />
    <text
       id="text13"
       xml:space="preserve"
       transform="matrix(0.95991382,0,0,0.95991382,321.52614,398.36423)"
       clip-path="url(#clipPath14)"><tspan
         style="font-variant:normal;font-weight:700;font-size:19px;font-family:Helvetica;writing-mode:lr-tb;fill:#000000;fill-opacity:1;fill-rule:nonzero;stroke:none"
         x="0 15.827148 27.433105 34.827148 45.394043 60.172852 67.566895 78.133789 88.700684 95.027832 100.30664 111.9126 123.51855 134.08545 139.36426 153.08545 158.36426 168.93115 179.49805"
         y="0"
         sodipodi:role="line"
         id="tspan13">MoreGreetings Class</tspan></text>
    <path
       id="path15"
       d="m 329.5,230 h 195 v 60 h -195 z"
       style="fill:#ffffff;fill-opacity:1;fill-rule:nonzero;stroke:#000000;stroke-width:1;stroke-linecap:butt;stroke-linejoin:miter;stroke-miterlimit:10;stroke-dasharray:none;stroke-opacity:1"
       transform="scale(0.95990422)"
       clip-path="url(#clipPath16)" />
    <text
       id="text16"
       xml:space="preserve"
       transform="matrix(0.95991382,0,0,0.95991382,379.43593,256.29699)"
       clip-path="url(#clipPath17)"><tspan
         style="font-variant:normal;font-weight:normal;font-size:19px;font-family:Helvetica;writing-mode:lr-tb;fill:#000000;fill-opacity:1;fill-rule:nonzero;stroke:none"
         x="0 10.566895 21.133789 27.460938 43.288086 53.85498"
         y="0"
         sodipodi:role="line"
         id="tspan16">german</tspan></text>
    <path
       id="path18"
       d="m 329.5,316 h 195 v 60 h -195 z"
       style="fill:#ffffff;fill-opacity:1;fill-rule:nonzero;stroke:#000000;stroke-width:1;stroke-linecap:butt;stroke-linejoin:miter;stroke-miterlimit:10;stroke-dasharray:none;stroke-opacity:1"
       transform="scale(0.95990422)"
       clip-path="url(#clipPath19)" />
    <text
       id="text19"
       xml:space="preserve"
       transform="matrix(0.95991382,0,0,0.95991382,385.01543,338.84958)"
       clip-path="url(#clipPath20)"><tspan
         style="font-variant:normal;font-weight:normal;font-size:19px;font-family:Helvetica;writing-mode:lr-tb;fill:#000000;fill-opacity:1;fill-rule:nonzero;stroke:none"
         x="0 5.2788086 11.605957 22.172852 32.739746 42.239746"
         y="0"
         sodipodi:role="line"
         id="tspan19">french</tspan></text>
    <path
       id="path21"
       d="m 228.75,140 -0.05,35 H 126 v 24.89999"
       style="fill:none;stroke:#000000;stroke-width:1;stroke-linecap:butt;stroke-linejoin:miter;stroke-miterlimit:10;stroke-dasharray:none;stroke-opacity:1"
       transform="matrix(0.95990422,0,0,0.95990422,0.4799521,0.4799521)"
       clip-path="url(#clipPath22)" />
    <path
       id="path23"
       d="m 126,206.64999 -4.5,-9 4.5,2.25 4.5,-2.25 z"
       style="fill:#000000;fill-opacity:1;fill-rule:nonzero;stroke:#000000;stroke-width:1;stroke-linecap:butt;stroke-linejoin:miter;stroke-miterlimit:10;stroke-dasharray:none;stroke-opacity:1"
       transform="matrix(0.95990422,0,0,0.95990422,0.4799521,0.4799521)"
       clip-path="url(#clipPath24)" />
    <path
       id="path25"
       d="m 326.25,140 0.05,35 h 103.20001 v 24.89999"
       style="fill:none;stroke:#000000;stroke-width:1;stroke-linecap:butt;stroke-linejoin:miter;stroke-miterlimit:10;stroke-dasharray:none;stroke-opacity:1"
       transform="matrix(0.95990422,0,0,0.95990422,0.4799521,0.4799521)"
       clip-path="url(#clipPath26)" />
    <path
       id="path27"
       d="m 429.5,206.64999 -4.5,-9 4.5,2.25 4.5,-2.25 z"
       style="fill:#000000;fill-opacity:1;fill-rule:nonzero;stroke:#000000;stroke-width:1;stroke-linecap:butt;stroke-linejoin:miter;stroke-miterlimit:10;stroke-dasharray:none;stroke-opacity:1"
       transform="matrix(0.95990422,0,0,0.95990422,0.4799521,0.4799521)"
       clip-path="url(#clipPath28)" />
    <path
       id="path29"
       d="m 180,80 h 195 v 60 H 180 Z"
       style="fill:#ffffff;fill-opacity:1;fill-rule:nonzero;stroke:#000000;stroke-width:1;stroke-linecap:butt;stroke-linejoin:miter;stroke-miterlimit:10;stroke-dasharray:none;stroke-opacity:1"
       transform="scale(0.95990422)"
       clip-path="url(#clipPath30)" />
    <text
       id="text30"
       xml:space="preserve"
       transform="matrix(0.95991382,0,0,0.95991382,243.05318,112.30992)"
       clip-path="url(#clipPath31)"><tspan
         style="font-variant:normal;font-weight:normal;font-size:19px;font-family:Helvetica;writing-mode:lr-tb;fill:#000000;fill-opacity:1;fill-rule:nonzero;stroke:none"
         x="0 12.672852 19 29.566895 39.066895"
         y="0"
         sodipodi:role="line"
         id="tspan30">Proxy</tspan></text>
    <path
       id="path32"
       d="M 277.5,30 V 69.900002"
       style="fill:none;stroke:#000000;stroke-width:1;stroke-linecap:butt;stroke-linejoin:miter;stroke-miterlimit:10;stroke-dasharray:none;stroke-opacity:1"
       transform="matrix(0.95990422,0,0,0.95990422,0.4799521,0.4799521)"
       clip-path="url(#clipPath33)" />
    <path
       id="path34"
       d="m 277.5,76.650002 -4.5,-9 4.5,2.25 4.5,-2.25 z"
       style="fill:#000000;fill-opacity:1;fill-rule:nonzero;stroke:#000000;stroke-width:1;stroke-linecap:butt;stroke-linejoin:miter;stroke-miterlimit:10;stroke-dasharray:none;stroke-opacity:1"
       transform="matrix(0.95990422,0,0,0.95990422,0.4799521,0.4799521)"
       clip-path="url(#clipPath35)" />
    <text
       id="text35"
       xml:space="preserve"
       transform="matrix(0.95991382,0,0,0.95991382,210.85107,21.118104)"
       clip-path="url(#clipPath36)"><tspan
         style="font-variant:normal;font-weight:700;font-size:19px;font-family:Helvetica;writing-mode:lr-tb;fill:#000000;fill-opacity:1;fill-rule:nonzero;stroke:none"
         x="0 13.721191 24.288086 29.566895 34.845703 40.124512 44.642578 55.209473 66.81543 78.421387 83.700195 88.979004 99.545898 111.15186"
         y="0"
         sodipodi:role="line"
         id="tspan35">Call 'english'</tspan></text>
  </g>
</svg>
