<?xml version="1.0" encoding="UTF-8" standalone="no"?>
<!-- Created with Inkscape (http://www.inkscape.org/) -->

<svg
   version="1.1"
   id="svg1"
   width="1029.4399"
   height="437.44"
   viewBox="0 0 1029.4399 437.44"
   sodipodi:docname="node-9.pdf"
   xmlns:inkscape="http://www.inkscape.org/namespaces/inkscape"
   xmlns:sodipodi="http://sodipodi.sourceforge.net/DTD/sodipodi-0.dtd"
   xmlns="http://www.w3.org/2000/svg"
   xmlns:svg="http://www.w3.org/2000/svg">
  <defs
     id="defs1">
    <clipPath
       clipPathUnits="userSpaceOnUse"
       id="clipPath2">
      <path
         d="M 0,0 H 3216.6665 V 1365.7355 H 0 Z"
         transform="scale(0.33388603)"
         clip-rule="evenodd"
         id="path2" />
    </clipPath>
    <clipPath
       clipPathUnits="userSpaceOnUse"
       id="clipPath4">
      <path
         d="M 0,0 H 3216.6665 V 1359.7455 H 0 Z"
         transform="matrix(0.33388603,0,0,0.33388603,-0.5,-0.5)"
         clip-rule="evenodd"
         id="path4" />
    </clipPath>
    <clipPath
       clipPathUnits="userSpaceOnUse"
       id="clipPath6">
      <path
         d="M 0,0 H 3216.6665 V 1359.7455 H 0 Z"
         transform="matrix(0.33388603,0,0,0.33388603,-0.5,-0.5)"
         clip-rule="evenodd"
         id="path6" />
    </clipPath>
    <clipPath
       clipPathUnits="userSpaceOnUse"
       id="clipPath8">
      <path
         d="M 0,0 H 3216.6665 V 1359.7455 H 0 Z"
         transform="matrix(0.33388603,0,0,0.33388603,-0.5,-0.5)"
         clip-rule="evenodd"
         id="path8" />
    </clipPath>
    <clipPath
       clipPathUnits="userSpaceOnUse"
       id="clipPath10">
      <path
         d="M 0,0 H 3216.6665 V 1359.7455 H 0 Z"
         transform="matrix(0.33388603,0,0,0.33388603,-0.5,-0.5)"
         clip-rule="evenodd"
         id="path10" />
    </clipPath>
    <clipPath
       clipPathUnits="userSpaceOnUse"
       id="clipPath12">
      <path
         d="M 0,0 H 3216.6665 V 1359.7455 H 0 Z"
         transform="scale(0.33388603)"
         clip-rule="evenodd"
         id="path12" />
    </clipPath>
    <clipPath
       clipPathUnits="userSpaceOnUse"
       id="clipPath13">
      <path
         d="M 0,0 H 3216.6665 V 1359.7455 H 0 Z"
         transform="matrix(0.33388268,0,0,0.33388268,-526.92188,-41.999999)"
         clip-rule="evenodd"
         id="path13" />
    </clipPath>
    <clipPath
       clipPathUnits="userSpaceOnUse"
       id="clipPath15">
      <path
         d="M 0,0 H 3216.6665 V 1359.7455 H 0 Z"
         transform="matrix(0.33388603,0,0,0.33388603,-0.5,-0.5)"
         clip-rule="evenodd"
         id="path15" />
    </clipPath>
    <clipPath
       clipPathUnits="userSpaceOnUse"
       id="clipPath17">
      <path
         d="M 0,0 H 3216.6665 V 1359.7455 H 0 Z"
         transform="matrix(0.33388603,0,0,0.33388603,-0.5,-0.5)"
         clip-rule="evenodd"
         id="path17" />
    </clipPath>
    <clipPath
       clipPathUnits="userSpaceOnUse"
       id="clipPath19">
      <path
         d="M 0,0 H 3216.6665 V 1359.7455 H 0 Z"
         transform="matrix(0.33388603,0,0,0.33388603,-0.5,-0.5)"
         clip-rule="evenodd"
         id="path19" />
    </clipPath>
    <clipPath
       clipPathUnits="userSpaceOnUse"
       id="clipPath21">
      <path
         d="M 0,0 H 3216.6665 V 1359.7455 H 0 Z"
         transform="matrix(0.33388603,0,0,0.33388603,-0.5,-0.5)"
         clip-rule="evenodd"
         id="path21" />
    </clipPath>
    <clipPath
       clipPathUnits="userSpaceOnUse"
       id="clipPath23">
      <path
         d="M 0,0 H 3216.6665 V 1359.7455 H 0 Z"
         transform="matrix(0.33388603,0,0,0.33388603,-0.5,-0.5)"
         clip-rule="evenodd"
         id="path23" />
    </clipPath>
    <clipPath
       clipPathUnits="userSpaceOnUse"
       id="clipPath25">
      <path
         d="M 0,0 H 3216.6665 V 1359.7455 H 0 Z"
         transform="matrix(0.33388603,0,0,0.33388603,-0.5,-0.5)"
         clip-rule="evenodd"
         id="path25" />
    </clipPath>
    <clipPath
       clipPathUnits="userSpaceOnUse"
       id="clipPath27">
      <path
         d="M 0,0 H 3216.6665 V 1359.7455 H 0 Z"
         transform="scale(0.33388603)"
         clip-rule="evenodd"
         id="path27" />
    </clipPath>
    <clipPath
       clipPathUnits="userSpaceOnUse"
       id="clipPath28">
      <path
         d="M 0,0 H 3216.6665 V 1359.7455 H 0 Z"
         transform="matrix(0.33388268,0,0,0.33388268,-233.60938,-172)"
         clip-rule="evenodd"
         id="path28" />
    </clipPath>
    <clipPath
       clipPathUnits="userSpaceOnUse"
       id="clipPath30">
      <path
         d="M 0,0 H 3216.6665 V 1359.7455 H 0 Z"
         transform="matrix(0.33388603,0,0,0.33388603,-0.5,-0.5)"
         clip-rule="evenodd"
         id="path30" />
    </clipPath>
    <clipPath
       clipPathUnits="userSpaceOnUse"
       id="clipPath32">
      <path
         d="M 0,0 H 3216.6665 V 1359.7455 H 0 Z"
         transform="matrix(0.33388603,0,0,0.33388603,-0.5,-0.5)"
         clip-rule="evenodd"
         id="path32" />
    </clipPath>
    <clipPath
       clipPathUnits="userSpaceOnUse"
       id="clipPath34">
      <path
         d="M 0,0 H 3216.6665 V 1359.7455 H 0 Z"
         transform="matrix(0.33388603,0,0,0.33388603,-0.5,-0.5)"
         clip-rule="evenodd"
         id="path34" />
    </clipPath>
    <clipPath
       clipPathUnits="userSpaceOnUse"
       id="clipPath36">
      <path
         d="M 0,0 H 3216.6665 V 1359.7455 H 0 Z"
         transform="matrix(0.33388603,0,0,0.33388603,-0.5,-0.5)"
         clip-rule="evenodd"
         id="path36" />
    </clipPath>
    <clipPath
       clipPathUnits="userSpaceOnUse"
       id="clipPath38">
      <path
         d="M 0,0 H 3216.6665 V 1359.7455 H 0 Z"
         transform="scale(0.33388603)"
         clip-rule="evenodd"
         id="path38" />
    </clipPath>
    <clipPath
       clipPathUnits="userSpaceOnUse"
       id="clipPath39">
      <path
         d="M 0,0 H 3216.6665 V 1359.7455 H 0 Z"
         transform="matrix(0.33388268,0,0,0.33388268,-797.07813,-172)"
         clip-rule="evenodd"
         id="path39" />
    </clipPath>
    <clipPath
       clipPathUnits="userSpaceOnUse"
       id="clipPath40">
      <path
         d="M 0,0 H 3216.6665 V 1359.7455 H 0 Z"
         transform="matrix(0.33388268,0,0,0.33388268,-846.21875,-172)"
         clip-rule="evenodd"
         id="path40" />
    </clipPath>
    <clipPath
       clipPathUnits="userSpaceOnUse"
       id="clipPath41">
      <path
         d="M 0,0 H 3216.6665 V 1359.7455 H 0 Z"
         transform="matrix(0.33388268,0,0,0.33388268,-879.27002,-172)"
         clip-rule="evenodd"
         id="path41" />
    </clipPath>
    <clipPath
       clipPathUnits="userSpaceOnUse"
       id="clipPath43">
      <path
         d="M 0,0 H 3216.6665 V 1359.7455 H 0 Z"
         transform="scale(0.33388603)"
         clip-rule="evenodd"
         id="path43" />
    </clipPath>
    <clipPath
       clipPathUnits="userSpaceOnUse"
       id="clipPath44">
      <path
         d="M 0,0 H 3216.6665 V 1359.7455 H 0 Z"
         transform="matrix(0.33388268,0,0,0.33388268,-30.796874,-292)"
         clip-rule="evenodd"
         id="path44" />
    </clipPath>
    <clipPath
       clipPathUnits="userSpaceOnUse"
       id="clipPath46">
      <path
         d="M 0,0 H 3216.6665 V 1359.7455 H 0 Z"
         transform="matrix(0.33388603,0,0,0.33388603,-0.5,-0.5)"
         clip-rule="evenodd"
         id="path46" />
    </clipPath>
    <clipPath
       clipPathUnits="userSpaceOnUse"
       id="clipPath48">
      <path
         d="M 0,0 H 3216.6665 V 1359.7455 H 0 Z"
         transform="matrix(0.33388603,0,0,0.33388603,-0.5,-0.5)"
         clip-rule="evenodd"
         id="path48" />
    </clipPath>
    <clipPath
       clipPathUnits="userSpaceOnUse"
       id="clipPath50">
      <path
         d="M 0,0 H 3216.6665 V 1359.7455 H 0 Z"
         transform="matrix(0.33388603,0,0,0.33388603,-0.5,-0.5)"
         clip-rule="evenodd"
         id="path50" />
    </clipPath>
    <clipPath
       clipPathUnits="userSpaceOnUse"
       id="clipPath52">
      <path
         d="M 0,0 H 3216.6665 V 1359.7455 H 0 Z"
         transform="matrix(0.33388603,0,0,0.33388603,-0.5,-0.5)"
         clip-rule="evenodd"
         id="path52" />
    </clipPath>
    <clipPath
       clipPathUnits="userSpaceOnUse"
       id="clipPath54">
      <path
         d="M 0,0 H 3216.6665 V 1359.7455 H 0 Z"
         transform="scale(0.33388603)"
         clip-rule="evenodd"
         id="path54" />
    </clipPath>
    <clipPath
       clipPathUnits="userSpaceOnUse"
       id="clipPath55">
      <path
         d="M 0,0 H 3216.6665 V 1359.7455 H 0 Z"
         transform="matrix(0.33388268,0,0,0.33388268,-211.90625,-282)"
         clip-rule="evenodd"
         id="path55" />
    </clipPath>
    <clipPath
       clipPathUnits="userSpaceOnUse"
       id="clipPath56">
      <path
         d="M 0,0 H 3216.6665 V 1359.7455 H 0 Z"
         transform="matrix(0.33388268,0,0,0.33388268,-273.3125,-303)"
         clip-rule="evenodd"
         id="path56" />
    </clipPath>
    <clipPath
       clipPathUnits="userSpaceOnUse"
       id="clipPath58">
      <path
         d="M 0,0 H 3216.6665 V 1359.7455 H 0 Z"
         transform="matrix(0.33388603,0,0,0.33388603,-0.5,-0.5)"
         clip-rule="evenodd"
         id="path58" />
    </clipPath>
    <clipPath
       clipPathUnits="userSpaceOnUse"
       id="clipPath60">
      <path
         d="M 0,0 H 3216.6665 V 1359.7455 H 0 Z"
         transform="matrix(0.33388603,0,0,0.33388603,-0.5,-0.5)"
         clip-rule="evenodd"
         id="path60" />
    </clipPath>
    <clipPath
       clipPathUnits="userSpaceOnUse"
       id="clipPath62">
      <path
         d="M 0,0 H 3216.6665 V 1359.7455 H 0 Z"
         transform="scale(0.33388603)"
         clip-rule="evenodd"
         id="path62" />
    </clipPath>
    <clipPath
       clipPathUnits="userSpaceOnUse"
       id="clipPath63">
      <path
         d="M 0,0 H 3216.6665 V 1359.7455 H 0 Z"
         transform="matrix(0.33388268,0,0,0.33388268,-426.8125,-282)"
         clip-rule="evenodd"
         id="path63" />
    </clipPath>
    <clipPath
       clipPathUnits="userSpaceOnUse"
       id="clipPath64">
      <path
         d="M 0,0 H 3216.6665 V 1359.7455 H 0 Z"
         transform="matrix(0.33388268,0,0,0.33388268,-521.3125,-282)"
         clip-rule="evenodd"
         id="path64" />
    </clipPath>
    <clipPath
       clipPathUnits="userSpaceOnUse"
       id="clipPath65">
      <path
         d="M 0,0 H 3216.6665 V 1359.7455 H 0 Z"
         transform="matrix(0.33388268,0,0,0.33388268,-478.3125,-303)"
         clip-rule="evenodd"
         id="path65" />
    </clipPath>
    <clipPath
       clipPathUnits="userSpaceOnUse"
       id="clipPath67">
      <path
         d="M 0,0 H 3216.6665 V 1359.7455 H 0 Z"
         transform="scale(0.33388603)"
         clip-rule="evenodd"
         id="path67" />
    </clipPath>
    <clipPath
       clipPathUnits="userSpaceOnUse"
       id="clipPath68">
      <path
         d="M 0,0 H 3216.6665 V 1359.7455 H 0 Z"
         transform="matrix(0.33388268,0,0,0.33388268,-4.8125,-412)"
         clip-rule="evenodd"
         id="path68" />
    </clipPath>
    <clipPath
       clipPathUnits="userSpaceOnUse"
       id="clipPath69">
      <path
         d="M 0,0 H 3216.6665 V 1359.7455 H 0 Z"
         transform="matrix(0.33388268,0,0,0.33388268,-36.46875,-433)"
         clip-rule="evenodd"
         id="path69" />
    </clipPath>
    <clipPath
       clipPathUnits="userSpaceOnUse"
       id="clipPath71">
      <path
         d="M 0,0 H 3216.6665 V 1359.7455 H 0 Z"
         transform="scale(0.33388603)"
         clip-rule="evenodd"
         id="path71" />
    </clipPath>
    <clipPath
       clipPathUnits="userSpaceOnUse"
       id="clipPath72">
      <path
         d="M 0,0 H 3216.6665 V 1359.7455 H 0 Z"
         transform="matrix(0.33388268,0,0,0.33388268,-210,-402)"
         clip-rule="evenodd"
         id="path72" />
    </clipPath>
    <clipPath
       clipPathUnits="userSpaceOnUse"
       id="clipPath73">
      <path
         d="M 0,0 H 3216.6665 V 1359.7455 H 0 Z"
         transform="matrix(0.33388268,0,0,0.33388268,-203.90625,-422)"
         clip-rule="evenodd"
         id="path73" />
    </clipPath>
    <clipPath
       clipPathUnits="userSpaceOnUse"
       id="clipPath74">
      <path
         d="M 0,0 H 3216.6665 V 1359.7455 H 0 Z"
         transform="matrix(0.33388268,0,0,0.33388268,-277.07813,-442.99999)"
         clip-rule="evenodd"
         id="path74" />
    </clipPath>
    <clipPath
       clipPathUnits="userSpaceOnUse"
       id="clipPath76">
      <path
         d="M 0,0 H 3216.6665 V 1359.7455 H 0 Z"
         transform="scale(0.33388603)"
         clip-rule="evenodd"
         id="path76" />
    </clipPath>
    <clipPath
       clipPathUnits="userSpaceOnUse"
       id="clipPath77">
      <path
         d="M 0,0 H 3216.6665 V 1359.7455 H 0 Z"
         transform="matrix(0.33388268,0,0,0.33388268,-414.07813,-412)"
         clip-rule="evenodd"
         id="path77" />
    </clipPath>
    <clipPath
       clipPathUnits="userSpaceOnUse"
       id="clipPath78">
      <path
         d="M 0,0 H 3216.6665 V 1359.7455 H 0 Z"
         transform="matrix(0.33388268,0,0,0.33388268,-462.25,-433)"
         clip-rule="evenodd"
         id="path78" />
    </clipPath>
    <clipPath
       clipPathUnits="userSpaceOnUse"
       id="clipPath80">
      <path
         d="M 0,0 H 3216.6665 V 1359.7455 H 0 Z"
         transform="scale(0.33388603)"
         clip-rule="evenodd"
         id="path80" />
    </clipPath>
    <clipPath
       clipPathUnits="userSpaceOnUse"
       id="clipPath81">
      <path
         d="M 0,0 H 3216.6665 V 1359.7455 H 0 Z"
         transform="matrix(0.33388268,0,0,0.33388268,-690.95313,-282)"
         clip-rule="evenodd"
         id="path81" />
    </clipPath>
    <clipPath
       clipPathUnits="userSpaceOnUse"
       id="clipPath82">
      <path
         d="M 0,0 H 3216.6665 V 1359.7455 H 0 Z"
         transform="matrix(0.33388268,0,0,0.33388268,-737.25,-303)"
         clip-rule="evenodd"
         id="path82" />
    </clipPath>
    <clipPath
       clipPathUnits="userSpaceOnUse"
       id="clipPath84">
      <path
         d="M 0,0 H 3216.6665 V 1359.7455 H 0 Z"
         transform="scale(0.33388603)"
         clip-rule="evenodd"
         id="path84" />
    </clipPath>
    <clipPath
       clipPathUnits="userSpaceOnUse"
       id="clipPath85">
      <path
         d="M 0,0 H 3216.6665 V 1359.7455 H 0 Z"
         transform="matrix(0.33388268,0,0,0.33388268,-884.48438,-282)"
         clip-rule="evenodd"
         id="path85" />
    </clipPath>
    <clipPath
       clipPathUnits="userSpaceOnUse"
       id="clipPath86">
      <path
         d="M 0,0 H 3216.6665 V 1359.7455 H 0 Z"
         transform="matrix(0.33388268,0,0,0.33388268,-946.23438,-303)"
         clip-rule="evenodd"
         id="path86" />
    </clipPath>
  </defs>
  <sodipodi:namedview
     id="namedview1"
     pagecolor="#ffffff"
     bordercolor="#000000"
     borderopacity="0.25"
     inkscape:showpageshadow="2"
     inkscape:pageopacity="0.0"
     inkscape:pagecheckerboard="0"
     inkscape:deskcolor="#d1d1d1">
    <inkscape:page
       x="0"
       y="0"
       inkscape:label="1"
       id="page1"
       width="1029.4399"
       height="437.44"
       margin="0"
       bleed="0" />
  </sodipodi:namedview>
  <g
     id="g1"
     inkscape:groupmode="layer"
     inkscape:label="1">
    <path
       id="path1"
       d="M 0,0 H 1074 V 456 H 0 Z"
       style="fill:#ffffff;fill-opacity:1;fill-rule:nonzero;stroke:none"
       transform="scale(0.95841084)"
       clip-path="url(#clipPath2)" />
    <path
       id="path3"
       d="m 518.51001,71 -0.01,30 h -222.5 v 19.9"
       style="fill:none;stroke:#000000;stroke-width:1;stroke-linecap:butt;stroke-linejoin:miter;stroke-miterlimit:10;stroke-dasharray:none;stroke-opacity:1"
       transform="matrix(0.95841084,0,0,0.95841084,0.47920542,0.47920542)"
       clip-path="url(#clipPath4)" />
    <path
       id="path5"
       d="m 296,127.65 -4.5,-9 4.5,2.25 4.5,-2.25 z"
       style="fill:#000000;fill-opacity:1;fill-rule:nonzero;stroke:#000000;stroke-width:1;stroke-linecap:butt;stroke-linejoin:miter;stroke-miterlimit:10;stroke-dasharray:none;stroke-opacity:1"
       transform="matrix(0.95841084,0,0,0.95841084,0.47920542,0.47920542)"
       clip-path="url(#clipPath6)" />
    <path
       id="path7"
       d="m 613.51001,71 -0.01,30 h 262.5 v 19.9"
       style="fill:none;stroke:#000000;stroke-width:1;stroke-linecap:butt;stroke-linejoin:miter;stroke-miterlimit:10;stroke-dasharray:none;stroke-opacity:1"
       transform="matrix(0.95841084,0,0,0.95841084,0.47920542,0.47920542)"
       clip-path="url(#clipPath8)" />
    <path
       id="path9"
       d="m 876,127.65 -4.5,-9 4.5,2.25 4.5,-2.25 z"
       style="fill:#000000;fill-opacity:1;fill-rule:nonzero;stroke:#000000;stroke-width:1;stroke-linecap:butt;stroke-linejoin:miter;stroke-miterlimit:10;stroke-dasharray:none;stroke-opacity:1"
       transform="matrix(0.95841084,0,0,0.95841084,0.47920542,0.47920542)"
       clip-path="url(#clipPath10)" />
    <path
       id="path11"
       d="M 471,1 H 661 V 71 H 471 Z"
       style="fill:#ffffff;fill-opacity:1;fill-rule:nonzero;stroke:#000000;stroke-width:1;stroke-linecap:butt;stroke-linejoin:miter;stroke-miterlimit:10;stroke-dasharray:none;stroke-opacity:1"
       transform="scale(0.95841084)"
       clip-path="url(#clipPath12)" />
    <text
       id="text12"
       xml:space="preserve"
       transform="matrix(0.95842044,0,0,0.95842044,505.0127,40.253658)"
       clip-path="url(#clipPath13)"><tspan
         style="font-variant:normal;font-weight:normal;font-size:17px;font-family:Helvetica;writing-mode:lr-tb;fill:#000000;fill-opacity:1;fill-rule:nonzero;stroke:none"
         x="0 11.338867 15.115723 24.570312 34.024902 38.449219 46.949219 56.403809 64.903809 69.626953"
         y="0"
         sodipodi:role="line"
         id="tspan12">Blog Tests</tspan></text>
    <path
       id="path14"
       d="m 248.5,201 v 25 H 96 v 14.89999"
       style="fill:none;stroke:#000000;stroke-width:1;stroke-linecap:butt;stroke-linejoin:miter;stroke-miterlimit:10;stroke-dasharray:none;stroke-opacity:1"
       transform="matrix(0.95841084,0,0,0.95841084,0.47920542,0.47920542)"
       clip-path="url(#clipPath15)" />
    <path
       id="path16"
       d="m 96,247.64999 -4.5,-9 4.5,2.25 4.5,-2.25 z"
       style="fill:#000000;fill-opacity:1;fill-rule:nonzero;stroke:#000000;stroke-width:1;stroke-linecap:butt;stroke-linejoin:miter;stroke-miterlimit:10;stroke-dasharray:none;stroke-opacity:1"
       transform="matrix(0.95841084,0,0,0.95841084,0.47920542,0.47920542)"
       clip-path="url(#clipPath17)" />
    <path
       id="path18"
       d="m 296,201 v 39.89999"
       style="fill:none;stroke:#000000;stroke-width:1;stroke-linecap:butt;stroke-linejoin:miter;stroke-miterlimit:10;stroke-dasharray:none;stroke-opacity:1"
       transform="matrix(0.95841084,0,0,0.95841084,0.47920542,0.47920542)"
       clip-path="url(#clipPath19)" />
    <path
       id="path20"
       d="m 296,247.64999 -4.5,-9 4.5,2.25 4.5,-2.25 z"
       style="fill:#000000;fill-opacity:1;fill-rule:nonzero;stroke:#000000;stroke-width:1;stroke-linecap:butt;stroke-linejoin:miter;stroke-miterlimit:10;stroke-dasharray:none;stroke-opacity:1"
       transform="matrix(0.95841084,0,0,0.95841084,0.47920542,0.47920542)"
       clip-path="url(#clipPath21)" />
    <path
       id="path22"
       d="m 343.5,201 v 25 H 501 v 14.89999"
       style="fill:none;stroke:#000000;stroke-width:1;stroke-linecap:butt;stroke-linejoin:miter;stroke-miterlimit:10;stroke-dasharray:none;stroke-opacity:1"
       transform="matrix(0.95841084,0,0,0.95841084,0.47920542,0.47920542)"
       clip-path="url(#clipPath23)" />
    <path
       id="path24"
       d="m 501,247.64999 -4.5,-9 4.5,2.25 4.5,-2.25 z"
       style="fill:#000000;fill-opacity:1;fill-rule:nonzero;stroke:#000000;stroke-width:1;stroke-linecap:butt;stroke-linejoin:miter;stroke-miterlimit:10;stroke-dasharray:none;stroke-opacity:1"
       transform="matrix(0.95841084,0,0,0.95841084,0.47920542,0.47920542)"
       clip-path="url(#clipPath25)" />
    <path
       id="path26"
       d="m 201,131 h 190 v 70 H 201 Z"
       style="fill:#ffffff;fill-opacity:1;fill-rule:nonzero;stroke:#000000;stroke-width:1;stroke-linecap:butt;stroke-linejoin:miter;stroke-miterlimit:10;stroke-dasharray:none;stroke-opacity:1"
       transform="scale(0.95841084)"
       clip-path="url(#clipPath27)" />
    <text
       id="text27"
       xml:space="preserve"
       transform="matrix(0.95842044,0,0,0.95842044,223.896,164.84832)"
       clip-path="url(#clipPath28)"><tspan
         style="font-variant:normal;font-weight:normal;font-size:17px;font-family:Helvetica;writing-mode:lr-tb;fill:#000000;fill-opacity:1;fill-rule:nonzero;stroke:none"
         x="0 16.04541 25.5 34.95459 44.40918 49.132324 58.586914 68.041504 77.496094 86.950684 96.405273 105.85986 110.58301 115.30615"
         y="0"
         sodipodi:role="line"
         id="tspan27">When Logged In</tspan></text>
    <path
       id="path29"
       d="m 828.51001,201 -0.01,25 h -52.5 v 14.89999"
       style="fill:none;stroke:#000000;stroke-width:1;stroke-linecap:butt;stroke-linejoin:miter;stroke-miterlimit:10;stroke-dasharray:none;stroke-opacity:1"
       transform="matrix(0.95841084,0,0,0.95841084,0.47920542,0.47920542)"
       clip-path="url(#clipPath30)" />
    <path
       id="path31"
       d="m 776.01001,247.64999 -4.51001,-9 4.5,2.25 4.5,-2.25 z"
       style="fill:#000000;fill-opacity:1;fill-rule:nonzero;stroke:#000000;stroke-width:1;stroke-linecap:butt;stroke-linejoin:miter;stroke-miterlimit:10;stroke-dasharray:none;stroke-opacity:1"
       transform="matrix(0.95841084,0,0,0.95841084,0.47920542,0.47920542)"
       clip-path="url(#clipPath32)" />
    <path
       id="path33"
       d="m 923.51001,201 -0.01,25 h 52.5 v 14.89999"
       style="fill:none;stroke:#000000;stroke-width:1;stroke-linecap:butt;stroke-linejoin:miter;stroke-miterlimit:10;stroke-dasharray:none;stroke-opacity:1"
       transform="matrix(0.95841084,0,0,0.95841084,0.47920542,0.47920542)"
       clip-path="url(#clipPath34)" />
    <path
       id="path35"
       d="m 976,247.64999 -4.5,-9 4.5,2.25 4.5,-2.25 z"
       style="fill:#000000;fill-opacity:1;fill-rule:nonzero;stroke:#000000;stroke-width:1;stroke-linecap:butt;stroke-linejoin:miter;stroke-miterlimit:10;stroke-dasharray:none;stroke-opacity:1"
       transform="matrix(0.95841084,0,0,0.95841084,0.47920542,0.47920542)"
       clip-path="url(#clipPath36)" />
    <path
       id="path37"
       d="m 781.01001,131 h 190 v 70 h -190 z"
       style="fill:#ffffff;fill-opacity:1;fill-rule:nonzero;stroke:#000000;stroke-width:1;stroke-linecap:butt;stroke-linejoin:miter;stroke-miterlimit:10;stroke-dasharray:none;stroke-opacity:1"
       transform="scale(0.95841084)"
       clip-path="url(#clipPath38)" />
    <text
       id="text38"
       xml:space="preserve"
       transform="matrix(0.95842044,0,0,0.95842044,763.93597,164.84832)"
       clip-path="url(#clipPath39)"><tspan
         style="font-variant:normal;font-weight:normal;font-size:17px;font-family:Helvetica;writing-mode:lr-tb;fill:#000000;fill-opacity:1;fill-rule:nonzero;stroke:none"
         x="0 16.04541 25.5 34.95459 44.40918"
         y="0"
         sodipodi:role="line"
         id="tspan38">When </tspan></text>
    <text
       id="text39"
       xml:space="preserve"
       transform="matrix(0.95842044,0,0,0.95842044,811.03335,164.84832)"
       clip-path="url(#clipPath40)"><tspan
         style="font-variant:normal;font-weight:700;font-size:17px;font-family:Helvetica;writing-mode:lr-tb;fill:#000000;fill-opacity:1;fill-rule:nonzero;stroke:none"
         x="0 12.276855 22.661133"
         y="0"
         sodipodi:role="line"
         id="tspan39">Not</tspan></text>
    <text
       id="text40"
       xml:space="preserve"
       transform="matrix(0.95842044,0,0,0.95842044,842.71036,164.84832)"
       clip-path="url(#clipPath41)"><tspan
         style="font-variant:normal;font-weight:normal;font-size:17px;font-family:Helvetica;writing-mode:lr-tb;fill:#000000;fill-opacity:1;fill-rule:nonzero;stroke:none"
         x="0 9.4545898 18.90918 28.36377 37.818359 47.272949 56.727539 61.450684 66.173828"
         y="0"
         sodipodi:role="line"
         id="tspan40">Logged In</tspan></text>
    <path
       id="path42"
       d="m 1,251 h 190 v 70 H 1 Z"
       style="fill:#ffffff;fill-opacity:1;fill-rule:nonzero;stroke:#000000;stroke-width:1;stroke-linecap:butt;stroke-linejoin:miter;stroke-miterlimit:10;stroke-dasharray:none;stroke-opacity:1"
       transform="scale(0.95841084)"
       clip-path="url(#clipPath43)" />
    <text
       id="text43"
       xml:space="preserve"
       transform="matrix(0.95842044,0,0,0.95842044,29.516354,279.85877)"
       clip-path="url(#clipPath44)"><tspan
         style="font-variant:normal;font-weight:normal;font-size:17px;font-family:Helvetica;writing-mode:lr-tb;fill:#000000;fill-opacity:1;fill-rule:nonzero;stroke:none"
         x="0 12.276855 21.731445 31.186035 35.90918 44.40918 53.86377 63.318359 68.041504 72.764648 82.219238 91.673828 96.396973 101.12012 110.57471 116.23584"
         y="0"
         sodipodi:role="line"
         id="tspan43">Can see the form</tspan></text>
    <path
       id="path45"
       d="m 248.5,321 v 30 H 96 v 19.89999"
       style="fill:none;stroke:#000000;stroke-width:1;stroke-linecap:butt;stroke-linejoin:miter;stroke-miterlimit:10;stroke-dasharray:none;stroke-opacity:1"
       transform="matrix(0.95841084,0,0,0.95841084,0.47920542,0.47920542)"
       clip-path="url(#clipPath46)" />
    <path
       id="path47"
       d="m 96,377.64999 -4.5,-9 4.5,2.25 4.5,-2.25 z"
       style="fill:#000000;fill-opacity:1;fill-rule:nonzero;stroke:#000000;stroke-width:1;stroke-linecap:butt;stroke-linejoin:miter;stroke-miterlimit:10;stroke-dasharray:none;stroke-opacity:1"
       transform="matrix(0.95841084,0,0,0.95841084,0.47920542,0.47920542)"
       clip-path="url(#clipPath48)" />
    <path
       id="path49"
       d="m 343.5,321 v 30 H 296 v 19.89999"
       style="fill:none;stroke:#000000;stroke-width:1;stroke-linecap:butt;stroke-linejoin:miter;stroke-miterlimit:10;stroke-dasharray:none;stroke-opacity:1"
       transform="matrix(0.95841084,0,0,0.95841084,0.47920542,0.47920542)"
       clip-path="url(#clipPath50)" />
    <path
       id="path51"
       d="m 296,377.64999 -4.5,-9 4.5,2.25 4.5,-2.25 z"
       style="fill:#000000;fill-opacity:1;fill-rule:nonzero;stroke:#000000;stroke-width:1;stroke-linecap:butt;stroke-linejoin:miter;stroke-miterlimit:10;stroke-dasharray:none;stroke-opacity:1"
       transform="matrix(0.95841084,0,0,0.95841084,0.47920542,0.47920542)"
       clip-path="url(#clipPath52)" />
    <path
       id="path53"
       d="m 201,251 h 190 v 70 H 201 Z"
       style="fill:#ffffff;fill-opacity:1;fill-rule:nonzero;stroke:#000000;stroke-width:1;stroke-linecap:butt;stroke-linejoin:miter;stroke-miterlimit:10;stroke-dasharray:none;stroke-opacity:1"
       transform="scale(0.95841084)"
       clip-path="url(#clipPath54)" />
    <text
       id="text54"
       xml:space="preserve"
       transform="matrix(0.95842044,0,0,0.95842044,203.09528,270.27456)"
       clip-path="url(#clipPath55)"><tspan
         style="font-variant:normal;font-weight:normal;font-size:17px;font-family:Helvetica;writing-mode:lr-tb;fill:#000000;fill-opacity:1;fill-rule:nonzero;stroke:none"
         x="0 16.04541 25.5 34.95459 44.40918 49.132324 58.586914 67.086914 70.86377 80.318359 89.772949 94.496094 102.99609 112.45068 116.22754 120.00439 129.45898 134.18213 138.90527 148.35986 154.021"
         y="0"
         sodipodi:role="line"
         id="tspan54">When using valid form</tspan></text>
    <text
       id="text55"
       xml:space="preserve"
       transform="matrix(0.95842044,0,0,0.95842044,261.94829,290.40139)"
       clip-path="url(#clipPath56)"><tspan
         style="font-variant:normal;font-weight:normal;font-size:17px;font-family:Helvetica;writing-mode:lr-tb;fill:#000000;fill-opacity:1;fill-rule:nonzero;stroke:none"
         x="0 3.7768555 13.231445 22.686035 32.140625 36.86377"
         y="0"
         sodipodi:role="line"
         id="tspan55">inputs</tspan></text>
    <path
       id="path57"
       d="m 501.01001,321 v 49.89999"
       style="fill:none;stroke:#000000;stroke-width:1;stroke-linecap:butt;stroke-linejoin:miter;stroke-miterlimit:10;stroke-dasharray:none;stroke-opacity:1"
       transform="matrix(0.95841084,0,0,0.95841084,0.47920542,0.47920542)"
       clip-path="url(#clipPath58)" />
    <path
       id="path59"
       d="m 501.01001,377.64999 -4.51001,-9 4.51001,2.25 4.5,-2.25 z"
       style="fill:#000000;fill-opacity:1;fill-rule:nonzero;stroke:#000000;stroke-width:1;stroke-linecap:butt;stroke-linejoin:miter;stroke-miterlimit:10;stroke-dasharray:none;stroke-opacity:1"
       transform="matrix(0.95841084,0,0,0.95841084,0.47920542,0.47920542)"
       clip-path="url(#clipPath60)" />
    <path
       id="path61"
       d="m 406,251 h 190 v 70 H 406 Z"
       style="fill:#ffffff;fill-opacity:1;fill-rule:nonzero;stroke:#000000;stroke-width:1;stroke-linecap:butt;stroke-linejoin:miter;stroke-miterlimit:10;stroke-dasharray:none;stroke-opacity:1"
       transform="scale(0.95841084)"
       clip-path="url(#clipPath62)" />
    <text
       id="text62"
       xml:space="preserve"
       transform="matrix(0.95842044,0,0,0.95842044,409.06582,270.27456)"
       clip-path="url(#clipPath63)"><tspan
         style="font-variant:normal;font-weight:normal;font-size:17px;font-family:Helvetica;writing-mode:lr-tb;fill:#000000;fill-opacity:1;fill-rule:nonzero;stroke:none"
         x="0 16.04541 25.5 34.95459 44.40918 49.132324 58.586914 67.086914 70.86377 80.318359 89.772949"
         y="0"
         sodipodi:role="line"
         id="tspan62">When using </tspan></text>
    <text
       id="text63"
       xml:space="preserve"
       transform="matrix(0.95842044,0,0,0.95842044,499.63656,270.27456)"
       clip-path="url(#clipPath64)"><tspan
         style="font-variant:normal;font-weight:700;font-size:17px;font-family:Helvetica;writing-mode:lr-tb;fill:#000000;fill-opacity:1;fill-rule:nonzero;stroke:none"
         x="0 4.7231445 15.107422 24.562012 34.016602 38.739746 43.462891"
         y="0"
         sodipodi:role="line"
         id="tspan63">invalid</tspan></text>
    <text
       id="text64"
       xml:space="preserve"
       transform="matrix(0.95842044,0,0,0.95842044,458.42448,290.40139)"
       clip-path="url(#clipPath65)"><tspan
         style="font-variant:normal;font-weight:normal;font-size:17px;font-family:Helvetica;writing-mode:lr-tb;fill:#000000;fill-opacity:1;fill-rule:nonzero;stroke:none"
         x="0 3.7768555 13.231445 22.686035 32.140625 36.86377"
         y="0"
         sodipodi:role="line"
         id="tspan64">inputs</tspan></text>
    <path
       id="path66"
       d="m 1,381 h 190 v 70 H 1 Z"
       style="fill:#ffffff;fill-opacity:1;fill-rule:nonzero;stroke:#000000;stroke-width:1;stroke-linecap:butt;stroke-linejoin:miter;stroke-miterlimit:10;stroke-dasharray:none;stroke-opacity:1"
       transform="scale(0.95841084)"
       clip-path="url(#clipPath67)" />
    <text
       id="text67"
       xml:space="preserve"
       transform="matrix(0.95842044,0,0,0.95842044,4.6123984,394.86922)"
       clip-path="url(#clipPath68)"><tspan
         style="font-variant:normal;font-weight:normal;font-size:17px;font-family:Helvetica;writing-mode:lr-tb;fill:#000000;fill-opacity:1;fill-rule:nonzero;stroke:none"
         x="0 11.338867 20.793457 30.248047 44.40918 48.186035 52.90918 57.632324 61.40918 70.86377 80.318359 85.041504 89.764648 99.219238 107.71924 117.17383 125.67383 130.39697 139.85156 148.35156 157.80615 163.46729 168.19043 172.91357"
         y="0"
         sodipodi:role="line"
         id="tspan67">Submitting takes user to</tspan></text>
    <text
       id="text68"
       xml:space="preserve"
       transform="matrix(0.95842044,0,0,0.95842044,34.952395,414.99605)"
       clip-path="url(#clipPath69)"><tspan
         style="font-variant:normal;font-weight:normal;font-size:17px;font-family:Helvetica;writing-mode:lr-tb;fill:#000000;fill-opacity:1;fill-rule:nonzero;stroke:none"
         x="0 9.4545898 14.177734 19.838867 29.293457 37.793457 41.570312 51.024902 63.301758 68.024902 76.524902 85.024902 90.686035 100.14062 109.59521"
         y="0"
         sodipodi:role="line"
         id="tspan68">a review screen</tspan></text>
    <path
       id="path70"
       d="m 201,381 h 190 v 70 H 201 Z"
       style="fill:#ffffff;fill-opacity:1;fill-rule:nonzero;stroke:#000000;stroke-width:1;stroke-linecap:butt;stroke-linejoin:miter;stroke-miterlimit:10;stroke-dasharray:none;stroke-opacity:1"
       transform="scale(0.95841084)"
       clip-path="url(#clipPath71)" />
    <text
       id="text71"
       xml:space="preserve"
       transform="matrix(0.95842044,0,0,0.95842044,201.26829,385.28502)"
       clip-path="url(#clipPath72)"><tspan
         style="font-variant:normal;font-weight:normal;font-size:17px;font-family:Helvetica;writing-mode:lr-tb;fill:#000000;fill-opacity:1;fill-rule:nonzero;stroke:none"
         x="0 11.338867 20.793457 30.248047 44.40918 48.186035 52.90918 57.632324 61.40918 70.86377 80.318359 85.041504 89.764648 99.219238 108.67383 118.12842 122.85156 131.35156 140.80615 149.30615 153.08301 162.5376"
         y="0"
         sodipodi:role="line"
         id="tspan71">Submitting then saving</tspan></text>
    <text
       id="text72"
       xml:space="preserve"
       transform="matrix(0.95842044,0,0,0.95842044,195.42792,404.45343)"
       clip-path="url(#clipPath73)"><tspan
         style="font-variant:normal;font-weight:normal;font-size:17px;font-family:Helvetica;writing-mode:lr-tb;fill:#000000;fill-opacity:1;fill-rule:nonzero;stroke:none"
         x="0 9.4545898 18.90918 28.36377 36.86377 41.586914 51.041504 54.818359 64.272949 73.727539 78.450684 83.173828 92.628418 97.351562 100.59717 111.93604 115.71289 125.16748 134.62207 139.34521 144.06836 153.52295 162.97754 172.43213 180.93213"
         y="0"
         sodipodi:role="line"
         id="tspan72">adds blog to 'Blog Index'</tspan></text>
    <text
       id="text73"
       xml:space="preserve"
       transform="matrix(0.95842044,0,0,0.95842044,265.55734,424.58025)"
       clip-path="url(#clipPath74)"><tspan
         style="font-variant:normal;font-weight:normal;font-size:17px;font-family:Helvetica;writing-mode:lr-tb;fill:#000000;fill-opacity:1;fill-rule:nonzero;stroke:none"
         x="0 9.4545898 18.90918 28.36377"
         y="0"
         sodipodi:role="line"
         id="tspan73">page</tspan></text>
    <path
       id="path75"
       d="m 406,381 h 190 v 70 H 406 Z"
       style="fill:#ffffff;fill-opacity:1;fill-rule:nonzero;stroke:#000000;stroke-width:1;stroke-linecap:butt;stroke-linejoin:miter;stroke-miterlimit:10;stroke-dasharray:none;stroke-opacity:1"
       transform="scale(0.95841084)"
       clip-path="url(#clipPath76)" />
    <text
       id="text76"
       xml:space="preserve"
       transform="matrix(0.95842044,0,0,0.95842044,396.86094,394.86922)"
       clip-path="url(#clipPath77)"><tspan
         style="font-variant:normal;font-weight:normal;font-size:17px;font-family:Helvetica;writing-mode:lr-tb;fill:#000000;fill-opacity:1;fill-rule:nonzero;stroke:none"
         x="0 11.338867 20.793457 30.248047 44.40918 48.186035 52.90918 57.632324 61.40918 70.86377 80.318359 85.041504 93.541504 102.99609 112.45068 124.72754 133.22754 137.95068 147.40527 153.06641 158.72754 168.18213"
         y="0"
         sodipodi:role="line"
         id="tspan76">Submitting shows error</tspan></text>
    <text
       id="text77"
       xml:space="preserve"
       transform="matrix(0.95842044,0,0,0.95842044,443.02985,414.99605)"
       clip-path="url(#clipPath78)"><tspan
         style="font-variant:normal;font-weight:normal;font-size:17px;font-family:Helvetica;writing-mode:lr-tb;fill:#000000;fill-opacity:1;fill-rule:nonzero;stroke:none"
         x="0 14.161133 23.615723 32.115723 40.615723 50.070312 59.524902 68.979492"
         y="0"
         sodipodi:role="line"
         id="tspan77">messages</tspan></text>
    <path
       id="path79"
       d="m 681.01001,251 h 190 v 70 h -190 z"
       style="fill:#ffffff;fill-opacity:1;fill-rule:nonzero;stroke:#000000;stroke-width:1;stroke-linecap:butt;stroke-linejoin:miter;stroke-miterlimit:10;stroke-dasharray:none;stroke-opacity:1"
       transform="scale(0.95841084)"
       clip-path="url(#clipPath80)" />
    <text
       id="text80"
       xml:space="preserve"
       transform="matrix(0.95842044,0,0,0.95842044,662.2236,270.27456)"
       clip-path="url(#clipPath81)"><tspan
         style="font-variant:normal;font-weight:normal;font-size:17px;font-family:Helvetica;writing-mode:lr-tb;fill:#000000;fill-opacity:1;fill-rule:nonzero;stroke:none"
         x="0 12.276855 17.937988 27.392578 36.847168 41.570312 45.347168 54.801758 64.256348 68.979492 78.434082 83.157227 92.611816 102.06641 110.56641 115.28955 120.0127 125.67383 135.12842 143.62842 153.08301 156.85986 161.58301"
         y="0"
         sodipodi:role="line"
         id="tspan80">Creating a post results</tspan></text>
    <text
       id="text81"
       xml:space="preserve"
       transform="matrix(0.95842044,0,0,0.95842044,706.59547,290.40139)"
       clip-path="url(#clipPath82)"><tspan
         style="font-variant:normal;font-weight:normal;font-size:17px;font-family:Helvetica;writing-mode:lr-tb;fill:#000000;fill-opacity:1;fill-rule:nonzero;stroke:none"
         x="0 3.7768555 13.231445 17.95459 27.40918 36.86377 41.586914 51.041504 56.702637 62.36377 71.818359"
         y="0"
         sodipodi:role="line"
         id="tspan81">in an error</tspan></text>
    <path
       id="path83"
       d="M 881.01001,251 H 1071.01 v 70 H 881.01001 Z"
       style="fill:#ffffff;fill-opacity:1;fill-rule:nonzero;stroke:#000000;stroke-width:1;stroke-linecap:butt;stroke-linejoin:miter;stroke-miterlimit:10;stroke-dasharray:none;stroke-opacity:1"
       transform="scale(0.95841084)"
       clip-path="url(#clipPath84)" />
    <text
       id="text84"
       xml:space="preserve"
       transform="matrix(0.95842044,0,0,0.95842044,847.70791,270.27456)"
       clip-path="url(#clipPath85)"><tspan
         style="font-variant:normal;font-weight:normal;font-size:17px;font-family:Helvetica;writing-mode:lr-tb;fill:#000000;fill-opacity:1;fill-rule:nonzero;stroke:none"
         x="0 11.040039 14.816895 24.271484 36.54834 40.325195 49.779785 59.234375 63.95752 73.412109 78.135254 87.589844 97.044434 105.54443 110.26758 114.99072 120.65186 130.10645 138.60645 148.06104 151.83789 156.56104 165.06104 169.78418 173.56104"
         y="0"
         sodipodi:role="line"
         id="tspan84">Viewing a post results in</tspan></text>
    <text
       id="text85"
       xml:space="preserve"
       transform="matrix(0.95842044,0,0,0.95842044,906.89037,290.40139)"
       clip-path="url(#clipPath86)"><tspan
         style="font-variant:normal;font-weight:normal;font-size:17px;font-family:Helvetica;writing-mode:lr-tb;fill:#000000;fill-opacity:1;fill-rule:nonzero;stroke:none"
         x="0 9.4545898 18.90918 23.632324 33.086914 38.748047 44.40918 53.86377"
         y="0"
         sodipodi:role="line"
         id="tspan85">an error</tspan></text>
  </g>
</svg>
