<?xml version="1.0" encoding="UTF-8" standalone="no"?>
<!-- Created with Inkscape (http://www.inkscape.org/) -->

<svg
   version="1.1"
   id="svg1"
   width="617.27997"
   height="272"
   viewBox="0 0 617.27997 272"
   sodipodi:docname="node-2.pdf"
   xmlns:inkscape="http://www.inkscape.org/namespaces/inkscape"
   xmlns:sodipodi="http://sodipodi.sourceforge.net/DTD/sodipodi-0.dtd"
   xmlns="http://www.w3.org/2000/svg"
   xmlns:svg="http://www.w3.org/2000/svg">
  <defs
     id="defs1">
    <clipPath
       clipPathUnits="userSpaceOnUse"
       id="clipPath2">
      <path
         d="M 0,0 H 1929.1665 V 847.75488 H 0 Z"
         transform="scale(0.33382292)"
         clip-rule="evenodd"
         id="path2" />
    </clipPath>
    <clipPath
       clipPathUnits="userSpaceOnUse"
       id="clipPath4">
      <path
         d="M 0,0 H 1929.1665 V 847.75488 H 0 Z"
         transform="scale(0.33382292)"
         clip-rule="evenodd"
         id="path4" />
    </clipPath>
    <clipPath
       clipPathUnits="userSpaceOnUse"
       id="clipPath5">
      <path
         d="M 0,0 H 1929.1665 V 847.75488 H 0 Z"
         transform="matrix(0.33381956,0,0,0.33381956,-60.65625,-18.999999)"
         clip-rule="evenodd"
         id="path5" />
    </clipPath>
    <clipPath
       clipPathUnits="userSpaceOnUse"
       id="clipPath7">
      <path
         d="M 0,0 H 1929.1665 V 847.75488 H 0 Z"
         transform="scale(0.33382292)"
         clip-rule="evenodd"
         id="path7" />
    </clipPath>
    <clipPath
       clipPathUnits="userSpaceOnUse"
       id="clipPath8">
      <path
         d="M 0,0 H 1929.1665 V 847.75488 H 0 Z"
         transform="matrix(0.33381956,0,0,0.33381956,-100.39062,-84)"
         clip-rule="evenodd"
         id="path8" />
    </clipPath>
    <clipPath
       clipPathUnits="userSpaceOnUse"
       id="clipPath10">
      <path
         d="M 0,0 H 1929.1665 V 847.75488 H 0 Z"
         transform="scale(0.33382292)"
         clip-rule="evenodd"
         id="path10" />
    </clipPath>
    <clipPath
       clipPathUnits="userSpaceOnUse"
       id="clipPath11">
      <path
         d="M 0,0 H 1929.1665 V 847.75488 H 0 Z"
         transform="matrix(0.33381956,0,0,0.33381956,-97.75,-170)"
         clip-rule="evenodd"
         id="path11" />
    </clipPath>
    <clipPath
       clipPathUnits="userSpaceOnUse"
       id="clipPath12">
      <path
         d="M 0,0 H 1929.1665 V 847.75488 H 0 Z"
         transform="matrix(0.33381956,0,0,0.33381956,-5.765625,-231)"
         clip-rule="evenodd"
         id="path12" />
    </clipPath>
    <clipPath
       clipPathUnits="userSpaceOnUse"
       id="clipPath13">
      <path
         d="M 0,0 H 1929.1665 V 847.75488 H 0 Z"
         transform="matrix(0.33381956,0,0,0.33381956,-28.828124,-254)"
         clip-rule="evenodd"
         id="path13" />
    </clipPath>
    <clipPath
       clipPathUnits="userSpaceOnUse"
       id="clipPath14">
      <path
         d="M 0,0 H 1929.1665 V 847.75488 H 0 Z"
         transform="matrix(0.33381956,0,0,0.33381956,-128.45313,-254)"
         clip-rule="evenodd"
         id="path14" />
    </clipPath>
    <clipPath
       clipPathUnits="userSpaceOnUse"
       id="clipPath15">
      <path
         d="M 0,0 H 1929.1665 V 847.75488 H 0 Z"
         transform="matrix(0.33381956,0,0,0.33381956,-169.60938,-254)"
         clip-rule="evenodd"
         id="path15" />
    </clipPath>
    <clipPath
       clipPathUnits="userSpaceOnUse"
       id="clipPath16">
      <path
         d="M 0,0 H 1929.1665 V 847.75488 H 0 Z"
         transform="matrix(0.33381956,0,0,0.33381956,-61.203125,-277)"
         clip-rule="evenodd"
         id="path16" />
    </clipPath>
    <clipPath
       clipPathUnits="userSpaceOnUse"
       id="clipPath18">
      <path
         d="M 0,0 H 1929.1665 V 847.75488 H 0 Z"
         transform="scale(0.33382292)"
         clip-rule="evenodd"
         id="path18" />
    </clipPath>
    <clipPath
       clipPathUnits="userSpaceOnUse"
       id="clipPath19">
      <path
         d="M 0,0 H 1929.1665 V 847.75488 H 0 Z"
         transform="matrix(0.33381956,0,0,0.33381956,-414.95313,-18.999999)"
         clip-rule="evenodd"
         id="path19" />
    </clipPath>
    <clipPath
       clipPathUnits="userSpaceOnUse"
       id="clipPath21">
      <path
         d="M 0,0 H 1929.1665 V 847.75488 H 0 Z"
         transform="scale(0.33382292)"
         clip-rule="evenodd"
         id="path21" />
    </clipPath>
    <clipPath
       clipPathUnits="userSpaceOnUse"
       id="clipPath22">
      <path
         d="M 0,0 H 1929.1665 V 847.75488 H 0 Z"
         transform="matrix(0.33381956,0,0,0.33381956,-478.28125,-84)"
         clip-rule="evenodd"
         id="path22" />
    </clipPath>
    <clipPath
       clipPathUnits="userSpaceOnUse"
       id="clipPath24">
      <path
         d="M 0,0 H 1929.1665 V 847.75488 H 0 Z"
         transform="scale(0.33382292)"
         clip-rule="evenodd"
         id="path24" />
    </clipPath>
    <clipPath
       clipPathUnits="userSpaceOnUse"
       id="clipPath25">
      <path
         d="M 0,0 H 1929.1665 V 847.75488 H 0 Z"
         transform="matrix(0.33381956,0,0,0.33381956,-484.09375,-170)"
         clip-rule="evenodd"
         id="path25" />
    </clipPath>
    <clipPath
       clipPathUnits="userSpaceOnUse"
       id="clipPath26">
      <path
         d="M 0,0 H 1929.1665 V 847.75488 H 0 Z"
         transform="matrix(0.33381956,0,0,0.33381956,-412.79688,-234)"
         clip-rule="evenodd"
         id="path26" />
    </clipPath>
  </defs>
  <sodipodi:namedview
     id="namedview1"
     pagecolor="#ffffff"
     bordercolor="#000000"
     borderopacity="0.25"
     inkscape:showpageshadow="2"
     inkscape:pageopacity="0.0"
     inkscape:pagecheckerboard="0"
     inkscape:deskcolor="#d1d1d1">
    <inkscape:page
       x="0"
       y="0"
       inkscape:label="1"
       id="page1"
       width="617.27997"
       height="272"
       margin="0"
       bleed="0" />
  </sodipodi:namedview>
  <g
     id="g1"
     inkscape:groupmode="layer"
     inkscape:label="1">
    <path
       id="path1"
       d="M 0,0 H 644 V 283 H 0 Z"
       style="fill:#ffffff;fill-opacity:1;fill-rule:nonzero;stroke:none"
       transform="scale(0.95859202)"
       clip-path="url(#clipPath2)" />
    <path
       id="path3"
       d="m 7.5,27 h 250 V 207 H 7.5 Z"
       style="fill:#ffffff;fill-opacity:1;fill-rule:nonzero;stroke:#000000;stroke-width:1;stroke-linecap:butt;stroke-linejoin:miter;stroke-miterlimit:10;stroke-dasharray:none;stroke-opacity:1"
       transform="scale(0.95859202)"
       clip-path="url(#clipPath4)" />
    <text
       id="text4"
       xml:space="preserve"
       transform="matrix(0.95860166,0,0,0.95860166,58.145182,18.213431)"
       clip-path="url(#clipPath5)"><tspan
         style="font-variant:normal;font-weight:700;font-size:19px;font-family:Helvetica;writing-mode:lr-tb;fill:#000000;fill-opacity:1;fill-rule:nonzero;stroke:none"
         x="0 14.778809 22.172852 32.739746 43.306641 49.633789 54.912598 66.518555 78.124512 88.691406 93.970215 107.69141 112.97021 123.53711 134.104"
         y="0"
         sodipodi:role="line"
         id="tspan4">Greetings Class</tspan></text>
    <path
       id="path6"
       d="m 32.5,47 h 195 v 60 h -195 z"
       style="fill:#ffffff;fill-opacity:1;fill-rule:nonzero;stroke:#000000;stroke-width:1;stroke-linecap:butt;stroke-linejoin:miter;stroke-miterlimit:10;stroke-dasharray:none;stroke-opacity:1"
       transform="scale(0.95859202)"
       clip-path="url(#clipPath7)" />
    <text
       id="text7"
       xml:space="preserve"
       transform="matrix(0.95860166,0,0,0.95860166,96.234619,80.522539)"
       clip-path="url(#clipPath8)"><tspan
         style="font-variant:normal;font-weight:normal;font-size:19px;font-family:Helvetica;writing-mode:lr-tb;fill:#000000;fill-opacity:1;fill-rule:nonzero;stroke:none"
         x="0 10.566895 21.133789 31.700684 35.921875 40.143066 49.643066"
         y="0"
         sodipodi:role="line"
         id="tspan7">english</tspan></text>
    <path
       id="path9"
       d="m 32.5,133 h 195 v 60 h -195 z"
       style="fill:#ffffff;fill-opacity:1;fill-rule:nonzero;stroke:#000000;stroke-width:1;stroke-linecap:butt;stroke-linejoin:miter;stroke-miterlimit:10;stroke-dasharray:none;stroke-opacity:1"
       transform="scale(0.95859202)"
       clip-path="url(#clipPath10)" />
    <text
       id="text10"
       xml:space="preserve"
       transform="matrix(0.95860166,0,0,0.95860166,93.703312,162.96228)"
       clip-path="url(#clipPath11)"><tspan
         style="font-variant:normal;font-weight:normal;font-size:19px;font-family:Helvetica;writing-mode:lr-tb;fill:#000000;fill-opacity:1;fill-rule:nonzero;stroke:none"
         x="0 9.5 20.066895 30.633789 41.200684 45.421875 54.921875"
         y="0"
         sodipodi:role="line"
         id="tspan10">spanish</tspan></text>
    <text
       id="text11"
       xml:space="preserve"
       transform="matrix(0.95860166,0,0,0.95860166,5.5269377,221.43698)"
       clip-path="url(#clipPath12)"><tspan
         style="font-style:oblique;font-variant:normal;font-weight:normal;font-size:19px;font-family:Helvetica;writing-mode:lr-tb;fill:#000000;fill-opacity:1;fill-rule:nonzero;stroke:none"
         x="0 12.672852 23.239746 39.066895 49.633789 54.912598 64.412598 68.633789 79.200684 88.700684 98.200684 103.47949 107.70068 123.52783 134.09473 138.31592 148.88281 164.70996 175.27686 185.84375 191.12256 201.68945 212.25635 217.53516 228.10205 237.60205 242.88086"
         y="0"
         sodipodi:role="line"
         id="tspan11">Some class implemented by a</tspan></text>
    <text
       id="text12"
       xml:space="preserve"
       transform="matrix(0.95860166,0,0,0.95860166,27.634688,243.48482)"
       clip-path="url(#clipPath13)"><tspan
         style="font-style:oblique;font-variant:normal;font-weight:normal;font-size:19px;font-family:Helvetica;writing-mode:lr-tb;fill:#000000;fill-opacity:1;fill-rule:nonzero;stroke:none"
         x="0 4.2211914 8.4423828 19.009277 25.336426 35.90332 42.230469 50.32959 55.608398 60.887207 66.166016 83.765137 94.332031"
         y="0"
         sodipodi:role="line"
         id="tspan12">library.  We </tspan></text>
    <text
       id="text13"
       xml:space="preserve"
       transform="matrix(0.95860166,0,0,0.95860166,123.13538,243.48482)"
       clip-path="url(#clipPath14)"><tspan
         style="font-style:oblique;font-variant:normal;font-weight:700;font-size:19px;font-family:Helvetica;writing-mode:lr-tb;fill:#000000;fill-opacity:1;fill-rule:nonzero;stroke:none"
         x="0 11.605957 23.211914 34.817871"
         y="0"
         sodipodi:role="line"
         id="tspan13">dont</tspan></text>
    <text
       id="text14"
       xml:space="preserve"
       transform="matrix(0.95860166,0,0,0.95860166,162.58783,243.48482)"
       clip-path="url(#clipPath15)"><tspan
         style="font-style:oblique;font-variant:normal;font-weight:normal;font-size:19px;font-family:Helvetica;writing-mode:lr-tb;fill:#000000;fill-opacity:1;fill-rule:nonzero;stroke:none"
         x="0 5.2788086 19 29.566895 40.133789 45.412598 50.691406 55.970215"
         y="0"
         sodipodi:role="line"
         id="tspan14"> want to</tspan></text>
    <text
       id="text15"
       xml:space="preserve"
       transform="matrix(0.95860166,0,0,0.95860166,58.669417,265.53266)"
       clip-path="url(#clipPath16)"><tspan
         style="font-style:oblique;font-variant:normal;font-weight:normal;font-size:19px;font-family:Helvetica;writing-mode:lr-tb;fill:#000000;fill-opacity:1;fill-rule:nonzero;stroke:none"
         x="0 9.5 20.066895 30.633789 41.200684 51.767578 62.334473 67.613281 72.89209 83.458984 94.025879 99.304688 108.80469 113.02588 123.59277 133.09277"
         y="0"
         sodipodi:role="line"
         id="tspan15">change the class</tspan></text>
    <path
       id="path17"
       d="m 387.5,27 h 250 v 180 h -250 z"
       style="fill:#ffffff;fill-opacity:1;fill-rule:nonzero;stroke:#000000;stroke-width:1;stroke-linecap:butt;stroke-linejoin:miter;stroke-miterlimit:10;stroke-dasharray:none;stroke-opacity:1"
       transform="scale(0.95859202)"
       clip-path="url(#clipPath18)" />
    <text
       id="text18"
       xml:space="preserve"
       transform="matrix(0.95860166,0,0,0.95860166,397.77476,18.213431)"
       clip-path="url(#clipPath19)"><tspan
         style="font-variant:normal;font-weight:700;font-size:19px;font-family:Helvetica;writing-mode:lr-tb;fill:#000000;fill-opacity:1;fill-rule:nonzero;stroke:none"
         x="0 15.827148 27.433105 34.827148 45.394043 60.172852 67.566895 78.133789 88.700684 95.027832 100.30664 111.9126 123.51855 134.08545 139.36426 153.08545 158.36426 168.93115 179.49805"
         y="0"
         sodipodi:role="line"
         id="tspan18">MoreGreetings Class</tspan></text>
    <path
       id="path20"
       d="m 412.5,47 h 195 v 60 h -195 z"
       style="fill:#ffffff;fill-opacity:1;fill-rule:nonzero;stroke:#000000;stroke-width:1;stroke-linecap:butt;stroke-linejoin:miter;stroke-miterlimit:10;stroke-dasharray:none;stroke-opacity:1"
       transform="scale(0.95859202)"
       clip-path="url(#clipPath21)" />
    <text
       id="text21"
       xml:space="preserve"
       transform="matrix(0.95860166,0,0,0.95860166,458.4812,80.522539)"
       clip-path="url(#clipPath22)"><tspan
         style="font-variant:normal;font-weight:normal;font-size:19px;font-family:Helvetica;writing-mode:lr-tb;fill:#000000;fill-opacity:1;fill-rule:nonzero;stroke:none"
         x="0 10.566895 21.133789 27.460938 43.288086 53.85498"
         y="0"
         sodipodi:role="line"
         id="tspan21">german</tspan></text>
    <path
       id="path23"
       d="m 412.5,133 h 195 v 60 h -195 z"
       style="fill:#ffffff;fill-opacity:1;fill-rule:nonzero;stroke:#000000;stroke-width:1;stroke-linecap:butt;stroke-linejoin:miter;stroke-miterlimit:10;stroke-dasharray:none;stroke-opacity:1"
       transform="scale(0.95859202)"
       clip-path="url(#clipPath24)" />
    <text
       id="text24"
       xml:space="preserve"
       transform="matrix(0.95860166,0,0,0.95860166,464.05307,162.96228)"
       clip-path="url(#clipPath25)"><tspan
         style="font-variant:normal;font-weight:normal;font-size:19px;font-family:Helvetica;writing-mode:lr-tb;fill:#000000;fill-opacity:1;fill-rule:nonzero;stroke:none"
         x="0 5.2788086 11.605957 22.172852 32.739746 42.239746"
         y="0"
         sodipodi:role="line"
         id="tspan24">french</tspan></text>
    <text
       id="text25"
       xml:space="preserve"
       transform="matrix(0.95860166,0,0,0.95860166,395.70777,224.31279)"
       clip-path="url(#clipPath26)"><tspan
         style="font-style:oblique;font-variant:normal;font-weight:normal;font-size:19px;font-family:Helvetica;writing-mode:lr-tb;fill:#000000;fill-opacity:1;fill-rule:nonzero;stroke:none"
         x="0 11.633789 16.912598 26.412598 30.633789 41.200684 50.700684 60.200684 65.479492 74.979492 85.546387 96.113281 101.39209 111.95898 122.52588 133.09277 138.37158 143.65039 148.9292 162.65039 168.97754 179.54443 184.82324"
         y="0"
         sodipodi:role="line"
         id="tspan25">A class you and I wrote</tspan></text>
  </g>
</svg>
