<?xml version="1.0" encoding="UTF-8" standalone="no"?>
<!-- Created with Inkscape (http://www.inkscape.org/) -->

<svg
   version="1.1"
   id="svg1"
   width="386.55997"
   height="418.55997"
   viewBox="0 0 386.55997 418.55997"
   sodipodi:docname="node-8.pdf"
   xmlns:inkscape="http://www.inkscape.org/namespaces/inkscape"
   xmlns:sodipodi="http://sodipodi.sourceforge.net/DTD/sodipodi-0.dtd"
   xmlns="http://www.w3.org/2000/svg"
   xmlns:svg="http://www.w3.org/2000/svg">
  <defs
     id="defs1">
    <clipPath
       clipPathUnits="userSpaceOnUse"
       id="clipPath2">
      <path
         d="M 0,0 H 1208.3333 V 1307.2787 H 0 Z"
         transform="scale(0.33351726)"
         clip-rule="evenodd"
         id="path2" />
    </clipPath>
    <clipPath
       clipPathUnits="userSpaceOnUse"
       id="clipPath4">
      <path
         d="M 0,0 H 1208.3333 V 1301.282 H 0 Z"
         transform="matrix(0.33351726,0,0,0.33351726,-0.50000001,-0.50000001)"
         clip-rule="evenodd"
         id="path4" />
    </clipPath>
    <clipPath
       clipPathUnits="userSpaceOnUse"
       id="clipPath6">
      <path
         d="M 0,0 H 1208.3333 V 1301.282 H 0 Z"
         transform="matrix(0.33351726,0,0,0.33351726,-0.50000001,-0.50000001)"
         clip-rule="evenodd"
         id="path6" />
    </clipPath>
    <clipPath
       clipPathUnits="userSpaceOnUse"
       id="clipPath8">
      <path
         d="M 0,0 H 1208.3333 V 1301.282 H 0 Z"
         transform="scale(0.33351726)"
         clip-rule="evenodd"
         id="path8" />
    </clipPath>
    <clipPath
       clipPathUnits="userSpaceOnUse"
       id="clipPath9">
      <path
         d="M 0,0 H 1208.3333 V 1301.282 H 0 Z"
         transform="matrix(0.33351391,0,0,0.33351391,-73.375001,-43)"
         clip-rule="evenodd"
         id="path9" />
    </clipPath>
    <clipPath
       clipPathUnits="userSpaceOnUse"
       id="clipPath11">
      <path
         d="M 0,0 H 1208.3333 V 1301.282 H 0 Z"
         transform="matrix(0.33351726,0,0,0.33351726,-0.50000001,-0.50000001)"
         clip-rule="evenodd"
         id="path11" />
    </clipPath>
    <clipPath
       clipPathUnits="userSpaceOnUse"
       id="clipPath13">
      <path
         d="M 0,0 H 1208.3333 V 1301.282 H 0 Z"
         transform="matrix(0.33351726,0,0,0.33351726,-0.50000001,-0.50000001)"
         clip-rule="evenodd"
         id="path13" />
    </clipPath>
    <clipPath
       clipPathUnits="userSpaceOnUse"
       id="clipPath15">
      <path
         d="M 0,0 H 1208.3333 V 1301.282 H 0 Z"
         transform="scale(0.33351726)"
         clip-rule="evenodd"
         id="path15" />
    </clipPath>
    <clipPath
       clipPathUnits="userSpaceOnUse"
       id="clipPath16">
      <path
         d="M 0,0 H 1208.3333 V 1301.282 H 0 Z"
         transform="matrix(0.33351391,0,0,0.33351391,-43.25,-133)"
         clip-rule="evenodd"
         id="path16" />
    </clipPath>
    <clipPath
       clipPathUnits="userSpaceOnUse"
       id="clipPath18">
      <path
         d="M 0,0 H 1208.3333 V 1301.282 H 0 Z"
         transform="matrix(0.33351726,0,0,0.33351726,-0.50000001,-0.50000001)"
         clip-rule="evenodd"
         id="path18" />
    </clipPath>
    <clipPath
       clipPathUnits="userSpaceOnUse"
       id="clipPath20">
      <path
         d="M 0,0 H 1208.3333 V 1301.282 H 0 Z"
         transform="matrix(0.33351726,0,0,0.33351726,-0.50000001,-0.50000001)"
         clip-rule="evenodd"
         id="path20" />
    </clipPath>
    <clipPath
       clipPathUnits="userSpaceOnUse"
       id="clipPath22">
      <path
         d="M 0,0 H 1208.3333 V 1301.282 H 0 Z"
         transform="scale(0.33351726)"
         clip-rule="evenodd"
         id="path22" />
    </clipPath>
    <clipPath
       clipPathUnits="userSpaceOnUse"
       id="clipPath23">
      <path
         d="M 0,0 H 1208.3333 V 1301.282 H 0 Z"
         transform="matrix(0.33351391,0,0,0.33351391,-2.9375,-212)"
         clip-rule="evenodd"
         id="path23" />
    </clipPath>
    <clipPath
       clipPathUnits="userSpaceOnUse"
       id="clipPath24">
      <path
         d="M 0,0 H 1208.3333 V 1301.282 H 0 Z"
         transform="matrix(0.33351391,0,0,0.33351391,-36.9375,-235)"
         clip-rule="evenodd"
         id="path24" />
    </clipPath>
    <clipPath
       clipPathUnits="userSpaceOnUse"
       id="clipPath26">
      <path
         d="M 0,0 H 1208.3333 V 1301.282 H 0 Z"
         transform="matrix(0.33351726,0,0,0.33351726,-0.50000001,-0.50000001)"
         clip-rule="evenodd"
         id="path26" />
    </clipPath>
    <clipPath
       clipPathUnits="userSpaceOnUse"
       id="clipPath28">
      <path
         d="M 0,0 H 1208.3333 V 1301.282 H 0 Z"
         transform="matrix(0.33351726,0,0,0.33351726,-0.50000001,-0.50000001)"
         clip-rule="evenodd"
         id="path28" />
    </clipPath>
    <clipPath
       clipPathUnits="userSpaceOnUse"
       id="clipPath30">
      <path
         d="M 0,0 H 1208.3333 V 1301.282 H 0 Z"
         transform="scale(0.33351726)"
         clip-rule="evenodd"
         id="path30" />
    </clipPath>
    <clipPath
       clipPathUnits="userSpaceOnUse"
       id="clipPath31">
      <path
         d="M 0,0 H 1208.3333 V 1301.282 H 0 Z"
         transform="matrix(0.33351391,0,0,0.33351391,-4.75,-302.00001)"
         clip-rule="evenodd"
         id="path31" />
    </clipPath>
    <clipPath
       clipPathUnits="userSpaceOnUse"
       id="clipPath32">
      <path
         d="M 0,0 H 1208.3333 V 1301.282 H 0 Z"
         transform="matrix(0.33351391,0,0,0.33351391,-59.625,-325)"
         clip-rule="evenodd"
         id="path32" />
    </clipPath>
    <clipPath
       clipPathUnits="userSpaceOnUse"
       id="clipPath34">
      <path
         d="M 0,0 H 1208.3333 V 1301.282 H 0 Z"
         transform="matrix(0.33351726,0,0,0.33351726,-0.50000001,-0.50000001)"
         clip-rule="evenodd"
         id="path34" />
    </clipPath>
    <clipPath
       clipPathUnits="userSpaceOnUse"
       id="clipPath36">
      <path
         d="M 0,0 H 1208.3333 V 1301.282 H 0 Z"
         transform="matrix(0.33351726,0,0,0.33351726,-0.50000001,-0.50000001)"
         clip-rule="evenodd"
         id="path36" />
    </clipPath>
    <clipPath
       clipPathUnits="userSpaceOnUse"
       id="clipPath38">
      <path
         d="M 0,0 H 1208.3333 V 1301.282 H 0 Z"
         transform="scale(0.33351391)"
         clip-rule="evenodd"
         id="path38" />
    </clipPath>
    <clipPath
       clipPathUnits="userSpaceOnUse"
       id="clipPath39">
      <path
         d="M 0,0 H 1208.3333 V 1301.282 H 0 Z"
         transform="matrix(0.33351391,0,0,0.33351391,-340.85938,-224)"
         clip-rule="evenodd"
         id="path39" />
    </clipPath>
    <clipPath
       clipPathUnits="userSpaceOnUse"
       id="clipPath41">
      <path
         d="M 0,0 H 1208.3333 V 1301.282 H 0 Z"
         transform="scale(0.33351726)"
         clip-rule="evenodd"
         id="path41" />
    </clipPath>
    <clipPath
       clipPathUnits="userSpaceOnUse"
       id="clipPath42">
      <path
         d="M 0,0 H 1208.3333 V 1301.282 H 0 Z"
         transform="matrix(0.33351391,0,0,0.33351391,-30.250001,-392)"
         clip-rule="evenodd"
         id="path42" />
    </clipPath>
    <clipPath
       clipPathUnits="userSpaceOnUse"
       id="clipPath43">
      <path
         d="M 0,0 H 1208.3333 V 1301.282 H 0 Z"
         transform="matrix(0.33351391,0,0,0.33351391,-78.65625,-415.00001)"
         clip-rule="evenodd"
         id="path43" />
    </clipPath>
  </defs>
  <sodipodi:namedview
     id="namedview1"
     pagecolor="#ffffff"
     bordercolor="#000000"
     borderopacity="0.25"
     inkscape:showpageshadow="2"
     inkscape:pageopacity="0.0"
     inkscape:pagecheckerboard="0"
     inkscape:deskcolor="#d1d1d1">
    <inkscape:page
       x="0"
       y="0"
       inkscape:label="1"
       id="page1"
       width="386.55997"
       height="418.55997"
       margin="0"
       bleed="0" />
  </sodipodi:namedview>
  <g
     id="g1"
     inkscape:groupmode="layer"
     inkscape:label="1">
    <path
       id="path1"
       d="M 0,0 H 403 V 436 H 0 Z"
       style="fill:#ffffff;fill-opacity:1;fill-rule:nonzero;stroke:none"
       transform="scale(0.95947055)"
       clip-path="url(#clipPath2)" />
    <path
       id="path3"
       d="M 151,71 V 91 71 80.900002"
       style="fill:none;stroke:#000000;stroke-width:1;stroke-linecap:butt;stroke-linejoin:miter;stroke-miterlimit:10;stroke-dasharray:none;stroke-opacity:1"
       transform="matrix(0.95947055,0,0,0.95947055,0.47973528,0.47973528)"
       clip-path="url(#clipPath4)" />
    <path
       id="path5"
       d="m 151,87.650002 -4.5,-9 4.5,2.25 4.5,-2.25 z"
       style="fill:#000000;fill-opacity:1;fill-rule:nonzero;stroke:#000000;stroke-width:1;stroke-linecap:butt;stroke-linejoin:miter;stroke-miterlimit:10;stroke-dasharray:none;stroke-opacity:1"
       transform="matrix(0.95947055,0,0,0.95947055,0.47973528,0.47973528)"
       clip-path="url(#clipPath6)" />
    <path
       id="path7"
       d="M 1,1 H 301 V 71 H 1 Z"
       style="fill:#ffffff;fill-opacity:1;fill-rule:nonzero;stroke:#000000;stroke-width:1;stroke-linecap:butt;stroke-linejoin:miter;stroke-miterlimit:10;stroke-dasharray:none;stroke-opacity:1"
       transform="scale(0.95947055)"
       clip-path="url(#clipPath8)" />
    <text
       id="text8"
       xml:space="preserve"
       transform="matrix(0.95948018,0,0,0.95948018,70.401859,41.257648)"
       clip-path="url(#clipPath9)"><tspan
         style="font-variant:normal;font-weight:normal;font-size:19px;font-family:Helvetica;writing-mode:lr-tb;fill:#000000;fill-opacity:1;fill-rule:nonzero;stroke:none"
         x="0 10.566895 21.133789 31.700684 42.267578 51.767578 62.334473 67.613281 81.334473 91.901367 98.228516 108.79541 124.62256 128.84375 139.41064"
         y="0"
         sodipodi:role="line"
         id="tspan8">Launch Chromium</tspan></text>
    <path
       id="path10"
       d="m 151,161 v 20 -20 9.89999"
       style="fill:none;stroke:#000000;stroke-width:1;stroke-linecap:butt;stroke-linejoin:miter;stroke-miterlimit:10;stroke-dasharray:none;stroke-opacity:1"
       transform="matrix(0.95947055,0,0,0.95947055,0.47973528,0.47973528)"
       clip-path="url(#clipPath11)" />
    <path
       id="path12"
       d="m 151,177.64999 -4.5,-9 4.5,2.25 4.5,-2.25 z"
       style="fill:#000000;fill-opacity:1;fill-rule:nonzero;stroke:#000000;stroke-width:1;stroke-linecap:butt;stroke-linejoin:miter;stroke-miterlimit:10;stroke-dasharray:none;stroke-opacity:1"
       transform="matrix(0.95947055,0,0,0.95947055,0.47973528,0.47973528)"
       clip-path="url(#clipPath13)" />
    <path
       id="path14"
       d="m 1,91 h 300 v 70 H 1 Z"
       style="fill:#ffffff;fill-opacity:1;fill-rule:nonzero;stroke:#000000;stroke-width:1;stroke-linecap:butt;stroke-linejoin:miter;stroke-miterlimit:10;stroke-dasharray:none;stroke-opacity:1"
       transform="scale(0.95947055)"
       clip-path="url(#clipPath15)" />
    <text
       id="text15"
       xml:space="preserve"
       transform="matrix(0.95948018,0,0,0.95948018,41.497518,127.61086)"
       clip-path="url(#clipPath16)"><tspan
         style="font-variant:normal;font-weight:normal;font-size:19px;font-family:Helvetica;writing-mode:lr-tb;fill:#000000;fill-opacity:1;fill-rule:nonzero;stroke:none"
         x="0 13.721191 24.288086 33.788086 38.009277 48.576172 59.143066 64.421875 74.98877 80.267578 85.546387 96.113281 101.39209 111.95898 122.52588 133.09277 138.37158 148.93848 159.50537 170.07227 175.35107 179.57227 190.13916 200.70605 204.92725"
         y="0"
         sodipodi:role="line"
         id="tspan15">Navigate to app and login</tspan></text>
    <path
       id="path17"
       d="m 151,251 v 20 -20 9.89999"
       style="fill:none;stroke:#000000;stroke-width:1;stroke-linecap:butt;stroke-linejoin:miter;stroke-miterlimit:10;stroke-dasharray:none;stroke-opacity:1"
       transform="matrix(0.95947055,0,0,0.95947055,0.47973528,0.47973528)"
       clip-path="url(#clipPath18)" />
    <path
       id="path19"
       d="m 151,267.64999 -4.5,-9 4.5,2.25 4.5,-2.25 z"
       style="fill:#000000;fill-opacity:1;fill-rule:nonzero;stroke:#000000;stroke-width:1;stroke-linecap:butt;stroke-linejoin:miter;stroke-miterlimit:10;stroke-dasharray:none;stroke-opacity:1"
       transform="matrix(0.95947055,0,0,0.95947055,0.47973528,0.47973528)"
       clip-path="url(#clipPath20)" />
    <path
       id="path21"
       d="m 1,181 h 300 v 70 H 1 Z"
       style="fill:#ffffff;fill-opacity:1;fill-rule:nonzero;stroke:#000000;stroke-width:1;stroke-linecap:butt;stroke-linejoin:miter;stroke-miterlimit:10;stroke-dasharray:none;stroke-opacity:1"
       transform="scale(0.95947055)"
       clip-path="url(#clipPath22)" />
    <text
       id="text22"
       xml:space="preserve"
       transform="matrix(0.95948018,0,0,0.95948018,2.818473,203.4098)"
       clip-path="url(#clipPath23)"><tspan
         style="font-variant:normal;font-weight:normal;font-size:19px;font-family:Helvetica;writing-mode:lr-tb;fill:#000000;fill-opacity:1;fill-rule:nonzero;stroke:none"
         x="0 14.778809 25.345703 30.624512 35.90332 46.470215 51.749023 62.315918 66.537109 77.104004 87.670898 97.170898 102.44971 108.77686 119.34375 129.91064 135.18945 145.75635 151.03516 161.60205 172.16895 182.73584 188.01465 197.51465 201.73584 205.95703 215.45703 224.95703 230.23584 240.80273 251.36963 256.64844 260.27588 271.37158 274.99902 280.27783 285.55664"
         y="0"
         sodipodi:role="line"
         id="tspan22">Go to blogs route and click on '+' to</tspan></text>
    <text
       id="text23"
       xml:space="preserve"
       transform="matrix(0.95948018,0,0,0.95948018,35.440799,225.47784)"
       clip-path="url(#clipPath24)"><tspan
         style="font-variant:normal;font-weight:normal;font-size:19px;font-family:Helvetica;writing-mode:lr-tb;fill:#000000;fill-opacity:1;fill-rule:nonzero;stroke:none"
         x="0 9.5 20.066895 30.633789 35.912598 46.479492 57.046387 70.767578 76.046387 86.613281 90.834473 101.40137 111.96826 117.24707 126.74707 133.07422 143.64111 154.20801 159.48682 163.70801 174.2749 184.8418 190.12061 195.39941 205.96631 212.29346"
         y="0"
         sodipodi:role="line"
         id="tspan23">see new blog creation form</tspan></text>
    <path
       id="path25"
       d="m 151,341 v 20 -20 9.89999"
       style="fill:none;stroke:#000000;stroke-width:1;stroke-linecap:butt;stroke-linejoin:miter;stroke-miterlimit:10;stroke-dasharray:none;stroke-opacity:1"
       transform="matrix(0.95947055,0,0,0.95947055,0.47973528,0.47973528)"
       clip-path="url(#clipPath26)" />
    <path
       id="path27"
       d="m 151,357.64999 -4.5,-9 4.5,2.25 4.5,-2.25 z"
       style="fill:#000000;fill-opacity:1;fill-rule:nonzero;stroke:#000000;stroke-width:1;stroke-linecap:butt;stroke-linejoin:miter;stroke-miterlimit:10;stroke-dasharray:none;stroke-opacity:1"
       transform="matrix(0.95947055,0,0,0.95947055,0.47973528,0.47973528)"
       clip-path="url(#clipPath28)" />
    <path
       id="path29"
       d="m 1,271 h 300 v 70 H 1 Z"
       style="fill:#ffffff;fill-opacity:1;fill-rule:nonzero;stroke:#000000;stroke-width:1;stroke-linecap:butt;stroke-linejoin:miter;stroke-miterlimit:10;stroke-dasharray:none;stroke-opacity:1"
       transform="scale(0.95947055)"
       clip-path="url(#clipPath30)" />
    <text
       id="text30"
       xml:space="preserve"
       transform="matrix(0.95948018,0,0,0.95948018,4.5575309,289.76302)"
       clip-path="url(#clipPath31)"><tspan
         style="font-variant:normal;font-weight:normal;font-size:19px;font-family:Helvetica;writing-mode:lr-tb;fill:#000000;fill-opacity:1;fill-rule:nonzero;stroke:none"
         x="0 13.721191 23.221191 33.788086 39.066895 49.633789 54.912598 68.633789 83.412598 99.239746 104.51855 114.01855 124.58545 128.80664 139.37354 148.87354 154.15234 164.71924 171.04639 176.3252 181.604 192.1709 197.44971 203.77686 214.34375 219.62256 225.94971 230.1709 240.73779 250.23779 260.80469 266.0835 271.3623 281.9292"
         y="0"
         sodipodi:role="line"
         id="tspan30">Use a DOM selector to retrieve the</tspan></text>
    <text
       id="text31"
       xml:space="preserve"
       transform="matrix(0.95948018,0,0,0.95948018,57.209006,311.83106)"
       clip-path="url(#clipPath32)"><tspan
         style="font-variant:normal;font-weight:normal;font-size:19px;font-family:Helvetica;writing-mode:lr-tb;fill:#000000;fill-opacity:1;fill-rule:nonzero;stroke:none"
         x="0 9.5 20.066895 30.633789 35.912598 46.479492 57.046387 62.325195 67.604004 78.170898 83.449707 88.728516 99.29541 109.8623 115.14111 125.70801 129.9292 140.49609 156.32324 166.89014 177.45703"
         y="0"
         sodipodi:role="line"
         id="tspan31">content of an element</tspan></text>
    <path
       id="path33"
       d="m 301,396 h 70 V 36 h -59.89001"
       style="fill:none;stroke:#000000;stroke-width:1;stroke-linecap:butt;stroke-linejoin:miter;stroke-miterlimit:10;stroke-dasharray:none;stroke-opacity:1"
       transform="matrix(0.95947055,0,0,0.95947055,0.47973528,0.47973528)"
       clip-path="url(#clipPath34)" />
    <path
       id="path35"
       d="m 304.35999,36 9,-4.5 -2.25,4.5 2.25,4.5 z"
       style="fill:#000000;fill-opacity:1;fill-rule:nonzero;stroke:#000000;stroke-width:1;stroke-linecap:butt;stroke-linejoin:miter;stroke-miterlimit:10;stroke-dasharray:none;stroke-opacity:1"
       transform="matrix(0.95947055,0,0,0.95947055,0.47973528,0.47973528)"
       clip-path="url(#clipPath36)" />
    <path
       id="path37"
       d="m 341,206 h 61 v 23 h -61 z"
       style="fill:#ffffff;fill-opacity:1;fill-rule:nonzero;stroke:none"
       transform="scale(0.95948018)"
       clip-path="url(#clipPath38)" />
    <text
       id="text38"
       xml:space="preserve"
       transform="matrix(0.95948018,0,0,0.95948018,327.04782,214.92356)"
       clip-path="url(#clipPath39)"><tspan
         style="font-variant:normal;font-weight:normal;font-size:19px;font-family:Helvetica;writing-mode:lr-tb;fill:#000000;fill-opacity:1;fill-rule:nonzero;stroke:none"
         x="0 13.721191 24.288086 34.85498 45.421875 55.98877"
         y="0"
         sodipodi:role="line"
         id="tspan38">Repeat</tspan></text>
    <path
       id="path40"
       d="m 1,361 h 300 v 70 H 1 Z"
       style="fill:#ffffff;fill-opacity:1;fill-rule:nonzero;stroke:#000000;stroke-width:1;stroke-linecap:butt;stroke-linejoin:miter;stroke-miterlimit:10;stroke-dasharray:none;stroke-opacity:1"
       transform="scale(0.95947055)"
       clip-path="url(#clipPath41)" />
    <text
       id="text41"
       xml:space="preserve"
       transform="matrix(0.95948018,0,0,0.95948018,29.024276,376.11623)"
       clip-path="url(#clipPath42)"><tspan
         style="font-variant:normal;font-weight:normal;font-size:19px;font-family:Helvetica;writing-mode:lr-tb;fill:#000000;fill-opacity:1;fill-rule:nonzero;stroke:none"
         x="0 17.599121 23.92627 28.147461 33.42627 43.993164 49.271973 59.838867 69.338867 78.838867 89.405762 95.73291 101.01172 105.23291 115.7998 126.3667 131.64551 136.92432 147.49121 152.77002 168.59717 179.16406 188.66406 199.23096 204.50977 214.00977 224.57666 230.90381"
         y="0"
         sodipodi:role="line"
         id="tspan41">Write assertion to make sure</tspan></text>
    <text
       id="text42"
       xml:space="preserve"
       transform="matrix(0.95948018,0,0,0.95948018,75.469113,398.18428)"
       clip-path="url(#clipPath43)"><tspan
         style="font-variant:normal;font-weight:normal;font-size:19px;font-family:Helvetica;writing-mode:lr-tb;fill:#000000;fill-opacity:1;fill-rule:nonzero;stroke:none"
         x="0 9.5 20.066895 30.633789 35.912598 46.479492 57.046387 62.325195 67.604004 71.825195 81.325195 86.604004 96.104004 106.6709 112.99805 119.3252 129.89209 139.39209"
         y="0"
         sodipodi:role="line"
         id="tspan42">content is correct</tspan></text>
  </g>
</svg>
