<?xml version="1.0" encoding="UTF-8" standalone="no"?>
<!-- Created with Inkscape (http://www.inkscape.org/) -->

<svg
   version="1.1"
   id="svg1"
   width="530.56"
   height="426.55997"
   viewBox="0 0 530.56 426.55997"
   sodipodi:docname="node-12.pdf"
   xmlns:inkscape="http://www.inkscape.org/namespaces/inkscape"
   xmlns:sodipodi="http://sodipodi.sourceforge.net/DTD/sodipodi-0.dtd"
   xmlns="http://www.w3.org/2000/svg"
   xmlns:svg="http://www.w3.org/2000/svg">
  <defs
     id="defs1">
    <clipPath
       clipPathUnits="userSpaceOnUse"
       id="clipPath2">
      <path
         d="M 0,0 H 1658.3334 V 1332.0548 H 0 Z"
         transform="scale(0.33407035)"
         clip-rule="evenodd"
         id="path2" />
    </clipPath>
    <clipPath
       clipPathUnits="userSpaceOnUse"
       id="clipPath4">
      <path
         d="M 0,0 H 1658.3334 V 1329.0614 H 0 Z"
         transform="matrix(0.33407035,0,0,0.33407035,-0.5,-0.5)"
         clip-rule="evenodd"
         id="path4" />
    </clipPath>
    <clipPath
       clipPathUnits="userSpaceOnUse"
       id="clipPath6">
      <path
         d="M 0,0 H 1658.3334 V 1329.0614 H 0 Z"
         transform="matrix(0.33407035,0,0,0.33407035,-0.5,-0.5)"
         clip-rule="evenodd"
         id="path6" />
    </clipPath>
    <clipPath
       clipPathUnits="userSpaceOnUse"
       id="clipPath8">
      <path
         d="M 0,0 H 1658.3334 V 1329.0614 H 0 Z"
         transform="matrix(0.33407035,0,0,0.33407035,-0.5,-0.5)"
         clip-rule="evenodd"
         id="path8" />
    </clipPath>
    <clipPath
       clipPathUnits="userSpaceOnUse"
       id="clipPath10">
      <path
         d="M 0,0 H 1658.3334 V 1329.0614 H 0 Z"
         transform="matrix(0.33407035,0,0,0.33407035,-0.5,-0.5)"
         clip-rule="evenodd"
         id="path10" />
    </clipPath>
    <clipPath
       clipPathUnits="userSpaceOnUse"
       id="clipPath12">
      <path
         d="M 0,0 H 1658.3334 V 1329.0614 H 0 Z"
         transform="matrix(0.33407035,0,0,0.33407035,-0.5,-0.5)"
         clip-rule="evenodd"
         id="path12" />
    </clipPath>
    <clipPath
       clipPathUnits="userSpaceOnUse"
       id="clipPath14">
      <path
         d="M 0,0 H 1658.3334 V 1329.0614 H 0 Z"
         transform="matrix(0.33407035,0,0,0.33407035,-0.5,-0.5)"
         clip-rule="evenodd"
         id="path14" />
    </clipPath>
    <clipPath
       clipPathUnits="userSpaceOnUse"
       id="clipPath16">
      <path
         d="M 0,0 H 1658.3334 V 1329.0614 H 0 Z"
         transform="matrix(0.33407035,0,0,0.33407035,-0.5,-0.5)"
         clip-rule="evenodd"
         id="path16" />
    </clipPath>
    <clipPath
       clipPathUnits="userSpaceOnUse"
       id="clipPath18">
      <path
         d="M 0,0 H 1658.3334 V 1329.0614 H 0 Z"
         transform="matrix(0.33407035,0,0,0.33407035,-0.5,-0.5)"
         clip-rule="evenodd"
         id="path18" />
    </clipPath>
    <clipPath
       clipPathUnits="userSpaceOnUse"
       id="clipPath20">
      <path
         d="M 0,0 H 1658.3334 V 1329.0614 H 0 Z"
         transform="matrix(0.33407035,0,0,0.33407035,-0.5,-0.5)"
         clip-rule="evenodd"
         id="path20" />
    </clipPath>
    <clipPath
       clipPathUnits="userSpaceOnUse"
       id="clipPath22">
      <path
         d="M 0,0 H 1658.3334 V 1329.0614 H 0 Z"
         transform="matrix(0.33407035,0,0,0.33407035,-0.5,-0.5)"
         clip-rule="evenodd"
         id="path22" />
    </clipPath>
    <clipPath
       clipPathUnits="userSpaceOnUse"
       id="clipPath24">
      <path
         d="M 0,0 H 1658.3334 V 1329.0614 H 0 Z"
         transform="matrix(0.33407035,0,0,0.33407035,-0.5,-0.5)"
         clip-rule="evenodd"
         id="path24" />
    </clipPath>
    <clipPath
       clipPathUnits="userSpaceOnUse"
       id="clipPath26">
      <path
         d="M 0,0 H 1658.3334 V 1329.0614 H 0 Z"
         transform="matrix(0.33407035,0,0,0.33407035,-0.5,-0.5)"
         clip-rule="evenodd"
         id="path26" />
    </clipPath>
    <clipPath
       clipPathUnits="userSpaceOnUse"
       id="clipPath28">
      <path
         d="M 0,0 H 1658.3334 V 1329.0614 H 0 Z"
         transform="matrix(0.33407035,0,0,0.33407035,-0.5,-0.5)"
         clip-rule="evenodd"
         id="path28" />
    </clipPath>
    <clipPath
       clipPathUnits="userSpaceOnUse"
       id="clipPath30">
      <path
         d="M 0,0 H 1658.3334 V 1329.0614 H 0 Z"
         transform="matrix(0.33407035,0,0,0.33407035,-0.5,-0.5)"
         clip-rule="evenodd"
         id="path30" />
    </clipPath>
    <clipPath
       clipPathUnits="userSpaceOnUse"
       id="clipPath31">
      <path
         d="M 0,0 H 1658.3334 V 1329.0614 H 0 Z"
         transform="matrix(0.334067,0,0,0.334067,-63,-31.999999)"
         clip-rule="evenodd"
         id="path31" />
    </clipPath>
    <clipPath
       clipPathUnits="userSpaceOnUse"
       id="clipPath32">
      <path
         d="M 0,0 H 1658.3334 V 1329.0614 H 0 Z"
         transform="matrix(0.334067,0,0,0.334067,-133,-80)"
         clip-rule="evenodd"
         id="path32" />
    </clipPath>
    <clipPath
       clipPathUnits="userSpaceOnUse"
       id="clipPath34">
      <path
         d="M 0,0 H 1658.3334 V 1329.0614 H 0 Z"
         transform="scale(0.33407035)"
         clip-rule="evenodd"
         id="path34" />
    </clipPath>
    <clipPath
       clipPathUnits="userSpaceOnUse"
       id="clipPath35">
      <path
         d="M 0,0 H 1658.3334 V 1329.0614 H 0 Z"
         transform="matrix(0.334067,0,0,0.334067,-67.718751,-187)"
         clip-rule="evenodd"
         id="path35" />
    </clipPath>
    <clipPath
       clipPathUnits="userSpaceOnUse"
       id="clipPath36">
      <path
         d="M 0,0 H 1658.3334 V 1329.0614 H 0 Z"
         transform="matrix(0.334067,0,0,0.334067,-66.546875,-257)"
         clip-rule="evenodd"
         id="path36" />
    </clipPath>
    <clipPath
       clipPathUnits="userSpaceOnUse"
       id="clipPath38">
      <path
         d="M 0,0 H 1658.3334 V 1329.0614 H 0 Z"
         transform="scale(0.33407035)"
         clip-rule="evenodd"
         id="path38" />
    </clipPath>
    <clipPath
       clipPathUnits="userSpaceOnUse"
       id="clipPath40">
      <path
         d="M 0,0 H 1658.3334 V 1329.0614 H 0 Z"
         transform="scale(0.33407035)"
         clip-rule="evenodd"
         id="path40" />
    </clipPath>
    <clipPath
       clipPathUnits="userSpaceOnUse"
       id="clipPath42">
      <path
         d="M 0,0 H 1658.3334 V 1329.0614 H 0 Z"
         transform="scale(0.33407035)"
         clip-rule="evenodd"
         id="path42" />
    </clipPath>
    <clipPath
       clipPathUnits="userSpaceOnUse"
       id="clipPath43">
      <path
         d="M 0,0 H 1658.3334 V 1329.0614 H 0 Z"
         transform="matrix(0.334067,0,0,0.334067,-399.03125,-317)"
         clip-rule="evenodd"
         id="path43" />
    </clipPath>
    <clipPath
       clipPathUnits="userSpaceOnUse"
       id="clipPath45">
      <path
         d="M 0,0 H 1658.3334 V 1329.0614 H 0 Z"
         transform="matrix(0.33407035,0,0,0.33407035,-0.5,-0.5)"
         clip-rule="evenodd"
         id="path45" />
    </clipPath>
    <clipPath
       clipPathUnits="userSpaceOnUse"
       id="clipPath46">
      <path
         d="M 0,0 H 1658.3334 V 1329.0614 H 0 Z"
         transform="matrix(0.334067,0,0,0.334067,-159.78125,-397)"
         clip-rule="evenodd"
         id="path46" />
    </clipPath>
    <clipPath
       clipPathUnits="userSpaceOnUse"
       id="clipPath47">
      <path
         d="M 0,0 H 1658.3334 V 1329.0614 H 0 Z"
         transform="matrix(0.334067,0,0,0.334067,-206.07813,-418)"
         clip-rule="evenodd"
         id="path47" />
    </clipPath>
  </defs>
  <sodipodi:namedview
     id="namedview1"
     pagecolor="#ffffff"
     bordercolor="#000000"
     borderopacity="0.25"
     inkscape:showpageshadow="2"
     inkscape:pageopacity="0.0"
     inkscape:pagecheckerboard="0"
     inkscape:deskcolor="#d1d1d1">
    <inkscape:page
       x="0"
       y="0"
       inkscape:label="1"
       id="page1"
       width="530.56"
       height="426.55997"
       margin="0"
       bleed="0" />
  </sodipodi:namedview>
  <g
     id="g1"
     inkscape:groupmode="layer"
     inkscape:label="1">
    <path
       id="path1"
       d="M 0,0 H 554 V 445 H 0 Z"
       style="fill:#ffffff;fill-opacity:1;fill-rule:nonzero;stroke:none"
       transform="scale(0.95788204)"
       clip-path="url(#clipPath2)" />
    <path
       id="path3"
       d="M 1,1 H 551.01001 V 351 H 1 Z"
       style="fill:#ffffff;fill-opacity:1;fill-rule:nonzero;stroke:#666666;stroke-width:1;stroke-linecap:butt;stroke-linejoin:miter;stroke-miterlimit:10;stroke-dasharray:none;stroke-opacity:1"
       transform="matrix(0.95788204,0,0,0.95788204,0.47894102,0.47894102)"
       clip-path="url(#clipPath4)" />
    <path
       id="path5"
       d="m 496.00012,16 c -3e-5,0.656614 -0.0641,1.306923 -0.19217,1.950922 -0.12814,0.643999 -0.31784,1.269314 -0.56912,1.875948 -0.25128,0.606634 -0.55933,1.182928 -0.9241,1.728886 -0.36478,0.545957 -0.77933,1.051084 -1.24362,1.51538 -0.46433,0.464297 -0.96946,0.878844 -1.51542,1.243639 -0.54595,0.364796 -1.12225,0.672833 -1.72888,0.924109 -0.60663,0.251276 -1.23193,0.440964 -1.87594,0.569063 -0.64399,0.1281 -1.29428,0.19215 -1.95087,0.192152 -0.65665,-2e-6 -1.30695,-0.06405 -1.95096,-0.192152 -0.64401,-0.128099 -1.26932,-0.317787 -1.87594,-0.569063 -0.60666,-0.251276 -1.18296,-0.559313 -1.72892,-0.924109 -0.54596,-0.364795 -1.05108,-0.779342 -1.51535,-1.243639 -0.46432,-0.464296 -0.87887,-0.969423 -1.24365,-1.515378 -0.36484,-0.545958 -0.67288,-1.122254 -0.92413,-1.728888 -0.25125,-0.606634 -0.44092,-1.231949 -0.569,-1.875948 -0.12809,-0.643999 -0.19214,-1.294308 -0.19214,-1.950922 0,-0.656616 0.064,-1.306924 0.19211,-1.950923 0.12808,-0.644 0.31778,-1.269317 0.56903,-1.875951 0.25125,-0.606633 0.55929,-1.182928 0.9241,-1.728885 0.36481,-0.5459561 0.77936,-1.051083 1.24368,-1.5153803 0.46427,-0.4642973 0.96939,-0.8788443 1.51538,-1.2436409 0.54593,-0.3647962 1.12223,-0.6728325 1.72886,-0.9241085 0.60665,-0.2512756 1.23196,-0.4409633 1.87597,-0.5690623 0.64401,-0.1280994 1.29431,-0.1921491 1.95096,-0.1921491 0.65659,0 1.30688,0.06405 1.95087,0.1921491 0.64401,0.128099 1.26931,0.3177867 1.87591,0.5690623 0.60666,0.251276 1.18296,0.5593123 1.72888,0.9241085 0.54599,0.3647966 1.05112,0.7793436 1.51545,1.2436409 0.46429,0.4642973 0.87884,0.9694242 1.24365,1.5153803 0.36477,0.545957 0.67279,1.122252 0.9241,1.728885 0.25128,0.606634 0.44098,1.231951 0.56909,1.875951 0.12809,0.643999 0.19214,1.294307 0.19217,1.950923 z"
       style="fill:none;stroke:#666666;stroke-width:1;stroke-linecap:butt;stroke-linejoin:miter;stroke-miterlimit:10;stroke-dasharray:none;stroke-opacity:1"
       transform="matrix(0.95788204,0,0,0.95788204,0.47894102,0.47894102)"
       clip-path="url(#clipPath6)" />
    <path
       id="path7"
       d="m 521.01013,16 c -6e-5,0.656614 -0.0642,1.306923 -0.19226,1.950922 -0.12811,0.643999 -0.31781,1.269314 -0.56909,1.875948 -0.25128,0.606634 -0.55927,1.182928 -0.92407,1.728886 -0.36481,0.545957 -0.7793,1.051084 -1.24359,1.51538 -0.4643,0.464297 -0.96943,0.878844 -1.51539,1.243639 -0.54595,0.364796 -1.12225,0.672833 -1.72888,0.924109 -0.60663,0.251276 -1.23193,0.440964 -1.87597,0.569063 -0.64399,0.1281 -1.29425,0.19215 -1.95087,0.192152 -0.65665,-2e-6 -1.30695,-0.06405 -1.95096,-0.192152 -0.64401,-0.128099 -1.26935,-0.317787 -1.87598,-0.569063 -0.60662,-0.251276 -1.18292,-0.559313 -1.72888,-0.924109 -0.54596,-0.364795 -1.05108,-0.779342 -1.51535,-1.243639 -0.46432,-0.464296 -0.87887,-0.969423 -1.24365,-1.515378 -0.36481,-0.545958 -0.67285,-1.122254 -0.9241,-1.728888 -0.25125,-0.606634 -0.44095,-1.231949 -0.56906,-1.875948 -0.12809,-0.643999 -0.19211,-1.294308 -0.19211,-1.950922 0,-0.656616 0.064,-1.306924 0.19214,-1.950923 0.12808,-0.644 0.31778,-1.269317 0.56903,-1.875951 0.25125,-0.606633 0.55929,-1.182928 0.9241,-1.728885 0.36478,-0.5459561 0.77933,-1.051083 1.24365,-1.5153803 0.46427,-0.4642973 0.96939,-0.8788443 1.51538,-1.2436409 0.54593,-0.3647962 1.12223,-0.6728325 1.72885,-0.9241085 0.60663,-0.2512756 1.23197,-0.4409633 1.87598,-0.5690623 0.64401,-0.1280994 1.29431,-0.1921491 1.95096,-0.1921491 0.65662,0 1.30688,0.06405 1.95087,0.1921491 0.64404,0.128099 1.26934,0.3177867 1.87597,0.5690623 0.60663,0.251276 1.18293,0.5593123 1.72888,0.9241085 0.54596,0.3647966 1.05109,0.7793436 1.51539,1.2436409 0.46429,0.4642973 0.87878,0.9694242 1.24359,1.5153803 0.3648,0.545957 0.67285,1.122252 0.92413,1.728885 0.25128,0.606634 0.44092,1.231951 0.56903,1.875951 0.12811,0.643999 0.1922,1.294307 0.19226,1.950923 z"
       style="fill:none;stroke:#666666;stroke-width:1;stroke-linecap:butt;stroke-linejoin:miter;stroke-miterlimit:10;stroke-dasharray:none;stroke-opacity:1"
       transform="matrix(0.95788204,0,0,0.95788204,0.47894102,0.47894102)"
       clip-path="url(#clipPath8)" />
    <path
       id="path9"
       d="m 546.01007,16 c 0,0.656614 -0.0641,1.306923 -0.1922,1.950922 -0.12811,0.643999 -0.31781,1.269314 -0.56909,1.875948 -0.25128,0.606634 -0.55933,1.182928 -0.92413,1.728886 -0.36481,0.545957 -0.7793,1.051084 -1.2436,1.51538 -0.46429,0.464297 -0.96942,0.878844 -1.51538,1.243639 -0.54596,0.364796 -1.12225,0.672833 -1.72888,0.924109 -0.60663,0.251276 -1.23193,0.440964 -1.87591,0.569063 -0.64399,0.1281 -1.29425,0.19215 -1.95087,0.192152 -0.65662,-2e-6 -1.30695,-0.06405 -1.95099,-0.192152 -0.64398,-0.128099 -1.26935,-0.317787 -1.87598,-0.569063 -0.60662,-0.251276 -1.18292,-0.559313 -1.72888,-0.924109 -0.54596,-0.364795 -1.05102,-0.779342 -1.51532,-1.243639 -0.46429,-0.464296 -0.87884,-0.969423 -1.24365,-1.515378 -0.36481,-0.545958 -0.67285,-1.122254 -0.92413,-1.728888 -0.25128,-0.606634 -0.44092,-1.231949 -0.56903,-1.875948 -0.12812,-0.643999 -0.1922,-1.294308 -0.19214,-1.950922 -6e-5,-0.656616 0.064,-1.306924 0.19214,-1.950923 0.12811,-0.644 0.31775,-1.269317 0.56903,-1.875951 0.25128,-0.606633 0.55932,-1.182928 0.92407,-1.728885 0.36481,-0.5459561 0.77936,-1.051083 1.24365,-1.5153803 0.4643,-0.4642973 0.96942,-0.8788443 1.51538,-1.2436409 0.54596,-0.3647962 1.12226,-0.6728325 1.72888,-0.9241085 0.60663,-0.2512756 1.232,-0.4409633 1.87598,-0.5690623 0.64404,-0.1280994 1.29437,-0.1921491 1.95099,-0.1921491 0.65662,0 1.30688,0.06405 1.95087,0.1921491 0.64398,0.128099 1.26928,0.3177867 1.87591,0.5690623 0.60663,0.251276 1.18292,0.5593123 1.72888,0.9241085 0.54596,0.3647966 1.05109,0.7793436 1.51538,1.2436409 0.4643,0.4642973 0.87879,0.9694242 1.2436,1.5153803 0.3648,0.545957 0.67285,1.122252 0.92413,1.728885 0.25128,0.606634 0.44098,1.231951 0.56909,1.875951 0.12811,0.643999 0.1922,1.294307 0.1922,1.950923 z"
       style="fill:none;stroke:#008cff;stroke-width:1;stroke-linecap:butt;stroke-linejoin:miter;stroke-miterlimit:10;stroke-dasharray:none;stroke-opacity:1"
       transform="matrix(0.95788204,0,0,0.95788204,0.47894102,0.47894102)"
       clip-path="url(#clipPath10)" />
    <path
       id="path11"
       d="M 1,41 H 31 V 16 c 0,-2.76 2.240002,-5 5,-5 h 135 c 2.75999,0 5,2.24 5,5 v 25 h 375.01001"
       style="fill:none;stroke:#c4c4c4;stroke-width:1;stroke-linecap:butt;stroke-linejoin:miter;stroke-miterlimit:10;stroke-dasharray:none;stroke-opacity:1"
       transform="matrix(0.95788204,0,0,0.95788204,0.47894102,0.47894102)"
       clip-path="url(#clipPath12)" />
    <path
       id="path13"
       d="M 1,111 H 551.01001"
       style="fill:none;stroke:#c4c4c4;stroke-width:1;stroke-linecap:butt;stroke-linejoin:miter;stroke-miterlimit:10;stroke-dasharray:none;stroke-opacity:1"
       transform="matrix(0.95788204,0,0,0.95788204,0.47894102,0.47894102)"
       clip-path="url(#clipPath14)" />
    <path
       id="path15"
       d="m 101,61 c 0,-2.759998 2.24,-5 5,-5 h 430.01001 c 2.76001,0 5,2.240002 5,5 v 25 c 0,2.760002 -2.23999,5 -5,5 H 106 c -2.76,0 -5,-2.239998 -5,-5 z"
       style="fill:none;stroke:#c4c4c4;stroke-width:1;stroke-linecap:butt;stroke-linejoin:miter;stroke-miterlimit:10;stroke-dasharray:none;stroke-opacity:1"
       transform="matrix(0.95788204,0,0,0.95788204,0.47894102,0.47894102)"
       clip-path="url(#clipPath16)" />
    <path
       id="path17"
       d="m 38,18 h 11 l 4,4 V 36 H 38 Z"
       style="fill:none;stroke:#c4c4c4;stroke-width:1;stroke-linecap:butt;stroke-linejoin:miter;stroke-miterlimit:10;stroke-dasharray:none;stroke-opacity:1"
       transform="matrix(0.95788204,0,0,0.95788204,0.47894102,0.47894102)"
       clip-path="url(#clipPath18)" />
    <path
       id="path19"
       d="m 49,18 v 4 l 4,1"
       style="fill:none;stroke:#c4c4c4;stroke-width:1;stroke-linecap:butt;stroke-linejoin:miter;stroke-miterlimit:10;stroke-dasharray:none;stroke-opacity:1"
       transform="matrix(0.95788204,0,0,0.95788204,0.47894102,0.47894102)"
       clip-path="url(#clipPath20)" />
    <path
       id="path21"
       d="m 108,65 h 11 l 4,4 v 14 h -15 z"
       style="fill:none;stroke:#c4c4c4;stroke-width:1;stroke-linecap:butt;stroke-linejoin:miter;stroke-miterlimit:10;stroke-dasharray:none;stroke-opacity:1"
       transform="matrix(0.95788204,0,0,0.95788204,0.47894102,0.47894102)"
       clip-path="url(#clipPath22)" />
    <path
       id="path23"
       d="m 119,65 v 4 l 4,1"
       style="fill:none;stroke:#c4c4c4;stroke-width:1;stroke-linecap:butt;stroke-linejoin:miter;stroke-miterlimit:10;stroke-dasharray:none;stroke-opacity:1"
       transform="matrix(0.95788204,0,0,0.95788204,0.47894102,0.47894102)"
       clip-path="url(#clipPath24)" />
    <path
       id="path25"
       d="M 13,75 23,65 v 6 h 10 v 8 H 23 v 6 z"
       style="fill:#c4c4c4;fill-opacity:1;fill-rule:nonzero;stroke:#c4c4c4;stroke-width:1;stroke-linecap:butt;stroke-linejoin:miter;stroke-miterlimit:10;stroke-dasharray:none;stroke-opacity:1"
       transform="matrix(0.95788204,0,0,0.95788204,0.47894102,0.47894102)"
       clip-path="url(#clipPath26)" />
    <path
       id="path27"
       d="M 63,75 53,65 v 6 H 43 v 8 h 10 v 6 z"
       style="fill:#c4c4c4;fill-opacity:1;fill-rule:nonzero;stroke:#c4c4c4;stroke-width:1;stroke-linecap:butt;stroke-linejoin:miter;stroke-miterlimit:10;stroke-dasharray:none;stroke-opacity:1"
       transform="matrix(0.95788204,0,0,0.95788204,0.47894102,0.47894102)"
       clip-path="url(#clipPath28)" />
    <path
       id="path29"
       d="m 88.599998,78.300003 c -1.699996,2.839996 -5.379997,3.759995 -8.220001,2.059998 C 77.540001,78.669998 76.610001,75 78.300003,72.150002 79.980003,69.309998 83.650002,68.360001 86.5,70.040001 L 84.900002,71.5 92.800003,73.300003 91,65.800003 89.300003,67.400002 c -3.190002,-2.370003 -7.5,-2.580002 -10.900001,-0.529999 -3.410004,2.049995 -5.239998,5.959999 -4.630005,9.889999 0.61,3.93 3.530006,7.099999 7.390007,8.029999 C 85.029999,85.720001 89.07,84.230003 91.400002,81 Z"
       style="fill:#c4c4c4;fill-opacity:1;fill-rule:nonzero;stroke:#c4c4c4;stroke-width:1;stroke-linecap:butt;stroke-linejoin:miter;stroke-miterlimit:10;stroke-dasharray:none;stroke-opacity:1"
       transform="matrix(0.95788204,0,0,0.95788204,0.47894102,0.47894102)"
       clip-path="url(#clipPath30)" />
    <text
       id="text30"
       xml:space="preserve"
       transform="matrix(0.95789164,0,0,0.95789164,60.347173,30.652532)"
       clip-path="url(#clipPath31)"><tspan
         style="font-variant:normal;font-weight:normal;font-size:17px;font-family:Helvetica;writing-mode:lr-tb;fill:#666666;fill-opacity:1;fill-rule:nonzero;stroke:none"
         x="0 11.338867 20.793457 30.248047 39.702637 44.425781"
         y="0"
         sodipodi:role="line"
         id="tspan30">Page 1</tspan></text>
    <text
       id="text31"
       xml:space="preserve"
       transform="matrix(0.95789164,0,0,0.95789164,127.39959,76.631331)"
       clip-path="url(#clipPath32)"><tspan
         style="font-variant:normal;font-weight:normal;font-size:17px;font-family:Helvetica;writing-mode:lr-tb;fill:#666666;fill-opacity:1;fill-rule:nonzero;stroke:none"
         x="0 3.7768555 13.231445 21.731445 31.186035 34.962891 44.41748 53.87207 62.37207 67.095215 71.818359 81.272949 90.727539 100.18213 109.63672 114.35986 123.81445 127.59131 137.0459 146.50049"
         y="0"
         sodipodi:role="line"
         id="tspan31">localhost:3000/blogs</tspan></text>
    <path
       id="path33"
       d="m 21,111 h 500.01001 v 40 H 21 Z"
       style="fill:#ffffff;fill-opacity:1;fill-rule:nonzero;stroke:#000000;stroke-width:1;stroke-linecap:butt;stroke-linejoin:miter;stroke-miterlimit:10;stroke-dasharray:none;stroke-opacity:1"
       transform="scale(0.95788204)"
       clip-path="url(#clipPath34)" />
    <text
       id="text34"
       xml:space="preserve"
       transform="matrix(0.95789164,0,0,0.95789164,64.867225,179.12574)"
       clip-path="url(#clipPath35)"><tspan
         style="font-variant:normal;font-weight:normal;font-size:17px;font-family:Helvetica;writing-mode:lr-tb;fill:#000000;fill-opacity:1;fill-rule:nonzero;stroke:none"
         x="0 11.338867 20.793457 25.516602 34.971191 40.632324 45.056641 54.818359 58.595215 63.318359 67.095215"
         y="0"
         sodipodi:role="line"
         id="tspan34">Enter Title</tspan></text>
    <text
       id="text35"
       xml:space="preserve"
       transform="matrix(0.95789164,0,0,0.95789164,63.744695,246.17815)"
       clip-path="url(#clipPath36)"><tspan
         style="font-variant:normal;font-weight:normal;font-size:17px;font-family:Helvetica;writing-mode:lr-tb;fill:#000000;fill-opacity:1;fill-rule:nonzero;stroke:none"
         x="0 11.338867 20.793457 25.516602 34.971191 40.632324 45.355469 57.632324 67.086914 76.541504 81.264648 90.719238 100.17383"
         y="0"
         sodipodi:role="line"
         id="tspan35">Enter Content</tspan></text>
    <path
       id="path37"
       d="m 69,193 h 190 v 20 H 69 Z"
       style="fill:#ffffff;fill-opacity:1;fill-rule:nonzero;stroke:#000000;stroke-width:1;stroke-linecap:butt;stroke-linejoin:miter;stroke-miterlimit:10;stroke-dasharray:none;stroke-opacity:1"
       transform="scale(0.95788204)"
       clip-path="url(#clipPath38)" />
    <path
       id="path39"
       d="m 72,261 h 190 v 20 H 72 Z"
       style="fill:#ffffff;fill-opacity:1;fill-rule:nonzero;stroke:#000000;stroke-width:1;stroke-linecap:butt;stroke-linejoin:miter;stroke-miterlimit:10;stroke-dasharray:none;stroke-opacity:1"
       transform="scale(0.95788204)"
       clip-path="url(#clipPath40)" />
    <path
       id="path41"
       d="m 370,291 h 111 v 40 H 370 Z"
       style="fill:#ffffff;fill-opacity:1;fill-rule:nonzero;stroke:#000000;stroke-width:1;stroke-linecap:butt;stroke-linejoin:miter;stroke-miterlimit:10;stroke-dasharray:none;stroke-opacity:1"
       transform="scale(0.95788204)"
       clip-path="url(#clipPath42)" />
    <text
       id="text42"
       xml:space="preserve"
       transform="matrix(0.95789164,0,0,0.95789164,382.2287,303.65165)"
       clip-path="url(#clipPath43)"><tspan
         style="font-variant:normal;font-weight:normal;font-size:17px;font-family:Helvetica;writing-mode:lr-tb;fill:#000000;fill-opacity:1;fill-rule:nonzero;stroke:none"
         x="0 11.338867 20.793457 30.248047 44.40918 48.186035"
         y="0"
         sodipodi:role="line"
         id="tspan42">Submit</tspan></text>
    <path
       id="path44"
       d="m 154.5,361 h 243 v 80 h -243 z"
       style="fill:#f8cecc;fill-opacity:1;fill-rule:nonzero;stroke:#b85450;stroke-width:1;stroke-linecap:butt;stroke-linejoin:miter;stroke-miterlimit:10;stroke-dasharray:none;stroke-opacity:1"
       transform="matrix(0.95788204,0,0,0.95788204,0.47894102,0.47894102)"
       clip-path="url(#clipPath45)" />
    <text
       id="text45"
       xml:space="preserve"
       transform="matrix(0.95789164,0,0,0.95789164,153.05312,380.28298)"
       clip-path="url(#clipPath46)"><tspan
         style="font-variant:normal;font-weight:normal;font-size:17px;font-family:Helvetica;writing-mode:lr-tb;fill:#000000;fill-opacity:1;fill-rule:nonzero;stroke:none"
         x="0 10.384277 19.838867 23.615723 32.115723 36.838867 46.293457 55.748047 65.202637 74.657227 79.380371 87.880371 97.334961 106.78955 116.24414 120.021 129.47559 134.19873 143.65332 153.10791 157.83105 162.5542 172.00879 181.46338 186.18652 194.68652 198.46338 206.96338 210.74023 220.19482 223.97168"
         y="0"
         sodipodi:role="line"
         id="tspan45">This page should not be visible</tspan></text>
    <text
       id="text46"
       xml:space="preserve"
       transform="matrix(0.95789164,0,0,0.95789164,197.40052,400.39871)"
       clip-path="url(#clipPath47)"><tspan
         style="font-variant:normal;font-weight:normal;font-size:17px;font-family:Helvetica;writing-mode:lr-tb;fill:#000000;fill-opacity:1;fill-rule:nonzero;stroke:none"
         x="0 12.276855 21.731445 25.508301 29.285156 38.739746 43.462891 52.91748 62.37207 67.095215 71.818359 75.595215 85.049805 94.504395 103.95898 113.41357 122.86816 127.59131 131.36816"
         y="0"
         sodipodi:role="line"
         id="tspan46">while not logged in</tspan></text>
  </g>
</svg>
