<?xml version="1.0" encoding="UTF-8" standalone="no"?>
<!-- Created with Inkscape (http://www.inkscape.org/) -->

<svg
   version="1.1"
   id="svg1"
   width="346.55997"
   height="372.16"
   viewBox="0 0 346.55997 372.16"
   sodipodi:docname="node-6.pdf"
   xmlns:inkscape="http://www.inkscape.org/namespaces/inkscape"
   xmlns:sodipodi="http://sodipodi.sourceforge.net/DTD/sodipodi-0.dtd"
   xmlns="http://www.w3.org/2000/svg"
   xmlns:svg="http://www.w3.org/2000/svg">
  <defs
     id="defs1">
    <clipPath
       clipPathUnits="userSpaceOnUse"
       id="clipPath2">
      <path
         d="M 0,0 H 1083.3333 V 1161.3573 H 0 Z"
         transform="scale(0.33323079)"
         clip-rule="evenodd"
         id="path2" />
    </clipPath>
    <clipPath
       clipPathUnits="userSpaceOnUse"
       id="clipPath4">
      <path
         d="M 0,0 H 1083.3333 V 1158.3563 H 0 Z"
         transform="scale(0.33323079)"
         clip-rule="evenodd"
         id="path4" />
    </clipPath>
    <clipPath
       clipPathUnits="userSpaceOnUse"
       id="clipPath5">
      <path
         d="M 0,0 H 1083.3333 V 1158.3563 H 0 Z"
         transform="matrix(0.33322746,0,0,0.33322746,-127.3125,-60)"
         clip-rule="evenodd"
         id="path5" />
    </clipPath>
    <clipPath
       clipPathUnits="userSpaceOnUse"
       id="clipPath7">
      <path
         d="M 0,0 H 1083.3333 V 1158.3563 H 0 Z"
         transform="matrix(0.33323079,0,0,0.33323079,-0.5,-0.5)"
         clip-rule="evenodd"
         id="path7" />
    </clipPath>
    <clipPath
       clipPathUnits="userSpaceOnUse"
       id="clipPath9">
      <path
         d="M 0,0 H 1083.3333 V 1158.3563 H 0 Z"
         transform="matrix(0.33323079,0,0,0.33323079,-0.5,-0.5)"
         clip-rule="evenodd"
         id="path9" />
    </clipPath>
    <clipPath
       clipPathUnits="userSpaceOnUse"
       id="clipPath11">
      <path
         d="M 0,0 H 1083.3333 V 1158.3563 H 0 Z"
         transform="scale(0.33323079)"
         clip-rule="evenodd"
         id="path11" />
    </clipPath>
    <clipPath
       clipPathUnits="userSpaceOnUse"
       id="clipPath12">
      <path
         d="M 0,0 H 1083.3333 V 1158.3563 H 0 Z"
         transform="matrix(0.33322746,0,0,0.33322746,-86.109375,-120)"
         clip-rule="evenodd"
         id="path12" />
    </clipPath>
    <clipPath
       clipPathUnits="userSpaceOnUse"
       id="clipPath13">
      <path
         d="M 0,0 H 1083.3333 V 1158.3563 H 0 Z"
         transform="matrix(0.33322746,0,0,0.33322746,-195.64063,-140)"
         clip-rule="evenodd"
         id="path13" />
    </clipPath>
    <clipPath
       clipPathUnits="userSpaceOnUse"
       id="clipPath14">
      <path
         d="M 0,0 H 1083.3333 V 1158.3563 H 0 Z"
         transform="matrix(0.33322746,0,0,0.33322746,-184.54688,-19)"
         clip-rule="evenodd"
         id="path14" />
    </clipPath>
    <clipPath
       clipPathUnits="userSpaceOnUse"
       id="clipPath15">
      <path
         d="M 0,0 H 1083.3333 V 1158.3563 H 0 Z"
         transform="matrix(0.33322746,0,0,0.33322746,-2.515625,-40)"
         clip-rule="evenodd"
         id="path15" />
    </clipPath>
    <clipPath
       clipPathUnits="userSpaceOnUse"
       id="clipPath17">
      <path
         d="M 0,0 H 1083.3333 V 1158.3563 H 0 Z"
         transform="scale(0.33323079)"
         clip-rule="evenodd"
         id="path17" />
    </clipPath>
    <clipPath
       clipPathUnits="userSpaceOnUse"
       id="clipPath18">
      <path
         d="M 0,0 H 1083.3333 V 1158.3563 H 0 Z"
         transform="matrix(0.33322746,0,0,0.33322746,-126.14062,-200)"
         clip-rule="evenodd"
         id="path18" />
    </clipPath>
    <clipPath
       clipPathUnits="userSpaceOnUse"
       id="clipPath20">
      <path
         d="M 0,0 H 1083.3333 V 1158.3563 H 0 Z"
         transform="scale(0.33323079)"
         clip-rule="evenodd"
         id="path20" />
    </clipPath>
    <clipPath
       clipPathUnits="userSpaceOnUse"
       id="clipPath21">
      <path
         d="M 0,0 H 1083.3333 V 1158.3563 H 0 Z"
         transform="matrix(0.33322746,0,0,0.33322746,-72.859375,-270.00001)"
         clip-rule="evenodd"
         id="path21" />
    </clipPath>
    <clipPath
       clipPathUnits="userSpaceOnUse"
       id="clipPath23">
      <path
         d="M 0,0 H 1083.3333 V 1158.3563 H 0 Z"
         transform="scale(0.33323079)"
         clip-rule="evenodd"
         id="path23" />
    </clipPath>
    <clipPath
       clipPathUnits="userSpaceOnUse"
       id="clipPath24">
      <path
         d="M 0,0 H 1083.3333 V 1158.3563 H 0 Z"
         transform="matrix(0.33322746,0,0,0.33322746,-69.375,-340)"
         clip-rule="evenodd"
         id="path24" />
    </clipPath>
  </defs>
  <sodipodi:namedview
     id="namedview1"
     pagecolor="#ffffff"
     bordercolor="#000000"
     borderopacity="0.25"
     inkscape:showpageshadow="2"
     inkscape:pageopacity="0.0"
     inkscape:pagecheckerboard="0"
     inkscape:deskcolor="#d1d1d1">
    <inkscape:page
       x="0"
       y="0"
       inkscape:label="1"
       id="page1"
       width="346.55997"
       height="372.16"
       margin="0"
       bleed="0" />
  </sodipodi:namedview>
  <g
     id="g1"
     inkscape:groupmode="layer"
     inkscape:label="1">
    <path
       id="path1"
       d="M 0,0 H 361 V 387 H 0 Z"
       style="fill:#ffffff;fill-opacity:1;fill-rule:nonzero;stroke:none"
       transform="scale(0.96029538)"
       clip-path="url(#clipPath2)" />
    <path
       id="path3"
       d="M 68,25 H 358 V 85 H 68 Z"
       style="fill:#ffffff;fill-opacity:1;fill-rule:nonzero;stroke:#000000;stroke-width:1;stroke-linecap:butt;stroke-linejoin:miter;stroke-miterlimit:10;stroke-dasharray:none;stroke-opacity:1"
       transform="scale(0.96029538)"
       clip-path="url(#clipPath4)" />
    <text
       id="text4"
       xml:space="preserve"
       transform="matrix(0.96030498,0,0,0.96030498,122.25883,57.618299)"
       clip-path="url(#clipPath5)"><tspan
         style="font-variant:normal;font-weight:normal;font-size:16px;font-family:Helvetica;writing-mode:lr-tb;fill:#000000;fill-opacity:1;fill-rule:nonzero;stroke:none"
         x="0 14.820312 23.71875 28.164062 37.0625 45.960938 53.960938 62.859375 67.304688 75.304688 84.203125 93.101562 102 106.44531 110.89062 119.78906 124.23438 136.67969 140.23438 144.67969 153.57812 162.47656"
         y="0"
         sodipodi:role="line"
         id="tspan4">We push code to Github</tspan></text>
    <path
       id="path6"
       d="M 48,25 V 364.89999"
       style="fill:none;stroke:#000000;stroke-width:1;stroke-linecap:butt;stroke-linejoin:miter;stroke-miterlimit:10;stroke-dasharray:none;stroke-opacity:1"
       transform="matrix(0.96029538,0,0,0.96029538,0.48014769,0.48014769)"
       clip-path="url(#clipPath7)" />
    <path
       id="path8"
       d="m 48,371.64999 -4.5,-9 4.5,2.25 4.5,-2.25 z"
       style="fill:#000000;fill-opacity:1;fill-rule:nonzero;stroke:#000000;stroke-width:1;stroke-linecap:butt;stroke-linejoin:miter;stroke-miterlimit:10;stroke-dasharray:none;stroke-opacity:1"
       transform="matrix(0.96029538,0,0,0.96029538,0.48014769,0.48014769)"
       clip-path="url(#clipPath9)" />
    <path
       id="path10"
       d="m 68,95 h 290 v 60 H 68 Z"
       style="fill:#ffffff;fill-opacity:1;fill-rule:nonzero;stroke:#000000;stroke-width:1;stroke-linecap:butt;stroke-linejoin:miter;stroke-miterlimit:10;stroke-dasharray:none;stroke-opacity:1"
       transform="scale(0.96029538)"
       clip-path="url(#clipPath11)" />
    <text
       id="text11"
       xml:space="preserve"
       transform="matrix(0.96030498,0,0,0.96030498,82.691262,115.2366)"
       clip-path="url(#clipPath12)"><tspan
         style="font-variant:normal;font-weight:normal;font-size:16px;font-family:Helvetica;writing-mode:lr-tb;fill:#000000;fill-opacity:1;fill-rule:nonzero;stroke:none"
         x="0 9.1875 14.515625 23.414062 31.414062 34.96875 42.96875 47.414062 56.3125 65.210938 69.65625 78.554688 91.882812 100.78125 105.22656 108.78125 116.78125 125.67969 129.23438 132.78906 140.78906 145.23438 154.13281 163.03125 167.47656 176.375 184.375 188.82031 196.82031 201.26562 210.16406 219.0625 227.0625 235.96094 244.85938"
         y="0"
         sodipodi:role="line"
         id="tspan11">Travis automatically detects pushed</tspan></text>
    <text
       id="text12"
       xml:space="preserve"
       transform="matrix(0.96030498,0,0,0.96030498,187.87467,134.4427)"
       clip-path="url(#clipPath13)"><tspan
         style="font-variant:normal;font-weight:normal;font-size:16px;font-family:Helvetica;writing-mode:lr-tb;fill:#000000;fill-opacity:1;fill-rule:nonzero;stroke:none"
         x="0 8 16.898438 25.796875"
         y="0"
         sodipodi:role="line"
         id="tspan12">code</tspan></text>
    <text
       id="text13"
       xml:space="preserve"
       transform="matrix(0.96030498,0,0,0.96030498,177.22129,18.245795)"
       clip-path="url(#clipPath14)"><tspan
         style="font-variant:normal;font-weight:700;font-size:16px;font-family:Helvetica;writing-mode:lr-tb;fill:#000000;fill-opacity:1;fill-rule:nonzero;stroke:none"
         x="0 11.554688 16 20.445312 30.21875 34.664062 44.4375"
         y="0"
         sodipodi:role="line"
         id="tspan13">CI Flow</tspan></text>
    <text
       id="text14"
       xml:space="preserve"
       transform="matrix(0.96030498,0,0,0.96030498,2.4157672,38.412199)"
       clip-path="url(#clipPath15)"><tspan
         style="font-variant:normal;font-weight:normal;font-size:16px;font-family:Helvetica;writing-mode:lr-tb;fill:#000000;fill-opacity:1;fill-rule:nonzero;stroke:none"
         x="0 9.1875 12.742188 26.070312"
         y="0"
         sodipodi:role="line"
         id="tspan14">Time</tspan></text>
    <path
       id="path16"
       d="m 68,165 h 290 v 60 H 68 Z"
       style="fill:#ffffff;fill-opacity:1;fill-rule:nonzero;stroke:#000000;stroke-width:1;stroke-linecap:butt;stroke-linejoin:miter;stroke-miterlimit:10;stroke-dasharray:none;stroke-opacity:1"
       transform="scale(0.96029538)"
       clip-path="url(#clipPath17)" />
    <text
       id="text17"
       xml:space="preserve"
       transform="matrix(0.96030498,0,0,0.96030498,121.13347,192.061)"
       clip-path="url(#clipPath18)"><tspan
         style="font-variant:normal;font-weight:normal;font-size:16px;font-family:Helvetica;writing-mode:lr-tb;fill:#000000;fill-opacity:1;fill-rule:nonzero;stroke:none"
         x="0 9.1875 14.515625 23.414062 31.414062 34.96875 42.96875 47.414062 55.414062 58.96875 67.867188 76.765625 85.664062 93.664062 98.109375 107.00781 115.90625 121.23438 125.67969 134.57812 139.90625 148.80469 152.35938 161.25781 169.25781"
         y="0"
         sodipodi:role="line"
         id="tspan17">Travis clones our project</tspan></text>
    <path
       id="path19"
       d="m 68,235 h 290 v 60 H 68 Z"
       style="fill:#dae8fc;fill-opacity:1;fill-rule:nonzero;stroke:#6c8ebf;stroke-width:1;stroke-linecap:butt;stroke-linejoin:miter;stroke-miterlimit:10;stroke-dasharray:none;stroke-opacity:1"
       transform="scale(0.96029538)"
       clip-path="url(#clipPath20)" />
    <g
       id="g20" />
    <text
       id="text20"
       xml:space="preserve"
       transform="matrix(0.96030498,0,0,0.96030498,69.967221,259.28235)"
       clip-path="url(#clipPath21)"><tspan
         style="font-variant:normal;font-weight:normal;font-size:16px;font-family:Helvetica;writing-mode:lr-tb;fill:#000000;fill-opacity:1;fill-rule:nonzero;stroke:none"
         x="0 9.1875 14.515625 23.414062 31.414062 34.96875 42.96875 47.414062 52.742188 61.640625 70.539062 78.539062 82.984375 87.429688 96.328125 104.32812 108.77344 116.77344 121.21875 130.11719 138.11719 141.67188 150.57031 159.46875 163.91406 172.8125 177.25781 180.3125 184.75781 189.20312 194.53125 203.42969 211.42969 214.98438 222.98438 227.42969 235.42969 248.75781 252.3125 255.36719 259.8125 267.8125 271.36719"
         y="0"
         sodipodi:role="line"
         id="tspan20">Travis runs tests using a '.travis.yml' ﬁle</tspan></text>
    <path
       id="path22"
       d="m 68,305 h 290 v 60 H 68 Z"
       style="fill:#ffffff;fill-opacity:1;fill-rule:nonzero;stroke:#000000;stroke-width:1;stroke-linecap:butt;stroke-linejoin:miter;stroke-miterlimit:10;stroke-dasharray:none;stroke-opacity:1"
       transform="scale(0.96029538)"
       clip-path="url(#clipPath23)" />
    <text
       id="text23"
       xml:space="preserve"
       transform="matrix(0.96030498,0,0,0.96030498,66.621158,326.50369)"
       clip-path="url(#clipPath24)"><tspan
         style="font-variant:normal;font-weight:normal;font-size:16px;font-family:Helvetica;writing-mode:lr-tb;fill:#000000;fill-opacity:1;fill-rule:nonzero;stroke:none"
         x="0 4.4453125 8.890625 13.335938 17.78125 26.679688 34.679688 39.125 47.125 51.570312 60.46875 65.796875 74.695312 79.140625 91.585938 102.25781 106.70312 110.86719 120.05469 125.38281 134.28125 142.28125 145.83594 153.83594 158.28125 166.28125 175.17969 184.07812 192.97656 200.97656 205.42188 214.32031 222.32031 226.76562 235.66406 244.5625 249.00781 257.90625 271.23438 280.13281 283.6875"
         y="0"
         sodipodi:role="line"
         id="tspan23">If tests are OK, Travis sends us an email</tspan></text>
  </g>
</svg>
