<?xml version="1.0" encoding="UTF-8" standalone="no"?>
<!-- Created with Inkscape (http://www.inkscape.org/) -->

<svg
   version="1.1"
   id="svg1"
   width="761.27997"
   height="234.56"
   viewBox="0 0 761.27997 234.56"
   sodipodi:docname="node-2.pdf"
   xmlns:inkscape="http://www.inkscape.org/namespaces/inkscape"
   xmlns:sodipodi="http://sodipodi.sourceforge.net/DTD/sodipodi-0.dtd"
   xmlns="http://www.w3.org/2000/svg"
   xmlns:svg="http://www.w3.org/2000/svg">
  <defs
     id="defs1">
    <clipPath
       clipPathUnits="userSpaceOnUse"
       id="clipPath2">
      <path
         d="M 0,0 H 2379.1665 V 731.12927 H 0 Z"
         transform="scale(0.33373032)"
         clip-rule="evenodd"
         id="path2" />
    </clipPath>
    <clipPath
       clipPathUnits="userSpaceOnUse"
       id="clipPath3">
      <path
         d="M 0,0 H 2379.1665 V 731.12927 H 0 Z"
         transform="matrix(0.33372697,0,0,0.33372697,-120.21875,-25)"
         clip-rule="evenodd"
         id="path3" />
    </clipPath>
    <clipPath
       clipPathUnits="userSpaceOnUse"
       id="clipPath5">
      <path
         d="M 0,0 H 2379.1665 V 731.12927 H 0 Z"
         transform="scale(0.33373032)"
         clip-rule="evenodd"
         id="path5" />
    </clipPath>
    <clipPath
       clipPathUnits="userSpaceOnUse"
       id="clipPath6">
      <path
         d="M 0,0 H 2379.1665 V 731.12927 H 0 Z"
         transform="matrix(0.33372697,0,0,0.33372697,-10.5,-82)"
         clip-rule="evenodd"
         id="path6" />
    </clipPath>
    <clipPath
       clipPathUnits="userSpaceOnUse"
       id="clipPath7">
      <path
         d="M 0,0 H 2379.1665 V 731.12927 H 0 Z"
         transform="matrix(0.33372697,0,0,0.33372697,-165,-103)"
         clip-rule="evenodd"
         id="path7" />
    </clipPath>
    <clipPath
       clipPathUnits="userSpaceOnUse"
       id="clipPath9">
      <path
         d="M 0,0 H 2379.1665 V 731.12927 H 0 Z"
         transform="scale(0.33373032)"
         clip-rule="evenodd"
         id="path9" />
    </clipPath>
    <clipPath
       clipPathUnits="userSpaceOnUse"
       id="clipPath10">
      <path
         d="M 0,0 H 2379.1665 V 731.12927 H 0 Z"
         transform="matrix(0.33372697,0,0,0.33372697,-420.53125,-72)"
         clip-rule="evenodd"
         id="path10" />
    </clipPath>
    <clipPath
       clipPathUnits="userSpaceOnUse"
       id="clipPath11">
      <path
         d="M 0,0 H 2379.1665 V 731.12927 H 0 Z"
         transform="matrix(0.33372697,0,0,0.33372697,-419.79688,-92)"
         clip-rule="evenodd"
         id="path11" />
    </clipPath>
    <clipPath
       clipPathUnits="userSpaceOnUse"
       id="clipPath12">
      <path
         d="M 0,0 H 2379.1665 V 731.12927 H 0 Z"
         transform="matrix(0.33372697,0,0,0.33372697,-568.85938,-113)"
         clip-rule="evenodd"
         id="path12" />
    </clipPath>
    <clipPath
       clipPathUnits="userSpaceOnUse"
       id="clipPath13">
      <path
         d="M 0,0 H 2379.1665 V 731.12927 H 0 Z"
         transform="matrix(0.33372697,0,0,0.33372697,-476.71875,-25)"
         clip-rule="evenodd"
         id="path13" />
    </clipPath>
    <clipPath
       clipPathUnits="userSpaceOnUse"
       id="clipPath14">
      <path
         d="M 0,0 H 2379.1665 V 731.12927 H 0 Z"
         transform="matrix(0.33372697,0,0,0.33372697,-230.20312,-235)"
         clip-rule="evenodd"
         id="path14" />
    </clipPath>
  </defs>
  <sodipodi:namedview
     id="namedview1"
     pagecolor="#ffffff"
     bordercolor="#000000"
     borderopacity="0.25"
     inkscape:showpageshadow="2"
     inkscape:pageopacity="0.0"
     inkscape:pagecheckerboard="0"
     inkscape:deskcolor="#d1d1d1">
    <inkscape:page
       x="0"
       y="0"
       inkscape:label="1"
       id="page1"
       width="761.27997"
       height="234.56"
       margin="0"
       bleed="0" />
  </sodipodi:namedview>
  <g
     id="g1"
     inkscape:groupmode="layer"
     inkscape:label="1">
    <path
       id="path1"
       d="M 0,0 H 794 V 244 H 0 Z"
       style="fill:#ffffff;fill-opacity:1;fill-rule:nonzero;stroke:none"
       transform="scale(0.95885801)"
       clip-path="url(#clipPath2)" />
    <text
       id="text2"
       xml:space="preserve"
       transform="matrix(0.95886761,0,0,0.95886761,115.27387,23.97169)"
       clip-path="url(#clipPath3)"><tspan
         style="font-variant:normal;font-weight:700;font-size:26px;font-family:Helvetica;writing-mode:lr-tb;fill:#000000;fill-opacity:1;fill-rule:nonzero;stroke:none"
         x="0 24.540039 40.421875 54.881836 63.540039 70.763672 77.987305 92.447266 99.670898 118.44727 125.6709"
         y="0"
         sodipodi:role="line"
         id="tspan2">What is CI?</tspan></text>
    <path
       id="path4"
       d="m 1,41 h 380 v 90 H 1 Z"
       style="fill:#ffffff;fill-opacity:1;fill-rule:nonzero;stroke:#000000;stroke-width:1;stroke-linecap:butt;stroke-linejoin:miter;stroke-miterlimit:10;stroke-dasharray:none;stroke-opacity:1"
       transform="scale(0.95885801)"
       clip-path="url(#clipPath5)" />
    <text
       id="text5"
       xml:space="preserve"
       transform="matrix(0.95886761,0,0,0.95886761,10.06811,78.627144)"
       clip-path="url(#clipPath6)"><tspan
         style="font-variant:normal;font-weight:normal;font-size:17px;font-family:Helvetica;writing-mode:lr-tb;fill:#000000;fill-opacity:1;fill-rule:nonzero;stroke:none"
         x="0 11.338867 17 26.45459 34.95459 44.40918 52.90918 61.40918 66.132324 70.855469 80.310059 85.033203 99.194336 108.64893 114.31006 123.76465 133.21924 137.94238 147.39697 151.17383 154.95068 159.67383 168.17383 177.62842 187.08301 196.5376 201.26074 209.76074 219.21533 228.66992 238.12451 247.5791 257.03369 265.53369 270.25684 274.03369 283.48828 288.21143 297.66602 302.38916 311.84375 316.56689 325.06689 328.84375 338.29834 347.75293 351.52979"
         y="0"
         sodipodi:role="line"
         id="tspan5">Process to merge all code changes into a single</tspan></text>
    <text
       id="text6"
       xml:space="preserve"
       transform="matrix(0.95886761,0,0,0.95886761,158.21316,98.763364)"
       clip-path="url(#clipPath7)"><tspan
         style="font-variant:normal;font-weight:normal;font-size:17px;font-family:Helvetica;writing-mode:lr-tb;fill:#000000;fill-opacity:1;fill-rule:nonzero;stroke:none"
         x="0 9.4545898 15.115723 24.570312 34.024902 42.524902"
         y="0"
         sodipodi:role="line"
         id="tspan6">branch</tspan></text>
    <path
       id="path8"
       d="m 411,41 h 380 v 90 H 411 Z"
       style="fill:#ffffff;fill-opacity:1;fill-rule:nonzero;stroke:#000000;stroke-width:1;stroke-linecap:butt;stroke-linejoin:miter;stroke-miterlimit:10;stroke-dasharray:none;stroke-opacity:1"
       transform="scale(0.95885801)"
       clip-path="url(#clipPath9)" />
    <text
       id="text9"
       xml:space="preserve"
       transform="matrix(0.95886761,0,0,0.95886761,403.23379,69.038468)"
       clip-path="url(#clipPath10)"><tspan
         style="font-variant:normal;font-weight:normal;font-size:17px;font-family:Helvetica;writing-mode:lr-tb;fill:#000000;fill-opacity:1;fill-rule:nonzero;stroke:none"
         x="0 11.338867 20.793457 26.45459 34.95459 44.40918 50.070312 54.793457 59.516602 68.971191 78.425781 83.148926 87.87207 93.533203 102.98779 112.44238 120.94238 125.66553 135.12012 144.57471 149.29785 158.75244 172.91357 182.36816 187.09131 190.86816 199.36816 204.09131 212.59131 222.0459 231.50049 240.00049 248.50049 257.00049 261.72363 267.38477 272.10791 281.5625 290.0625 294.78564 303.28564 308.94678 313.66992 323.12451 332.5791 337.30225 342.02539 351.47998"
         y="0"
         sodipodi:role="line"
         id="tspan9">Server that runs automatic checks (tests) on the</tspan></text>
    <text
       id="text10"
       xml:space="preserve"
       transform="matrix(0.95886761,0,0,0.95886761,402.52963,88.21582)"
       clip-path="url(#clipPath11)"><tspan
         style="font-variant:normal;font-weight:normal;font-size:17px;font-family:Helvetica;writing-mode:lr-tb;fill:#000000;fill-opacity:1;fill-rule:nonzero;stroke:none"
         x="0 8.5 17.95459 27.40918 36.86377 46.318359 55.772949 64.272949 73.727539 78.450684 83.173828 92.628418 97.351562 106.80615 116.26074 124.76074 134.21533 139.87646 149.33105 154.0542 158.77734 168.23193 177.68652 182.40967 190.90967 200.36426 209.81885 219.27344 228.72803 238.18262 246.68262 251.40576 260.86035 270.31494 278.81494 288.26953 297.72412 300.96973 305.69287 310.41602 319.87061 325.53174 334.98633 343.48633 352.94092"
         y="0"
         sodipodi:role="line"
         id="tspan10">codebase to ensure the changes haven't broken</tspan></text>
    <text
       id="text11"
       xml:space="preserve"
       transform="matrix(0.95886761,0,0,0.95886761,545.46083,108.35204)"
       clip-path="url(#clipPath12)"><tspan
         style="font-variant:normal;font-weight:normal;font-size:17px;font-family:Helvetica;writing-mode:lr-tb;fill:#000000;fill-opacity:1;fill-rule:nonzero;stroke:none"
         x="0 9.4545898 18.90918 27.40918 32.132324 41.586914 45.36377 54.818359"
         y="0"
         sodipodi:role="line"
         id="tspan11">anything</tspan></text>
    <text
       id="text12"
       xml:space="preserve"
       transform="matrix(0.95886761,0,0,0.95886761,457.11017,23.97169)"
       clip-path="url(#clipPath13)"><tspan
         style="font-variant:normal;font-weight:700;font-size:26px;font-family:Helvetica;writing-mode:lr-tb;fill:#000000;fill-opacity:1;fill-rule:nonzero;stroke:none"
         x="0 24.540039 40.421875 54.881836 63.540039 70.763672 77.987305 92.447266 99.670898 114.13086 121.35449 140.13086 147.35449 154.57812 169.03809 183.49805 193.61621 208.07617 222.53613 232.6543"
         y="0"
         sodipodi:role="line"
         id="tspan12">What is a CI server?</tspan></text>
    <text
       id="text13"
       xml:space="preserve"
       transform="matrix(0.95886761,0,0,0.95886761,220.73432,225.33389)"
       clip-path="url(#clipPath14)"><tspan
         style="font-variant:normal;font-weight:700;font-size:26px;font-family:Helvetica;writing-mode:lr-tb;fill:#000000;fill-opacity:1;fill-rule:nonzero;stroke:none"
         x="0 18.776367 26 33.223633 48.407227 55.630859 74.407227 90.289062 106.1709 114.8291 122.05273 137.93457 153.81641 169.69824 185.58008 200.04004 207.26367 214.4873 230.36914 239.02734 253.4873 269.36914 279.4873 293.94727 302.60547 309.8291 325.71094"
         y="0"
         sodipodi:role="line"
         id="tspan13">CI = Continuous Integration</tspan></text>
  </g>
</svg>
