<?xml version="1.0" encoding="UTF-8" standalone="no"?>
<!-- Created with Inkscape (http://www.inkscape.org/) -->

<svg
   version="1.1"
   id="svg1"
   width="346.55997"
   height="401.28"
   viewBox="0 0 346.55997 401.28"
   sodipodi:docname="node-3.pdf"
   xmlns:inkscape="http://www.inkscape.org/namespaces/inkscape"
   xmlns:sodipodi="http://sodipodi.sourceforge.net/DTD/sodipodi-0.dtd"
   xmlns="http://www.w3.org/2000/svg"
   xmlns:svg="http://www.w3.org/2000/svg">
  <defs
     id="defs1">
    <clipPath
       clipPathUnits="userSpaceOnUse"
       id="clipPath2">
      <path
         d="M 0,0 H 1083.3333 V 1251.385 H 0 Z"
         transform="scale(0.33323079)"
         clip-rule="evenodd"
         id="path2" />
    </clipPath>
    <clipPath
       clipPathUnits="userSpaceOnUse"
       id="clipPath4">
      <path
         d="M 0,0 H 1083.3333 V 1248.384 H 0 Z"
         transform="scale(0.33323079)"
         clip-rule="evenodd"
         id="path4" />
    </clipPath>
    <clipPath
       clipPathUnits="userSpaceOnUse"
       id="clipPath5">
      <path
         d="M 0,0 H 1083.3333 V 1248.384 H 0 Z"
         transform="matrix(0.33322746,0,0,0.33322746,-96.03125,-60)"
         clip-rule="evenodd"
         id="path5" />
    </clipPath>
    <clipPath
       clipPathUnits="userSpaceOnUse"
       id="clipPath7">
      <path
         d="M 0,0 H 1083.3333 V 1248.384 H 0 Z"
         transform="matrix(0.33323079,0,0,0.33323079,-0.5,-0.5)"
         clip-rule="evenodd"
         id="path7" />
    </clipPath>
    <clipPath
       clipPathUnits="userSpaceOnUse"
       id="clipPath9">
      <path
         d="M 0,0 H 1083.3333 V 1248.384 H 0 Z"
         transform="matrix(0.33323079,0,0,0.33323079,-0.5,-0.5)"
         clip-rule="evenodd"
         id="path9" />
    </clipPath>
    <clipPath
       clipPathUnits="userSpaceOnUse"
       id="clipPath11">
      <path
         d="M 0,0 H 1083.3333 V 1248.384 H 0 Z"
         transform="scale(0.33323079)"
         clip-rule="evenodd"
         id="path11" />
    </clipPath>
    <clipPath
       clipPathUnits="userSpaceOnUse"
       id="clipPath12">
      <path
         d="M 0,0 H 1083.3333 V 1248.384 H 0 Z"
         transform="matrix(0.33322746,0,0,0.33322746,-83.593751,-120)"
         clip-rule="evenodd"
         id="path12" />
    </clipPath>
    <clipPath
       clipPathUnits="userSpaceOnUse"
       id="clipPath13">
      <path
         d="M 0,0 H 1083.3333 V 1248.384 H 0 Z"
         transform="matrix(0.33322746,0,0,0.33322746,-149.84375,-140)"
         clip-rule="evenodd"
         id="path13" />
    </clipPath>
    <clipPath
       clipPathUnits="userSpaceOnUse"
       id="clipPath14">
      <path
         d="M 0,0 H 1083.3333 V 1248.384 H 0 Z"
         transform="matrix(0.33322746,0,0,0.33322746,-184.54688,-19)"
         clip-rule="evenodd"
         id="path14" />
    </clipPath>
    <clipPath
       clipPathUnits="userSpaceOnUse"
       id="clipPath15">
      <path
         d="M 0,0 H 1083.3333 V 1248.384 H 0 Z"
         transform="matrix(0.33322746,0,0,0.33322746,-2.515625,-40)"
         clip-rule="evenodd"
         id="path15" />
    </clipPath>
    <clipPath
       clipPathUnits="userSpaceOnUse"
       id="clipPath17">
      <path
         d="M 0,0 H 1083.3333 V 1248.384 H 0 Z"
         transform="scale(0.33323079)"
         clip-rule="evenodd"
         id="path17" />
    </clipPath>
    <clipPath
       clipPathUnits="userSpaceOnUse"
       id="clipPath18">
      <path
         d="M 0,0 H 1083.3333 V 1248.384 H 0 Z"
         transform="matrix(0.33322746,0,0,0.33322746,-88.046875,-190)"
         clip-rule="evenodd"
         id="path18" />
    </clipPath>
    <clipPath
       clipPathUnits="userSpaceOnUse"
       id="clipPath19">
      <path
         d="M 0,0 H 1083.3333 V 1248.384 H 0 Z"
         transform="matrix(0.33322746,0,0,0.33322746,-135.17188,-210)"
         clip-rule="evenodd"
         id="path19" />
    </clipPath>
    <clipPath
       clipPathUnits="userSpaceOnUse"
       id="clipPath21">
      <path
         d="M 0,0 H 1083.3333 V 1248.384 H 0 Z"
         transform="scale(0.33323079)"
         clip-rule="evenodd"
         id="path21" />
    </clipPath>
    <clipPath
       clipPathUnits="userSpaceOnUse"
       id="clipPath22">
      <path
         d="M 0,0 H 1083.3333 V 1248.384 H 0 Z"
         transform="matrix(0.33322746,0,0,0.33322746,-132.07812,-270.00001)"
         clip-rule="evenodd"
         id="path22" />
    </clipPath>
    <clipPath
       clipPathUnits="userSpaceOnUse"
       id="clipPath24">
      <path
         d="M 0,0 H 1083.3333 V 1248.384 H 0 Z"
         transform="scale(0.33323079)"
         clip-rule="evenodd"
         id="path24" />
    </clipPath>
    <clipPath
       clipPathUnits="userSpaceOnUse"
       id="clipPath25">
      <path
         d="M 0,0 H 1083.3333 V 1248.384 H 0 Z"
         transform="matrix(0.33322746,0,0,0.33322746,-78.734376,-321)"
         clip-rule="evenodd"
         id="path25" />
    </clipPath>
    <clipPath
       clipPathUnits="userSpaceOnUse"
       id="clipPath26">
      <path
         d="M 0,0 H 1083.3333 V 1248.384 H 0 Z"
         transform="matrix(0.33322746,0,0,0.33322746,-84.515625,-340)"
         clip-rule="evenodd"
         id="path26" />
    </clipPath>
    <clipPath
       clipPathUnits="userSpaceOnUse"
       id="clipPath27">
      <path
         d="M 0,0 H 1083.3333 V 1248.384 H 0 Z"
         transform="matrix(0.33322746,0,0,0.33322746,-183.64063,-359)"
         clip-rule="evenodd"
         id="path27" />
    </clipPath>
    <clipPath
       clipPathUnits="userSpaceOnUse"
       id="clipPath28">
      <path
         d="M 0,0 H 1083.3333 V 1248.384 H 0 Z"
         transform="matrix(0.33322746,0,0,0.33322746,-83.28125,-390)"
         clip-rule="evenodd"
         id="path28" />
    </clipPath>
    <clipPath
       clipPathUnits="userSpaceOnUse"
       id="clipPath29">
      <path
         d="M 0,0 H 1083.3333 V 1248.384 H 0 Z"
         transform="matrix(0.33322746,0,0,0.33322746,-102.70313,-410)"
         clip-rule="evenodd"
         id="path29" />
    </clipPath>
  </defs>
  <sodipodi:namedview
     id="namedview1"
     pagecolor="#ffffff"
     bordercolor="#000000"
     borderopacity="0.25"
     inkscape:showpageshadow="2"
     inkscape:pageopacity="0.0"
     inkscape:pagecheckerboard="0"
     inkscape:deskcolor="#d1d1d1">
    <inkscape:page
       x="0"
       y="0"
       inkscape:label="1"
       id="page1"
       width="346.55997"
       height="401.28"
       margin="0"
       bleed="0" />
  </sodipodi:namedview>
  <g
     id="g1"
     inkscape:groupmode="layer"
     inkscape:label="1">
    <path
       id="path1"
       d="M 0,0 H 361 V 417 H 0 Z"
       style="fill:#ffffff;fill-opacity:1;fill-rule:nonzero;stroke:none"
       transform="scale(0.96029538)"
       clip-path="url(#clipPath2)" />
    <path
       id="path3"
       d="M 68,25 H 358 V 85 H 68 Z"
       style="fill:#ffffff;fill-opacity:1;fill-rule:nonzero;stroke:#000000;stroke-width:1;stroke-linecap:butt;stroke-linejoin:miter;stroke-miterlimit:10;stroke-dasharray:none;stroke-opacity:1"
       transform="scale(0.96029538)"
       clip-path="url(#clipPath4)" />
    <text
       id="text4"
       xml:space="preserve"
       transform="matrix(0.96030498,0,0,0.96030498,92.219288,57.618299)"
       clip-path="url(#clipPath5)"><tspan
         style="font-variant:normal;font-weight:normal;font-size:16px;font-family:Helvetica;writing-mode:lr-tb;fill:#000000;fill-opacity:1;fill-rule:nonzero;stroke:none"
         x="0 11.554688 20.453125 28.453125 37.351562 40.90625 49.804688 58.703125 67.601562 72.929688 77.375 86.273438 95.171875 103.17188 112.07031 120.96875 128.96875 133.41406 141.41406 150.3125 159.21094 168.10938 172.55469 177 185.89844 190.34375 199.24219 202.79688 207.24219 216.14062 225.03906"
         y="0"
         sodipodi:role="line"
         id="tspan4">Developer pushes code to github</tspan></text>
    <path
       id="path6"
       d="M 48,25 V 364.89999"
       style="fill:none;stroke:#000000;stroke-width:1;stroke-linecap:butt;stroke-linejoin:miter;stroke-miterlimit:10;stroke-dasharray:none;stroke-opacity:1"
       transform="matrix(0.96029538,0,0,0.96029538,0.48014769,0.48014769)"
       clip-path="url(#clipPath7)" />
    <path
       id="path8"
       d="m 48,371.64999 -4.5,-9 4.5,2.25 4.5,-2.25 z"
       style="fill:#000000;fill-opacity:1;fill-rule:nonzero;stroke:#000000;stroke-width:1;stroke-linecap:butt;stroke-linejoin:miter;stroke-miterlimit:10;stroke-dasharray:none;stroke-opacity:1"
       transform="matrix(0.96029538,0,0,0.96029538,0.48014769,0.48014769)"
       clip-path="url(#clipPath9)" />
    <path
       id="path10"
       d="m 68,95 h 290 v 60 H 68 Z"
       style="fill:#ffffff;fill-opacity:1;fill-rule:nonzero;stroke:#000000;stroke-width:1;stroke-linecap:butt;stroke-linejoin:miter;stroke-miterlimit:10;stroke-dasharray:none;stroke-opacity:1"
       transform="scale(0.96029538)"
       clip-path="url(#clipPath11)" />
    <text
       id="text11"
       xml:space="preserve"
       transform="matrix(0.96030498,0,0,0.96030498,80.275495,115.2366)"
       clip-path="url(#clipPath12)"><tspan
         style="font-variant:normal;font-weight:normal;font-size:16px;font-family:Helvetica;writing-mode:lr-tb;fill:#000000;fill-opacity:1;fill-rule:nonzero;stroke:none"
         x="0 11.554688 16 20.445312 31.117188 40.015625 45.34375 53.34375 62.242188 67.570312 72.015625 80.914062 89.8125 94.257812 103.15625 111.15625 115.60156 123.60156 128.04688 132.49219 141.39062 150.28906 154.73438 159.17969 168.07812 172.52344 181.42188 190.32031 201.875 206.32031 215.21875 224.11719 232.11719 241.01562 245.46094 254.35938"
         y="0"
         sodipodi:role="line"
         id="tspan11">CI Server detects that a new push of</tspan></text>
    <text
       id="text12"
       xml:space="preserve"
       transform="matrix(0.96030498,0,0,0.96030498,143.8957,134.4427)"
       clip-path="url(#clipPath13)"><tspan
         style="font-variant:normal;font-weight:normal;font-size:16px;font-family:Helvetica;writing-mode:lr-tb;fill:#000000;fill-opacity:1;fill-rule:nonzero;stroke:none"
         x="0 8 16.898438 25.796875 34.695312 39.140625 48.039062 56.9375 64.9375 69.382812 78.28125 86.28125 94.28125 103.17969 108.50781 117.40625"
         y="0"
         sodipodi:role="line"
         id="tspan12">code has occured</tspan></text>
    <text
       id="text13"
       xml:space="preserve"
       transform="matrix(0.96030498,0,0,0.96030498,177.22129,18.245795)"
       clip-path="url(#clipPath14)"><tspan
         style="font-variant:normal;font-weight:700;font-size:16px;font-family:Helvetica;writing-mode:lr-tb;fill:#000000;fill-opacity:1;fill-rule:nonzero;stroke:none"
         x="0 11.554688 16 20.445312 30.21875 34.664062 44.4375"
         y="0"
         sodipodi:role="line"
         id="tspan13">CI Flow</tspan></text>
    <text
       id="text14"
       xml:space="preserve"
       transform="matrix(0.96030498,0,0,0.96030498,2.4157672,38.412199)"
       clip-path="url(#clipPath15)"><tspan
         style="font-variant:normal;font-weight:normal;font-size:16px;font-family:Helvetica;writing-mode:lr-tb;fill:#000000;fill-opacity:1;fill-rule:nonzero;stroke:none"
         x="0 9.1875 12.742188 26.070312"
         y="0"
         sodipodi:role="line"
         id="tspan14">Time</tspan></text>
    <path
       id="path16"
       d="m 68,165 h 290 v 60 H 68 Z"
       style="fill:#ffffff;fill-opacity:1;fill-rule:nonzero;stroke:#000000;stroke-width:1;stroke-linecap:butt;stroke-linejoin:miter;stroke-miterlimit:10;stroke-dasharray:none;stroke-opacity:1"
       transform="scale(0.96029538)"
       clip-path="url(#clipPath17)" />
    <text
       id="text17"
       xml:space="preserve"
       transform="matrix(0.96030498,0,0,0.96030498,84.551853,182.45795)"
       clip-path="url(#clipPath18)"><tspan
         style="font-variant:normal;font-weight:normal;font-size:16px;font-family:Helvetica;writing-mode:lr-tb;fill:#000000;fill-opacity:1;fill-rule:nonzero;stroke:none"
         x="0 11.554688 16 20.445312 31.117188 40.015625 45.34375 53.34375 62.242188 67.570312 72.015625 80.015625 83.570312 92.46875 101.36719 110.26562 118.26562 122.71094 131.60938 136.9375 145.83594 149.39062 158.28906 166.28906 170.73438 175.17969 179.625 188.52344 192.96875 201.86719 206.3125 214.3125 217.86719 226.76562 235.66406 244.5625"
         y="0"
         sodipodi:role="line"
         id="tspan17">CI Server clones project to a cloud-</tspan></text>
    <text
       id="text18"
       xml:space="preserve"
       transform="matrix(0.96030498,0,0,0.96030498,129.80623,201.66405)"
       clip-path="url(#clipPath19)"><tspan
         style="font-variant:normal;font-weight:normal;font-size:16px;font-family:Helvetica;writing-mode:lr-tb;fill:#000000;fill-opacity:1;fill-rule:nonzero;stroke:none"
         x="0 8.8984375 17.796875 25.796875 34.695312 43.59375 48.039062 56.039062 59.59375 64.921875 69.367188 78.265625 87.164062 90.71875 95.164062 108.49219 117.39062 125.39062 134.28906 137.84375 146.74219"
         y="0"
         sodipodi:role="line"
         id="tspan18">based virtual machine</tspan></text>
    <path
       id="path20"
       d="m 68,235 h 290 v 60 H 68 Z"
       style="fill:#ffffff;fill-opacity:1;fill-rule:nonzero;stroke:#000000;stroke-width:1;stroke-linecap:butt;stroke-linejoin:miter;stroke-miterlimit:10;stroke-dasharray:none;stroke-opacity:1"
       transform="scale(0.96029538)"
       clip-path="url(#clipPath21)" />
    <text
       id="text21"
       xml:space="preserve"
       transform="matrix(0.96030498,0,0,0.96030498,126.83528,259.28235)"
       clip-path="url(#clipPath22)"><tspan
         style="font-variant:normal;font-weight:normal;font-size:16px;font-family:Helvetica;writing-mode:lr-tb;fill:#000000;fill-opacity:1;fill-rule:nonzero;stroke:none"
         x="0 11.554688 16 20.445312 31.117188 40.015625 45.34375 53.34375 62.242188 67.570312 72.015625 77.34375 86.242188 95.140625 103.14062 107.58594 116.48438 120.03906 123.59375 128.03906 132.48438 141.38281 149.38281 153.82812"
         y="0"
         sodipodi:role="line"
         id="tspan21">CI Server runs all tests</tspan></text>
    <path
       id="path23"
       d="m 68,305 h 290 v 60 H 68 Z"
       style="fill:#ffffff;fill-opacity:1;fill-rule:nonzero;stroke:#000000;stroke-width:1;stroke-linecap:butt;stroke-linejoin:miter;stroke-miterlimit:10;stroke-dasharray:none;stroke-opacity:1"
       transform="scale(0.96029538)"
       clip-path="url(#clipPath24)" />
    <text
       id="text24"
       xml:space="preserve"
       transform="matrix(0.96030498,0,0,0.96030498,75.609013,308.2579)"
       clip-path="url(#clipPath25)"><tspan
         style="font-variant:normal;font-weight:normal;font-size:16px;font-family:Helvetica;writing-mode:lr-tb;fill:#000000;fill-opacity:1;fill-rule:nonzero;stroke:none"
         x="0 4.4453125 8.890625 13.335938 22.234375 25.789062 29.34375 33.789062 38.234375 47.132812 55.132812 59.578125 67.578125 72.023438 80.921875 89.820312 97.820312 105.82031 110.26562 114.71094 126.26562 130.71094 135.15625 145.82812 154.72656 160.05469 168.05469 176.95312 182.28125 186.72656 200.05469 208.95312 214.28125 222.28125 230.28125 234.72656 243.625 252.52344 256.07812 259.63281"
         y="0"
         sodipodi:role="line"
         id="tspan24">If all tests pass, CI Server marks build</tspan></text>
    <text
       id="text25"
       xml:space="preserve"
       transform="matrix(0.96030498,0,0,0.96030498,81.160776,326.50369)"
       clip-path="url(#clipPath26)"><tspan
         style="font-variant:normal;font-weight:normal;font-size:16px;font-family:Helvetica;writing-mode:lr-tb;fill:#000000;fill-opacity:1;fill-rule:nonzero;stroke:none"
         x="0 8.8984375 16.898438 21.34375 24.398438 33.296875 42.195312 50.195312 58.195312 61.75 70.648438 79.546875 82.601562 87.046875 95.945312 104.84375 113.74219 118.1875 127.08594 135.98438 144.88281 152.88281 157.32812 165.32812 174.22656 187.55469 196.45312 200.89844 209.79688 218.69531 223.14062 226.69531 235.59375 244.49219 253.39062"
         y="0"
         sodipodi:role="line"
         id="tspan25">as 'passing' and does some optional</tspan></text>
    <text
       id="text26"
       xml:space="preserve"
       transform="matrix(0.96030498,0,0,0.96030498,176.35101,344.74949)"
       clip-path="url(#clipPath27)"><tspan
         style="font-variant:normal;font-weight:normal;font-size:16px;font-family:Helvetica;writing-mode:lr-tb;fill:#000000;fill-opacity:1;fill-rule:nonzero;stroke:none"
         x="0 4.4453125 13.34375 16.898438 20.453125 29.351562 40.90625 49.804688"
         y="0"
         sodipodi:role="line"
         id="tspan26">followup</tspan></text>
    <text
       id="text27"
       xml:space="preserve"
       transform="matrix(0.96030498,0,0,0.96030498,79.975399,374.51894)"
       clip-path="url(#clipPath28)"><tspan
         style="font-style:oblique;font-variant:normal;font-weight:normal;font-size:16px;font-family:Helvetica;writing-mode:lr-tb;fill:#000000;fill-opacity:1;fill-rule:nonzero;stroke:none"
         x="0 10.671875 19.570312 28.46875 37.367188 41.8125 50.710938 59.609375 64.054688 72.953125 86.28125 95.179688 98.734375 102.28906 106.73438 111.17969 120.07812 128.97656 133.42188 142.32031 155.64844 164.54688 168.99219 172.54688 180.54688 189.44531 193 196.55469 204.55469 209 217.89844 226.79688 235.69531 239.25 248.14844 254.96875"
         y="0"
         sodipodi:role="line"
         id="tspan27">Send an email, automatically deploy,</tspan></text>
    <g
       id="g28" />
    <text
       id="text28"
       xml:space="preserve"
       transform="matrix(0.96030498,0,0,0.96030498,98.626323,393.72504)"
       clip-path="url(#clipPath29)"><tspan
         style="font-style:oblique;font-variant:normal;font-weight:normal;font-size:16px;font-family:Helvetica;writing-mode:lr-tb;fill:#000000;fill-opacity:1;fill-rule:nonzero;stroke:none"
         x="0 8.8984375 17.796875 22.242188 26.6875 35.585938 44.484375 48.929688 52.484375 60.484375 68.484375 77.382812 81.828125 85.382812 94.28125 103.17969 107.625 116.52344 125.42188 129.86719 142.3125 145.86719 150.3125 159.21094 168.10938 177.00781 181.45312 185.89844 194.79688 199.24219 207.24219 211.6875 216.13281"
         y="0"
         sodipodi:role="line"
         id="tspan28">put notiﬁcation on Github, etc...</tspan></text>
  </g>
</svg>
