<?xml version="1.0" encoding="UTF-8" standalone="no"?>
<!-- Created with Inkscape (http://www.inkscape.org/) -->

<svg
   version="1.1"
   id="svg1"
   width="741.44"
   height="330.56"
   viewBox="0 0 741.44 330.56"
   sodipodi:docname="node-5.pdf"
   xmlns:inkscape="http://www.inkscape.org/namespaces/inkscape"
   xmlns:sodipodi="http://sodipodi.sourceforge.net/DTD/sodipodi-0.dtd"
   xmlns="http://www.w3.org/2000/svg"
   xmlns:svg="http://www.w3.org/2000/svg">
  <defs
     id="defs1">
    <clipPath
       clipPathUnits="userSpaceOnUse"
       id="clipPath2">
      <path
         d="M 0,0 H 2316.6665 V 1032.6227 H 0 Z"
         transform="scale(0.33410074)"
         clip-rule="evenodd"
         id="path2" />
    </clipPath>
    <clipPath
       clipPathUnits="userSpaceOnUse"
       id="clipPath4">
      <path
         d="M 0,0 H 2316.6665 V 1029.6295 H 0 Z"
         transform="matrix(0.33410074,0,0,0.33410074,-0.50000001,-0.50000001)"
         clip-rule="evenodd"
         id="path4" />
    </clipPath>
    <clipPath
       clipPathUnits="userSpaceOnUse"
       id="clipPath5">
      <path
         d="M 0,0 H 2316.6665 V 1029.6295 H 0 Z"
         transform="matrix(0.33409738,0,0,0.33409738,-21.671875,-167)"
         clip-rule="evenodd"
         id="path5" />
    </clipPath>
    <clipPath
       clipPathUnits="userSpaceOnUse"
       id="clipPath6">
      <path
         d="M 0,0 H 2316.6665 V 1029.6295 H 0 Z"
         transform="matrix(0.33409738,0,0,0.33409738,-25.890625,-190)"
         clip-rule="evenodd"
         id="path6" />
    </clipPath>
    <clipPath
       clipPathUnits="userSpaceOnUse"
       id="clipPath8">
      <path
         d="M 0,0 H 2316.6665 V 1029.6295 H 0 Z"
         transform="matrix(0.33410074,0,0,0.33410074,-0.50000001,-0.50000001)"
         clip-rule="evenodd"
         id="path8" />
    </clipPath>
    <clipPath
       clipPathUnits="userSpaceOnUse"
       id="clipPath9">
      <path
         d="M 0,0 H 2316.6665 V 1029.6295 H 0 Z"
         transform="matrix(0.33409738,0,0,0.33409738,-173.70313,-28)"
         clip-rule="evenodd"
         id="path9" />
    </clipPath>
    <clipPath
       clipPathUnits="userSpaceOnUse"
       id="clipPath11">
      <path
         d="M 0,0 H 2316.6665 V 1029.6295 H 0 Z"
         transform="matrix(0.33410074,0,0,0.33410074,-0.50000001,-0.50000001)"
         clip-rule="evenodd"
         id="path11" />
    </clipPath>
    <clipPath
       clipPathUnits="userSpaceOnUse"
       id="clipPath12">
      <path
         d="M 0,0 H 2316.6665 V 1029.6295 H 0 Z"
         transform="matrix(0.33409738,0,0,0.33409738,-136.73437,-67.999999)"
         clip-rule="evenodd"
         id="path12" />
    </clipPath>
    <clipPath
       clipPathUnits="userSpaceOnUse"
       id="clipPath14">
      <path
         d="M 0,0 H 2316.6665 V 1029.6295 H 0 Z"
         transform="matrix(0.33410074,0,0,0.33410074,-0.50000001,-0.50000001)"
         clip-rule="evenodd"
         id="path14" />
    </clipPath>
    <clipPath
       clipPathUnits="userSpaceOnUse"
       id="clipPath15">
      <path
         d="M 0,0 H 2316.6665 V 1029.6295 H 0 Z"
         transform="matrix(0.33409738,0,0,0.33409738,-176.34375,-108)"
         clip-rule="evenodd"
         id="path15" />
    </clipPath>
    <clipPath
       clipPathUnits="userSpaceOnUse"
       id="clipPath17">
      <path
         d="M 0,0 H 2316.6665 V 1029.6295 H 0 Z"
         transform="matrix(0.33410074,0,0,0.33410074,-0.50000001,-0.50000001)"
         clip-rule="evenodd"
         id="path17" />
    </clipPath>
    <clipPath
       clipPathUnits="userSpaceOnUse"
       id="clipPath18">
      <path
         d="M 0,0 H 2316.6665 V 1029.6295 H 0 Z"
         transform="matrix(0.33409738,0,0,0.33409738,-154.70312,-148)"
         clip-rule="evenodd"
         id="path18" />
    </clipPath>
    <clipPath
       clipPathUnits="userSpaceOnUse"
       id="clipPath20">
      <path
         d="M 0,0 H 2316.6665 V 1029.6295 H 0 Z"
         transform="matrix(0.33410074,0,0,0.33410074,-0.50000001,-0.50000001)"
         clip-rule="evenodd"
         id="path20" />
    </clipPath>
    <clipPath
       clipPathUnits="userSpaceOnUse"
       id="clipPath21">
      <path
         d="M 0,0 H 2316.6665 V 1029.6295 H 0 Z"
         transform="matrix(0.33409738,0,0,0.33409738,-172.65625,-247.99999)"
         clip-rule="evenodd"
         id="path21" />
    </clipPath>
    <clipPath
       clipPathUnits="userSpaceOnUse"
       id="clipPath23">
      <path
         d="M 0,0 H 2316.6665 V 1029.6295 H 0 Z"
         transform="matrix(0.33410074,0,0,0.33410074,-0.50000001,-0.50000001)"
         clip-rule="evenodd"
         id="path23" />
    </clipPath>
    <clipPath
       clipPathUnits="userSpaceOnUse"
       id="clipPath24">
      <path
         d="M 0,0 H 2316.6665 V 1029.6295 H 0 Z"
         transform="matrix(0.33409738,0,0,0.33409738,-163.32813,-288)"
         clip-rule="evenodd"
         id="path24" />
    </clipPath>
    <clipPath
       clipPathUnits="userSpaceOnUse"
       id="clipPath26">
      <path
         d="M 0,0 H 2316.6665 V 1029.6295 H 0 Z"
         transform="matrix(0.33410074,0,0,0.33410074,-0.50000001,-0.50000001)"
         clip-rule="evenodd"
         id="path26" />
    </clipPath>
    <clipPath
       clipPathUnits="userSpaceOnUse"
       id="clipPath27">
      <path
         d="M 0,0 H 2316.6665 V 1029.6295 H 0 Z"
         transform="matrix(0.33409738,0,0,0.33409738,-156.98438,-328)"
         clip-rule="evenodd"
         id="path27" />
    </clipPath>
    <clipPath
       clipPathUnits="userSpaceOnUse"
       id="clipPath29">
      <path
         d="M 0,0 H 2316.6665 V 1029.6295 H 0 Z"
         transform="matrix(0.33410074,0,0,0.33410074,-0.50000001,-0.50000001)"
         clip-rule="evenodd"
         id="path29" />
    </clipPath>
    <clipPath
       clipPathUnits="userSpaceOnUse"
       id="clipPath30">
      <path
         d="M 0,0 H 2316.6665 V 1029.6295 H 0 Z"
         transform="matrix(0.33409738,0,0,0.33409738,-429.79688,-28)"
         clip-rule="evenodd"
         id="path30" />
    </clipPath>
    <clipPath
       clipPathUnits="userSpaceOnUse"
       id="clipPath32">
      <path
         d="M 0,0 H 2316.6665 V 1029.6295 H 0 Z"
         transform="matrix(0.33410074,0,0,0.33410074,-0.50000001,-0.50000001)"
         clip-rule="evenodd"
         id="path32" />
    </clipPath>
    <clipPath
       clipPathUnits="userSpaceOnUse"
       id="clipPath33">
      <path
         d="M 0,0 H 2316.6665 V 1029.6295 H 0 Z"
         transform="matrix(0.33409738,0,0,0.33409738,-384.39063,-67.999999)"
         clip-rule="evenodd"
         id="path33" />
    </clipPath>
    <clipPath
       clipPathUnits="userSpaceOnUse"
       id="clipPath35">
      <path
         d="M 0,0 H 2316.6665 V 1029.6295 H 0 Z"
         transform="matrix(0.33410074,0,0,0.33410074,-0.50000001,-0.50000001)"
         clip-rule="evenodd"
         id="path35" />
    </clipPath>
    <clipPath
       clipPathUnits="userSpaceOnUse"
       id="clipPath36">
      <path
         d="M 0,0 H 2316.6665 V 1029.6295 H 0 Z"
         transform="matrix(0.33409738,0,0,0.33409738,-457.76563,-108)"
         clip-rule="evenodd"
         id="path36" />
    </clipPath>
    <clipPath
       clipPathUnits="userSpaceOnUse"
       id="clipPath38">
      <path
         d="M 0,0 H 2316.6665 V 1029.6295 H 0 Z"
         transform="matrix(0.33410074,0,0,0.33410074,-0.50000001,-0.50000001)"
         clip-rule="evenodd"
         id="path38" />
    </clipPath>
    <clipPath
       clipPathUnits="userSpaceOnUse"
       id="clipPath39">
      <path
         d="M 0,0 H 2316.6665 V 1029.6295 H 0 Z"
         transform="matrix(0.33409738,0,0,0.33409738,-471.51563,-148)"
         clip-rule="evenodd"
         id="path39" />
    </clipPath>
    <clipPath
       clipPathUnits="userSpaceOnUse"
       id="clipPath41">
      <path
         d="M 0,0 H 2316.6665 V 1029.6295 H 0 Z"
         transform="matrix(0.33410074,0,0,0.33410074,-0.50000001,-0.50000001)"
         clip-rule="evenodd"
         id="path41" />
    </clipPath>
    <clipPath
       clipPathUnits="userSpaceOnUse"
       id="clipPath42">
      <path
         d="M 0,0 H 2316.6665 V 1029.6295 H 0 Z"
         transform="matrix(0.33409738,0,0,0.33409738,-432.42188,-247.99999)"
         clip-rule="evenodd"
         id="path42" />
    </clipPath>
    <clipPath
       clipPathUnits="userSpaceOnUse"
       id="clipPath44">
      <path
         d="M 0,0 H 2316.6665 V 1029.6295 H 0 Z"
         transform="matrix(0.33410074,0,0,0.33410074,-0.50000001,-0.50000001)"
         clip-rule="evenodd"
         id="path44" />
    </clipPath>
    <clipPath
       clipPathUnits="userSpaceOnUse"
       id="clipPath45">
      <path
         d="M 0,0 H 2316.6665 V 1029.6295 H 0 Z"
         transform="matrix(0.33409738,0,0,0.33409738,-373.79688,-288)"
         clip-rule="evenodd"
         id="path45" />
    </clipPath>
    <clipPath
       clipPathUnits="userSpaceOnUse"
       id="clipPath47">
      <path
         d="M 0,0 H 2316.6665 V 1029.6295 H 0 Z"
         transform="matrix(0.33410074,0,0,0.33410074,-0.50000001,-0.50000001)"
         clip-rule="evenodd"
         id="path47" />
    </clipPath>
    <clipPath
       clipPathUnits="userSpaceOnUse"
       id="clipPath48">
      <path
         d="M 0,0 H 2316.6665 V 1029.6295 H 0 Z"
         transform="matrix(0.33409738,0,0,0.33409738,-478.89063,-328)"
         clip-rule="evenodd"
         id="path48" />
    </clipPath>
  </defs>
  <sodipodi:namedview
     id="namedview1"
     pagecolor="#ffffff"
     bordercolor="#000000"
     borderopacity="0.25"
     inkscape:showpageshadow="2"
     inkscape:pageopacity="0.0"
     inkscape:pagecheckerboard="0"
     inkscape:deskcolor="#d1d1d1">
    <inkscape:page
       x="0"
       y="0"
       inkscape:label="1"
       id="page1"
       width="741.44"
       height="330.56"
       margin="0"
       bleed="0" />
  </sodipodi:namedview>
  <g
     id="g1"
     inkscape:groupmode="layer"
     inkscape:label="1">
    <path
       id="path1"
       d="M 0,0 H 774 V 345 H 0 Z"
       style="fill:#ffffff;fill-opacity:1;fill-rule:nonzero;stroke:none"
       transform="scale(0.9577949)"
       clip-path="url(#clipPath2)" />
    <path
       id="path3"
       d="M 1,1 H 111 V 341 H 1 Z"
       style="fill:#d5e8d4;fill-opacity:1;fill-rule:nonzero;stroke:#82b366;stroke-width:1;stroke-linecap:butt;stroke-linejoin:miter;stroke-miterlimit:10;stroke-dasharray:none;stroke-opacity:1"
       transform="matrix(0.9577949,0,0,0.9577949,0.47889746,0.47889746)"
       clip-path="url(#clipPath4)" />
    <text
       id="text4"
       xml:space="preserve"
       transform="matrix(0.95780454,0,0,0.95780454,20.75742,159.95336)"
       clip-path="url(#clipPath5)"><tspan
         style="font-variant:normal;font-weight:normal;font-size:19px;font-family:Helvetica;writing-mode:lr-tb;fill:#000000;fill-opacity:1;fill-rule:nonzero;stroke:none"
         x="0 12.672852 22.172852 32.739746 39.066895 49.633789 59.133789"
         y="0"
         sodipodi:role="line"
         id="tspan4">Express</tspan></text>
    <text
       id="text5"
       xml:space="preserve"
       transform="matrix(0.95780454,0,0,0.95780454,24.798158,181.98286)"
       clip-path="url(#clipPath6)"><tspan
         style="font-variant:normal;font-weight:normal;font-size:19px;font-family:Helvetica;writing-mode:lr-tb;fill:#000000;fill-opacity:1;fill-rule:nonzero;stroke:none"
         x="0 13.721191 24.288086 34.85498 40.133789 50.700684"
         y="0"
         sodipodi:role="line"
         id="tspan5">Routes</tspan></text>
    <path
       id="path7"
       d="M 111,1 H 341 V 41 H 111 Z"
       style="fill:#dae8fc;fill-opacity:1;fill-rule:nonzero;stroke:#6c8ebf;stroke-width:1;stroke-linecap:butt;stroke-linejoin:miter;stroke-miterlimit:10;stroke-dasharray:none;stroke-opacity:1"
       transform="matrix(0.9577949,0,0,0.9577949,0.47889746,0.47889746)"
       clip-path="url(#clipPath8)" />
    <text
       id="text8"
       xml:space="preserve"
       transform="matrix(0.95780454,0,0,0.95780454,166.37365,26.818527)"
       clip-path="url(#clipPath9)"><tspan
         style="font-variant:normal;font-weight:normal;font-size:19px;font-family:Helvetica;writing-mode:lr-tb;fill:#000000;fill-opacity:1;fill-rule:nonzero;stroke:none"
         x="0 5.2788086 15.845703 26.412598 31.691406 42.258301 47.537109 58.104004 68.670898 79.237793 89.804688 94.025879"
         y="0"
         sodipodi:role="line"
         id="tspan8">/auth/google</tspan></text>
    <path
       id="path10"
       d="M 111,41 H 341 V 81 H 111 Z"
       style="fill:#dae8fc;fill-opacity:1;fill-rule:nonzero;stroke:#6c8ebf;stroke-width:1;stroke-linecap:butt;stroke-linejoin:miter;stroke-miterlimit:10;stroke-dasharray:none;stroke-opacity:1"
       transform="matrix(0.9577949,0,0,0.9577949,0.47889746,0.47889746)"
       clip-path="url(#clipPath11)" />
    <text
       id="text11"
       xml:space="preserve"
       transform="matrix(0.95780454,0,0,0.95780454,130.9648,65.130708)"
       clip-path="url(#clipPath12)"><tspan
         style="font-variant:normal;font-weight:normal;font-size:19px;font-family:Helvetica;writing-mode:lr-tb;fill:#000000;fill-opacity:1;fill-rule:nonzero;stroke:none"
         x="0 5.2788086 15.845703 26.412598 31.691406 42.258301 47.537109 58.104004 68.670898 79.237793 89.804688 94.025879 104.59277 109.87158 119.37158 129.93848 134.15967 138.38086 148.94775 159.51465 169.01465"
         y="0"
         sodipodi:role="line"
         id="tspan11">/auth/google/callback</tspan></text>
    <path
       id="path13"
       d="m 111,81 h 230 v 40 H 111 Z"
       style="fill:#dae8fc;fill-opacity:1;fill-rule:nonzero;stroke:#6c8ebf;stroke-width:1;stroke-linecap:butt;stroke-linejoin:miter;stroke-miterlimit:10;stroke-dasharray:none;stroke-opacity:1"
       transform="matrix(0.9577949,0,0,0.9577949,0.47889746,0.47889746)"
       clip-path="url(#clipPath14)" />
    <text
       id="text14"
       xml:space="preserve"
       transform="matrix(0.95780454,0,0,0.95780454,168.90284,103.44289)"
       clip-path="url(#clipPath15)"><tspan
         style="font-variant:normal;font-weight:normal;font-size:19px;font-family:Helvetica;writing-mode:lr-tb;fill:#000000;fill-opacity:1;fill-rule:nonzero;stroke:none"
         x="0 5.2788086 15.845703 26.412598 31.691406 42.258301 47.537109 51.758301 62.325195 72.89209 83.458984 94.025879"
         y="0"
         sodipodi:role="line"
         id="tspan14">/auth/logout</tspan></text>
    <path
       id="path16"
       d="m 111,121 h 230 v 40 H 111 Z"
       style="fill:#dae8fc;fill-opacity:1;fill-rule:nonzero;stroke:#6c8ebf;stroke-width:1;stroke-linecap:butt;stroke-linejoin:miter;stroke-miterlimit:10;stroke-dasharray:none;stroke-opacity:1"
       transform="matrix(0.9577949,0,0,0.9577949,0.47889746,0.47889746)"
       clip-path="url(#clipPath17)" />
    <text
       id="text17"
       xml:space="preserve"
       transform="matrix(0.95780454,0,0,0.95780454,148.17535,141.75507)"
       clip-path="url(#clipPath18)"><tspan
         style="font-variant:normal;font-weight:normal;font-size:19px;font-family:Helvetica;writing-mode:lr-tb;fill:#000000;fill-opacity:1;fill-rule:nonzero;stroke:none"
         x="0 5.2788086 15.845703 26.412598 30.633789 35.912598 45.412598 55.979492 62.306641 68.633789 79.200684 89.767578 95.046387 105.61328 116.18018 125.68018 136.24707"
         y="0"
         sodipodi:role="line"
         id="tspan17">/api/current_user</tspan></text>
    <path
       id="path19"
       d="m 111,221 h 230 v 40 H 111 Z"
       style="fill:#dae8fc;fill-opacity:1;fill-rule:nonzero;stroke:#6c8ebf;stroke-width:1;stroke-linecap:butt;stroke-linejoin:miter;stroke-miterlimit:10;stroke-dasharray:none;stroke-opacity:1"
       transform="matrix(0.9577949,0,0,0.9577949,0.47889746,0.47889746)"
       clip-path="url(#clipPath20)" />
    <text
       id="text20"
       xml:space="preserve"
       transform="matrix(0.95780454,0,0,0.95780454,165.37094,237.53552)"
       clip-path="url(#clipPath21)"><tspan
         style="font-variant:normal;font-weight:normal;font-size:19px;font-family:Helvetica;writing-mode:lr-tb;fill:#000000;fill-opacity:1;fill-rule:nonzero;stroke:none"
         x="0 5.2788086 15.845703 26.412598 30.633789 35.912598 46.479492 50.700684 61.267578 71.834473 81.334473 86.613281 91.89209 96.113281"
         y="0"
         sodipodi:role="line"
         id="tspan20">/api/blogs/:id</tspan></text>
    <path
       id="path22"
       d="m 111,261 h 230 v 40 H 111 Z"
       style="fill:#dae8fc;fill-opacity:1;fill-rule:nonzero;stroke:#6c8ebf;stroke-width:1;stroke-linecap:butt;stroke-linejoin:miter;stroke-miterlimit:10;stroke-dasharray:none;stroke-opacity:1"
       transform="matrix(0.9577949,0,0,0.9577949,0.47889746,0.47889746)"
       clip-path="url(#clipPath23)" />
    <text
       id="text23"
       xml:space="preserve"
       transform="matrix(0.95780454,0,0,0.95780454,156.43642,275.84771)"
       clip-path="url(#clipPath24)"><tspan
         style="font-variant:normal;font-weight:normal;font-size:19px;font-family:Helvetica;writing-mode:lr-tb;fill:#000000;fill-opacity:1;fill-rule:nonzero;stroke:none"
         x="0 14.778809 27.45166 38.723633 44.002441 49.28125 59.848145 70.415039 74.63623 79.915039 90.481934 94.703125 105.27002 115.83691"
         y="0"
         sodipodi:role="line"
         id="tspan23">GET /api/blogs</tspan></text>
    <path
       id="path25"
       d="m 111,301 h 230 v 40 H 111 Z"
       style="fill:#dae8fc;fill-opacity:1;fill-rule:nonzero;stroke:#6c8ebf;stroke-width:1;stroke-linecap:butt;stroke-linejoin:miter;stroke-miterlimit:10;stroke-dasharray:none;stroke-opacity:1"
       transform="matrix(0.9577949,0,0,0.9577949,0.47889746,0.47889746)"
       clip-path="url(#clipPath26)" />
    <text
       id="text26"
       xml:space="preserve"
       transform="matrix(0.95780454,0,0,0.95780454,150.36035,314.15989)"
       clip-path="url(#clipPath27)"><tspan
         style="font-variant:normal;font-weight:normal;font-size:19px;font-family:Helvetica;writing-mode:lr-tb;fill:#000000;fill-opacity:1;fill-rule:nonzero;stroke:none"
         x="0 12.672852 27.45166 40.124512 51.396484 56.675293 61.954102 72.520996 83.087891 87.309082 92.587891 103.15479 107.37598 117.94287 128.50977"
         y="0"
         sodipodi:role="line"
         id="tspan26">POST /api/blogs</tspan></text>
    <path
       id="path28"
       d="M 341,1 H 771 V 41 H 341 Z"
       style="fill:#ffffff;fill-opacity:1;fill-rule:nonzero;stroke:#000000;stroke-width:1;stroke-linecap:butt;stroke-linejoin:miter;stroke-miterlimit:10;stroke-dasharray:none;stroke-opacity:1"
       transform="matrix(0.9577949,0,0,0.9577949,0.47889746,0.47889746)"
       clip-path="url(#clipPath29)" />
    <g
       id="g29" />
    <text
       id="text29"
       xml:space="preserve"
       transform="matrix(0.95780454,0,0,0.95780454,411.6614,26.818527)"
       clip-path="url(#clipPath30)"><tspan
         style="font-variant:normal;font-weight:normal;font-size:19px;font-family:Helvetica;writing-mode:lr-tb;fill:#000000;fill-opacity:1;fill-rule:nonzero;stroke:none"
         x="0 12.672852 17.95166 28.518555 34.845703 40.124512 45.40332 60.182129 72.85498 83.421875 88.700684 99.267578 104.54639 114.04639 124.61328 138.33447 143.61328 148.89209 159.45898 164.73779 168.95898 179.52588 190.09277 195.37158 205.93848 215.43848 226.00537 232.33252 237.61133 241.83252"
         y="0"
         sodipodi:role="line"
         id="tspan29">Start OAuth ﬂow to log user in</tspan></text>
    <path
       id="path31"
       d="M 341,41 H 771 V 81 H 341 Z"
       style="fill:#ffffff;fill-opacity:1;fill-rule:nonzero;stroke:#000000;stroke-width:1;stroke-linecap:butt;stroke-linejoin:miter;stroke-miterlimit:10;stroke-dasharray:none;stroke-opacity:1"
       transform="matrix(0.9577949,0,0,0.9577949,0.47889746,0.47889746)"
       clip-path="url(#clipPath32)" />
    <g
       id="g32" />
    <text
       id="text32"
       xml:space="preserve"
       transform="matrix(0.95780454,0,0,0.95780454,368.17109,65.130708)"
       clip-path="url(#clipPath33)"><tspan
         style="font-variant:normal;font-weight:normal;font-size:19px;font-family:Helvetica;writing-mode:lr-tb;fill:#000000;fill-opacity:1;fill-rule:nonzero;stroke:none"
         x="0 17.933105 28.5 39.066895 45.394043 55.960938 61.239746 71.806641 81.306641 91.873535 98.200684 107.70068 112.97949 123.54639 134.11328 139.39209 144.6709 154.1709 164.73779 175.30469 180.5835 185.8623 191.14111 201.70801 206.98682 217.55371 222.83252 228.11133 238.67822 245.00537 250.28418 265.06299 277.73584 288.30273 293.58154 304.14844 309.42725 318.92725 329.49414"
         y="0"
         sodipodi:role="line"
         id="tspan32">Where users get sent to after OAuth ﬂow</tspan></text>
    <path
       id="path34"
       d="m 341,81 h 430 v 40 H 341 Z"
       style="fill:#ffffff;fill-opacity:1;fill-rule:nonzero;stroke:#000000;stroke-width:1;stroke-linecap:butt;stroke-linejoin:miter;stroke-miterlimit:10;stroke-dasharray:none;stroke-opacity:1"
       transform="matrix(0.9577949,0,0,0.9577949,0.47889746,0.47889746)"
       clip-path="url(#clipPath35)" />
    <text
       id="text35"
       xml:space="preserve"
       transform="matrix(0.95780454,0,0,0.95780454,438.45,103.44289)"
       clip-path="url(#clipPath36)"><tspan
         style="font-variant:normal;font-weight:normal;font-size:19px;font-family:Helvetica;writing-mode:lr-tb;fill:#000000;fill-opacity:1;fill-rule:nonzero;stroke:none"
         x="0 10.566895 21.133789 31.700684 42.267578 52.834473 58.113281 63.39209 68.670898 79.237793 89.804688 95.083496 104.5835 115.15039 121.47754 127.80469 138.37158 148.93848 154.21729 159.49609 170.06299 179.56299 190.12988"
         y="0"
         sodipodi:role="line"
         id="tspan35">Logout the current user</tspan></text>
    <path
       id="path37"
       d="m 341,121 h 430 v 40 H 341 Z"
       style="fill:#ffffff;fill-opacity:1;fill-rule:nonzero;stroke:#000000;stroke-width:1;stroke-linecap:butt;stroke-linejoin:miter;stroke-miterlimit:10;stroke-dasharray:none;stroke-opacity:1"
       transform="matrix(0.9577949,0,0,0.9577949,0.47889746,0.47889746)"
       clip-path="url(#clipPath38)" />
    <text
       id="text38"
       xml:space="preserve"
       transform="matrix(0.95780454,0,0,0.95780454,451.61981,141.75507)"
       clip-path="url(#clipPath39)"><tspan
         style="font-variant:normal;font-weight:normal;font-size:19px;font-family:Helvetica;writing-mode:lr-tb;fill:#000000;fill-opacity:1;fill-rule:nonzero;stroke:none"
         x="0 14.778809 25.345703 30.624512 35.90332 41.182129 51.749023 62.315918 67.594727 77.094727 87.661621 93.98877 100.31592 110.88281 121.44971 126.72852 132.00732 142.57422 152.07422 162.64111"
         y="0"
         sodipodi:role="line"
         id="tspan38">Get the current user</tspan></text>
    <path
       id="path40"
       d="m 341,221 h 430 v 40 H 341 Z"
       style="fill:#ffffff;fill-opacity:1;fill-rule:nonzero;stroke:#000000;stroke-width:1;stroke-linecap:butt;stroke-linejoin:miter;stroke-miterlimit:10;stroke-dasharray:none;stroke-opacity:1"
       transform="matrix(0.9577949,0,0,0.9577949,0.47889746,0.47889746)"
       clip-path="url(#clipPath41)" />
    <g
       id="g41" />
    <text
       id="text41"
       xml:space="preserve"
       transform="matrix(0.95780454,0,0,0.95780454,414.17564,237.53552)"
       clip-path="url(#clipPath42)"><tspan
         style="font-variant:normal;font-weight:normal;font-size:19px;font-family:Helvetica;writing-mode:lr-tb;fill:#000000;fill-opacity:1;fill-rule:nonzero;stroke:none"
         x="0 14.778809 25.345703 30.624512 35.90332 41.182129 51.749023 62.315918 67.594727 78.161621 82.382812 92.949707 103.5166 108.79541 122.5166 126.73779 132.0166 142.5835 147.8623 157.3623 167.9292 178.49609 187.99609 192.21729 201.71729 212.28418 222.85107 228.12988 233.40869"
         y="0"
         sodipodi:role="line"
         id="tspan41">Get the blog with speciﬁed ID</tspan></text>
    <path
       id="path43"
       d="m 341,261 h 430 v 40 H 341 Z"
       style="fill:#ffffff;fill-opacity:1;fill-rule:nonzero;stroke:#000000;stroke-width:1;stroke-linecap:butt;stroke-linejoin:miter;stroke-miterlimit:10;stroke-dasharray:none;stroke-opacity:1"
       transform="matrix(0.9577949,0,0,0.9577949,0.47889746,0.47889746)"
       clip-path="url(#clipPath44)" />
    <text
       id="text44"
       xml:space="preserve"
       transform="matrix(0.95780454,0,0,0.95780454,358.02435,275.84771)"
       clip-path="url(#clipPath45)"><tspan
         style="font-variant:normal;font-weight:normal;font-size:19px;font-family:Helvetica;writing-mode:lr-tb;fill:#000000;fill-opacity:1;fill-rule:nonzero;stroke:none"
         x="0 14.778809 25.345703 30.624512 35.90332 46.470215 50.691406 54.912598 60.191406 70.758301 74.979492 85.546387 96.113281 105.61328 110.89209 116.1709 126.73779 137.30469 142.5835 147.8623 158.4292 168.99609 173.21729 183.78418 194.35107 204.91797 210.19678 215.47559 226.04248 231.32129 236.6001 247.16699 257.73389 263.0127 272.5127 283.07959 289.40674 295.73389 306.30078 316.86768 322.14648 327.42529 337.99219 347.49219 358.05908"
         y="0"
         sodipodi:role="line"
         id="tspan44">Get all blogs that belong to the current user</tspan></text>
    <path
       id="path46"
       d="m 341,301 h 430 v 40 H 341 Z"
       style="fill:#ffffff;fill-opacity:1;fill-rule:nonzero;stroke:#000000;stroke-width:1;stroke-linecap:butt;stroke-linejoin:miter;stroke-miterlimit:10;stroke-dasharray:none;stroke-opacity:1"
       transform="matrix(0.9577949,0,0,0.9577949,0.47889746,0.47889746)"
       clip-path="url(#clipPath47)" />
    <text
       id="text47"
       xml:space="preserve"
       transform="matrix(0.95780454,0,0,0.95780454,458.68362,314.15989)"
       clip-path="url(#clipPath48)"><tspan
         style="font-variant:normal;font-weight:normal;font-size:19px;font-family:Helvetica;writing-mode:lr-tb;fill:#000000;fill-opacity:1;fill-rule:nonzero;stroke:none"
         x="0 13.721191 20.04834 30.615234 41.182129 46.460938 57.027832 62.306641 72.873535 78.152344 88.719238 99.286133 113.00732 118.28613 128.85303 133.07422 143.64111"
         y="0"
         sodipodi:role="line"
         id="tspan47">Create a new blog</tspan></text>
  </g>
</svg>
