<?xml version="1.0" encoding="UTF-8" standalone="no"?>
<!-- Created with Inkscape (http://www.inkscape.org/) -->

<svg
   version="1.1"
   id="svg1"
   width="473.28"
   height="238.71999"
   viewBox="0 0 473.28 238.71999"
   sodipodi:docname="node-7.pdf"
   xmlns:inkscape="http://www.inkscape.org/namespaces/inkscape"
   xmlns:sodipodi="http://sodipodi.sourceforge.net/DTD/sodipodi-0.dtd"
   xmlns="http://www.w3.org/2000/svg"
   xmlns:svg="http://www.w3.org/2000/svg">
  <defs
     id="defs1">
    <clipPath
       clipPathUnits="userSpaceOnUse"
       id="clipPath2">
      <path
         d="M 0,0 H 1479.1666 V 745.57184 H 0 Z"
         transform="scale(0.33397184)"
         clip-rule="evenodd"
         id="path2" />
    </clipPath>
    <clipPath
       clipPathUnits="userSpaceOnUse"
       id="clipPath4">
      <path
         d="M 0,0 H 1479.1666 V 739.58331 H 0 Z"
         transform="matrix(0.33397184,0,0,0.33397184,-0.49999999,-0.49999999)"
         clip-rule="evenodd"
         id="path4" />
    </clipPath>
    <clipPath
       clipPathUnits="userSpaceOnUse"
       id="clipPath6">
      <path
         d="M 0,0 H 1479.1666 V 739.58331 H 0 Z"
         transform="matrix(0.33397184,0,0,0.33397184,-0.49999999,-0.49999999)"
         clip-rule="evenodd"
         id="path6" />
    </clipPath>
    <clipPath
       clipPathUnits="userSpaceOnUse"
       id="clipPath8">
      <path
         d="M 0,0 H 1479.1666 V 739.58331 H 0 Z"
         transform="matrix(0.33397184,0,0,0.33397184,-0.49999999,-0.49999999)"
         clip-rule="evenodd"
         id="path8" />
    </clipPath>
    <clipPath
       clipPathUnits="userSpaceOnUse"
       id="clipPath9">
      <path
         d="M 0,0 H 1479.1666 V 739.58331 H 0 Z"
         transform="matrix(0.3339685,0,0,0.3339685,-36.484375,-142)"
         clip-rule="evenodd"
         id="path9" />
    </clipPath>
    <clipPath
       clipPathUnits="userSpaceOnUse"
       id="clipPath11">
      <path
         d="M 0,0 H 1479.1666 V 739.58331 H 0 Z"
         transform="matrix(0.33397184,0,0,0.33397184,-0.49999999,-0.49999999)"
         clip-rule="evenodd"
         id="path11" />
    </clipPath>
    <clipPath
       clipPathUnits="userSpaceOnUse"
       id="clipPath13">
      <path
         d="M 0,0 H 1479.1666 V 739.58331 H 0 Z"
         transform="matrix(0.33397184,0,0,0.33397184,-0.49999999,-0.49999999)"
         clip-rule="evenodd"
         id="path13" />
    </clipPath>
    <clipPath
       clipPathUnits="userSpaceOnUse"
       id="clipPath15">
      <path
         d="M 0,0 H 1479.1666 V 739.58331 H 0 Z"
         transform="matrix(0.33397184,0,0,0.33397184,-0.49999999,-0.49999999)"
         clip-rule="evenodd"
         id="path15" />
    </clipPath>
    <clipPath
       clipPathUnits="userSpaceOnUse"
       id="clipPath17">
      <path
         d="M 0,0 H 1479.1666 V 739.58331 H 0 Z"
         transform="matrix(0.33397184,0,0,0.33397184,-0.49999999,-0.49999999)"
         clip-rule="evenodd"
         id="path17" />
    </clipPath>
    <clipPath
       clipPathUnits="userSpaceOnUse"
       id="clipPath18">
      <path
         d="M 0,0 H 1479.1666 V 739.58331 H 0 Z"
         transform="matrix(0.3339685,0,0,0.3339685,-216.46874,-142)"
         clip-rule="evenodd"
         id="path18" />
    </clipPath>
    <clipPath
       clipPathUnits="userSpaceOnUse"
       id="clipPath20">
      <path
         d="M 0,0 H 1479.1666 V 739.58331 H 0 Z"
         transform="matrix(0.33397184,0,0,0.33397184,-0.49999999,-0.49999999)"
         clip-rule="evenodd"
         id="path20" />
    </clipPath>
    <clipPath
       clipPathUnits="userSpaceOnUse"
       id="clipPath21">
      <path
         d="M 0,0 H 1479.1666 V 739.58331 H 0 Z"
         transform="matrix(0.3339685,0,0,0.3339685,-394.48438,-69)"
         clip-rule="evenodd"
         id="path21" />
    </clipPath>
    <clipPath
       clipPathUnits="userSpaceOnUse"
       id="clipPath22">
      <path
         d="M 0,0 H 1479.1666 V 739.58331 H 0 Z"
         transform="matrix(0.3339685,0,0,0.3339685,-252.99999,-18)"
         clip-rule="evenodd"
         id="path22" />
    </clipPath>
    <clipPath
       clipPathUnits="userSpaceOnUse"
       id="clipPath24">
      <path
         d="M 0,0 H 1479.1666 V 739.58331 H 0 Z"
         transform="matrix(0.33397184,0,0,0.33397184,-0.49999999,-0.49999999)"
         clip-rule="evenodd"
         id="path24" />
    </clipPath>
    <clipPath
       clipPathUnits="userSpaceOnUse"
       id="clipPath25">
      <path
         d="M 0,0 H 1479.1666 V 739.58331 H 0 Z"
         transform="matrix(0.3339685,0,0,0.3339685,-394.48438,-95)"
         clip-rule="evenodd"
         id="path25" />
    </clipPath>
    <clipPath
       clipPathUnits="userSpaceOnUse"
       id="clipPath27">
      <path
         d="M 0,0 H 1479.1666 V 739.58331 H 0 Z"
         transform="matrix(0.33397184,0,0,0.33397184,-0.49999999,-0.49999999)"
         clip-rule="evenodd"
         id="path27" />
    </clipPath>
    <clipPath
       clipPathUnits="userSpaceOnUse"
       id="clipPath28">
      <path
         d="M 0,0 H 1479.1666 V 739.58331 H 0 Z"
         transform="matrix(0.3339685,0,0,0.3339685,-394.48438,-120)"
         clip-rule="evenodd"
         id="path28" />
    </clipPath>
    <clipPath
       clipPathUnits="userSpaceOnUse"
       id="clipPath30">
      <path
         d="M 0,0 H 1479.1666 V 739.58331 H 0 Z"
         transform="matrix(0.33397184,0,0,0.33397184,-0.49999999,-0.49999999)"
         clip-rule="evenodd"
         id="path30" />
    </clipPath>
    <clipPath
       clipPathUnits="userSpaceOnUse"
       id="clipPath31">
      <path
         d="M 0,0 H 1479.1666 V 739.58331 H 0 Z"
         transform="matrix(0.3339685,0,0,0.3339685,-394.48438,-145)"
         clip-rule="evenodd"
         id="path31" />
    </clipPath>
    <clipPath
       clipPathUnits="userSpaceOnUse"
       id="clipPath33">
      <path
         d="M 0,0 H 1479.1666 V 739.58331 H 0 Z"
         transform="matrix(0.33397184,0,0,0.33397184,-0.49999999,-0.49999999)"
         clip-rule="evenodd"
         id="path33" />
    </clipPath>
    <clipPath
       clipPathUnits="userSpaceOnUse"
       id="clipPath34">
      <path
         d="M 0,0 H 1479.1666 V 739.58331 H 0 Z"
         transform="matrix(0.3339685,0,0,0.3339685,-394.48438,-170)"
         clip-rule="evenodd"
         id="path34" />
    </clipPath>
    <clipPath
       clipPathUnits="userSpaceOnUse"
       id="clipPath36">
      <path
         d="M 0,0 H 1479.1666 V 739.58331 H 0 Z"
         transform="matrix(0.33397184,0,0,0.33397184,-0.49999999,-0.49999999)"
         clip-rule="evenodd"
         id="path36" />
    </clipPath>
    <clipPath
       clipPathUnits="userSpaceOnUse"
       id="clipPath37">
      <path
         d="M 0,0 H 1479.1666 V 739.58331 H 0 Z"
         transform="matrix(0.3339685,0,0,0.3339685,-394.48438,-195)"
         clip-rule="evenodd"
         id="path37" />
    </clipPath>
    <clipPath
       clipPathUnits="userSpaceOnUse"
       id="clipPath39">
      <path
         d="M 0,0 H 1479.1666 V 739.58331 H 0 Z"
         transform="matrix(0.33397184,0,0,0.33397184,-0.49999999,-0.49999999)"
         clip-rule="evenodd"
         id="path39" />
    </clipPath>
    <clipPath
       clipPathUnits="userSpaceOnUse"
       id="clipPath40">
      <path
         d="M 0,0 H 1479.1666 V 739.58331 H 0 Z"
         transform="matrix(0.3339685,0,0,0.3339685,-394.48438,-220)"
         clip-rule="evenodd"
         id="path40" />
    </clipPath>
  </defs>
  <sodipodi:namedview
     id="namedview1"
     pagecolor="#ffffff"
     bordercolor="#000000"
     borderopacity="0.25"
     inkscape:showpageshadow="2"
     inkscape:pageopacity="0.0"
     inkscape:pagecheckerboard="0"
     inkscape:deskcolor="#d1d1d1">
    <inkscape:page
       x="0"
       y="0"
       inkscape:label="1"
       id="page1"
       width="473.28"
       height="238.71999"
       margin="0"
       bleed="0" />
  </sodipodi:namedview>
  <g
     id="g1"
     inkscape:groupmode="layer"
     inkscape:label="1">
    <path
       id="path1"
       d="M 0,0 H 494 V 249 H 0 Z"
       style="fill:#ffffff;fill-opacity:1;fill-rule:nonzero;stroke:none"
       transform="scale(0.95816457)"
       clip-path="url(#clipPath2)" />
    <path
       id="path3"
       d="m 121,135 h 39.89999"
       style="fill:none;stroke:#000000;stroke-width:1;stroke-linecap:butt;stroke-linejoin:miter;stroke-miterlimit:10;stroke-dasharray:none;stroke-opacity:1"
       transform="matrix(0.95816457,0,0,0.95816457,0.47908228,0.47908228)"
       clip-path="url(#clipPath4)" />
    <path
       id="path5"
       d="m 167.64999,135 -9,4.5 2.25,-4.5 -2.25,-4.5 z"
       style="fill:#000000;fill-opacity:1;fill-rule:nonzero;stroke:#000000;stroke-width:1;stroke-linecap:butt;stroke-linejoin:miter;stroke-miterlimit:10;stroke-dasharray:none;stroke-opacity:1"
       transform="matrix(0.95816457,0,0,0.95816457,0.47908228,0.47908228)"
       clip-path="url(#clipPath6)" />
    <path
       id="path7"
       d="m 1,105 h 120 v 60 H 1 Z"
       style="fill:#ffffff;fill-opacity:1;fill-rule:nonzero;stroke:#000000;stroke-width:1;stroke-linecap:butt;stroke-linejoin:miter;stroke-miterlimit:10;stroke-dasharray:none;stroke-opacity:1"
       transform="matrix(0.95816457,0,0,0.95816457,0.47908228,0.47908228)"
       clip-path="url(#clipPath8)" />
    <text
       id="text8"
       xml:space="preserve"
       transform="matrix(0.95817417,0,0,0.95817417,34.958386,136.06073)"
       clip-path="url(#clipPath9)"><tspan
         style="font-variant:normal;font-weight:normal;font-size:18px;font-family:Helvetica;writing-mode:lr-tb;fill:#000000;fill-opacity:1;fill-rule:nonzero;stroke:none"
         x="0 14.000977 24.011719 34.022461 40.016602"
         y="0"
         sodipodi:role="line"
         id="tspan8">Query</tspan></text>
    <path
       id="path10"
       d="M 171,25 H 491 V 245 H 171 Z"
       style="fill:#ffffff;fill-opacity:1;fill-rule:nonzero;stroke:#000000;stroke-width:1;stroke-linecap:butt;stroke-linejoin:miter;stroke-miterlimit:10;stroke-dasharray:none;stroke-opacity:1"
       transform="matrix(0.95816457,0,0,0.95816457,0.47908228,0.47908228)"
       clip-path="url(#clipPath11)" />
    <path
       id="path12"
       d="m 291,135 h 40 v 52.5 h 29.89999"
       style="fill:none;stroke:#000000;stroke-width:1;stroke-linecap:butt;stroke-linejoin:miter;stroke-miterlimit:10;stroke-dasharray:none;stroke-opacity:1"
       transform="matrix(0.95816457,0,0,0.95816457,0.47908228,0.47908228)"
       clip-path="url(#clipPath13)" />
    <path
       id="path14"
       d="m 367.64999,187.5 -9,4.5 2.25,-4.5 -2.25,-4.5 z"
       style="fill:#000000;fill-opacity:1;fill-rule:nonzero;stroke:#000000;stroke-width:1;stroke-linecap:butt;stroke-linejoin:miter;stroke-miterlimit:10;stroke-dasharray:none;stroke-opacity:1"
       transform="matrix(0.95816457,0,0,0.95816457,0.47908228,0.47908228)"
       clip-path="url(#clipPath15)" />
    <path
       id="path16"
       d="M 186,50 H 291 V 220 H 186 Z"
       style="fill:#dae8fc;fill-opacity:1;fill-rule:nonzero;stroke:#6c8ebf;stroke-width:1;stroke-linecap:butt;stroke-linejoin:miter;stroke-miterlimit:10;stroke-dasharray:none;stroke-opacity:1"
       transform="matrix(0.95816457,0,0,0.95816457,0.47908228,0.47908228)"
       clip-path="url(#clipPath17)" />
    <text
       id="text17"
       xml:space="preserve"
       transform="matrix(0.95817417,0,0,0.95817417,207.41476,136.06073)"
       clip-path="url(#clipPath18)"><tspan
         style="font-variant:normal;font-weight:normal;font-size:18px;font-family:Helvetica;writing-mode:lr-tb;fill:#000000;fill-opacity:1;fill-rule:nonzero;stroke:none"
         x="0 5.0009766 15.011719 25.022461 35.033203"
         y="0"
         sodipodi:role="line"
         id="tspan17">Index</tspan></text>
    <path
       id="path19"
       d="M 371,50 H 476 V 75 H 371 Z"
       style="fill:#ffffff;fill-opacity:1;fill-rule:nonzero;stroke:#000000;stroke-width:1;stroke-linecap:butt;stroke-linejoin:miter;stroke-miterlimit:10;stroke-dasharray:none;stroke-opacity:1"
       transform="matrix(0.95816457,0,0,0.95816457,0.47908228,0.47908228)"
       clip-path="url(#clipPath20)" />
    <text
       id="text20"
       xml:space="preserve"
       transform="matrix(0.95817417,0,0,0.95817417,377.98474,66.114018)"
       clip-path="url(#clipPath21)"><tspan
         style="font-variant:normal;font-weight:normal;font-size:18px;font-family:Helvetica;writing-mode:lr-tb;fill:#000000;fill-opacity:1;fill-rule:nonzero;stroke:none"
         x="0 12.999023 23.009766 32.009766 42.020508 48.014648"
         y="0"
         sodipodi:role="line"
         id="tspan20">Record</tspan></text>
    <text
       id="text21"
       xml:space="preserve"
       transform="matrix(0.95817417,0,0,0.95817417,242.41806,17.247135)"
       clip-path="url(#clipPath22)"><tspan
         style="font-variant:normal;font-weight:700;font-size:18px;font-family:Helvetica;writing-mode:lr-tb;fill:#000000;fill-opacity:1;fill-rule:nonzero;stroke:none"
         x="0 14.994141 25.989258 36.984375 47.979492 58.974609 71.973633 84.972656 89.973633 102.97266 113.96777 118.96875 123.96973 133.98047 143.99121 149.98535 154.98633 165.98145"
         y="0"
         sodipodi:role="line"
         id="tspan21">MongoDB Collection</tspan></text>
    <path
       id="path23"
       d="m 371,75 h 105 v 25 H 371 Z"
       style="fill:#ffffff;fill-opacity:1;fill-rule:nonzero;stroke:#000000;stroke-width:1;stroke-linecap:butt;stroke-linejoin:miter;stroke-miterlimit:10;stroke-dasharray:none;stroke-opacity:1"
       transform="matrix(0.95816457,0,0,0.95816457,0.47908228,0.47908228)"
       clip-path="url(#clipPath24)" />
    <text
       id="text24"
       xml:space="preserve"
       transform="matrix(0.95817417,0,0,0.95817417,377.98474,91.026546)"
       clip-path="url(#clipPath25)"><tspan
         style="font-variant:normal;font-weight:normal;font-size:18px;font-family:Helvetica;writing-mode:lr-tb;fill:#000000;fill-opacity:1;fill-rule:nonzero;stroke:none"
         x="0 12.999023 23.009766 32.009766 42.020508 48.014648"
         y="0"
         sodipodi:role="line"
         id="tspan24">Record</tspan></text>
    <path
       id="path26"
       d="m 371,100 h 105 v 25 H 371 Z"
       style="fill:#ffffff;fill-opacity:1;fill-rule:nonzero;stroke:#000000;stroke-width:1;stroke-linecap:butt;stroke-linejoin:miter;stroke-miterlimit:10;stroke-dasharray:none;stroke-opacity:1"
       transform="matrix(0.95816457,0,0,0.95816457,0.47908228,0.47908228)"
       clip-path="url(#clipPath27)" />
    <text
       id="text27"
       xml:space="preserve"
       transform="matrix(0.95817417,0,0,0.95817417,377.98474,114.9809)"
       clip-path="url(#clipPath28)"><tspan
         style="font-variant:normal;font-weight:normal;font-size:18px;font-family:Helvetica;writing-mode:lr-tb;fill:#000000;fill-opacity:1;fill-rule:nonzero;stroke:none"
         x="0 12.999023 23.009766 32.009766 42.020508 48.014648"
         y="0"
         sodipodi:role="line"
         id="tspan27">Record</tspan></text>
    <path
       id="path29"
       d="m 371,125 h 105 v 25 H 371 Z"
       style="fill:#ffffff;fill-opacity:1;fill-rule:nonzero;stroke:#000000;stroke-width:1;stroke-linecap:butt;stroke-linejoin:miter;stroke-miterlimit:10;stroke-dasharray:none;stroke-opacity:1"
       transform="matrix(0.95816457,0,0,0.95816457,0.47908228,0.47908228)"
       clip-path="url(#clipPath30)" />
    <text
       id="text30"
       xml:space="preserve"
       transform="matrix(0.95817417,0,0,0.95817417,377.98474,138.93525)"
       clip-path="url(#clipPath31)"><tspan
         style="font-variant:normal;font-weight:normal;font-size:18px;font-family:Helvetica;writing-mode:lr-tb;fill:#000000;fill-opacity:1;fill-rule:nonzero;stroke:none"
         x="0 12.999023 23.009766 32.009766 42.020508 48.014648"
         y="0"
         sodipodi:role="line"
         id="tspan30">Record</tspan></text>
    <path
       id="path32"
       d="m 371,150 h 105 v 25 H 371 Z"
       style="fill:#ffffff;fill-opacity:1;fill-rule:nonzero;stroke:#000000;stroke-width:1;stroke-linecap:butt;stroke-linejoin:miter;stroke-miterlimit:10;stroke-dasharray:none;stroke-opacity:1"
       transform="matrix(0.95816457,0,0,0.95816457,0.47908228,0.47908228)"
       clip-path="url(#clipPath33)" />
    <text
       id="text33"
       xml:space="preserve"
       transform="matrix(0.95817417,0,0,0.95817417,377.98474,162.88961)"
       clip-path="url(#clipPath34)"><tspan
         style="font-variant:normal;font-weight:normal;font-size:18px;font-family:Helvetica;writing-mode:lr-tb;fill:#000000;fill-opacity:1;fill-rule:nonzero;stroke:none"
         x="0 12.999023 23.009766 32.009766 42.020508 48.014648"
         y="0"
         sodipodi:role="line"
         id="tspan33">Record</tspan></text>
    <path
       id="path35"
       d="m 371,175 h 105 v 25 H 371 Z"
       style="fill:#d5e8d4;fill-opacity:1;fill-rule:nonzero;stroke:#82b366;stroke-width:1;stroke-linecap:butt;stroke-linejoin:miter;stroke-miterlimit:10;stroke-dasharray:none;stroke-opacity:1"
       transform="matrix(0.95816457,0,0,0.95816457,0.47908228,0.47908228)"
       clip-path="url(#clipPath36)" />
    <text
       id="text36"
       xml:space="preserve"
       transform="matrix(0.95817417,0,0,0.95817417,377.98474,186.84396)"
       clip-path="url(#clipPath37)"><tspan
         style="font-variant:normal;font-weight:normal;font-size:18px;font-family:Helvetica;writing-mode:lr-tb;fill:#000000;fill-opacity:1;fill-rule:nonzero;stroke:none"
         x="0 12.999023 23.009766 32.009766 42.020508 48.014648"
         y="0"
         sodipodi:role="line"
         id="tspan36">Record</tspan></text>
    <path
       id="path38"
       d="m 371,200 h 105 v 25 H 371 Z"
       style="fill:#ffffff;fill-opacity:1;fill-rule:nonzero;stroke:#000000;stroke-width:1;stroke-linecap:butt;stroke-linejoin:miter;stroke-miterlimit:10;stroke-dasharray:none;stroke-opacity:1"
       transform="matrix(0.95816457,0,0,0.95816457,0.47908228,0.47908228)"
       clip-path="url(#clipPath39)" />
    <text
       id="text39"
       xml:space="preserve"
       transform="matrix(0.95817417,0,0,0.95817417,377.98474,210.79832)"
       clip-path="url(#clipPath40)"><tspan
         style="font-variant:normal;font-weight:normal;font-size:18px;font-family:Helvetica;writing-mode:lr-tb;fill:#000000;fill-opacity:1;fill-rule:nonzero;stroke:none"
         x="0 12.999023 23.009766 32.009766 42.020508 48.014648"
         y="0"
         sodipodi:role="line"
         id="tspan39">Record</tspan></text>
  </g>
</svg>
