<?xml version="1.0" encoding="UTF-8" standalone="no"?>
<!-- Created with Inkscape (http://www.inkscape.org/) -->

<svg
   version="1.1"
   id="svg1"
   width="444.16"
   height="582.71997"
   viewBox="0 0 444.16 582.71997"
   sodipodi:docname="node-17.pdf"
   xmlns:inkscape="http://www.inkscape.org/namespaces/inkscape"
   xmlns:sodipodi="http://sodipodi.sourceforge.net/DTD/sodipodi-0.dtd"
   xmlns="http://www.w3.org/2000/svg"
   xmlns:svg="http://www.w3.org/2000/svg">
  <defs
     id="defs1">
    <clipPath
       clipPathUnits="userSpaceOnUse"
       id="clipPath2">
      <path
         d="M 0,0 H 1387.5 V 1818.1034 H 0 Z"
         transform="scale(0.33441443)"
         clip-rule="evenodd"
         id="path2" />
    </clipPath>
    <clipPath
       clipPathUnits="userSpaceOnUse"
       id="clipPath4">
      <path
         d="M 0,0 H 1387.5 V 1809.1324 H 0 Z"
         transform="matrix(0.33441443,0,0,0.33441443,-0.50000001,-0.50000001)"
         clip-rule="evenodd"
         id="path4" />
    </clipPath>
    <clipPath
       clipPathUnits="userSpaceOnUse"
       id="clipPath5">
      <path
         d="M 0,0 H 1387.5 V 1809.1324 H 0 Z"
         transform="matrix(0.33441107,0,0,0.33441107,-214.04688,-20)"
         clip-rule="evenodd"
         id="path5" />
    </clipPath>
    <clipPath
       clipPathUnits="userSpaceOnUse"
       id="clipPath7">
      <path
         d="M 0,0 H 1387.5 V 1809.1324 H 0 Z"
         transform="matrix(0.33441443,0,0,0.33441443,-0.50000001,-0.50000001)"
         clip-rule="evenodd"
         id="path7" />
    </clipPath>
    <clipPath
       clipPathUnits="userSpaceOnUse"
       id="clipPath8">
      <path
         d="M 0,0 H 1387.5 V 1809.1324 H 0 Z"
         transform="matrix(0.33441107,0,0,0.33441107,-85.484376,-90)"
         clip-rule="evenodd"
         id="path8" />
    </clipPath>
    <clipPath
       clipPathUnits="userSpaceOnUse"
       id="clipPath10">
      <path
         d="M 0,0 H 1387.5 V 1809.1324 H 0 Z"
         transform="matrix(0.33441443,0,0,0.33441443,-0.50000001,-0.50000001)"
         clip-rule="evenodd"
         id="path10" />
    </clipPath>
    <clipPath
       clipPathUnits="userSpaceOnUse"
       id="clipPath11">
      <path
         d="M 0,0 H 1387.5 V 1809.1324 H 0 Z"
         transform="matrix(0.33441107,0,0,0.33441107,-283.64063,-90)"
         clip-rule="evenodd"
         id="path11" />
    </clipPath>
    <clipPath
       clipPathUnits="userSpaceOnUse"
       id="clipPath13">
      <path
         d="M 0,0 H 1387.5 V 1809.1324 H 0 Z"
         transform="matrix(0.33441443,0,0,0.33441443,-0.50000001,-0.50000001)"
         clip-rule="evenodd"
         id="path13" />
    </clipPath>
    <clipPath
       clipPathUnits="userSpaceOnUse"
       id="clipPath14">
      <path
         d="M 0,0 H 1387.5 V 1809.1324 H 0 Z"
         transform="matrix(0.33441107,0,0,0.33441107,-58.875,-245)"
         clip-rule="evenodd"
         id="path14" />
    </clipPath>
    <clipPath
       clipPathUnits="userSpaceOnUse"
       id="clipPath16">
      <path
         d="M 0,0 H 1387.5 V 1809.1324 H 0 Z"
         transform="matrix(0.33441443,0,0,0.33441443,-0.50000001,-0.50000001)"
         clip-rule="evenodd"
         id="path16" />
    </clipPath>
    <clipPath
       clipPathUnits="userSpaceOnUse"
       id="clipPath17">
      <path
         d="M 0,0 H 1387.5 V 1809.1324 H 0 Z"
         transform="matrix(0.33441107,0,0,0.33441107,-196.96875,-145)"
         clip-rule="evenodd"
         id="path17" />
    </clipPath>
    <clipPath
       clipPathUnits="userSpaceOnUse"
       id="clipPath19">
      <path
         d="M 0,0 H 1387.5 V 1809.1324 H 0 Z"
         transform="matrix(0.33441443,0,0,0.33441443,-0.50000001,-0.50000001)"
         clip-rule="evenodd"
         id="path19" />
    </clipPath>
    <clipPath
       clipPathUnits="userSpaceOnUse"
       id="clipPath20">
      <path
         d="M 0,0 H 1387.5 V 1809.1324 H 0 Z"
         transform="matrix(0.33441107,0,0,0.33441107,-315.125,-145)"
         clip-rule="evenodd"
         id="path20" />
    </clipPath>
    <clipPath
       clipPathUnits="userSpaceOnUse"
       id="clipPath22">
      <path
         d="M 0,0 H 1387.5 V 1809.1324 H 0 Z"
         transform="matrix(0.33441443,0,0,0.33441443,-0.50000001,-0.50000001)"
         clip-rule="evenodd"
         id="path22" />
    </clipPath>
    <clipPath
       clipPathUnits="userSpaceOnUse"
       id="clipPath23">
      <path
         d="M 0,0 H 1387.5 V 1809.1324 H 0 Z"
         transform="matrix(0.33441107,0,0,0.33441107,-223.39063,-195)"
         clip-rule="evenodd"
         id="path23" />
    </clipPath>
    <clipPath
       clipPathUnits="userSpaceOnUse"
       id="clipPath25">
      <path
         d="M 0,0 H 1387.5 V 1809.1324 H 0 Z"
         transform="matrix(0.33441443,0,0,0.33441443,-0.50000001,-0.50000001)"
         clip-rule="evenodd"
         id="path25" />
    </clipPath>
    <clipPath
       clipPathUnits="userSpaceOnUse"
       id="clipPath26">
      <path
         d="M 0,0 H 1387.5 V 1809.1324 H 0 Z"
         transform="matrix(0.33441107,0,0,0.33441107,-345.95313,-195)"
         clip-rule="evenodd"
         id="path26" />
    </clipPath>
    <clipPath
       clipPathUnits="userSpaceOnUse"
       id="clipPath28">
      <path
         d="M 0,0 H 1387.5 V 1809.1324 H 0 Z"
         transform="matrix(0.33441443,0,0,0.33441443,-0.50000001,-0.50000001)"
         clip-rule="evenodd"
         id="path28" />
    </clipPath>
    <clipPath
       clipPathUnits="userSpaceOnUse"
       id="clipPath29">
      <path
         d="M 0,0 H 1387.5 V 1809.1324 H 0 Z"
         transform="matrix(0.33441107,0,0,0.33441107,-205.04688,-245)"
         clip-rule="evenodd"
         id="path29" />
    </clipPath>
    <clipPath
       clipPathUnits="userSpaceOnUse"
       id="clipPath31">
      <path
         d="M 0,0 H 1387.5 V 1809.1324 H 0 Z"
         transform="matrix(0.33441443,0,0,0.33441443,-0.50000001,-0.50000001)"
         clip-rule="evenodd"
         id="path31" />
    </clipPath>
    <clipPath
       clipPathUnits="userSpaceOnUse"
       id="clipPath32">
      <path
         d="M 0,0 H 1387.5 V 1809.1324 H 0 Z"
         transform="matrix(0.33441107,0,0,0.33441107,-327.59375,-245)"
         clip-rule="evenodd"
         id="path32" />
    </clipPath>
    <clipPath
       clipPathUnits="userSpaceOnUse"
       id="clipPath34">
      <path
         d="M 0,0 H 1387.5 V 1809.1324 H 0 Z"
         transform="matrix(0.33441443,0,0,0.33441443,-0.50000001,-0.50000001)"
         clip-rule="evenodd"
         id="path34" />
    </clipPath>
    <clipPath
       clipPathUnits="userSpaceOnUse"
       id="clipPath35">
      <path
         d="M 0,0 H 1387.5 V 1809.1324 H 0 Z"
         transform="matrix(0.33441107,0,0,0.33441107,-218.5,-295)"
         clip-rule="evenodd"
         id="path35" />
    </clipPath>
    <clipPath
       clipPathUnits="userSpaceOnUse"
       id="clipPath37">
      <path
         d="M 0,0 H 1387.5 V 1809.1324 H 0 Z"
         transform="matrix(0.33441443,0,0,0.33441443,-0.50000001,-0.50000001)"
         clip-rule="evenodd"
         id="path37" />
    </clipPath>
    <clipPath
       clipPathUnits="userSpaceOnUse"
       id="clipPath38">
      <path
         d="M 0,0 H 1387.5 V 1809.1324 H 0 Z"
         transform="matrix(0.33441107,0,0,0.33441107,-344.10939,-295)"
         clip-rule="evenodd"
         id="path38" />
    </clipPath>
    <clipPath
       clipPathUnits="userSpaceOnUse"
       id="clipPath40">
      <path
         d="M 0,0 H 1387.5 V 1809.1324 H 0 Z"
         transform="matrix(0.33441443,0,0,0.33441443,-0.50000001,-0.50000001)"
         clip-rule="evenodd"
         id="path40" />
    </clipPath>
    <clipPath
       clipPathUnits="userSpaceOnUse"
       id="clipPath41">
      <path
         d="M 0,0 H 1387.5 V 1809.1324 H 0 Z"
         transform="matrix(0.33441107,0,0,0.33441107,-59.5,-415)"
         clip-rule="evenodd"
         id="path41" />
    </clipPath>
    <clipPath
       clipPathUnits="userSpaceOnUse"
       id="clipPath43">
      <path
         d="M 0,0 H 1387.5 V 1809.1324 H 0 Z"
         transform="matrix(0.33441443,0,0,0.33441443,-0.50000001,-0.50000001)"
         clip-rule="evenodd"
         id="path43" />
    </clipPath>
    <clipPath
       clipPathUnits="userSpaceOnUse"
       id="clipPath44">
      <path
         d="M 0,0 H 1387.5 V 1809.1324 H 0 Z"
         transform="matrix(0.33441107,0,0,0.33441107,-223.39063,-365)"
         clip-rule="evenodd"
         id="path44" />
    </clipPath>
    <clipPath
       clipPathUnits="userSpaceOnUse"
       id="clipPath46">
      <path
         d="M 0,0 H 1387.5 V 1809.1324 H 0 Z"
         transform="matrix(0.33441443,0,0,0.33441443,-0.50000001,-0.50000001)"
         clip-rule="evenodd"
         id="path46" />
    </clipPath>
    <clipPath
       clipPathUnits="userSpaceOnUse"
       id="clipPath47">
      <path
         d="M 0,0 H 1387.5 V 1809.1324 H 0 Z"
         transform="matrix(0.33441107,0,0,0.33441107,-351.45313,-365)"
         clip-rule="evenodd"
         id="path47" />
    </clipPath>
    <clipPath
       clipPathUnits="userSpaceOnUse"
       id="clipPath49">
      <path
         d="M 0,0 H 1387.5 V 1809.1324 H 0 Z"
         transform="matrix(0.33441443,0,0,0.33441443,-0.50000001,-0.50000001)"
         clip-rule="evenodd"
         id="path49" />
    </clipPath>
    <clipPath
       clipPathUnits="userSpaceOnUse"
       id="clipPath50">
      <path
         d="M 0,0 H 1387.5 V 1809.1324 H 0 Z"
         transform="matrix(0.33441107,0,0,0.33441107,-205.04688,-415)"
         clip-rule="evenodd"
         id="path50" />
    </clipPath>
    <clipPath
       clipPathUnits="userSpaceOnUse"
       id="clipPath52">
      <path
         d="M 0,0 H 1387.5 V 1809.1324 H 0 Z"
         transform="matrix(0.33441443,0,0,0.33441443,-0.50000001,-0.50000001)"
         clip-rule="evenodd"
         id="path52" />
    </clipPath>
    <clipPath
       clipPathUnits="userSpaceOnUse"
       id="clipPath53">
      <path
         d="M 0,0 H 1387.5 V 1809.1324 H 0 Z"
         transform="matrix(0.33441107,0,0,0.33441107,-330.04688,-415)"
         clip-rule="evenodd"
         id="path53" />
    </clipPath>
    <clipPath
       clipPathUnits="userSpaceOnUse"
       id="clipPath55">
      <path
         d="M 0,0 H 1387.5 V 1809.1324 H 0 Z"
         transform="matrix(0.33441443,0,0,0.33441443,-0.50000001,-0.50000001)"
         clip-rule="evenodd"
         id="path55" />
    </clipPath>
    <clipPath
       clipPathUnits="userSpaceOnUse"
       id="clipPath56">
      <path
         d="M 0,0 H 1387.5 V 1809.1324 H 0 Z"
         transform="matrix(0.33441107,0,0,0.33441107,-218.5,-465)"
         clip-rule="evenodd"
         id="path56" />
    </clipPath>
    <clipPath
       clipPathUnits="userSpaceOnUse"
       id="clipPath58">
      <path
         d="M 0,0 H 1387.5 V 1809.1324 H 0 Z"
         transform="matrix(0.33441443,0,0,0.33441443,-0.50000001,-0.50000001)"
         clip-rule="evenodd"
         id="path58" />
    </clipPath>
    <clipPath
       clipPathUnits="userSpaceOnUse"
       id="clipPath59">
      <path
         d="M 0,0 H 1387.5 V 1809.1324 H 0 Z"
         transform="matrix(0.33441107,0,0,0.33441107,-343.50001,-465)"
         clip-rule="evenodd"
         id="path59" />
    </clipPath>
    <clipPath
       clipPathUnits="userSpaceOnUse"
       id="clipPath61">
      <path
         d="M 0,0 H 1387.5 V 1809.1324 H 0 Z"
         transform="matrix(0.33441443,0,0,0.33441443,-0.50000001,-0.50000001)"
         clip-rule="evenodd"
         id="path61" />
    </clipPath>
    <clipPath
       clipPathUnits="userSpaceOnUse"
       id="clipPath62">
      <path
         d="M 0,0 H 1387.5 V 1809.1324 H 0 Z"
         transform="matrix(0.33441107,0,0,0.33441107,-88.234375,-545)"
         clip-rule="evenodd"
         id="path62" />
    </clipPath>
    <clipPath
       clipPathUnits="userSpaceOnUse"
       id="clipPath64">
      <path
         d="M 0,0 H 1387.5 V 1809.1324 H 0 Z"
         transform="matrix(0.33441443,0,0,0.33441443,-0.50000001,-0.50000001)"
         clip-rule="evenodd"
         id="path64" />
    </clipPath>
    <clipPath
       clipPathUnits="userSpaceOnUse"
       id="clipPath65">
      <path
         d="M 0,0 H 1387.5 V 1809.1324 H 0 Z"
         transform="matrix(0.33441107,0,0,0.33441107,-276.71875,-545)"
         clip-rule="evenodd"
         id="path65" />
    </clipPath>
  </defs>
  <sodipodi:namedview
     id="namedview1"
     pagecolor="#ffffff"
     bordercolor="#000000"
     borderopacity="0.25"
     inkscape:showpageshadow="2"
     inkscape:pageopacity="0.0"
     inkscape:pagecheckerboard="0"
     inkscape:deskcolor="#d1d1d1">
    <inkscape:page
       x="0"
       y="0"
       inkscape:label="1"
       id="page1"
       width="444.16"
       height="582.71997"
       margin="0"
       bleed="0" />
  </sodipodi:namedview>
  <g
     id="g1"
     inkscape:groupmode="layer"
     inkscape:label="1">
    <path
       id="path1"
       d="M 0,0 H 464 V 608 H 0 Z"
       style="fill:#ffffff;fill-opacity:1;fill-rule:nonzero;stroke:none"
       transform="scale(0.95689647)"
       clip-path="url(#clipPath2)" />
    <path
       id="path3"
       d="M 1,33 H 461 V 603.01001 H 1 Z"
       style="fill:#ffffff;fill-opacity:1;fill-rule:nonzero;stroke:#000000;stroke-width:1;stroke-linecap:butt;stroke-linejoin:miter;stroke-miterlimit:10;stroke-dasharray:none;stroke-opacity:1"
       transform="matrix(0.95689647,0,0,0.95689647,0.47844824,0.47844824)"
       clip-path="url(#clipPath4)" />
    <text
       id="text4"
       xml:space="preserve"
       transform="matrix(0.95690607,0,0,0.95690607,204.82276,19.138121)"
       clip-path="url(#clipPath5)"><tspan
         style="font-variant:normal;font-weight:700;font-size:22px;font-family:Helvetica;writing-mode:lr-tb;fill:#000000;fill-opacity:1;fill-rule:nonzero;stroke:none"
         x="0 15.887695 28.123047 41.561523 47.673828"
         y="0"
         sodipodi:role="line"
         id="tspan4">Redis</tspan></text>
    <path
       id="path6"
       d="m 21,53 h 160 v 60 H 21 Z"
       style="fill:#dae8fc;fill-opacity:1;fill-rule:nonzero;stroke:#6c8ebf;stroke-width:1;stroke-linecap:butt;stroke-linejoin:miter;stroke-miterlimit:10;stroke-dasharray:none;stroke-opacity:1"
       transform="matrix(0.95689647,0,0,0.95689647,0.47844824,0.47844824)"
       clip-path="url(#clipPath7)" />
    <text
       id="text7"
       xml:space="preserve"
       transform="matrix(0.95690607,0,0,0.95690607,81.800518,86.121546)"
       clip-path="url(#clipPath8)"><tspan
         style="font-variant:normal;font-weight:normal;font-size:18px;font-family:Helvetica;writing-mode:lr-tb;fill:#000000;fill-opacity:1;fill-rule:nonzero;stroke:none"
         x="0 12.005859 22.016602"
         y="0"
         sodipodi:role="line"
         id="tspan7">Key</tspan></text>
    <path
       id="path9"
       d="m 181,53 h 250 v 60 H 181 Z"
       style="fill:#dae8fc;fill-opacity:1;fill-rule:nonzero;stroke:#6c8ebf;stroke-width:1;stroke-linecap:butt;stroke-linejoin:miter;stroke-miterlimit:10;stroke-dasharray:none;stroke-opacity:1"
       transform="matrix(0.95689647,0,0,0.95689647,0.47844824,0.47844824)"
       clip-path="url(#clipPath10)" />
    <text
       id="text10"
       xml:space="preserve"
       transform="matrix(0.95690607,0,0,0.95690607,271.41744,86.121546)"
       clip-path="url(#clipPath11)"><tspan
         style="font-variant:normal;font-weight:normal;font-size:18px;font-family:Helvetica;writing-mode:lr-tb;fill:#000000;fill-opacity:1;fill-rule:nonzero;stroke:none"
         x="0 10.678711 20.689453 24.688477 34.699219"
         y="0"
         sodipodi:role="line"
         id="tspan10">Value</tspan></text>
    <path
       id="path12"
       d="M 21,163 H 181 V 313 H 21 Z"
       style="fill:#ffffff;fill-opacity:1;fill-rule:nonzero;stroke:#000000;stroke-width:1;stroke-linecap:butt;stroke-linejoin:miter;stroke-miterlimit:10;stroke-dasharray:none;stroke-opacity:1"
       transform="matrix(0.95689647,0,0,0.95689647,0.47844824,0.47844824)"
       clip-path="url(#clipPath13)" />
    <text
       id="text13"
       xml:space="preserve"
       transform="matrix(0.95690607,0,0,0.95690607,56.337845,234.44199)"
       clip-path="url(#clipPath14)"><tspan
         style="font-variant:normal;font-weight:normal;font-size:22px;font-family:Helvetica;writing-mode:lr-tb;fill:#000000;fill-opacity:1;fill-rule:nonzero;stroke:none"
         x="0 4.2001953 15.200195 27.435547 39.670898 51.90625 56.793945 67.793945 80.029297"
         y="0"
         sodipodi:role="line"
         id="tspan13">'spanish'</tspan></text>
    <path
       id="path15"
       d="m 181,113 h 125 v 50 H 181 Z"
       style="fill:#dae8fc;fill-opacity:1;fill-rule:nonzero;stroke:#6c8ebf;stroke-width:1;stroke-linecap:butt;stroke-linejoin:miter;stroke-miterlimit:10;stroke-dasharray:none;stroke-opacity:1"
       transform="matrix(0.95689647,0,0,0.95689647,0.47844824,0.47844824)"
       clip-path="url(#clipPath16)" />
    <text
       id="text16"
       xml:space="preserve"
       transform="matrix(0.95690607,0,0,0.95690607,188.48059,138.75138)"
       clip-path="url(#clipPath17)"><tspan
         style="font-variant:normal;font-weight:normal;font-size:18px;font-family:Helvetica;writing-mode:lr-tb;fill:#000000;fill-opacity:1;fill-rule:nonzero;stroke:none"
         x="0 12.999023 23.009766 32.009766 37.010742 47.021484 57.032227 62.033203 74.039062 84.049805"
         y="0"
         sodipodi:role="line"
         id="tspan16">Nested Key</tspan></text>
    <path
       id="path18"
       d="m 306,113 h 125 v 50 H 306 Z"
       style="fill:#dae8fc;fill-opacity:1;fill-rule:nonzero;stroke:#6c8ebf;stroke-width:1;stroke-linecap:butt;stroke-linejoin:miter;stroke-miterlimit:10;stroke-dasharray:none;stroke-opacity:1"
       transform="matrix(0.95689647,0,0,0.95689647,0.47844824,0.47844824)"
       clip-path="url(#clipPath19)" />
    <text
       id="text19"
       xml:space="preserve"
       transform="matrix(0.95690607,0,0,0.95690607,301.54503,138.75138)"
       clip-path="url(#clipPath20)"><tspan
         style="font-variant:normal;font-weight:normal;font-size:18px;font-family:Helvetica;writing-mode:lr-tb;fill:#000000;fill-opacity:1;fill-rule:nonzero;stroke:none"
         x="0 12.999023 23.009766 32.009766 37.010742 47.021484 57.032227 62.033203 72.711914 82.722656 86.72168 96.732422"
         y="0"
         sodipodi:role="line"
         id="tspan19">Nested Value</tspan></text>
    <path
       id="path21"
       d="m 181,163 h 125 v 50 H 181 Z"
       style="fill:#ffffff;fill-opacity:1;fill-rule:nonzero;stroke:#000000;stroke-width:1;stroke-linecap:butt;stroke-linejoin:miter;stroke-miterlimit:10;stroke-dasharray:none;stroke-opacity:1"
       transform="matrix(0.95689647,0,0,0.95689647,0.47844824,0.47844824)"
       clip-path="url(#clipPath22)" />
    <text
       id="text22"
       xml:space="preserve"
       transform="matrix(0.95690607,0,0,0.95690607,213.76385,186.59668)"
       clip-path="url(#clipPath23)"><tspan
         style="font-variant:normal;font-weight:normal;font-size:22px;font-family:Helvetica;writing-mode:lr-tb;fill:#000000;fill-opacity:1;fill-rule:nonzero;stroke:none"
         x="0 4.2001953 11.526367 23.761719 35.99707"
         y="0"
         sodipodi:role="line"
         id="tspan22">'red'</tspan></text>
    <path
       id="path24"
       d="m 306,163 h 125 v 50 H 306 Z"
       style="fill:#ffffff;fill-opacity:1;fill-rule:nonzero;stroke:#000000;stroke-width:1;stroke-linecap:butt;stroke-linejoin:miter;stroke-miterlimit:10;stroke-dasharray:none;stroke-opacity:1"
       transform="matrix(0.95689647,0,0,0.95689647,0.47844824,0.47844824)"
       clip-path="url(#clipPath25)" />
    <text
       id="text25"
       xml:space="preserve"
       transform="matrix(0.95690607,0,0,0.95690607,331.04465,186.59668)"
       clip-path="url(#clipPath26)"><tspan
         style="font-variant:normal;font-weight:normal;font-size:22px;font-family:Helvetica;writing-mode:lr-tb;fill:#000000;fill-opacity:1;fill-rule:nonzero;stroke:none"
         x="0 4.2001953 11.526367 23.761719 28.649414 40.884766"
         y="0"
         sodipodi:role="line"
         id="tspan25">'rojo'</tspan></text>
    <path
       id="path27"
       d="m 181,213 h 125 v 50 H 181 Z"
       style="fill:#ffffff;fill-opacity:1;fill-rule:nonzero;stroke:#000000;stroke-width:1;stroke-linecap:butt;stroke-linejoin:miter;stroke-miterlimit:10;stroke-dasharray:none;stroke-opacity:1"
       transform="matrix(0.95689647,0,0,0.95689647,0.47844824,0.47844824)"
       clip-path="url(#clipPath28)" />
    <text
       id="text28"
       xml:space="preserve"
       transform="matrix(0.95690607,0,0,0.95690607,196.2106,234.44199)"
       clip-path="url(#clipPath29)"><tspan
         style="font-variant:normal;font-weight:normal;font-size:22px;font-family:Helvetica;writing-mode:lr-tb;fill:#000000;fill-opacity:1;fill-rule:nonzero;stroke:none"
         x="0 4.2001953 16.435547 23.761719 35.99707 48.232422 60.467773 72.703125"
         y="0"
         sodipodi:role="line"
         id="tspan28">'orange'</tspan></text>
    <path
       id="path30"
       d="m 306,213 h 125 v 50 H 306 Z"
       style="fill:#ffffff;fill-opacity:1;fill-rule:nonzero;stroke:#000000;stroke-width:1;stroke-linecap:butt;stroke-linejoin:miter;stroke-miterlimit:10;stroke-dasharray:none;stroke-opacity:1"
       transform="matrix(0.95689647,0,0,0.95689647,0.47844824,0.47844824)"
       clip-path="url(#clipPath31)" />
    <text
       id="text31"
       xml:space="preserve"
       transform="matrix(0.95690607,0,0,0.95690607,313.47645,234.44199)"
       clip-path="url(#clipPath32)"><tspan
         style="font-variant:normal;font-weight:normal;font-size:22px;font-family:Helvetica;writing-mode:lr-tb;fill:#000000;fill-opacity:1;fill-rule:nonzero;stroke:none"
         x="0 4.2001953 16.435547 28.670898 35.99707 48.232422 60.467773 65.355469 77.59082"
         y="0"
         sodipodi:role="line"
         id="tspan31">'naranja'</tspan></text>
    <path
       id="path33"
       d="m 181,263 h 125 v 50 H 181 Z"
       style="fill:#ffffff;fill-opacity:1;fill-rule:nonzero;stroke:#000000;stroke-width:1;stroke-linecap:butt;stroke-linejoin:miter;stroke-miterlimit:10;stroke-dasharray:none;stroke-opacity:1"
       transform="matrix(0.95689647,0,0,0.95689647,0.47844824,0.47844824)"
       clip-path="url(#clipPath34)" />
    <text
       id="text34"
       xml:space="preserve"
       transform="matrix(0.95690607,0,0,0.95690607,209.08398,282.28729)"
       clip-path="url(#clipPath35)"><tspan
         style="font-variant:normal;font-weight:normal;font-size:22px;font-family:Helvetica;writing-mode:lr-tb;fill:#000000;fill-opacity:1;fill-rule:nonzero;stroke:none"
         x="0 4.2001953 16.435547 21.323242 33.558594 45.793945"
         y="0"
         sodipodi:role="line"
         id="tspan34">'blue'</tspan></text>
    <path
       id="path36"
       d="m 306,263 h 125 v 50 H 306 Z"
       style="fill:#ffffff;fill-opacity:1;fill-rule:nonzero;stroke:#000000;stroke-width:1;stroke-linecap:butt;stroke-linejoin:miter;stroke-miterlimit:10;stroke-dasharray:none;stroke-opacity:1"
       transform="matrix(0.95689647,0,0,0.95689647,0.47844824,0.47844824)"
       clip-path="url(#clipPath37)" />
    <text
       id="text37"
       xml:space="preserve"
       transform="matrix(0.95690607,0,0,0.95690607,329.28036,282.28729)"
       clip-path="url(#clipPath38)"><tspan
         style="font-variant:normal;font-weight:normal;font-size:22px;font-family:Helvetica;writing-mode:lr-tb;fill:#000000;fill-opacity:1;fill-rule:nonzero;stroke:none"
         x="0 4.2001953 16.435547 27.435547 39.670898 44.558594"
         y="0"
         sodipodi:role="line"
         id="tspan37">'azul'</tspan></text>
    <path
       id="path39"
       d="M 21,333 H 181 V 483 H 21 Z"
       style="fill:#ffffff;fill-opacity:1;fill-rule:nonzero;stroke:#000000;stroke-width:1;stroke-linecap:butt;stroke-linejoin:miter;stroke-miterlimit:10;stroke-dasharray:none;stroke-opacity:1"
       transform="matrix(0.95689647,0,0,0.95689647,0.47844824,0.47844824)"
       clip-path="url(#clipPath40)" />
    <text
       id="text40"
       xml:space="preserve"
       transform="matrix(0.95690607,0,0,0.95690607,56.935911,397.11602)"
       clip-path="url(#clipPath41)"><tspan
         style="font-variant:normal;font-weight:normal;font-size:22px;font-family:Helvetica;writing-mode:lr-tb;fill:#000000;fill-opacity:1;fill-rule:nonzero;stroke:none"
         x="0 4.2001953 16.435547 28.670898 35.99707 54.323242 66.558594 78.793945"
         y="0"
         sodipodi:role="line"
         id="tspan40">'german'</tspan></text>
    <path
       id="path42"
       d="m 181,333 h 125 v 50 H 181 Z"
       style="fill:#ffffff;fill-opacity:1;fill-rule:nonzero;stroke:#000000;stroke-width:1;stroke-linecap:butt;stroke-linejoin:miter;stroke-miterlimit:10;stroke-dasharray:none;stroke-opacity:1"
       transform="matrix(0.95689647,0,0,0.95689647,0.47844824,0.47844824)"
       clip-path="url(#clipPath43)" />
    <text
       id="text43"
       xml:space="preserve"
       transform="matrix(0.95690607,0,0,0.95690607,213.76385,349.27072)"
       clip-path="url(#clipPath44)"><tspan
         style="font-variant:normal;font-weight:normal;font-size:22px;font-family:Helvetica;writing-mode:lr-tb;fill:#000000;fill-opacity:1;fill-rule:nonzero;stroke:none"
         x="0 4.2001953 11.526367 23.761719 35.99707"
         y="0"
         sodipodi:role="line"
         id="tspan43">'red'</tspan></text>
    <path
       id="path45"
       d="m 306,333 h 125 v 50 H 306 Z"
       style="fill:#ffffff;fill-opacity:1;fill-rule:nonzero;stroke:#000000;stroke-width:1;stroke-linecap:butt;stroke-linejoin:miter;stroke-miterlimit:10;stroke-dasharray:none;stroke-opacity:1"
       transform="matrix(0.95689647,0,0,0.95689647,0.47844824,0.47844824)"
       clip-path="url(#clipPath46)" />
    <text
       id="text46"
       xml:space="preserve"
       transform="matrix(0.95690607,0,0,0.95690607,336.30763,349.27072)"
       clip-path="url(#clipPath47)"><tspan
         style="font-variant:normal;font-weight:normal;font-size:22px;font-family:Helvetica;writing-mode:lr-tb;fill:#000000;fill-opacity:1;fill-rule:nonzero;stroke:none"
         x="0 4.2001953 11.526367 23.761719 29.874023"
         y="0"
         sodipodi:role="line"
         id="tspan46">'rot'</tspan></text>
    <path
       id="path48"
       d="m 181,383 h 125 v 50 H 181 Z"
       style="fill:#ffffff;fill-opacity:1;fill-rule:nonzero;stroke:#000000;stroke-width:1;stroke-linecap:butt;stroke-linejoin:miter;stroke-miterlimit:10;stroke-dasharray:none;stroke-opacity:1"
       transform="matrix(0.95689647,0,0,0.95689647,0.47844824,0.47844824)"
       clip-path="url(#clipPath49)" />
    <text
       id="text49"
       xml:space="preserve"
       transform="matrix(0.95690607,0,0,0.95690607,196.2106,397.11602)"
       clip-path="url(#clipPath50)"><tspan
         style="font-variant:normal;font-weight:normal;font-size:22px;font-family:Helvetica;writing-mode:lr-tb;fill:#000000;fill-opacity:1;fill-rule:nonzero;stroke:none"
         x="0 4.2001953 16.435547 23.761719 35.99707 48.232422 60.467773 72.703125"
         y="0"
         sodipodi:role="line"
         id="tspan49">'orange'</tspan></text>
    <path
       id="path51"
       d="m 306,383 h 125 v 50 H 306 Z"
       style="fill:#ffffff;fill-opacity:1;fill-rule:nonzero;stroke:#000000;stroke-width:1;stroke-linecap:butt;stroke-linejoin:miter;stroke-miterlimit:10;stroke-dasharray:none;stroke-opacity:1"
       transform="matrix(0.95689647,0,0,0.95689647,0.47844824,0.47844824)"
       clip-path="url(#clipPath52)" />
    <text
       id="text52"
       xml:space="preserve"
       transform="matrix(0.95690607,0,0,0.95690607,315.82386,397.11602)"
       clip-path="url(#clipPath53)"><tspan
         style="font-variant:normal;font-weight:normal;font-size:22px;font-family:Helvetica;writing-mode:lr-tb;fill:#000000;fill-opacity:1;fill-rule:nonzero;stroke:none"
         x="0 4.2001953 16.435547 23.761719 35.99707 48.232422 60.467773 72.703125"
         y="0"
         sodipodi:role="line"
         id="tspan52">'orange'</tspan></text>
    <path
       id="path54"
       d="m 181,433 h 125 v 50 H 181 Z"
       style="fill:#ffffff;fill-opacity:1;fill-rule:nonzero;stroke:#000000;stroke-width:1;stroke-linecap:butt;stroke-linejoin:miter;stroke-miterlimit:10;stroke-dasharray:none;stroke-opacity:1"
       transform="matrix(0.95689647,0,0,0.95689647,0.47844824,0.47844824)"
       clip-path="url(#clipPath55)" />
    <text
       id="text55"
       xml:space="preserve"
       transform="matrix(0.95690607,0,0,0.95690607,209.08398,444.96132)"
       clip-path="url(#clipPath56)"><tspan
         style="font-variant:normal;font-weight:normal;font-size:22px;font-family:Helvetica;writing-mode:lr-tb;fill:#000000;fill-opacity:1;fill-rule:nonzero;stroke:none"
         x="0 4.2001953 16.435547 21.323242 33.558594 45.793945"
         y="0"
         sodipodi:role="line"
         id="tspan55">'blue'</tspan></text>
    <path
       id="path57"
       d="m 306,433 h 125 v 50 H 306 Z"
       style="fill:#ffffff;fill-opacity:1;fill-rule:nonzero;stroke:#000000;stroke-width:1;stroke-linecap:butt;stroke-linejoin:miter;stroke-miterlimit:10;stroke-dasharray:none;stroke-opacity:1"
       transform="matrix(0.95689647,0,0,0.95689647,0.47844824,0.47844824)"
       clip-path="url(#clipPath58)" />
    <text
       id="text58"
       xml:space="preserve"
       transform="matrix(0.95690607,0,0,0.95690607,328.69724,444.96132)"
       clip-path="url(#clipPath59)"><tspan
         style="font-variant:normal;font-weight:normal;font-size:22px;font-family:Helvetica;writing-mode:lr-tb;fill:#000000;fill-opacity:1;fill-rule:nonzero;stroke:none"
         x="0 4.2001953 16.435547 21.323242 33.558594 45.793945"
         y="0"
         sodipodi:role="line"
         id="tspan58">'blau'</tspan></text>
    <path
       id="path60"
       d="m 21,503.01001 h 160 v 70 H 21 Z"
       style="fill:#ffffff;fill-opacity:1;fill-rule:nonzero;stroke:#000000;stroke-width:1;stroke-linecap:butt;stroke-linejoin:miter;stroke-miterlimit:10;stroke-dasharray:none;stroke-opacity:1"
       transform="matrix(0.95689647,0,0,0.95689647,0.47844824,0.47844824)"
       clip-path="url(#clipPath61)" />
    <text
       id="text61"
       xml:space="preserve"
       transform="matrix(0.95690607,0,0,0.95690607,84.432009,521.51381)"
       clip-path="url(#clipPath62)"><tspan
         style="font-variant:normal;font-weight:normal;font-size:22px;font-family:Helvetica;writing-mode:lr-tb;fill:#000000;fill-opacity:1;fill-rule:nonzero;stroke:none"
         x="0 4.2001953 16.435547 21.323242"
         y="0"
         sodipodi:role="line"
         id="tspan61">'hi'</tspan></text>
    <path
       id="path63"
       d="m 181,503.01001 h 250 v 70 H 181 Z"
       style="fill:#ffffff;fill-opacity:1;fill-rule:nonzero;stroke:#000000;stroke-width:1;stroke-linecap:butt;stroke-linejoin:miter;stroke-miterlimit:10;stroke-dasharray:none;stroke-opacity:1"
       transform="matrix(0.95689647,0,0,0.95689647,0.47844824,0.47844824)"
       clip-path="url(#clipPath64)" />
    <text
       id="text64"
       xml:space="preserve"
       transform="matrix(0.95690607,0,0,0.95690607,264.79385,521.51381)"
       clip-path="url(#clipPath65)"><tspan
         style="font-variant:normal;font-weight:normal;font-size:22px;font-family:Helvetica;writing-mode:lr-tb;fill:#000000;fill-opacity:1;fill-rule:nonzero;stroke:none"
         x="0 4.2001953 10.3125 22.547852 34.783203 42.109375 54.344727"
         y="0"
         sodipodi:role="line"
         id="tspan64">'there'</tspan></text>
  </g>
</svg>
