<?xml version="1.0" encoding="UTF-8" standalone="no"?>
<!-- Created with Inkscape (http://www.inkscape.org/) -->

<svg
   version="1.1"
   id="svg1"
   width="482.55997"
   height="333.44"
   viewBox="0 0 482.55997 333.44"
   sodipodi:docname="node-20.pdf"
   xmlns:inkscape="http://www.inkscape.org/namespaces/inkscape"
   xmlns:sodipodi="http://sodipodi.sourceforge.net/DTD/sodipodi-0.dtd"
   xmlns="http://www.w3.org/2000/svg"
   xmlns:svg="http://www.w3.org/2000/svg">
  <defs
     id="defs1">
    <clipPath
       clipPathUnits="userSpaceOnUse"
       id="clipPath2">
      <path
         d="M 0,0 H 1508.3333 V 1041.4681 H 0 Z"
         transform="scale(0.33414367)"
         clip-rule="evenodd"
         id="path2" />
    </clipPath>
    <clipPath
       clipPathUnits="userSpaceOnUse"
       id="clipPath4">
      <path
         d="M 0,0 H 1508.3333 V 1032.49 H 0 Z"
         transform="matrix(0.33414367,0,0,0.33414367,-0.5,-0.5)"
         clip-rule="evenodd"
         id="path4" />
    </clipPath>
    <clipPath
       clipPathUnits="userSpaceOnUse"
       id="clipPath5">
      <path
         d="M 0,0 H 1508.3333 V 1032.49 H 0 Z"
         transform="matrix(0.33414032,0,0,0.33414032,-214.04688,-20)"
         clip-rule="evenodd"
         id="path5" />
    </clipPath>
    <clipPath
       clipPathUnits="userSpaceOnUse"
       id="clipPath7">
      <path
         d="M 0,0 H 1508.3333 V 1032.49 H 0 Z"
         transform="matrix(0.33414367,0,0,0.33414367,-0.5,-0.5)"
         clip-rule="evenodd"
         id="path7" />
    </clipPath>
    <clipPath
       clipPathUnits="userSpaceOnUse"
       id="clipPath8">
      <path
         d="M 0,0 H 1508.3333 V 1032.49 H 0 Z"
         transform="matrix(0.33414032,0,0,0.33414032,-105.48437,-90.000001)"
         clip-rule="evenodd"
         id="path8" />
    </clipPath>
    <clipPath
       clipPathUnits="userSpaceOnUse"
       id="clipPath10">
      <path
         d="M 0,0 H 1508.3333 V 1032.49 H 0 Z"
         transform="matrix(0.33414367,0,0,0.33414367,-0.5,-0.5)"
         clip-rule="evenodd"
         id="path10" />
    </clipPath>
    <clipPath
       clipPathUnits="userSpaceOnUse"
       id="clipPath11">
      <path
         d="M 0,0 H 1508.3333 V 1032.49 H 0 Z"
         transform="matrix(0.33414032,0,0,0.33414032,-323.64063,-90.000001)"
         clip-rule="evenodd"
         id="path11" />
    </clipPath>
    <clipPath
       clipPathUnits="userSpaceOnUse"
       id="clipPath13">
      <path
         d="M 0,0 H 1508.3333 V 1032.49 H 0 Z"
         transform="matrix(0.33414367,0,0,0.33414367,-0.5,-0.5)"
         clip-rule="evenodd"
         id="path13" />
    </clipPath>
    <clipPath
       clipPathUnits="userSpaceOnUse"
       id="clipPath14">
      <path
         d="M 0,0 H 1508.3333 V 1032.49 H 0 Z"
         transform="matrix(0.33414032,0,0,0.33414032,-98.4375,-145)"
         clip-rule="evenodd"
         id="path14" />
    </clipPath>
    <clipPath
       clipPathUnits="userSpaceOnUse"
       id="clipPath16">
      <path
         d="M 0,0 H 1508.3333 V 1032.49 H 0 Z"
         transform="matrix(0.33414367,0,0,0.33414367,-0.5,-0.5)"
         clip-rule="evenodd"
         id="path16" />
    </clipPath>
    <clipPath
       clipPathUnits="userSpaceOnUse"
       id="clipPath17">
      <path
         d="M 0,0 H 1508.3333 V 1032.49 H 0 Z"
         transform="matrix(0.33414032,0,0,0.33414032,-292.17188,-145)"
         clip-rule="evenodd"
         id="path17" />
    </clipPath>
    <clipPath
       clipPathUnits="userSpaceOnUse"
       id="clipPath19">
      <path
         d="M 0,0 H 1508.3333 V 1032.49 H 0 Z"
         transform="matrix(0.33414367,0,0,0.33414367,-0.5,-0.5)"
         clip-rule="evenodd"
         id="path19" />
    </clipPath>
    <clipPath
       clipPathUnits="userSpaceOnUse"
       id="clipPath20">
      <path
         d="M 0,0 H 1508.3333 V 1032.49 H 0 Z"
         transform="matrix(0.33414032,0,0,0.33414032,-98.4375,-195.00001)"
         clip-rule="evenodd"
         id="path20" />
    </clipPath>
    <clipPath
       clipPathUnits="userSpaceOnUse"
       id="clipPath22">
      <path
         d="M 0,0 H 1508.3333 V 1032.49 H 0 Z"
         transform="matrix(0.33414367,0,0,0.33414367,-0.5,-0.5)"
         clip-rule="evenodd"
         id="path22" />
    </clipPath>
    <clipPath
       clipPathUnits="userSpaceOnUse"
       id="clipPath23">
      <path
         d="M 0,0 H 1508.3333 V 1032.49 H 0 Z"
         transform="matrix(0.33414032,0,0,0.33414032,-319.07813,-195.00001)"
         clip-rule="evenodd"
         id="path23" />
    </clipPath>
    <clipPath
       clipPathUnits="userSpaceOnUse"
       id="clipPath25">
      <path
         d="M 0,0 H 1508.3333 V 1032.49 H 0 Z"
         transform="matrix(0.33414367,0,0,0.33414367,-0.5,-0.5)"
         clip-rule="evenodd"
         id="path25" />
    </clipPath>
    <clipPath
       clipPathUnits="userSpaceOnUse"
       id="clipPath26">
      <path
         d="M 0,0 H 1508.3333 V 1032.49 H 0 Z"
         transform="matrix(0.33414032,0,0,0.33414032,-98.4375,-245)"
         clip-rule="evenodd"
         id="path26" />
    </clipPath>
    <clipPath
       clipPathUnits="userSpaceOnUse"
       id="clipPath28">
      <path
         d="M 0,0 H 1508.3333 V 1032.49 H 0 Z"
         transform="matrix(0.33414367,0,0,0.33414367,-0.5,-0.5)"
         clip-rule="evenodd"
         id="path28" />
    </clipPath>
    <clipPath
       clipPathUnits="userSpaceOnUse"
       id="clipPath29">
      <path
         d="M 0,0 H 1508.3333 V 1032.49 H 0 Z"
         transform="matrix(0.33414032,0,0,0.33414032,-292.17188,-245)"
         clip-rule="evenodd"
         id="path29" />
    </clipPath>
  </defs>
  <sodipodi:namedview
     id="namedview1"
     pagecolor="#ffffff"
     bordercolor="#000000"
     borderopacity="0.25"
     inkscape:showpageshadow="2"
     inkscape:pageopacity="0.0"
     inkscape:pagecheckerboard="0"
     inkscape:deskcolor="#d1d1d1">
    <inkscape:page
       x="0"
       y="0"
       inkscape:label="1"
       id="page1"
       width="482.55997"
       height="333.44"
       margin="0"
       bleed="0" />
  </sodipodi:namedview>
  <g
     id="g1"
     inkscape:groupmode="layer"
     inkscape:label="1">
    <path
       id="path1"
       d="M 0,0 H 504 V 348 H 0 Z"
       style="fill:#ffffff;fill-opacity:1;fill-rule:nonzero;stroke:none"
       transform="scale(0.95767186)"
       clip-path="url(#clipPath2)" />
    <path
       id="path3"
       d="M 1,33 H 501.01001 V 343 H 1 Z"
       style="fill:#ffffff;fill-opacity:1;fill-rule:nonzero;stroke:#000000;stroke-width:1;stroke-linecap:butt;stroke-linejoin:miter;stroke-miterlimit:10;stroke-dasharray:none;stroke-opacity:1"
       transform="matrix(0.95767186,0,0,0.95767186,0.47883593,0.47883593)"
       clip-path="url(#clipPath4)" />
    <text
       id="text4"
       xml:space="preserve"
       transform="matrix(0.95768146,0,0,0.95768146,204.98873,19.153629)"
       clip-path="url(#clipPath5)"><tspan
         style="font-variant:normal;font-weight:700;font-size:22px;font-family:Helvetica;writing-mode:lr-tb;fill:#000000;fill-opacity:1;fill-rule:nonzero;stroke:none"
         x="0 15.887695 28.123047 41.561523 47.673828"
         y="0"
         sodipodi:role="line"
         id="tspan4">Redis</tspan></text>
    <path
       id="path6"
       d="m 21,53 h 200 v 60 H 21 Z"
       style="fill:#dae8fc;fill-opacity:1;fill-rule:nonzero;stroke:#6c8ebf;stroke-width:1;stroke-linecap:butt;stroke-linejoin:miter;stroke-miterlimit:10;stroke-dasharray:none;stroke-opacity:1"
       transform="matrix(0.95767186,0,0,0.95767186,0.47883593,0.47883593)"
       clip-path="url(#clipPath7)" />
    <text
       id="text7"
       xml:space="preserve"
       transform="matrix(0.95768146,0,0,0.95768146,101.02043,86.191332)"
       clip-path="url(#clipPath8)"><tspan
         style="font-variant:normal;font-weight:normal;font-size:18px;font-family:Helvetica;writing-mode:lr-tb;fill:#000000;fill-opacity:1;fill-rule:nonzero;stroke:none"
         x="0 12.005859 22.016602"
         y="0"
         sodipodi:role="line"
         id="tspan7">Key</tspan></text>
    <path
       id="path9"
       d="m 221,53 h 250 v 60 H 221 Z"
       style="fill:#dae8fc;fill-opacity:1;fill-rule:nonzero;stroke:#6c8ebf;stroke-width:1;stroke-linecap:butt;stroke-linejoin:miter;stroke-miterlimit:10;stroke-dasharray:none;stroke-opacity:1"
       transform="matrix(0.95767186,0,0,0.95767186,0.47883593,0.47883593)"
       clip-path="url(#clipPath10)" />
    <text
       id="text10"
       xml:space="preserve"
       transform="matrix(0.95768146,0,0,0.95768146,309.94463,86.191332)"
       clip-path="url(#clipPath11)"><tspan
         style="font-variant:normal;font-weight:normal;font-size:18px;font-family:Helvetica;writing-mode:lr-tb;fill:#000000;fill-opacity:1;fill-rule:nonzero;stroke:none"
         x="0 10.678711 20.689453 24.688477 34.699219"
         y="0"
         sodipodi:role="line"
         id="tspan10">Value</tspan></text>
    <path
       id="path12"
       d="m 21,113 h 200 v 50 H 21 Z"
       style="fill:#ffffff;fill-opacity:1;fill-rule:nonzero;stroke:#000000;stroke-width:1;stroke-linecap:butt;stroke-linejoin:miter;stroke-miterlimit:10;stroke-dasharray:none;stroke-opacity:1"
       transform="matrix(0.95767186,0,0,0.95767186,0.47883593,0.47883593)"
       clip-path="url(#clipPath13)" />
    <text
       id="text13"
       xml:space="preserve"
       transform="matrix(0.95768146,0,0,0.95768146,94.271769,138.86381)"
       clip-path="url(#clipPath14)"><tspan
         style="font-variant:normal;font-weight:normal;font-size:22px;font-family:Helvetica;writing-mode:lr-tb;fill:#000000;fill-opacity:1;fill-rule:nonzero;stroke:none"
         x="0 4.2001953 16.435547 28.670898 40.90625"
         y="0"
         sodipodi:role="line"
         id="tspan13">'123'</tspan></text>
    <path
       id="path15"
       d="m 221,113 h 250 v 50 H 221 Z"
       style="fill:#ffffff;fill-opacity:1;fill-rule:nonzero;stroke:#000000;stroke-width:1;stroke-linecap:butt;stroke-linejoin:miter;stroke-miterlimit:10;stroke-dasharray:none;stroke-opacity:1"
       transform="matrix(0.95767186,0,0,0.95767186,0.47883593,0.47883593)"
       clip-path="url(#clipPath16)" />
    <text
       id="text16"
       xml:space="preserve"
       transform="matrix(0.95768146,0,0,0.95768146,279.80759,138.86381)"
       clip-path="url(#clipPath17)"><tspan
         style="font-variant:normal;font-weight:normal;font-size:22px;font-family:Helvetica;writing-mode:lr-tb;fill:#000000;fill-opacity:1;fill-rule:nonzero;stroke:none"
         x="0 6.1123047 18.347656 23.235352 35.470703 47.706055 53.818359 59.930664 72.166016 77.053711 89.289062 101.52441"
         y="0"
         sodipodi:role="line"
         id="tspan16">[blog, blog]</tspan></text>
    <path
       id="path18"
       d="m 21,163 h 200 v 50 H 21 Z"
       style="fill:#ffffff;fill-opacity:1;fill-rule:nonzero;stroke:#000000;stroke-width:1;stroke-linecap:butt;stroke-linejoin:miter;stroke-miterlimit:10;stroke-dasharray:none;stroke-opacity:1"
       transform="matrix(0.95767186,0,0,0.95767186,0.47883593,0.47883593)"
       clip-path="url(#clipPath19)" />
    <text
       id="text19"
       xml:space="preserve"
       transform="matrix(0.95768146,0,0,0.95768146,94.271769,186.74789)"
       clip-path="url(#clipPath20)"><tspan
         style="font-variant:normal;font-weight:normal;font-size:22px;font-family:Helvetica;writing-mode:lr-tb;fill:#000000;fill-opacity:1;fill-rule:nonzero;stroke:none"
         x="0 4.2001953 16.435547 28.670898 40.90625"
         y="0"
         sodipodi:role="line"
         id="tspan19">'343'</tspan></text>
    <path
       id="path21"
       d="m 221,163 h 250 v 50 H 221 Z"
       style="fill:#ffffff;fill-opacity:1;fill-rule:nonzero;stroke:#000000;stroke-width:1;stroke-linecap:butt;stroke-linejoin:miter;stroke-miterlimit:10;stroke-dasharray:none;stroke-opacity:1"
       transform="matrix(0.95767186,0,0,0.95767186,0.47883593,0.47883593)"
       clip-path="url(#clipPath22)" />
    <text
       id="text22"
       xml:space="preserve"
       transform="matrix(0.95768146,0,0,0.95768146,305.57521,186.74789)"
       clip-path="url(#clipPath23)"><tspan
         style="font-variant:normal;font-weight:normal;font-size:22px;font-family:Helvetica;writing-mode:lr-tb;fill:#000000;fill-opacity:1;fill-rule:nonzero;stroke:none"
         x="0 6.1123047 18.347656 23.235352 35.470703 47.706055"
         y="0"
         sodipodi:role="line"
         id="tspan22">[blog]</tspan></text>
    <path
       id="path24"
       d="m 21,213 h 200 v 50 H 21 Z"
       style="fill:#ffffff;fill-opacity:1;fill-rule:nonzero;stroke:#000000;stroke-width:1;stroke-linecap:butt;stroke-linejoin:miter;stroke-miterlimit:10;stroke-dasharray:none;stroke-opacity:1"
       transform="matrix(0.95767186,0,0,0.95767186,0.47883593,0.47883593)"
       clip-path="url(#clipPath25)" />
    <text
       id="text25"
       xml:space="preserve"
       transform="matrix(0.95768146,0,0,0.95768146,94.271769,234.63196)"
       clip-path="url(#clipPath26)"><tspan
         style="font-variant:normal;font-weight:normal;font-size:22px;font-family:Helvetica;writing-mode:lr-tb;fill:#000000;fill-opacity:1;fill-rule:nonzero;stroke:none"
         x="0 4.2001953 16.435547 28.670898 40.90625"
         y="0"
         sodipodi:role="line"
         id="tspan25">'952'</tspan></text>
    <path
       id="path27"
       d="m 221,213 h 250 v 50 H 221 Z"
       style="fill:#ffffff;fill-opacity:1;fill-rule:nonzero;stroke:#000000;stroke-width:1;stroke-linecap:butt;stroke-linejoin:miter;stroke-miterlimit:10;stroke-dasharray:none;stroke-opacity:1"
       transform="matrix(0.95767186,0,0,0.95767186,0.47883593,0.47883593)"
       clip-path="url(#clipPath28)" />
    <text
       id="text28"
       xml:space="preserve"
       transform="matrix(0.95768146,0,0,0.95768146,279.80759,234.63196)"
       clip-path="url(#clipPath29)"><tspan
         style="font-variant:normal;font-weight:normal;font-size:22px;font-family:Helvetica;writing-mode:lr-tb;fill:#000000;fill-opacity:1;fill-rule:nonzero;stroke:none"
         x="0 6.1123047 18.347656 23.235352 35.470703 47.706055 53.818359 59.930664 72.166016 77.053711 89.289062 101.52441"
         y="0"
         sodipodi:role="line"
         id="tspan28">[blog, blog]</tspan></text>
  </g>
</svg>
