<?xml version="1.0" encoding="UTF-8" standalone="no"?>
<!-- Created with Inkscape (http://www.inkscape.org/) -->

<svg
   version="1.1"
   id="svg1"
   width="523.84003"
   height="333.44"
   viewBox="0 0 523.84003 333.44"
   sodipodi:docname="node-22.pdf"
   xmlns:inkscape="http://www.inkscape.org/namespaces/inkscape"
   xmlns:sodipodi="http://sodipodi.sourceforge.net/DTD/sodipodi-0.dtd"
   xmlns="http://www.w3.org/2000/svg"
   xmlns:svg="http://www.w3.org/2000/svg">
  <defs
     id="defs1">
    <clipPath
       clipPathUnits="userSpaceOnUse"
       id="clipPath2">
      <path
         d="M 0,0 H 1637.5 V 1038.7798 H 0 Z"
         transform="scale(0.33404579)"
         clip-rule="evenodd"
         id="path2" />
    </clipPath>
    <clipPath
       clipPathUnits="userSpaceOnUse"
       id="clipPath3">
      <path
         d="M 0,0 H 1637.5 V 1038.7798 H 0 Z"
         transform="matrix(0.33404244,0,0,0.33404244,-85.984375,-25)"
         clip-rule="evenodd"
         id="path3" />
    </clipPath>
    <clipPath
       clipPathUnits="userSpaceOnUse"
       id="clipPath4">
      <path
         d="M 0,0 H 1637.5 V 1038.7798 H 0 Z"
         transform="matrix(0.33404244,0,0,0.33404244,-386.01563,-25)"
         clip-rule="evenodd"
         id="path4" />
    </clipPath>
    <clipPath
       clipPathUnits="userSpaceOnUse"
       id="clipPath6">
      <path
         d="M 0,0 H 1637.5 V 1038.7798 H 0 Z"
         transform="matrix(0.33404579,0,0,0.33404579,-0.49999999,-0.49999999)"
         clip-rule="evenodd"
         id="path6" />
    </clipPath>
    <clipPath
       clipPathUnits="userSpaceOnUse"
       id="clipPath7">
      <path
         d="M 0,0 H 1637.5 V 1038.7798 H 0 Z"
         transform="matrix(0.33404244,0,0,0.33404244,-23.21875,-72)"
         clip-rule="evenodd"
         id="path7" />
    </clipPath>
    <clipPath
       clipPathUnits="userSpaceOnUse"
       id="clipPath8">
      <path
         d="M 0,0 H 1637.5 V 1038.7798 H 0 Z"
         transform="matrix(0.33404244,0,0,0.33404244,-17.421875,-94)"
         clip-rule="evenodd"
         id="path8" />
    </clipPath>
    <clipPath
       clipPathUnits="userSpaceOnUse"
       id="clipPath9">
      <path
         d="M 0,0 H 1637.5 V 1038.7798 H 0 Z"
         transform="matrix(0.33404244,0,0,0.33404244,-67.453125,-115)"
         clip-rule="evenodd"
         id="path9" />
    </clipPath>
    <clipPath
       clipPathUnits="userSpaceOnUse"
       id="clipPath11">
      <path
         d="M 0,0 H 1637.5 V 1038.7798 H 0 Z"
         transform="matrix(0.33404579,0,0,0.33404579,-0.49999999,-0.49999999)"
         clip-rule="evenodd"
         id="path11" />
    </clipPath>
    <clipPath
       clipPathUnits="userSpaceOnUse"
       id="clipPath12">
      <path
         d="M 0,0 H 1637.5 V 1038.7798 H 0 Z"
         transform="matrix(0.33404244,0,0,0.33404244,-305.70313,-72)"
         clip-rule="evenodd"
         id="path12" />
    </clipPath>
    <clipPath
       clipPathUnits="userSpaceOnUse"
       id="clipPath13">
      <path
         d="M 0,0 H 1637.5 V 1038.7798 H 0 Z"
         transform="matrix(0.33404244,0,0,0.33404244,-320.90625,-94)"
         clip-rule="evenodd"
         id="path13" />
    </clipPath>
    <clipPath
       clipPathUnits="userSpaceOnUse"
       id="clipPath14">
      <path
         d="M 0,0 H 1637.5 V 1038.7798 H 0 Z"
         transform="matrix(0.33404244,0,0,0.33404244,-390.48439,-115)"
         clip-rule="evenodd"
         id="path14" />
    </clipPath>
    <clipPath
       clipPathUnits="userSpaceOnUse"
       id="clipPath16">
      <path
         d="M 0,0 H 1637.5 V 1038.7798 H 0 Z"
         transform="matrix(0.33404579,0,0,0.33404579,-0.49999999,-0.49999999)"
         clip-rule="evenodd"
         id="path16" />
    </clipPath>
    <clipPath
       clipPathUnits="userSpaceOnUse"
       id="clipPath17">
      <path
         d="M 0,0 H 1637.5 V 1038.7798 H 0 Z"
         transform="matrix(0.33404244,0,0,0.33404244,-10.421875,-194)"
         clip-rule="evenodd"
         id="path17" />
    </clipPath>
    <clipPath
       clipPathUnits="userSpaceOnUse"
       id="clipPath19">
      <path
         d="M 0,0 H 1637.5 V 1038.7798 H 0 Z"
         transform="matrix(0.33404579,0,0,0.33404579,-0.49999999,-0.49999999)"
         clip-rule="evenodd"
         id="path19" />
    </clipPath>
    <clipPath
       clipPathUnits="userSpaceOnUse"
       id="clipPath20">
      <path
         d="M 0,0 H 1637.5 V 1038.7798 H 0 Z"
         transform="matrix(0.33404244,0,0,0.33404244,-335.4375,-161)"
         clip-rule="evenodd"
         id="path20" />
    </clipPath>
    <clipPath
       clipPathUnits="userSpaceOnUse"
       id="clipPath21">
      <path
         d="M 0,0 H 1637.5 V 1038.7798 H 0 Z"
         transform="matrix(0.33404244,0,0,0.33404244,-311.92188,-183)"
         clip-rule="evenodd"
         id="path21" />
    </clipPath>
    <clipPath
       clipPathUnits="userSpaceOnUse"
       id="clipPath22">
      <path
         d="M 0,0 H 1637.5 V 1038.7798 H 0 Z"
         transform="matrix(0.33404244,0,0,0.33404244,-309.4375,-205)"
         clip-rule="evenodd"
         id="path22" />
    </clipPath>
    <clipPath
       clipPathUnits="userSpaceOnUse"
       id="clipPath23">
      <path
         d="M 0,0 H 1637.5 V 1038.7798 H 0 Z"
         transform="matrix(0.33404244,0,0,0.33404244,-332.95313,-226)"
         clip-rule="evenodd"
         id="path23" />
    </clipPath>
    <clipPath
       clipPathUnits="userSpaceOnUse"
       id="clipPath25">
      <path
         d="M 0,0 H 1637.5 V 1038.7798 H 0 Z"
         transform="matrix(0.33404579,0,0,0.33404579,-0.49999999,-0.49999999)"
         clip-rule="evenodd"
         id="path25" />
    </clipPath>
    <clipPath
       clipPathUnits="userSpaceOnUse"
       id="clipPath27">
      <path
         d="M 0,0 H 1637.5 V 1038.7798 H 0 Z"
         transform="matrix(0.33404579,0,0,0.33404579,-0.49999999,-0.49999999)"
         clip-rule="evenodd"
         id="path27" />
    </clipPath>
    <clipPath
       clipPathUnits="userSpaceOnUse"
       id="clipPath29">
      <path
         d="M 0,0 H 1637.5 V 1038.7798 H 0 Z"
         transform="matrix(0.33404579,0,0,0.33404579,-0.49999999,-0.49999999)"
         clip-rule="evenodd"
         id="path29" />
    </clipPath>
    <clipPath
       clipPathUnits="userSpaceOnUse"
       id="clipPath30">
      <path
         d="M 0,0 H 1637.5 V 1038.7798 H 0 Z"
         transform="matrix(0.33404244,0,0,0.33404244,-6.21875,-272)"
         clip-rule="evenodd"
         id="path30" />
    </clipPath>
    <clipPath
       clipPathUnits="userSpaceOnUse"
       id="clipPath31">
      <path
         d="M 0,0 H 1637.5 V 1038.7798 H 0 Z"
         transform="matrix(0.33404244,0,0,0.33404244,-3.421875,-294)"
         clip-rule="evenodd"
         id="path31" />
    </clipPath>
    <clipPath
       clipPathUnits="userSpaceOnUse"
       id="clipPath32">
      <path
         d="M 0,0 H 1637.5 V 1038.7798 H 0 Z"
         transform="matrix(0.33404244,0,0,0.33404244,-57.453125,-315)"
         clip-rule="evenodd"
         id="path32" />
    </clipPath>
    <clipPath
       clipPathUnits="userSpaceOnUse"
       id="clipPath34">
      <path
         d="M 0,0 H 1637.5 V 1038.7798 H 0 Z"
         transform="matrix(0.33404579,0,0,0.33404579,-0.49999999,-0.49999999)"
         clip-rule="evenodd"
         id="path34" />
    </clipPath>
    <clipPath
       clipPathUnits="userSpaceOnUse"
       id="clipPath35">
      <path
         d="M 0,0 H 1637.5 V 1038.7798 H 0 Z"
         transform="matrix(0.33404244,0,0,0.33404244,-323.4375,-272)"
         clip-rule="evenodd"
         id="path35" />
    </clipPath>
    <clipPath
       clipPathUnits="userSpaceOnUse"
       id="clipPath36">
      <path
         d="M 0,0 H 1637.5 V 1038.7798 H 0 Z"
         transform="matrix(0.33404244,0,0,0.33404244,-306.42188,-294)"
         clip-rule="evenodd"
         id="path36" />
    </clipPath>
    <clipPath
       clipPathUnits="userSpaceOnUse"
       id="clipPath37">
      <path
         d="M 0,0 H 1637.5 V 1038.7798 H 0 Z"
         transform="matrix(0.33404244,0,0,0.33404244,-403.48438,-315)"
         clip-rule="evenodd"
         id="path37" />
    </clipPath>
  </defs>
  <sodipodi:namedview
     id="namedview1"
     pagecolor="#ffffff"
     bordercolor="#000000"
     borderopacity="0.25"
     inkscape:showpageshadow="2"
     inkscape:pageopacity="0.0"
     inkscape:pagecheckerboard="0"
     inkscape:deskcolor="#d1d1d1">
    <inkscape:page
       x="0"
       y="0"
       inkscape:label="1"
       id="page1"
       width="523.84003"
       height="333.44"
       margin="0"
       bleed="0" />
  </sodipodi:namedview>
  <g
     id="g1"
     inkscape:groupmode="layer"
     inkscape:label="1">
    <path
       id="path1"
       d="M 0,0 H 547 V 347 H 0 Z"
       style="fill:#ffffff;fill-opacity:1;fill-rule:nonzero;stroke:none"
       transform="scale(0.95795247)"
       clip-path="url(#clipPath2)" />
    <text
       id="text2"
       xml:space="preserve"
       transform="matrix(0.95796207,0,0,0.95796207,82.36977,23.949052)"
       clip-path="url(#clipPath3)"><tspan
         style="font-variant:normal;font-weight:700;font-size:18px;font-family:Helvetica;writing-mode:lr-tb;fill:#000000;fill-opacity:1;fill-rule:nonzero;stroke:none"
         x="0 12.005859 19.010742 30.005859 41.000977 46.001953 56.012695"
         y="0"
         sodipodi:role="line"
         id="tspan2">Problem</tspan></text>
    <text
       id="text3"
       xml:space="preserve"
       transform="matrix(0.95796207,0,0,0.95796207,369.78833,23.949052)"
       clip-path="url(#clipPath4)"><tspan
         style="font-variant:normal;font-weight:700;font-size:18px;font-family:Helvetica;writing-mode:lr-tb;fill:#000000;fill-opacity:1;fill-rule:nonzero;stroke:none"
         x="0 12.005859 23.000977 28.001953 38.99707 44.991211 49.992188 60.987305"
         y="0"
         sodipodi:role="line"
         id="tspan3">Solution</tspan></text>
    <path
       id="path5"
       d="m 2,42 h 240 v 90 H 2 Z"
       style="fill:#fff2cc;fill-opacity:1;fill-rule:nonzero;stroke:#d6b656;stroke-width:1;stroke-linecap:butt;stroke-linejoin:miter;stroke-miterlimit:10;stroke-dasharray:none;stroke-opacity:1"
       transform="matrix(0.95795247,0,0,0.95795247,0.47897623,0.47897623)"
       clip-path="url(#clipPath6)" />
    <text
       id="text6"
       xml:space="preserve"
       transform="matrix(0.95796207,0,0,0.95796207,22.242682,68.973269)"
       clip-path="url(#clipPath7)"><tspan
         style="font-variant:normal;font-weight:normal;font-size:18px;font-family:Helvetica;writing-mode:lr-tb;fill:#000000;fill-opacity:1;fill-rule:nonzero;stroke:none"
         x="0 12.999023 23.009766 32.009766 42.020508 46.019531 56.030273 66.041016 71.041992 80.041992 90.052734 100.06348 110.07422 115.0752 119.07422 128.07422 138.08496 141.52148 146.52246 151.52344 161.53418 171.54492 180.54492 184.54395 188.54297"
         y="0"
         sodipodi:role="line"
         id="tspan6">Caching code isn't easily</tspan></text>
    <text
       id="text7"
       xml:space="preserve"
       transform="matrix(0.95796207,0,0,0.95796207,16.689495,90.048435)"
       clip-path="url(#clipPath8)"><tspan
         style="font-variant:normal;font-weight:normal;font-size:18px;font-family:Helvetica;writing-mode:lr-tb;fill:#000000;fill-opacity:1;fill-rule:nonzero;stroke:none"
         x="0 5.9941406 16.004883 26.015625 35.015625 45.026367 55.037109 59.036133 69.046875 74.047852 84.058594 94.069336 103.06934 116.06836 126.0791 136.08984 142.08398 152.09473 157.0957 167.10645 171.10547 180.10547 190.11621 195.11719 199.11621"
         y="0"
         sodipodi:role="line"
         id="tspan7">reusable anywhere else in</tspan></text>
    <text
       id="text8"
       xml:space="preserve"
       transform="matrix(0.95796207,0,0,0.95796207,64.617535,110.16564)"
       clip-path="url(#clipPath9)"><tspan
         style="font-variant:normal;font-weight:normal;font-size:18px;font-family:Helvetica;writing-mode:lr-tb;fill:#000000;fill-opacity:1;fill-rule:nonzero;stroke:none"
         x="0 10.010742 20.021484 26.015625 31.016602 40.016602 50.027344 60.038086 70.048828 80.05957 90.070312 99.070312"
         y="0"
         sodipodi:role="line"
         id="tspan8">our codebase</tspan></text>
    <path
       id="path10"
       d="m 302,42 h 240 v 90 H 302 Z"
       style="fill:#d5e8d4;fill-opacity:1;fill-rule:nonzero;stroke:#82b366;stroke-width:1;stroke-linecap:butt;stroke-linejoin:miter;stroke-miterlimit:10;stroke-dasharray:none;stroke-opacity:1"
       transform="matrix(0.95795247,0,0,0.95795247,0.47897623,0.47897623)"
       clip-path="url(#clipPath11)" />
    <text
       id="text11"
       xml:space="preserve"
       transform="matrix(0.95796207,0,0,0.95796207,292.852,68.973269)"
       clip-path="url(#clipPath12)"><tspan
         style="font-variant:normal;font-weight:normal;font-size:18px;font-family:Helvetica;writing-mode:lr-tb;fill:#000000;fill-opacity:1;fill-rule:nonzero;stroke:none"
         x="0 12.999023 23.009766 33.020508 42.020508 47.021484 51.020508 61.03125 66.032227 71.033203 81.043945 86.044922 101.03906 111.0498 121.06055 131.07129 141.08203 151.09277 160.09277 170.10352 173.54004 182.54004 187.54102 197.55176 207.5625 217.57324 223.56738"
         y="0"
         sodipodi:role="line"
         id="tspan11">Hook in to Mongoose's query</tspan></text>
    <text
       id="text12"
       xml:space="preserve"
       transform="matrix(0.95796207,0,0,0.95796207,307.41602,90.048435)"
       clip-path="url(#clipPath13)"><tspan
         style="font-variant:normal;font-weight:normal;font-size:18px;font-family:Helvetica;writing-mode:lr-tb;fill:#000000;fill-opacity:1;fill-rule:nonzero;stroke:none"
         x="0 10.010742 20.021484 30.032227 40.042969 46.037109 56.047852 61.048828 65.047852 75.058594 85.069336 90.070312 100.08105 110.0918 120.10254 125.10352 135.11426 144.11426 154.125 163.125 173.13574 178.13672 182.13574 192.14648"
         y="0"
         sodipodi:role="line"
         id="tspan12">generation and execution</tspan></text>
    <text
       id="text13"
       xml:space="preserve"
       transform="matrix(0.95796207,0,0,0.95796207,374.06923,110.16564)"
       clip-path="url(#clipPath14)"><tspan
         style="font-variant:normal;font-weight:normal;font-size:18px;font-family:Helvetica;writing-mode:lr-tb;fill:#000000;fill-opacity:1;fill-rule:nonzero;stroke:none"
         x="0 10.010742 16.004883 26.015625 35.015625 45.026367 54.026367"
         y="0"
         sodipodi:role="line"
         id="tspan13">process</tspan></text>
    <path
       id="path15"
       d="m 2,142 h 240 v 90 H 2 Z"
       style="fill:#fff2cc;fill-opacity:1;fill-rule:nonzero;stroke:#d6b656;stroke-width:1;stroke-linecap:butt;stroke-linejoin:miter;stroke-miterlimit:10;stroke-dasharray:none;stroke-opacity:1"
       transform="matrix(0.95795247,0,0,0.95795247,0.47897623,0.47897623)"
       clip-path="url(#clipPath16)" />
    <text
       id="text16"
       xml:space="preserve"
       transform="matrix(0.95796207,0,0,0.95796207,9.983761,185.84464)"
       clip-path="url(#clipPath17)"><tspan
         style="font-variant:normal;font-weight:normal;font-size:18px;font-family:Helvetica;writing-mode:lr-tb;fill:#000000;fill-opacity:1;fill-rule:nonzero;stroke:none"
         x="0 12.999023 23.009766 32.009766 42.020508 52.03125 62.041992 67.042969 76.042969 86.053711 90.052734 100.06348 110.07422 119.07422 124.0752 134.08594 144.09668 153.09668 163.10742 169.10156 174.10254 184.11328 193.11328 203.12402 207.12305 213.11719"
         y="0"
         sodipodi:role="line"
         id="tspan16">Cached values never expire</tspan></text>
    <path
       id="path18"
       d="m 302,142 h 240 v 90 H 302 Z"
       style="fill:#d5e8d4;fill-opacity:1;fill-rule:nonzero;stroke:#82b366;stroke-width:1;stroke-linecap:butt;stroke-linejoin:miter;stroke-miterlimit:10;stroke-dasharray:none;stroke-opacity:1"
       transform="matrix(0.95795247,0,0,0.95795247,0.47897623,0.47897623)"
       clip-path="url(#clipPath19)" />
    <text
       id="text19"
       xml:space="preserve"
       transform="matrix(0.95796207,0,0,0.95796207,321.3364,154.23189)"
       clip-path="url(#clipPath20)"><tspan
         style="font-variant:normal;font-weight:normal;font-size:18px;font-family:Helvetica;writing-mode:lr-tb;fill:#000000;fill-opacity:1;fill-rule:nonzero;stroke:none"
         x="0 12.005859 22.016602 32.027344 37.02832 42.029297 46.02832 61.022461 71.033203 81.043945 91.054688 96.055664 101.05664 106.05762 116.06836 121.06934 130.06934 140.08008 144.0791 154.08984 164.10059"
         y="0"
         sodipodi:role="line"
         id="tspan19">Add timeout to values</tspan></text>
    <text
       id="text20"
       xml:space="preserve"
       transform="matrix(0.95796207,0,0,0.95796207,298.80933,175.30706)"
       clip-path="url(#clipPath21)"><tspan
         style="font-variant:normal;font-weight:normal;font-size:18px;font-family:Helvetica;writing-mode:lr-tb;fill:#000000;fill-opacity:1;fill-rule:nonzero;stroke:none"
         x="0 10.010742 19.010742 28.010742 32.009766 42.020508 52.03125 62.041992 72.052734 77.053711 82.054688 92.06543 97.066406 103.06055 113.07129 123.08203 127.08105 136.08105 141.08203 146.08301 150.09961 162.10547 166.10449 175.10449 185.11523 190.11621 200.12695 210.1377"
         y="0"
         sodipodi:role="line"
         id="tspan20">assigned to redis.  Also add</tspan></text>
    <text
       id="text21"
       xml:space="preserve"
       transform="matrix(0.95796207,0,0,0.95796207,296.42939,196.38222)"
       clip-path="url(#clipPath22)"><tspan
         style="font-variant:normal;font-weight:normal;font-size:18px;font-family:Helvetica;writing-mode:lr-tb;fill:#000000;fill-opacity:1;fill-rule:nonzero;stroke:none"
         x="0 10.010742 20.021484 24.020508 28.019531 32.018555 37.019531 46.019531 51.020508 56.021484 66.032227 71.033203 77.027344 87.038086 96.038086 106.04883 111.0498 116.05078 126.06152 130.06055 134.05957 139.06055 148.06055 158.07129 162.07031 172.08105 182.0918 191.0918 196.09277 201.09375 205.09277 215.10352"
         y="0"
         sodipodi:role="line"
         id="tspan21">ability to reset all values tied</tspan></text>
    <g
       id="g22" />
    <text
       id="text22"
       xml:space="preserve"
       transform="matrix(0.95796207,0,0,0.95796207,318.95647,216.49943)"
       clip-path="url(#clipPath23)"><tspan
         style="font-variant:normal;font-weight:normal;font-size:18px;font-family:Helvetica;writing-mode:lr-tb;fill:#000000;fill-opacity:1;fill-rule:nonzero;stroke:none"
         x="0 5.0009766 15.011719 20.012695 29.012695 39.023438 54.017578 64.02832 69.029297 78.029297 88.040039 98.050781 107.05078 111.0498 120.0498 129.0498 134.05078 144.06152 153.06152 163.07227 173.08301"
         y="0"
         sodipodi:role="line"
         id="tspan22">to some speciﬁc event</tspan></text>
    <path
       id="path24"
       d="M 2,32 H 542.01001"
       style="fill:none;stroke:#000000;stroke-width:1;stroke-linecap:butt;stroke-linejoin:miter;stroke-miterlimit:10;stroke-dasharray:none;stroke-opacity:1"
       transform="matrix(0.95795247,0,0,0.95795247,0.47897623,0.47897623)"
       clip-path="url(#clipPath25)" />
    <path
       id="path26"
       d="M 272,342 V 2"
       style="fill:none;stroke:#000000;stroke-width:1;stroke-linecap:butt;stroke-linejoin:miter;stroke-miterlimit:10;stroke-dasharray:none;stroke-opacity:1"
       transform="matrix(0.95795247,0,0,0.95795247,0.47897623,0.47897623)"
       clip-path="url(#clipPath27)" />
    <path
       id="path28"
       d="m 2,242 h 240 v 90 H 2 Z"
       style="fill:#fff2cc;fill-opacity:1;fill-rule:nonzero;stroke:#d6b656;stroke-width:1;stroke-linecap:butt;stroke-linejoin:miter;stroke-miterlimit:10;stroke-dasharray:none;stroke-opacity:1"
       transform="matrix(0.95795247,0,0,0.95795247,0.47897623,0.47897623)"
       clip-path="url(#clipPath29)" />
    <text
       id="text29"
       xml:space="preserve"
       transform="matrix(0.95796207,0,0,0.95796207,5.9573266,260.56568)"
       clip-path="url(#clipPath30)"><tspan
         style="font-variant:normal;font-weight:normal;font-size:18px;font-family:Helvetica;writing-mode:lr-tb;fill:#000000;fill-opacity:1;fill-rule:nonzero;stroke:none"
         x="0 12.999023 23.009766 32.009766 42.020508 52.03125 57.032227 66.032227 76.042969 85.042969 94.042969 99.043945 112.04297 122.05371 132.06445 135.50098 140.50195 145.50293 158.50195 168.5127 174.50684 183.50684 188.50781 201.50684 211.51758 221.52832"
         y="0"
         sodipodi:role="line"
         id="tspan29">Cache keys won't work when</tspan></text>
    <text
       id="text30"
       xml:space="preserve"
       transform="matrix(0.95796207,0,0,0.95796207,3.2780265,281.64085)"
       clip-path="url(#clipPath31)"><tspan
         style="font-variant:normal;font-weight:normal;font-size:18px;font-family:Helvetica;writing-mode:lr-tb;fill:#000000;fill-opacity:1;fill-rule:nonzero;stroke:none"
         x="0 12.999023 23.009766 28.010742 32.009766 42.020508 47.021484 53.015625 63.026367 73.037109 83.047852 92.047852 102.05859 107.05957 117.07031 122.07129 132.08203 142.09277 148.08691 153.08789 162.08789 172.09863 176.09766 180.09668 190.10742 199.10742 204.1084 208.10742 218.11816 228.12891"
         y="0"
         sodipodi:role="line"
         id="tspan30">we introduce other collections</tspan></text>
    <text
       id="text31"
       xml:space="preserve"
       transform="matrix(0.95796207,0,0,0.95796207,55.037915,301.75805)"
       clip-path="url(#clipPath32)"><tspan
         style="font-variant:normal;font-weight:normal;font-size:18px;font-family:Helvetica;writing-mode:lr-tb;fill:#000000;fill-opacity:1;fill-rule:nonzero;stroke:none"
         x="0 10.010742 16.004883 21.005859 31.016602 41.027344 51.038086 57.032227 66.032227 71.033203 81.043945 91.054688 96.055664 100.05469 110.06543 120.07617"
         y="0"
         sodipodi:role="line"
         id="tspan31">or query options</tspan></text>
    <path
       id="path33"
       d="m 302,242 h 240 v 90 H 302 Z"
       style="fill:#d5e8d4;fill-opacity:1;fill-rule:nonzero;stroke:#82b366;stroke-width:1;stroke-linecap:butt;stroke-linejoin:miter;stroke-miterlimit:10;stroke-dasharray:none;stroke-opacity:1"
       transform="matrix(0.95795247,0,0,0.95795247,0.47897623,0.47897623)"
       clip-path="url(#clipPath34)" />
    <text
       id="text34"
       xml:space="preserve"
       transform="matrix(0.95796207,0,0,0.95796207,309.84086,260.56568)"
       clip-path="url(#clipPath35)"><tspan
         style="font-variant:normal;font-weight:normal;font-size:18px;font-family:Helvetica;writing-mode:lr-tb;fill:#000000;fill-opacity:1;fill-rule:nonzero;stroke:none"
         x="0 10.995117 14.994141 25.004883 35.015625 41.009766 51.020508 56.021484 66.032227 76.042969 81.043945 86.044922 96.055664 101.05664 116.05078 126.06152 132.05566 142.06641 147.06738 153.06152 163.07227 173.08301 183.09375 192.09375"
         y="0"
         sodipodi:role="line"
         id="tspan34">Figure out a more robust</tspan></text>
    <text
       id="text35"
       xml:space="preserve"
       transform="matrix(0.95796207,0,0,0.95796207,293.54054,281.64085)"
       clip-path="url(#clipPath36)"><tspan
         style="font-variant:normal;font-weight:normal;font-size:18px;font-family:Helvetica;writing-mode:lr-tb;fill:#000000;fill-opacity:1;fill-rule:nonzero;stroke:none"
         x="0 9 19.010742 23.009766 33.020508 38.021484 42.020508 52.03125 62.041992 67.042969 72.043945 82.054688 88.048828 93.049805 103.06055 113.07129 123.08203 133.09277 139.08691 149.09766 154.09863 158.09766 168.1084 178.11914 183.12012 192.12012 202.13086 211.13086 221.1416"
         y="0"
         sodipodi:role="line"
         id="tspan35">solution for generating cache</tspan></text>
    <text
       id="text36"
       xml:space="preserve"
       transform="matrix(0.95796207,0,0,0.95796207,386.52273,301.75805)"
       clip-path="url(#clipPath37)"><tspan
         style="font-variant:normal;font-weight:normal;font-size:18px;font-family:Helvetica;writing-mode:lr-tb;fill:#000000;fill-opacity:1;fill-rule:nonzero;stroke:none"
         x="0 9 19.010742 28.010742"
         y="0"
         sodipodi:role="line"
         id="tspan36">keys</tspan></text>
  </g>
</svg>
