<?xml version="1.0" encoding="UTF-8" standalone="no"?>
<!-- Created with Inkscape (http://www.inkscape.org/) -->

<svg
   version="1.1"
   id="svg1"
   width="789.44"
   height="201.27998"
   viewBox="0 0 789.44 201.27998"
   sodipodi:docname="node-14.pdf"
   xmlns:inkscape="http://www.inkscape.org/namespaces/inkscape"
   xmlns:sodipodi="http://sodipodi.sourceforge.net/DTD/sodipodi-0.dtd"
   xmlns="http://www.w3.org/2000/svg"
   xmlns:svg="http://www.w3.org/2000/svg">
  <defs
     id="defs1">
    <clipPath
       clipPathUnits="userSpaceOnUse"
       id="clipPath2">
      <path
         d="M 0,0 H 2466.6665 V 628.64075 H 0 Z"
         transform="scale(0.33405407)"
         clip-rule="evenodd"
         id="path2" />
    </clipPath>
    <clipPath
       clipPathUnits="userSpaceOnUse"
       id="clipPath4">
      <path
         d="M 0,0 H 2466.6665 V 625.64722 H 0 Z"
         transform="matrix(0.33405407,0,0,0.33405407,-0.50000001,-0.50000001)"
         clip-rule="evenodd"
         id="path4" />
    </clipPath>
    <clipPath
       clipPathUnits="userSpaceOnUse"
       id="clipPath6">
      <path
         d="M 0,0 H 2466.6665 V 625.64722 H 0 Z"
         transform="matrix(0.33405407,0,0,0.33405407,-0.50000001,-0.50000001)"
         clip-rule="evenodd"
         id="path6" />
    </clipPath>
    <clipPath
       clipPathUnits="userSpaceOnUse"
       id="clipPath8">
      <path
         d="M 0,0 H 2466.6665 V 625.64722 H 0 Z"
         transform="matrix(0.33405407,0,0,0.33405407,-0.50000001,-0.50000001)"
         clip-rule="evenodd"
         id="path8" />
    </clipPath>
    <clipPath
       clipPathUnits="userSpaceOnUse"
       id="clipPath10">
      <path
         d="M 0,0 H 2466.6665 V 625.64722 H 0 Z"
         transform="matrix(0.33405407,0,0,0.33405407,-0.50000001,-0.50000001)"
         clip-rule="evenodd"
         id="path10" />
    </clipPath>
    <clipPath
       clipPathUnits="userSpaceOnUse"
       id="clipPath12">
      <path
         d="M 0,0 H 2466.6665 V 625.64722 H 0 Z"
         transform="matrix(0.33405407,0,0,0.33405407,-0.50000001,-0.50000001)"
         clip-rule="evenodd"
         id="path12" />
    </clipPath>
    <clipPath
       clipPathUnits="userSpaceOnUse"
       id="clipPath14">
      <path
         d="M 0,0 H 2466.6665 V 625.64722 H 0 Z"
         transform="matrix(0.33405407,0,0,0.33405407,-0.50000001,-0.50000001)"
         clip-rule="evenodd"
         id="path14" />
    </clipPath>
    <clipPath
       clipPathUnits="userSpaceOnUse"
       id="clipPath16">
      <path
         d="M 0,0 H 2466.6665 V 625.64722 H 0 Z"
         transform="matrix(0.33405407,0,0,0.33405407,-0.50000001,-0.50000001)"
         clip-rule="evenodd"
         id="path16" />
    </clipPath>
    <clipPath
       clipPathUnits="userSpaceOnUse"
       id="clipPath18">
      <path
         d="M 0,0 H 2466.6665 V 625.64722 H 0 Z"
         transform="matrix(0.33405407,0,0,0.33405407,-0.50000001,-0.50000001)"
         clip-rule="evenodd"
         id="path18" />
    </clipPath>
    <clipPath
       clipPathUnits="userSpaceOnUse"
       id="clipPath20">
      <path
         d="M 0,0 H 2466.6665 V 625.64722 H 0 Z"
         transform="matrix(0.33405407,0,0,0.33405407,-0.50000001,-0.50000001)"
         clip-rule="evenodd"
         id="path20" />
    </clipPath>
    <clipPath
       clipPathUnits="userSpaceOnUse"
       id="clipPath22">
      <path
         d="M 0,0 H 2466.6665 V 625.64722 H 0 Z"
         transform="matrix(0.33405407,0,0,0.33405407,-0.50000001,-0.50000001)"
         clip-rule="evenodd"
         id="path22" />
    </clipPath>
    <clipPath
       clipPathUnits="userSpaceOnUse"
       id="clipPath24">
      <path
         d="M 0,0 H 2466.6665 V 625.64722 H 0 Z"
         transform="matrix(0.33405407,0,0,0.33405407,-0.50000001,-0.50000001)"
         clip-rule="evenodd"
         id="path24" />
    </clipPath>
    <clipPath
       clipPathUnits="userSpaceOnUse"
       id="clipPath26">
      <path
         d="M 0,0 H 2466.6665 V 625.64722 H 0 Z"
         transform="matrix(0.33405407,0,0,0.33405407,-0.50000001,-0.50000001)"
         clip-rule="evenodd"
         id="path26" />
    </clipPath>
    <clipPath
       clipPathUnits="userSpaceOnUse"
       id="clipPath28">
      <path
         d="M 0,0 H 2466.6665 V 625.64722 H 0 Z"
         transform="matrix(0.33405407,0,0,0.33405407,-0.50000001,-0.50000001)"
         clip-rule="evenodd"
         id="path28" />
    </clipPath>
    <clipPath
       clipPathUnits="userSpaceOnUse"
       id="clipPath30">
      <path
         d="M 0,0 H 2466.6665 V 625.64722 H 0 Z"
         transform="matrix(0.33405407,0,0,0.33405407,-0.50000001,-0.50000001)"
         clip-rule="evenodd"
         id="path30" />
    </clipPath>
    <clipPath
       clipPathUnits="userSpaceOnUse"
       id="clipPath31">
      <path
         d="M 0,0 H 2466.6665 V 625.64722 H 0 Z"
         transform="matrix(0.33405071,0,0,0.33405071,-63,-36)"
         clip-rule="evenodd"
         id="path31" />
    </clipPath>
    <clipPath
       clipPathUnits="userSpaceOnUse"
       id="clipPath32">
      <path
         d="M 0,0 H 2466.6665 V 625.64722 H 0 Z"
         transform="matrix(0.33405071,0,0,0.33405071,-133,-84)"
         clip-rule="evenodd"
         id="path32" />
    </clipPath>
    <clipPath
       clipPathUnits="userSpaceOnUse"
       id="clipPath34">
      <path
         d="M 0,0 H 2466.6665 V 625.64722 H 0 Z"
         transform="matrix(0.33405407,0,0,0.33405407,-0.50000001,-0.50000001)"
         clip-rule="evenodd"
         id="path34" />
    </clipPath>
    <clipPath
       clipPathUnits="userSpaceOnUse"
       id="clipPath36">
      <path
         d="M 0,0 H 2466.6665 V 625.64722 H 0 Z"
         transform="matrix(0.33405407,0,0,0.33405407,-0.50000001,-0.50000001)"
         clip-rule="evenodd"
         id="path36" />
    </clipPath>
    <clipPath
       clipPathUnits="userSpaceOnUse"
       id="clipPath38">
      <path
         d="M 0,0 H 2466.6665 V 625.64722 H 0 Z"
         transform="matrix(0.33405407,0,0,0.33405407,-0.50000001,-0.50000001)"
         clip-rule="evenodd"
         id="path38" />
    </clipPath>
    <clipPath
       clipPathUnits="userSpaceOnUse"
       id="clipPath39">
      <path
         d="M 0,0 H 2466.6665 V 625.64722 H 0 Z"
         transform="matrix(0.33405071,0,0,0.33405071,-643.54688,-110)"
         clip-rule="evenodd"
         id="path39" />
    </clipPath>
    <clipPath
       clipPathUnits="userSpaceOnUse"
       id="clipPath41">
      <path
         d="M 0,0 H 2466.6665 V 625.64722 H 0 Z"
         transform="matrix(0.33405407,0,0,0.33405407,-0.50000001,-0.50000001)"
         clip-rule="evenodd"
         id="path41" />
    </clipPath>
    <clipPath
       clipPathUnits="userSpaceOnUse"
       id="clipPath42">
      <path
         d="M 0,0 H 2466.6665 V 625.64722 H 0 Z"
         transform="matrix(0.33405071,0,0,0.33405071,-744.42187,-110)"
         clip-rule="evenodd"
         id="path42" />
    </clipPath>
    <clipPath
       clipPathUnits="userSpaceOnUse"
       id="clipPath44">
      <path
         d="M 0,0 H 2466.6665 V 625.64722 H 0 Z"
         transform="matrix(0.33405407,0,0,0.33405407,-0.50000001,-0.50000001)"
         clip-rule="evenodd"
         id="path44" />
    </clipPath>
    <clipPath
       clipPathUnits="userSpaceOnUse"
       id="clipPath46">
      <path
         d="M 0,0 H 2466.6665 V 625.64722 H 0 Z"
         transform="matrix(0.33405407,0,0,0.33405407,-0.50000001,-0.50000001)"
         clip-rule="evenodd"
         id="path46" />
    </clipPath>
    <clipPath
       clipPathUnits="userSpaceOnUse"
       id="clipPath48">
      <path
         d="M 0,0 H 2466.6665 V 625.64722 H 0 Z"
         transform="matrix(0.33405407,0,0,0.33405407,-0.50000001,-0.50000001)"
         clip-rule="evenodd"
         id="path48" />
    </clipPath>
    <clipPath
       clipPathUnits="userSpaceOnUse"
       id="clipPath50">
      <path
         d="M 0,0 H 2466.6665 V 625.64722 H 0 Z"
         transform="matrix(0.33405407,0,0,0.33405407,-0.50000001,-0.50000001)"
         clip-rule="evenodd"
         id="path50" />
    </clipPath>
    <clipPath
       clipPathUnits="userSpaceOnUse"
       id="clipPath52">
      <path
         d="M 0,0 H 2466.6665 V 625.64722 H 0 Z"
         transform="matrix(0.33405407,0,0,0.33405407,-0.50000001,-0.50000001)"
         clip-rule="evenodd"
         id="path52" />
    </clipPath>
    <clipPath
       clipPathUnits="userSpaceOnUse"
       id="clipPath54">
      <path
         d="M 0,0 H 2466.6665 V 625.64722 H 0 Z"
         transform="matrix(0.33405407,0,0,0.33405407,-0.50000001,-0.50000001)"
         clip-rule="evenodd"
         id="path54" />
    </clipPath>
    <clipPath
       clipPathUnits="userSpaceOnUse"
       id="clipPath56">
      <path
         d="M 0,0 H 2466.6665 V 625.64722 H 0 Z"
         transform="matrix(0.33405407,0,0,0.33405407,-0.50000001,-0.50000001)"
         clip-rule="evenodd"
         id="path56" />
    </clipPath>
    <clipPath
       clipPathUnits="userSpaceOnUse"
       id="clipPath58">
      <path
         d="M 0,0 H 2466.6665 V 625.64722 H 0 Z"
         transform="matrix(0.33405407,0,0,0.33405407,-0.50000001,-0.50000001)"
         clip-rule="evenodd"
         id="path58" />
    </clipPath>
    <clipPath
       clipPathUnits="userSpaceOnUse"
       id="clipPath60">
      <path
         d="M 0,0 H 2466.6665 V 625.64722 H 0 Z"
         transform="matrix(0.33405407,0,0,0.33405407,-0.50000001,-0.50000001)"
         clip-rule="evenodd"
         id="path60" />
    </clipPath>
    <clipPath
       clipPathUnits="userSpaceOnUse"
       id="clipPath61">
      <path
         d="M 0,0 H 2466.6665 V 625.64722 H 0 Z"
         transform="matrix(0.33405071,0,0,0.33405071,-356.20313,-100)"
         clip-rule="evenodd"
         id="path61" />
    </clipPath>
    <clipPath
       clipPathUnits="userSpaceOnUse"
       id="clipPath62">
      <path
         d="M 0,0 H 2466.6665 V 625.64722 H 0 Z"
         transform="matrix(0.33405071,0,0,0.33405071,-342.42188,-120)"
         clip-rule="evenodd"
         id="path62" />
    </clipPath>
    <clipPath
       clipPathUnits="userSpaceOnUse"
       id="clipPath64">
      <path
         d="M 0,0 H 2466.6665 V 625.64722 H 0 Z"
         transform="matrix(0.33405407,0,0,0.33405407,-0.50000001,-0.50000001)"
         clip-rule="evenodd"
         id="path64" />
    </clipPath>
    <clipPath
       clipPathUnits="userSpaceOnUse"
       id="clipPath66">
      <path
         d="M 0,0 H 2466.6665 V 625.64722 H 0 Z"
         transform="matrix(0.33405407,0,0,0.33405407,-0.50000001,-0.50000001)"
         clip-rule="evenodd"
         id="path66" />
    </clipPath>
    <clipPath
       clipPathUnits="userSpaceOnUse"
       id="clipPath68">
      <path
         d="M 0,0 H 2466.6665 V 625.64722 H 0 Z"
         transform="matrix(0.33405407,0,0,0.33405407,-0.50000001,-0.50000001)"
         clip-rule="evenodd"
         id="path68" />
    </clipPath>
    <clipPath
       clipPathUnits="userSpaceOnUse"
       id="clipPath69">
      <path
         d="M 0,0 H 2466.6665 V 625.64722 H 0 Z"
         transform="matrix(0.33405071,0,0,0.33405071,-504.875,-26)"
         clip-rule="evenodd"
         id="path69" />
    </clipPath>
    <clipPath
       clipPathUnits="userSpaceOnUse"
       id="clipPath70">
      <path
         d="M 0,0 H 2466.6665 V 625.64722 H 0 Z"
         transform="matrix(0.33405071,0,0,0.33405071,-500.4375,-46)"
         clip-rule="evenodd"
         id="path70" />
    </clipPath>
    <clipPath
       clipPathUnits="userSpaceOnUse"
       id="clipPath72">
      <path
         d="M 0,0 H 2466.6665 V 625.64722 H 0 Z"
         transform="matrix(0.33405407,0,0,0.33405407,-0.50000001,-0.50000001)"
         clip-rule="evenodd"
         id="path72" />
    </clipPath>
    <clipPath
       clipPathUnits="userSpaceOnUse"
       id="clipPath74">
      <path
         d="M 0,0 H 2466.6665 V 625.64722 H 0 Z"
         transform="matrix(0.33405407,0,0,0.33405407,-0.50000001,-0.50000001)"
         clip-rule="evenodd"
         id="path74" />
    </clipPath>
    <clipPath
       clipPathUnits="userSpaceOnUse"
       id="clipPath76">
      <path
         d="M 0,0 H 2466.6665 V 625.64722 H 0 Z"
         transform="matrix(0.33405407,0,0,0.33405407,-0.50000001,-0.50000001)"
         clip-rule="evenodd"
         id="path76" />
    </clipPath>
    <clipPath
       clipPathUnits="userSpaceOnUse"
       id="clipPath77">
      <path
         d="M 0,0 H 2466.6665 V 625.64722 H 0 Z"
         transform="matrix(0.33405071,0,0,0.33405071,-504.875,-100)"
         clip-rule="evenodd"
         id="path77" />
    </clipPath>
    <clipPath
       clipPathUnits="userSpaceOnUse"
       id="clipPath78">
      <path
         d="M 0,0 H 2466.6665 V 625.64722 H 0 Z"
         transform="matrix(0.33405071,0,0,0.33405071,-500.4375,-120)"
         clip-rule="evenodd"
         id="path78" />
    </clipPath>
    <clipPath
       clipPathUnits="userSpaceOnUse"
       id="clipPath80">
      <path
         d="M 0,0 H 2466.6665 V 625.64722 H 0 Z"
         transform="matrix(0.33405407,0,0,0.33405407,-0.50000001,-0.50000001)"
         clip-rule="evenodd"
         id="path80" />
    </clipPath>
    <clipPath
       clipPathUnits="userSpaceOnUse"
       id="clipPath82">
      <path
         d="M 0,0 H 2466.6665 V 625.64722 H 0 Z"
         transform="matrix(0.33405407,0,0,0.33405407,-0.50000001,-0.50000001)"
         clip-rule="evenodd"
         id="path82" />
    </clipPath>
    <clipPath
       clipPathUnits="userSpaceOnUse"
       id="clipPath84">
      <path
         d="M 0,0 H 2466.6665 V 625.64722 H 0 Z"
         transform="matrix(0.33405407,0,0,0.33405407,-0.50000001,-0.50000001)"
         clip-rule="evenodd"
         id="path84" />
    </clipPath>
    <clipPath
       clipPathUnits="userSpaceOnUse"
       id="clipPath85">
      <path
         d="M 0,0 H 2466.6665 V 625.64722 H 0 Z"
         transform="matrix(0.33405071,0,0,0.33405071,-504.875,-171)"
         clip-rule="evenodd"
         id="path85" />
    </clipPath>
    <clipPath
       clipPathUnits="userSpaceOnUse"
       id="clipPath86">
      <path
         d="M 0,0 H 2466.6665 V 625.64722 H 0 Z"
         transform="matrix(0.33405071,0,0,0.33405071,-500.4375,-191)"
         clip-rule="evenodd"
         id="path86" />
    </clipPath>
  </defs>
  <sodipodi:namedview
     id="namedview1"
     pagecolor="#ffffff"
     bordercolor="#000000"
     borderopacity="0.25"
     inkscape:showpageshadow="2"
     inkscape:pageopacity="0.0"
     inkscape:pagecheckerboard="0"
     inkscape:deskcolor="#d1d1d1">
    <inkscape:page
       x="0"
       y="0"
       inkscape:label="1"
       id="page1"
       width="789.44"
       height="201.27998"
       margin="0"
       bleed="0" />
  </sodipodi:namedview>
  <g
     id="g1"
     inkscape:groupmode="layer"
     inkscape:label="1">
    <path
       id="path1"
       d="M 0,0 H 824 V 210 H 0 Z"
       style="fill:#ffffff;fill-opacity:1;fill-rule:nonzero;stroke:none"
       transform="scale(0.95792873)"
       clip-path="url(#clipPath2)" />
    <path
       id="path3"
       d="M 1,5 H 265 V 185 H 1 Z"
       style="fill:#ffffff;fill-opacity:1;fill-rule:nonzero;stroke:#666666;stroke-width:1;stroke-linecap:butt;stroke-linejoin:miter;stroke-miterlimit:10;stroke-dasharray:none;stroke-opacity:1"
       transform="matrix(0.95792873,0,0,0.95792873,0.47896437,0.47896437)"
       clip-path="url(#clipPath4)" />
    <path
       id="path5"
       d="m 210.00009,20 c 0,0.656614 -0.0641,1.306921 -0.19215,1.95092 -0.1281,0.643999 -0.3178,1.269314 -0.56906,1.875948 -0.25129,0.606634 -0.55931,1.18293 -0.92411,1.728888 -0.36479,0.545957 -0.77934,1.051084 -1.24363,1.515382 -0.46431,0.464297 -0.96944,0.878842 -1.51541,1.243637 -0.54596,0.364796 -1.12226,0.672833 -1.72889,0.924109 -0.60663,0.251276 -1.23193,0.440964 -1.87593,0.569063 -0.64399,0.1281 -1.29431,0.19215 -1.95091,0.192152 -0.65663,-2e-6 -1.30695,-0.06405 -1.95094,-0.192152 -0.644,-0.128099 -1.26932,-0.317787 -1.87595,-0.569063 -0.60664,-0.251276 -1.18294,-0.559313 -1.7289,-0.924109 -0.54594,-0.364795 -1.05107,-0.77934 -1.51536,-1.243637 -0.4643,-0.464298 -0.87885,-0.969425 -1.24367,-1.51538 -0.36479,-0.545958 -0.67282,-1.122254 -0.9241,-1.728888 -0.25127,-0.606634 -0.44097,-1.231951 -0.56906,-1.87595 -0.12809,-0.643999 -0.19213,-1.294306 -0.19213,-1.95092 0,-0.656618 0.064,-1.306927 0.19213,-1.950926 0.12809,-0.643999 0.31779,-1.269314 0.56906,-1.875948 0.25128,-0.606633 0.55931,-1.182928 0.9241,-1.728885 0.36482,-0.545956 0.77937,-1.051083 1.24367,-1.51538 0.46429,-0.464298 0.96942,-0.878845 1.51536,-1.243641 0.54596,-0.364796 1.12226,-0.672832 1.7289,-0.924109 0.60663,-0.251275 1.23195,-0.440962 1.87595,-0.569062 0.64399,-0.128099 1.29431,-0.1921491 1.95094,-0.1921491 0.6566,0 1.30692,0.06405 1.95091,0.1921491 0.644,0.1281 1.2693,0.317787 1.87595,0.569062 0.60663,0.251276 1.18292,0.559312 1.72888,0.924108 0.54596,0.364796 1.05109,0.779343 1.5154,1.243641 0.46429,0.464298 0.87884,0.969425 1.24363,1.515381 0.3648,0.545955 0.67282,1.12225 0.92411,1.728883 0.25126,0.606634 0.44096,1.231951 0.56906,1.87595 0.1281,0.643999 0.19215,1.294308 0.19215,1.950926 z"
       style="fill:none;stroke:#666666;stroke-width:1;stroke-linecap:butt;stroke-linejoin:miter;stroke-miterlimit:10;stroke-dasharray:none;stroke-opacity:1"
       transform="matrix(0.95792873,0,0,0.95792873,0.47896437,0.47896437)"
       clip-path="url(#clipPath6)" />
    <path
       id="path7"
       d="m 235.00009,20 c -1e-5,0.656614 -0.0641,1.306921 -0.19218,1.95092 -0.1281,0.643999 -0.3178,1.269314 -0.56906,1.875948 -0.25127,0.606634 -0.55932,1.18293 -0.92412,1.728888 -0.36478,0.545957 -0.77931,1.051084 -1.24361,1.515382 -0.46431,0.464297 -0.96944,0.878842 -1.51539,1.243637 -0.54596,0.364796 -1.12226,0.672833 -1.72889,0.924109 -0.60663,0.251276 -1.23195,0.440964 -1.87594,0.569063 -0.644,0.1281 -1.2943,0.19215 -1.9509,0.192152 -0.65662,-2e-6 -1.30693,-0.06405 -1.95093,-0.192152 -0.64401,-0.128099 -1.26933,-0.317787 -1.87597,-0.569063 -0.60663,-0.251276 -1.18293,-0.559313 -1.72889,-0.924109 -0.54596,-0.364795 -1.05108,-0.77934 -1.51536,-1.243637 -0.46431,-0.464298 -0.87886,-0.969425 -1.24365,-1.51538 -0.36481,-0.545958 -0.67286,-1.122254 -0.92412,-1.728888 -0.25127,-0.606634 -0.44095,-1.231951 -0.56905,-1.87595 -0.1281,-0.643999 -0.19215,-1.294306 -0.19214,-1.95092 -1e-5,-0.656618 0.064,-1.306927 0.19214,-1.950926 0.1281,-0.643999 0.31778,-1.269314 0.56905,-1.875948 0.25126,-0.606633 0.55931,-1.182928 0.92412,-1.728885 0.36479,-0.545956 0.77934,-1.051083 1.24365,-1.51538 0.46428,-0.464298 0.9694,-0.878845 1.51536,-1.243641 0.54596,-0.364796 1.12226,-0.672832 1.72889,-0.924109 0.60664,-0.251275 1.23196,-0.440962 1.87597,-0.569062 0.644,-0.128099 1.29431,-0.1921491 1.95093,-0.1921491 0.6566,0 1.3069,0.06405 1.9509,0.1921491 0.64401,0.1281 1.26933,0.317787 1.87596,0.569062 0.60663,0.251276 1.18292,0.559312 1.7289,0.924108 0.54596,0.364796 1.05108,0.779343 1.51538,1.243641 0.46428,0.464298 0.87881,0.969425 1.2436,1.515381 0.36479,0.545955 0.67284,1.12225 0.92412,1.728883 0.25127,0.606634 0.44095,1.231951 0.56905,1.87595 0.12809,0.643999 0.19217,1.294308 0.19218,1.950926 z"
       style="fill:none;stroke:#666666;stroke-width:1;stroke-linecap:butt;stroke-linejoin:miter;stroke-miterlimit:10;stroke-dasharray:none;stroke-opacity:1"
       transform="matrix(0.95792873,0,0,0.95792873,0.47896437,0.47896437)"
       clip-path="url(#clipPath8)" />
    <path
       id="path9"
       d="m 260.00009,20 c -3e-5,0.656614 -0.0641,1.306921 -0.19217,1.95092 -0.12808,0.643999 -0.31778,1.269314 -0.56906,1.875948 -0.25128,0.606634 -0.55933,1.18293 -0.92413,1.728888 -0.36478,0.545957 -0.77933,1.051084 -1.24362,1.515382 -0.4643,0.464297 -0.96943,0.878842 -1.51538,1.243637 -0.54596,0.364796 -1.12226,0.672833 -1.72889,0.924109 -0.60664,0.251276 -1.23195,0.440964 -1.87593,0.569063 -0.64399,0.1281 -1.29431,0.19215 -1.95091,0.192152 -0.65663,-2e-6 -1.30695,-0.06405 -1.95096,-0.192152 -0.644,-0.128099 -1.26932,-0.317787 -1.87594,-0.569063 -0.60663,-0.251276 -1.18293,-0.559313 -1.72887,-0.924109 -0.54596,-0.364795 -1.05109,-0.77934 -1.51538,-1.243637 -0.46431,-0.464298 -0.87886,-0.969425 -1.24365,-1.51538 -0.36481,-0.545958 -0.67286,-1.122254 -0.92412,-1.728888 -0.25128,-0.606634 -0.44097,-1.231951 -0.56906,-1.87595 -0.1281,-0.643999 -0.19214,-1.294306 -0.19213,-1.95092 -1e-5,-0.656618 0.064,-1.306927 0.19214,-1.950926 0.12808,-0.643999 0.31777,-1.269314 0.56905,-1.875948 0.25126,-0.606633 0.55931,-1.182928 0.9241,-1.728885 0.36481,-0.545956 0.77936,-1.051083 1.24367,-1.51538 0.46429,-0.464298 0.96942,-0.878845 1.51538,-1.243641 0.54594,-0.364796 1.12224,-0.672832 1.72888,-0.924109 0.60663,-0.251275 1.23195,-0.440962 1.87595,-0.569062 0.64399,-0.128099 1.29431,-0.1921491 1.95094,-0.1921491 0.6566,0 1.3069,0.06405 1.9509,0.1921491 0.64399,0.1281 1.26931,0.317787 1.87596,0.569062 0.60663,0.251276 1.18292,0.559312 1.72888,0.924108 0.54594,0.364796 1.05107,0.779343 1.5154,1.243641 0.46429,0.464298 0.87884,0.969425 1.24362,1.515381 0.36477,0.545955 0.67282,1.12225 0.9241,1.728883 0.25128,0.606634 0.44098,1.231951 0.56906,1.87595 0.12808,0.643999 0.19214,1.294308 0.19217,1.950926 z"
       style="fill:none;stroke:#008cff;stroke-width:1;stroke-linecap:butt;stroke-linejoin:miter;stroke-miterlimit:10;stroke-dasharray:none;stroke-opacity:1"
       transform="matrix(0.95792873,0,0,0.95792873,0.47896437,0.47896437)"
       clip-path="url(#clipPath10)" />
    <path
       id="path11"
       d="M 1,45 H 31 V 20 c 0,-2.76 2.240002,-5 5,-5 h 135 c 2.75999,0 5,2.24 5,5 v 25 h 89"
       style="fill:none;stroke:#c4c4c4;stroke-width:1;stroke-linecap:butt;stroke-linejoin:miter;stroke-miterlimit:10;stroke-dasharray:none;stroke-opacity:1"
       transform="matrix(0.95792873,0,0,0.95792873,0.47896437,0.47896437)"
       clip-path="url(#clipPath12)" />
    <path
       id="path13"
       d="M 1,115 H 265"
       style="fill:none;stroke:#c4c4c4;stroke-width:1;stroke-linecap:butt;stroke-linejoin:miter;stroke-miterlimit:10;stroke-dasharray:none;stroke-opacity:1"
       transform="matrix(0.95792873,0,0,0.95792873,0.47896437,0.47896437)"
       clip-path="url(#clipPath14)" />
    <path
       id="path15"
       d="m 101,65 c 0,-2.759998 2.24,-5 5,-5 h 144 c 2.75999,0 5,2.240002 5,5 v 25 c 0,2.760002 -2.24001,5 -5,5 H 106 c -2.76,0 -5,-2.239998 -5,-5 z"
       style="fill:none;stroke:#c4c4c4;stroke-width:1;stroke-linecap:butt;stroke-linejoin:miter;stroke-miterlimit:10;stroke-dasharray:none;stroke-opacity:1"
       transform="matrix(0.95792873,0,0,0.95792873,0.47896437,0.47896437)"
       clip-path="url(#clipPath16)" />
    <path
       id="path17"
       d="m 38,22 h 11 l 4,4 V 40 H 38 Z"
       style="fill:none;stroke:#c4c4c4;stroke-width:1;stroke-linecap:butt;stroke-linejoin:miter;stroke-miterlimit:10;stroke-dasharray:none;stroke-opacity:1"
       transform="matrix(0.95792873,0,0,0.95792873,0.47896437,0.47896437)"
       clip-path="url(#clipPath18)" />
    <path
       id="path19"
       d="m 49,22 v 4 l 4,1"
       style="fill:none;stroke:#c4c4c4;stroke-width:1;stroke-linecap:butt;stroke-linejoin:miter;stroke-miterlimit:10;stroke-dasharray:none;stroke-opacity:1"
       transform="matrix(0.95792873,0,0,0.95792873,0.47896437,0.47896437)"
       clip-path="url(#clipPath20)" />
    <path
       id="path21"
       d="m 108,69 h 11 l 4,4 v 14 h -15 z"
       style="fill:none;stroke:#c4c4c4;stroke-width:1;stroke-linecap:butt;stroke-linejoin:miter;stroke-miterlimit:10;stroke-dasharray:none;stroke-opacity:1"
       transform="matrix(0.95792873,0,0,0.95792873,0.47896437,0.47896437)"
       clip-path="url(#clipPath22)" />
    <path
       id="path23"
       d="m 119,69 v 4 l 4,1"
       style="fill:none;stroke:#c4c4c4;stroke-width:1;stroke-linecap:butt;stroke-linejoin:miter;stroke-miterlimit:10;stroke-dasharray:none;stroke-opacity:1"
       transform="matrix(0.95792873,0,0,0.95792873,0.47896437,0.47896437)"
       clip-path="url(#clipPath24)" />
    <path
       id="path25"
       d="M 13,79 23,69 v 6 h 10 v 8 H 23 v 6 z"
       style="fill:#c4c4c4;fill-opacity:1;fill-rule:nonzero;stroke:#c4c4c4;stroke-width:1;stroke-linecap:butt;stroke-linejoin:miter;stroke-miterlimit:10;stroke-dasharray:none;stroke-opacity:1"
       transform="matrix(0.95792873,0,0,0.95792873,0.47896437,0.47896437)"
       clip-path="url(#clipPath26)" />
    <path
       id="path27"
       d="M 63,79 53,69 v 6 H 43 v 8 h 10 v 6 z"
       style="fill:#c4c4c4;fill-opacity:1;fill-rule:nonzero;stroke:#c4c4c4;stroke-width:1;stroke-linecap:butt;stroke-linejoin:miter;stroke-miterlimit:10;stroke-dasharray:none;stroke-opacity:1"
       transform="matrix(0.95792873,0,0,0.95792873,0.47896437,0.47896437)"
       clip-path="url(#clipPath28)" />
    <path
       id="path29"
       d="m 88.599998,82.300003 c -1.699996,2.839996 -5.379997,3.759995 -8.220001,2.059998 C 77.540001,82.669998 76.610001,79 78.300003,76.150002 79.980003,73.309998 83.650002,72.360001 86.5,74.040001 L 84.900002,75.5 92.800003,77.300003 91,69.800003 89.300003,71.400002 c -3.190002,-2.370003 -7.5,-2.580002 -10.900001,-0.529999 -3.410004,2.049995 -5.239998,5.959999 -4.630005,9.889999 0.61,3.93 3.530006,7.099999 7.390007,8.029999 C 85.029999,89.720001 89.07,88.230003 91.400002,85 Z"
       style="fill:#c4c4c4;fill-opacity:1;fill-rule:nonzero;stroke:#c4c4c4;stroke-width:1;stroke-linecap:butt;stroke-linejoin:miter;stroke-miterlimit:10;stroke-dasharray:none;stroke-opacity:1"
       transform="matrix(0.95792873,0,0,0.95792873,0.47896437,0.47896437)"
       clip-path="url(#clipPath30)" />
    <text
       id="text30"
       xml:space="preserve"
       transform="matrix(0.95793836,0,0,0.95793836,60.350117,34.485781)"
       clip-path="url(#clipPath31)"><tspan
         style="font-variant:normal;font-weight:normal;font-size:17px;font-family:Helvetica;writing-mode:lr-tb;fill:#666666;fill-opacity:1;fill-rule:nonzero;stroke:none"
         x="0 11.338867 20.793457 30.248047 39.702637 44.425781"
         y="0"
         sodipodi:role="line"
         id="tspan30">Page 1</tspan></text>
    <text
       id="text31"
       xml:space="preserve"
       transform="matrix(0.95793836,0,0,0.95793836,127.4058,80.466822)"
       clip-path="url(#clipPath32)"><tspan
         style="font-variant:normal;font-weight:normal;font-size:17px;font-family:Helvetica;writing-mode:lr-tb;fill:#666666;fill-opacity:1;fill-rule:nonzero;stroke:none"
         x="0 3.7768555 13.231445 21.731445 31.186035 34.962891 44.41748 53.87207 62.37207 67.095215 71.818359 81.272949 90.727539 100.18213"
         y="0"
         sodipodi:role="line"
         id="tspan31">localhost:3000</tspan></text>
    <path
       id="path33"
       d="M 705.01001,105 H 725 h -6 9.90002"
       style="fill:none;stroke:#000000;stroke-width:1;stroke-linecap:butt;stroke-linejoin:miter;stroke-miterlimit:10;stroke-dasharray:none;stroke-opacity:1"
       transform="matrix(0.95792873,0,0,0.95792873,0.47896437,0.47896437)"
       clip-path="url(#clipPath34)" />
    <path
       id="path35"
       d="m 735.65002,105 -9,4.5 2.25,-4.5 -2.25,-4.5 z"
       style="fill:#000000;fill-opacity:1;fill-rule:nonzero;stroke:#000000;stroke-width:1;stroke-linecap:butt;stroke-linejoin:miter;stroke-miterlimit:10;stroke-dasharray:none;stroke-opacity:1"
       transform="matrix(0.95792873,0,0,0.95792873,0.47896437,0.47896437)"
       clip-path="url(#clipPath36)" />
    <path
       id="path37"
       d="m 623.01001,75 h 82 v 60 h -82 z"
       style="fill:#ffffff;fill-opacity:1;fill-rule:nonzero;stroke:#000000;stroke-width:1;stroke-linecap:butt;stroke-linejoin:miter;stroke-miterlimit:10;stroke-dasharray:none;stroke-opacity:1"
       transform="matrix(0.95792873,0,0,0.95792873,0.47896437,0.47896437)"
       clip-path="url(#clipPath38)" />
    <text
       id="text38"
       xml:space="preserve"
       transform="matrix(0.95793836,0,0,0.95793836,616.47824,105.37322)"
       clip-path="url(#clipPath39)"><tspan
         style="font-variant:normal;font-weight:normal;font-size:16px;font-family:Helvetica;writing-mode:lr-tb;fill:#000000;fill-opacity:1;fill-rule:nonzero;stroke:none"
         x="0 11.554688 20.453125 29.351562 32.90625"
         y="0"
         sodipodi:role="line"
         id="tspan38">Redis</tspan></text>
    <path
       id="path40"
       d="m 739.01001,75 h 82 v 60 h -82 z"
       style="fill:#ffffff;fill-opacity:1;fill-rule:nonzero;stroke:#000000;stroke-width:1;stroke-linecap:butt;stroke-linejoin:miter;stroke-miterlimit:10;stroke-dasharray:none;stroke-opacity:1"
       transform="matrix(0.95792873,0,0,0.95792873,0.47896437,0.47896437)"
       clip-path="url(#clipPath41)" />
    <text
       id="text41"
       xml:space="preserve"
       transform="matrix(0.95793836,0,0,0.95793836,713.11027,105.37322)"
       clip-path="url(#clipPath42)"><tspan
         style="font-variant:normal;font-weight:normal;font-size:16px;font-family:Helvetica;writing-mode:lr-tb;fill:#000000;fill-opacity:1;fill-rule:nonzero;stroke:none"
         x="0 13.328125 22.226562 31.125 40.023438 48.921875 60.476562"
         y="0"
         sodipodi:role="line"
         id="tspan41">MongoDB</tspan></text>
    <path
       id="path43"
       d="m 415,90 h 34 V 31 h 23.89999"
       style="fill:none;stroke:#000000;stroke-width:1;stroke-linecap:butt;stroke-linejoin:miter;stroke-miterlimit:10;stroke-dasharray:none;stroke-opacity:1"
       transform="matrix(0.95792873,0,0,0.95792873,0.47896437,0.47896437)"
       clip-path="url(#clipPath44)" />
    <path
       id="path45"
       d="m 479.64999,31 -9,4.5 2.25,-4.5 -2.25,-4.5 z"
       style="fill:#000000;fill-opacity:1;fill-rule:nonzero;stroke:#000000;stroke-width:1;stroke-linecap:butt;stroke-linejoin:miter;stroke-miterlimit:10;stroke-dasharray:none;stroke-opacity:1"
       transform="matrix(0.95792873,0,0,0.95792873,0.47896437,0.47896437)"
       clip-path="url(#clipPath46)" />
    <path
       id="path47"
       d="m 415,105 h 57.89999"
       style="fill:none;stroke:#000000;stroke-width:1;stroke-linecap:butt;stroke-linejoin:miter;stroke-miterlimit:10;stroke-dasharray:none;stroke-opacity:1"
       transform="matrix(0.95792873,0,0,0.95792873,0.47896437,0.47896437)"
       clip-path="url(#clipPath48)" />
    <path
       id="path49"
       d="m 479.64999,105 -9,4.5 2.25,-4.5 -2.25,-4.5 z"
       style="fill:#000000;fill-opacity:1;fill-rule:nonzero;stroke:#000000;stroke-width:1;stroke-linecap:butt;stroke-linejoin:miter;stroke-miterlimit:10;stroke-dasharray:none;stroke-opacity:1"
       transform="matrix(0.95792873,0,0,0.95792873,0.47896437,0.47896437)"
       clip-path="url(#clipPath50)" />
    <path
       id="path51"
       d="m 415,120 h 34 v 56 h 23.89999"
       style="fill:none;stroke:#000000;stroke-width:1;stroke-linecap:butt;stroke-linejoin:miter;stroke-miterlimit:10;stroke-dasharray:none;stroke-opacity:1"
       transform="matrix(0.95792873,0,0,0.95792873,0.47896437,0.47896437)"
       clip-path="url(#clipPath52)" />
    <path
       id="path53"
       d="m 479.64999,176 -9,4.5 2.25,-4.5 -2.25,-4.5 z"
       style="fill:#000000;fill-opacity:1;fill-rule:nonzero;stroke:#000000;stroke-width:1;stroke-linecap:butt;stroke-linejoin:miter;stroke-miterlimit:10;stroke-dasharray:none;stroke-opacity:1"
       transform="matrix(0.95792873,0,0,0.95792873,0.47896437,0.47896437)"
       clip-path="url(#clipPath54)" />
    <path
       id="path55"
       d="m 333,105 h -34 l -23.89001,0.06"
       style="fill:none;stroke:#000000;stroke-width:1;stroke-linecap:butt;stroke-linejoin:miter;stroke-miterlimit:10;stroke-dasharray:none;stroke-opacity:1"
       transform="matrix(0.95792873,0,0,0.95792873,0.47896437,0.47896437)"
       clip-path="url(#clipPath56)" />
    <path
       id="path57"
       d="m 268.35999,105.07 8.99002,-4.52 -2.24002,4.51 2.26001,4.49 z"
       style="fill:#000000;fill-opacity:1;fill-rule:nonzero;stroke:#000000;stroke-width:1;stroke-linecap:butt;stroke-linejoin:miter;stroke-miterlimit:10;stroke-dasharray:none;stroke-opacity:1"
       transform="matrix(0.95792873,0,0,0.95792873,0.47896437,0.47896437)"
       clip-path="url(#clipPath58)" />
    <path
       id="path59"
       d="m 333,75 h 82 v 60 h -82 z"
       style="fill:#ffffff;fill-opacity:1;fill-rule:nonzero;stroke:#000000;stroke-width:1;stroke-linecap:butt;stroke-linejoin:miter;stroke-miterlimit:10;stroke-dasharray:none;stroke-opacity:1"
       transform="matrix(0.95792873,0,0,0.95792873,0.47896437,0.47896437)"
       clip-path="url(#clipPath60)" />
    <text
       id="text60"
       xml:space="preserve"
       transform="matrix(0.95793836,0,0,0.95793836,341.22064,95.793836)"
       clip-path="url(#clipPath61)"><tspan
         style="font-variant:normal;font-weight:normal;font-size:16px;font-family:Helvetica;writing-mode:lr-tb;fill:#000000;fill-opacity:1;fill-rule:nonzero;stroke:none"
         x="0 8.8984375 17.796875 26.695312"
         y="0"
         sodipodi:role="line"
         id="tspan60">Load</tspan></text>
    <text
       id="text61"
       xml:space="preserve"
       transform="matrix(0.95793836,0,0,0.95793836,328.01905,114.9526)"
       clip-path="url(#clipPath62)"><tspan
         style="font-variant:normal;font-weight:normal;font-size:16px;font-family:Helvetica;writing-mode:lr-tb;fill:#000000;fill-opacity:1;fill-rule:nonzero;stroke:none"
         x="0 10.671875 19.570312 23.125 32.023438 40.921875 48.921875 57.820312"
         y="0"
         sodipodi:role="line"
         id="tspan61">Balancer</tspan></text>
    <path
       id="path63"
       d="M 565.01001,31 H 594 v 59 h 18.90002"
       style="fill:none;stroke:#000000;stroke-width:1;stroke-linecap:butt;stroke-linejoin:miter;stroke-miterlimit:10;stroke-dasharray:none;stroke-opacity:1"
       transform="matrix(0.95792873,0,0,0.95792873,0.47896437,0.47896437)"
       clip-path="url(#clipPath64)" />
    <path
       id="path65"
       d="m 619.65002,90 -9,4.5 2.25,-4.5 -2.25,-4.5 z"
       style="fill:#000000;fill-opacity:1;fill-rule:nonzero;stroke:#000000;stroke-width:1;stroke-linecap:butt;stroke-linejoin:miter;stroke-miterlimit:10;stroke-dasharray:none;stroke-opacity:1"
       transform="matrix(0.95792873,0,0,0.95792873,0.47896437,0.47896437)"
       clip-path="url(#clipPath66)" />
    <path
       id="path67"
       d="m 483,1 h 82 v 60 h -82 z"
       style="fill:#ffffff;fill-opacity:1;fill-rule:nonzero;stroke:#000000;stroke-width:1;stroke-linecap:butt;stroke-linejoin:miter;stroke-miterlimit:10;stroke-dasharray:none;stroke-opacity:1"
       transform="matrix(0.95792873,0,0,0.95792873,0.47896437,0.47896437)"
       clip-path="url(#clipPath68)" />
    <text
       id="text68"
       xml:space="preserve"
       transform="matrix(0.95793836,0,0,0.95793836,483.63913,24.906397)"
       clip-path="url(#clipPath69)"><tspan
         style="font-variant:normal;font-weight:normal;font-size:16px;font-family:Helvetica;writing-mode:lr-tb;fill:#000000;fill-opacity:1;fill-rule:nonzero;stroke:none"
         x="0 11.554688 20.453125 29.351562"
         y="0"
         sodipodi:role="line"
         id="tspan68">Node</tspan></text>
    <text
       id="text69"
       xml:space="preserve"
       transform="matrix(0.95793836,0,0,0.95793836,479.38828,44.065165)"
       clip-path="url(#clipPath70)"><tspan
         style="font-variant:normal;font-weight:normal;font-size:16px;font-family:Helvetica;writing-mode:lr-tb;fill:#000000;fill-opacity:1;fill-rule:nonzero;stroke:none"
         x="0 10.671875 19.570312 24.898438 32.898438 41.796875"
         y="0"
         sodipodi:role="line"
         id="tspan69">Server</tspan></text>
    <path
       id="path71"
       d="m 565.01001,105 h 47.89001"
       style="fill:none;stroke:#000000;stroke-width:1;stroke-linecap:butt;stroke-linejoin:miter;stroke-miterlimit:10;stroke-dasharray:none;stroke-opacity:1"
       transform="matrix(0.95792873,0,0,0.95792873,0.47896437,0.47896437)"
       clip-path="url(#clipPath72)" />
    <path
       id="path73"
       d="m 619.65002,105 -9,4.5 2.25,-4.5 -2.25,-4.5 z"
       style="fill:#000000;fill-opacity:1;fill-rule:nonzero;stroke:#000000;stroke-width:1;stroke-linecap:butt;stroke-linejoin:miter;stroke-miterlimit:10;stroke-dasharray:none;stroke-opacity:1"
       transform="matrix(0.95792873,0,0,0.95792873,0.47896437,0.47896437)"
       clip-path="url(#clipPath74)" />
    <path
       id="path75"
       d="m 483,75 h 82 v 60 h -82 z"
       style="fill:#ffffff;fill-opacity:1;fill-rule:nonzero;stroke:#000000;stroke-width:1;stroke-linecap:butt;stroke-linejoin:miter;stroke-miterlimit:10;stroke-dasharray:none;stroke-opacity:1"
       transform="matrix(0.95792873,0,0,0.95792873,0.47896437,0.47896437)"
       clip-path="url(#clipPath76)" />
    <text
       id="text76"
       xml:space="preserve"
       transform="matrix(0.95793836,0,0,0.95793836,483.63913,95.793836)"
       clip-path="url(#clipPath77)"><tspan
         style="font-variant:normal;font-weight:normal;font-size:16px;font-family:Helvetica;writing-mode:lr-tb;fill:#000000;fill-opacity:1;fill-rule:nonzero;stroke:none"
         x="0 11.554688 20.453125 29.351562"
         y="0"
         sodipodi:role="line"
         id="tspan76">Node</tspan></text>
    <text
       id="text77"
       xml:space="preserve"
       transform="matrix(0.95793836,0,0,0.95793836,479.38828,114.9526)"
       clip-path="url(#clipPath78)"><tspan
         style="font-variant:normal;font-weight:normal;font-size:16px;font-family:Helvetica;writing-mode:lr-tb;fill:#000000;fill-opacity:1;fill-rule:nonzero;stroke:none"
         x="0 10.671875 19.570312 24.898438 32.898438 41.796875"
         y="0"
         sodipodi:role="line"
         id="tspan77">Server</tspan></text>
    <path
       id="path79"
       d="M 565.01001,176 H 594 v -56 h 18.90002"
       style="fill:none;stroke:#000000;stroke-width:1;stroke-linecap:butt;stroke-linejoin:miter;stroke-miterlimit:10;stroke-dasharray:none;stroke-opacity:1"
       transform="matrix(0.95792873,0,0,0.95792873,0.47896437,0.47896437)"
       clip-path="url(#clipPath80)" />
    <path
       id="path81"
       d="m 619.65002,120 -9,4.5 2.25,-4.5 -2.25,-4.5 z"
       style="fill:#000000;fill-opacity:1;fill-rule:nonzero;stroke:#000000;stroke-width:1;stroke-linecap:butt;stroke-linejoin:miter;stroke-miterlimit:10;stroke-dasharray:none;stroke-opacity:1"
       transform="matrix(0.95792873,0,0,0.95792873,0.47896437,0.47896437)"
       clip-path="url(#clipPath82)" />
    <path
       id="path83"
       d="m 483,146 h 82 v 60 h -82 z"
       style="fill:#ffffff;fill-opacity:1;fill-rule:nonzero;stroke:#000000;stroke-width:1;stroke-linecap:butt;stroke-linejoin:miter;stroke-miterlimit:10;stroke-dasharray:none;stroke-opacity:1"
       transform="matrix(0.95792873,0,0,0.95792873,0.47896437,0.47896437)"
       clip-path="url(#clipPath84)" />
    <text
       id="text84"
       xml:space="preserve"
       transform="matrix(0.95793836,0,0,0.95793836,483.63913,163.80746)"
       clip-path="url(#clipPath85)"><tspan
         style="font-variant:normal;font-weight:normal;font-size:16px;font-family:Helvetica;writing-mode:lr-tb;fill:#000000;fill-opacity:1;fill-rule:nonzero;stroke:none"
         x="0 11.554688 20.453125 29.351562"
         y="0"
         sodipodi:role="line"
         id="tspan84">Node</tspan></text>
    <text
       id="text85"
       xml:space="preserve"
       transform="matrix(0.95793836,0,0,0.95793836,479.38828,182.96623)"
       clip-path="url(#clipPath86)"><tspan
         style="font-variant:normal;font-weight:normal;font-size:16px;font-family:Helvetica;writing-mode:lr-tb;fill:#000000;fill-opacity:1;fill-rule:nonzero;stroke:none"
         x="0 10.671875 19.570312 24.898438 32.898438 41.796875"
         y="0"
         sodipodi:role="line"
         id="tspan85">Server</tspan></text>
  </g>
</svg>
