<?xml version="1.0" encoding="UTF-8" standalone="no"?>
<!-- Created with Inkscape (http://www.inkscape.org/) -->

<svg
   version="1.1"
   id="svg1"
   width="924.15997"
   height="370.55997"
   viewBox="0 0 924.15997 370.55997"
   sodipodi:docname="node-15.pdf"
   xmlns:inkscape="http://www.inkscape.org/namespaces/inkscape"
   xmlns:sodipodi="http://sodipodi.sourceforge.net/DTD/sodipodi-0.dtd"
   xmlns="http://www.w3.org/2000/svg"
   xmlns:svg="http://www.w3.org/2000/svg">
  <defs
     id="defs1">
    <clipPath
       clipPathUnits="userSpaceOnUse"
       id="clipPath2">
      <path
         d="M 0,0 H 2887.4998 V 1156.1981 H 0 Z"
         transform="scale(0.33385283)"
         clip-rule="evenodd"
         id="path2" />
    </clipPath>
    <clipPath
       clipPathUnits="userSpaceOnUse"
       id="clipPath4">
      <path
         d="M 0,0 H 2887.4998 V 1153.2028 H 0 Z"
         transform="matrix(0.33385283,0,0,0.33385283,-0.49999999,-0.49999999)"
         clip-rule="evenodd"
         id="path4" />
    </clipPath>
    <clipPath
       clipPathUnits="userSpaceOnUse"
       id="clipPath5">
      <path
         d="M 0,0 H 2887.4998 V 1153.2028 H 0 Z"
         transform="matrix(0.33384949,0,0,0.33384949,-381.04688,-20)"
         clip-rule="evenodd"
         id="path5" />
    </clipPath>
    <clipPath
       clipPathUnits="userSpaceOnUse"
       id="clipPath7">
      <path
         d="M 0,0 H 2887.4998 V 1153.2028 H 0 Z"
         transform="matrix(0.33385283,0,0,0.33385283,-0.49999999,-0.49999999)"
         clip-rule="evenodd"
         id="path7" />
    </clipPath>
    <clipPath
       clipPathUnits="userSpaceOnUse"
       id="clipPath8">
      <path
         d="M 0,0 H 2887.4998 V 1153.2028 H 0 Z"
         transform="matrix(0.33384949,0,0,0.33384949,-315.48438,-89.999999)"
         clip-rule="evenodd"
         id="path8" />
    </clipPath>
    <clipPath
       clipPathUnits="userSpaceOnUse"
       id="clipPath10">
      <path
         d="M 0,0 H 2887.4998 V 1153.2028 H 0 Z"
         transform="matrix(0.33385283,0,0,0.33385283,-0.49999999,-0.49999999)"
         clip-rule="evenodd"
         id="path10" />
    </clipPath>
    <clipPath
       clipPathUnits="userSpaceOnUse"
       id="clipPath11">
      <path
         d="M 0,0 H 2887.4998 V 1153.2028 H 0 Z"
         transform="matrix(0.33384949,0,0,0.33384949,-468.64063,-89.999999)"
         clip-rule="evenodd"
         id="path11" />
    </clipPath>
    <clipPath
       clipPathUnits="userSpaceOnUse"
       id="clipPath13">
      <path
         d="M 0,0 H 2887.4998 V 1153.2028 H 0 Z"
         transform="matrix(0.33385283,0,0,0.33385283,-0.49999999,-0.49999999)"
         clip-rule="evenodd"
         id="path13" />
    </clipPath>
    <clipPath
       clipPathUnits="userSpaceOnUse"
       id="clipPath14">
      <path
         d="M 0,0 H 2887.4998 V 1153.2028 H 0 Z"
         transform="matrix(0.33384949,0,0,0.33384949,-318.23438,-145)"
         clip-rule="evenodd"
         id="path14" />
    </clipPath>
    <clipPath
       clipPathUnits="userSpaceOnUse"
       id="clipPath16">
      <path
         d="M 0,0 H 2887.4998 V 1153.2028 H 0 Z"
         transform="matrix(0.33385283,0,0,0.33385283,-0.49999999,-0.49999999)"
         clip-rule="evenodd"
         id="path16" />
    </clipPath>
    <clipPath
       clipPathUnits="userSpaceOnUse"
       id="clipPath17">
      <path
         d="M 0,0 H 2887.4998 V 1153.2028 H 0 Z"
         transform="matrix(0.33384949,0,0,0.33384949,-461.71875,-145)"
         clip-rule="evenodd"
         id="path17" />
    </clipPath>
    <clipPath
       clipPathUnits="userSpaceOnUse"
       id="clipPath18">
      <path
         d="M 0,0 H 2887.4998 V 1153.2028 H 0 Z"
         transform="matrix(0.33384949,0,0,0.33384949,-24.765625,-108)"
         clip-rule="evenodd"
         id="path18" />
    </clipPath>
    <clipPath
       clipPathUnits="userSpaceOnUse"
       id="clipPath20">
      <path
         d="M 0,0 H 2887.4998 V 1153.2028 H 0 Z"
         transform="matrix(0.33385283,0,0,0.33385283,-0.49999999,-0.49999999)"
         clip-rule="evenodd"
         id="path20" />
    </clipPath>
    <clipPath
       clipPathUnits="userSpaceOnUse"
       id="clipPath22">
      <path
         d="M 0,0 H 2887.4998 V 1153.2028 H 0 Z"
         transform="matrix(0.33385283,0,0,0.33385283,-0.49999999,-0.49999999)"
         clip-rule="evenodd"
         id="path22" />
    </clipPath>
    <clipPath
       clipPathUnits="userSpaceOnUse"
       id="clipPath24">
      <path
         d="M 0,0 H 2887.4998 V 1153.2028 H 0 Z"
         transform="matrix(0.33385283,0,0,0.33385283,-0.49999999,-0.49999999)"
         clip-rule="evenodd"
         id="path24" />
    </clipPath>
    <clipPath
       clipPathUnits="userSpaceOnUse"
       id="clipPath25">
      <path
         d="M 0,0 H 2887.4998 V 1153.2028 H 0 Z"
         transform="matrix(0.33384949,0,0,0.33384949,-10.84375,-145)"
         clip-rule="evenodd"
         id="path25" />
    </clipPath>
    <clipPath
       clipPathUnits="userSpaceOnUse"
       id="clipPath26">
      <path
         d="M 0,0 H 2887.4998 V 1153.2028 H 0 Z"
         transform="matrix(0.33384949,0,0,0.33384949,-753.76563,-108)"
         clip-rule="evenodd"
         id="path26" />
    </clipPath>
    <clipPath
       clipPathUnits="userSpaceOnUse"
       id="clipPath28">
      <path
         d="M 0,0 H 2887.4998 V 1153.2028 H 0 Z"
         transform="matrix(0.33385283,0,0,0.33385283,-0.49999999,-0.49999999)"
         clip-rule="evenodd"
         id="path28" />
    </clipPath>
    <clipPath
       clipPathUnits="userSpaceOnUse"
       id="clipPath30">
      <path
         d="M 0,0 H 2887.4998 V 1153.2028 H 0 Z"
         transform="matrix(0.33385283,0,0,0.33385283,-0.49999999,-0.49999999)"
         clip-rule="evenodd"
         id="path30" />
    </clipPath>
    <clipPath
       clipPathUnits="userSpaceOnUse"
       id="clipPath32">
      <path
         d="M 0,0 H 2887.4998 V 1153.2028 H 0 Z"
         transform="matrix(0.33385283,0,0,0.33385283,-0.49999999,-0.49999999)"
         clip-rule="evenodd"
         id="path32" />
    </clipPath>
    <clipPath
       clipPathUnits="userSpaceOnUse"
       id="clipPath33">
      <path
         d="M 0,0 H 2887.4998 V 1153.2028 H 0 Z"
         transform="matrix(0.33384949,0,0,0.33384949,-664.5,-145)"
         clip-rule="evenodd"
         id="path33" />
    </clipPath>
    <clipPath
       clipPathUnits="userSpaceOnUse"
       id="clipPath35">
      <path
         d="M 0,0 H 2887.4998 V 1153.2028 H 0 Z"
         transform="matrix(0.33385283,0,0,0.33385283,-0.49999999,-0.49999999)"
         clip-rule="evenodd"
         id="path35" />
    </clipPath>
    <clipPath
       clipPathUnits="userSpaceOnUse"
       id="clipPath37">
      <path
         d="M 0,0 H 2887.4998 V 1153.2028 H 0 Z"
         transform="matrix(0.33385283,0,0,0.33385283,-0.49999999,-0.49999999)"
         clip-rule="evenodd"
         id="path37" />
    </clipPath>
    <clipPath
       clipPathUnits="userSpaceOnUse"
       id="clipPath39">
      <path
         d="M 0,0 H 2887.4998 V 1153.2028 H 0 Z"
         transform="matrix(0.33385283,0,0,0.33385283,-0.49999999,-0.49999999)"
         clip-rule="evenodd"
         id="path39" />
    </clipPath>
    <clipPath
       clipPathUnits="userSpaceOnUse"
       id="clipPath40">
      <path
         d="M 0,0 H 2887.4998 V 1153.2028 H 0 Z"
         transform="matrix(0.33384949,0,0,0.33384949,-786.04687,-220)"
         clip-rule="evenodd"
         id="path40" />
    </clipPath>
  </defs>
  <sodipodi:namedview
     id="namedview1"
     pagecolor="#ffffff"
     bordercolor="#000000"
     borderopacity="0.25"
     inkscape:showpageshadow="2"
     inkscape:pageopacity="0.0"
     inkscape:pagecheckerboard="0"
     inkscape:deskcolor="#d1d1d1">
    <inkscape:page
       x="0"
       y="0"
       inkscape:label="1"
       id="page1"
       width="924.15997"
       height="370.55997"
       margin="0"
       bleed="0" />
  </sodipodi:namedview>
  <g
     id="g1"
     inkscape:groupmode="layer"
     inkscape:label="1">
    <path
       id="path1"
       d="M 0,0 H 964 V 386 H 0 Z"
       style="fill:#ffffff;fill-opacity:1;fill-rule:nonzero;stroke:none"
       transform="scale(0.95850614)"
       clip-path="url(#clipPath2)" />
    <path
       id="path3"
       d="M 231,33 H 591 V 383 H 231 Z"
       style="fill:#ffffff;fill-opacity:1;fill-rule:nonzero;stroke:#000000;stroke-width:1;stroke-linecap:butt;stroke-linejoin:miter;stroke-miterlimit:10;stroke-dasharray:none;stroke-opacity:1"
       transform="matrix(0.95850614,0,0,0.95850614,0.47925306,0.47925306)"
       clip-path="url(#clipPath4)" />
    <text
       id="text4"
       xml:space="preserve"
       transform="matrix(0.95851574,0,0,0.95851574,365.23943,19.170315)"
       clip-path="url(#clipPath5)"><tspan
         style="font-variant:normal;font-weight:700;font-size:22px;font-family:Helvetica;writing-mode:lr-tb;fill:#000000;fill-opacity:1;fill-rule:nonzero;stroke:none"
         x="0 15.887695 28.123047 41.561523 47.673828"
         y="0"
         sodipodi:role="line"
         id="tspan4">Redis</tspan></text>
    <path
       id="path6"
       d="m 251,53 h 160 v 60 H 251 Z"
       style="fill:#dae8fc;fill-opacity:1;fill-rule:nonzero;stroke:#6c8ebf;stroke-width:1;stroke-linecap:butt;stroke-linejoin:miter;stroke-miterlimit:10;stroke-dasharray:none;stroke-opacity:1"
       transform="matrix(0.95850614,0,0,0.95850614,0.47925306,0.47925306)"
       clip-path="url(#clipPath7)" />
    <text
       id="text7"
       xml:space="preserve"
       transform="matrix(0.95851574,0,0,0.95851574,302.39674,86.266416)"
       clip-path="url(#clipPath8)"><tspan
         style="font-variant:normal;font-weight:normal;font-size:18px;font-family:Helvetica;writing-mode:lr-tb;fill:#000000;fill-opacity:1;fill-rule:nonzero;stroke:none"
         x="0 12.005859 22.016602"
         y="0"
         sodipodi:role="line"
         id="tspan7">Key</tspan></text>
    <path
       id="path9"
       d="m 411,53 h 160 v 60 H 411 Z"
       style="fill:#dae8fc;fill-opacity:1;fill-rule:nonzero;stroke:#6c8ebf;stroke-width:1;stroke-linecap:butt;stroke-linejoin:miter;stroke-miterlimit:10;stroke-dasharray:none;stroke-opacity:1"
       transform="matrix(0.95850614,0,0,0.95850614,0.47925306,0.47925306)"
       clip-path="url(#clipPath10)" />
    <text
       id="text10"
       xml:space="preserve"
       transform="matrix(0.95851574,0,0,0.95851574,449.19942,86.266416)"
       clip-path="url(#clipPath11)"><tspan
         style="font-variant:normal;font-weight:normal;font-size:18px;font-family:Helvetica;writing-mode:lr-tb;fill:#000000;fill-opacity:1;fill-rule:nonzero;stroke:none"
         x="0 10.678711 20.689453 24.688477 34.699219"
         y="0"
         sodipodi:role="line"
         id="tspan10">Value</tspan></text>
    <path
       id="path12"
       d="m 251,113 h 160 v 50 H 251 Z"
       style="fill:#ffffff;fill-opacity:1;fill-rule:nonzero;stroke:#000000;stroke-width:1;stroke-linecap:butt;stroke-linejoin:miter;stroke-miterlimit:10;stroke-dasharray:none;stroke-opacity:1"
       transform="matrix(0.95850614,0,0,0.95850614,0.47925306,0.47925306)"
       clip-path="url(#clipPath13)" />
    <text
       id="text13"
       xml:space="preserve"
       transform="matrix(0.95851574,0,0,0.95851574,305.03266,138.98478)"
       clip-path="url(#clipPath14)"><tspan
         style="font-variant:normal;font-weight:normal;font-size:22px;font-family:Helvetica;writing-mode:lr-tb;fill:#000000;fill-opacity:1;fill-rule:nonzero;stroke:none"
         x="0 4.2001953 16.435547 21.323242"
         y="0"
         sodipodi:role="line"
         id="tspan13">'hi'</tspan></text>
    <path
       id="path15"
       d="m 411,113 h 160 v 50 H 411 Z"
       style="fill:#ffffff;fill-opacity:1;fill-rule:nonzero;stroke:#000000;stroke-width:1;stroke-linecap:butt;stroke-linejoin:miter;stroke-miterlimit:10;stroke-dasharray:none;stroke-opacity:1"
       transform="matrix(0.95850614,0,0,0.95850614,0.47925306,0.47925306)"
       clip-path="url(#clipPath16)" />
    <text
       id="text16"
       xml:space="preserve"
       transform="matrix(0.95851574,0,0,0.95851574,442.56469,138.98478)"
       clip-path="url(#clipPath17)"><tspan
         style="font-variant:normal;font-weight:normal;font-size:22px;font-family:Helvetica;writing-mode:lr-tb;fill:#000000;fill-opacity:1;fill-rule:nonzero;stroke:none"
         x="0 4.2001953 10.3125 22.547852 34.783203 42.109375 54.344727"
         y="0"
         sodipodi:role="line"
         id="tspan16">'there'</tspan></text>
    <text
       id="text17"
       xml:space="preserve"
       transform="matrix(0.95851574,0,0,0.95851574,23.738241,103.5197)"
       clip-path="url(#clipPath18)"><tspan
         style="font-variant:normal;font-weight:700;font-size:22px;font-family:Helvetica;writing-mode:lr-tb;fill:#000000;fill-opacity:1;fill-rule:nonzero;stroke:none"
         x="0 13.438477 26.876953 40.31543 52.550781 59.876953 68.438477 80.673828 94.112305 100.22461"
         y="0"
         sodipodi:role="line"
         id="tspan17">node-redis</tspan></text>
    <path
       id="path19"
       d="m 161,138 h 35 l 22.02,-0.24001"
       style="fill:none;stroke:#000000;stroke-width:1;stroke-linecap:butt;stroke-linejoin:miter;stroke-miterlimit:10;stroke-dasharray:none;stroke-opacity:1"
       transform="matrix(0.95850614,0,0,0.95850614,0.47925306,0.47925306)"
       clip-path="url(#clipPath20)" />
    <path
       id="path21"
       d="m 224.77,137.69 -8.94999,4.59999 2.19999,-4.53 -2.3,-4.47 z"
       style="fill:#000000;fill-opacity:1;fill-rule:nonzero;stroke:#000000;stroke-width:1;stroke-linecap:butt;stroke-linejoin:miter;stroke-miterlimit:10;stroke-dasharray:none;stroke-opacity:1"
       transform="matrix(0.95850614,0,0,0.95850614,0.47925306,0.47925306)"
       clip-path="url(#clipPath22)" />
    <path
       id="path23"
       d="m 1,113 h 160 v 50 H 1 Z"
       style="fill:#ffffff;fill-opacity:1;fill-rule:nonzero;stroke:#000000;stroke-width:1;stroke-linecap:butt;stroke-linejoin:miter;stroke-miterlimit:10;stroke-dasharray:none;stroke-opacity:1"
       transform="matrix(0.95850614,0,0,0.95850614,0.47925306,0.47925306)"
       clip-path="url(#clipPath24)" />
    <text
       id="text24"
       xml:space="preserve"
       transform="matrix(0.95851574,0,0,0.95851574,10.393905,138.98478)"
       clip-path="url(#clipPath25)"><tspan
         style="font-variant:normal;font-weight:normal;font-size:22px;font-family:Helvetica;writing-mode:lr-tb;fill:#000000;fill-opacity:1;fill-rule:nonzero;stroke:none"
         x="0 11 23.235352 29.347656 36.673828 40.874023 53.109375 57.99707 62.197266 68.30957 74.421875 78.62207 84.734375 96.969727 109.20508 116.53125 128.7666 132.9668"
         y="0"
         sodipodi:role="line"
         id="tspan24">set('hi', 'there')</tspan></text>
    <text
       id="text25"
       xml:space="preserve"
       transform="matrix(0.95851574,0,0,0.95851574,722.49622,103.5197)"
       clip-path="url(#clipPath26)"><tspan
         style="font-variant:normal;font-weight:700;font-size:22px;font-family:Helvetica;writing-mode:lr-tb;fill:#000000;fill-opacity:1;fill-rule:nonzero;stroke:none"
         x="0 13.438477 26.876953 40.31543 52.550781 59.876953 68.438477 80.673828 94.112305 100.22461"
         y="0"
         sodipodi:role="line"
         id="tspan25">node-redis</tspan></text>
    <path
       id="path27"
       d="m 810.01001,163 -0.01,20 v -10 9.89999"
       style="fill:none;stroke:#000000;stroke-width:1;stroke-linecap:butt;stroke-linejoin:miter;stroke-miterlimit:10;stroke-dasharray:none;stroke-opacity:1"
       transform="matrix(0.95850614,0,0,0.95850614,0.47925306,0.47925306)"
       clip-path="url(#clipPath28)" />
    <path
       id="path29"
       d="m 810,189.64999 -4.5,-9 4.5,2.25 4.5,-2.25 z"
       style="fill:#000000;fill-opacity:1;fill-rule:nonzero;stroke:#000000;stroke-width:1;stroke-linecap:butt;stroke-linejoin:miter;stroke-miterlimit:10;stroke-dasharray:none;stroke-opacity:1"
       transform="matrix(0.95850614,0,0,0.95850614,0.47925306,0.47925306)"
       clip-path="url(#clipPath30)" />
    <path
       id="path31"
       d="m 659.01001,113 h 302 v 50 h -302 z"
       style="fill:#ffffff;fill-opacity:1;fill-rule:nonzero;stroke:#000000;stroke-width:1;stroke-linecap:butt;stroke-linejoin:miter;stroke-miterlimit:10;stroke-dasharray:none;stroke-opacity:1"
       transform="matrix(0.95850614,0,0,0.95850614,0.47925306,0.47925306)"
       clip-path="url(#clipPath32)" />
    <text
       id="text32"
       xml:space="preserve"
       transform="matrix(0.95851574,0,0,0.95851574,636.93371,138.98478)"
       clip-path="url(#clipPath33)"><tspan
         style="font-variant:normal;font-weight:normal;font-size:18px;font-family:Helvetica;writing-mode:lr-tb;fill:#000000;fill-opacity:1;fill-rule:nonzero;stroke:none"
         x="0 10.010742 20.021484 25.022461 31.016602 34.453125 44.463867 48.462891 51.899414 56.900391 61.901367 67.895508 77.90625 83.900391 88.910156 93.911133 98.912109 107.91211 117.92285 121.92188 127.91602 132.91699 143.42871 153.94043 158.94141 167.94141 177.95215 187.96289 196.96289 206.97363 210.97266 220.9834 225.98438 229.9834 239.99414 250.00488 255.99902 264.99902 275.00977 279.00879 285.00293"
         y="0"
         sodipodi:role="line"
         id="tspan32">get('hi', (err, val) =&gt; console.log(val))</tspan></text>
    <path
       id="path34"
       d="m 591.01001,137.8 h 57.08997"
       style="fill:none;stroke:#000000;stroke-width:1;stroke-linecap:butt;stroke-linejoin:miter;stroke-miterlimit:10;stroke-dasharray:none;stroke-opacity:1"
       transform="matrix(0.95850614,0,0,0.95850614,0.47925306,0.47925306)"
       clip-path="url(#clipPath35)" />
    <path
       id="path36"
       d="m 654.84998,137.8 -9,4.5 2.25,-4.5 -2.25,-4.5 z"
       style="fill:#000000;fill-opacity:1;fill-rule:nonzero;stroke:#000000;stroke-width:1;stroke-linecap:butt;stroke-linejoin:miter;stroke-miterlimit:10;stroke-dasharray:none;stroke-opacity:1"
       transform="matrix(0.95850614,0,0,0.95850614,0.47925306,0.47925306)"
       clip-path="url(#clipPath37)" />
    <path
       id="path38"
       d="m 730.01001,193 h 160 v 40 h -160 z"
       style="fill:#ffffff;fill-opacity:1;fill-rule:nonzero;stroke:#000000;stroke-width:1;stroke-linecap:butt;stroke-linejoin:miter;stroke-miterlimit:10;stroke-dasharray:none;stroke-opacity:1"
       transform="matrix(0.95850614,0,0,0.95850614,0.47925306,0.47925306)"
       clip-path="url(#clipPath39)" />
    <text
       id="text39"
       xml:space="preserve"
       transform="matrix(0.95851574,0,0,0.95851574,753.4383,210.87346)"
       clip-path="url(#clipPath40)"><tspan
         style="font-variant:normal;font-weight:normal;font-size:18px;font-family:Helvetica;writing-mode:lr-tb;fill:#000000;fill-opacity:1;fill-rule:nonzero;stroke:none"
         x="0 3.4365234 8.4375 18.448242 28.458984 34.453125 44.463867"
         y="0"
         sodipodi:role="line"
         id="tspan39">'there'</tspan></text>
  </g>
</svg>
