<?xml version="1.0" encoding="UTF-8" standalone="no"?>
<!-- Created with Inkscape (http://www.inkscape.org/) -->

<svg
   version="1.1"
   id="svg1"
   width="856"
   height="202.56"
   viewBox="0 0 856 202.56"
   sodipodi:docname="node-12.pdf"
   xmlns:inkscape="http://www.inkscape.org/namespaces/inkscape"
   xmlns:sodipodi="http://sodipodi.sourceforge.net/DTD/sodipodi-0.dtd"
   xmlns="http://www.w3.org/2000/svg"
   xmlns:svg="http://www.w3.org/2000/svg">
  <defs
     id="defs1">
    <clipPath
       clipPathUnits="userSpaceOnUse"
       id="clipPath2">
      <path
         d="M 0,0 H 2674.9998 V 631.34784 H 0 Z"
         transform="scale(0.33420562)"
         clip-rule="evenodd"
         id="path2" />
    </clipPath>
    <clipPath
       clipPathUnits="userSpaceOnUse"
       id="clipPath4">
      <path
         d="M 0,0 H 2674.9998 V 628.35565 H 0 Z"
         transform="matrix(0.33420562,0,0,0.33420562,-0.49999999,-0.49999999)"
         clip-rule="evenodd"
         id="path4" />
    </clipPath>
    <clipPath
       clipPathUnits="userSpaceOnUse"
       id="clipPath6">
      <path
         d="M 0,0 H 2674.9998 V 628.35565 H 0 Z"
         transform="matrix(0.33420562,0,0,0.33420562,-0.49999999,-0.49999999)"
         clip-rule="evenodd"
         id="path6" />
    </clipPath>
    <clipPath
       clipPathUnits="userSpaceOnUse"
       id="clipPath8">
      <path
         d="M 0,0 H 2674.9998 V 628.35565 H 0 Z"
         transform="matrix(0.33420562,0,0,0.33420562,-0.49999999,-0.49999999)"
         clip-rule="evenodd"
         id="path8" />
    </clipPath>
    <clipPath
       clipPathUnits="userSpaceOnUse"
       id="clipPath9">
      <path
         d="M 0,0 H 2674.9998 V 628.35565 H 0 Z"
         transform="matrix(0.33420227,0,0,0.33420227,-3.96875,-123)"
         clip-rule="evenodd"
         id="path9" />
    </clipPath>
    <clipPath
       clipPathUnits="userSpaceOnUse"
       id="clipPath11">
      <path
         d="M 0,0 H 2674.9998 V 628.35565 H 0 Z"
         transform="matrix(0.33420562,0,0,0.33420562,-0.49999999,-0.49999999)"
         clip-rule="evenodd"
         id="path11" />
    </clipPath>
    <clipPath
       clipPathUnits="userSpaceOnUse"
       id="clipPath13">
      <path
         d="M 0,0 H 2674.9998 V 628.35565 H 0 Z"
         transform="matrix(0.33420562,0,0,0.33420562,-0.49999999,-0.49999999)"
         clip-rule="evenodd"
         id="path13" />
    </clipPath>
    <clipPath
       clipPathUnits="userSpaceOnUse"
       id="clipPath15">
      <path
         d="M 0,0 H 2674.9998 V 628.35565 H 0 Z"
         transform="matrix(0.33420562,0,0,0.33420562,-0.49999999,-0.49999999)"
         clip-rule="evenodd"
         id="path15" />
    </clipPath>
    <clipPath
       clipPathUnits="userSpaceOnUse"
       id="clipPath17">
      <path
         d="M 0,0 H 2674.9998 V 628.35565 H 0 Z"
         transform="matrix(0.33420562,0,0,0.33420562,-0.49999999,-0.49999999)"
         clip-rule="evenodd"
         id="path17" />
    </clipPath>
    <clipPath
       clipPathUnits="userSpaceOnUse"
       id="clipPath19">
      <path
         d="M 0,0 H 2674.9998 V 628.35565 H 0 Z"
         transform="matrix(0.33420562,0,0,0.33420562,-0.49999999,-0.49999999)"
         clip-rule="evenodd"
         id="path19" />
    </clipPath>
    <clipPath
       clipPathUnits="userSpaceOnUse"
       id="clipPath21">
      <path
         d="M 0,0 H 2674.9998 V 628.35565 H 0 Z"
         transform="matrix(0.33420562,0,0,0.33420562,-0.49999999,-0.49999999)"
         clip-rule="evenodd"
         id="path21" />
    </clipPath>
    <clipPath
       clipPathUnits="userSpaceOnUse"
       id="clipPath22">
      <path
         d="M 0,0 H 2674.9998 V 628.35565 H 0 Z"
         transform="matrix(0.33420227,0,0,0.33420227,-146.34375,-57)"
         clip-rule="evenodd"
         id="path22" />
    </clipPath>
    <clipPath
       clipPathUnits="userSpaceOnUse"
       id="clipPath23">
      <path
         d="M 0,0 H 2674.9998 V 628.35565 H 0 Z"
         transform="matrix(0.33420227,0,0,0.33420227,-375.95313,-18)"
         clip-rule="evenodd"
         id="path23" />
    </clipPath>
    <clipPath
       clipPathUnits="userSpaceOnUse"
       id="clipPath25">
      <path
         d="M 0,0 H 2674.9998 V 628.35565 H 0 Z"
         transform="matrix(0.33420562,0,0,0.33420562,-0.49999999,-0.49999999)"
         clip-rule="evenodd"
         id="path25" />
    </clipPath>
    <clipPath
       clipPathUnits="userSpaceOnUse"
       id="clipPath26">
      <path
         d="M 0,0 H 2674.9998 V 628.35565 H 0 Z"
         transform="matrix(0.33420227,0,0,0.33420227,-302.54688,-65)"
         clip-rule="evenodd"
         id="path26" />
    </clipPath>
    <clipPath
       clipPathUnits="userSpaceOnUse"
       id="clipPath28">
      <path
         d="M 0,0 H 2674.9998 V 628.35565 H 0 Z"
         transform="matrix(0.33420562,0,0,0.33420562,-0.49999999,-0.49999999)"
         clip-rule="evenodd"
         id="path28" />
    </clipPath>
    <clipPath
       clipPathUnits="userSpaceOnUse"
       id="clipPath29">
      <path
         d="M 0,0 H 2674.9998 V 628.35565 H 0 Z"
         transform="matrix(0.33420227,0,0,0.33420227,-378.0625,-65)"
         clip-rule="evenodd"
         id="path29" />
    </clipPath>
    <clipPath
       clipPathUnits="userSpaceOnUse"
       id="clipPath31">
      <path
         d="M 0,0 H 2674.9998 V 628.35565 H 0 Z"
         transform="matrix(0.33420562,0,0,0.33420562,-0.49999999,-0.49999999)"
         clip-rule="evenodd"
         id="path31" />
    </clipPath>
    <clipPath
       clipPathUnits="userSpaceOnUse"
       id="clipPath32">
      <path
         d="M 0,0 H 2674.9998 V 628.35565 H 0 Z"
         transform="matrix(0.33420227,0,0,0.33420227,-302.54688,-95)"
         clip-rule="evenodd"
         id="path32" />
    </clipPath>
    <clipPath
       clipPathUnits="userSpaceOnUse"
       id="clipPath34">
      <path
         d="M 0,0 H 2674.9998 V 628.35565 H 0 Z"
         transform="matrix(0.33420562,0,0,0.33420562,-0.49999999,-0.49999999)"
         clip-rule="evenodd"
         id="path34" />
    </clipPath>
    <clipPath
       clipPathUnits="userSpaceOnUse"
       id="clipPath35">
      <path
         d="M 0,0 H 2674.9998 V 628.35565 H 0 Z"
         transform="matrix(0.33420227,0,0,0.33420227,-369.5625,-95)"
         clip-rule="evenodd"
         id="path35" />
    </clipPath>
    <clipPath
       clipPathUnits="userSpaceOnUse"
       id="clipPath37">
      <path
         d="M 0,0 H 2674.9998 V 628.35565 H 0 Z"
         transform="matrix(0.33420562,0,0,0.33420562,-0.49999999,-0.49999999)"
         clip-rule="evenodd"
         id="path37" />
    </clipPath>
    <clipPath
       clipPathUnits="userSpaceOnUse"
       id="clipPath38">
      <path
         d="M 0,0 H 2674.9998 V 628.35565 H 0 Z"
         transform="matrix(0.33420227,0,0,0.33420227,-302.54688,-125)"
         clip-rule="evenodd"
         id="path38" />
    </clipPath>
    <clipPath
       clipPathUnits="userSpaceOnUse"
       id="clipPath40">
      <path
         d="M 0,0 H 2674.9998 V 628.35565 H 0 Z"
         transform="matrix(0.33420562,0,0,0.33420562,-0.49999999,-0.49999999)"
         clip-rule="evenodd"
         id="path40" />
    </clipPath>
    <clipPath
       clipPathUnits="userSpaceOnUse"
       id="clipPath41">
      <path
         d="M 0,0 H 2674.9998 V 628.35565 H 0 Z"
         transform="matrix(0.33420227,0,0,0.33420227,-370.04688,-125)"
         clip-rule="evenodd"
         id="path41" />
    </clipPath>
    <clipPath
       clipPathUnits="userSpaceOnUse"
       id="clipPath43">
      <path
         d="M 0,0 H 2674.9998 V 628.35565 H 0 Z"
         transform="matrix(0.33420562,0,0,0.33420562,-0.49999999,-0.49999999)"
         clip-rule="evenodd"
         id="path43" />
    </clipPath>
    <clipPath
       clipPathUnits="userSpaceOnUse"
       id="clipPath45">
      <path
         d="M 0,0 H 2674.9998 V 628.35565 H 0 Z"
         transform="matrix(0.33420562,0,0,0.33420562,-0.49999999,-0.49999999)"
         clip-rule="evenodd"
         id="path45" />
    </clipPath>
    <clipPath
       clipPathUnits="userSpaceOnUse"
       id="clipPath47">
      <path
         d="M 0,0 H 2674.9998 V 628.35565 H 0 Z"
         transform="matrix(0.33420562,0,0,0.33420562,-0.49999999,-0.49999999)"
         clip-rule="evenodd"
         id="path47" />
    </clipPath>
    <clipPath
       clipPathUnits="userSpaceOnUse"
       id="clipPath48">
      <path
         d="M 0,0 H 2674.9998 V 628.35565 H 0 Z"
         transform="matrix(0.33420227,0,0,0.33420227,-800.96874,-123)"
         clip-rule="evenodd"
         id="path48" />
    </clipPath>
    <clipPath
       clipPathUnits="userSpaceOnUse"
       id="clipPath50">
      <path
         d="M 0,0 H 2674.9998 V 628.35565 H 0 Z"
         transform="matrix(0.33420562,0,0,0.33420562,-0.49999999,-0.49999999)"
         clip-rule="evenodd"
         id="path50" />
    </clipPath>
    <clipPath
       clipPathUnits="userSpaceOnUse"
       id="clipPath51">
      <path
         d="M 0,0 H 2674.9998 V 628.35565 H 0 Z"
         transform="matrix(0.33420227,0,0,0.33420227,-302.54688,-155)"
         clip-rule="evenodd"
         id="path51" />
    </clipPath>
    <clipPath
       clipPathUnits="userSpaceOnUse"
       id="clipPath53">
      <path
         d="M 0,0 H 2674.9998 V 628.35565 H 0 Z"
         transform="matrix(0.33420562,0,0,0.33420562,-0.49999999,-0.49999999)"
         clip-rule="evenodd"
         id="path53" />
    </clipPath>
    <clipPath
       clipPathUnits="userSpaceOnUse"
       id="clipPath54">
      <path
         d="M 0,0 H 2674.9998 V 628.35565 H 0 Z"
         transform="matrix(0.33420227,0,0,0.33420227,-370.5625,-155)"
         clip-rule="evenodd"
         id="path54" />
    </clipPath>
  </defs>
  <sodipodi:namedview
     id="namedview1"
     pagecolor="#ffffff"
     bordercolor="#000000"
     borderopacity="0.25"
     inkscape:showpageshadow="2"
     inkscape:pageopacity="0.0"
     inkscape:pagecheckerboard="0"
     inkscape:deskcolor="#d1d1d1">
    <inkscape:page
       x="0"
       y="0"
       inkscape:label="1"
       id="page1"
       width="856"
       height="202.56"
       margin="0"
       bleed="0" />
  </sodipodi:namedview>
  <g
     id="g1"
     inkscape:groupmode="layer"
     inkscape:label="1">
    <path
       id="path1"
       d="M 0,0 H 894 V 211 H 0 Z"
       style="fill:#ffffff;fill-opacity:1;fill-rule:nonzero;stroke:none"
       transform="scale(0.95749433)"
       clip-path="url(#clipPath2)" />
    <path
       id="path3"
       d="m 91,69.25 90,0.05 79.89999,-0.04"
       style="fill:none;stroke:#000000;stroke-width:1;stroke-linecap:butt;stroke-linejoin:miter;stroke-miterlimit:10;stroke-dasharray:none;stroke-opacity:1"
       transform="matrix(0.95749433,0,0,0.95749433,0.47874716,0.47874716)"
       clip-path="url(#clipPath4)" />
    <path
       id="path5"
       d="m 267.64999,69.25 -9,4.510002 2.25,-4.5 -2.25,-4.5 z"
       style="fill:#000000;fill-opacity:1;fill-rule:nonzero;stroke:#000000;stroke-width:1;stroke-linecap:butt;stroke-linejoin:miter;stroke-miterlimit:10;stroke-dasharray:none;stroke-opacity:1"
       transform="matrix(0.95749433,0,0,0.95749433,0.47874716,0.47874716)"
       clip-path="url(#clipPath6)" />
    <path
       id="path7"
       d="M 1,23 H 91 V 208 H 1 Z"
       style="fill:#ffffff;fill-opacity:1;fill-rule:nonzero;stroke:#000000;stroke-width:1;stroke-linecap:butt;stroke-linejoin:miter;stroke-miterlimit:10;stroke-dasharray:none;stroke-opacity:1"
       transform="matrix(0.95749433,0,0,0.95749433,0.47874716,0.47874716)"
       clip-path="url(#clipPath8)" />
    <text
       id="text8"
       xml:space="preserve"
       transform="matrix(0.95750393,0,0,0.95750393,3.8000937,117.77298)"
       clip-path="url(#clipPath9)"><tspan
         style="font-variant:normal;font-weight:normal;font-size:18px;font-family:Helvetica;writing-mode:lr-tb;fill:#000000;fill-opacity:1;fill-rule:nonzero;stroke:none"
         x="0 14.994141 25.004883 35.015625 45.026367 55.037109 65.047852 74.047852"
         y="0"
         sodipodi:role="line"
         id="tspan8">Mongoose</tspan></text>
    <path
       id="path10"
       d="M 601.01001,69.25 696,69.3 780.90002,69.26"
       style="fill:none;stroke:#000000;stroke-width:1;stroke-linecap:butt;stroke-linejoin:miter;stroke-miterlimit:10;stroke-dasharray:none;stroke-opacity:1"
       transform="matrix(0.95749433,0,0,0.95749433,0.47874716,0.47874716)"
       clip-path="url(#clipPath11)" />
    <path
       id="path12"
       d="m 787.65002,69.25 -8.99005,4.510002 2.24005,-4.5 -2.25,-4.5 z"
       style="fill:#000000;fill-opacity:1;fill-rule:nonzero;stroke:#000000;stroke-width:1;stroke-linecap:butt;stroke-linejoin:miter;stroke-miterlimit:10;stroke-dasharray:none;stroke-opacity:1"
       transform="matrix(0.95749433,0,0,0.95749433,0.47874716,0.47874716)"
       clip-path="url(#clipPath13)" />
    <path
       id="path14"
       d="M 271,161.75 H 101.11"
       style="fill:none;stroke:#000000;stroke-width:1;stroke-linecap:butt;stroke-linejoin:miter;stroke-miterlimit:10;stroke-dasharray:none;stroke-opacity:1"
       transform="matrix(0.95749433,0,0,0.95749433,0.47874716,0.47874716)"
       clip-path="url(#clipPath15)" />
    <path
       id="path16"
       d="m 94.349998,161.75 9.010002,-4.5 -2.25,4.5 2.25,4.5 z"
       style="fill:#000000;fill-opacity:1;fill-rule:nonzero;stroke:#000000;stroke-width:1;stroke-linecap:butt;stroke-linejoin:miter;stroke-miterlimit:10;stroke-dasharray:none;stroke-opacity:1"
       transform="matrix(0.95749433,0,0,0.95749433,0.47874716,0.47874716)"
       clip-path="url(#clipPath17)" />
    <path
       id="path18"
       d="M 271,23 H 601 V 208 H 271 Z"
       style="fill:#ffffff;fill-opacity:1;fill-rule:nonzero;stroke:#000000;stroke-width:1;stroke-linecap:butt;stroke-linejoin:miter;stroke-miterlimit:10;stroke-dasharray:none;stroke-opacity:1"
       transform="matrix(0.95749433,0,0,0.95749433,0.47874716,0.47874716)"
       clip-path="url(#clipPath19)" />
    <path
       id="path20"
       d="M 143,38 H 253 V 68 H 143 Z"
       style="fill:#ffffff;fill-opacity:1;fill-rule:nonzero;stroke:#000000;stroke-width:1;stroke-linecap:butt;stroke-linejoin:miter;stroke-miterlimit:10;stroke-dasharray:none;stroke-opacity:1"
       transform="matrix(0.95749433,0,0,0.95749433,0.47874716,0.47874716)"
       clip-path="url(#clipPath21)" />
    <g
       id="g21" />
    <text
       id="text21"
       xml:space="preserve"
       transform="matrix(0.95750393,0,0,0.95750393,140.12472,54.577724)"
       clip-path="url(#clipPath22)"><tspan
         style="font-variant:normal;font-weight:normal;font-size:12px;font-family:Helvetica;writing-mode:lr-tb;fill:#000000;fill-opacity:1;fill-rule:nonzero;stroke:none"
         x="0 8.0039062 10.669922 17.34375 24.017578 27.351562 33.351562 40.025391 46.699219 54.703125 60.703125 64.037109 70.710938 74.707031 76.998047 83.671875 90.345703 97.019531 99.310547"
         y="0"
         sodipodi:role="line"
         id="tspan21">Blog.ﬁndById('123')</tspan></text>
    <text
       id="text22"
       xml:space="preserve"
       transform="matrix(0.95750393,0,0,0.95750393,359.9766,17.235071)"
       clip-path="url(#clipPath23)"><tspan
         style="font-variant:normal;font-weight:700;font-size:18px;font-family:Helvetica;writing-mode:lr-tb;fill:#000000;fill-opacity:1;fill-rule:nonzero;stroke:none"
         x="0 12.999023 23.009766 33.020508 44.015625 54.026367 59.027344 71.033203 81.043945 88.048828 98.05957 108.07031"
         y="0"
         sodipodi:role="line"
         id="tspan22">Cache Server</tspan></text>
    <path
       id="path24"
       d="m 281,43 h 80 v 30 h -80 z"
       style="fill:#ffffff;fill-opacity:1;fill-rule:nonzero;stroke:#000000;stroke-width:1;stroke-linecap:butt;stroke-linejoin:miter;stroke-miterlimit:10;stroke-dasharray:none;stroke-opacity:1"
       transform="matrix(0.95749433,0,0,0.95749433,0.47874716,0.47874716)"
       clip-path="url(#clipPath25)" />
    <text
       id="text25"
       xml:space="preserve"
       transform="matrix(0.95750393,0,0,0.95750393,289.68983,62.237755)"
       clip-path="url(#clipPath26)"><tspan
         style="font-variant:normal;font-weight:normal;font-size:18px;font-family:Helvetica;writing-mode:lr-tb;fill:#000000;fill-opacity:1;fill-rule:nonzero;stroke:none"
         x="0 3.4365234 13.447266 23.458008 33.46875"
         y="0"
         sodipodi:role="line"
         id="tspan25">'456'</tspan></text>
    <path
       id="path27"
       d="M 361,43 H 591 V 73 H 361 Z"
       style="fill:#ffffff;fill-opacity:1;fill-rule:nonzero;stroke:#000000;stroke-width:1;stroke-linecap:butt;stroke-linejoin:miter;stroke-miterlimit:10;stroke-dasharray:none;stroke-opacity:1"
       transform="matrix(0.95749433,0,0,0.95749433,0.47874716,0.47874716)"
       clip-path="url(#clipPath28)" />
    <text
       id="text28"
       xml:space="preserve"
       transform="matrix(0.95750393,0,0,0.95750393,361.99633,62.237755)"
       clip-path="url(#clipPath29)"><tspan
         style="font-variant:normal;font-weight:normal;font-size:18px;font-family:Helvetica;writing-mode:lr-tb;fill:#000000;fill-opacity:1;fill-rule:nonzero;stroke:none"
         x="0 6.0117188 11.012695 16.013672 20.012695 25.013672 29.012695 39.023438 44.024414 49.025391 52.461914 62.472656 66.47168 69.908203 74.90918 79.910156 88.910156 98.920898 108.93164 113.93262 123.94336 133.9541 138.95508 143.95605 148.95703 152.39355 162.4043 171.4043 181.41504 184.85156 189.85254"
         y="0"
         sodipodi:role="line"
         id="tspan28">{ title: 'hi', content: 'bye' }</tspan></text>
    <path
       id="path30"
       d="m 281,73 h 80 v 30 h -80 z"
       style="fill:#ffffff;fill-opacity:1;fill-rule:nonzero;stroke:#000000;stroke-width:1;stroke-linecap:butt;stroke-linejoin:miter;stroke-miterlimit:10;stroke-dasharray:none;stroke-opacity:1"
       transform="matrix(0.95749433,0,0,0.95749433,0.47874716,0.47874716)"
       clip-path="url(#clipPath31)" />
    <text
       id="text31"
       xml:space="preserve"
       transform="matrix(0.95750393,0,0,0.95750393,289.68983,90.962873)"
       clip-path="url(#clipPath32)"><tspan
         style="font-variant:normal;font-weight:normal;font-size:18px;font-family:Helvetica;writing-mode:lr-tb;fill:#000000;fill-opacity:1;fill-rule:nonzero;stroke:none"
         x="0 3.4365234 13.447266 23.458008 33.46875"
         y="0"
         sodipodi:role="line"
         id="tspan31">'295'</tspan></text>
    <path
       id="path33"
       d="m 361,73 h 230 v 30 H 361 Z"
       style="fill:#ffffff;fill-opacity:1;fill-rule:nonzero;stroke:#000000;stroke-width:1;stroke-linecap:butt;stroke-linejoin:miter;stroke-miterlimit:10;stroke-dasharray:none;stroke-opacity:1"
       transform="matrix(0.95749433,0,0,0.95749433,0.47874716,0.47874716)"
       clip-path="url(#clipPath34)" />
    <text
       id="text34"
       xml:space="preserve"
       transform="matrix(0.95750393,0,0,0.95750393,353.85755,90.962873)"
       clip-path="url(#clipPath35)"><tspan
         style="font-variant:normal;font-weight:normal;font-size:18px;font-family:Helvetica;writing-mode:lr-tb;fill:#000000;fill-opacity:1;fill-rule:nonzero;stroke:none"
         x="0 6.0117188 11.012695 16.013672 20.012695 25.013672 29.012695 39.023438 44.024414 49.025391 52.461914 61.461914 71.472656 74.90918 79.910156 84.911133 93.911133 103.92188 113.93262 118.93359 128.94434 138.95508 143.95605 148.95703 153.95801 157.39453 162.39551 172.40625 182.41699 188.41113 198.42188 201.8584 206.85938"
         y="0"
         sodipodi:role="line"
         id="tspan34">{ title: 'yo', content: 'there' }</tspan></text>
    <path
       id="path36"
       d="m 281,103 h 80 v 30 h -80 z"
       style="fill:#ffffff;fill-opacity:1;fill-rule:nonzero;stroke:#000000;stroke-width:1;stroke-linecap:butt;stroke-linejoin:miter;stroke-miterlimit:10;stroke-dasharray:none;stroke-opacity:1"
       transform="matrix(0.95749433,0,0,0.95749433,0.47874716,0.47874716)"
       clip-path="url(#clipPath37)" />
    <text
       id="text37"
       xml:space="preserve"
       transform="matrix(0.95750393,0,0,0.95750393,289.68983,119.68799)"
       clip-path="url(#clipPath38)"><tspan
         style="font-variant:normal;font-weight:normal;font-size:18px;font-family:Helvetica;writing-mode:lr-tb;fill:#000000;fill-opacity:1;fill-rule:nonzero;stroke:none"
         x="0 3.4365234 13.447266 23.458008 33.46875"
         y="0"
         sodipodi:role="line"
         id="tspan37">'582'</tspan></text>
    <path
       id="path39"
       d="m 361,103 h 230 v 30 H 361 Z"
       style="fill:#ffffff;fill-opacity:1;fill-rule:nonzero;stroke:#000000;stroke-width:1;stroke-linecap:butt;stroke-linejoin:miter;stroke-miterlimit:10;stroke-dasharray:none;stroke-opacity:1"
       transform="matrix(0.95749433,0,0,0.95749433,0.47874716,0.47874716)"
       clip-path="url(#clipPath40)" />
    <text
       id="text40"
       xml:space="preserve"
       transform="matrix(0.95750393,0,0,0.95750393,354.32134,119.68799)"
       clip-path="url(#clipPath41)"><tspan
         style="font-variant:normal;font-weight:normal;font-size:18px;font-family:Helvetica;writing-mode:lr-tb;fill:#000000;fill-opacity:1;fill-rule:nonzero;stroke:none"
         x="0 6.0117188 11.012695 16.013672 20.012695 25.013672 29.012695 39.023438 44.024414 49.025391 52.461914 62.472656 72.483398 77.484375 80.920898 85.921875 90.922852 99.922852 109.93359 119.94434 124.94531 134.95605 144.9668 149.96777 154.96875 159.96973 163.40625 173.41699 177.41602 187.42676 197.4375 200.87402 205.875"
         y="0"
         sodipodi:role="line"
         id="tspan40">{ title: 'got', content: 'blog' }</tspan></text>
    <path
       id="path42"
       d="M 791.01001,161.75 H 611.10999"
       style="fill:none;stroke:#000000;stroke-width:1;stroke-linecap:butt;stroke-linejoin:miter;stroke-miterlimit:10;stroke-dasharray:none;stroke-opacity:1"
       transform="matrix(0.95749433,0,0,0.95749433,0.47874716,0.47874716)"
       clip-path="url(#clipPath43)" />
    <path
       id="path44"
       d="m 604.35999,161.75 9,-4.5 -2.25,4.5 2.25,4.5 z"
       style="fill:#000000;fill-opacity:1;fill-rule:nonzero;stroke:#000000;stroke-width:1;stroke-linecap:butt;stroke-linejoin:miter;stroke-miterlimit:10;stroke-dasharray:none;stroke-opacity:1"
       transform="matrix(0.95749433,0,0,0.95749433,0.47874716,0.47874716)"
       clip-path="url(#clipPath45)" />
    <path
       id="path46"
       d="m 791.01001,23 h 100 v 185 h -100 z"
       style="fill:#ffffff;fill-opacity:1;fill-rule:nonzero;stroke:#000000;stroke-width:1;stroke-linecap:butt;stroke-linejoin:miter;stroke-miterlimit:10;stroke-dasharray:none;stroke-opacity:1"
       transform="matrix(0.95749433,0,0,0.95749433,0.47874716,0.47874716)"
       clip-path="url(#clipPath47)" />
    <text
       id="text47"
       xml:space="preserve"
       transform="matrix(0.95750393,0,0,0.95750393,766.93072,117.77298)"
       clip-path="url(#clipPath48)"><tspan
         style="font-variant:normal;font-weight:normal;font-size:18px;font-family:Helvetica;writing-mode:lr-tb;fill:#000000;fill-opacity:1;fill-rule:nonzero;stroke:none"
         x="0 14.994141 25.004883 35.015625 45.026367 55.037109 68.036133"
         y="0"
         sodipodi:role="line"
         id="tspan47">MongoDB</tspan></text>
    <path
       id="path49"
       d="m 281,133 h 80 v 30 h -80 z"
       style="fill:#ffffff;fill-opacity:1;fill-rule:nonzero;stroke:#000000;stroke-width:1;stroke-linecap:butt;stroke-linejoin:miter;stroke-miterlimit:10;stroke-dasharray:none;stroke-opacity:1"
       transform="matrix(0.95749433,0,0,0.95749433,0.47874716,0.47874716)"
       clip-path="url(#clipPath50)" />
    <text
       id="text50"
       xml:space="preserve"
       transform="matrix(0.95750393,0,0,0.95750393,289.68983,148.41311)"
       clip-path="url(#clipPath51)"><tspan
         style="font-variant:normal;font-weight:normal;font-size:18px;font-family:Helvetica;writing-mode:lr-tb;fill:#000000;fill-opacity:1;fill-rule:nonzero;stroke:none"
         x="0 3.4365234 13.447266 23.458008 33.46875"
         y="0"
         sodipodi:role="line"
         id="tspan50">'123'</tspan></text>
    <path
       id="path52"
       d="m 361,133 h 230 v 30 H 361 Z"
       style="fill:#ffffff;fill-opacity:1;fill-rule:nonzero;stroke:#000000;stroke-width:1;stroke-linecap:butt;stroke-linejoin:miter;stroke-miterlimit:10;stroke-dasharray:none;stroke-opacity:1"
       transform="matrix(0.95749433,0,0,0.95749433,0.47874716,0.47874716)"
       clip-path="url(#clipPath53)" />
    <text
       id="text53"
       xml:space="preserve"
       transform="matrix(0.95750393,0,0,0.95750393,354.81505,148.41311)"
       clip-path="url(#clipPath54)"><tspan
         style="font-variant:normal;font-weight:normal;font-size:18px;font-family:Helvetica;writing-mode:lr-tb;fill:#000000;fill-opacity:1;fill-rule:nonzero;stroke:none"
         x="0 6.0117188 11.012695 16.013672 20.012695 25.013672 29.012695 39.023438 44.024414 49.025391 52.461914 67.456055 76.456055 79.892578 84.893555 89.894531 98.894531 108.90527 118.91602 123.91699 133.92773 143.93848 148.93945 153.94043 158.94141 162.37793 172.38867 176.3877 186.39844 196.40918 199.8457 204.84668"
         y="0"
         sodipodi:role="line"
         id="tspan53">{ title: 'my', content: 'blog' }</tspan></text>
  </g>
</svg>
