<?xml version="1.0" encoding="UTF-8" standalone="no"?>
<!-- Created with Inkscape (http://www.inkscape.org/) -->

<svg
   version="1.1"
   id="svg1"
   width="1289.2799"
   height="486.71997"
   viewBox="0 0 1289.2799 486.71997"
   sodipodi:docname="node-16.pdf"
   xmlns:inkscape="http://www.inkscape.org/namespaces/inkscape"
   xmlns:sodipodi="http://sodipodi.sourceforge.net/DTD/sodipodi-0.dtd"
   xmlns="http://www.w3.org/2000/svg"
   xmlns:svg="http://www.w3.org/2000/svg">
  <defs
     id="defs1">
    <clipPath
       clipPathUnits="userSpaceOnUse"
       id="clipPath2">
      <path
         d="M 0,0 H 4029.1665 V 1520.6661 H 0 Z"
         transform="scale(0.33406412)"
         clip-rule="evenodd"
         id="path2" />
    </clipPath>
    <clipPath
       clipPathUnits="userSpaceOnUse"
       id="clipPath4">
      <path
         d="M 0,0 H 4029.1665 V 1511.6858 H 0 Z"
         transform="matrix(0.33406412,0,0,0.33406412,-0.5,-0.5)"
         clip-rule="evenodd"
         id="path4" />
    </clipPath>
    <clipPath
       clipPathUnits="userSpaceOnUse"
       id="clipPath5">
      <path
         d="M 0,0 H 4029.1665 V 1511.6858 H 0 Z"
         transform="matrix(0.33406077,0,0,0.33406077,-574.04688,-20)"
         clip-rule="evenodd"
         id="path5" />
    </clipPath>
    <clipPath
       clipPathUnits="userSpaceOnUse"
       id="clipPath7">
      <path
         d="M 0,0 H 4029.1665 V 1511.6858 H 0 Z"
         transform="matrix(0.33406412,0,0,0.33406412,-0.5,-0.5)"
         clip-rule="evenodd"
         id="path7" />
    </clipPath>
    <clipPath
       clipPathUnits="userSpaceOnUse"
       id="clipPath8">
      <path
         d="M 0,0 H 4029.1665 V 1511.6858 H 0 Z"
         transform="matrix(0.33406077,0,0,0.33406077,-445.48438,-90)"
         clip-rule="evenodd"
         id="path8" />
    </clipPath>
    <clipPath
       clipPathUnits="userSpaceOnUse"
       id="clipPath10">
      <path
         d="M 0,0 H 4029.1665 V 1511.6858 H 0 Z"
         transform="matrix(0.33406412,0,0,0.33406412,-0.5,-0.5)"
         clip-rule="evenodd"
         id="path10" />
    </clipPath>
    <clipPath
       clipPathUnits="userSpaceOnUse"
       id="clipPath11">
      <path
         d="M 0,0 H 4029.1665 V 1511.6858 H 0 Z"
         transform="matrix(0.33406077,0,0,0.33406077,-686.64063,-90)"
         clip-rule="evenodd"
         id="path11" />
    </clipPath>
    <clipPath
       clipPathUnits="userSpaceOnUse"
       id="clipPath13">
      <path
         d="M 0,0 H 4029.1665 V 1511.6858 H 0 Z"
         transform="matrix(0.33406412,0,0,0.33406412,-0.5,-0.5)"
         clip-rule="evenodd"
         id="path13" />
    </clipPath>
    <clipPath
       clipPathUnits="userSpaceOnUse"
       id="clipPath15">
      <path
         d="M 0,0 H 4029.1665 V 1511.6858 H 0 Z"
         transform="matrix(0.33406412,0,0,0.33406412,-0.5,-0.5)"
         clip-rule="evenodd"
         id="path15" />
    </clipPath>
    <clipPath
       clipPathUnits="userSpaceOnUse"
       id="clipPath17">
      <path
         d="M 0,0 H 4029.1665 V 1511.6858 H 0 Z"
         transform="matrix(0.33406412,0,0,0.33406412,-0.5,-0.5)"
         clip-rule="evenodd"
         id="path17" />
    </clipPath>
    <clipPath
       clipPathUnits="userSpaceOnUse"
       id="clipPath18">
      <path
         d="M 0,0 H 4029.1665 V 1511.6858 H 0 Z"
         transform="matrix(0.33406077,0,0,0.33406077,-418.875,-245)"
         clip-rule="evenodd"
         id="path18" />
    </clipPath>
    <clipPath
       clipPathUnits="userSpaceOnUse"
       id="clipPath19">
      <path
         d="M 0,0 H 4029.1665 V 1511.6858 H 0 Z"
         transform="matrix(0.33406077,0,0,0.33406077,-89.765625,-144)"
         clip-rule="evenodd"
         id="path19" />
    </clipPath>
    <clipPath
       clipPathUnits="userSpaceOnUse"
       id="clipPath21">
      <path
         d="M 0,0 H 4029.1665 V 1511.6858 H 0 Z"
         transform="matrix(0.33406412,0,0,0.33406412,-0.5,-0.5)"
         clip-rule="evenodd"
         id="path21" />
    </clipPath>
    <clipPath
       clipPathUnits="userSpaceOnUse"
       id="clipPath23">
      <path
         d="M 0,0 H 4029.1665 V 1511.6858 H 0 Z"
         transform="matrix(0.33406412,0,0,0.33406412,-0.5,-0.5)"
         clip-rule="evenodd"
         id="path23" />
    </clipPath>
    <clipPath
       clipPathUnits="userSpaceOnUse"
       id="clipPath25">
      <path
         d="M 0,0 H 4029.1665 V 1511.6858 H 0 Z"
         transform="matrix(0.33406412,0,0,0.33406412,-0.5,-0.5)"
         clip-rule="evenodd"
         id="path25" />
    </clipPath>
    <clipPath
       clipPathUnits="userSpaceOnUse"
       id="clipPath26">
      <path
         d="M 0,0 H 4029.1665 V 1511.6858 H 0 Z"
         transform="matrix(0.33406077,0,0,0.33406077,-20.890625,-181)"
         clip-rule="evenodd"
         id="path26" />
    </clipPath>
    <clipPath
       clipPathUnits="userSpaceOnUse"
       id="clipPath27">
      <path
         d="M 0,0 H 4029.1665 V 1511.6858 H 0 Z"
         transform="matrix(0.33406077,0,0,0.33406077,-1075.7656,-160)"
         clip-rule="evenodd"
         id="path27" />
    </clipPath>
    <clipPath
       clipPathUnits="userSpaceOnUse"
       id="clipPath29">
      <path
         d="M 0,0 H 4029.1665 V 1511.6858 H 0 Z"
         transform="matrix(0.33406412,0,0,0.33406412,-0.5,-0.5)"
         clip-rule="evenodd"
         id="path29" />
    </clipPath>
    <clipPath
       clipPathUnits="userSpaceOnUse"
       id="clipPath31">
      <path
         d="M 0,0 H 4029.1665 V 1511.6858 H 0 Z"
         transform="matrix(0.33406412,0,0,0.33406412,-0.5,-0.5)"
         clip-rule="evenodd"
         id="path31" />
    </clipPath>
    <clipPath
       clipPathUnits="userSpaceOnUse"
       id="clipPath33">
      <path
         d="M 0,0 H 4029.1665 V 1511.6858 H 0 Z"
         transform="matrix(0.33406412,0,0,0.33406412,-0.5,-0.5)"
         clip-rule="evenodd"
         id="path33" />
    </clipPath>
    <clipPath
       clipPathUnits="userSpaceOnUse"
       id="clipPath34">
      <path
         d="M 0,0 H 4029.1665 V 1511.6858 H 0 Z"
         transform="matrix(0.33406077,0,0,0.33406077,-936.01563,-201)"
         clip-rule="evenodd"
         id="path34" />
    </clipPath>
    <clipPath
       clipPathUnits="userSpaceOnUse"
       id="clipPath35">
      <path
         d="M 0,0 H 4029.1665 V 1511.6858 H 0 Z"
         transform="matrix(0.33406077,0,0,0.33406077,-1055.9688,-201)"
         clip-rule="evenodd"
         id="path35" />
    </clipPath>
    <clipPath
       clipPathUnits="userSpaceOnUse"
       id="clipPath37">
      <path
         d="M 0,0 H 4029.1665 V 1511.6858 H 0 Z"
         transform="matrix(0.33406412,0,0,0.33406412,-0.5,-0.5)"
         clip-rule="evenodd"
         id="path37" />
    </clipPath>
    <clipPath
       clipPathUnits="userSpaceOnUse"
       id="clipPath39">
      <path
         d="M 0,0 H 4029.1665 V 1511.6858 H 0 Z"
         transform="matrix(0.33406412,0,0,0.33406412,-0.5,-0.5)"
         clip-rule="evenodd"
         id="path39" />
    </clipPath>
    <clipPath
       clipPathUnits="userSpaceOnUse"
       id="clipPath41">
      <path
         d="M 0,0 H 4029.1665 V 1511.6858 H 0 Z"
         transform="matrix(0.33406412,0,0,0.33406412,-0.5,-0.5)"
         clip-rule="evenodd"
         id="path41" />
    </clipPath>
    <clipPath
       clipPathUnits="userSpaceOnUse"
       id="clipPath42">
      <path
         d="M 0,0 H 4029.1665 V 1511.6858 H 0 Z"
         transform="matrix(0.33406077,0,0,0.33406077,-1113.5468,-289.99999)"
         clip-rule="evenodd"
         id="path42" />
    </clipPath>
    <clipPath
       clipPathUnits="userSpaceOnUse"
       id="clipPath44">
      <path
         d="M 0,0 H 4029.1665 V 1511.6858 H 0 Z"
         transform="matrix(0.33406412,0,0,0.33406412,-0.5,-0.5)"
         clip-rule="evenodd"
         id="path44" />
    </clipPath>
    <clipPath
       clipPathUnits="userSpaceOnUse"
       id="clipPath45">
      <path
         d="M 0,0 H 4029.1665 V 1511.6858 H 0 Z"
         transform="matrix(0.33406077,0,0,0.33406077,-599.96874,-145)"
         clip-rule="evenodd"
         id="path45" />
    </clipPath>
    <clipPath
       clipPathUnits="userSpaceOnUse"
       id="clipPath47">
      <path
         d="M 0,0 H 4029.1665 V 1511.6858 H 0 Z"
         transform="matrix(0.33406412,0,0,0.33406412,-0.5,-0.5)"
         clip-rule="evenodd"
         id="path47" />
    </clipPath>
    <clipPath
       clipPathUnits="userSpaceOnUse"
       id="clipPath48">
      <path
         d="M 0,0 H 4029.1665 V 1511.6858 H 0 Z"
         transform="matrix(0.33406077,0,0,0.33406077,-718.125,-145)"
         clip-rule="evenodd"
         id="path48" />
    </clipPath>
    <clipPath
       clipPathUnits="userSpaceOnUse"
       id="clipPath50">
      <path
         d="M 0,0 H 4029.1665 V 1511.6858 H 0 Z"
         transform="matrix(0.33406412,0,0,0.33406412,-0.5,-0.5)"
         clip-rule="evenodd"
         id="path50" />
    </clipPath>
    <clipPath
       clipPathUnits="userSpaceOnUse"
       id="clipPath51">
      <path
         d="M 0,0 H 4029.1665 V 1511.6858 H 0 Z"
         transform="matrix(0.33406077,0,0,0.33406077,-626.39062,-195)"
         clip-rule="evenodd"
         id="path51" />
    </clipPath>
    <clipPath
       clipPathUnits="userSpaceOnUse"
       id="clipPath53">
      <path
         d="M 0,0 H 4029.1665 V 1511.6858 H 0 Z"
         transform="matrix(0.33406412,0,0,0.33406412,-0.5,-0.5)"
         clip-rule="evenodd"
         id="path53" />
    </clipPath>
    <clipPath
       clipPathUnits="userSpaceOnUse"
       id="clipPath54">
      <path
         d="M 0,0 H 4029.1665 V 1511.6858 H 0 Z"
         transform="matrix(0.33406077,0,0,0.33406077,-748.95313,-195)"
         clip-rule="evenodd"
         id="path54" />
    </clipPath>
    <clipPath
       clipPathUnits="userSpaceOnUse"
       id="clipPath56">
      <path
         d="M 0,0 H 4029.1665 V 1511.6858 H 0 Z"
         transform="matrix(0.33406412,0,0,0.33406412,-0.5,-0.5)"
         clip-rule="evenodd"
         id="path56" />
    </clipPath>
    <clipPath
       clipPathUnits="userSpaceOnUse"
       id="clipPath57">
      <path
         d="M 0,0 H 4029.1665 V 1511.6858 H 0 Z"
         transform="matrix(0.33406077,0,0,0.33406077,-608.04688,-245)"
         clip-rule="evenodd"
         id="path57" />
    </clipPath>
    <clipPath
       clipPathUnits="userSpaceOnUse"
       id="clipPath59">
      <path
         d="M 0,0 H 4029.1665 V 1511.6858 H 0 Z"
         transform="matrix(0.33406412,0,0,0.33406412,-0.5,-0.5)"
         clip-rule="evenodd"
         id="path59" />
    </clipPath>
    <clipPath
       clipPathUnits="userSpaceOnUse"
       id="clipPath60">
      <path
         d="M 0,0 H 4029.1665 V 1511.6858 H 0 Z"
         transform="matrix(0.33406077,0,0,0.33406077,-730.59375,-245)"
         clip-rule="evenodd"
         id="path60" />
    </clipPath>
    <clipPath
       clipPathUnits="userSpaceOnUse"
       id="clipPath62">
      <path
         d="M 0,0 H 4029.1665 V 1511.6858 H 0 Z"
         transform="matrix(0.33406412,0,0,0.33406412,-0.5,-0.5)"
         clip-rule="evenodd"
         id="path62" />
    </clipPath>
    <clipPath
       clipPathUnits="userSpaceOnUse"
       id="clipPath63">
      <path
         d="M 0,0 H 4029.1665 V 1511.6858 H 0 Z"
         transform="matrix(0.33406077,0,0,0.33406077,-621.5,-295)"
         clip-rule="evenodd"
         id="path63" />
    </clipPath>
    <clipPath
       clipPathUnits="userSpaceOnUse"
       id="clipPath65">
      <path
         d="M 0,0 H 4029.1665 V 1511.6858 H 0 Z"
         transform="matrix(0.33406412,0,0,0.33406412,-0.5,-0.5)"
         clip-rule="evenodd"
         id="path65" />
    </clipPath>
    <clipPath
       clipPathUnits="userSpaceOnUse"
       id="clipPath66">
      <path
         d="M 0,0 H 4029.1665 V 1511.6858 H 0 Z"
         transform="matrix(0.33406077,0,0,0.33406077,-747.10938,-295)"
         clip-rule="evenodd"
         id="path66" />
    </clipPath>
    <clipPath
       clipPathUnits="userSpaceOnUse"
       id="clipPath68">
      <path
         d="M 0,0 H 4029.1665 V 1511.6858 H 0 Z"
         transform="matrix(0.33406412,0,0,0.33406412,-0.5,-0.5)"
         clip-rule="evenodd"
         id="path68" />
    </clipPath>
    <clipPath
       clipPathUnits="userSpaceOnUse"
       id="clipPath70">
      <path
         d="M 0,0 H 4029.1665 V 1511.6858 H 0 Z"
         transform="matrix(0.33406412,0,0,0.33406412,-0.5,-0.5)"
         clip-rule="evenodd"
         id="path70" />
    </clipPath>
    <clipPath
       clipPathUnits="userSpaceOnUse"
       id="clipPath72">
      <path
         d="M 0,0 H 4029.1665 V 1511.6858 H 0 Z"
         transform="matrix(0.33406412,0,0,0.33406412,-0.5,-0.5)"
         clip-rule="evenodd"
         id="path72" />
    </clipPath>
    <clipPath
       clipPathUnits="userSpaceOnUse"
       id="clipPath73">
      <path
         d="M 0,0 H 4029.1665 V 1511.6858 H 0 Z"
         transform="matrix(0.33406077,0,0,0.33406077,-419.49999,-415)"
         clip-rule="evenodd"
         id="path73" />
    </clipPath>
    <clipPath
       clipPathUnits="userSpaceOnUse"
       id="clipPath75">
      <path
         d="M 0,0 H 4029.1665 V 1511.6858 H 0 Z"
         transform="matrix(0.33406412,0,0,0.33406412,-0.5,-0.5)"
         clip-rule="evenodd"
         id="path75" />
    </clipPath>
    <clipPath
       clipPathUnits="userSpaceOnUse"
       id="clipPath76">
      <path
         d="M 0,0 H 4029.1665 V 1511.6858 H 0 Z"
         transform="matrix(0.33406077,0,0,0.33406077,-626.39062,-365)"
         clip-rule="evenodd"
         id="path76" />
    </clipPath>
    <clipPath
       clipPathUnits="userSpaceOnUse"
       id="clipPath78">
      <path
         d="M 0,0 H 4029.1665 V 1511.6858 H 0 Z"
         transform="matrix(0.33406412,0,0,0.33406412,-0.5,-0.5)"
         clip-rule="evenodd"
         id="path78" />
    </clipPath>
    <clipPath
       clipPathUnits="userSpaceOnUse"
       id="clipPath79">
      <path
         d="M 0,0 H 4029.1665 V 1511.6858 H 0 Z"
         transform="matrix(0.33406077,0,0,0.33406077,-754.45313,-365)"
         clip-rule="evenodd"
         id="path79" />
    </clipPath>
    <clipPath
       clipPathUnits="userSpaceOnUse"
       id="clipPath81">
      <path
         d="M 0,0 H 4029.1665 V 1511.6858 H 0 Z"
         transform="matrix(0.33406412,0,0,0.33406412,-0.5,-0.5)"
         clip-rule="evenodd"
         id="path81" />
    </clipPath>
    <clipPath
       clipPathUnits="userSpaceOnUse"
       id="clipPath82">
      <path
         d="M 0,0 H 4029.1665 V 1511.6858 H 0 Z"
         transform="matrix(0.33406077,0,0,0.33406077,-608.04688,-415)"
         clip-rule="evenodd"
         id="path82" />
    </clipPath>
    <clipPath
       clipPathUnits="userSpaceOnUse"
       id="clipPath84">
      <path
         d="M 0,0 H 4029.1665 V 1511.6858 H 0 Z"
         transform="matrix(0.33406412,0,0,0.33406412,-0.5,-0.5)"
         clip-rule="evenodd"
         id="path84" />
    </clipPath>
    <clipPath
       clipPathUnits="userSpaceOnUse"
       id="clipPath85">
      <path
         d="M 0,0 H 4029.1665 V 1511.6858 H 0 Z"
         transform="matrix(0.33406077,0,0,0.33406077,-733.04688,-415)"
         clip-rule="evenodd"
         id="path85" />
    </clipPath>
    <clipPath
       clipPathUnits="userSpaceOnUse"
       id="clipPath87">
      <path
         d="M 0,0 H 4029.1665 V 1511.6858 H 0 Z"
         transform="matrix(0.33406412,0,0,0.33406412,-0.5,-0.5)"
         clip-rule="evenodd"
         id="path87" />
    </clipPath>
    <clipPath
       clipPathUnits="userSpaceOnUse"
       id="clipPath88">
      <path
         d="M 0,0 H 4029.1665 V 1511.6858 H 0 Z"
         transform="matrix(0.33406077,0,0,0.33406077,-621.5,-465)"
         clip-rule="evenodd"
         id="path88" />
    </clipPath>
    <clipPath
       clipPathUnits="userSpaceOnUse"
       id="clipPath90">
      <path
         d="M 0,0 H 4029.1665 V 1511.6858 H 0 Z"
         transform="matrix(0.33406412,0,0,0.33406412,-0.5,-0.5)"
         clip-rule="evenodd"
         id="path90" />
    </clipPath>
    <clipPath
       clipPathUnits="userSpaceOnUse"
       id="clipPath91">
      <path
         d="M 0,0 H 4029.1665 V 1511.6858 H 0 Z"
         transform="matrix(0.33406077,0,0,0.33406077,-746.5,-465)"
         clip-rule="evenodd"
         id="path91" />
    </clipPath>
  </defs>
  <sodipodi:namedview
     id="namedview1"
     pagecolor="#ffffff"
     bordercolor="#000000"
     borderopacity="0.25"
     inkscape:showpageshadow="2"
     inkscape:pageopacity="0.0"
     inkscape:pagecheckerboard="0"
     inkscape:deskcolor="#d1d1d1">
    <inkscape:page
       x="0"
       y="0"
       inkscape:label="1"
       id="page1"
       width="1289.2799"
       height="486.71997"
       margin="0"
       bleed="0" />
  </sodipodi:namedview>
  <g
     id="g1"
     inkscape:groupmode="layer"
     inkscape:label="1">
    <path
       id="path1"
       d="M 0,0 H 1346 V 508 H 0 Z"
       style="fill:#ffffff;fill-opacity:1;fill-rule:nonzero;stroke:none"
       transform="scale(0.9578999)"
       clip-path="url(#clipPath2)" />
    <path
       id="path3"
       d="M 361,33 H 851 V 503 H 361 Z"
       style="fill:#ffffff;fill-opacity:1;fill-rule:nonzero;stroke:#000000;stroke-width:1;stroke-linecap:butt;stroke-linejoin:miter;stroke-miterlimit:10;stroke-dasharray:none;stroke-opacity:1"
       transform="matrix(0.9578999,0,0,0.9578999,0.47894995,0.47894995)"
       clip-path="url(#clipPath4)" />
    <text
       id="text4"
       xml:space="preserve"
       transform="matrix(0.9579095,0,0,0.9579095,549.88496,19.15819)"
       clip-path="url(#clipPath5)"><tspan
         style="font-variant:normal;font-weight:700;font-size:22px;font-family:Helvetica;writing-mode:lr-tb;fill:#000000;fill-opacity:1;fill-rule:nonzero;stroke:none"
         x="0 15.887695 28.123047 41.561523 47.673828"
         y="0"
         sodipodi:role="line"
         id="tspan4">Redis</tspan></text>
    <path
       id="path6"
       d="m 381,53 h 160 v 60 H 381 Z"
       style="fill:#dae8fc;fill-opacity:1;fill-rule:nonzero;stroke:#6c8ebf;stroke-width:1;stroke-linecap:butt;stroke-linejoin:miter;stroke-miterlimit:10;stroke-dasharray:none;stroke-opacity:1"
       transform="matrix(0.9578999,0,0,0.9578999,0.47894995,0.47894995)"
       clip-path="url(#clipPath7)" />
    <text
       id="text7"
       xml:space="preserve"
       transform="matrix(0.9579095,0,0,0.9579095,426.73372,86.211855)"
       clip-path="url(#clipPath8)"><tspan
         style="font-variant:normal;font-weight:normal;font-size:18px;font-family:Helvetica;writing-mode:lr-tb;fill:#000000;fill-opacity:1;fill-rule:nonzero;stroke:none"
         x="0 12.005859 22.016602"
         y="0"
         sodipodi:role="line"
         id="tspan7">Key</tspan></text>
    <path
       id="path9"
       d="m 584.01001,53 h 250 v 60 h -250 z"
       style="fill:#dae8fc;fill-opacity:1;fill-rule:nonzero;stroke:#6c8ebf;stroke-width:1;stroke-linecap:butt;stroke-linejoin:miter;stroke-miterlimit:10;stroke-dasharray:none;stroke-opacity:1"
       transform="matrix(0.9578999,0,0,0.9578999,0.47894995,0.47894995)"
       clip-path="url(#clipPath10)" />
    <text
       id="text10"
       xml:space="preserve"
       transform="matrix(0.9579095,0,0,0.9579095,657.73958,86.211855)"
       clip-path="url(#clipPath11)"><tspan
         style="font-variant:normal;font-weight:normal;font-size:18px;font-family:Helvetica;writing-mode:lr-tb;fill:#000000;fill-opacity:1;fill-rule:nonzero;stroke:none"
         x="0 10.678711 20.689453 24.688477 34.699219"
         y="0"
         sodipodi:role="line"
         id="tspan10">Value</tspan></text>
    <path
       id="path12"
       d="m 541.01001,238 h 32.89001"
       style="fill:none;stroke:#000000;stroke-width:1;stroke-linecap:butt;stroke-linejoin:miter;stroke-miterlimit:10;stroke-dasharray:none;stroke-opacity:1"
       transform="matrix(0.9578999,0,0,0.9578999,0.47894995,0.47894995)"
       clip-path="url(#clipPath13)" />
    <path
       id="path14"
       d="m 580.65002,238 -9,4.5 2.25,-4.5 -2.25,-4.5 z"
       style="fill:#000000;fill-opacity:1;fill-rule:nonzero;stroke:#000000;stroke-width:1;stroke-linecap:butt;stroke-linejoin:miter;stroke-miterlimit:10;stroke-dasharray:none;stroke-opacity:1"
       transform="matrix(0.9578999,0,0,0.9578999,0.47894995,0.47894995)"
       clip-path="url(#clipPath15)" />
    <path
       id="path16"
       d="M 381,163 H 541 V 313 H 381 Z"
       style="fill:#ffffff;fill-opacity:1;fill-rule:nonzero;stroke:#000000;stroke-width:1;stroke-linecap:butt;stroke-linejoin:miter;stroke-miterlimit:10;stroke-dasharray:none;stroke-opacity:1"
       transform="matrix(0.9578999,0,0,0.9578999,0.47894995,0.47894995)"
       clip-path="url(#clipPath17)" />
    <text
       id="text17"
       xml:space="preserve"
       transform="matrix(0.9579095,0,0,0.9579095,401.24434,234.68783)"
       clip-path="url(#clipPath18)"><tspan
         style="font-variant:normal;font-weight:normal;font-size:22px;font-family:Helvetica;writing-mode:lr-tb;fill:#000000;fill-opacity:1;fill-rule:nonzero;stroke:none"
         x="0 4.2001953 15.200195 27.435547 39.670898 51.90625 56.793945 67.793945 80.029297"
         y="0"
         sodipodi:role="line"
         id="tspan17">'spanish'</tspan></text>
    <text
       id="text18"
       xml:space="preserve"
       transform="matrix(0.9579095,0,0,0.9579095,85.987345,137.93897)"
       clip-path="url(#clipPath19)"><tspan
         style="font-variant:normal;font-weight:700;font-size:22px;font-family:Helvetica;writing-mode:lr-tb;fill:#000000;fill-opacity:1;fill-rule:nonzero;stroke:none"
         x="0 13.438477 26.876953 40.31543 52.550781 59.876953 68.438477 80.673828 94.112305 100.22461"
         y="0"
         sodipodi:role="line"
         id="tspan18">node-redis</tspan></text>
    <path
       id="path20"
       d="m 291,174 h 35 l 20.98001,-0.32001"
       style="fill:none;stroke:#000000;stroke-width:1;stroke-linecap:butt;stroke-linejoin:miter;stroke-miterlimit:10;stroke-dasharray:none;stroke-opacity:1"
       transform="matrix(0.9578999,0,0,0.9578999,0.47894995,0.47894995)"
       clip-path="url(#clipPath21)" />
    <path
       id="path22"
       d="m 353.73001,173.58 -8.93002,4.64 2.18002,-4.54001 L 344.66,169.22 Z"
       style="fill:#000000;fill-opacity:1;fill-rule:nonzero;stroke:#000000;stroke-width:1;stroke-linecap:butt;stroke-linejoin:miter;stroke-miterlimit:10;stroke-dasharray:none;stroke-opacity:1"
       transform="matrix(0.9578999,0,0,0.9578999,0.47894995,0.47894995)"
       clip-path="url(#clipPath23)" />
    <path
       id="path24"
       d="m 1,149 h 290 v 50 H 1 Z"
       style="fill:#ffffff;fill-opacity:1;fill-rule:nonzero;stroke:#000000;stroke-width:1;stroke-linecap:butt;stroke-linejoin:miter;stroke-miterlimit:10;stroke-dasharray:none;stroke-opacity:1"
       transform="matrix(0.9578999,0,0,0.9578999,0.47894995,0.47894995)"
       clip-path="url(#clipPath25)" />
    <text
       id="text25"
       xml:space="preserve"
       transform="matrix(0.9579095,0,0,0.9579095,20.011328,173.38162)"
       clip-path="url(#clipPath26)"><tspan
         style="font-variant:normal;font-weight:normal;font-size:22px;font-family:Helvetica;writing-mode:lr-tb;fill:#000000;fill-opacity:1;fill-rule:nonzero;stroke:none"
         x="0 12.235352 23.235352 35.470703 41.583008 48.90918 53.109375 64.109375 76.344727 88.580078 100.81543 105.70312 116.70312 128.93848 133.13867 139.25098 145.36328 149.56348 156.88965 169.125 181.36035 185.56055 191.67285 197.78516 201.98535 209.31152 221.54688 226.43457 238.66992 242.87012"
         y="0"
         sodipodi:role="line"
         id="tspan25">hset('spanish', 'red', 'rojo')</tspan></text>
    <text
       id="text26"
       xml:space="preserve"
       transform="matrix(0.9579095,0,0,0.9579095,1030.4861,153.26552)"
       clip-path="url(#clipPath27)"><tspan
         style="font-variant:normal;font-weight:700;font-size:22px;font-family:Helvetica;writing-mode:lr-tb;fill:#000000;fill-opacity:1;fill-rule:nonzero;stroke:none"
         x="0 13.438477 26.876953 40.31543 52.550781 59.876953 68.438477 80.673828 94.112305 100.22461"
         y="0"
         sodipodi:role="line"
         id="tspan26">node-redis</tspan></text>
    <path
       id="path28"
       d="m 1132.01,219 v 33.89999"
       style="fill:none;stroke:#000000;stroke-width:1;stroke-linecap:butt;stroke-linejoin:miter;stroke-miterlimit:10;stroke-dasharray:none;stroke-opacity:1"
       transform="matrix(0.9578999,0,0,0.9578999,0.47894995,0.47894995)"
       clip-path="url(#clipPath29)" />
    <path
       id="path30"
       d="m 1132.01,259.64999 -4.5,-9 4.5,2.25 4.5,-2.25 z"
       style="fill:#000000;fill-opacity:1;fill-rule:nonzero;stroke:#000000;stroke-width:1;stroke-linecap:butt;stroke-linejoin:miter;stroke-miterlimit:10;stroke-dasharray:none;stroke-opacity:1"
       transform="matrix(0.9578999,0,0,0.9578999,0.47894995,0.47894995)"
       clip-path="url(#clipPath31)" />
    <path
       id="path32"
       d="M 921.01001,169 H 1343.01 v 50 H 921.01001 Z"
       style="fill:#ffffff;fill-opacity:1;fill-rule:nonzero;stroke:#000000;stroke-width:1;stroke-linecap:butt;stroke-linejoin:miter;stroke-miterlimit:10;stroke-dasharray:none;stroke-opacity:1"
       transform="matrix(0.9578999,0,0,0.9578999,0.47894995,0.47894995)"
       clip-path="url(#clipPath33)" />
    <text
       id="text33"
       xml:space="preserve"
       transform="matrix(0.9579095,0,0,0.9579095,896.61826,192.53981)"
       clip-path="url(#clipPath34)"><tspan
         style="font-variant:normal;font-weight:normal;font-size:18px;font-family:Helvetica;writing-mode:lr-tb;fill:#000000;fill-opacity:1;fill-rule:nonzero;stroke:none"
         x="0 10.010742 20.021484 30.032227 35.033203 41.027344 44.463867 53.463867 63.474609 73.485352 83.496094 87.495117 96.495117 106.50586 109.94238 114.94336"
         y="0"
         sodipodi:role="line"
         id="tspan33">hget('spanish', </tspan></text>
    <text
       id="text34"
       xml:space="preserve"
       transform="matrix(0.9579095,0,0,0.9579095,1011.5225,192.53981)"
       clip-path="url(#clipPath35)"><tspan
         style="font-variant:normal;font-weight:normal;font-size:18px;font-family:Helvetica;writing-mode:lr-tb;fill:#000000;fill-opacity:1;fill-rule:nonzero;stroke:none"
         x="0 3.4365234 9.4306641 19.441406 29.452148 32.888672 37.889648 42.890625 48.884766 58.895508 64.889648 69.899414 74.900391 79.901367 88.901367 98.912109 102.91113 108.90527 113.90625 124.41797 134.92969 139.93066 148.93066 158.94141 168.95215 177.95215 187.96289 191.96191 201.97266 206.97363 210.97266 220.9834 230.99414 236.98828 245.98828 255.99902 259.99805 265.99219"
         y="0"
         sodipodi:role="line"
         id="tspan34">'red', (err, val) =&gt; console.log(val))</tspan></text>
    <path
       id="path36"
       d="m 854.01001,193.8 h 57.09998"
       style="fill:none;stroke:#000000;stroke-width:1;stroke-linecap:butt;stroke-linejoin:miter;stroke-miterlimit:10;stroke-dasharray:none;stroke-opacity:1"
       transform="matrix(0.9578999,0,0,0.9578999,0.47894995,0.47894995)"
       clip-path="url(#clipPath37)" />
    <path
       id="path38"
       d="m 917.85999,193.8 -9,4.5 2.25,-4.5 -2.25,-4.5 z"
       style="fill:#000000;fill-opacity:1;fill-rule:nonzero;stroke:#000000;stroke-width:1;stroke-linecap:butt;stroke-linejoin:miter;stroke-miterlimit:10;stroke-dasharray:none;stroke-opacity:1"
       transform="matrix(0.9578999,0,0,0.9578999,0.47894995,0.47894995)"
       clip-path="url(#clipPath39)" />
    <path
       id="path40"
       d="m 1052.01,263 h 160 v 40 h -160 z"
       style="fill:#ffffff;fill-opacity:1;fill-rule:nonzero;stroke:#000000;stroke-width:1;stroke-linecap:butt;stroke-linejoin:miter;stroke-miterlimit:10;stroke-dasharray:none;stroke-opacity:1"
       transform="matrix(0.9578999,0,0,0.9578999,0.47894995,0.47894995)"
       clip-path="url(#clipPath41)" />
    <text
       id="text41"
       xml:space="preserve"
       transform="matrix(0.9579095,0,0,0.9579095,1066.6771,277.79375)"
       clip-path="url(#clipPath42)"><tspan
         style="font-variant:normal;font-weight:normal;font-size:18px;font-family:Helvetica;writing-mode:lr-tb;fill:#000000;fill-opacity:1;fill-rule:nonzero;stroke:none"
         x="0 3.4365234 9.4306641 19.441406 23.44043 33.451172"
         y="0"
         sodipodi:role="line"
         id="tspan41">'rojo'</tspan></text>
    <path
       id="path43"
       d="m 584.01001,113 h 125 v 50 h -125 z"
       style="fill:#dae8fc;fill-opacity:1;fill-rule:nonzero;stroke:#6c8ebf;stroke-width:1;stroke-linecap:butt;stroke-linejoin:miter;stroke-miterlimit:10;stroke-dasharray:none;stroke-opacity:1"
       transform="matrix(0.9578999,0,0,0.9578999,0.47894995,0.47894995)"
       clip-path="url(#clipPath44)" />
    <text
       id="text44"
       xml:space="preserve"
       transform="matrix(0.9579095,0,0,0.9579095,574.71576,138.89688)"
       clip-path="url(#clipPath45)"><tspan
         style="font-variant:normal;font-weight:normal;font-size:18px;font-family:Helvetica;writing-mode:lr-tb;fill:#000000;fill-opacity:1;fill-rule:nonzero;stroke:none"
         x="0 12.999023 23.009766 32.009766 37.010742 47.021484 57.032227 62.033203 74.039062 84.049805"
         y="0"
         sodipodi:role="line"
         id="tspan44">Nested Key</tspan></text>
    <path
       id="path46"
       d="m 709.01001,113 h 125 v 50 h -125 z"
       style="fill:#dae8fc;fill-opacity:1;fill-rule:nonzero;stroke:#6c8ebf;stroke-width:1;stroke-linecap:butt;stroke-linejoin:miter;stroke-miterlimit:10;stroke-dasharray:none;stroke-opacity:1"
       transform="matrix(0.9578999,0,0,0.9578999,0.47894995,0.47894995)"
       clip-path="url(#clipPath47)" />
    <text
       id="text47"
       xml:space="preserve"
       transform="matrix(0.9579095,0,0,0.9579095,687.89876,138.89688)"
       clip-path="url(#clipPath48)"><tspan
         style="font-variant:normal;font-weight:normal;font-size:18px;font-family:Helvetica;writing-mode:lr-tb;fill:#000000;fill-opacity:1;fill-rule:nonzero;stroke:none"
         x="0 12.999023 23.009766 32.009766 37.010742 47.021484 57.032227 62.033203 72.711914 82.722656 86.72168 96.732422"
         y="0"
         sodipodi:role="line"
         id="tspan47">Nested Value</tspan></text>
    <path
       id="path49"
       d="m 584.01001,163 h 125 v 50 h -125 z"
       style="fill:#ffffff;fill-opacity:1;fill-rule:nonzero;stroke:#000000;stroke-width:1;stroke-linecap:butt;stroke-linejoin:miter;stroke-miterlimit:10;stroke-dasharray:none;stroke-opacity:1"
       transform="matrix(0.9578999,0,0,0.9578999,0.47894995,0.47894995)"
       clip-path="url(#clipPath50)" />
    <text
       id="text50"
       xml:space="preserve"
       transform="matrix(0.9579095,0,0,0.9579095,600.02553,186.79235)"
       clip-path="url(#clipPath51)"><tspan
         style="font-variant:normal;font-weight:normal;font-size:22px;font-family:Helvetica;writing-mode:lr-tb;fill:#000000;fill-opacity:1;fill-rule:nonzero;stroke:none"
         x="0 4.2001953 11.526367 23.761719 35.99707"
         y="0"
         sodipodi:role="line"
         id="tspan50">'red'</tspan></text>
    <path
       id="path52"
       d="m 709.01001,163 h 125 v 50 h -125 z"
       style="fill:#ffffff;fill-opacity:1;fill-rule:nonzero;stroke:#000000;stroke-width:1;stroke-linecap:butt;stroke-linejoin:miter;stroke-miterlimit:10;stroke-dasharray:none;stroke-opacity:1"
       transform="matrix(0.9578999,0,0,0.9578999,0.47894995,0.47894995)"
       clip-path="url(#clipPath53)" />
    <text
       id="text53"
       xml:space="preserve"
       transform="matrix(0.9579095,0,0,0.9579095,717.42932,186.79235)"
       clip-path="url(#clipPath54)"><tspan
         style="font-variant:normal;font-weight:normal;font-size:22px;font-family:Helvetica;writing-mode:lr-tb;fill:#000000;fill-opacity:1;fill-rule:nonzero;stroke:none"
         x="0 4.2001953 11.526367 23.761719 28.649414 40.884766"
         y="0"
         sodipodi:role="line"
         id="tspan53">'rojo'</tspan></text>
    <path
       id="path55"
       d="m 584.01001,213 h 125 v 50 h -125 z"
       style="fill:#ffffff;fill-opacity:1;fill-rule:nonzero;stroke:#000000;stroke-width:1;stroke-linecap:butt;stroke-linejoin:miter;stroke-miterlimit:10;stroke-dasharray:none;stroke-opacity:1"
       transform="matrix(0.9578999,0,0,0.9578999,0.47894995,0.47894995)"
       clip-path="url(#clipPath56)" />
    <text
       id="text56"
       xml:space="preserve"
       transform="matrix(0.9579095,0,0,0.9579095,582.45388,234.68783)"
       clip-path="url(#clipPath57)"><tspan
         style="font-variant:normal;font-weight:normal;font-size:22px;font-family:Helvetica;writing-mode:lr-tb;fill:#000000;fill-opacity:1;fill-rule:nonzero;stroke:none"
         x="0 4.2001953 16.435547 23.761719 35.99707 48.232422 60.467773 72.703125"
         y="0"
         sodipodi:role="line"
         id="tspan56">'orange'</tspan></text>
    <path
       id="path58"
       d="m 709.01001,213 h 125 v 50 h -125 z"
       style="fill:#ffffff;fill-opacity:1;fill-rule:nonzero;stroke:#000000;stroke-width:1;stroke-linecap:butt;stroke-linejoin:miter;stroke-miterlimit:10;stroke-dasharray:none;stroke-opacity:1"
       transform="matrix(0.9578999,0,0,0.9578999,0.47894995,0.47894995)"
       clip-path="url(#clipPath59)" />
    <text
       id="text59"
       xml:space="preserve"
       transform="matrix(0.9579095,0,0,0.9579095,699.84269,234.68783)"
       clip-path="url(#clipPath60)"><tspan
         style="font-variant:normal;font-weight:normal;font-size:22px;font-family:Helvetica;writing-mode:lr-tb;fill:#000000;fill-opacity:1;fill-rule:nonzero;stroke:none"
         x="0 4.2001953 16.435547 28.670898 35.99707 48.232422 60.467773 65.355469 77.59082"
         y="0"
         sodipodi:role="line"
         id="tspan59">'naranja'</tspan></text>
    <path
       id="path61"
       d="m 584.01001,263 h 125 v 50 h -125 z"
       style="fill:#ffffff;fill-opacity:1;fill-rule:nonzero;stroke:#000000;stroke-width:1;stroke-linecap:butt;stroke-linejoin:miter;stroke-miterlimit:10;stroke-dasharray:none;stroke-opacity:1"
       transform="matrix(0.9578999,0,0,0.9578999,0.47894995,0.47894995)"
       clip-path="url(#clipPath62)" />
    <text
       id="text62"
       xml:space="preserve"
       transform="matrix(0.9579095,0,0,0.9579095,595.34075,282.5833)"
       clip-path="url(#clipPath63)"><tspan
         style="font-variant:normal;font-weight:normal;font-size:22px;font-family:Helvetica;writing-mode:lr-tb;fill:#000000;fill-opacity:1;fill-rule:nonzero;stroke:none"
         x="0 4.2001953 16.435547 21.323242 33.558594 45.793945"
         y="0"
         sodipodi:role="line"
         id="tspan62">'blue'</tspan></text>
    <path
       id="path64"
       d="m 709.01001,263 h 125 v 50 h -125 z"
       style="fill:#ffffff;fill-opacity:1;fill-rule:nonzero;stroke:#000000;stroke-width:1;stroke-linecap:butt;stroke-linejoin:miter;stroke-miterlimit:10;stroke-dasharray:none;stroke-opacity:1"
       transform="matrix(0.9578999,0,0,0.9578999,0.47894995,0.47894995)"
       clip-path="url(#clipPath65)" />
    <text
       id="text65"
       xml:space="preserve"
       transform="matrix(0.9579095,0,0,0.9579095,715.66317,282.5833)"
       clip-path="url(#clipPath66)"><tspan
         style="font-variant:normal;font-weight:normal;font-size:22px;font-family:Helvetica;writing-mode:lr-tb;fill:#000000;fill-opacity:1;fill-rule:nonzero;stroke:none"
         x="0 4.2001953 16.435547 27.435547 39.670898 44.558594"
         y="0"
         sodipodi:role="line"
         id="tspan65">'azul'</tspan></text>
    <path
       id="path67"
       d="m 541.01001,408 h 32.89001"
       style="fill:none;stroke:#000000;stroke-width:1;stroke-linecap:butt;stroke-linejoin:miter;stroke-miterlimit:10;stroke-dasharray:none;stroke-opacity:1"
       transform="matrix(0.9578999,0,0,0.9578999,0.47894995,0.47894995)"
       clip-path="url(#clipPath68)" />
    <path
       id="path69"
       d="m 580.65002,408 -9,4.5 2.25,-4.5 -2.25,-4.5 z"
       style="fill:#000000;fill-opacity:1;fill-rule:nonzero;stroke:#000000;stroke-width:1;stroke-linecap:butt;stroke-linejoin:miter;stroke-miterlimit:10;stroke-dasharray:none;stroke-opacity:1"
       transform="matrix(0.9578999,0,0,0.9578999,0.47894995,0.47894995)"
       clip-path="url(#clipPath70)" />
    <path
       id="path71"
       d="M 381,333 H 541 V 483 H 381 Z"
       style="fill:#ffffff;fill-opacity:1;fill-rule:nonzero;stroke:#000000;stroke-width:1;stroke-linecap:butt;stroke-linejoin:miter;stroke-miterlimit:10;stroke-dasharray:none;stroke-opacity:1"
       transform="matrix(0.9578999,0,0,0.9578999,0.47894995,0.47894995)"
       clip-path="url(#clipPath72)" />
    <text
       id="text72"
       xml:space="preserve"
       transform="matrix(0.9579095,0,0,0.9579095,401.84303,397.53244)"
       clip-path="url(#clipPath73)"><tspan
         style="font-variant:normal;font-weight:normal;font-size:22px;font-family:Helvetica;writing-mode:lr-tb;fill:#000000;fill-opacity:1;fill-rule:nonzero;stroke:none"
         x="0 4.2001953 16.435547 28.670898 35.99707 54.323242 66.558594 78.793945"
         y="0"
         sodipodi:role="line"
         id="tspan72">'german'</tspan></text>
    <path
       id="path74"
       d="m 584.01001,333 h 125 v 50 h -125 z"
       style="fill:#ffffff;fill-opacity:1;fill-rule:nonzero;stroke:#000000;stroke-width:1;stroke-linecap:butt;stroke-linejoin:miter;stroke-miterlimit:10;stroke-dasharray:none;stroke-opacity:1"
       transform="matrix(0.9578999,0,0,0.9578999,0.47894995,0.47894995)"
       clip-path="url(#clipPath75)" />
    <text
       id="text75"
       xml:space="preserve"
       transform="matrix(0.9579095,0,0,0.9579095,600.02553,349.63697)"
       clip-path="url(#clipPath76)"><tspan
         style="font-variant:normal;font-weight:normal;font-size:22px;font-family:Helvetica;writing-mode:lr-tb;fill:#000000;fill-opacity:1;fill-rule:nonzero;stroke:none"
         x="0 4.2001953 11.526367 23.761719 35.99707"
         y="0"
         sodipodi:role="line"
         id="tspan75">'red'</tspan></text>
    <path
       id="path77"
       d="m 709.01001,333 h 125 v 50 h -125 z"
       style="fill:#ffffff;fill-opacity:1;fill-rule:nonzero;stroke:#000000;stroke-width:1;stroke-linecap:butt;stroke-linejoin:miter;stroke-miterlimit:10;stroke-dasharray:none;stroke-opacity:1"
       transform="matrix(0.9578999,0,0,0.9578999,0.47894995,0.47894995)"
       clip-path="url(#clipPath78)" />
    <text
       id="text78"
       xml:space="preserve"
       transform="matrix(0.9579095,0,0,0.9579095,722.69782,349.63697)"
       clip-path="url(#clipPath79)"><tspan
         style="font-variant:normal;font-weight:normal;font-size:22px;font-family:Helvetica;writing-mode:lr-tb;fill:#000000;fill-opacity:1;fill-rule:nonzero;stroke:none"
         x="0 4.2001953 11.526367 23.761719 29.874023"
         y="0"
         sodipodi:role="line"
         id="tspan78">'rot'</tspan></text>
    <path
       id="path80"
       d="m 584.01001,383 h 125 v 50 h -125 z"
       style="fill:#ffffff;fill-opacity:1;fill-rule:nonzero;stroke:#000000;stroke-width:1;stroke-linecap:butt;stroke-linejoin:miter;stroke-miterlimit:10;stroke-dasharray:none;stroke-opacity:1"
       transform="matrix(0.9578999,0,0,0.9578999,0.47894995,0.47894995)"
       clip-path="url(#clipPath81)" />
    <text
       id="text81"
       xml:space="preserve"
       transform="matrix(0.9579095,0,0,0.9579095,582.45388,397.53244)"
       clip-path="url(#clipPath82)"><tspan
         style="font-variant:normal;font-weight:normal;font-size:22px;font-family:Helvetica;writing-mode:lr-tb;fill:#000000;fill-opacity:1;fill-rule:nonzero;stroke:none"
         x="0 4.2001953 16.435547 23.761719 35.99707 48.232422 60.467773 72.703125"
         y="0"
         sodipodi:role="line"
         id="tspan81">'orange'</tspan></text>
    <path
       id="path83"
       d="m 709.01001,383 h 125 v 50 h -125 z"
       style="fill:#ffffff;fill-opacity:1;fill-rule:nonzero;stroke:#000000;stroke-width:1;stroke-linecap:butt;stroke-linejoin:miter;stroke-miterlimit:10;stroke-dasharray:none;stroke-opacity:1"
       transform="matrix(0.9578999,0,0,0.9578999,0.47894995,0.47894995)"
       clip-path="url(#clipPath84)" />
    <text
       id="text84"
       xml:space="preserve"
       transform="matrix(0.9579095,0,0,0.9579095,702.19257,397.53244)"
       clip-path="url(#clipPath85)"><tspan
         style="font-variant:normal;font-weight:normal;font-size:22px;font-family:Helvetica;writing-mode:lr-tb;fill:#000000;fill-opacity:1;fill-rule:nonzero;stroke:none"
         x="0 4.2001953 16.435547 23.761719 35.99707 48.232422 60.467773 72.703125"
         y="0"
         sodipodi:role="line"
         id="tspan84">'orange'</tspan></text>
    <path
       id="path86"
       d="m 584.01001,433 h 125 v 50 h -125 z"
       style="fill:#ffffff;fill-opacity:1;fill-rule:nonzero;stroke:#000000;stroke-width:1;stroke-linecap:butt;stroke-linejoin:miter;stroke-miterlimit:10;stroke-dasharray:none;stroke-opacity:1"
       transform="matrix(0.9578999,0,0,0.9578999,0.47894995,0.47894995)"
       clip-path="url(#clipPath87)" />
    <text
       id="text87"
       xml:space="preserve"
       transform="matrix(0.9579095,0,0,0.9579095,595.34075,445.42792)"
       clip-path="url(#clipPath88)"><tspan
         style="font-variant:normal;font-weight:normal;font-size:22px;font-family:Helvetica;writing-mode:lr-tb;fill:#000000;fill-opacity:1;fill-rule:nonzero;stroke:none"
         x="0 4.2001953 16.435547 21.323242 33.558594 45.793945"
         y="0"
         sodipodi:role="line"
         id="tspan87">'blue'</tspan></text>
    <path
       id="path89"
       d="m 709.01001,433 h 125 v 50 h -125 z"
       style="fill:#ffffff;fill-opacity:1;fill-rule:nonzero;stroke:#000000;stroke-width:1;stroke-linecap:butt;stroke-linejoin:miter;stroke-miterlimit:10;stroke-dasharray:none;stroke-opacity:1"
       transform="matrix(0.9578999,0,0,0.9578999,0.47894995,0.47894995)"
       clip-path="url(#clipPath90)" />
    <text
       id="text90"
       xml:space="preserve"
       transform="matrix(0.9579095,0,0,0.9579095,715.07944,445.42792)"
       clip-path="url(#clipPath91)"><tspan
         style="font-variant:normal;font-weight:normal;font-size:22px;font-family:Helvetica;writing-mode:lr-tb;fill:#000000;fill-opacity:1;fill-rule:nonzero;stroke:none"
         x="0 4.2001953 16.435547 21.323242 33.558594 45.793945"
         y="0"
         sodipodi:role="line"
         id="tspan90">'blau'</tspan></text>
  </g>
</svg>
