<?xml version="1.0" encoding="UTF-8" standalone="no"?>
<!-- Created with Inkscape (http://www.inkscape.org/) -->

<svg
   version="1.1"
   id="svg1"
   width="941.43994"
   height="433.28"
   viewBox="0 0 941.43994 433.28"
   sodipodi:docname="node-11.pdf"
   xmlns:inkscape="http://www.inkscape.org/namespaces/inkscape"
   xmlns:sodipodi="http://sodipodi.sourceforge.net/DTD/sodipodi-0.dtd"
   xmlns="http://www.w3.org/2000/svg"
   xmlns:svg="http://www.w3.org/2000/svg">
  <defs
     id="defs1">
    <clipPath
       clipPathUnits="userSpaceOnUse"
       id="clipPath2">
      <path
         d="M 0,0 H 2941.6665 V 1354.0054 H 0 Z"
         transform="scale(0.33382438)"
         clip-rule="evenodd"
         id="path2" />
    </clipPath>
    <clipPath
       clipPathUnits="userSpaceOnUse"
       id="clipPath4">
      <path
         d="M 0,0 H 2941.6665 V 1351.0098 H 0 Z"
         transform="matrix(0.33382438,0,0,0.33382438,-0.50000001,-0.50000001)"
         clip-rule="evenodd"
         id="path4" />
    </clipPath>
    <clipPath
       clipPathUnits="userSpaceOnUse"
       id="clipPath6">
      <path
         d="M 0,0 H 2941.6665 V 1351.0098 H 0 Z"
         transform="matrix(0.33382438,0,0,0.33382438,-0.50000001,-0.50000001)"
         clip-rule="evenodd"
         id="path6" />
    </clipPath>
    <clipPath
       clipPathUnits="userSpaceOnUse"
       id="clipPath8">
      <path
         d="M 0,0 H 2941.6665 V 1351.0098 H 0 Z"
         transform="matrix(0.33382438,0,0,0.33382438,-0.50000001,-0.50000001)"
         clip-rule="evenodd"
         id="path8" />
    </clipPath>
    <clipPath
       clipPathUnits="userSpaceOnUse"
       id="clipPath9">
      <path
         d="M 0,0 H 2941.6665 V 1351.0098 H 0 Z"
         transform="matrix(0.33382103,0,0,0.33382103,-119.85937,-34)"
         clip-rule="evenodd"
         id="path9" />
    </clipPath>
    <clipPath
       clipPathUnits="userSpaceOnUse"
       id="clipPath11">
      <path
         d="M 0,0 H 2941.6665 V 1351.0098 H 0 Z"
         transform="matrix(0.33382438,0,0,0.33382438,-0.50000001,-0.50000001)"
         clip-rule="evenodd"
         id="path11" />
    </clipPath>
    <clipPath
       clipPathUnits="userSpaceOnUse"
       id="clipPath13">
      <path
         d="M 0,0 H 2941.6665 V 1351.0098 H 0 Z"
         transform="matrix(0.33382438,0,0,0.33382438,-0.50000001,-0.50000001)"
         clip-rule="evenodd"
         id="path13" />
    </clipPath>
    <clipPath
       clipPathUnits="userSpaceOnUse"
       id="clipPath14">
      <path
         d="M 0,0 H 2941.6665 V 1351.0098 H 0 Z"
         transform="matrix(0.33382103,0,0,0.33382103,-2.515625,-24)"
         clip-rule="evenodd"
         id="path14" />
    </clipPath>
    <clipPath
       clipPathUnits="userSpaceOnUse"
       id="clipPath16">
      <path
         d="M 0,0 H 2941.6665 V 1351.0098 H 0 Z"
         transform="matrix(0.33382438,0,0,0.33382438,-0.50000001,-0.50000001)"
         clip-rule="evenodd"
         id="path16" />
    </clipPath>
    <clipPath
       clipPathUnits="userSpaceOnUse"
       id="clipPath18">
      <path
         d="M 0,0 H 2941.6665 V 1351.0098 H 0 Z"
         transform="matrix(0.33382438,0,0,0.33382438,-0.50000001,-0.50000001)"
         clip-rule="evenodd"
         id="path18" />
    </clipPath>
    <clipPath
       clipPathUnits="userSpaceOnUse"
       id="clipPath20">
      <path
         d="M 0,0 H 2941.6665 V 1351.0098 H 0 Z"
         transform="matrix(0.33382438,0,0,0.33382438,-0.50000001,-0.50000001)"
         clip-rule="evenodd"
         id="path20" />
    </clipPath>
    <clipPath
       clipPathUnits="userSpaceOnUse"
       id="clipPath21">
      <path
         d="M 0,0 H 2941.6665 V 1351.0098 H 0 Z"
         transform="matrix(0.33382103,0,0,0.33382103,-113.04688,-99)"
         clip-rule="evenodd"
         id="path21" />
    </clipPath>
    <clipPath
       clipPathUnits="userSpaceOnUse"
       id="clipPath23">
      <path
         d="M 0,0 H 2941.6665 V 1351.0098 H 0 Z"
         transform="matrix(0.33382438,0,0,0.33382438,-0.50000001,-0.50000001)"
         clip-rule="evenodd"
         id="path23" />
    </clipPath>
    <clipPath
       clipPathUnits="userSpaceOnUse"
       id="clipPath25">
      <path
         d="M 0,0 H 2941.6665 V 1351.0098 H 0 Z"
         transform="matrix(0.33382438,0,0,0.33382438,-0.50000001,-0.50000001)"
         clip-rule="evenodd"
         id="path25" />
    </clipPath>
    <clipPath
       clipPathUnits="userSpaceOnUse"
       id="clipPath27">
      <path
         d="M 0,0 H 2941.6665 V 1351.0098 H 0 Z"
         transform="matrix(0.33382438,0,0,0.33382438,-0.50000001,-0.50000001)"
         clip-rule="evenodd"
         id="path27" />
    </clipPath>
    <clipPath
       clipPathUnits="userSpaceOnUse"
       id="clipPath28">
      <path
         d="M 0,0 H 2941.6665 V 1351.0098 H 0 Z"
         transform="matrix(0.33382103,0,0,0.33382103,-88.578125,-154)"
         clip-rule="evenodd"
         id="path28" />
    </clipPath>
    <clipPath
       clipPathUnits="userSpaceOnUse"
       id="clipPath29">
      <path
         d="M 0,0 H 2941.6665 V 1351.0098 H 0 Z"
         transform="matrix(0.33382103,0,0,0.33382103,-112.60937,-174)"
         clip-rule="evenodd"
         id="path29" />
    </clipPath>
    <clipPath
       clipPathUnits="userSpaceOnUse"
       id="clipPath31">
      <path
         d="M 0,0 H 2941.6665 V 1351.0098 H 0 Z"
         transform="matrix(0.33382438,0,0,0.33382438,-0.50000001,-0.50000001)"
         clip-rule="evenodd"
         id="path31" />
    </clipPath>
    <clipPath
       clipPathUnits="userSpaceOnUse"
       id="clipPath33">
      <path
         d="M 0,0 H 2941.6665 V 1351.0098 H 0 Z"
         transform="matrix(0.33382438,0,0,0.33382438,-0.50000001,-0.50000001)"
         clip-rule="evenodd"
         id="path33" />
    </clipPath>
    <clipPath
       clipPathUnits="userSpaceOnUse"
       id="clipPath35">
      <path
         d="M 0,0 H 2941.6665 V 1351.0098 H 0 Z"
         transform="matrix(0.33382438,0,0,0.33382438,-0.50000001,-0.50000001)"
         clip-rule="evenodd"
         id="path35" />
    </clipPath>
    <clipPath
       clipPathUnits="userSpaceOnUse"
       id="clipPath36">
      <path
         d="M 0,0 H 2941.6665 V 1351.0098 H 0 Z"
         transform="matrix(0.33382103,0,0,0.33382103,-92.59375,-219)"
         clip-rule="evenodd"
         id="path36" />
    </clipPath>
    <clipPath
       clipPathUnits="userSpaceOnUse"
       id="clipPath37">
      <path
         d="M 0,0 H 2941.6665 V 1351.0098 H 0 Z"
         transform="matrix(0.33382103,0,0,0.33382103,-81.031251,-239)"
         clip-rule="evenodd"
         id="path37" />
    </clipPath>
    <clipPath
       clipPathUnits="userSpaceOnUse"
       id="clipPath39">
      <path
         d="M 0,0 H 2941.6665 V 1351.0098 H 0 Z"
         transform="matrix(0.33382438,0,0,0.33382438,-0.50000001,-0.50000001)"
         clip-rule="evenodd"
         id="path39" />
    </clipPath>
    <clipPath
       clipPathUnits="userSpaceOnUse"
       id="clipPath41">
      <path
         d="M 0,0 H 2941.6665 V 1351.0098 H 0 Z"
         transform="matrix(0.33382438,0,0,0.33382438,-0.50000001,-0.50000001)"
         clip-rule="evenodd"
         id="path41" />
    </clipPath>
    <clipPath
       clipPathUnits="userSpaceOnUse"
       id="clipPath43">
      <path
         d="M 0,0 H 2941.6665 V 1351.0098 H 0 Z"
         transform="matrix(0.33382438,0,0,0.33382438,-0.50000001,-0.50000001)"
         clip-rule="evenodd"
         id="path43" />
    </clipPath>
    <clipPath
       clipPathUnits="userSpaceOnUse"
       id="clipPath44">
      <path
         d="M 0,0 H 2941.6665 V 1351.0098 H 0 Z"
         transform="matrix(0.33382103,0,0,0.33382103,-81.484375,-284)"
         clip-rule="evenodd"
         id="path44" />
    </clipPath>
    <clipPath
       clipPathUnits="userSpaceOnUse"
       id="clipPath45">
      <path
         d="M 0,0 H 2941.6665 V 1351.0098 H 0 Z"
         transform="matrix(0.33382103,0,0,0.33382103,-105.04688,-304)"
         clip-rule="evenodd"
         id="path45" />
    </clipPath>
    <clipPath
       clipPathUnits="userSpaceOnUse"
       id="clipPath47">
      <path
         d="M 0,0 H 2941.6665 V 1351.0098 H 0 Z"
         transform="matrix(0.33382438,0,0,0.33382438,-0.50000001,-0.50000001)"
         clip-rule="evenodd"
         id="path47" />
    </clipPath>
    <clipPath
       clipPathUnits="userSpaceOnUse"
       id="clipPath49">
      <path
         d="M 0,0 H 2941.6665 V 1351.0098 H 0 Z"
         transform="matrix(0.33382438,0,0,0.33382438,-0.50000001,-0.50000001)"
         clip-rule="evenodd"
         id="path49" />
    </clipPath>
    <clipPath
       clipPathUnits="userSpaceOnUse"
       id="clipPath51">
      <path
         d="M 0,0 H 2941.6665 V 1351.0098 H 0 Z"
         transform="matrix(0.33382438,0,0,0.33382438,-0.50000001,-0.50000001)"
         clip-rule="evenodd"
         id="path51" />
    </clipPath>
    <clipPath
       clipPathUnits="userSpaceOnUse"
       id="clipPath52">
      <path
         d="M 0,0 H 2941.6665 V 1351.0098 H 0 Z"
         transform="matrix(0.33382103,0,0,0.33382103,-402.39063,-392.00001)"
         clip-rule="evenodd"
         id="path52" />
    </clipPath>
    <clipPath
       clipPathUnits="userSpaceOnUse"
       id="clipPath53">
      <path
         d="M 0,0 H 2941.6665 V 1351.0098 H 0 Z"
         transform="matrix(0.33382103,0,0,0.33382103,-431.75001,-412.00001)"
         clip-rule="evenodd"
         id="path53" />
    </clipPath>
    <clipPath
       clipPathUnits="userSpaceOnUse"
       id="clipPath55">
      <path
         d="M 0,0 H 2941.6665 V 1351.0098 H 0 Z"
         transform="matrix(0.33382438,0,0,0.33382438,-0.50000001,-0.50000001)"
         clip-rule="evenodd"
         id="path55" />
    </clipPath>
    <clipPath
       clipPathUnits="userSpaceOnUse"
       id="clipPath57">
      <path
         d="M 0,0 H 2941.6665 V 1351.0098 H 0 Z"
         transform="matrix(0.33382438,0,0,0.33382438,-0.50000001,-0.50000001)"
         clip-rule="evenodd"
         id="path57" />
    </clipPath>
    <clipPath
       clipPathUnits="userSpaceOnUse"
       id="clipPath59">
      <path
         d="M 0,0 H 2941.6665 V 1351.0098 H 0 Z"
         transform="matrix(0.33382438,0,0,0.33382438,-0.50000001,-0.50000001)"
         clip-rule="evenodd"
         id="path59" />
    </clipPath>
    <clipPath
       clipPathUnits="userSpaceOnUse"
       id="clipPath60">
      <path
         d="M 0,0 H 2941.6665 V 1351.0098 H 0 Z"
         transform="matrix(0.33382103,0,0,0.33382103,-401.04688,-292)"
         clip-rule="evenodd"
         id="path60" />
    </clipPath>
    <clipPath
       clipPathUnits="userSpaceOnUse"
       id="clipPath61">
      <path
         d="M 0,0 H 2941.6665 V 1351.0098 H 0 Z"
         transform="matrix(0.33382103,0,0,0.33382103,-416.625,-312)"
         clip-rule="evenodd"
         id="path61" />
    </clipPath>
    <clipPath
       clipPathUnits="userSpaceOnUse"
       id="clipPath63">
      <path
         d="M 0,0 H 2941.6665 V 1351.0098 H 0 Z"
         transform="matrix(0.33382438,0,0,0.33382438,-0.50000001,-0.50000001)"
         clip-rule="evenodd"
         id="path63" />
    </clipPath>
    <clipPath
       clipPathUnits="userSpaceOnUse"
       id="clipPath65">
      <path
         d="M 0,0 H 2941.6665 V 1351.0098 H 0 Z"
         transform="matrix(0.33382438,0,0,0.33382438,-0.50000001,-0.50000001)"
         clip-rule="evenodd"
         id="path65" />
    </clipPath>
    <clipPath
       clipPathUnits="userSpaceOnUse"
       id="clipPath67">
      <path
         d="M 0,0 H 2941.6665 V 1351.0098 H 0 Z"
         transform="matrix(0.33382438,0,0,0.33382438,-0.50000001,-0.50000001)"
         clip-rule="evenodd"
         id="path67" />
    </clipPath>
    <clipPath
       clipPathUnits="userSpaceOnUse"
       id="clipPath69">
      <path
         d="M 0,0 H 2941.6665 V 1351.0098 H 0 Z"
         transform="matrix(0.33382438,0,0,0.33382438,-0.50000001,-0.50000001)"
         clip-rule="evenodd"
         id="path69" />
    </clipPath>
    <clipPath
       clipPathUnits="userSpaceOnUse"
       id="clipPath71">
      <path
         d="M 0,0 H 2941.6665 V 1351.0098 H 0 Z"
         transform="matrix(0.33382438,0,0,0.33382438,-0.50000001,-0.50000001)"
         clip-rule="evenodd"
         id="path71" />
    </clipPath>
    <clipPath
       clipPathUnits="userSpaceOnUse"
       id="clipPath72">
      <path
         d="M 0,0 H 2941.6665 V 1351.0098 H 0 Z"
         transform="matrix(0.33382103,0,0,0.33382103,-78.359375,-354)"
         clip-rule="evenodd"
         id="path72" />
    </clipPath>
    <clipPath
       clipPathUnits="userSpaceOnUse"
       id="clipPath73">
      <path
         d="M 0,0 H 2941.6665 V 1351.0098 H 0 Z"
         transform="matrix(0.33382103,0,0,0.33382103,-86.796875,-374)"
         clip-rule="evenodd"
         id="path73" />
    </clipPath>
    <clipPath
       clipPathUnits="userSpaceOnUse"
       id="clipPath75">
      <path
         d="M 0,0 H 2941.6665 V 1351.0098 H 0 Z"
         transform="matrix(0.33382438,0,0,0.33382438,-0.50000001,-0.50000001)"
         clip-rule="evenodd"
         id="path75" />
    </clipPath>
    <clipPath
       clipPathUnits="userSpaceOnUse"
       id="clipPath77">
      <path
         d="M 0,0 H 2941.6665 V 1351.0098 H 0 Z"
         transform="matrix(0.33382438,0,0,0.33382438,-0.50000001,-0.50000001)"
         clip-rule="evenodd"
         id="path77" />
    </clipPath>
    <clipPath
       clipPathUnits="userSpaceOnUse"
       id="clipPath79">
      <path
         d="M 0,0 H 2941.6665 V 1351.0098 H 0 Z"
         transform="matrix(0.33382438,0,0,0.33382438,-0.50000001,-0.50000001)"
         clip-rule="evenodd"
         id="path79" />
    </clipPath>
    <clipPath
       clipPathUnits="userSpaceOnUse"
       id="clipPath80">
      <path
         d="M 0,0 H 2941.6665 V 1351.0098 H 0 Z"
         transform="matrix(0.33382103,0,0,0.33382103,-619.0625,-292)"
         clip-rule="evenodd"
         id="path80" />
    </clipPath>
    <clipPath
       clipPathUnits="userSpaceOnUse"
       id="clipPath81">
      <path
         d="M 0,0 H 2941.6665 V 1351.0098 H 0 Z"
         transform="matrix(0.33382103,0,0,0.33382103,-665.31251,-312)"
         clip-rule="evenodd"
         id="path81" />
    </clipPath>
    <clipPath
       clipPathUnits="userSpaceOnUse"
       id="clipPath83">
      <path
         d="M 0,0 H 2941.6665 V 1351.0098 H 0 Z"
         transform="matrix(0.33382438,0,0,0.33382438,-0.50000001,-0.50000001)"
         clip-rule="evenodd"
         id="path83" />
    </clipPath>
    <clipPath
       clipPathUnits="userSpaceOnUse"
       id="clipPath84">
      <path
         d="M 0,0 H 2941.6665 V 1351.0098 H 0 Z"
         transform="matrix(0.33382103,0,0,0.33382103,-619.0625,-392.00001)"
         clip-rule="evenodd"
         id="path84" />
    </clipPath>
    <clipPath
       clipPathUnits="userSpaceOnUse"
       id="clipPath85">
      <path
         d="M 0,0 H 2941.6665 V 1351.0098 H 0 Z"
         transform="matrix(0.33382103,0,0,0.33382103,-665.31251,-412.00001)"
         clip-rule="evenodd"
         id="path85" />
    </clipPath>
    <clipPath
       clipPathUnits="userSpaceOnUse"
       id="clipPath87">
      <path
         d="M 0,0 H 2941.6665 V 1351.0098 H 0 Z"
         transform="matrix(0.33382438,0,0,0.33382438,-0.50000001,-0.50000001)"
         clip-rule="evenodd"
         id="path87" />
    </clipPath>
    <clipPath
       clipPathUnits="userSpaceOnUse"
       id="clipPath88">
      <path
         d="M 0,0 H 2941.6665 V 1351.0098 H 0 Z"
         transform="matrix(0.33382103,0,0,0.33382103,-820.60938,-283)"
         clip-rule="evenodd"
         id="path88" />
    </clipPath>
    <clipPath
       clipPathUnits="userSpaceOnUse"
       id="clipPath89">
      <path
         d="M 0,0 H 2941.6665 V 1351.0098 H 0 Z"
         transform="matrix(0.33382103,0,0,0.33382103,-807.26564,-302)"
         clip-rule="evenodd"
         id="path89" />
    </clipPath>
    <clipPath
       clipPathUnits="userSpaceOnUse"
       id="clipPath90">
      <path
         d="M 0,0 H 2941.6665 V 1351.0098 H 0 Z"
         transform="matrix(0.33382103,0,0,0.33382103,-869.98438,-321.00001)"
         clip-rule="evenodd"
         id="path90" />
    </clipPath>
  </defs>
  <sodipodi:namedview
     id="namedview1"
     pagecolor="#ffffff"
     bordercolor="#000000"
     borderopacity="0.25"
     inkscape:showpageshadow="2"
     inkscape:pageopacity="0.0"
     inkscape:pagecheckerboard="0"
     inkscape:deskcolor="#d1d1d1">
    <inkscape:page
       x="0"
       y="0"
       inkscape:label="1"
       id="page1"
       width="941.43994"
       height="433.28"
       margin="0"
       bleed="0" />
  </sodipodi:namedview>
  <g
     id="g1"
     inkscape:groupmode="layer"
     inkscape:label="1">
    <path
       id="path1"
       d="M 0,0 H 982 V 452 H 0 Z"
       style="fill:#ffffff;fill-opacity:1;fill-rule:nonzero;stroke:none"
       transform="scale(0.95858783)"
       clip-path="url(#clipPath2)" />
    <path
       id="path3"
       d="M 210,49 V 69 54 63.900002"
       style="fill:none;stroke:#000000;stroke-width:1;stroke-linecap:butt;stroke-linejoin:miter;stroke-miterlimit:10;stroke-dasharray:none;stroke-opacity:1"
       transform="matrix(0.95858783,0,0,0.95858783,0.47929392,0.47929392)"
       clip-path="url(#clipPath4)" />
    <path
       id="path5"
       d="m 210,70.650002 -4.5,-9 4.5,2.25 4.5,-2.25 z"
       style="fill:#000000;fill-opacity:1;fill-rule:nonzero;stroke:#000000;stroke-width:1;stroke-linecap:butt;stroke-linejoin:miter;stroke-miterlimit:10;stroke-dasharray:none;stroke-opacity:1"
       transform="matrix(0.95858783,0,0,0.95858783,0.47929392,0.47929392)"
       clip-path="url(#clipPath6)" />
    <path
       id="path7"
       d="M 70,9 H 350 V 49 H 70 Z"
       style="fill:#ffffff;fill-opacity:1;fill-rule:nonzero;stroke:#000000;stroke-width:1;stroke-linecap:butt;stroke-linejoin:miter;stroke-miterlimit:10;stroke-dasharray:none;stroke-opacity:1"
       transform="matrix(0.95858783,0,0,0.95858783,0.47929392,0.47929392)"
       clip-path="url(#clipPath8)" />
    <text
       id="text8"
       xml:space="preserve"
       transform="matrix(0.95859746,0,0,0.95859746,114.89689,32.592314)"
       clip-path="url(#clipPath9)"><tspan
         style="font-variant:normal;font-weight:normal;font-size:16px;font-family:Helvetica;writing-mode:lr-tb;fill:#000000;fill-opacity:1;fill-rule:nonzero;stroke:none"
         x="0 10.390625 13.945312 21.945312 25.5 29.945312 34.390625 37.945312 46.84375 54.84375 63.742188 67.296875 76.195312 85.09375 93.09375 97.539062 101.98438 110.88281 119.78125 128.67969 137.57812 142.02344 150.92188 154.47656 163.375 172.27344"
         y="0"
         sodipodi:role="line"
         id="tspan8">Visit localhost:3000/blogs</tspan></text>
    <path
       id="path10"
       d="M 50,9 V 428.89999"
       style="fill:none;stroke:#000000;stroke-width:1;stroke-linecap:butt;stroke-linejoin:miter;stroke-miterlimit:10;stroke-dasharray:none;stroke-opacity:1"
       transform="matrix(0.95858783,0,0,0.95858783,0.47929392,0.47929392)"
       clip-path="url(#clipPath11)" />
    <path
       id="path12"
       d="m 50,435.64999 -4.5,-9 4.5,2.25 4.5,-2.25 z"
       style="fill:#000000;fill-opacity:1;fill-rule:nonzero;stroke:#000000;stroke-width:1;stroke-linecap:butt;stroke-linejoin:miter;stroke-miterlimit:10;stroke-dasharray:none;stroke-opacity:1"
       transform="matrix(0.95858783,0,0,0.95858783,0.47929392,0.47929392)"
       clip-path="url(#clipPath13)" />
    <text
       id="text13"
       xml:space="preserve"
       transform="matrix(0.95859746,0,0,0.95859746,2.4114717,23.006339)"
       clip-path="url(#clipPath14)"><tspan
         style="font-variant:normal;font-weight:normal;font-size:16px;font-family:Helvetica;writing-mode:lr-tb;fill:#000000;fill-opacity:1;fill-rule:nonzero;stroke:none"
         x="0 9.1875 12.742188 26.070312"
         y="0"
         sodipodi:role="line"
         id="tspan13">Time</tspan></text>
    <path
       id="path15"
       d="m 210,114 v 20 -15 9.89999"
       style="fill:none;stroke:#000000;stroke-width:1;stroke-linecap:butt;stroke-linejoin:miter;stroke-miterlimit:10;stroke-dasharray:none;stroke-opacity:1"
       transform="matrix(0.95858783,0,0,0.95858783,0.47929392,0.47929392)"
       clip-path="url(#clipPath16)" />
    <path
       id="path17"
       d="m 210,135.64999 -4.5,-8.99999 4.5,2.24999 4.5,-2.24999 z"
       style="fill:#000000;fill-opacity:1;fill-rule:nonzero;stroke:#000000;stroke-width:1;stroke-linecap:butt;stroke-linejoin:miter;stroke-miterlimit:10;stroke-dasharray:none;stroke-opacity:1"
       transform="matrix(0.95858783,0,0,0.95858783,0.47929392,0.47929392)"
       clip-path="url(#clipPath18)" />
    <path
       id="path19"
       d="m 70,74 h 280 v 40 H 70 Z"
       style="fill:#ffffff;fill-opacity:1;fill-rule:nonzero;stroke:#000000;stroke-width:1;stroke-linecap:butt;stroke-linejoin:miter;stroke-miterlimit:10;stroke-dasharray:none;stroke-opacity:1"
       transform="matrix(0.95858783,0,0,0.95858783,0.47929392,0.47929392)"
       clip-path="url(#clipPath20)" />
    <text
       id="text20"
       xml:space="preserve"
       transform="matrix(0.95859746,0,0,0.95859746,108.36645,94.901149)"
       clip-path="url(#clipPath21)"><tspan
         style="font-variant:normal;font-weight:normal;font-size:16px;font-family:Helvetica;writing-mode:lr-tb;fill:#000000;fill-opacity:1;fill-rule:nonzero;stroke:none"
         x="0 11.554688 20.453125 29.351562 37.351562 41.796875 46.242188 55.140625 64.039062 72.9375 77.382812 80.9375 89.835938 98.734375 107.63281 115.63281 120.07812 123.63281 132.53125 136.97656 145.875 151.20312 160.10156 171.65625 179.65625 188.55469"
         y="0"
         sodipodi:role="line"
         id="tspan20">React app loads in browser</tspan></text>
    <path
       id="path22"
       d="m 210,179 v 14.89999"
       style="fill:none;stroke:#000000;stroke-width:1;stroke-linecap:butt;stroke-linejoin:miter;stroke-miterlimit:10;stroke-dasharray:none;stroke-opacity:1"
       transform="matrix(0.95858783,0,0,0.95858783,0.47929392,0.47929392)"
       clip-path="url(#clipPath23)" />
    <path
       id="path24"
       d="m 210,200.64999 -4.5,-9 4.5,2.25 4.5,-2.25 z"
       style="fill:#000000;fill-opacity:1;fill-rule:nonzero;stroke:#000000;stroke-width:1;stroke-linecap:butt;stroke-linejoin:miter;stroke-miterlimit:10;stroke-dasharray:none;stroke-opacity:1"
       transform="matrix(0.95858783,0,0,0.95858783,0.47929392,0.47929392)"
       clip-path="url(#clipPath25)" />
    <path
       id="path26"
       d="m 70,139 h 280 v 40 H 70 Z"
       style="fill:#ffffff;fill-opacity:1;fill-rule:nonzero;stroke:#000000;stroke-width:1;stroke-linecap:butt;stroke-linejoin:miter;stroke-miterlimit:10;stroke-dasharray:none;stroke-opacity:1"
       transform="matrix(0.95858783,0,0,0.95858783,0.47929392,0.47929392)"
       clip-path="url(#clipPath27)" />
    <text
       id="text27"
       xml:space="preserve"
       transform="matrix(0.95859746,0,0,0.95859746,84.910766,147.62401)"
       clip-path="url(#clipPath28)"><tspan
         style="font-variant:normal;font-weight:normal;font-size:16px;font-family:Helvetica;writing-mode:lr-tb;fill:#000000;fill-opacity:1;fill-rule:nonzero;stroke:none"
         x="0 11.554688 20.453125 29.351562 37.351562 41.796875 46.242188 55.140625 64.039062 72.9375 77.382812 86.28125 95.179688 104.07812 112.97656 120.97656 125.42188 134.32031 143.21875 147.66406 156.5625 160.11719 163.67188 171.67188 176.11719 185.01562 193.91406 202.8125 211.71094 216.15625 220.60156 225.04688 233.94531"
         y="0"
         sodipodi:role="line"
         id="tspan27">React app needs details about the</tspan></text>
    <text
       id="text28"
       xml:space="preserve"
       transform="matrix(0.95859746,0,0,0.95859746,107.94706,166.79596)"
       clip-path="url(#clipPath29)"><tspan
         style="font-variant:normal;font-weight:normal;font-size:16px;font-family:Helvetica;writing-mode:lr-tb;fill:#000000;fill-opacity:1;fill-rule:nonzero;stroke:none"
         x="0 8 16.898438 22.226562 27.554688 36.453125 45.351562 49.796875 54.242188 63.140625 71.140625 80.039062 85.367188 89.8125 98.710938 107.60938 116.50781 120.95312 125.39844 134.29688 143.19531 146.75 152.07812 156.52344 165.42188 168.97656 177.875 186.77344"
         y="0"
         sodipodi:role="line"
         id="tspan28">current user and their blogs</tspan></text>
    <path
       id="path30"
       d="m 210,244 v 14.89999"
       style="fill:none;stroke:#000000;stroke-width:1;stroke-linecap:butt;stroke-linejoin:miter;stroke-miterlimit:10;stroke-dasharray:none;stroke-opacity:1"
       transform="matrix(0.95858783,0,0,0.95858783,0.47929392,0.47929392)"
       clip-path="url(#clipPath31)" />
    <path
       id="path32"
       d="m 210,265.64999 -4.5,-9 4.5,2.25 4.5,-2.25 z"
       style="fill:#000000;fill-opacity:1;fill-rule:nonzero;stroke:#000000;stroke-width:1;stroke-linecap:butt;stroke-linejoin:miter;stroke-miterlimit:10;stroke-dasharray:none;stroke-opacity:1"
       transform="matrix(0.95858783,0,0,0.95858783,0.47929392,0.47929392)"
       clip-path="url(#clipPath33)" />
    <path
       id="path34"
       d="m 70,204 h 280 v 40 H 70 Z"
       style="fill:#ffffff;fill-opacity:1;fill-rule:nonzero;stroke:#000000;stroke-width:1;stroke-linecap:butt;stroke-linejoin:miter;stroke-miterlimit:10;stroke-dasharray:none;stroke-opacity:1"
       transform="matrix(0.95858783,0,0,0.95858783,0.47929392,0.47929392)"
       clip-path="url(#clipPath35)" />
    <text
       id="text35"
       xml:space="preserve"
       transform="matrix(0.95859746,0,0,0.95859746,88.760134,209.93284)"
       clip-path="url(#clipPath36)"><tspan
         style="font-variant:normal;font-weight:normal;font-size:16px;font-family:Helvetica;writing-mode:lr-tb;fill:#000000;fill-opacity:1;fill-rule:nonzero;stroke:none"
         x="0 11.554688 20.453125 29.351562 37.351562 41.796875 46.242188 55.140625 64.039062 72.9375 77.382812 90.710938 99.609375 107.60938 116.50781 124.50781 128.95312 134.28125 143.17969 152.07812 160.97656 169.875 177.875 182.32031 190.32031 194.76562 199.21094 208.10938 212.55469 221.45312 230.35156"
         y="0"
         sodipodi:role="line"
         id="tspan35">React app makes requests to get</tspan></text>
    <text
       id="text36"
       xml:space="preserve"
       transform="matrix(0.95859746,0,0,0.95859746,77.676351,229.10479)"
       clip-path="url(#clipPath37)"><tspan
         style="font-variant:normal;font-weight:normal;font-size:16px;font-family:Helvetica;writing-mode:lr-tb;fill:#000000;fill-opacity:1;fill-rule:nonzero;stroke:none"
         x="0 8 16.898438 22.226562 27.554688 36.453125 45.351562 49.796875 54.242188 63.140625 71.140625 80.039062 85.367188 89.8125 98.710938 107.60938 116.50781 120.95312 129.85156 133.40625 142.30469 151.20312 155.64844 159.20312 162.75781 170.75781 175.20312 179.64844 184.09375 192.99219 197.4375 206.33594 215.23438 223.23438 231.23438 240.13281 249.03125"
         y="0"
         sodipodi:role="line"
         id="tspan36">current user and blog list to backend</tspan></text>
    <path
       id="path38"
       d="m 210,309 v 20 -10 9.89999"
       style="fill:none;stroke:#000000;stroke-width:1;stroke-linecap:butt;stroke-linejoin:miter;stroke-miterlimit:10;stroke-dasharray:none;stroke-opacity:1"
       transform="matrix(0.95858783,0,0,0.95858783,0.47929392,0.47929392)"
       clip-path="url(#clipPath39)" />
    <path
       id="path40"
       d="m 210,335.64999 -4.5,-9 4.5,2.25 4.5,-2.25 z"
       style="fill:#000000;fill-opacity:1;fill-rule:nonzero;stroke:#000000;stroke-width:1;stroke-linecap:butt;stroke-linejoin:miter;stroke-miterlimit:10;stroke-dasharray:none;stroke-opacity:1"
       transform="matrix(0.95858783,0,0,0.95858783,0.47929392,0.47929392)"
       clip-path="url(#clipPath41)" />
    <path
       id="path42"
       d="m 70,269 h 280 v 40 H 70 Z"
       style="fill:#ffffff;fill-opacity:1;fill-rule:nonzero;stroke:#000000;stroke-width:1;stroke-linecap:butt;stroke-linejoin:miter;stroke-miterlimit:10;stroke-dasharray:none;stroke-opacity:1"
       transform="matrix(0.95858783,0,0,0.95858783,0.47929392,0.47929392)"
       clip-path="url(#clipPath43)" />
    <text
       id="text43"
       xml:space="preserve"
       transform="matrix(0.95859746,0,0,0.95859746,78.110715,272.24168)"
       clip-path="url(#clipPath44)"><tspan
         style="font-variant:normal;font-weight:normal;font-size:16px;font-family:Helvetica;writing-mode:lr-tb;fill:#000000;fill-opacity:1;fill-rule:nonzero;stroke:none"
         x="0 10.671875 18.671875 27.570312 32.898438 41.796875 49.796875 57.796875 62.242188 67.570312 76.46875 85.367188 89.8125 98.710938 103.15625 112.05469 120.95312 129.85156 138.75 142.30469 151.20312 156.53125 160.97656 168.97656 177.875 186.77344 194.77344 199.21875 204.54688 213.44531 222.34375 231.24219 240.14062 248.14062 252.58594"
         y="0"
         sodipodi:role="line"
         id="tspan43">Express route handler sees request,</tspan></text>
    <text
       id="text44"
       xml:space="preserve"
       transform="matrix(0.95859746,0,0,0.95859746,100.69767,291.41363)"
       clip-path="url(#clipPath45)"><tspan
         style="font-variant:normal;font-weight:normal;font-size:16px;font-family:Helvetica;writing-mode:lr-tb;fill:#000000;fill-opacity:1;fill-rule:nonzero;stroke:none"
         x="0 4.4453125 13.34375 16.898438 20.453125 28.453125 32.898438 46.226562 55.125 64.023438 72.921875 81.820312 90.71875 98.71875 107.61719 112.0625 116.50781 125.40625 129.85156 138.75 147.64844 152.09375 156.53906 161.86719 170.76562 178.76562 187.66406 192.99219 201.89062"
         y="0"
         sodipodi:role="line"
         id="tspan44">tells Mongoose to get records</tspan></text>
    <path
       id="path46"
       d="M 580.01001,396.5 H 600 h -18 9.90002"
       style="fill:none;stroke:#000000;stroke-width:1;stroke-linecap:butt;stroke-linejoin:miter;stroke-miterlimit:10;stroke-dasharray:none;stroke-opacity:1"
       transform="matrix(0.95858783,0,0,0.95858783,0.47929392,0.47929392)"
       clip-path="url(#clipPath47)" />
    <path
       id="path48"
       d="m 598.65002,396.5 -9,4.5 2.25,-4.5 -2.25,-4.5 z"
       style="fill:#000000;fill-opacity:1;fill-rule:nonzero;stroke:#000000;stroke-width:1;stroke-linecap:butt;stroke-linejoin:miter;stroke-miterlimit:10;stroke-dasharray:none;stroke-opacity:1"
       transform="matrix(0.95858783,0,0,0.95858783,0.47929392,0.47929392)"
       clip-path="url(#clipPath49)" />
    <path
       id="path50"
       d="m 400,359 h 180 v 75 H 400 Z"
       style="fill:#ffffff;fill-opacity:1;fill-rule:nonzero;stroke:#000000;stroke-width:1;stroke-linecap:butt;stroke-linejoin:miter;stroke-miterlimit:10;stroke-dasharray:none;stroke-opacity:1"
       transform="matrix(0.95858783,0,0,0.95858783,0.47929392,0.47929392)"
       clip-path="url(#clipPath51)" />
    <text
       id="text51"
       xml:space="preserve"
       transform="matrix(0.95859746,0,0,0.95859746,385.73064,375.77021)"
       clip-path="url(#clipPath52)"><tspan
         style="font-variant:normal;font-weight:normal;font-size:16px;font-family:Helvetica;writing-mode:lr-tb;fill:#000000;fill-opacity:1;fill-rule:nonzero;stroke:none"
         x="0 4.4453125 8.890625 13.335938 22.234375 31.132812 35.578125 44.476562 48.921875 52.476562 60.476562 64.921875 68.476562 77.375 81.820312 89.820312 98.71875 106.71875 115.61719 124.51562 128.96094 133.40625 138.73438 147.63281 152.07812 160.97656 166.30469"
         y="0"
         sodipodi:role="line"
         id="tspan51">If data is in cache, return</tspan></text>
    <text
       id="text52"
       xml:space="preserve"
       transform="matrix(0.95859746,0,0,0.95859746,413.87446,394.94216)"
       clip-path="url(#clipPath53)"><tspan
         style="font-variant:normal;font-weight:normal;font-size:16px;font-family:Helvetica;writing-mode:lr-tb;fill:#000000;fill-opacity:1;fill-rule:nonzero;stroke:none"
         x="0 4.4453125 13.34375 22.242188 26.6875 31.132812 34.6875 48.015625 61.34375 70.242188 79.140625 82.695312 91.59375 96.039062 104.9375 108.49219"
         y="0"
         sodipodi:role="line"
         id="tspan52">that immediately</tspan></text>
    <path
       id="path54"
       d="M 580.01001,296.5 H 600 h -18 9.90002"
       style="fill:none;stroke:#000000;stroke-width:1;stroke-linecap:butt;stroke-linejoin:miter;stroke-miterlimit:10;stroke-dasharray:none;stroke-opacity:1"
       transform="matrix(0.95858783,0,0,0.95858783,0.47929392,0.47929392)"
       clip-path="url(#clipPath55)" />
    <path
       id="path56"
       d="m 598.65002,296.5 -9,4.5 2.25,-4.5 -2.25,-4.5 z"
       style="fill:#000000;fill-opacity:1;fill-rule:nonzero;stroke:#000000;stroke-width:1;stroke-linecap:butt;stroke-linejoin:miter;stroke-miterlimit:10;stroke-dasharray:none;stroke-opacity:1"
       transform="matrix(0.95858783,0,0,0.95858783,0.47929392,0.47929392)"
       clip-path="url(#clipPath57)" />
    <path
       id="path58"
       d="m 400,259 h 180 v 75 H 400 Z"
       style="fill:#ffffff;fill-opacity:1;fill-rule:nonzero;stroke:#000000;stroke-width:1;stroke-linecap:butt;stroke-linejoin:miter;stroke-miterlimit:10;stroke-dasharray:none;stroke-opacity:1"
       transform="matrix(0.95858783,0,0,0.95858783,0.47929392,0.47929392)"
       clip-path="url(#clipPath59)" />
    <text
       id="text59"
       xml:space="preserve"
       transform="matrix(0.95859746,0,0,0.95859746,384.44252,279.91046)"
       clip-path="url(#clipPath60)"><tspan
         style="font-variant:normal;font-weight:normal;font-size:16px;font-family:Helvetica;writing-mode:lr-tb;fill:#000000;fill-opacity:1;fill-rule:nonzero;stroke:none"
         x="0 4.4453125 8.890625 13.335938 22.234375 31.132812 35.578125 44.476562 48.921875 52.476562 60.476562 64.921875 73.820312 82.71875 87.164062 91.609375 95.164062 104.0625 108.50781 116.50781 125.40625 133.40625 142.30469 151.20312 155.64844 160.09375 168.99219"
         y="0"
         sodipodi:role="line"
         id="tspan59">If data is not in cache, go</tspan></text>
    <text
       id="text60"
       xml:space="preserve"
       transform="matrix(0.95859746,0,0,0.95859746,399.37567,299.08241)"
       clip-path="url(#clipPath61)"><tspan
         style="font-variant:normal;font-weight:normal;font-size:16px;font-family:Helvetica;writing-mode:lr-tb;fill:#000000;fill-opacity:1;fill-rule:nonzero;stroke:none"
         x="0 8.8984375 17.796875 22.242188 26.6875 30.242188 34.6875 39.132812 43.578125 48.90625 57.804688 71.132812 75.578125 88.90625 97.804688 106.70312 115.60156 124.5 136.05469"
         y="0"
         sodipodi:role="line"
         id="tspan60">get it from MongoDB</tspan></text>
    <path
       id="path62"
       d="m 350,369 h 25 v 27.5 h 14.89999"
       style="fill:none;stroke:#000000;stroke-width:1;stroke-linecap:butt;stroke-linejoin:miter;stroke-miterlimit:10;stroke-dasharray:none;stroke-opacity:1"
       transform="matrix(0.95858783,0,0,0.95858783,0.47929392,0.47929392)"
       clip-path="url(#clipPath63)" />
    <path
       id="path64"
       d="m 396.64999,396.5 -9,4.5 2.25,-4.5 -2.25,-4.5 z"
       style="fill:#000000;fill-opacity:1;fill-rule:nonzero;stroke:#000000;stroke-width:1;stroke-linecap:butt;stroke-linejoin:miter;stroke-miterlimit:10;stroke-dasharray:none;stroke-opacity:1"
       transform="matrix(0.95858783,0,0,0.95858783,0.47929392,0.47929392)"
       clip-path="url(#clipPath65)" />
    <path
       id="path66"
       d="m 350,349 h 25 v -52.5 h 14.89999"
       style="fill:none;stroke:#000000;stroke-width:1;stroke-linecap:butt;stroke-linejoin:miter;stroke-miterlimit:10;stroke-dasharray:none;stroke-opacity:1"
       transform="matrix(0.95858783,0,0,0.95858783,0.47929392,0.47929392)"
       clip-path="url(#clipPath67)" />
    <path
       id="path68"
       d="m 396.64999,296.5 -9,4.5 2.25,-4.5 -2.25,-4.5 z"
       style="fill:#000000;fill-opacity:1;fill-rule:nonzero;stroke:#000000;stroke-width:1;stroke-linecap:butt;stroke-linejoin:miter;stroke-miterlimit:10;stroke-dasharray:none;stroke-opacity:1"
       transform="matrix(0.95858783,0,0,0.95858783,0.47929392,0.47929392)"
       clip-path="url(#clipPath69)" />
    <path
       id="path70"
       d="m 70,339 h 280 v 40 H 70 Z"
       style="fill:#ffffff;fill-opacity:1;fill-rule:nonzero;stroke:#000000;stroke-width:1;stroke-linecap:butt;stroke-linejoin:miter;stroke-miterlimit:10;stroke-dasharray:none;stroke-opacity:1"
       transform="matrix(0.95858783,0,0,0.95858783,0.47929392,0.47929392)"
       clip-path="url(#clipPath71)" />
    <text
       id="text71"
       xml:space="preserve"
       transform="matrix(0.95859746,0,0,0.95859746,75.115098,339.3435)"
       clip-path="url(#clipPath72)"><tspan
         style="font-variant:normal;font-weight:normal;font-size:16px;font-family:Helvetica;writing-mode:lr-tb;fill:#000000;fill-opacity:1;fill-rule:nonzero;stroke:none"
         x="0 13.328125 22.226562 31.125 40.023438 48.921875 57.820312 65.820312 74.71875 79.164062 82.71875 91.617188 100.51562 108.51562 116.51562 120.96094 129.85938 134.30469 138.75 146.75 155.64844 163.64844 172.54688 181.44531 185.89062 194.78906 203.6875 212.58594 217.03125 225.03125 233.92969 242.82812 250.82812 255.27344 258.82812"
         y="0"
         sodipodi:role="line"
         id="tspan71">Mongoose looks at cache and sees if</tspan></text>
    <text
       id="text72"
       xml:space="preserve"
       transform="matrix(0.95859746,0,0,0.95859746,83.203264,358.51545)"
       clip-path="url(#clipPath73)"><tspan
         style="font-variant:normal;font-weight:normal;font-size:16px;font-family:Helvetica;writing-mode:lr-tb;fill:#000000;fill-opacity:1;fill-rule:nonzero;stroke:none"
         x="0 4.4453125 13.34375 22.242188 26.6875 31.132812 40.03125 48.929688 53.375 62.273438 66.71875 75.617188 84.515625 92.515625 96.960938 105.85938 109.41406 114.74219 123.64062 132.53906 141.4375 149.4375 153.88281 162.78125 171.67969 180.57812 189.47656 193.92188 198.36719 207.26562 211.71094 219.71094 228.60938 237.50781"
         y="0"
         sodipodi:role="line"
         id="tspan72">that data has already been fetched</tspan></text>
    <path
       id="path74"
       d="M 782.01001,296.5 H 802 h -22 9.90002"
       style="fill:none;stroke:#000000;stroke-width:1;stroke-linecap:butt;stroke-linejoin:miter;stroke-miterlimit:10;stroke-dasharray:none;stroke-opacity:1"
       transform="matrix(0.95858783,0,0,0.95858783,0.47929392,0.47929392)"
       clip-path="url(#clipPath75)" />
    <path
       id="path76"
       d="m 796.65002,296.5 -9,4.5 2.25,-4.5 -2.25,-4.5 z"
       style="fill:#000000;fill-opacity:1;fill-rule:nonzero;stroke:#000000;stroke-width:1;stroke-linecap:butt;stroke-linejoin:miter;stroke-miterlimit:10;stroke-dasharray:none;stroke-opacity:1"
       transform="matrix(0.95858783,0,0,0.95858783,0.47929392,0.47929392)"
       clip-path="url(#clipPath77)" />
    <path
       id="path78"
       d="m 602.01001,259 h 180 v 75 h -180 z"
       style="fill:#ffffff;fill-opacity:1;fill-rule:nonzero;stroke:#000000;stroke-width:1;stroke-linecap:butt;stroke-linejoin:miter;stroke-miterlimit:10;stroke-dasharray:none;stroke-opacity:1"
       transform="matrix(0.95858783,0,0,0.95858783,0.47929392,0.47929392)"
       clip-path="url(#clipPath79)" />
    <text
       id="text79"
       xml:space="preserve"
       transform="matrix(0.95859746,0,0,0.95859746,593.43174,279.91046)"
       clip-path="url(#clipPath80)"><tspan
         style="font-variant:normal;font-weight:normal;font-size:16px;font-family:Helvetica;writing-mode:lr-tb;fill:#000000;fill-opacity:1;fill-rule:nonzero;stroke:none"
         x="0 10.671875 18.671875 27.570312 32.898438 41.796875 49.796875 57.796875 62.242188 67.570312 76.46875 84.46875 93.367188 102.26562 111.16406 120.0625 128.0625 132.50781 136.95312"
         y="0"
         sodipodi:role="line"
         id="tspan79">Express responds to</tspan></text>
    <text
       id="text80"
       xml:space="preserve"
       transform="matrix(0.95859746,0,0,0.95859746,637.76688,299.08241)"
       clip-path="url(#clipPath81)"><tspan
         style="font-variant:normal;font-weight:normal;font-size:16px;font-family:Helvetica;writing-mode:lr-tb;fill:#000000;fill-opacity:1;fill-rule:nonzero;stroke:none"
         x="0 5.328125 14.226562 23.125 32.023438 40.921875 48.921875"
         y="0"
         sodipodi:role="line"
         id="tspan80">request</tspan></text>
    <path
       id="path82"
       d="m 602.01001,359 h 180 v 75 h -180 z"
       style="fill:#ffffff;fill-opacity:1;fill-rule:nonzero;stroke:#000000;stroke-width:1;stroke-linecap:butt;stroke-linejoin:miter;stroke-miterlimit:10;stroke-dasharray:none;stroke-opacity:1"
       transform="matrix(0.95858783,0,0,0.95858783,0.47929392,0.47929392)"
       clip-path="url(#clipPath83)" />
    <text
       id="text83"
       xml:space="preserve"
       transform="matrix(0.95859746,0,0,0.95859746,593.43174,375.77021)"
       clip-path="url(#clipPath84)"><tspan
         style="font-variant:normal;font-weight:normal;font-size:16px;font-family:Helvetica;writing-mode:lr-tb;fill:#000000;fill-opacity:1;fill-rule:nonzero;stroke:none"
         x="0 10.671875 18.671875 27.570312 32.898438 41.796875 49.796875 57.796875 62.242188 67.570312 76.46875 84.46875 93.367188 102.26562 111.16406 120.0625 128.0625 132.50781 136.95312"
         y="0"
         sodipodi:role="line"
         id="tspan83">Express responds to</tspan></text>
    <text
       id="text84"
       xml:space="preserve"
       transform="matrix(0.95859746,0,0,0.95859746,637.76688,394.94216)"
       clip-path="url(#clipPath85)"><tspan
         style="font-variant:normal;font-weight:normal;font-size:16px;font-family:Helvetica;writing-mode:lr-tb;fill:#000000;fill-opacity:1;fill-rule:nonzero;stroke:none"
         x="0 5.328125 14.226562 23.125 32.023438 40.921875 48.921875"
         y="0"
         sodipodi:role="line"
         id="tspan84">request</tspan></text>
    <path
       id="path86"
       d="m 800.01001,259 h 180 v 75 h -180 z"
       style="fill:#ffffff;fill-opacity:1;fill-rule:nonzero;stroke:#000000;stroke-width:1;stroke-linecap:butt;stroke-linejoin:miter;stroke-miterlimit:10;stroke-dasharray:none;stroke-opacity:1"
       transform="matrix(0.95858783,0,0,0.95858783,0.47929392,0.47929392)"
       clip-path="url(#clipPath87)" />
    <text
       id="text87"
       xml:space="preserve"
       transform="matrix(0.95859746,0,0,0.95859746,786.63407,271.28308)"
       clip-path="url(#clipPath88)"><tspan
         style="font-variant:normal;font-weight:normal;font-size:16px;font-family:Helvetica;writing-mode:lr-tb;fill:#000000;fill-opacity:1;fill-rule:nonzero;stroke:none"
         x="0 10.671875 19.570312 28.46875 32.914062 37.359375 46.257812 50.703125 58.703125 67.601562 76.5 85.398438 89.84375 98.742188 107.64062 112.08594 120.98438 125.42969 129.875"
         y="0"
         sodipodi:role="line"
         id="tspan87">Add fetched data to</tspan></text>
    <text
       id="text88"
       xml:space="preserve"
       transform="matrix(0.95859746,0,0,0.95859746,773.84279,289.49643)"
       clip-path="url(#clipPath89)"><tspan
         style="font-variant:normal;font-weight:normal;font-size:16px;font-family:Helvetica;writing-mode:lr-tb;fill:#000000;fill-opacity:1;fill-rule:nonzero;stroke:none"
         x="0 8 16.898438 24.898438 33.796875 42.695312 47.140625 51.585938 60.484375 64.929688 72.929688 81.828125 90.726562 99.625 108.52344 112.96875 121.86719 130.76562 135.21094 144.10938 153.00781 161.00781"
         y="0"
         sodipodi:role="line"
         id="tspan88">cache to speed up next</tspan></text>
    <text
       id="text89"
       xml:space="preserve"
       transform="matrix(0.95859746,0,0,0.95859746,833.96482,307.70979)"
       clip-path="url(#clipPath90)"><tspan
         style="font-variant:normal;font-weight:normal;font-size:16px;font-family:Helvetica;writing-mode:lr-tb;fill:#000000;fill-opacity:1;fill-rule:nonzero;stroke:none"
         x="0 8.8984375 17.796875 26.695312 32.023438"
         y="0"
         sodipodi:role="line"
         id="tspan89">query</tspan></text>
  </g>
</svg>
