<?xml version="1.0" encoding="UTF-8" standalone="no"?>
<!-- Created with Inkscape (http://www.inkscape.org/) -->

<svg
   version="1.1"
   id="svg1"
   width="645.44"
   height="177.27998"
   viewBox="0 0 645.44 177.27998"
   sodipodi:docname="node-9.pdf"
   xmlns:inkscape="http://www.inkscape.org/namespaces/inkscape"
   xmlns:sodipodi="http://sodipodi.sourceforge.net/DTD/sodipodi-0.dtd"
   xmlns="http://www.w3.org/2000/svg"
   xmlns:svg="http://www.w3.org/2000/svg">
  <defs
     id="defs1">
    <clipPath
       clipPathUnits="userSpaceOnUse"
       id="clipPath2">
      <path
         d="M 0,0 H 2016.6665 V 553.53607 H 0 Z"
         transform="scale(0.33421489)"
         clip-rule="evenodd"
         id="path2" />
    </clipPath>
    <clipPath
       clipPathUnits="userSpaceOnUse"
       id="clipPath4">
      <path
         d="M 0,0 H 2016.6665 V 550.54401 H 0 Z"
         transform="matrix(0.33421489,0,0,0.33421489,-0.49999999,-0.49999999)"
         clip-rule="evenodd"
         id="path4" />
    </clipPath>
    <clipPath
       clipPathUnits="userSpaceOnUse"
       id="clipPath6">
      <path
         d="M 0,0 H 2016.6665 V 550.54401 H 0 Z"
         transform="matrix(0.33421489,0,0,0.33421489,-0.49999999,-0.49999999)"
         clip-rule="evenodd"
         id="path6" />
    </clipPath>
    <clipPath
       clipPathUnits="userSpaceOnUse"
       id="clipPath8">
      <path
         d="M 0,0 H 2016.6665 V 550.54401 H 0 Z"
         transform="matrix(0.33421489,0,0,0.33421489,-0.49999999,-0.49999999)"
         clip-rule="evenodd"
         id="path8" />
    </clipPath>
    <clipPath
       clipPathUnits="userSpaceOnUse"
       id="clipPath10">
      <path
         d="M 0,0 H 2016.6665 V 550.54401 H 0 Z"
         transform="matrix(0.33421489,0,0,0.33421489,-0.49999999,-0.49999999)"
         clip-rule="evenodd"
         id="path10" />
    </clipPath>
    <clipPath
       clipPathUnits="userSpaceOnUse"
       id="clipPath11">
      <path
         d="M 0,0 H 2016.6665 V 550.54401 H 0 Z"
         transform="matrix(0.33421154,0,0,0.33421154,-315.09374,-86)"
         clip-rule="evenodd"
         id="path11" />
    </clipPath>
    <clipPath
       clipPathUnits="userSpaceOnUse"
       id="clipPath12">
      <path
         d="M 0,0 H 2016.6665 V 550.54401 H 0 Z"
         transform="matrix(0.33421154,0,0,0.33421154,-329.76563,-106)"
         clip-rule="evenodd"
         id="path12" />
    </clipPath>
    <clipPath
       clipPathUnits="userSpaceOnUse"
       id="clipPath14">
      <path
         d="M 0,0 H 2016.6665 V 550.54401 H 0 Z"
         transform="matrix(0.33421489,0,0,0.33421489,-0.49999999,-0.49999999)"
         clip-rule="evenodd"
         id="path14" />
    </clipPath>
    <clipPath
       clipPathUnits="userSpaceOnUse"
       id="clipPath16">
      <path
         d="M 0,0 H 2016.6665 V 550.54401 H 0 Z"
         transform="matrix(0.33421489,0,0,0.33421489,-0.49999999,-0.49999999)"
         clip-rule="evenodd"
         id="path16" />
    </clipPath>
    <clipPath
       clipPathUnits="userSpaceOnUse"
       id="clipPath18">
      <path
         d="M 0,0 H 2016.6665 V 550.54401 H 0 Z"
         transform="matrix(0.33421489,0,0,0.33421489,-0.49999999,-0.49999999)"
         clip-rule="evenodd"
         id="path18" />
    </clipPath>
    <clipPath
       clipPathUnits="userSpaceOnUse"
       id="clipPath19">
      <path
         d="M 0,0 H 2016.6665 V 550.54401 H 0 Z"
         transform="matrix(0.33421154,0,0,0.33421154,-408.64062,-95.999999)"
         clip-rule="evenodd"
         id="path19" />
    </clipPath>
    <clipPath
       clipPathUnits="userSpaceOnUse"
       id="clipPath20">
      <path
         d="M 0,0 H 2016.6665 V 550.54401 H 0 Z"
         transform="matrix(0.33421154,0,0,0.33421154,-328.34375,-21)"
         clip-rule="evenodd"
         id="path20" />
    </clipPath>
    <clipPath
       clipPathUnits="userSpaceOnUse"
       id="clipPath22">
      <path
         d="M 0,0 H 2016.6665 V 550.54401 H 0 Z"
         transform="matrix(0.33421489,0,0,0.33421489,-0.49999999,-0.49999999)"
         clip-rule="evenodd"
         id="path22" />
    </clipPath>
    <clipPath
       clipPathUnits="userSpaceOnUse"
       id="clipPath24">
      <path
         d="M 0,0 H 2016.6665 V 550.54401 H 0 Z"
         transform="matrix(0.33421489,0,0,0.33421489,-0.49999999,-0.49999999)"
         clip-rule="evenodd"
         id="path24" />
    </clipPath>
    <clipPath
       clipPathUnits="userSpaceOnUse"
       id="clipPath26">
      <path
         d="M 0,0 H 2016.6665 V 550.54401 H 0 Z"
         transform="matrix(0.33421489,0,0,0.33421489,-0.49999999,-0.49999999)"
         clip-rule="evenodd"
         id="path26" />
    </clipPath>
    <clipPath
       clipPathUnits="userSpaceOnUse"
       id="clipPath28">
      <path
         d="M 0,0 H 2016.6665 V 550.54401 H 0 Z"
         transform="matrix(0.33421489,0,0,0.33421489,-0.49999999,-0.49999999)"
         clip-rule="evenodd"
         id="path28" />
    </clipPath>
    <clipPath
       clipPathUnits="userSpaceOnUse"
       id="clipPath30">
      <path
         d="M 0,0 H 2016.6665 V 550.54401 H 0 Z"
         transform="matrix(0.33421489,0,0,0.33421489,-0.49999999,-0.49999999)"
         clip-rule="evenodd"
         id="path30" />
    </clipPath>
    <clipPath
       clipPathUnits="userSpaceOnUse"
       id="clipPath32">
      <path
         d="M 0,0 H 2016.6665 V 550.54401 H 0 Z"
         transform="matrix(0.33421489,0,0,0.33421489,-0.49999999,-0.49999999)"
         clip-rule="evenodd"
         id="path32" />
    </clipPath>
    <clipPath
       clipPathUnits="userSpaceOnUse"
       id="clipPath34">
      <path
         d="M 0,0 H 2016.6665 V 550.54401 H 0 Z"
         transform="matrix(0.33421489,0,0,0.33421489,-0.49999999,-0.49999999)"
         clip-rule="evenodd"
         id="path34" />
    </clipPath>
    <clipPath
       clipPathUnits="userSpaceOnUse"
       id="clipPath36">
      <path
         d="M 0,0 H 2016.6665 V 550.54401 H 0 Z"
         transform="matrix(0.33421489,0,0,0.33421489,-0.49999999,-0.49999999)"
         clip-rule="evenodd"
         id="path36" />
    </clipPath>
    <clipPath
       clipPathUnits="userSpaceOnUse"
       id="clipPath38">
      <path
         d="M 0,0 H 2016.6665 V 550.54401 H 0 Z"
         transform="matrix(0.33421489,0,0,0.33421489,-0.49999999,-0.49999999)"
         clip-rule="evenodd"
         id="path38" />
    </clipPath>
    <clipPath
       clipPathUnits="userSpaceOnUse"
       id="clipPath40">
      <path
         d="M 0,0 H 2016.6665 V 550.54401 H 0 Z"
         transform="matrix(0.33421489,0,0,0.33421489,-0.49999999,-0.49999999)"
         clip-rule="evenodd"
         id="path40" />
    </clipPath>
    <clipPath
       clipPathUnits="userSpaceOnUse"
       id="clipPath42">
      <path
         d="M 0,0 H 2016.6665 V 550.54401 H 0 Z"
         transform="matrix(0.33421489,0,0,0.33421489,-0.49999999,-0.49999999)"
         clip-rule="evenodd"
         id="path42" />
    </clipPath>
    <clipPath
       clipPathUnits="userSpaceOnUse"
       id="clipPath44">
      <path
         d="M 0,0 H 2016.6665 V 550.54401 H 0 Z"
         transform="matrix(0.33421489,0,0,0.33421489,-0.49999999,-0.49999999)"
         clip-rule="evenodd"
         id="path44" />
    </clipPath>
    <clipPath
       clipPathUnits="userSpaceOnUse"
       id="clipPath46">
      <path
         d="M 0,0 H 2016.6665 V 550.54401 H 0 Z"
         transform="matrix(0.33421489,0,0,0.33421489,-0.49999999,-0.49999999)"
         clip-rule="evenodd"
         id="path46" />
    </clipPath>
    <clipPath
       clipPathUnits="userSpaceOnUse"
       id="clipPath48">
      <path
         d="M 0,0 H 2016.6665 V 550.54401 H 0 Z"
         transform="matrix(0.33421489,0,0,0.33421489,-0.49999999,-0.49999999)"
         clip-rule="evenodd"
         id="path48" />
    </clipPath>
    <clipPath
       clipPathUnits="userSpaceOnUse"
       id="clipPath49">
      <path
         d="M 0,0 H 2016.6665 V 550.54401 H 0 Z"
         transform="matrix(0.33421154,0,0,0.33421154,-63,-32)"
         clip-rule="evenodd"
         id="path49" />
    </clipPath>
    <clipPath
       clipPathUnits="userSpaceOnUse"
       id="clipPath50">
      <path
         d="M 0,0 H 2016.6665 V 550.54401 H 0 Z"
         transform="matrix(0.33421154,0,0,0.33421154,-133,-79.999999)"
         clip-rule="evenodd"
         id="path50" />
    </clipPath>
    <clipPath
       clipPathUnits="userSpaceOnUse"
       id="clipPath52">
      <path
         d="M 0,0 H 2016.6665 V 550.54401 H 0 Z"
         transform="matrix(0.33421489,0,0,0.33421489,-0.49999999,-0.49999999)"
         clip-rule="evenodd"
         id="path52" />
    </clipPath>
    <clipPath
       clipPathUnits="userSpaceOnUse"
       id="clipPath54">
      <path
         d="M 0,0 H 2016.6665 V 550.54401 H 0 Z"
         transform="matrix(0.33421489,0,0,0.33421489,-0.49999999,-0.49999999)"
         clip-rule="evenodd"
         id="path54" />
    </clipPath>
    <clipPath
       clipPathUnits="userSpaceOnUse"
       id="clipPath56">
      <path
         d="M 0,0 H 2016.6665 V 550.54401 H 0 Z"
         transform="matrix(0.33421489,0,0,0.33421489,-0.49999999,-0.49999999)"
         clip-rule="evenodd"
         id="path56" />
    </clipPath>
    <clipPath
       clipPathUnits="userSpaceOnUse"
       id="clipPath58">
      <path
         d="M 0,0 H 2016.6665 V 550.54401 H 0 Z"
         transform="matrix(0.33421489,0,0,0.33421489,-0.49999999,-0.49999999)"
         clip-rule="evenodd"
         id="path58" />
    </clipPath>
    <clipPath
       clipPathUnits="userSpaceOnUse"
       id="clipPath60">
      <path
         d="M 0,0 H 2016.6665 V 550.54401 H 0 Z"
         transform="matrix(0.33421489,0,0,0.33421489,-0.49999999,-0.49999999)"
         clip-rule="evenodd"
         id="path60" />
    </clipPath>
    <clipPath
       clipPathUnits="userSpaceOnUse"
       id="clipPath61">
      <path
         d="M 0,0 H 2016.6665 V 550.54401 H 0 Z"
         transform="matrix(0.33421154,0,0,0.33421154,-576.42187,-98)"
         clip-rule="evenodd"
         id="path61" />
    </clipPath>
    <clipPath
       clipPathUnits="userSpaceOnUse"
       id="clipPath62">
      <path
         d="M 0,0 H 2016.6665 V 550.54401 H 0 Z"
         transform="matrix(0.33421154,0,0,0.33421154,-574.14063,-52)"
         clip-rule="evenodd"
         id="path62" />
    </clipPath>
  </defs>
  <sodipodi:namedview
     id="namedview1"
     pagecolor="#ffffff"
     bordercolor="#000000"
     borderopacity="0.25"
     inkscape:showpageshadow="2"
     inkscape:pageopacity="0.0"
     inkscape:pagecheckerboard="0"
     inkscape:deskcolor="#d1d1d1">
    <inkscape:page
       x="0"
       y="0"
       inkscape:label="1"
       id="page1"
       width="645.44"
       height="177.27998"
       margin="0"
       bleed="0" />
  </sodipodi:namedview>
  <g
     id="g1"
     inkscape:groupmode="layer"
     inkscape:label="1">
    <path
       id="path1"
       d="M 0,0 H 674 V 185 H 0 Z"
       style="fill:#ffffff;fill-opacity:1;fill-rule:nonzero;stroke:none"
       transform="scale(0.95746777)"
       clip-path="url(#clipPath2)" />
    <path
       id="path3"
       d="M 290,26 H 501 V 156 H 290 Z"
       style="fill:#ffffff;fill-opacity:1;fill-rule:nonzero;stroke:#000000;stroke-width:1;stroke-linecap:butt;stroke-linejoin:miter;stroke-miterlimit:10;stroke-dasharray:none;stroke-opacity:1"
       transform="matrix(0.95746777,0,0,0.95746777,0.47873388,0.47873388)"
       clip-path="url(#clipPath4)" />
    <path
       id="path5"
       d="M 307,91 H 280.12"
       style="fill:none;stroke:#000000;stroke-width:1;stroke-linecap:butt;stroke-linejoin:miter;stroke-miterlimit:10;stroke-dasharray:none;stroke-opacity:1"
       transform="matrix(0.95746777,0,0,0.95746777,0.47873388,0.47873388)"
       clip-path="url(#clipPath6)" />
    <path
       id="path7"
       d="m 273.37,91 9,-4.5 -2.25,4.5 2.25,4.5 z"
       style="fill:#000000;fill-opacity:1;fill-rule:nonzero;stroke:#000000;stroke-width:1;stroke-linecap:butt;stroke-linejoin:miter;stroke-miterlimit:10;stroke-dasharray:none;stroke-opacity:1"
       transform="matrix(0.95746777,0,0,0.95746777,0.47873388,0.47873388)"
       clip-path="url(#clipPath8)" />
    <path
       id="path9"
       d="m 307,61 h 74 v 60 h -74 z"
       style="fill:#ffffff;fill-opacity:1;fill-rule:nonzero;stroke:#000000;stroke-width:1;stroke-linecap:butt;stroke-linejoin:miter;stroke-miterlimit:10;stroke-dasharray:none;stroke-opacity:1"
       transform="matrix(0.95746777,0,0,0.95746777,0.47873388,0.47873388)"
       clip-path="url(#clipPath10)" />
    <text
       id="text10"
       xml:space="preserve"
       transform="matrix(0.95747737,0,0,0.95747737,301.69513,82.343054)"
       clip-path="url(#clipPath11)"><tspan
         style="font-variant:normal;font-weight:normal;font-size:16px;font-family:Helvetica;writing-mode:lr-tb;fill:#000000;fill-opacity:1;fill-rule:nonzero;stroke:none"
         x="0 10.671875 18.671875 27.570312 32.898438 41.796875 49.796875"
         y="0"
         sodipodi:role="line"
         id="tspan10">Express</tspan></text>
    <text
       id="text11"
       xml:space="preserve"
       transform="matrix(0.95747737,0,0,0.95747737,315.74313,101.4926)"
       clip-path="url(#clipPath12)"><tspan
         style="font-variant:normal;font-weight:normal;font-size:16px;font-family:Helvetica;writing-mode:lr-tb;fill:#000000;fill-opacity:1;fill-rule:nonzero;stroke:none"
         x="0 10.671875 19.570312"
         y="0"
         sodipodi:role="line"
         id="tspan11">App</tspan></text>
    <path
       id="path13"
       d="m 405,91 h -20 16 -9.89001"
       style="fill:none;stroke:#000000;stroke-width:1;stroke-linecap:butt;stroke-linejoin:miter;stroke-miterlimit:10;stroke-dasharray:none;stroke-opacity:1"
       transform="matrix(0.95746777,0,0,0.95746777,0.47873388,0.47873388)"
       clip-path="url(#clipPath14)" />
    <path
       id="path15"
       d="m 384.35999,91 9,-4.5 -2.25,4.5 2.25,4.5 z"
       style="fill:#000000;fill-opacity:1;fill-rule:nonzero;stroke:#000000;stroke-width:1;stroke-linecap:butt;stroke-linejoin:miter;stroke-miterlimit:10;stroke-dasharray:none;stroke-opacity:1"
       transform="matrix(0.95746777,0,0,0.95746777,0.47873388,0.47873388)"
       clip-path="url(#clipPath16)" />
    <path
       id="path17"
       d="m 405,61 h 82 v 60 h -82 z"
       style="fill:#ffffff;fill-opacity:1;fill-rule:nonzero;stroke:#000000;stroke-width:1;stroke-linecap:butt;stroke-linejoin:miter;stroke-miterlimit:10;stroke-dasharray:none;stroke-opacity:1"
       transform="matrix(0.95746777,0,0,0.95746777,0.47873388,0.47873388)"
       clip-path="url(#clipPath18)" />
    <text
       id="text18"
       xml:space="preserve"
       transform="matrix(0.95747737,0,0,0.95747737,391.26415,91.917827)"
       clip-path="url(#clipPath19)"><tspan
         style="font-variant:normal;font-weight:normal;font-size:16px;font-family:Helvetica;writing-mode:lr-tb;fill:#000000;fill-opacity:1;fill-rule:nonzero;stroke:none"
         x="0 13.328125 22.226562 31.125 40.023438 48.921875 57.820312 65.820312"
         y="0"
         sodipodi:role="line"
         id="tspan18">Mongoose</tspan></text>
    <text
       id="text19"
       xml:space="preserve"
       transform="matrix(0.95747737,0,0,0.95747737,314.38171,20.107025)"
       clip-path="url(#clipPath20)"><tspan
         style="font-variant:normal;font-weight:normal;font-size:16px;font-family:Helvetica;writing-mode:lr-tb;fill:#000000;fill-opacity:1;fill-rule:nonzero;stroke:none"
         x="0 12.445312 21.34375 26.671875 31.117188 40.015625 48.914062 56.914062 65.8125 69.367188 73.8125 87.140625 96.039062 104.03906 112.9375 116.49219 125.39062"
         y="0"
         sodipodi:role="line"
         id="tspan19">Our Local Machine</tspan></text>
    <path
       id="path21"
       d="M 1,1 H 265 V 181 H 1 Z"
       style="fill:#ffffff;fill-opacity:1;fill-rule:nonzero;stroke:#666666;stroke-width:1;stroke-linecap:butt;stroke-linejoin:miter;stroke-miterlimit:10;stroke-dasharray:none;stroke-opacity:1"
       transform="matrix(0.95746777,0,0,0.95746777,0.47873388,0.47873388)"
       clip-path="url(#clipPath22)" />
    <path
       id="path23"
       d="m 210.00009,16 c 0,0.656614 -0.0641,1.306923 -0.19215,1.950922 -0.1281,0.643999 -0.3178,1.269314 -0.56906,1.875948 -0.25129,0.606634 -0.55931,1.182928 -0.92411,1.728886 -0.36479,0.545957 -0.77934,1.051084 -1.24363,1.51538 -0.46431,0.464297 -0.96944,0.878844 -1.51541,1.243639 -0.54596,0.364796 -1.12226,0.672833 -1.72889,0.924109 -0.60663,0.251276 -1.23193,0.440964 -1.87593,0.569063 -0.64399,0.1281 -1.29431,0.19215 -1.95091,0.192152 -0.65663,-2e-6 -1.30695,-0.06405 -1.95094,-0.192152 -0.644,-0.128099 -1.26932,-0.317787 -1.87595,-0.569063 -0.60664,-0.251276 -1.18294,-0.559313 -1.7289,-0.924109 -0.54594,-0.364795 -1.05107,-0.779342 -1.51536,-1.243639 -0.4643,-0.464296 -0.87885,-0.969423 -1.24367,-1.515378 -0.36479,-0.545958 -0.67282,-1.122254 -0.9241,-1.728888 -0.25127,-0.606634 -0.44097,-1.231949 -0.56906,-1.875948 -0.12809,-0.643999 -0.19213,-1.294308 -0.19213,-1.950922 0,-0.656616 0.064,-1.306924 0.19213,-1.950923 0.12809,-0.644 0.31779,-1.269317 0.56906,-1.875951 0.25128,-0.606633 0.55931,-1.182928 0.9241,-1.728885 0.36482,-0.5459561 0.77937,-1.051083 1.24367,-1.5153803 0.46429,-0.4642973 0.96942,-0.8788443 1.51536,-1.2436409 0.54596,-0.3647962 1.12226,-0.6728325 1.7289,-0.9241085 0.60663,-0.2512756 1.23195,-0.4409633 1.87595,-0.5690623 0.64399,-0.1280994 1.29431,-0.1921491 1.95094,-0.1921491 0.6566,0 1.30692,0.06405 1.95091,0.1921491 0.644,0.128099 1.2693,0.3177867 1.87595,0.5690623 0.60663,0.251276 1.18292,0.5593123 1.72888,0.9241085 0.54596,0.3647966 1.05109,0.7793436 1.5154,1.2436409 0.46429,0.4642973 0.87884,0.9694242 1.24363,1.5153803 0.3648,0.545957 0.67282,1.122252 0.92411,1.728885 0.25126,0.606634 0.44096,1.231951 0.56906,1.875951 0.1281,0.643999 0.19215,1.294307 0.19215,1.950923 z"
       style="fill:none;stroke:#666666;stroke-width:1;stroke-linecap:butt;stroke-linejoin:miter;stroke-miterlimit:10;stroke-dasharray:none;stroke-opacity:1"
       transform="matrix(0.95746777,0,0,0.95746777,0.47873388,0.47873388)"
       clip-path="url(#clipPath24)" />
    <path
       id="path25"
       d="m 235.00009,16 c -1e-5,0.656614 -0.0641,1.306923 -0.19218,1.950922 -0.1281,0.643999 -0.3178,1.269314 -0.56906,1.875948 -0.25127,0.606634 -0.55932,1.182928 -0.92412,1.728886 -0.36478,0.545957 -0.77931,1.051084 -1.24361,1.51538 -0.46431,0.464297 -0.96944,0.878844 -1.51539,1.243639 -0.54596,0.364796 -1.12226,0.672833 -1.72889,0.924109 -0.60663,0.251276 -1.23195,0.440964 -1.87594,0.569063 -0.644,0.1281 -1.2943,0.19215 -1.9509,0.192152 -0.65662,-2e-6 -1.30693,-0.06405 -1.95093,-0.192152 -0.64401,-0.128099 -1.26933,-0.317787 -1.87597,-0.569063 -0.60663,-0.251276 -1.18293,-0.559313 -1.72889,-0.924109 -0.54596,-0.364795 -1.05108,-0.779342 -1.51536,-1.243639 -0.46431,-0.464296 -0.87886,-0.969423 -1.24365,-1.515378 -0.36481,-0.545958 -0.67286,-1.122254 -0.92412,-1.728888 -0.25127,-0.606634 -0.44095,-1.231949 -0.56905,-1.875948 -0.1281,-0.643999 -0.19215,-1.294308 -0.19214,-1.950922 -1e-5,-0.656616 0.064,-1.306924 0.19214,-1.950923 0.1281,-0.644 0.31778,-1.269317 0.56905,-1.875951 0.25126,-0.606633 0.55931,-1.182928 0.92412,-1.728885 0.36479,-0.5459561 0.77934,-1.051083 1.24365,-1.5153803 0.46428,-0.4642973 0.9694,-0.8788443 1.51536,-1.2436409 0.54596,-0.3647962 1.12226,-0.6728325 1.72889,-0.9241085 0.60664,-0.2512756 1.23196,-0.4409633 1.87597,-0.5690623 0.644,-0.1280994 1.29431,-0.1921491 1.95093,-0.1921491 0.6566,0 1.3069,0.06405 1.9509,0.1921491 0.64401,0.128099 1.26933,0.3177867 1.87596,0.5690623 0.60663,0.251276 1.18292,0.5593123 1.7289,0.9241085 0.54596,0.3647966 1.05108,0.7793436 1.51538,1.2436409 0.46428,0.4642973 0.87881,0.9694242 1.2436,1.5153803 0.36479,0.545957 0.67284,1.122252 0.92412,1.728885 0.25127,0.606634 0.44095,1.231951 0.56905,1.875951 0.12809,0.643999 0.19217,1.294307 0.19218,1.950923 z"
       style="fill:none;stroke:#666666;stroke-width:1;stroke-linecap:butt;stroke-linejoin:miter;stroke-miterlimit:10;stroke-dasharray:none;stroke-opacity:1"
       transform="matrix(0.95746777,0,0,0.95746777,0.47873388,0.47873388)"
       clip-path="url(#clipPath26)" />
    <path
       id="path27"
       d="m 260.00009,16 c -3e-5,0.656614 -0.0641,1.306923 -0.19217,1.950922 -0.12808,0.643999 -0.31778,1.269314 -0.56906,1.875948 -0.25128,0.606634 -0.55933,1.182928 -0.92413,1.728886 -0.36478,0.545957 -0.77933,1.051084 -1.24362,1.51538 -0.4643,0.464297 -0.96943,0.878844 -1.51538,1.243639 -0.54596,0.364796 -1.12226,0.672833 -1.72889,0.924109 -0.60664,0.251276 -1.23195,0.440964 -1.87593,0.569063 -0.64399,0.1281 -1.29431,0.19215 -1.95091,0.192152 -0.65663,-2e-6 -1.30695,-0.06405 -1.95096,-0.192152 -0.644,-0.128099 -1.26932,-0.317787 -1.87594,-0.569063 -0.60663,-0.251276 -1.18293,-0.559313 -1.72887,-0.924109 -0.54596,-0.364795 -1.05109,-0.779342 -1.51538,-1.243639 -0.46431,-0.464296 -0.87886,-0.969423 -1.24365,-1.515378 -0.36481,-0.545958 -0.67286,-1.122254 -0.92412,-1.728888 -0.25128,-0.606634 -0.44097,-1.231949 -0.56906,-1.875948 -0.1281,-0.643999 -0.19214,-1.294308 -0.19213,-1.950922 -1e-5,-0.656616 0.064,-1.306924 0.19214,-1.950923 0.12808,-0.644 0.31777,-1.269317 0.56905,-1.875951 0.25126,-0.606633 0.55931,-1.182928 0.9241,-1.728885 0.36481,-0.5459561 0.77936,-1.051083 1.24367,-1.5153803 0.46429,-0.4642973 0.96942,-0.8788443 1.51538,-1.2436409 0.54594,-0.3647962 1.12224,-0.6728325 1.72888,-0.9241085 0.60663,-0.2512756 1.23195,-0.4409633 1.87595,-0.5690623 0.64399,-0.1280994 1.29431,-0.1921491 1.95094,-0.1921491 0.6566,0 1.3069,0.06405 1.9509,0.1921491 0.64399,0.128099 1.26931,0.3177867 1.87596,0.5690623 0.60663,0.251276 1.18292,0.5593123 1.72888,0.9241085 0.54594,0.3647966 1.05107,0.7793436 1.5154,1.2436409 0.46429,0.4642973 0.87884,0.9694242 1.24362,1.5153803 0.36477,0.545957 0.67282,1.122252 0.9241,1.728885 0.25128,0.606634 0.44098,1.231951 0.56906,1.875951 0.12808,0.643999 0.19214,1.294307 0.19217,1.950923 z"
       style="fill:none;stroke:#008cff;stroke-width:1;stroke-linecap:butt;stroke-linejoin:miter;stroke-miterlimit:10;stroke-dasharray:none;stroke-opacity:1"
       transform="matrix(0.95746777,0,0,0.95746777,0.47873388,0.47873388)"
       clip-path="url(#clipPath28)" />
    <path
       id="path29"
       d="M 1,41 H 31 V 16 c 0,-2.76 2.240002,-5 5,-5 h 135 c 2.75999,0 5,2.24 5,5 v 25 h 89"
       style="fill:none;stroke:#c4c4c4;stroke-width:1;stroke-linecap:butt;stroke-linejoin:miter;stroke-miterlimit:10;stroke-dasharray:none;stroke-opacity:1"
       transform="matrix(0.95746777,0,0,0.95746777,0.47873388,0.47873388)"
       clip-path="url(#clipPath30)" />
    <path
       id="path31"
       d="M 1,111 H 265"
       style="fill:none;stroke:#c4c4c4;stroke-width:1;stroke-linecap:butt;stroke-linejoin:miter;stroke-miterlimit:10;stroke-dasharray:none;stroke-opacity:1"
       transform="matrix(0.95746777,0,0,0.95746777,0.47873388,0.47873388)"
       clip-path="url(#clipPath32)" />
    <path
       id="path33"
       d="m 101,61 c 0,-2.759998 2.24,-5 5,-5 h 144 c 2.75999,0 5,2.240002 5,5 v 25 c 0,2.760002 -2.24001,5 -5,5 H 106 c -2.76,0 -5,-2.239998 -5,-5 z"
       style="fill:none;stroke:#c4c4c4;stroke-width:1;stroke-linecap:butt;stroke-linejoin:miter;stroke-miterlimit:10;stroke-dasharray:none;stroke-opacity:1"
       transform="matrix(0.95746777,0,0,0.95746777,0.47873388,0.47873388)"
       clip-path="url(#clipPath34)" />
    <path
       id="path35"
       d="m 38,18 h 11 l 4,4 V 36 H 38 Z"
       style="fill:none;stroke:#c4c4c4;stroke-width:1;stroke-linecap:butt;stroke-linejoin:miter;stroke-miterlimit:10;stroke-dasharray:none;stroke-opacity:1"
       transform="matrix(0.95746777,0,0,0.95746777,0.47873388,0.47873388)"
       clip-path="url(#clipPath36)" />
    <path
       id="path37"
       d="m 49,18 v 4 l 4,1"
       style="fill:none;stroke:#c4c4c4;stroke-width:1;stroke-linecap:butt;stroke-linejoin:miter;stroke-miterlimit:10;stroke-dasharray:none;stroke-opacity:1"
       transform="matrix(0.95746777,0,0,0.95746777,0.47873388,0.47873388)"
       clip-path="url(#clipPath38)" />
    <path
       id="path39"
       d="m 108,65 h 11 l 4,4 v 14 h -15 z"
       style="fill:none;stroke:#c4c4c4;stroke-width:1;stroke-linecap:butt;stroke-linejoin:miter;stroke-miterlimit:10;stroke-dasharray:none;stroke-opacity:1"
       transform="matrix(0.95746777,0,0,0.95746777,0.47873388,0.47873388)"
       clip-path="url(#clipPath40)" />
    <path
       id="path41"
       d="m 119,65 v 4 l 4,1"
       style="fill:none;stroke:#c4c4c4;stroke-width:1;stroke-linecap:butt;stroke-linejoin:miter;stroke-miterlimit:10;stroke-dasharray:none;stroke-opacity:1"
       transform="matrix(0.95746777,0,0,0.95746777,0.47873388,0.47873388)"
       clip-path="url(#clipPath42)" />
    <path
       id="path43"
       d="M 13,75 23,65 v 6 h 10 v 8 H 23 v 6 z"
       style="fill:#c4c4c4;fill-opacity:1;fill-rule:nonzero;stroke:#c4c4c4;stroke-width:1;stroke-linecap:butt;stroke-linejoin:miter;stroke-miterlimit:10;stroke-dasharray:none;stroke-opacity:1"
       transform="matrix(0.95746777,0,0,0.95746777,0.47873388,0.47873388)"
       clip-path="url(#clipPath44)" />
    <path
       id="path45"
       d="M 63,75 53,65 v 6 H 43 v 8 h 10 v 6 z"
       style="fill:#c4c4c4;fill-opacity:1;fill-rule:nonzero;stroke:#c4c4c4;stroke-width:1;stroke-linecap:butt;stroke-linejoin:miter;stroke-miterlimit:10;stroke-dasharray:none;stroke-opacity:1"
       transform="matrix(0.95746777,0,0,0.95746777,0.47873388,0.47873388)"
       clip-path="url(#clipPath46)" />
    <path
       id="path47"
       d="m 88.599998,78.300003 c -1.699996,2.839996 -5.379997,3.759995 -8.220001,2.059998 C 77.540001,78.669998 76.610001,75 78.300003,72.150002 79.980003,69.309998 83.650002,68.360001 86.5,70.040001 L 84.900002,71.5 92.800003,73.300003 91,65.800003 89.300003,67.400002 c -3.190002,-2.370003 -7.5,-2.580002 -10.900001,-0.529999 -3.410004,2.049995 -5.239998,5.959999 -4.630005,9.889999 0.61,3.93 3.530006,7.099999 7.390007,8.029999 C 85.029999,85.720001 89.07,84.230003 91.400002,81 Z"
       style="fill:#c4c4c4;fill-opacity:1;fill-rule:nonzero;stroke:#c4c4c4;stroke-width:1;stroke-linecap:butt;stroke-linejoin:miter;stroke-miterlimit:10;stroke-dasharray:none;stroke-opacity:1"
       transform="matrix(0.95746777,0,0,0.95746777,0.47873388,0.47873388)"
       clip-path="url(#clipPath48)" />
    <text
       id="text48"
       xml:space="preserve"
       transform="matrix(0.95747737,0,0,0.95747737,60.321074,30.639276)"
       clip-path="url(#clipPath49)"><tspan
         style="font-variant:normal;font-weight:normal;font-size:17px;font-family:Helvetica;writing-mode:lr-tb;fill:#666666;fill-opacity:1;fill-rule:nonzero;stroke:none"
         x="0 11.338867 20.793457 30.248047 39.702637 44.425781"
         y="0"
         sodipodi:role="line"
         id="tspan48">Page 1</tspan></text>
    <text
       id="text49"
       xml:space="preserve"
       transform="matrix(0.95747737,0,0,0.95747737,127.34449,76.598189)"
       clip-path="url(#clipPath50)"><tspan
         style="font-variant:normal;font-weight:normal;font-size:17px;font-family:Helvetica;writing-mode:lr-tb;fill:#666666;fill-opacity:1;fill-rule:nonzero;stroke:none"
         x="0 3.7768555 13.231445 21.731445 31.186035 34.962891 44.41748 53.87207 62.37207 67.095215 71.818359 81.272949 90.727539 100.18213"
         y="0"
         sodipodi:role="line"
         id="tspan49">localhost:3000</tspan></text>
    <path
       id="path51"
       d="m 487.34,79 h 73.56002"
       style="fill:none;stroke:#000000;stroke-width:1;stroke-linecap:butt;stroke-linejoin:miter;stroke-miterlimit:10;stroke-dasharray:none;stroke-opacity:1"
       transform="matrix(0.95746777,0,0,0.95746777,0.47873388,0.47873388)"
       clip-path="url(#clipPath52)" />
    <path
       id="path53"
       d="m 567.65002,79 -9,4.5 2.25,-4.5 -2.25,-4.5 z"
       style="fill:#000000;fill-opacity:1;fill-rule:nonzero;stroke:#000000;stroke-width:1;stroke-linecap:butt;stroke-linejoin:miter;stroke-miterlimit:10;stroke-dasharray:none;stroke-opacity:1"
       transform="matrix(0.95746777,0,0,0.95746777,0.47873388,0.47873388)"
       clip-path="url(#clipPath54)" />
    <path
       id="path55"
       d="M 571.01001,108 H 529.5 497.10999"
       style="fill:none;stroke:#000000;stroke-width:1;stroke-linecap:butt;stroke-linejoin:miter;stroke-miterlimit:10;stroke-dasharray:none;stroke-opacity:1"
       transform="matrix(0.95746777,0,0,0.95746777,0.47873388,0.47873388)"
       clip-path="url(#clipPath56)" />
    <path
       id="path57"
       d="m 490.35999,108 9,-4.5 -2.25,4.5 2.25,4.5 z"
       style="fill:#000000;fill-opacity:1;fill-rule:nonzero;stroke:#000000;stroke-width:1;stroke-linecap:butt;stroke-linejoin:miter;stroke-miterlimit:10;stroke-dasharray:none;stroke-opacity:1"
       transform="matrix(0.95746777,0,0,0.95746777,0.47873388,0.47873388)"
       clip-path="url(#clipPath58)" />
    <path
       id="path59"
       d="m 571.01001,63 h 82 v 60 h -82 z"
       style="fill:#ffffff;fill-opacity:1;fill-rule:nonzero;stroke:#000000;stroke-width:1;stroke-linecap:butt;stroke-linejoin:miter;stroke-miterlimit:10;stroke-dasharray:none;stroke-opacity:1"
       transform="matrix(0.95746777,0,0,0.95746777,0.47873388,0.47873388)"
       clip-path="url(#clipPath60)" />
    <text
       id="text60"
       xml:space="preserve"
       transform="matrix(0.95747737,0,0,0.95747737,551.9109,93.832782)"
       clip-path="url(#clipPath61)"><tspan
         style="font-variant:normal;font-weight:normal;font-size:16px;font-family:Helvetica;writing-mode:lr-tb;fill:#000000;fill-opacity:1;fill-rule:nonzero;stroke:none"
         x="0 13.328125 22.226562 31.125 40.023438 48.921875 60.476562"
         y="0"
         sodipodi:role="line"
         id="tspan60">MongoDB</tspan></text>
    <text
       id="text61"
       xml:space="preserve"
       transform="matrix(0.95747737,0,0,0.95747737,549.72666,49.788823)"
       clip-path="url(#clipPath62)"><tspan
         style="font-style:oblique;font-variant:normal;font-weight:normal;font-size:12px;font-family:Helvetica;writing-mode:lr-tb;fill:#000000;fill-opacity:1;fill-rule:nonzero;stroke:none"
         x="0 8.0039062 14.003906 20.677734 26.677734 33.351562 36.685547 43.359375 46.693359 53.367188 60.041016 66.714844 70.710938"
         y="0"
         sodipodi:role="line"
         id="tspan61">Execute query</tspan></text>
  </g>
</svg>
