<?xml version="1.0" encoding="UTF-8" standalone="no"?>
<!-- Created with Inkscape (http://www.inkscape.org/) -->

<svg
   version="1.1"
   id="svg1"
   width="808"
   height="378.55997"
   viewBox="0 0 808 378.55997"
   sodipodi:docname="node-2.pdf"
   xmlns:inkscape="http://www.inkscape.org/namespaces/inkscape"
   xmlns:sodipodi="http://sodipodi.sourceforge.net/DTD/sodipodi-0.dtd"
   xmlns="http://www.w3.org/2000/svg"
   xmlns:svg="http://www.w3.org/2000/svg">
  <defs
     id="defs1">
    <clipPath
       clipPathUnits="userSpaceOnUse"
       id="clipPath2">
      <path
         d="M 0,0 H 2524.9998 V 1181.532 H 0 Z"
         transform="scale(0.33346536)"
         clip-rule="evenodd"
         id="path2" />
    </clipPath>
    <clipPath
       clipPathUnits="userSpaceOnUse"
       id="clipPath4">
      <path
         d="M 0,0 H 2524.9998 V 1181.532 H 0 Z"
         transform="matrix(0.33346536,0,0,0.33346536,-0.5,-0.5)"
         clip-rule="evenodd"
         id="path4" />
    </clipPath>
    <clipPath
       clipPathUnits="userSpaceOnUse"
       id="clipPath6">
      <path
         d="M 0,0 H 2524.9998 V 1181.532 H 0 Z"
         transform="matrix(0.33346536,0,0,0.33346536,-0.5,-0.5)"
         clip-rule="evenodd"
         id="path6" />
    </clipPath>
    <clipPath
       clipPathUnits="userSpaceOnUse"
       id="clipPath8">
      <path
         d="M 0,0 H 2524.9998 V 1181.532 H 0 Z"
         transform="matrix(0.33346536,0,0,0.33346536,-0.5,-0.5)"
         clip-rule="evenodd"
         id="path8" />
    </clipPath>
    <clipPath
       clipPathUnits="userSpaceOnUse"
       id="clipPath9">
      <path
         d="M 0,0 H 2524.9998 V 1181.532 H 0 Z"
         transform="matrix(0.33346203,0,0,0.33346203,-185.92188,-21)"
         clip-rule="evenodd"
         id="path9" />
    </clipPath>
    <clipPath
       clipPathUnits="userSpaceOnUse"
       id="clipPath10">
      <path
         d="M 0,0 H 2524.9998 V 1181.532 H 0 Z"
         transform="matrix(0.33346203,0,0,0.33346203,-192.92188,-43)"
         clip-rule="evenodd"
         id="path10" />
    </clipPath>
    <clipPath
       clipPathUnits="userSpaceOnUse"
       id="clipPath11">
      <path
         d="M 0,0 H 2524.9998 V 1181.532 H 0 Z"
         transform="matrix(0.33346203,0,0,0.33346203,-275.46875,-64.000001)"
         clip-rule="evenodd"
         id="path11" />
    </clipPath>
    <clipPath
       clipPathUnits="userSpaceOnUse"
       id="clipPath13">
      <path
         d="M 0,0 H 2524.9998 V 1181.532 H 0 Z"
         transform="matrix(0.33346536,0,0,0.33346536,-0.5,-0.5)"
         clip-rule="evenodd"
         id="path13" />
    </clipPath>
    <clipPath
       clipPathUnits="userSpaceOnUse"
       id="clipPath14">
      <path
         d="M 0,0 H 2524.9998 V 1181.532 H 0 Z"
         transform="matrix(0.33346203,0,0,0.33346203,-185.40625,-363.00001)"
         clip-rule="evenodd"
         id="path14" />
    </clipPath>
    <clipPath
       clipPathUnits="userSpaceOnUse"
       id="clipPath16">
      <path
         d="M 0,0 H 2524.9998 V 1181.532 H 0 Z"
         transform="matrix(0.33346536,0,0,0.33346536,-0.5,-0.5)"
         clip-rule="evenodd"
         id="path16" />
    </clipPath>
    <clipPath
       clipPathUnits="userSpaceOnUse"
       id="clipPath17">
      <path
         d="M 0,0 H 2524.9998 V 1181.532 H 0 Z"
         transform="matrix(0.33346203,0,0,0.33346203,-383.07813,-178)"
         clip-rule="evenodd"
         id="path17" />
    </clipPath>
    <clipPath
       clipPathUnits="userSpaceOnUse"
       id="clipPath19">
      <path
         d="M 0,0 H 2524.9998 V 1181.532 H 0 Z"
         transform="matrix(0.33346536,0,0,0.33346536,-0.5,-0.5)"
         clip-rule="evenodd"
         id="path19" />
    </clipPath>
    <clipPath
       clipPathUnits="userSpaceOnUse"
       id="clipPath20">
      <path
         d="M 0,0 H 2524.9998 V 1181.532 H 0 Z"
         transform="matrix(0.33346203,0,0,0.33346203,-339.73438,-178)"
         clip-rule="evenodd"
         id="path20" />
    </clipPath>
    <clipPath
       clipPathUnits="userSpaceOnUse"
       id="clipPath22">
      <path
         d="M 0,0 H 2524.9998 V 1181.532 H 0 Z"
         transform="matrix(0.33346536,0,0,0.33346536,-0.5,-0.5)"
         clip-rule="evenodd"
         id="path22" />
    </clipPath>
    <clipPath
       clipPathUnits="userSpaceOnUse"
       id="clipPath23">
      <path
         d="M 0,0 H 2524.9998 V 1181.532 H 0 Z"
         transform="matrix(0.33346203,0,0,0.33346203,-403.40625,-218)"
         clip-rule="evenodd"
         id="path23" />
    </clipPath>
    <clipPath
       clipPathUnits="userSpaceOnUse"
       id="clipPath25">
      <path
         d="M 0,0 H 2524.9998 V 1181.532 H 0 Z"
         transform="matrix(0.33346536,0,0,0.33346536,-0.5,-0.5)"
         clip-rule="evenodd"
         id="path25" />
    </clipPath>
    <clipPath
       clipPathUnits="userSpaceOnUse"
       id="clipPath26">
      <path
         d="M 0,0 H 2524.9998 V 1181.532 H 0 Z"
         transform="matrix(0.33346203,0,0,0.33346203,-339.73438,-218)"
         clip-rule="evenodd"
         id="path26" />
    </clipPath>
    <clipPath
       clipPathUnits="userSpaceOnUse"
       id="clipPath28">
      <path
         d="M 0,0 H 2524.9998 V 1181.532 H 0 Z"
         transform="matrix(0.33346536,0,0,0.33346536,-0.5,-0.5)"
         clip-rule="evenodd"
         id="path28" />
    </clipPath>
    <clipPath
       clipPathUnits="userSpaceOnUse"
       id="clipPath29">
      <path
         d="M 0,0 H 2524.9998 V 1181.532 H 0 Z"
         transform="matrix(0.33346203,0,0,0.33346203,-409.9375,-258)"
         clip-rule="evenodd"
         id="path29" />
    </clipPath>
    <clipPath
       clipPathUnits="userSpaceOnUse"
       id="clipPath31">
      <path
         d="M 0,0 H 2524.9998 V 1181.532 H 0 Z"
         transform="matrix(0.33346536,0,0,0.33346536,-0.5,-0.5)"
         clip-rule="evenodd"
         id="path31" />
    </clipPath>
    <clipPath
       clipPathUnits="userSpaceOnUse"
       id="clipPath32">
      <path
         d="M 0,0 H 2524.9998 V 1181.532 H 0 Z"
         transform="matrix(0.33346203,0,0,0.33346203,-339.73438,-258)"
         clip-rule="evenodd"
         id="path32" />
    </clipPath>
    <clipPath
       clipPathUnits="userSpaceOnUse"
       id="clipPath34">
      <path
         d="M 0,0 H 2524.9998 V 1181.532 H 0 Z"
         transform="matrix(0.33346536,0,0,0.33346536,-0.5,-0.5)"
         clip-rule="evenodd"
         id="path34" />
    </clipPath>
    <clipPath
       clipPathUnits="userSpaceOnUse"
       id="clipPath35">
      <path
         d="M 0,0 H 2524.9998 V 1181.532 H 0 Z"
         transform="matrix(0.33346203,0,0,0.33346203,-428.45313,-138)"
         clip-rule="evenodd"
         id="path35" />
    </clipPath>
    <clipPath
       clipPathUnits="userSpaceOnUse"
       id="clipPath37">
      <path
         d="M 0,0 H 2524.9998 V 1181.532 H 0 Z"
         transform="matrix(0.33346536,0,0,0.33346536,-0.5,-0.5)"
         clip-rule="evenodd"
         id="path37" />
    </clipPath>
    <clipPath
       clipPathUnits="userSpaceOnUse"
       id="clipPath38">
      <path
         d="M 0,0 H 2524.9998 V 1181.532 H 0 Z"
         transform="matrix(0.33346203,0,0,0.33346203,-339.73438,-138)"
         clip-rule="evenodd"
         id="path38" />
    </clipPath>
    <clipPath
       clipPathUnits="userSpaceOnUse"
       id="clipPath40">
      <path
         d="M 0,0 H 2524.9998 V 1181.532 H 0 Z"
         transform="matrix(0.33346536,0,0,0.33346536,-0.5,-0.5)"
         clip-rule="evenodd"
         id="path40" />
    </clipPath>
    <clipPath
       clipPathUnits="userSpaceOnUse"
       id="clipPath41">
      <path
         d="M 0,0 H 2524.9998 V 1181.532 H 0 Z"
         transform="matrix(0.33346203,0,0,0.33346203,-18.40625,-33)"
         clip-rule="evenodd"
         id="path41" />
    </clipPath>
    <clipPath
       clipPathUnits="userSpaceOnUse"
       id="clipPath42">
      <path
         d="M 0,0 H 2524.9998 V 1181.532 H 0 Z"
         transform="matrix(0.33346203,0,0,0.33346203,-26.296875,-50)"
         clip-rule="evenodd"
         id="path42" />
    </clipPath>
    <clipPath
       clipPathUnits="userSpaceOnUse"
       id="clipPath44">
      <path
         d="M 0,0 H 2524.9998 V 1181.532 H 0 Z"
         transform="matrix(-0.33346536,0,0,-0.33346536,1410.5201,385.5)"
         clip-rule="evenodd"
         id="path44" />
    </clipPath>
    <clipPath
       clipPathUnits="userSpaceOnUse"
       id="clipPath45">
      <path
         d="M 0,0 H 2524.9998 V 1181.532 H 0 Z"
         transform="matrix(0.33346203,0,0,0.33346203,-732.00001,-190)"
         clip-rule="evenodd"
         id="path45" />
    </clipPath>
    <clipPath
       clipPathUnits="userSpaceOnUse"
       id="clipPath46">
      <path
         d="M 0,0 H 2524.9998 V 1181.532 H 0 Z"
         transform="matrix(0.33346203,0,0,0.33346203,-732.00001,-207)"
         clip-rule="evenodd"
         id="path46" />
    </clipPath>
    <clipPath
       clipPathUnits="userSpaceOnUse"
       id="clipPath48">
      <path
         d="M 0,0 H 2524.9998 V 1181.532 H 0 Z"
         transform="matrix(0.33346536,0,0,0.33346536,-0.5,-0.5)"
         clip-rule="evenodd"
         id="path48" />
    </clipPath>
    <clipPath
       clipPathUnits="userSpaceOnUse"
       id="clipPath49">
      <path
         d="M 0,0 H 2524.9998 V 1181.532 H 0 Z"
         transform="matrix(0.33346203,0,0,0.33346203,-36.375,-353)"
         clip-rule="evenodd"
         id="path49" />
    </clipPath>
    <clipPath
       clipPathUnits="userSpaceOnUse"
       id="clipPath50">
      <path
         d="M 0,0 H 2524.9998 V 1181.532 H 0 Z"
         transform="matrix(0.33346203,0,0,0.33346203,-57.421875,-370)"
         clip-rule="evenodd"
         id="path50" />
    </clipPath>
  </defs>
  <sodipodi:namedview
     id="namedview1"
     pagecolor="#ffffff"
     bordercolor="#000000"
     borderopacity="0.25"
     inkscape:showpageshadow="2"
     inkscape:pageopacity="0.0"
     inkscape:pagecheckerboard="0"
     inkscape:deskcolor="#d1d1d1">
    <inkscape:page
       x="0"
       y="0"
       inkscape:label="1"
       id="page1"
       width="808"
       height="378.55997"
       margin="0"
       bleed="0" />
  </sodipodi:namedview>
  <g
     id="g1"
     inkscape:groupmode="layer"
     inkscape:label="1">
    <path
       id="path1"
       d="M 0,0 H 842 V 394 H 0 Z"
       style="fill:#ffffff;fill-opacity:1;fill-rule:nonzero;stroke:none"
       transform="scale(0.95961986)"
       clip-path="url(#clipPath2)" />
    <path
       id="path3"
       d="M 300,71 V 310.89999"
       style="fill:none;stroke:#000000;stroke-width:1;stroke-linecap:butt;stroke-linejoin:miter;stroke-miterlimit:10;stroke-dasharray:none;stroke-opacity:1"
       transform="matrix(0.95961986,0,0,0.95961986,0.47980993,0.47980993)"
       clip-path="url(#clipPath4)" />
    <path
       id="path5"
       d="m 300,317.64999 -4.5,-9 4.5,2.25 4.5,-2.25 z"
       style="fill:#000000;fill-opacity:1;fill-rule:nonzero;stroke:#000000;stroke-width:1;stroke-linecap:butt;stroke-linejoin:miter;stroke-miterlimit:10;stroke-dasharray:none;stroke-opacity:1"
       transform="matrix(0.95961986,0,0,0.95961986,0.47980993,0.47980993)"
       clip-path="url(#clipPath6)" />
    <path
       id="path7"
       d="M 170,1 H 430 V 71 H 170 Z"
       style="fill:#fff2cc;fill-opacity:1;fill-rule:nonzero;stroke:#d6b656;stroke-width:1;stroke-linecap:butt;stroke-linejoin:miter;stroke-miterlimit:10;stroke-dasharray:none;stroke-opacity:1"
       transform="matrix(0.95961986,0,0,0.95961986,0.47980993,0.47980993)"
       clip-path="url(#clipPath8)" />
    <text
       id="text8"
       xml:space="preserve"
       transform="matrix(0.95962946,0,0,0.95962946,178.41611,20.152219)"
       clip-path="url(#clipPath9)"><tspan
         style="font-variant:normal;font-weight:normal;font-size:18px;font-family:Helvetica;writing-mode:lr-tb;fill:#000000;fill-opacity:1;fill-rule:nonzero;stroke:none"
         x="0 12.005859 21.005859 25.004883 34.004883 39.005859 43.004883 53.015625 63.026367 68.027344 73.02832 85.03418 89.033203 99.043945 103.04297 113.05371 118.05469 131.05371 141.06445 151.0752 161.08594 170.08594 182.0918 186.1084 198.11426 208.125 218.13574 223.13672"
         y="0"
         sodipodi:role="line"
         id="tspan8">Existing, Plain NodeJS App. </tspan></text>
    <text
       id="text9"
       xml:space="preserve"
       transform="matrix(0.95962946,0,0,0.95962946,185.13352,41.264067)"
       clip-path="url(#clipPath10)"><tspan
         style="font-variant:normal;font-weight:normal;font-size:18px;font-family:Helvetica;writing-mode:lr-tb;fill:#000000;fill-opacity:1;fill-rule:nonzero;stroke:none"
         x="0 12.999023 23.009766 32.009766 37.010742 47.021484 57.032227 66.032227 70.03125 79.03125 84.032227 90.026367 100.03711 110.04785 115.04883 119.04785 129.05859 139.06934 144.07031 154.08105 164.0918 174.10254 179.10352 189.11426 199.125 204.12598"
         y="0"
         sodipodi:role="line"
         id="tspan9">Has basic routing and auth</tspan></text>
    <text
       id="text10"
       xml:space="preserve"
       transform="matrix(0.95962946,0,0,0.95962946,264.34793,61.416286)"
       clip-path="url(#clipPath11)"><tspan
         style="font-variant:normal;font-weight:normal;font-size:18px;font-family:Helvetica;writing-mode:lr-tb;fill:#000000;fill-opacity:1;fill-rule:nonzero;stroke:none"
         x="0 9 19.010742 24.011719 34.022461 44.033203"
         y="0"
         sodipodi:role="line"
         id="tspan10">setup.</tspan></text>
    <path
       id="path12"
       d="m 170,321 h 260 v 70 H 170 Z"
       style="fill:#dae8fc;fill-opacity:1;fill-rule:nonzero;stroke:#6c8ebf;stroke-width:1;stroke-linecap:butt;stroke-linejoin:miter;stroke-miterlimit:10;stroke-dasharray:none;stroke-opacity:1"
       transform="matrix(0.95961986,0,0,0.95961986,0.47980993,0.47980993)"
       clip-path="url(#clipPath13)" />
    <text
       id="text13"
       xml:space="preserve"
       transform="matrix(0.95962946,0,0,0.95962946,177.9213,348.3455)"
       clip-path="url(#clipPath14)"><tspan
         style="font-variant:normal;font-weight:normal;font-size:18px;font-family:Helvetica;writing-mode:lr-tb;fill:#000000;fill-opacity:1;fill-rule:nonzero;stroke:none"
         x="0 12.005859 22.016602 26.015625 30.014648 40.025391 45.026367 50.027344 62.033203 68.027344 78.038086 88.048828 98.05957 107.05957 112.06055 116.05957 126.07031 136.08105 141.08203 154.08105 164.0918 174.10254 184.11328 193.11328 197.12988 209.13574 219.14648"
         y="0"
         sodipodi:role="line"
         id="tspan13">Solid, Production Ready App</tspan></text>
    <path
       id="path15"
       d="m 370,151 h 300 v 40 H 370 Z"
       style="fill:#ffffff;fill-opacity:1;fill-rule:nonzero;stroke:#000000;stroke-width:1;stroke-linecap:butt;stroke-linejoin:miter;stroke-miterlimit:10;stroke-dasharray:none;stroke-opacity:1"
       transform="matrix(0.95961986,0,0,0.95961986,0.47980993,0.47980993)"
       clip-path="url(#clipPath16)" />
    <text
       id="text16"
       xml:space="preserve"
       transform="matrix(0.95962946,0,0,0.95962946,367.61306,170.81404)"
       clip-path="url(#clipPath17)"><tspan
         style="font-variant:normal;font-weight:normal;font-size:18px;font-family:Helvetica;writing-mode:lr-tb;fill:#000000;fill-opacity:1;fill-rule:nonzero;stroke:none"
         x="0 12.005859 18 28.010742 41.009766 50.009766 60.020508 66.014648 71.015625 83.021484 93.032227 102.03223 112.04297 122.05371 127.05469 132.05566 142.06641 147.06738 157.07812 167.08887 173.08301 183.09375 188.09473 192.09375 202.10449 212.11523 216.7998 225.7998 235.81055 244.81055 249.81152 253.81055 263.82129"
         y="0"
         sodipodi:role="line"
         id="tspan16">Browser Based Integration Testing</tspan></text>
    <path
       id="path18"
       d="m 320,151 h 50 v 40 h -50 z"
       style="fill:#d5e8d4;fill-opacity:1;fill-rule:nonzero;stroke:#82b366;stroke-width:1;stroke-linecap:butt;stroke-linejoin:miter;stroke-miterlimit:10;stroke-dasharray:none;stroke-opacity:1"
       transform="matrix(0.95961986,0,0,0.95961986,0.47980993,0.47980993)"
       clip-path="url(#clipPath19)" />
    <text
       id="text19"
       xml:space="preserve"
       transform="matrix(0.95962946,0,0,0.95962946,326.01912,170.81404)"
       clip-path="url(#clipPath20)"><tspan
         style="font-variant:normal;font-weight:normal;font-size:18px;font-family:Helvetica;writing-mode:lr-tb;fill:#000000;fill-opacity:1;fill-rule:nonzero;stroke:none"
         x="0"
         y="0"
         id="tspan19">+</tspan></text>
    <path
       id="path21"
       d="m 370,191 h 300 v 40 H 370 Z"
       style="fill:#ffffff;fill-opacity:1;fill-rule:nonzero;stroke:#000000;stroke-width:1;stroke-linecap:butt;stroke-linejoin:miter;stroke-miterlimit:10;stroke-dasharray:none;stroke-opacity:1"
       transform="matrix(0.95961986,0,0,0.95961986,0.47980993,0.47980993)"
       clip-path="url(#clipPath22)" />
    <text
       id="text22"
       xml:space="preserve"
       transform="matrix(0.95962946,0,0,0.95962946,387.12052,209.19922)"
       clip-path="url(#clipPath23)"><tspan
         style="font-variant:normal;font-weight:normal;font-size:18px;font-family:Helvetica;writing-mode:lr-tb;fill:#000000;fill-opacity:1;fill-rule:nonzero;stroke:none"
         x="0 12.999023 23.009766 33.020508 38.021484 42.020508 52.03125 62.041992 72.052734 82.063477 91.063477 96.064453 101.06543 111.07617 116.07715 126.08789 136.09863 142.09277 152.10352 157.10449 161.10352 171.11426 181.125 186.12598 198.13184 208.14258 213.14355 223.1543"
         y="0"
         sodipodi:role="line"
         id="tspan22">Continuous Integration Setup</tspan></text>
    <path
       id="path24"
       d="m 320,191 h 50 v 40 h -50 z"
       style="fill:#d5e8d4;fill-opacity:1;fill-rule:nonzero;stroke:#82b366;stroke-width:1;stroke-linecap:butt;stroke-linejoin:miter;stroke-miterlimit:10;stroke-dasharray:none;stroke-opacity:1"
       transform="matrix(0.95961986,0,0,0.95961986,0.47980993,0.47980993)"
       clip-path="url(#clipPath25)" />
    <text
       id="text25"
       xml:space="preserve"
       transform="matrix(0.95962946,0,0,0.95962946,326.01912,209.19922)"
       clip-path="url(#clipPath26)"><tspan
         style="font-variant:normal;font-weight:normal;font-size:18px;font-family:Helvetica;writing-mode:lr-tb;fill:#000000;fill-opacity:1;fill-rule:nonzero;stroke:none"
         x="0"
         y="0"
         id="tspan25">+</tspan></text>
    <path
       id="path27"
       d="m 370,231 h 300 v 40 H 370 Z"
       style="fill:#ffffff;fill-opacity:1;fill-rule:nonzero;stroke:#000000;stroke-width:1;stroke-linecap:butt;stroke-linejoin:miter;stroke-miterlimit:10;stroke-dasharray:none;stroke-opacity:1"
       transform="matrix(0.95961986,0,0,0.95961986,0.47980993,0.47980993)"
       clip-path="url(#clipPath28)" />
    <text
       id="text28"
       xml:space="preserve"
       transform="matrix(0.95962946,0,0,0.95962946,393.3881,247.5844)"
       clip-path="url(#clipPath29)"><tspan
         style="font-variant:normal;font-weight:normal;font-size:18px;font-family:Helvetica;writing-mode:lr-tb;fill:#000000;fill-opacity:1;fill-rule:nonzero;stroke:none"
         x="0 12.005859 21.005859 31.016602 35.015625 45.026367 55.037109 59.036133 69.046875 74.047852 85.042969 89.041992 93.041016 103.05176 108.05273 113.05371 128.04785 138.05859 148.06934 158.08008 163.08105 176.08008 186.09082 190.08984 200.10059 210.11133"
         y="0"
         sodipodi:role="line"
         id="tspan28">Scalable File/Image Upload</tspan></text>
    <path
       id="path30"
       d="m 320,231 h 50 v 40 h -50 z"
       style="fill:#d5e8d4;fill-opacity:1;fill-rule:nonzero;stroke:#82b366;stroke-width:1;stroke-linecap:butt;stroke-linejoin:miter;stroke-miterlimit:10;stroke-dasharray:none;stroke-opacity:1"
       transform="matrix(0.95961986,0,0,0.95961986,0.47980993,0.47980993)"
       clip-path="url(#clipPath31)" />
    <text
       id="text31"
       xml:space="preserve"
       transform="matrix(0.95962946,0,0,0.95962946,326.01912,247.5844)"
       clip-path="url(#clipPath32)"><tspan
         style="font-variant:normal;font-weight:normal;font-size:18px;font-family:Helvetica;writing-mode:lr-tb;fill:#000000;fill-opacity:1;fill-rule:nonzero;stroke:none"
         x="0"
         y="0"
         id="tspan31">+</tspan></text>
    <path
       id="path33"
       d="m 370,111 h 300 v 40 H 370 Z"
       style="fill:#ffffff;fill-opacity:1;fill-rule:nonzero;stroke:#000000;stroke-width:1;stroke-linecap:butt;stroke-linejoin:miter;stroke-miterlimit:10;stroke-dasharray:none;stroke-opacity:1"
       transform="matrix(0.95961986,0,0,0.95961986,0.47980993,0.47980993)"
       clip-path="url(#clipPath34)" />
    <text
       id="text34"
       xml:space="preserve"
       transform="matrix(0.95962946,0,0,0.95962946,411.15625,132.42887)"
       clip-path="url(#clipPath35)"><tspan
         style="font-variant:normal;font-weight:normal;font-size:18px;font-family:Helvetica;writing-mode:lr-tb;fill:#000000;fill-opacity:1;fill-rule:nonzero;stroke:none"
         x="0 12.999023 23.009766 33.020508 37.019531 46.019531 52.013672 64.019531 74.030273 83.030273 92.030273 102.04102 112.05176 117.05273 130.05176 140.0625 149.0625 159.07324 163.07227 173.08301"
         y="0"
         sodipodi:role="line"
         id="tspan34">Redis-Backed Caching</tspan></text>
    <path
       id="path36"
       d="m 320,111 h 50 v 40 h -50 z"
       style="fill:#d5e8d4;fill-opacity:1;fill-rule:nonzero;stroke:#82b366;stroke-width:1;stroke-linecap:butt;stroke-linejoin:miter;stroke-miterlimit:10;stroke-dasharray:none;stroke-opacity:1"
       transform="matrix(0.95961986,0,0,0.95961986,0.47980993,0.47980993)"
       clip-path="url(#clipPath37)" />
    <text
       id="text37"
       xml:space="preserve"
       transform="matrix(0.95962946,0,0,0.95962946,326.01912,132.42887)"
       clip-path="url(#clipPath38)"><tspan
         style="font-variant:normal;font-weight:normal;font-size:18px;font-family:Helvetica;writing-mode:lr-tb;fill:#000000;fill-opacity:1;fill-rule:nonzero;stroke:none"
         x="0"
         y="0"
         id="tspan37">+</tspan></text>
    <path
       id="path39"
       d="m 160,1 h -15 c -6.66667,0 -10,3.333333 -10,10 v 15 c 0,6.666668 -3.33333,10 -10,10 h -7.5 c -5,0 -4.16666,0 2.5,0 h 7.5 c 5,0 7.5,3.333332 7.5,10 v 15 c 0,6.666664 3.33333,10 10,10 h 15"
       style="fill:none;stroke:#000000;stroke-width:1;stroke-linecap:butt;stroke-linejoin:miter;stroke-miterlimit:10;stroke-dasharray:none;stroke-opacity:1"
       transform="matrix(0.95961986,0,0,0.95961986,0.47980993,0.47980993)"
       clip-path="url(#clipPath40)" />
    <text
       id="text40"
       xml:space="preserve"
       transform="matrix(0.95962946,0,0,0.95962946,17.66318,31.667772)"
       clip-path="url(#clipPath41)"><tspan
         style="font-style:oblique;font-variant:normal;font-weight:normal;font-size:14px;font-family:Helvetica;writing-mode:lr-tb;fill:#000000;fill-opacity:1;fill-rule:nonzero;stroke:none"
         x="0 12.967773 20.753906 23.426758 28.088867 35.875 39.764648 47.550781 55.336914 58.447266 66.233398 74.019531 77.90918 81.798828"
         y="0"
         sodipodi:role="line"
         id="tspan40">We're going to</tspan></text>
    <text
       id="text41"
       xml:space="preserve"
       transform="matrix(0.95962946,0,0,0.95962946,25.235256,47.981473)"
       clip-path="url(#clipPath42)"><tspan
         style="font-style:oblique;font-variant:normal;font-weight:normal;font-size:14px;font-family:Helvetica;writing-mode:lr-tb;fill:#000000;fill-opacity:1;fill-rule:nonzero;stroke:none"
         x="0 7 10.889648 18.675781 23.337891 27.227539 31.117188 41.227539 44.337891 48.227539 56.013672 59.90332 63.792969 71.579102 74.689453"
         y="0"
         sodipodi:role="line"
         id="tspan41">start with this</tspan></text>
    <path
       id="path43"
       d="m 730.01001,112 h -15 c -6.66669,0 -10,3.33334 -10,10 v 60.5 c 0,6.66667 -3.33331,10 -10,10 h -7.5 c -5,0 -4.16669,0 2.5,0 h 7.5 c 5,0 7.5,3.33333 7.5,10 V 263 c 0,6.66666 3.33331,10 10,10 h 15"
       style="fill:none;stroke:#000000;stroke-width:1;stroke-linecap:butt;stroke-linejoin:miter;stroke-miterlimit:10;stroke-dasharray:none;stroke-opacity:1"
       transform="matrix(-0.95961986,0,0,-0.95961986,1353.5631,369.93346)"
       clip-path="url(#clipPath44)" />
    <text
       id="text44"
       xml:space="preserve"
       transform="matrix(0.95962946,0,0,0.95962946,702.44877,182.3296)"
       clip-path="url(#clipPath45)"><tspan
         style="font-style:oblique;font-variant:normal;font-weight:normal;font-size:14px;font-family:Helvetica;writing-mode:lr-tb;fill:#000000;fill-opacity:1;fill-rule:nonzero;stroke:none"
         x="0 8.5517578 16.337891 24.124023 31.910156 35.799805 43.585938 51.37207 59.158203 63.047852 66.9375 74.723633 77.833984"
         y="0"
         sodipodi:role="line"
         id="tspan44">Then add this</tspan></text>
    <text
       id="text45"
       xml:space="preserve"
       transform="matrix(0.95962946,0,0,0.95962946,702.44877,198.6433)"
       clip-path="url(#clipPath46)"><tspan
         style="font-style:oblique;font-variant:normal;font-weight:normal;font-size:14px;font-family:Helvetica;writing-mode:lr-tb;fill:#000000;fill-opacity:1;fill-rule:nonzero;stroke:none"
         x="0 7 10.889648 18.675781 22.319336 26.208984 30.098633 33.208984"
         y="0"
         sodipodi:role="line"
         id="tspan45">stuff in</tspan></text>
    <path
       id="path47"
       d="m 160,321 h -15 c -6.66667,0 -10,3.33334 -10,10 v 15 c 0,6.66666 -3.33333,10 -10,10 h -7.5 c -5,0 -4.16666,0 2.5,0 h 7.5 c 5,0 7.5,3.33334 7.5,10 v 15 c 0,6.66666 3.33333,10 10,10 h 15"
       style="fill:none;stroke:#000000;stroke-width:1;stroke-linecap:butt;stroke-linejoin:miter;stroke-miterlimit:10;stroke-dasharray:none;stroke-opacity:1"
       transform="matrix(0.95961986,0,0,0.95961986,0.47980993,0.47980993)"
       clip-path="url(#clipPath48)" />
    <text
       id="text48"
       xml:space="preserve"
       transform="matrix(0.95962946,0,0,0.95962946,34.906522,338.7492)"
       clip-path="url(#clipPath49)"><tspan
         style="font-style:oblique;font-variant:normal;font-weight:normal;font-size:14px;font-family:Helvetica;writing-mode:lr-tb;fill:#000000;fill-opacity:1;fill-rule:nonzero;stroke:none"
         x="0 9.3378906 17.124023 24.910156 28.799805 36.585938 44.37207 52.158203 56.047852 63.833984"
         y="0"
         sodipodi:role="line"
         id="tspan48">And end up</tspan></text>
    <text
       id="text49"
       xml:space="preserve"
       transform="matrix(0.95962946,0,0,0.95962946,55.103723,355.0629)"
       clip-path="url(#clipPath50)"><tspan
         style="font-style:oblique;font-variant:normal;font-weight:normal;font-size:14px;font-family:Helvetica;writing-mode:lr-tb;fill:#000000;fill-opacity:1;fill-rule:nonzero;stroke:none"
         x="0 10.110352 13.220703 17.110352 24.896484 28.786133 32.675781 40.461914 43.572266"
         y="0"
         sodipodi:role="line"
         id="tspan49">with this</tspan></text>
  </g>
</svg>
