<?xml version="1.0" encoding="UTF-8" standalone="no"?>
<!-- Created with Inkscape (http://www.inkscape.org/) -->

<svg
   version="1.1"
   id="svg1"
   width="396.16"
   height="157.43999"
   viewBox="0 0 396.16 157.43999"
   sodipodi:docname="node-3.pdf"
   xmlns:inkscape="http://www.inkscape.org/namespaces/inkscape"
   xmlns:sodipodi="http://sodipodi.sourceforge.net/DTD/sodipodi-0.dtd"
   xmlns="http://www.w3.org/2000/svg"
   xmlns:svg="http://www.w3.org/2000/svg">
  <defs
     id="defs1">
    <clipPath
       clipPathUnits="userSpaceOnUse"
       id="clipPath2">
      <path
         d="M 0,0 H 1237.4999 V 490.21738 H 0 Z"
         transform="scale(0.33454547)"
         clip-rule="evenodd"
         id="path2" />
    </clipPath>
    <clipPath
       clipPathUnits="userSpaceOnUse"
       id="clipPath4">
      <path
         d="M 0,0 H 1237.4999 V 484.23911 H 0 Z"
         transform="matrix(0.33454547,0,0,0.33454547,-0.49999999,-0.49999999)"
         clip-rule="evenodd"
         id="path4" />
    </clipPath>
    <clipPath
       clipPathUnits="userSpaceOnUse"
       id="clipPath5">
      <path
         d="M 0,0 H 1237.4999 V 484.23911 H 0 Z"
         transform="matrix(0.33454211,0,0,0.33454211,-31.671874,-100)"
         clip-rule="evenodd"
         id="path5" />
    </clipPath>
    <clipPath
       clipPathUnits="userSpaceOnUse"
       id="clipPath6">
      <path
         d="M 0,0 H 1237.4999 V 484.23911 H 0 Z"
         transform="matrix(0.33454211,0,0,0.33454211,-144.65624,-15)"
         clip-rule="evenodd"
         id="path6" />
    </clipPath>
  </defs>
  <sodipodi:namedview
     id="namedview1"
     pagecolor="#ffffff"
     bordercolor="#000000"
     borderopacity="0.25"
     inkscape:showpageshadow="2"
     inkscape:pageopacity="0.0"
     inkscape:pagecheckerboard="0"
     inkscape:deskcolor="#d1d1d1">
    <inkscape:page
       x="0"
       y="0"
       inkscape:label="1"
       id="page1"
       width="396.16"
       height="157.43999"
       margin="0"
       bleed="0" />
  </sodipodi:namedview>
  <g
     id="g1"
     inkscape:groupmode="layer"
     inkscape:label="1">
    <path
       id="path1"
       d="M 0,0 H 414 V 164 H 0 Z"
       style="fill:#ffffff;fill-opacity:1;fill-rule:nonzero;stroke:none"
       transform="scale(0.95652166)"
       clip-path="url(#clipPath2)" />
    <path
       id="path3"
       d="M 1,30 H 411 V 160 H 1 Z"
       style="fill:#dae8fc;fill-opacity:1;fill-rule:nonzero;stroke:#6c8ebf;stroke-width:1;stroke-linecap:butt;stroke-linejoin:miter;stroke-miterlimit:10;stroke-dasharray:none;stroke-opacity:1"
       transform="matrix(0.95652166,0,0,0.95652166,0.47826082,0.47826082)"
       clip-path="url(#clipPath4)" />
    <text
       id="text4"
       xml:space="preserve"
       transform="matrix(0.95653126,0,0,0.95653126,30.295138,95.653126)"
       clip-path="url(#clipPath5)"><tspan
         style="font-variant:normal;font-weight:normal;font-size:16px;font-family:Helvetica;writing-mode:lr-tb;fill:#000000;fill-opacity:1;fill-rule:nonzero;stroke:none"
         x="0 8.8984375 12.453125 16.898438 25.796875 34.695312 43.59375 48.039062 56.039062 64.9375 78.265625 82.710938 93.382812 97.828125 106.72656 115.625 124.52344 133.42188 142.32031 154.76562 160.09375 163.64844 172.54688 181.44531 186.77344 191.21875 201.89062 210.78906 218.78906 227.6875 236.58594 244.58594 253.48438 262.38281 273.9375 282.83594 291.73438 300.63281 311.30469 315.75 324.64844 329.97656 334.42188 343.32031"
         y="0"
         sodipodi:role="line"
         id="tspan4">github.com/StephenGrider/AdvancedNodeStarter</tspan></text>
    <text
       id="text5"
       xml:space="preserve"
       transform="matrix(0.95653126,0,0,0.95653126,138.36822,14.347969)"
       clip-path="url(#clipPath6)"><tspan
         style="font-variant:normal;font-weight:700;font-size:16px;font-family:Helvetica;writing-mode:lr-tb;fill:#000000;fill-opacity:1;fill-rule:nonzero;stroke:none"
         x="0 10.671875 16 24.898438 31.125 36.453125 45.351562 51.578125 56.023438 68.46875 72.914062 78.242188 82.6875 94.242188 103.14062 112.91406"
         y="0"
         sodipodi:role="line"
         id="tspan5">Starter Git Repo</tspan></text>
  </g>
</svg>
