<?xml version="1.0" encoding="UTF-8" standalone="no"?>
<!-- Created with Inkscape (http://www.inkscape.org/) -->

<svg
   version="1.1"
   id="svg1"
   width="914.56"
   height="462.71997"
   viewBox="0 0 914.56 462.71997"
   sodipodi:docname="node-19.pdf"
   xmlns:inkscape="http://www.inkscape.org/namespaces/inkscape"
   xmlns:sodipodi="http://sodipodi.sourceforge.net/DTD/sodipodi-0.dtd"
   xmlns="http://www.w3.org/2000/svg"
   xmlns:svg="http://www.w3.org/2000/svg">
  <defs
     id="defs1">
    <clipPath
       clipPathUnits="userSpaceOnUse"
       id="clipPath2">
      <path
         d="M 0,0 H 2858.3333 V 1444.1475 H 0 Z"
         transform="scale(0.33376094)"
         clip-rule="evenodd"
         id="path2" />
    </clipPath>
    <clipPath
       clipPathUnits="userSpaceOnUse"
       id="clipPath4">
      <path
         d="M 0,0 H 2858.3333 V 1441.1512 H 0 Z"
         transform="scale(0.33376094)"
         clip-rule="evenodd"
         id="path4" />
    </clipPath>
    <clipPath
       clipPathUnits="userSpaceOnUse"
       id="clipPath6">
      <path
         d="M 0,0 H 2858.3333 V 1441.1512 H 0 Z"
         transform="scale(0.33376094)"
         clip-rule="evenodd"
         id="path6" />
    </clipPath>
    <clipPath
       clipPathUnits="userSpaceOnUse"
       id="clipPath8">
      <path
         d="M 0,0 H 2858.3333 V 1441.1512 H 0 Z"
         transform="scale(0.33376094)"
         clip-rule="evenodd"
         id="path8" />
    </clipPath>
    <clipPath
       clipPathUnits="userSpaceOnUse"
       id="clipPath10">
      <path
         d="M 0,0 H 2858.3333 V 1441.1512 H 0 Z"
         transform="scale(0.33376094)"
         clip-rule="evenodd"
         id="path10" />
    </clipPath>
    <clipPath
       clipPathUnits="userSpaceOnUse"
       id="clipPath11">
      <path
         d="M 0,0 H 2858.3333 V 1441.1512 H 0 Z"
         transform="matrix(0.33375759,0,0,0.33375759,-704.85938,-130)"
         clip-rule="evenodd"
         id="path11" />
    </clipPath>
    <clipPath
       clipPathUnits="userSpaceOnUse"
       id="clipPath12">
      <path
         d="M 0,0 H 2858.3333 V 1441.1512 H 0 Z"
         transform="matrix(0.33375759,0,0,0.33375759,-694.875,-71)"
         clip-rule="evenodd"
         id="path12" />
    </clipPath>
    <clipPath
       clipPathUnits="userSpaceOnUse"
       id="clipPath14">
      <path
         d="M 0,0 H 2858.3333 V 1441.1512 H 0 Z"
         transform="scale(0.33376094)"
         clip-rule="evenodd"
         id="path14" />
    </clipPath>
    <clipPath
       clipPathUnits="userSpaceOnUse"
       id="clipPath16">
      <path
         d="M 0,0 H 2858.3333 V 1441.1512 H 0 Z"
         transform="scale(0.33376094)"
         clip-rule="evenodd"
         id="path16" />
    </clipPath>
    <clipPath
       clipPathUnits="userSpaceOnUse"
       id="clipPath17">
      <path
         d="M 0,0 H 2858.3333 V 1441.1512 H 0 Z"
         transform="matrix(0.33375759,0,0,0.33375759,-704.85938,-270)"
         clip-rule="evenodd"
         id="path17" />
    </clipPath>
    <clipPath
       clipPathUnits="userSpaceOnUse"
       id="clipPath18">
      <path
         d="M 0,0 H 2858.3333 V 1441.1512 H 0 Z"
         transform="matrix(0.33375759,0,0,0.33375759,-694.875,-211)"
         clip-rule="evenodd"
         id="path18" />
    </clipPath>
    <clipPath
       clipPathUnits="userSpaceOnUse"
       id="clipPath20">
      <path
         d="M 0,0 H 2858.3333 V 1441.1512 H 0 Z"
         transform="scale(0.33376094)"
         clip-rule="evenodd"
         id="path20" />
    </clipPath>
    <clipPath
       clipPathUnits="userSpaceOnUse"
       id="clipPath22">
      <path
         d="M 0,0 H 2858.3333 V 1441.1512 H 0 Z"
         transform="scale(0.33376094)"
         clip-rule="evenodd"
         id="path22" />
    </clipPath>
    <clipPath
       clipPathUnits="userSpaceOnUse"
       id="clipPath23">
      <path
         d="M 0,0 H 2858.3333 V 1441.1512 H 0 Z"
         transform="matrix(0.33375759,0,0,0.33375759,-704.85938,-414)"
         clip-rule="evenodd"
         id="path23" />
    </clipPath>
    <clipPath
       clipPathUnits="userSpaceOnUse"
       id="clipPath24">
      <path
         d="M 0,0 H 2858.3333 V 1441.1512 H 0 Z"
         transform="matrix(0.33375759,0,0,0.33375759,-694.875,-355)"
         clip-rule="evenodd"
         id="path24" />
    </clipPath>
    <clipPath
       clipPathUnits="userSpaceOnUse"
       id="clipPath25">
      <path
         d="M 0,0 H 2858.3333 V 1441.1512 H 0 Z"
         transform="matrix(0.33375759,0,0,0.33375759,-465.40625,-19)"
         clip-rule="evenodd"
         id="path25" />
    </clipPath>
    <clipPath
       clipPathUnits="userSpaceOnUse"
       id="clipPath27">
      <path
         d="M 0,0 H 2858.3333 V 1441.1512 H 0 Z"
         transform="matrix(0.33376094,0,0,0.33376094,-0.49999999,-0.49999999)"
         clip-rule="evenodd"
         id="path27" />
    </clipPath>
    <clipPath
       clipPathUnits="userSpaceOnUse"
       id="clipPath29">
      <path
         d="M 0,0 H 2858.3333 V 1441.1512 H 0 Z"
         transform="matrix(0.33376094,0,0,0.33376094,-0.49999999,-0.49999999)"
         clip-rule="evenodd"
         id="path29" />
    </clipPath>
    <clipPath
       clipPathUnits="userSpaceOnUse"
       id="clipPath31">
      <path
         d="M 0,0 H 2858.3333 V 1441.1512 H 0 Z"
         transform="scale(0.33376094)"
         clip-rule="evenodd"
         id="path31" />
    </clipPath>
    <clipPath
       clipPathUnits="userSpaceOnUse"
       id="clipPath32">
      <path
         d="M 0,0 H 2858.3333 V 1441.1512 H 0 Z"
         transform="matrix(0.33375759,0,0,0.33375759,-298.75,-215)"
         clip-rule="evenodd"
         id="path32" />
    </clipPath>
    <clipPath
       clipPathUnits="userSpaceOnUse"
       id="clipPath34">
      <path
         d="M 0,0 H 2858.3333 V 1441.1512 H 0 Z"
         transform="scale(0.33376094)"
         clip-rule="evenodd"
         id="path34" />
    </clipPath>
    <clipPath
       clipPathUnits="userSpaceOnUse"
       id="clipPath35">
      <path
         d="M 0,0 H 2858.3333 V 1441.1512 H 0 Z"
         transform="matrix(0.33375759,0,0,0.33375759,-208.75,-265)"
         clip-rule="evenodd"
         id="path35" />
    </clipPath>
    <clipPath
       clipPathUnits="userSpaceOnUse"
       id="clipPath37">
      <path
         d="M 0,0 H 2858.3333 V 1441.1512 H 0 Z"
         transform="scale(0.33376094)"
         clip-rule="evenodd"
         id="path37" />
    </clipPath>
    <clipPath
       clipPathUnits="userSpaceOnUse"
       id="clipPath38">
      <path
         d="M 0,0 H 2858.3333 V 1441.1512 H 0 Z"
         transform="matrix(0.33375759,0,0,0.33375759,-23.75,-265)"
         clip-rule="evenodd"
         id="path38" />
    </clipPath>
  </defs>
  <sodipodi:namedview
     id="namedview1"
     pagecolor="#ffffff"
     bordercolor="#000000"
     borderopacity="0.25"
     inkscape:showpageshadow="2"
     inkscape:pageopacity="0.0"
     inkscape:pagecheckerboard="0"
     inkscape:deskcolor="#d1d1d1">
    <inkscape:page
       x="0"
       y="0"
       inkscape:label="1"
       id="page1"
       width="914.56"
       height="462.71997"
       margin="0"
       bleed="0" />
  </sodipodi:namedview>
  <g
     id="g1"
     inkscape:groupmode="layer"
     inkscape:label="1">
    <path
       id="path1"
       d="M 0,0 H 954 V 482 H 0 Z"
       style="fill:#ffffff;fill-opacity:1;fill-rule:nonzero;stroke:none"
       transform="scale(0.95877004)"
       clip-path="url(#clipPath2)" />
    <path
       id="path3"
       d="M 201,38 H 951.01001 V 478 H 201 Z"
       style="fill:#ffffff;fill-opacity:1;fill-rule:nonzero;stroke:#000000;stroke-width:1;stroke-linecap:butt;stroke-linejoin:miter;stroke-miterlimit:10;stroke-dasharray:none;stroke-opacity:1"
       transform="scale(0.95877004)"
       clip-path="url(#clipPath4)" />
    <path
       id="path5"
       d="m 611.01001,48 h 300 v 420 h -300 z"
       style="fill:#d5e8d4;fill-opacity:1;fill-rule:nonzero;stroke:#82b366;stroke-width:1;stroke-linecap:butt;stroke-linejoin:miter;stroke-miterlimit:10;stroke-dasharray:none;stroke-opacity:1"
       transform="scale(0.95877004)"
       clip-path="url(#clipPath6)" />
    <path
       id="path7"
       d="m 631.01001,78 h 260 v 90 h -260 z"
       style="fill:#ffffff;fill-opacity:1;fill-rule:nonzero;stroke:#000000;stroke-width:1;stroke-linecap:butt;stroke-linejoin:miter;stroke-miterlimit:10;stroke-dasharray:none;stroke-opacity:1"
       transform="scale(0.95877004)"
       clip-path="url(#clipPath8)" />
    <path
       id="path9"
       d="m 661.01001,98 h 200 v 50 h -200 z"
       style="fill:#dae8fc;fill-opacity:1;fill-rule:nonzero;stroke:#6c8ebf;stroke-width:1;stroke-linecap:butt;stroke-linejoin:miter;stroke-miterlimit:10;stroke-dasharray:none;stroke-opacity:1"
       transform="scale(0.95877004)"
       clip-path="url(#clipPath10)" />
    <text
       id="text10"
       xml:space="preserve"
       transform="matrix(0.95877964,0,0,0.95877964,675.80482,124.64135)"
       clip-path="url(#clipPath11)"><tspan
         style="font-variant:normal;font-weight:normal;font-size:20px;font-family:Helvetica;writing-mode:lr-tb;fill:#000000;fill-opacity:1;fill-rule:nonzero;stroke:none"
         x="0 14.443359 25.566406 36.689453 47.8125 53.369141 66.708984 77.832031 84.492188 94.492188 105.61523"
         y="0"
         sodipodi:role="line"
         id="tspan10">Node Server</tspan></text>
    <text
       id="text11"
       xml:space="preserve"
       transform="matrix(0.95877964,0,0,0.95877964,666.232,68.073354)"
       clip-path="url(#clipPath12)"><tspan
         style="font-variant:normal;font-weight:700;font-size:20px;font-family:Helvetica;writing-mode:lr-tb;fill:#000000;fill-opacity:1;fill-rule:nonzero;stroke:none"
         x="0 13.339844 18.896484 31.113281 43.330078 48.886719 60.009766 65.566406 77.783203 90 97.783203 108.90625 120.0293"
         y="0"
         sodipodi:role="line"
         id="tspan11">Single Thread</tspan></text>
    <path
       id="path13"
       d="m 631.01001,218 h 260 v 90 h -260 z"
       style="fill:#ffffff;fill-opacity:1;fill-rule:nonzero;stroke:#000000;stroke-width:1;stroke-linecap:butt;stroke-linejoin:miter;stroke-miterlimit:10;stroke-dasharray:none;stroke-opacity:1"
       transform="scale(0.95877004)"
       clip-path="url(#clipPath14)" />
    <path
       id="path15"
       d="m 661.01001,238 h 200 v 50 h -200 z"
       style="fill:#dae8fc;fill-opacity:1;fill-rule:nonzero;stroke:#6c8ebf;stroke-width:1;stroke-linecap:butt;stroke-linejoin:miter;stroke-miterlimit:10;stroke-dasharray:none;stroke-opacity:1"
       transform="scale(0.95877004)"
       clip-path="url(#clipPath16)" />
    <text
       id="text16"
       xml:space="preserve"
       transform="matrix(0.95877964,0,0,0.95877964,675.80482,258.8705)"
       clip-path="url(#clipPath17)"><tspan
         style="font-variant:normal;font-weight:normal;font-size:20px;font-family:Helvetica;writing-mode:lr-tb;fill:#000000;fill-opacity:1;fill-rule:nonzero;stroke:none"
         x="0 14.443359 25.566406 36.689453 47.8125 53.369141 66.708984 77.832031 84.492188 94.492188 105.61523"
         y="0"
         sodipodi:role="line"
         id="tspan16">Node Server</tspan></text>
    <text
       id="text17"
       xml:space="preserve"
       transform="matrix(0.95877964,0,0,0.95877964,666.232,202.3025)"
       clip-path="url(#clipPath18)"><tspan
         style="font-variant:normal;font-weight:700;font-size:20px;font-family:Helvetica;writing-mode:lr-tb;fill:#000000;fill-opacity:1;fill-rule:nonzero;stroke:none"
         x="0 13.339844 18.896484 31.113281 43.330078 48.886719 60.009766 65.566406 77.783203 90 97.783203 108.90625 120.0293"
         y="0"
         sodipodi:role="line"
         id="tspan17">Single Thread</tspan></text>
    <path
       id="path19"
       d="m 631.01001,362 h 260 v 90 h -260 z"
       style="fill:#ffffff;fill-opacity:1;fill-rule:nonzero;stroke:#000000;stroke-width:1;stroke-linecap:butt;stroke-linejoin:miter;stroke-miterlimit:10;stroke-dasharray:none;stroke-opacity:1"
       transform="scale(0.95877004)"
       clip-path="url(#clipPath20)" />
    <path
       id="path21"
       d="m 661.01001,382 h 200 v 50 h -200 z"
       style="fill:#dae8fc;fill-opacity:1;fill-rule:nonzero;stroke:#6c8ebf;stroke-width:1;stroke-linecap:butt;stroke-linejoin:miter;stroke-miterlimit:10;stroke-dasharray:none;stroke-opacity:1"
       transform="scale(0.95877004)"
       clip-path="url(#clipPath22)" />
    <text
       id="text22"
       xml:space="preserve"
       transform="matrix(0.95877964,0,0,0.95877964,675.80482,396.93477)"
       clip-path="url(#clipPath23)"><tspan
         style="font-variant:normal;font-weight:normal;font-size:20px;font-family:Helvetica;writing-mode:lr-tb;fill:#000000;fill-opacity:1;fill-rule:nonzero;stroke:none"
         x="0 14.443359 25.566406 36.689453 47.8125 53.369141 66.708984 77.832031 84.492188 94.492188 105.61523"
         y="0"
         sodipodi:role="line"
         id="tspan22">Node Server</tspan></text>
    <text
       id="text23"
       xml:space="preserve"
       transform="matrix(0.95877964,0,0,0.95877964,666.232,340.36677)"
       clip-path="url(#clipPath24)"><tspan
         style="font-variant:normal;font-weight:700;font-size:20px;font-family:Helvetica;writing-mode:lr-tb;fill:#000000;fill-opacity:1;fill-rule:nonzero;stroke:none"
         x="0 13.339844 18.896484 31.113281 43.330078 48.886719 60.009766 65.566406 77.783203 90 97.783203 108.90625 120.0293"
         y="0"
         sodipodi:role="line"
         id="tspan23">Single Thread</tspan></text>
    <text
       id="text24"
       xml:space="preserve"
       transform="matrix(0.95877964,0,0,0.95877964,446.22204,18.216813)"
       clip-path="url(#clipPath25)"><tspan
         style="font-variant:normal;font-weight:700;font-size:20px;font-family:Helvetica;writing-mode:lr-tb;fill:#000000;fill-opacity:1;fill-rule:nonzero;stroke:none"
         x="0 14.443359 26.660156 37.783203 44.443359 50 65.556641 77.773438 88.896484 96.679688 107.80273 114.46289 120.01953 132.23633 144.45312 150.00977 163.34961 174.47266 185.5957 192.25586 203.37891"
         y="0"
         sodipodi:role="line"
         id="tspan24">Host Operating System</tspan></text>
    <path
       id="path26"
       d="m 121,258 h 69.89999"
       style="fill:none;stroke:#000000;stroke-width:1;stroke-linecap:butt;stroke-linejoin:miter;stroke-miterlimit:10;stroke-dasharray:none;stroke-opacity:1"
       transform="matrix(0.95877004,0,0,0.95877004,0.47938501,0.47938501)"
       clip-path="url(#clipPath27)" />
    <path
       id="path28"
       d="m 197.64999,258 -9,4.5 2.25,-4.5 -2.25,-4.5 z"
       style="fill:#000000;fill-opacity:1;fill-rule:nonzero;stroke:#000000;stroke-width:1;stroke-linecap:butt;stroke-linejoin:miter;stroke-miterlimit:10;stroke-dasharray:none;stroke-opacity:1"
       transform="matrix(0.95877004,0,0,0.95877004,0.47938501,0.47938501)"
       clip-path="url(#clipPath29)" />
    <path
       id="path30"
       d="m 281,223 h 220 v 70 H 281 Z"
       style="fill:#d5e8d4;fill-opacity:1;fill-rule:nonzero;stroke:#82b366;stroke-width:1;stroke-linecap:butt;stroke-linejoin:miter;stroke-miterlimit:10;stroke-dasharray:none;stroke-opacity:1"
       transform="scale(0.95877004)"
       clip-path="url(#clipPath31)" />
    <text
       id="text31"
       xml:space="preserve"
       transform="matrix(0.95877964,0,0,0.95877964,286.43542,206.13762)"
       clip-path="url(#clipPath32)"><tspan
         style="font-variant:normal;font-weight:700;font-size:20px;font-family:Helvetica;writing-mode:lr-tb;fill:#000000;fill-opacity:1;fill-rule:nonzero;stroke:none"
         x="0 5.5566406 17.773438 28.896484 41.113281 58.896484 64.453125 76.669922 88.886719 94.443359 108.88672 120.00977 132.22656 144.44336 155.56641 166.68945 173.34961"
         y="0"
         sodipodi:role="line"
         id="tspan31">Incoming Requests</tspan></text>
    <path
       id="path33"
       d="m 201,223 h 80 v 70 h -80 z"
       style="fill:#d5e8d4;fill-opacity:1;fill-rule:nonzero;stroke:#82b366;stroke-width:1;stroke-linecap:butt;stroke-linejoin:miter;stroke-miterlimit:10;stroke-dasharray:none;stroke-opacity:1"
       transform="scale(0.95877004)"
       clip-path="url(#clipPath34)" />
    <text
       id="text34"
       xml:space="preserve"
       transform="matrix(0.95877964,0,0,0.95877964,200.14525,254.0766)"
       clip-path="url(#clipPath35)"><tspan
         style="font-variant:normal;font-weight:normal;font-size:20px;font-family:Helvetica;writing-mode:lr-tb;fill:#000000;fill-opacity:1;fill-rule:nonzero;stroke:none"
         x="0 13.339844 24.462891 31.123047 36.679688 42.236328 53.359375"
         y="0"
         sodipodi:role="line"
         id="tspan34">Port 80</tspan></text>
    <path
       id="path36"
       d="m 1,228 h 120 v 60 H 1 Z"
       style="fill:#ffffff;fill-opacity:1;fill-rule:nonzero;stroke:#000000;stroke-width:1;stroke-linecap:butt;stroke-linejoin:miter;stroke-miterlimit:10;stroke-dasharray:none;stroke-opacity:1"
       transform="scale(0.95877004)"
       clip-path="url(#clipPath37)" />
    <text
       id="text37"
       xml:space="preserve"
       transform="matrix(0.95877964,0,0,0.95877964,22.771016,254.0766)"
       clip-path="url(#clipPath38)"><tspan
         style="font-variant:normal;font-weight:normal;font-size:20px;font-family:Helvetica;writing-mode:lr-tb;fill:#000000;fill-opacity:1;fill-rule:nonzero;stroke:none"
         x="0 14.443359 25.566406 36.689453 47.8125 58.935547 68.935547"
         y="0"
         sodipodi:role="line"
         id="tspan37">Request</tspan></text>
  </g>
</svg>
