<?xml version="1.0" encoding="UTF-8" standalone="no"?>
<!-- Created with Inkscape (http://www.inkscape.org/) -->

<svg
   version="1.1"
   id="svg1"
   width="801.27997"
   height="309.44"
   viewBox="0 0 801.27997 309.44"
   sodipodi:docname="node-26.pdf"
   xmlns:inkscape="http://www.inkscape.org/namespaces/inkscape"
   xmlns:sodipodi="http://sodipodi.sourceforge.net/DTD/sodipodi-0.dtd"
   xmlns="http://www.w3.org/2000/svg"
   xmlns:svg="http://www.w3.org/2000/svg">
  <defs
     id="defs1">
    <clipPath
       clipPathUnits="userSpaceOnUse"
       id="clipPath2">
      <path
         d="M 0,0 H 2504.1667 V 964.52356 H 0 Z"
         transform="scale(0.33384359)"
         clip-rule="evenodd"
         id="path2" />
    </clipPath>
    <clipPath
       clipPathUnits="userSpaceOnUse"
       id="clipPath4">
      <path
         d="M 0,0 H 2504.1667 V 961.52814 H 0 Z"
         transform="matrix(0.33384359,0,0,0.33384359,-0.50000001,-0.50000001)"
         clip-rule="evenodd"
         id="path4" />
    </clipPath>
    <clipPath
       clipPathUnits="userSpaceOnUse"
       id="clipPath6">
      <path
         d="M 0,0 H 2504.1667 V 961.52814 H 0 Z"
         transform="matrix(0.33384359,0,0,0.33384359,-0.50000001,-0.50000001)"
         clip-rule="evenodd"
         id="path6" />
    </clipPath>
    <clipPath
       clipPathUnits="userSpaceOnUse"
       id="clipPath7">
      <path
         d="M 0,0 H 2504.1667 V 961.52814 H 0 Z"
         transform="matrix(0.33384023,0,0,0.33384023,-0.140625,-26)"
         clip-rule="evenodd"
         id="path7" />
    </clipPath>
    <clipPath
       clipPathUnits="userSpaceOnUse"
       id="clipPath9">
      <path
         d="M 0,0 H 2504.1667 V 961.52814 H 0 Z"
         transform="matrix(0.33384359,0,0,0.33384359,-0.50000001,-0.50000001)"
         clip-rule="evenodd"
         id="path9" />
    </clipPath>
    <clipPath
       clipPathUnits="userSpaceOnUse"
       id="clipPath10">
      <path
         d="M 0,0 H 2504.1667 V 961.52814 H 0 Z"
         transform="matrix(0.33384023,0,0,0.33384023,-61.437499,-26)"
         clip-rule="evenodd"
         id="path10" />
    </clipPath>
    <clipPath
       clipPathUnits="userSpaceOnUse"
       id="clipPath12">
      <path
         d="M 0,0 H 2504.1667 V 961.52814 H 0 Z"
         transform="scale(0.33384359)"
         clip-rule="evenodd"
         id="path12" />
    </clipPath>
    <clipPath
       clipPathUnits="userSpaceOnUse"
       id="clipPath13">
      <path
         d="M 0,0 H 2504.1667 V 961.52814 H 0 Z"
         transform="matrix(0.33384023,0,0,0.33384023,-133.06249,-110.99999)"
         clip-rule="evenodd"
         id="path13" />
    </clipPath>
    <clipPath
       clipPathUnits="userSpaceOnUse"
       id="clipPath15">
      <path
         d="M 0,0 H 2504.1667 V 961.52814 H 0 Z"
         transform="scale(0.33384359)"
         clip-rule="evenodd"
         id="path15" />
    </clipPath>
    <clipPath
       clipPathUnits="userSpaceOnUse"
       id="clipPath16">
      <path
         d="M 0,0 H 2504.1667 V 961.52814 H 0 Z"
         transform="matrix(0.33384023,0,0,0.33384023,-243.0625,-110.99999)"
         clip-rule="evenodd"
         id="path16" />
    </clipPath>
    <clipPath
       clipPathUnits="userSpaceOnUse"
       id="clipPath18">
      <path
         d="M 0,0 H 2504.1667 V 961.52814 H 0 Z"
         transform="scale(0.33384359)"
         clip-rule="evenodd"
         id="path18" />
    </clipPath>
    <clipPath
       clipPathUnits="userSpaceOnUse"
       id="clipPath19">
      <path
         d="M 0,0 H 2504.1667 V 961.52814 H 0 Z"
         transform="matrix(0.33384023,0,0,0.33384023,-353.0625,-110.99999)"
         clip-rule="evenodd"
         id="path19" />
    </clipPath>
    <clipPath
       clipPathUnits="userSpaceOnUse"
       id="clipPath21">
      <path
         d="M 0,0 H 2504.1667 V 961.52814 H 0 Z"
         transform="scale(0.33384359)"
         clip-rule="evenodd"
         id="path21" />
    </clipPath>
    <clipPath
       clipPathUnits="userSpaceOnUse"
       id="clipPath22">
      <path
         d="M 0,0 H 2504.1667 V 961.52814 H 0 Z"
         transform="matrix(0.33384023,0,0,0.33384023,-463.0625,-110.99999)"
         clip-rule="evenodd"
         id="path22" />
    </clipPath>
    <clipPath
       clipPathUnits="userSpaceOnUse"
       id="clipPath24">
      <path
         d="M 0,0 H 2504.1667 V 961.52814 H 0 Z"
         transform="matrix(0.33384359,0,0,0.33384359,-0.50000001,-0.50000001)"
         clip-rule="evenodd"
         id="path24" />
    </clipPath>
    <clipPath
       clipPathUnits="userSpaceOnUse"
       id="clipPath25">
      <path
         d="M 0,0 H 2504.1667 V 961.52814 H 0 Z"
         transform="matrix(0.33384023,0,0,0.33384023,-41.437499,-206)"
         clip-rule="evenodd"
         id="path25" />
    </clipPath>
    <clipPath
       clipPathUnits="userSpaceOnUse"
       id="clipPath27">
      <path
         d="M 0,0 H 2504.1667 V 961.52814 H 0 Z"
         transform="scale(0.33384359)"
         clip-rule="evenodd"
         id="path27" />
    </clipPath>
    <clipPath
       clipPathUnits="userSpaceOnUse"
       id="clipPath28">
      <path
         d="M 0,0 H 2504.1667 V 961.52814 H 0 Z"
         transform="matrix(0.33384023,0,0,0.33384023,-575.0625,-110.99999)"
         clip-rule="evenodd"
         id="path28" />
    </clipPath>
    <clipPath
       clipPathUnits="userSpaceOnUse"
       id="clipPath30">
      <path
         d="M 0,0 H 2504.1667 V 961.52814 H 0 Z"
         transform="scale(0.33384359)"
         clip-rule="evenodd"
         id="path30" />
    </clipPath>
    <clipPath
       clipPathUnits="userSpaceOnUse"
       id="clipPath31">
      <path
         d="M 0,0 H 2504.1667 V 961.52814 H 0 Z"
         transform="matrix(0.33384023,0,0,0.33384023,-685.0625,-110.99999)"
         clip-rule="evenodd"
         id="path31" />
    </clipPath>
  </defs>
  <sodipodi:namedview
     id="namedview1"
     pagecolor="#ffffff"
     bordercolor="#000000"
     borderopacity="0.25"
     inkscape:showpageshadow="2"
     inkscape:pageopacity="0.0"
     inkscape:pagecheckerboard="0"
     inkscape:deskcolor="#d1d1d1">
    <inkscape:page
       x="0"
       y="0"
       inkscape:label="1"
       id="page1"
       width="801.27997"
       height="309.44"
       margin="0"
       bleed="0" />
  </sodipodi:namedview>
  <g
     id="g1"
     inkscape:groupmode="layer"
     inkscape:label="1">
    <path
       id="path1"
       d="M 0,0 H 836 V 322 H 0 Z"
       style="fill:#ffffff;fill-opacity:1;fill-rule:nonzero;stroke:none"
       transform="scale(0.95853266)"
       clip-path="url(#clipPath2)" />
    <path
       id="path3"
       d="M 102,9 V 298.89999"
       style="fill:none;stroke:#000000;stroke-width:1;stroke-linecap:butt;stroke-linejoin:miter;stroke-miterlimit:10;stroke-dasharray:none;stroke-opacity:1"
       transform="matrix(0.95853266,0,0,0.95853266,0.47926634,0.47926634)"
       clip-path="url(#clipPath4)" />
    <path
       id="path5"
       d="m 102,305.64999 -4.5,-9 4.5,2.25 4.5,-2.25 z"
       style="fill:#000000;fill-opacity:1;fill-rule:nonzero;stroke:#000000;stroke-width:1;stroke-linecap:butt;stroke-linejoin:miter;stroke-miterlimit:10;stroke-dasharray:none;stroke-opacity:1"
       transform="matrix(0.95853266,0,0,0.95853266,0.47926634,0.47926634)"
       clip-path="url(#clipPath6)" />
    <text
       id="text6"
       xml:space="preserve"
       transform="matrix(0.9585423,0,0,0.9585423,0.13479501,24.9221)"
       clip-path="url(#clipPath7)"><tspan
         style="font-style:oblique;font-variant:normal;font-weight:normal;font-size:20px;font-family:Helvetica;writing-mode:lr-tb;fill:#000000;fill-opacity:1;fill-rule:nonzero;stroke:none"
         x="0 11.484375 15.927734 32.587891"
         y="0"
         sodipodi:role="line"
         id="tspan6">Time</tspan></text>
    <path
       id="path8"
       d="M 102,9 H 832.01001"
       style="fill:none;stroke:#000000;stroke-width:1;stroke-linecap:butt;stroke-linejoin:miter;stroke-miterlimit:10;stroke-dasharray:none;stroke-opacity:1"
       transform="matrix(0.95853266,0,0,0.95853266,0.47926634,0.47926634)"
       clip-path="url(#clipPath9)" />
    <text
       id="text9"
       xml:space="preserve"
       transform="matrix(0.9585423,0,0,0.9585423,58.890442,24.9221)"
       clip-path="url(#clipPath10)"><tspan
         style="font-style:oblique;font-variant:normal;font-weight:normal;font-size:20px;font-family:Helvetica;writing-mode:lr-tb;fill:#000000;fill-opacity:1;fill-rule:nonzero;stroke:none"
         x="0 11.123047"
         y="0"
         sodipodi:role="line"
         id="tspan9">0s</tspan></text>
    <path
       id="path11"
       d="M 127,9 H 227 V 199 H 127 Z"
       style="fill:#dae8fc;fill-opacity:1;fill-rule:nonzero;stroke:#6c8ebf;stroke-width:1;stroke-linecap:butt;stroke-linejoin:miter;stroke-miterlimit:10;stroke-dasharray:none;stroke-opacity:1"
       transform="scale(0.95853266)"
       clip-path="url(#clipPath12)" />
    <text
       id="text12"
       xml:space="preserve"
       transform="matrix(0.9585423,0,0,0.9585423,127.54603,106.39819)"
       clip-path="url(#clipPath13)"><tspan
         style="font-variant:normal;font-weight:normal;font-size:20px;font-family:Helvetica;writing-mode:lr-tb;fill:#000000;fill-opacity:1;fill-rule:nonzero;stroke:none"
         x="0 11.123047 22.246094 32.246094 43.369141 48.925781 60.048828 65.605469 76.728516"
         y="0"
         sodipodi:role="line"
         id="tspan12">pbkdf2 #1</tspan></text>
    <path
       id="path14"
       d="M 237,9 H 337 V 199 H 237 Z"
       style="fill:#dae8fc;fill-opacity:1;fill-rule:nonzero;stroke:#6c8ebf;stroke-width:1;stroke-linecap:butt;stroke-linejoin:miter;stroke-miterlimit:10;stroke-dasharray:none;stroke-opacity:1"
       transform="scale(0.95853266)"
       clip-path="url(#clipPath15)" />
    <text
       id="text15"
       xml:space="preserve"
       transform="matrix(0.9585423,0,0,0.9585423,232.98569,106.39819)"
       clip-path="url(#clipPath16)"><tspan
         style="font-variant:normal;font-weight:normal;font-size:20px;font-family:Helvetica;writing-mode:lr-tb;fill:#000000;fill-opacity:1;fill-rule:nonzero;stroke:none"
         x="0 11.123047 22.246094 32.246094 43.369141 48.925781 60.048828 65.605469 76.728516"
         y="0"
         sodipodi:role="line"
         id="tspan15">pbkdf2 #2</tspan></text>
    <path
       id="path17"
       d="M 347,9 H 447 V 199 H 347 Z"
       style="fill:#dae8fc;fill-opacity:1;fill-rule:nonzero;stroke:#6c8ebf;stroke-width:1;stroke-linecap:butt;stroke-linejoin:miter;stroke-miterlimit:10;stroke-dasharray:none;stroke-opacity:1"
       transform="scale(0.95853266)"
       clip-path="url(#clipPath18)" />
    <text
       id="text18"
       xml:space="preserve"
       transform="matrix(0.9585423,0,0,0.9585423,338.42534,106.39819)"
       clip-path="url(#clipPath19)"><tspan
         style="font-variant:normal;font-weight:normal;font-size:20px;font-family:Helvetica;writing-mode:lr-tb;fill:#000000;fill-opacity:1;fill-rule:nonzero;stroke:none"
         x="0 11.123047 22.246094 32.246094 43.369141 48.925781 60.048828 65.605469 76.728516"
         y="0"
         sodipodi:role="line"
         id="tspan18">pbkdf2 #3</tspan></text>
    <path
       id="path20"
       d="M 457,9 H 557 V 199 H 457 Z"
       style="fill:#dae8fc;fill-opacity:1;fill-rule:nonzero;stroke:#6c8ebf;stroke-width:1;stroke-linecap:butt;stroke-linejoin:miter;stroke-miterlimit:10;stroke-dasharray:none;stroke-opacity:1"
       transform="scale(0.95853266)"
       clip-path="url(#clipPath21)" />
    <text
       id="text21"
       xml:space="preserve"
       transform="matrix(0.9585423,0,0,0.9585423,443.86499,106.39819)"
       clip-path="url(#clipPath22)"><tspan
         style="font-variant:normal;font-weight:normal;font-size:20px;font-family:Helvetica;writing-mode:lr-tb;fill:#000000;fill-opacity:1;fill-rule:nonzero;stroke:none"
         x="0 11.123047 22.246094 32.246094 43.369141 48.925781 60.048828 65.605469 76.728516"
         y="0"
         sodipodi:role="line"
         id="tspan21">pbkdf2 #4</tspan></text>
    <path
       id="path23"
       d="m 82,197.5 h 9.000092 v 3 H 82 m 18.00018,-3 h 9.00009 v 3 h -9.00009 m 18.00018,-3 h 9.00009 v 3 h -9.00009 m 18.00017,-3 h 9.0001 v 3 h -9.0001 m 18.00019,-3 h 9.00009 v 3 h -9.00009 m 18.00018,-3 h 9.00008 v 3 h -9.00008 m 18.00017,-3 h 9.00009 v 3 h -9.00009 m 18.00018,-3 h 9.00009 v 3 h -9.00009 m 18.00018,-3 h 9.0001 v 3 h -9.0001 m 18.00019,-3 h 9.00009 v 3 h -9.00009 m 18.00018,-3 h 9.00009 v 3 h -9.00009 m 18.00015,-3 h 9.00013 v 3 h -9.00013 m 18.00019,-3 h 9.00012 v 3 h -9.00012 m 18.00018,-3 h 9.00012 v 3 h -9.00012 m 18.00018,-3 h 9.00009 v 3 h -9.00009 m 18.00019,-3 h 9.00009 v 3 h -9.00009 m 18.00018,-3 h 9.00009 v 3 h -9.00009 m 18.00018,-3 h 9.00009 v 3 h -9.00009 m 18.00018,-3 h 9.0001 v 3 h -9.0001 m 18.00019,-3 h 9.00009 v 3 h -9.00009 m 18.00018,-3 h 9.00006 v 3 h -9.00006 m 18.00015,-3 h 9.0001 v 3 h -9.0001 m 18.00019,-3 h 9.00009 v 3 h -9.00009 m 18.00018,-3 h 9.00009 v 3 h -9.00009 m 18.00015,-3 h 9.00012 v 3 h -9.00012 m 18.00025,-3 h 9.00006 v 3 h -9.00006 m 18.00012,-3 h 9.00012 v 3 h -9.00012 m 18.00024,-3 h 9.00006 v 3 h -9.00006 m 18.00012,-3 h 9.00013 v 3 H 586.005 m 18.00019,-3 h 9.00012 v 3 h -9.00012 m 18.00018,-3 h 9.00012 v 3 h -9.00012 m 18.00018,-3 h 9.00013 v 3 h -9.00013 m 18.00019,-3 h 9.00006 v 3 h -9.00006 m 18.00018,-3 h 9.00006 v 3 h -9.00006 m 18.00018,-3 h 9.00006 v 3 h -9.00006 m 18.00019,-3 h 9.00006 v 3 h -9.00006 m 18.00018,-3 h 9.00006 v 3 h -9.00006 m 18.00018,-3 h 9.00006 v 3 h -9.00006 m 18.00019,-3 h 9.00006 v 3 h -9.00006 m 18.00018,-3 h 8.00299 v 3 h -8.00299"
       style="fill:#000000;fill-opacity:1;fill-rule:nonzero;stroke:none"
       transform="matrix(0.95853266,0,0,0.95853266,0.47926634,0.47926634)"
       clip-path="url(#clipPath24)" />
    <text
       id="text24"
       xml:space="preserve"
       transform="matrix(0.9585423,0,0,0.9585423,39.719596,197.45971)"
       clip-path="url(#clipPath25)"><tspan
         style="font-variant:normal;font-weight:normal;font-size:20px;font-family:Helvetica;writing-mode:lr-tb;fill:#000000;fill-opacity:1;fill-rule:nonzero;stroke:none"
         x="0 11.123047"
         y="0"
         sodipodi:role="line"
         id="tspan24">2s</tspan></text>
    <path
       id="path26"
       d="m 569.01001,9 h 100 v 190 h -100 z"
       style="fill:#dae8fc;fill-opacity:1;fill-rule:nonzero;stroke:#6c8ebf;stroke-width:1;stroke-linecap:butt;stroke-linejoin:miter;stroke-miterlimit:10;stroke-dasharray:none;stroke-opacity:1"
       transform="scale(0.95853266)"
       clip-path="url(#clipPath27)" />
    <text
       id="text27"
       xml:space="preserve"
       transform="matrix(0.9585423,0,0,0.9585423,551.22173,106.39819)"
       clip-path="url(#clipPath28)"><tspan
         style="font-variant:normal;font-weight:normal;font-size:20px;font-family:Helvetica;writing-mode:lr-tb;fill:#000000;fill-opacity:1;fill-rule:nonzero;stroke:none"
         x="0 11.123047 22.246094 32.246094 43.369141 48.925781 60.048828 65.605469 76.728516"
         y="0"
         sodipodi:role="line"
         id="tspan27">pbkdf2 #5</tspan></text>
    <path
       id="path29"
       d="m 679.01001,9 h 100 v 190 h -100 z"
       style="fill:#dae8fc;fill-opacity:1;fill-rule:nonzero;stroke:#6c8ebf;stroke-width:1;stroke-linecap:butt;stroke-linejoin:miter;stroke-miterlimit:10;stroke-dasharray:none;stroke-opacity:1"
       transform="scale(0.95853266)"
       clip-path="url(#clipPath30)" />
    <text
       id="text30"
       xml:space="preserve"
       transform="matrix(0.9585423,0,0,0.9585423,656.66138,106.39819)"
       clip-path="url(#clipPath31)"><tspan
         style="font-variant:normal;font-weight:normal;font-size:20px;font-family:Helvetica;writing-mode:lr-tb;fill:#000000;fill-opacity:1;fill-rule:nonzero;stroke:none"
         x="0 11.123047 22.246094 32.246094 43.369141 48.925781 60.048828 65.605469 76.728516"
         y="0"
         sodipodi:role="line"
         id="tspan30">pbkdf2 #6</tspan></text>
  </g>
</svg>
