<?xml version="1.0" encoding="UTF-8" standalone="no"?>
<!-- Created with Inkscape (http://www.inkscape.org/) -->

<svg
   version="1.1"
   id="svg1"
   width="626.56"
   height="517.44"
   viewBox="0 0 626.56 517.44"
   sodipodi:docname="node-1.pdf"
   xmlns:inkscape="http://www.inkscape.org/namespaces/inkscape"
   xmlns:sodipodi="http://sodipodi.sourceforge.net/DTD/sodipodi-0.dtd"
   xmlns="http://www.w3.org/2000/svg"
   xmlns:svg="http://www.w3.org/2000/svg">
  <defs
     id="defs1">
    <clipPath
       clipPathUnits="userSpaceOnUse"
       id="clipPath2">
      <path
         d="M 0,0 H 1958.3333 V 1613.978 H 0 Z"
         transform="scale(0.33395747)"
         clip-rule="evenodd"
         id="path2" />
    </clipPath>
    <clipPath
       clipPathUnits="userSpaceOnUse"
       id="clipPath4">
      <path
         d="M 0,0 H 1958.3333 V 1610.9836 H 0 Z"
         transform="matrix(0.33395747,0,0,0.33395747,-0.5,-0.5)"
         clip-rule="evenodd"
         id="path4" />
    </clipPath>
    <clipPath
       clipPathUnits="userSpaceOnUse"
       id="clipPath6">
      <path
         d="M 0,0 H 1958.3333 V 1610.9836 H 0 Z"
         transform="matrix(0.33395747,0,0,0.33395747,-0.5,-0.5)"
         clip-rule="evenodd"
         id="path6" />
    </clipPath>
    <clipPath
       clipPathUnits="userSpaceOnUse"
       id="clipPath8">
      <path
         d="M 0,0 H 1958.3333 V 1610.9836 H 0 Z"
         transform="scale(0.33395747)"
         clip-rule="evenodd"
         id="path8" />
    </clipPath>
    <clipPath
       clipPathUnits="userSpaceOnUse"
       id="clipPath9">
      <path
         d="M 0,0 H 1958.3333 V 1610.9836 H 0 Z"
         transform="matrix(0.33395411,0,0,0.33395411,-97.828125,-72)"
         clip-rule="evenodd"
         id="path9" />
    </clipPath>
    <clipPath
       clipPathUnits="userSpaceOnUse"
       id="clipPath11">
      <path
         d="M 0,0 H 1958.3333 V 1610.9836 H 0 Z"
         transform="matrix(0.33395747,0,0,0.33395747,-0.5,-0.5)"
         clip-rule="evenodd"
         id="path11" />
    </clipPath>
    <clipPath
       clipPathUnits="userSpaceOnUse"
       id="clipPath13">
      <path
         d="M 0,0 H 1958.3333 V 1610.9836 H 0 Z"
         transform="matrix(0.33395747,0,0,0.33395747,-0.5,-0.5)"
         clip-rule="evenodd"
         id="path13" />
    </clipPath>
    <clipPath
       clipPathUnits="userSpaceOnUse"
       id="clipPath14">
      <path
         d="M 0,0 H 1958.3333 V 1610.9836 H 0 Z"
         transform="matrix(0.33395411,0,0,0.33395411,-220.0625,-19)"
         clip-rule="evenodd"
         id="path14" />
    </clipPath>
    <clipPath
       clipPathUnits="userSpaceOnUse"
       id="clipPath16">
      <path
         d="M 0,0 H 1958.3333 V 1610.9836 H 0 Z"
         transform="matrix(0.33395747,0,0,0.33395747,-0.5,-0.5)"
         clip-rule="evenodd"
         id="path16" />
    </clipPath>
    <clipPath
       clipPathUnits="userSpaceOnUse"
       id="clipPath18">
      <path
         d="M 0,0 H 1958.3333 V 1610.9836 H 0 Z"
         transform="matrix(0.33395747,0,0,0.33395747,-0.5,-0.5)"
         clip-rule="evenodd"
         id="path18" />
    </clipPath>
    <clipPath
       clipPathUnits="userSpaceOnUse"
       id="clipPath20">
      <path
         d="M 0,0 H 1958.3333 V 1610.9836 H 0 Z"
         transform="scale(0.33395411)"
         clip-rule="evenodd"
         id="path20" />
    </clipPath>
    <clipPath
       clipPathUnits="userSpaceOnUse"
       id="clipPath21">
      <path
         d="M 0,0 H 1958.3333 V 1610.9836 H 0 Z"
         transform="matrix(0.33395411,0,0,0.33395411,-488.71875,-153)"
         clip-rule="evenodd"
         id="path21" />
    </clipPath>
    <clipPath
       clipPathUnits="userSpaceOnUse"
       id="clipPath23">
      <path
         d="M 0,0 H 1958.3333 V 1610.9836 H 0 Z"
         transform="matrix(0.33395747,0,0,0.33395747,-0.5,-0.5)"
         clip-rule="evenodd"
         id="path23" />
    </clipPath>
    <clipPath
       clipPathUnits="userSpaceOnUse"
       id="clipPath25">
      <path
         d="M 0,0 H 1958.3333 V 1610.9836 H 0 Z"
         transform="matrix(0.33395747,0,0,0.33395747,-0.5,-0.5)"
         clip-rule="evenodd"
         id="path25" />
    </clipPath>
    <clipPath
       clipPathUnits="userSpaceOnUse"
       id="clipPath27">
      <path
         d="M 0,0 H 1958.3333 V 1610.9836 H 0 Z"
         transform="scale(0.33395411)"
         clip-rule="evenodd"
         id="path27" />
    </clipPath>
    <clipPath
       clipPathUnits="userSpaceOnUse"
       id="clipPath28">
      <path
         d="M 0,0 H 1958.3333 V 1610.9836 H 0 Z"
         transform="matrix(0.33395411,0,0,0.33395411,-262.1875,-204)"
         clip-rule="evenodd"
         id="path28" />
    </clipPath>
    <clipPath
       clipPathUnits="userSpaceOnUse"
       id="clipPath30">
      <path
         d="M 0,0 H 1958.3333 V 1610.9836 H 0 Z"
         transform="scale(0.33395747)"
         clip-rule="evenodd"
         id="path30" />
    </clipPath>
    <clipPath
       clipPathUnits="userSpaceOnUse"
       id="clipPath31">
      <path
         d="M 0,0 H 1958.3333 V 1610.9836 H 0 Z"
         transform="matrix(0.33395411,0,0,0.33395411,-118.40625,-140)"
         clip-rule="evenodd"
         id="path31" />
    </clipPath>
    <clipPath
       clipPathUnits="userSpaceOnUse"
       id="clipPath32">
      <path
         d="M 0,0 H 1958.3333 V 1610.9836 H 0 Z"
         transform="matrix(0.33395411,0,0,0.33395411,-152.32812,-164)"
         clip-rule="evenodd"
         id="path32" />
    </clipPath>
    <clipPath
       clipPathUnits="userSpaceOnUse"
       id="clipPath34">
      <path
         d="M 0,0 H 1958.3333 V 1610.9836 H 0 Z"
         transform="scale(0.33395747)"
         clip-rule="evenodd"
         id="path34" />
    </clipPath>
    <clipPath
       clipPathUnits="userSpaceOnUse"
       id="clipPath35">
      <path
         d="M 0,0 H 1958.3333 V 1610.9836 H 0 Z"
         transform="matrix(0.33395411,0,0,0.33395411,-562.64063,-140)"
         clip-rule="evenodd"
         id="path35" />
    </clipPath>
    <clipPath
       clipPathUnits="userSpaceOnUse"
       id="clipPath36">
      <path
         d="M 0,0 H 1958.3333 V 1610.9836 H 0 Z"
         transform="matrix(0.33395411,0,0,0.33395411,-558.75,-164)"
         clip-rule="evenodd"
         id="path36" />
    </clipPath>
    <clipPath
       clipPathUnits="userSpaceOnUse"
       id="clipPath38">
      <path
         d="M 0,0 H 1958.3333 V 1610.9836 H 0 Z"
         transform="matrix(0.33395747,0,0,0.33395747,-0.5,-0.5)"
         clip-rule="evenodd"
         id="path38" />
    </clipPath>
    <clipPath
       clipPathUnits="userSpaceOnUse"
       id="clipPath40">
      <path
         d="M 0,0 H 1958.3333 V 1610.9836 H 0 Z"
         transform="matrix(0.33395747,0,0,0.33395747,-0.5,-0.5)"
         clip-rule="evenodd"
         id="path40" />
    </clipPath>
    <clipPath
       clipPathUnits="userSpaceOnUse"
       id="clipPath42">
      <path
         d="M 0,0 H 1958.3333 V 1610.9836 H 0 Z"
         transform="scale(0.33395747)"
         clip-rule="evenodd"
         id="path42" />
    </clipPath>
    <clipPath
       clipPathUnits="userSpaceOnUse"
       id="clipPath43">
      <path
         d="M 0,0 H 1958.3333 V 1610.9836 H 0 Z"
         transform="matrix(0.33395411,0,0,0.33395411,-142.76563,-252)"
         clip-rule="evenodd"
         id="path43" />
    </clipPath>
    <clipPath
       clipPathUnits="userSpaceOnUse"
       id="clipPath45">
      <path
         d="M 0,0 H 1958.3333 V 1610.9836 H 0 Z"
         transform="matrix(0.33395747,0,0,0.33395747,-0.5,-0.5)"
         clip-rule="evenodd"
         id="path45" />
    </clipPath>
    <clipPath
       clipPathUnits="userSpaceOnUse"
       id="clipPath47">
      <path
         d="M 0,0 H 1958.3333 V 1610.9836 H 0 Z"
         transform="matrix(0.33395747,0,0,0.33395747,-0.5,-0.5)"
         clip-rule="evenodd"
         id="path47" />
    </clipPath>
    <clipPath
       clipPathUnits="userSpaceOnUse"
       id="clipPath49">
      <path
         d="M 0,0 H 1958.3333 V 1610.9836 H 0 Z"
         transform="scale(0.33395747)"
         clip-rule="evenodd"
         id="path49" />
    </clipPath>
    <clipPath
       clipPathUnits="userSpaceOnUse"
       id="clipPath50">
      <path
         d="M 0,0 H 1958.3333 V 1610.9836 H 0 Z"
         transform="matrix(0.33395411,0,0,0.33395411,-131.76563,-303)"
         clip-rule="evenodd"
         id="path50" />
    </clipPath>
    <clipPath
       clipPathUnits="userSpaceOnUse"
       id="clipPath51">
      <path
         d="M 0,0 H 1958.3333 V 1610.9836 H 0 Z"
         transform="matrix(0.33395411,0,0,0.33395411,-108.95313,-327)"
         clip-rule="evenodd"
         id="path51" />
    </clipPath>
    <clipPath
       clipPathUnits="userSpaceOnUse"
       id="clipPath52">
      <path
         d="M 0,0 H 1958.3333 V 1610.9836 H 0 Z"
         transform="matrix(0.33395411,0,0,0.33395411,-202.32813,-351)"
         clip-rule="evenodd"
         id="path52" />
    </clipPath>
    <clipPath
       clipPathUnits="userSpaceOnUse"
       id="clipPath54">
      <path
         d="M 0,0 H 1958.3333 V 1610.9836 H 0 Z"
         transform="matrix(0.33395747,0,0,0.33395747,-0.5,-0.5)"
         clip-rule="evenodd"
         id="path54" />
    </clipPath>
    <clipPath
       clipPathUnits="userSpaceOnUse"
       id="clipPath56">
      <path
         d="M 0,0 H 1958.3333 V 1610.9836 H 0 Z"
         transform="matrix(0.33395747,0,0,0.33395747,-0.5,-0.5)"
         clip-rule="evenodd"
         id="path56" />
    </clipPath>
    <clipPath
       clipPathUnits="userSpaceOnUse"
       id="clipPath58">
      <path
         d="M 0,0 H 1958.3333 V 1610.9836 H 0 Z"
         transform="scale(0.33395747)"
         clip-rule="evenodd"
         id="path58" />
    </clipPath>
    <clipPath
       clipPathUnits="userSpaceOnUse"
       id="clipPath59">
      <path
         d="M 0,0 H 1958.3333 V 1610.9836 H 0 Z"
         transform="matrix(0.33395411,0,0,0.33395411,-126.90625,-402)"
         clip-rule="evenodd"
         id="path59" />
    </clipPath>
    <clipPath
       clipPathUnits="userSpaceOnUse"
       id="clipPath61">
      <path
         d="M 0,0 H 1958.3333 V 1610.9836 H 0 Z"
         transform="matrix(0.33395747,0,0,0.33395747,-0.5,-0.5)"
         clip-rule="evenodd"
         id="path61" />
    </clipPath>
    <clipPath
       clipPathUnits="userSpaceOnUse"
       id="clipPath63">
      <path
         d="M 0,0 H 1958.3333 V 1610.9836 H 0 Z"
         transform="matrix(0.33395747,0,0,0.33395747,-0.5,-0.5)"
         clip-rule="evenodd"
         id="path63" />
    </clipPath>
    <clipPath
       clipPathUnits="userSpaceOnUse"
       id="clipPath65">
      <path
         d="M 0,0 H 1958.3333 V 1610.9836 H 0 Z"
         transform="scale(0.33395747)"
         clip-rule="evenodd"
         id="path65" />
    </clipPath>
    <clipPath
       clipPathUnits="userSpaceOnUse"
       id="clipPath66">
      <path
         d="M 0,0 H 1958.3333 V 1610.9836 H 0 Z"
         transform="matrix(0.33395411,0,0,0.33395411,-131.82813,-462)"
         clip-rule="evenodd"
         id="path66" />
    </clipPath>
    <clipPath
       clipPathUnits="userSpaceOnUse"
       id="clipPath68">
      <path
         d="M 0,0 H 1958.3333 V 1610.9836 H 0 Z"
         transform="matrix(0.33395747,0,0,0.33395747,-0.5,-0.5)"
         clip-rule="evenodd"
         id="path68" />
    </clipPath>
    <clipPath
       clipPathUnits="userSpaceOnUse"
       id="clipPath70">
      <path
         d="M 0,0 H 1958.3333 V 1610.9836 H 0 Z"
         transform="matrix(0.33395747,0,0,0.33395747,-0.5,-0.5)"
         clip-rule="evenodd"
         id="path70" />
    </clipPath>
    <clipPath
       clipPathUnits="userSpaceOnUse"
       id="clipPath72">
      <path
         d="M 0,0 H 1958.3333 V 1610.9836 H 0 Z"
         transform="scale(0.33395411)"
         clip-rule="evenodd"
         id="path72" />
    </clipPath>
    <clipPath
       clipPathUnits="userSpaceOnUse"
       id="clipPath73">
      <path
         d="M 0,0 H 1958.3333 V 1610.9836 H 0 Z"
         transform="matrix(0.33395411,0,0,0.33395411,-0.25,-328)"
         clip-rule="evenodd"
         id="path73" />
    </clipPath>
    <clipPath
       clipPathUnits="userSpaceOnUse"
       id="clipPath75">
      <path
         d="M 0,0 H 1958.3333 V 1610.9836 H 0 Z"
         transform="scale(0.33395747)"
         clip-rule="evenodd"
         id="path75" />
    </clipPath>
    <clipPath
       clipPathUnits="userSpaceOnUse"
       id="clipPath76">
      <path
         d="M 0,0 H 1958.3333 V 1610.9836 H 0 Z"
         transform="matrix(0.33395411,0,0,0.33395411,-188.4375,-521.99999)"
         clip-rule="evenodd"
         id="path76" />
    </clipPath>
  </defs>
  <sodipodi:namedview
     id="namedview1"
     pagecolor="#ffffff"
     bordercolor="#000000"
     borderopacity="0.25"
     inkscape:showpageshadow="2"
     inkscape:pageopacity="0.0"
     inkscape:pagecheckerboard="0"
     inkscape:deskcolor="#d1d1d1">
    <inkscape:page
       x="0"
       y="0"
       inkscape:label="1"
       id="page1"
       width="626.56"
       height="517.44"
       margin="0"
       bleed="0" />
  </sodipodi:namedview>
  <g
     id="g1"
     inkscape:groupmode="layer"
     inkscape:label="1">
    <path
       id="path1"
       d="M 0,0 H 654 V 539 H 0 Z"
       style="fill:#ffffff;fill-opacity:1;fill-rule:nonzero;stroke:none"
       transform="scale(0.95820582)"
       clip-path="url(#clipPath2)" />
    <path
       id="path3"
       d="m 278.5,85 v 20 -10 9.9"
       style="fill:none;stroke:#000000;stroke-width:1;stroke-linecap:butt;stroke-linejoin:miter;stroke-miterlimit:10;stroke-dasharray:none;stroke-opacity:1"
       transform="matrix(0.95820582,0,0,0.95820582,0.47910291,0.47910291)"
       clip-path="url(#clipPath4)" />
    <path
       id="path5"
       d="m 278.5,111.65 -4.5,-9 4.5,2.25 4.5,-2.25 z"
       style="fill:#000000;fill-opacity:1;fill-rule:nonzero;stroke:#000000;stroke-width:1;stroke-linecap:butt;stroke-linejoin:miter;stroke-miterlimit:10;stroke-dasharray:none;stroke-opacity:1"
       transform="matrix(0.95820582,0,0,0.95820582,0.47910291,0.47910291)"
       clip-path="url(#clipPath6)" />
    <path
       id="path7"
       d="M 91,45 H 466 V 85 H 91 Z"
       style="fill:#ffffff;fill-opacity:1;fill-rule:nonzero;stroke:#000000;stroke-width:1;stroke-linecap:butt;stroke-linejoin:miter;stroke-miterlimit:10;stroke-dasharray:none;stroke-opacity:1"
       transform="scale(0.95820582)"
       clip-path="url(#clipPath8)" />
    <g
       id="g8" />
    <text
       id="text8"
       xml:space="preserve"
       transform="matrix(0.95821545,0,0,0.95821545,93.740421,68.991512)"
       clip-path="url(#clipPath9)"><tspan
         style="font-variant:normal;font-weight:normal;font-size:20px;font-family:Helvetica;writing-mode:lr-tb;fill:#000000;fill-opacity:1;fill-rule:nonzero;stroke:none"
         x="0 13.339844 20 31.123047 41.123047 52.246094 62.246094 72.246094 77.802734 88.925781 100.04883 111.17188 116.72852 127.85156 137.85156 148.97461 158.97461 170.09766 175.6543 186.77734 192.33398 202.33398 213.45703 224.58008 235.70312 241.25977 245.70312 256.82617 262.38281 266.82617 277.94922 289.07227 300.19531 310.19531 315.75195 320.19531 330.19531 335.75195 345.75195 350.19531"
         y="0"
         sodipodi:role="line"
         id="tspan8">Process and execute code in index.js ﬁle</tspan></text>
    <path
       id="path10"
       d="M 278.5,22 V 42 25 34.900002"
       style="fill:none;stroke:#000000;stroke-width:1;stroke-linecap:butt;stroke-linejoin:miter;stroke-miterlimit:10;stroke-dasharray:none;stroke-opacity:1"
       transform="matrix(0.95820582,0,0,0.95820582,0.47910291,0.47910291)"
       clip-path="url(#clipPath11)" />
    <path
       id="path12"
       d="m 278.5,41.650002 -4.5,-9 4.5,2.25 4.5,-2.25 z"
       style="fill:#000000;fill-opacity:1;fill-rule:nonzero;stroke:#000000;stroke-width:1;stroke-linecap:butt;stroke-linejoin:miter;stroke-miterlimit:10;stroke-dasharray:none;stroke-opacity:1"
       transform="matrix(0.95820582,0,0,0.95820582,0.47910291,0.47910291)"
       clip-path="url(#clipPath13)" />
    <text
       id="text13"
       xml:space="preserve"
       transform="matrix(0.95821545,0,0,0.95821545,210.86729,18.206094)"
       clip-path="url(#clipPath14)"><tspan
         style="font-style:oblique;font-variant:normal;font-weight:normal;font-size:20px;font-family:Helvetica;writing-mode:lr-tb;fill:#000000;fill-opacity:1;fill-rule:nonzero;stroke:none"
         x="0 11.123047 22.246094 33.369141 44.492188 50.048828 54.492188 65.615234 76.738281 87.861328 97.861328 103.41797 107.86133"
         y="0"
         sodipodi:role="line"
         id="tspan13">node index.js</tspan></text>
    <path
       id="path15"
       d="m 466,145 h 64.90002"
       style="fill:none;stroke:#000000;stroke-width:1;stroke-linecap:butt;stroke-linejoin:miter;stroke-miterlimit:10;stroke-dasharray:none;stroke-opacity:1"
       transform="matrix(0.95820582,0,0,0.95820582,0.47910291,0.47910291)"
       clip-path="url(#clipPath16)" />
    <path
       id="path17"
       d="m 537.65002,145 -9,4.5 2.25,-4.5 -2.25,-4.5 z"
       style="fill:#000000;fill-opacity:1;fill-rule:nonzero;stroke:#000000;stroke-width:1;stroke-linecap:butt;stroke-linejoin:miter;stroke-miterlimit:10;stroke-dasharray:none;stroke-opacity:1"
       transform="matrix(0.95820582,0,0,0.95820582,0.47910291,0.47910291)"
       clip-path="url(#clipPath18)" />
    <path
       id="path19"
       d="m 489,135 h 25 v 24 h -25 z"
       style="fill:#ffffff;fill-opacity:1;fill-rule:nonzero;stroke:none"
       transform="scale(0.95821545)"
       clip-path="url(#clipPath20)" />
    <text
       id="text20"
       xml:space="preserve"
       transform="matrix(0.95821545,0,0,0.95821545,468.29786,146.60696)"
       clip-path="url(#clipPath21)"><tspan
         style="font-variant:normal;font-weight:normal;font-size:20px;font-family:Helvetica;writing-mode:lr-tb;fill:#000000;fill-opacity:1;fill-rule:nonzero;stroke:none"
         x="0 14.443359"
         y="0"
         sodipodi:role="line"
         id="tspan20">No</tspan></text>
    <path
       id="path22"
       d="m 278.5,175 v 39.89999"
       style="fill:none;stroke:#000000;stroke-width:1;stroke-linecap:butt;stroke-linejoin:miter;stroke-miterlimit:10;stroke-dasharray:none;stroke-opacity:1"
       transform="matrix(0.95820582,0,0,0.95820582,0.47910291,0.47910291)"
       clip-path="url(#clipPath23)" />
    <path
       id="path24"
       d="m 278.5,221.64999 -4.5,-9 4.5,2.25 4.5,-2.25 z"
       style="fill:#000000;fill-opacity:1;fill-rule:nonzero;stroke:#000000;stroke-width:1;stroke-linecap:butt;stroke-linejoin:miter;stroke-miterlimit:10;stroke-dasharray:none;stroke-opacity:1"
       transform="matrix(0.95820582,0,0,0.95820582,0.47910291,0.47910291)"
       clip-path="url(#clipPath25)" />
    <path
       id="path26"
       d="m 262,186 h 33 v 24 h -33 z"
       style="fill:#ffffff;fill-opacity:1;fill-rule:nonzero;stroke:none"
       transform="scale(0.95821545)"
       clip-path="url(#clipPath27)" />
    <text
       id="text27"
       xml:space="preserve"
       transform="matrix(0.95821545,0,0,0.95821545,251.23211,195.47595)"
       clip-path="url(#clipPath28)"><tspan
         style="font-variant:normal;font-weight:normal;font-size:20px;font-family:Helvetica;writing-mode:lr-tb;fill:#000000;fill-opacity:1;fill-rule:nonzero;stroke:none"
         x="0 11.503906 22.626953"
         y="0"
         sodipodi:role="line"
         id="tspan27">Yes</tspan></text>
    <path
       id="path29"
       d="m 91,115 h 375 v 60 H 91 Z"
       style="fill:#d5e8d4;fill-opacity:1;fill-rule:nonzero;stroke:#82b366;stroke-width:1;stroke-linecap:butt;stroke-linejoin:miter;stroke-miterlimit:10;stroke-dasharray:none;stroke-opacity:1"
       transform="scale(0.95820582)"
       clip-path="url(#clipPath30)" />
    <text
       id="text30"
       xml:space="preserve"
       transform="matrix(0.95821545,0,0,0.95821545,113.4587,134.15016)"
       clip-path="url(#clipPath31)"><tspan
         style="font-variant:normal;font-weight:normal;font-size:20px;font-family:Helvetica;writing-mode:lr-tb;fill:#000000;fill-opacity:1;fill-rule:nonzero;stroke:none"
         x="0 14.443359 25.566406 31.123047 45.566406 56.689453 62.246094 72.246094 77.802734 82.246094 86.689453 91.132812 96.689453 107.8125 118.93555 128.93555 140.05859 145.61523 160.05859 171.18164 177.8418 187.8418 193.39844 198.95508 210.07812 215.63477 226.75781 237.88086 249.00391 254.56055 265.68359 276.80664 287.92969 297.92969 303.48633 314.60938"
         y="0"
         sodipodi:role="line"
         id="tspan30">Do we still have work to do? Look at</tspan></text>
    <text
       id="text31"
       xml:space="preserve"
       transform="matrix(0.95821545,0,0,0.95821545,145.96316,157.14733)"
       clip-path="url(#clipPath32)"><tspan
         style="font-variant:normal;font-weight:normal;font-size:20px;font-family:Helvetica;writing-mode:lr-tb;fill:#000000;fill-opacity:1;fill-rule:nonzero;stroke:none"
         x="0 5.5566406 10 26.660156 37.783203 44.443359 54.443359 60 65.556641 81.113281 94.453125 100.00977 105.56641 116.68945 126.68945 136.68945 146.68945 152.24609 157.80273 163.35938 174.48242 181.14258 192.26562 203.38867 214.51172 225.63477 236.75781 247.88086"
         y="0"
         sodipodi:role="line"
         id="tspan31">timers, OS tasks, threadpool</tspan></text>
    <path
       id="path33"
       d="m 541.01001,105 h 110 v 80 h -110 z"
       style="fill:#f8cecc;fill-opacity:1;fill-rule:nonzero;stroke:#b85450;stroke-width:1;stroke-linecap:butt;stroke-linejoin:miter;stroke-miterlimit:10;stroke-dasharray:none;stroke-opacity:1"
       transform="scale(0.95820582)"
       clip-path="url(#clipPath34)" />
    <text
       id="text34"
       xml:space="preserve"
       transform="matrix(0.95821545,0,0,0.95821545,539.13094,134.15016)"
       clip-path="url(#clipPath35)"><tspan
         style="font-variant:normal;font-weight:normal;font-size:20px;font-family:Helvetica;writing-mode:lr-tb;fill:#000000;fill-opacity:1;fill-rule:nonzero;stroke:none"
         x="0 13.339844 23.339844 27.783203 33.339844 38.896484 44.453125 55.576172"
         y="0"
         sodipodi:role="line"
         id="tspan34">Exit the</tspan></text>
    <text
       id="text35"
       xml:space="preserve"
       transform="matrix(0.95821545,0,0,0.95821545,535.40288,157.14733)"
       clip-path="url(#clipPath36)"><tspan
         style="font-variant:normal;font-weight:normal;font-size:20px;font-family:Helvetica;writing-mode:lr-tb;fill:#000000;fill-opacity:1;fill-rule:nonzero;stroke:none"
         x="0 11.123047 17.783203 28.90625 40.029297 46.689453 57.8125"
         y="0"
         sodipodi:role="line"
         id="tspan35">program</tspan></text>
    <path
       id="path37"
       d="m 278.5,265 v 20 -20 9.89999"
       style="fill:none;stroke:#000000;stroke-width:1;stroke-linecap:butt;stroke-linejoin:miter;stroke-miterlimit:10;stroke-dasharray:none;stroke-opacity:1"
       transform="matrix(0.95820582,0,0,0.95820582,0.47910291,0.47910291)"
       clip-path="url(#clipPath38)" />
    <path
       id="path39"
       d="m 278.5,281.64999 -4.5,-9 4.5,2.25 4.5,-2.25 z"
       style="fill:#000000;fill-opacity:1;fill-rule:nonzero;stroke:#000000;stroke-width:1;stroke-linecap:butt;stroke-linejoin:miter;stroke-miterlimit:10;stroke-dasharray:none;stroke-opacity:1"
       transform="matrix(0.95820582,0,0,0.95820582,0.47910291,0.47910291)"
       clip-path="url(#clipPath40)" />
    <path
       id="path41"
       d="m 91,225 h 375 v 40 H 91 Z"
       style="fill:#ffffff;fill-opacity:1;fill-rule:nonzero;stroke:#000000;stroke-width:1;stroke-linecap:butt;stroke-linejoin:miter;stroke-miterlimit:10;stroke-dasharray:none;stroke-opacity:1"
       transform="scale(0.95820582)"
       clip-path="url(#clipPath42)" />
    <text
       id="text42"
       xml:space="preserve"
       transform="matrix(0.95821545,0,0,0.95821545,136.80023,241.47029)"
       clip-path="url(#clipPath43)"><tspan
         style="font-variant:normal;font-weight:normal;font-size:20px;font-family:Helvetica;writing-mode:lr-tb;fill:#000000;fill-opacity:1;fill-rule:nonzero;stroke:none"
         x="0 14.443359 25.566406 36.689453 42.246094 52.246094 63.369141 68.925781 80.410156 84.853516 101.51367 112.63672 123.75977 134.88281 140.43945 144.25781 154.25781 159.81445 165.37109 175.37109 186.49414 192.05078 197.60742 208.73047 214.28711 225.41016 232.07031 242.07031 253.19336 257.63672 261.45508"
         y="0"
         sodipodi:role="line"
         id="tspan42">Run setTimeout's, setInterval's</tspan></text>
    <path
       id="path44"
       d="m 278.5,355 v 20 -20 9.89999"
       style="fill:none;stroke:#000000;stroke-width:1;stroke-linecap:butt;stroke-linejoin:miter;stroke-miterlimit:10;stroke-dasharray:none;stroke-opacity:1"
       transform="matrix(0.95820582,0,0,0.95820582,0.47910291,0.47910291)"
       clip-path="url(#clipPath45)" />
    <path
       id="path46"
       d="m 278.5,371.64999 -4.5,-9 4.5,2.25 4.5,-2.25 z"
       style="fill:#000000;fill-opacity:1;fill-rule:nonzero;stroke:#000000;stroke-width:1;stroke-linecap:butt;stroke-linejoin:miter;stroke-miterlimit:10;stroke-dasharray:none;stroke-opacity:1"
       transform="matrix(0.95820582,0,0,0.95820582,0.47910291,0.47910291)"
       clip-path="url(#clipPath47)" />
    <path
       id="path48"
       d="m 91,285 h 375 v 70 H 91 Z"
       style="fill:#ffffff;fill-opacity:1;fill-rule:nonzero;stroke:#000000;stroke-width:1;stroke-linecap:butt;stroke-linejoin:miter;stroke-miterlimit:10;stroke-dasharray:none;stroke-opacity:1"
       transform="scale(0.95820582)"
       clip-path="url(#clipPath49)" />
    <text
       id="text49"
       xml:space="preserve"
       transform="matrix(0.95821545,0,0,0.95821545,126.25986,290.33928)"
       clip-path="url(#clipPath50)"><tspan
         style="font-variant:normal;font-weight:normal;font-size:20px;font-family:Helvetica;writing-mode:lr-tb;fill:#000000;fill-opacity:1;fill-rule:nonzero;stroke:none"
         x="0 14.443359 25.566406 36.689453 42.246094 52.246094 63.369141 67.8125 72.255859 83.378906 94.501953 104.50195 114.50195 124.50195 130.05859 135.61523 146.73828 153.39844 158.95508 170.07812 181.20117 191.20117 196.75781 207.88086 217.88086 223.4375 228.99414 240.11719 250.11719 260.11719 270.11719 275.67383 286.79688"
         y="0"
         sodipodi:role="line"
         id="tspan49">Run callbacks for any os tasks or</tspan></text>
    <text
       id="text50"
       xml:space="preserve"
       transform="matrix(0.95821545,0,0,0.95821545,104.40057,313.33645)"
       clip-path="url(#clipPath51)"><tspan
         style="font-variant:normal;font-weight:normal;font-size:20px;font-family:Helvetica;writing-mode:lr-tb;fill:#000000;fill-opacity:1;fill-rule:nonzero;stroke:none"
         x="0 5.5566406 16.679688 23.339844 34.462891 45.585938 56.708984 67.832031 78.955078 90.078125 94.521484 100.07812 105.63477 116.75781 126.75781 136.75781 146.75781 152.31445 157.87109 168.99414 180.11719 185.67383 191.23047 202.35352 209.01367 220.13672 225.69336 236.81641 247.93945 259.0625 270.18555 275.74219 281.29883 287.95898 293.51562 304.63867 309.08203 319.08203 324.63867 329.08203"
         y="0"
         sodipodi:role="line"
         id="tspan50">threadpool tasks that are done. (this is</tspan></text>
    <text
       id="text51"
       xml:space="preserve"
       transform="matrix(0.95821545,0,0,0.95821545,193.87394,336.33362)"
       clip-path="url(#clipPath52)"><tspan
         style="font-variant:normal;font-weight:normal;font-size:20px;font-family:Helvetica;writing-mode:lr-tb;fill:#000000;fill-opacity:1;fill-rule:nonzero;stroke:none"
         x="0 11.123047 22.246094 40.029297 45.585938 56.708984 62.265625 67.822266 78.945312 90.068359 96.728516 102.28516 112.28516 123.4082 134.53125 145.6543"
         y="0"
         sodipodi:role="line"
         id="tspan51">99% of our code)</tspan></text>
    <path
       id="path53"
       d="m 278.5,415 v 20 -20 9.89999"
       style="fill:none;stroke:#000000;stroke-width:1;stroke-linecap:butt;stroke-linejoin:miter;stroke-miterlimit:10;stroke-dasharray:none;stroke-opacity:1"
       transform="matrix(0.95820582,0,0,0.95820582,0.47910291,0.47910291)"
       clip-path="url(#clipPath54)" />
    <path
       id="path55"
       d="m 278.5,431.64999 -4.5,-9 4.5,2.25 4.5,-2.25 z"
       style="fill:#000000;fill-opacity:1;fill-rule:nonzero;stroke:#000000;stroke-width:1;stroke-linecap:butt;stroke-linejoin:miter;stroke-miterlimit:10;stroke-dasharray:none;stroke-opacity:1"
       transform="matrix(0.95820582,0,0,0.95820582,0.47910291,0.47910291)"
       clip-path="url(#clipPath56)" />
    <path
       id="path57"
       d="m 91,375 h 375 v 40 H 91 Z"
       style="fill:#ffffff;fill-opacity:1;fill-rule:nonzero;stroke:#000000;stroke-width:1;stroke-linecap:butt;stroke-linejoin:miter;stroke-miterlimit:10;stroke-dasharray:none;stroke-opacity:1"
       transform="scale(0.95820582)"
       clip-path="url(#clipPath58)" />
    <text
       id="text58"
       xml:space="preserve"
       transform="matrix(0.95821545,0,0,0.95821545,121.60353,385.20261)"
       clip-path="url(#clipPath59)"><tspan
         style="font-variant:normal;font-weight:normal;font-size:20px;font-family:Helvetica;writing-mode:lr-tb;fill:#000000;fill-opacity:1;fill-rule:nonzero;stroke:none"
         x="0 13.339844 24.462891 35.585938 45.585938 56.708984 62.265625 73.388672 84.511719 95.634766 101.19141 115.63477 126.75781 131.20117 136.75781 142.31445 147.87109 158.99414 165.6543 171.21094 181.21094 186.76758 197.89062 203.0957 208.65234 214.20898 219.76562 230.88867 236.44531 247.56836 258.69141 269.81445 280.9375 292.06055"
         y="0"
         sodipodi:role="line"
         id="tspan58">Pause and wait for stuff to happen</tspan></text>
    <path
       id="path60"
       d="m 278.5,475 v 20 -20 9.89999"
       style="fill:none;stroke:#000000;stroke-width:1;stroke-linecap:butt;stroke-linejoin:miter;stroke-miterlimit:10;stroke-dasharray:none;stroke-opacity:1"
       transform="matrix(0.95820582,0,0,0.95820582,0.47910291,0.47910291)"
       clip-path="url(#clipPath61)" />
    <path
       id="path62"
       d="m 278.5,491.64999 -4.5,-9 4.5,2.25 4.5,-2.25 z"
       style="fill:#000000;fill-opacity:1;fill-rule:nonzero;stroke:#000000;stroke-width:1;stroke-linecap:butt;stroke-linejoin:miter;stroke-miterlimit:10;stroke-dasharray:none;stroke-opacity:1"
       transform="matrix(0.95820582,0,0,0.95820582,0.47910291,0.47910291)"
       clip-path="url(#clipPath63)" />
    <path
       id="path64"
       d="m 91,435 h 375 v 40 H 91 Z"
       style="fill:#ffffff;fill-opacity:1;fill-rule:nonzero;stroke:#000000;stroke-width:1;stroke-linecap:butt;stroke-linejoin:miter;stroke-miterlimit:10;stroke-dasharray:none;stroke-opacity:1"
       transform="scale(0.95820582)"
       clip-path="url(#clipPath65)" />
    <text
       id="text65"
       xml:space="preserve"
       transform="matrix(0.95821545,0,0,0.95821545,126.31975,442.69554)"
       clip-path="url(#clipPath66)"><tspan
         style="font-variant:normal;font-weight:normal;font-size:20px;font-family:Helvetica;writing-mode:lr-tb;fill:#000000;fill-opacity:1;fill-rule:nonzero;stroke:none"
         x="0 14.443359 25.566406 36.689453 42.246094 53.369141 64.492188 74.492188 80.048828 83.867188 93.867188 104.99023 110.54688 116.10352 132.76367 149.42383 160.54688 171.66992 176.11328 187.23633 192.79297 203.91602 207.73438 213.29102 218.84766 229.9707 241.09375 251.09375 256.65039 261.09375 272.2168 283.33984"
         y="0"
         sodipodi:role="line"
         id="tspan65">Run any 'setImmediate' functions</tspan></text>
    <path
       id="path67"
       d="M 91,515.01001 31,515 V 145 h 49.900002"
       style="fill:none;stroke:#000000;stroke-width:1;stroke-linecap:butt;stroke-linejoin:miter;stroke-miterlimit:10;stroke-dasharray:none;stroke-opacity:1"
       transform="matrix(0.95820582,0,0,0.95820582,0.47910291,0.47910291)"
       clip-path="url(#clipPath68)" />
    <path
       id="path69"
       d="m 87.650002,145 -9,4.5 2.25,-4.5 -2.25,-4.5 z"
       style="fill:#000000;fill-opacity:1;fill-rule:nonzero;stroke:#000000;stroke-width:1;stroke-linecap:butt;stroke-linejoin:miter;stroke-miterlimit:10;stroke-dasharray:none;stroke-opacity:1"
       transform="matrix(0.95820582,0,0,0.95820582,0.47910291,0.47910291)"
       clip-path="url(#clipPath70)" />
    <path
       id="path71"
       d="m 0,310 h 65 v 24 H 0 Z"
       style="fill:#ffffff;fill-opacity:1;fill-rule:nonzero;stroke:none"
       transform="scale(0.95821545)"
       clip-path="url(#clipPath72)" />
    <text
       id="text72"
       xml:space="preserve"
       transform="matrix(0.95821545,0,0,0.95821545,0.23955386,314.29467)"
       clip-path="url(#clipPath73)"><tspan
         style="font-variant:normal;font-weight:normal;font-size:20px;font-family:Helvetica;writing-mode:lr-tb;fill:#000000;fill-opacity:1;fill-rule:nonzero;stroke:none"
         x="0 14.443359 25.566406 36.689453 47.8125 58.935547"
         y="0"
         sodipodi:role="line"
         id="tspan72">Repeat</tspan></text>
    <path
       id="path74"
       d="m 91,495 h 375 v 40 H 91 Z"
       style="fill:#ffffff;fill-opacity:1;fill-rule:nonzero;stroke:#000000;stroke-width:1;stroke-linecap:butt;stroke-linejoin:miter;stroke-miterlimit:10;stroke-dasharray:none;stroke-opacity:1"
       transform="scale(0.95820582)"
       clip-path="url(#clipPath75)" />
    <text
       id="text75"
       xml:space="preserve"
       transform="matrix(0.95821545,0,0,0.95821545,180.56372,500.18846)"
       clip-path="url(#clipPath76)"><tspan
         style="font-variant:normal;font-weight:normal;font-size:20px;font-family:Helvetica;writing-mode:lr-tb;fill:#000000;fill-opacity:1;fill-rule:nonzero;stroke:none"
         x="0 14.443359 25.566406 36.689453 47.8125 52.255859 63.378906 68.935547 78.935547 83.378906 94.501953 104.50195 115.625 121.18164 132.30469 142.30469 153.42773 164.55078 170.10742"
         y="0"
         sodipodi:role="line"
         id="tspan75">Handle close events</tspan></text>
  </g>
</svg>
