<?xml version="1.0" encoding="UTF-8" standalone="no"?>
<!-- Created with Inkscape (http://www.inkscape.org/) -->

<svg
   version="1.1"
   id="svg1"
   width="437.44"
   height="309.44"
   viewBox="0 0 437.44 309.44"
   sodipodi:docname="node-8.pdf"
   xmlns:inkscape="http://www.inkscape.org/namespaces/inkscape"
   xmlns:sodipodi="http://sodipodi.sourceforge.net/DTD/sodipodi-0.dtd"
   xmlns="http://www.w3.org/2000/svg"
   xmlns:svg="http://www.w3.org/2000/svg">
  <defs
     id="defs1">
    <clipPath
       clipPathUnits="userSpaceOnUse"
       id="clipPath2">
      <path
         d="M 0,0 H 1366.6665 V 965.05841 H 0 Z"
         transform="scale(0.33365856)"
         clip-rule="evenodd"
         id="path2" />
    </clipPath>
    <clipPath
       clipPathUnits="userSpaceOnUse"
       id="clipPath4">
      <path
         d="M 0,0 H 1366.6665 V 962.06134 H 0 Z"
         transform="matrix(0.33365856,0,0,0.33365856,-0.5,-0.5)"
         clip-rule="evenodd"
         id="path4" />
    </clipPath>
    <clipPath
       clipPathUnits="userSpaceOnUse"
       id="clipPath6">
      <path
         d="M 0,0 H 1366.6665 V 962.06134 H 0 Z"
         transform="matrix(0.33365856,0,0,0.33365856,-0.5,-0.5)"
         clip-rule="evenodd"
         id="path6" />
    </clipPath>
    <clipPath
       clipPathUnits="userSpaceOnUse"
       id="clipPath8">
      <path
         d="M 0,0 H 1366.6665 V 962.06134 H 0 Z"
         transform="scale(0.33365856)"
         clip-rule="evenodd"
         id="path8" />
    </clipPath>
    <clipPath
       clipPathUnits="userSpaceOnUse"
       id="clipPath9">
      <path
         d="M 0,0 H 1366.6665 V 962.06134 H 0 Z"
         transform="matrix(0.33365522,0,0,0.33365522,-130.84374,-81)"
         clip-rule="evenodd"
         id="path9" />
    </clipPath>
    <clipPath
       clipPathUnits="userSpaceOnUse"
       id="clipPath10">
      <path
         d="M 0,0 H 1366.6665 V 962.06134 H 0 Z"
         transform="matrix(0.33365522,0,0,0.33365522,-0.140625,-26)"
         clip-rule="evenodd"
         id="path10" />
    </clipPath>
    <clipPath
       clipPathUnits="userSpaceOnUse"
       id="clipPath12">
      <path
         d="M 0,0 H 1366.6665 V 962.06134 H 0 Z"
         transform="matrix(0.33365856,0,0,0.33365856,-0.5,-0.5)"
         clip-rule="evenodd"
         id="path12" />
    </clipPath>
    <clipPath
       clipPathUnits="userSpaceOnUse"
       id="clipPath13">
      <path
         d="M 0,0 H 1366.6665 V 962.06134 H 0 Z"
         transform="matrix(0.33365522,0,0,0.33365522,-61.4375,-26)"
         clip-rule="evenodd"
         id="path13" />
    </clipPath>
    <clipPath
       clipPathUnits="userSpaceOnUse"
       id="clipPath15">
      <path
         d="M 0,0 H 1366.6665 V 962.06134 H 0 Z"
         transform="matrix(0.33365856,0,0,0.33365856,-0.5,-0.5)"
         clip-rule="evenodd"
         id="path15" />
    </clipPath>
    <clipPath
       clipPathUnits="userSpaceOnUse"
       id="clipPath16">
      <path
         d="M 0,0 H 1366.6665 V 962.06134 H 0 Z"
         transform="matrix(0.33365522,0,0,0.33365522,-49.4375,-146)"
         clip-rule="evenodd"
         id="path16" />
    </clipPath>
    <clipPath
       clipPathUnits="userSpaceOnUse"
       id="clipPath18">
      <path
         d="M 0,0 H 1366.6665 V 962.06134 H 0 Z"
         transform="scale(0.33365856)"
         clip-rule="evenodd"
         id="path18" />
    </clipPath>
    <clipPath
       clipPathUnits="userSpaceOnUse"
       id="clipPath19">
      <path
         d="M 0,0 H 1366.6665 V 962.06134 H 0 Z"
         transform="matrix(0.33365522,0,0,0.33365522,-290.84375,-211)"
         clip-rule="evenodd"
         id="path19" />
    </clipPath>
    <clipPath
       clipPathUnits="userSpaceOnUse"
       id="clipPath21">
      <path
         d="M 0,0 H 1366.6665 V 962.06134 H 0 Z"
         transform="matrix(0.33365856,0,0,0.33365856,-0.5,-0.5)"
         clip-rule="evenodd"
         id="path21" />
    </clipPath>
    <clipPath
       clipPathUnits="userSpaceOnUse"
       id="clipPath22">
      <path
         d="M 0,0 H 1366.6665 V 962.06134 H 0 Z"
         transform="matrix(0.33365522,0,0,0.33365522,-40.875,-276)"
         clip-rule="evenodd"
         id="path22" />
    </clipPath>
  </defs>
  <sodipodi:namedview
     id="namedview1"
     pagecolor="#ffffff"
     bordercolor="#000000"
     borderopacity="0.25"
     inkscape:showpageshadow="2"
     inkscape:pageopacity="0.0"
     inkscape:pagecheckerboard="0"
     inkscape:deskcolor="#d1d1d1">
    <inkscape:page
       x="0"
       y="0"
       inkscape:label="1"
       id="page1"
       width="437.44"
       height="309.44"
       margin="0"
       bleed="0" />
  </sodipodi:namedview>
  <g
     id="g1"
     inkscape:groupmode="layer"
     inkscape:label="1">
    <path
       id="path1"
       d="M 0,0 H 456 V 322 H 0 Z"
       style="fill:#ffffff;fill-opacity:1;fill-rule:nonzero;stroke:none"
       transform="scale(0.95906422)"
       clip-path="url(#clipPath2)" />
    <path
       id="path3"
       d="M 102,9 V 298.89999"
       style="fill:none;stroke:#000000;stroke-width:1;stroke-linecap:butt;stroke-linejoin:miter;stroke-miterlimit:10;stroke-dasharray:none;stroke-opacity:1"
       transform="matrix(0.95906422,0,0,0.95906422,0.47953211,0.47953211)"
       clip-path="url(#clipPath4)" />
    <path
       id="path5"
       d="m 102,305.64999 -4.5,-9 4.5,2.25 4.5,-2.25 z"
       style="fill:#000000;fill-opacity:1;fill-rule:nonzero;stroke:#000000;stroke-width:1;stroke-linecap:butt;stroke-linejoin:miter;stroke-miterlimit:10;stroke-dasharray:none;stroke-opacity:1"
       transform="matrix(0.95906422,0,0,0.95906422,0.47953211,0.47953211)"
       clip-path="url(#clipPath6)" />
    <path
       id="path7"
       d="M 122,9 H 242 V 139 H 122 Z"
       style="fill:#ffffff;fill-opacity:1;fill-rule:nonzero;stroke:#000000;stroke-width:1;stroke-linecap:butt;stroke-linejoin:miter;stroke-miterlimit:10;stroke-dasharray:none;stroke-opacity:1"
       transform="scale(0.95906422)"
       clip-path="url(#clipPath8)" />
    <text
       id="text8"
       xml:space="preserve"
       transform="matrix(0.95907382,0,0,0.95907382,125.48881,77.684979)"
       clip-path="url(#clipPath9)"><tspan
         style="font-variant:normal;font-weight:normal;font-size:20px;font-family:Helvetica;writing-mode:lr-tb;fill:#000000;fill-opacity:1;fill-rule:nonzero;stroke:none"
         x="0 14.443359 25.566406 36.689453 47.8125 58.935547 68.935547 74.492188 80.048828 91.171875"
         y="0"
         sodipodi:role="line"
         id="tspan8">Request #1</tspan></text>
    <text
       id="text9"
       xml:space="preserve"
       transform="matrix(0.95907382,0,0,0.95907382,0.13486976,24.935919)"
       clip-path="url(#clipPath10)"><tspan
         style="font-style:oblique;font-variant:normal;font-weight:normal;font-size:20px;font-family:Helvetica;writing-mode:lr-tb;fill:#000000;fill-opacity:1;fill-rule:nonzero;stroke:none"
         x="0 11.484375 15.927734 32.587891"
         y="0"
         sodipodi:role="line"
         id="tspan9">Time</tspan></text>
    <path
       id="path11"
       d="M 102,9 H 452"
       style="fill:none;stroke:#000000;stroke-width:1;stroke-linecap:butt;stroke-linejoin:miter;stroke-miterlimit:10;stroke-dasharray:none;stroke-opacity:1"
       transform="matrix(0.95906422,0,0,0.95906422,0.47953211,0.47953211)"
       clip-path="url(#clipPath12)" />
    <text
       id="text12"
       xml:space="preserve"
       transform="matrix(0.95907382,0,0,0.95907382,58.923098,24.935919)"
       clip-path="url(#clipPath13)"><tspan
         style="font-style:oblique;font-variant:normal;font-weight:normal;font-size:20px;font-family:Helvetica;writing-mode:lr-tb;fill:#000000;fill-opacity:1;fill-rule:nonzero;stroke:none"
         x="0 11.123047"
         y="0"
         sodipodi:role="line"
         id="tspan12">0s</tspan></text>
    <path
       id="path14"
       d="m 451.99799,140.5 -9.0001,-0.0122 0.004,-3 9.00009,0.0122 m -18.00418,2.97568 -9.00009,-0.0122 0.004,-3 9.00009,0.0122 m -18.00421,2.97567 -9.00006,-0.0122 0.004,-3 9.00006,0.0122 m -18.00418,2.97568 -9.00009,-0.0122 0.004,-3 9.0001,0.0122 m -18.00422,2.97566 -9.00006,-0.0122 0.004,-3 9.00006,0.0122 m -18.00418,2.97568 -9.00006,-0.0122 0.004,-3 9.00006,0.0122 m -18.00418,2.97568 -9.00009,-0.0122 0.004,-3 9.00009,0.0122 m -18.00418,2.97568 -9.00009,-0.0122 0.004,-3 9.0001,0.0122 m -18.00422,2.97567 -9.00009,-0.0122 0.004,-3 9.00009,0.0122 m -18.00418,2.97568 -9.00009,-0.0122 0.004,-3 9.00009,0.0122 m -18.00421,2.97568 -9.00006,-0.0122 0.004,-3 9.00006,0.0122 m -18.00418,2.97568 -9.0001,-0.0122 0.004,-3 9.00009,0.0122 m -18.00422,2.97566 -9.00009,-0.0122 0.004,-3 9.0001,0.0122 m -18.00423,2.97568 -9.00009,-0.0122 0.004,-3 9.00009,0.0122 m -18.00421,2.97567 -9.00008,-0.0122 0.004,-3 9.00008,0.0122 m -18.00423,2.97568 -9.00009,-0.0122 0.004,-3 9.00009,0.0122 m -18.00424,2.97568 -9.00007,-0.0122 0.004,-3 9.00006,0.0122 m -18.00421,2.97568 -9.00009,-0.0122 0.004,-3 9.00009,0.0122 m -18.00424,2.97567 -9.00006,-0.0122 0.004,-3 9.00006,0.0122 m -18.00421,2.97567 -9.00009,-0.0122 0.004,-3 9.00009,0.0122 m -18.004215,2.97567 -9.000061,-0.0122 0.0041,-3 9.000061,0.0122"
       style="fill:#000000;fill-opacity:1;fill-rule:nonzero;stroke:none"
       transform="matrix(0.95906422,0,0,0.95906422,0.47953211,0.47953211)"
       clip-path="url(#clipPath15)" />
    <text
       id="text15"
       xml:space="preserve"
       transform="matrix(0.95907382,0,0,0.95907382,47.414212,140.02478)"
       clip-path="url(#clipPath16)"><tspan
         style="font-style:oblique;font-variant:normal;font-weight:normal;font-size:20px;font-family:Helvetica;writing-mode:lr-tb;fill:#000000;fill-opacity:1;fill-rule:nonzero;stroke:none"
         x="0 11.123047"
         y="0"
         sodipodi:role="line"
         id="tspan15">5s</tspan></text>
    <path
       id="path17"
       d="M 282,139 H 402 V 269 H 282 Z"
       style="fill:#ffffff;fill-opacity:1;fill-rule:nonzero;stroke:#000000;stroke-width:1;stroke-linecap:butt;stroke-linejoin:miter;stroke-miterlimit:10;stroke-dasharray:none;stroke-opacity:1"
       transform="scale(0.95906422)"
       clip-path="url(#clipPath18)" />
    <text
       id="text18"
       xml:space="preserve"
       transform="matrix(0.95907382,0,0,0.95907382,278.94063,202.36458)"
       clip-path="url(#clipPath19)"><tspan
         style="font-variant:normal;font-weight:normal;font-size:20px;font-family:Helvetica;writing-mode:lr-tb;fill:#000000;fill-opacity:1;fill-rule:nonzero;stroke:none"
         x="0 14.443359 25.566406 36.689453 47.8125 58.935547 68.935547 74.492188 80.048828 91.171875"
         y="0"
         sodipodi:role="line"
         id="tspan18">Request #2</tspan></text>
    <path
       id="path20"
       d="m 447.49799,270.5 -9.0001,-0.0122 0.004,-3 9.00009,0.0122 m -18.00418,2.97568 -9.00009,-0.0122 0.004,-3 9.00009,0.0122 m -18.00421,2.97567 -9.00006,-0.0122 0.004,-3 9.00006,0.0122 m -18.00418,2.97568 -9.00009,-0.0122 0.004,-3 9.0001,0.0122 m -18.00422,2.97568 -9.00006,-0.0122 0.004,-3 9.00006,0.0122 m -18.00418,2.97568 -9.00006,-0.0122 0.004,-3 9.00006,0.0122 m -18.00418,2.97567 -9.00009,-0.0122 0.004,-3 9.00009,0.0122 m -18.00418,2.97568 -9.00009,-0.0122 0.004,-3 9.0001,0.0122 m -18.00422,2.97565 -9.00009,-0.0121 0.004,-3 9.00009,0.0121 m -18.00418,2.97568 -9.00009,-0.0122 0.004,-3 9.00009,0.0122 m -18.00421,2.97567 -9.00006,-0.0121 0.004,-3 9.00006,0.0121 m -18.00418,2.97568 -9.0001,-0.0121 0.004,-3 9.00009,0.0121 m -18.00422,2.97568 -9.00009,-0.0122 0.004,-3 9.0001,0.0122 m -18.00423,2.97568 -9.00009,-0.0122 0.004,-3 9.00009,0.0122 m -18.00421,2.97567 -9.00008,-0.0121 0.004,-3 9.00008,0.0121 m -18.00423,2.97568 -9.00009,-0.0122 0.004,-3 9.00009,0.0122 m -18.00424,2.97568 -9.00007,-0.0122 0.004,-3 9.00006,0.0122 m -18.00421,2.97568 -9.00009,-0.0122 0.004,-3 9.00009,0.0122 m -18.00424,2.97567 -9.00006,-0.0122 0.004,-3 9.00006,0.0122 m -18.00421,2.97568 -9.000094,-0.0122 0.0041,-3 9.000094,0.0122 m -18.004214,2.97568 -9.000061,-0.0122 0.0041,-3 9.000061,0.0122"
       style="fill:#000000;fill-opacity:1;fill-rule:nonzero;stroke:none"
       transform="matrix(0.95906422,0,0,0.95906422,0.47953211,0.47953211)"
       clip-path="url(#clipPath21)" />
    <text
       id="text21"
       xml:space="preserve"
       transform="matrix(0.95907382,0,0,0.95907382,39.202142,264.70437)"
       clip-path="url(#clipPath22)"><tspan
         style="font-style:oblique;font-variant:normal;font-weight:normal;font-size:20px;font-family:Helvetica;writing-mode:lr-tb;fill:#000000;fill-opacity:1;fill-rule:nonzero;stroke:none"
         x="0 11.123047 22.246094"
         y="0"
         sodipodi:role="line"
         id="tspan21">10s</tspan></text>
  </g>
</svg>
