<?xml version="1.0" encoding="UTF-8" standalone="no"?>
<!-- Created with Inkscape (http://www.inkscape.org/) -->

<svg
   version="1.1"
   id="svg1"
   width="637.44"
   height="237.44"
   viewBox="0 0 637.44 237.44"
   sodipodi:docname="node-22.pdf"
   xmlns:inkscape="http://www.inkscape.org/namespaces/inkscape"
   xmlns:sodipodi="http://sodipodi.sourceforge.net/DTD/sodipodi-0.dtd"
   xmlns="http://www.w3.org/2000/svg"
   xmlns:svg="http://www.w3.org/2000/svg">
  <defs
     id="defs1">
    <clipPath
       clipPathUnits="userSpaceOnUse"
       id="clipPath2">
      <path
         d="M 0,0 H 1991.6666 V 740.87598 H 0 Z"
         transform="scale(0.33338913)"
         clip-rule="evenodd"
         id="path2" />
    </clipPath>
    <clipPath
       clipPathUnits="userSpaceOnUse"
       id="clipPath4">
      <path
         d="M 0,0 H 1991.6666 V 734.87695 H 0 Z"
         transform="scale(0.33338913)"
         clip-rule="evenodd"
         id="path4" />
    </clipPath>
    <clipPath
       clipPathUnits="userSpaceOnUse"
       id="clipPath5">
      <path
         d="M 0,0 H 1991.6666 V 734.87695 H 0 Z"
         transform="matrix(0.3333858,0,0,0.3333858,-451.54688,-19)"
         clip-rule="evenodd"
         id="path5" />
    </clipPath>
    <clipPath
       clipPathUnits="userSpaceOnUse"
       id="clipPath7">
      <path
         d="M 0,0 H 1991.6666 V 734.87695 H 0 Z"
         transform="scale(0.33338913)"
         clip-rule="evenodd"
         id="path7" />
    </clipPath>
    <clipPath
       clipPathUnits="userSpaceOnUse"
       id="clipPath8">
      <path
         d="M 0,0 H 1991.6666 V 734.87695 H 0 Z"
         transform="matrix(0.3333858,0,0,0.3333858,-560.4375,-144)"
         clip-rule="evenodd"
         id="path8" />
    </clipPath>
    <clipPath
       clipPathUnits="userSpaceOnUse"
       id="clipPath10">
      <path
         d="M 0,0 H 1991.6666 V 734.87695 H 0 Z"
         transform="matrix(0.33338913,0,0,0.33338913,-0.49999999,-0.49999999)"
         clip-rule="evenodd"
         id="path10" />
    </clipPath>
    <clipPath
       clipPathUnits="userSpaceOnUse"
       id="clipPath12">
      <path
         d="M 0,0 H 1991.6666 V 734.87695 H 0 Z"
         transform="matrix(0.33338913,0,0,0.33338913,-0.49999999,-0.49999999)"
         clip-rule="evenodd"
         id="path12" />
    </clipPath>
    <clipPath
       clipPathUnits="userSpaceOnUse"
       id="clipPath14">
      <path
         d="M 0,0 H 1991.6666 V 734.87695 H 0 Z"
         transform="scale(0.33338913)"
         clip-rule="evenodd"
         id="path14" />
    </clipPath>
    <clipPath
       clipPathUnits="userSpaceOnUse"
       id="clipPath15">
      <path
         d="M 0,0 H 1991.6666 V 734.87695 H 0 Z"
         transform="matrix(0.3333858,0,0,0.3333858,-373.95313,-199)"
         clip-rule="evenodd"
         id="path15" />
    </clipPath>
    <clipPath
       clipPathUnits="userSpaceOnUse"
       id="clipPath17">
      <path
         d="M 0,0 H 1991.6666 V 734.87695 H 0 Z"
         transform="matrix(0.33338913,0,0,0.33338913,-0.49999999,-0.49999999)"
         clip-rule="evenodd"
         id="path17" />
    </clipPath>
    <clipPath
       clipPathUnits="userSpaceOnUse"
       id="clipPath19">
      <path
         d="M 0,0 H 1991.6666 V 734.87695 H 0 Z"
         transform="matrix(0.33338913,0,0,0.33338913,-0.49999999,-0.49999999)"
         clip-rule="evenodd"
         id="path19" />
    </clipPath>
    <clipPath
       clipPathUnits="userSpaceOnUse"
       id="clipPath21">
      <path
         d="M 0,0 H 1991.6666 V 734.87695 H 0 Z"
         transform="scale(0.33338913)"
         clip-rule="evenodd"
         id="path21" />
    </clipPath>
    <clipPath
       clipPathUnits="userSpaceOnUse"
       id="clipPath22">
      <path
         d="M 0,0 H 1991.6666 V 734.87695 H 0 Z"
         transform="matrix(0.3333858,0,0,0.3333858,-373.95313,-89)"
         clip-rule="evenodd"
         id="path22" />
    </clipPath>
    <clipPath
       clipPathUnits="userSpaceOnUse"
       id="clipPath24">
      <path
         d="M 0,0 H 1991.6666 V 734.87695 H 0 Z"
         transform="matrix(0.33338913,0,0,0.33338913,-0.49999999,-0.49999999)"
         clip-rule="evenodd"
         id="path24" />
    </clipPath>
    <clipPath
       clipPathUnits="userSpaceOnUse"
       id="clipPath26">
      <path
         d="M 0,0 H 1991.6666 V 734.87695 H 0 Z"
         transform="matrix(0.33338913,0,0,0.33338913,-0.49999999,-0.49999999)"
         clip-rule="evenodd"
         id="path26" />
    </clipPath>
    <clipPath
       clipPathUnits="userSpaceOnUse"
       id="clipPath28">
      <path
         d="M 0,0 H 1991.6666 V 734.87695 H 0 Z"
         transform="scale(0.33338913)"
         clip-rule="evenodd"
         id="path28" />
    </clipPath>
    <clipPath
       clipPathUnits="userSpaceOnUse"
       id="clipPath29">
      <path
         d="M 0,0 H 1991.6666 V 734.87695 H 0 Z"
         transform="matrix(0.3333858,0,0,0.3333858,-22.03125,-76.999999)"
         clip-rule="evenodd"
         id="path29" />
    </clipPath>
    <clipPath
       clipPathUnits="userSpaceOnUse"
       id="clipPath30">
      <path
         d="M 0,0 H 1991.6666 V 734.87695 H 0 Z"
         transform="matrix(0.3333858,0,0,0.3333858,-38.734375,-101)"
         clip-rule="evenodd"
         id="path30" />
    </clipPath>
    <clipPath
       clipPathUnits="userSpaceOnUse"
       id="clipPath32">
      <path
         d="M 0,0 H 1991.6666 V 734.87695 H 0 Z"
         transform="matrix(0.33338913,0,0,0.33338913,-0.49999999,-0.49999999)"
         clip-rule="evenodd"
         id="path32" />
    </clipPath>
    <clipPath
       clipPathUnits="userSpaceOnUse"
       id="clipPath34">
      <path
         d="M 0,0 H 1991.6666 V 734.87695 H 0 Z"
         transform="matrix(0.33338913,0,0,0.33338913,-0.49999999,-0.49999999)"
         clip-rule="evenodd"
         id="path34" />
    </clipPath>
    <clipPath
       clipPathUnits="userSpaceOnUse"
       id="clipPath36">
      <path
         d="M 0,0 H 1991.6666 V 734.87695 H 0 Z"
         transform="scale(0.33338913)"
         clip-rule="evenodd"
         id="path36" />
    </clipPath>
    <clipPath
       clipPathUnits="userSpaceOnUse"
       id="clipPath37">
      <path
         d="M 0,0 H 1991.6666 V 734.87695 H 0 Z"
         transform="matrix(0.3333858,0,0,0.3333858,-2.5625,-184)"
         clip-rule="evenodd"
         id="path37" />
    </clipPath>
    <clipPath
       clipPathUnits="userSpaceOnUse"
       id="clipPath38">
      <path
         d="M 0,0 H 1991.6666 V 734.87695 H 0 Z"
         transform="matrix(0.3333858,0,0,0.3333858,-159.35938,-184)"
         clip-rule="evenodd"
         id="path38" />
    </clipPath>
    <clipPath
       clipPathUnits="userSpaceOnUse"
       id="clipPath39">
      <path
         d="M 0,0 H 1991.6666 V 734.87695 H 0 Z"
         transform="matrix(0.3333858,0,0,0.3333858,-38.734375,-208)"
         clip-rule="evenodd"
         id="path39" />
    </clipPath>
  </defs>
  <sodipodi:namedview
     id="namedview1"
     pagecolor="#ffffff"
     bordercolor="#000000"
     borderopacity="0.25"
     inkscape:showpageshadow="2"
     inkscape:pageopacity="0.0"
     inkscape:pagecheckerboard="0"
     inkscape:deskcolor="#d1d1d1">
    <inkscape:page
       x="0"
       y="0"
       inkscape:label="1"
       id="page1"
       width="637.44"
       height="237.44"
       margin="0"
       bleed="0" />
  </sodipodi:namedview>
  <g
     id="g1"
     inkscape:groupmode="layer"
     inkscape:label="1">
    <path
       id="path1"
       d="M 0,0 H 664 V 247 H 0 Z"
       style="fill:#ffffff;fill-opacity:1;fill-rule:nonzero;stroke:none"
       transform="scale(0.95983929)"
       clip-path="url(#clipPath2)" />
    <path
       id="path3"
       d="M 321,32 H 661 V 242 H 321 Z"
       style="fill:#dae8fc;fill-opacity:1;fill-rule:nonzero;stroke:#6c8ebf;stroke-width:1;stroke-linecap:butt;stroke-linejoin:miter;stroke-miterlimit:10;stroke-dasharray:none;stroke-opacity:1"
       transform="scale(0.95983929)"
       clip-path="url(#clipPath4)" />
    <text
       id="text4"
       xml:space="preserve"
       transform="matrix(0.95984889,0,0,0.95984889,433.41677,18.237129)"
       clip-path="url(#clipPath5)"><tspan
         style="font-variant:normal;font-weight:700;font-size:20px;font-family:Helvetica;writing-mode:lr-tb;fill:#000000;fill-opacity:1;fill-rule:nonzero;stroke:none"
         x="0 14.443359 20 32.216797 43.339844 50 61.123047"
         y="0"
         sodipodi:role="line"
         id="tspan4">Cluster</tspan></text>
    <path
       id="path6"
       d="m 531.01001,107 h 120 v 60 h -120 z"
       style="fill:#ffffff;fill-opacity:1;fill-rule:nonzero;stroke:#000000;stroke-width:1;stroke-linecap:butt;stroke-linejoin:miter;stroke-miterlimit:10;stroke-dasharray:none;stroke-opacity:1"
       transform="scale(0.95983929)"
       clip-path="url(#clipPath7)" />
    <text
       id="text7"
       xml:space="preserve"
       transform="matrix(0.95984889,0,0,0.95984889,537.93531,138.21824)"
       clip-path="url(#clipPath8)"><tspan
         style="font-variant:normal;font-weight:normal;font-size:20px;font-family:Helvetica;writing-mode:lr-tb;fill:#000000;fill-opacity:1;fill-rule:nonzero;stroke:none"
         x="0 16.660156 27.783203 37.783203 43.339844 54.462891"
         y="0"
         sodipodi:role="line"
         id="tspan7">Master</tspan></text>
    <path
       id="path9"
       d="m 466,192 h 32.5 v -40 h 22.40002"
       style="fill:none;stroke:#000000;stroke-width:1;stroke-linecap:butt;stroke-linejoin:miter;stroke-miterlimit:10;stroke-dasharray:none;stroke-opacity:1"
       transform="matrix(0.95983929,0,0,0.95983929,0.47991964,0.47991964)"
       clip-path="url(#clipPath10)" />
    <path
       id="path11"
       d="m 527.65002,152 -9,4.5 2.25,-4.5 -2.25,-4.5 z"
       style="fill:#000000;fill-opacity:1;fill-rule:nonzero;stroke:#000000;stroke-width:1;stroke-linecap:butt;stroke-linejoin:miter;stroke-miterlimit:10;stroke-dasharray:none;stroke-opacity:1"
       transform="matrix(0.95983929,0,0,0.95983929,0.47991964,0.47991964)"
       clip-path="url(#clipPath12)" />
    <path
       id="path13"
       d="m 346,162 h 120 v 60 H 346 Z"
       style="fill:#ffffff;fill-opacity:1;fill-rule:nonzero;stroke:#000000;stroke-width:1;stroke-linecap:butt;stroke-linejoin:miter;stroke-miterlimit:10;stroke-dasharray:none;stroke-opacity:1"
       transform="scale(0.95983929)"
       clip-path="url(#clipPath14)" />
    <text
       id="text14"
       xml:space="preserve"
       transform="matrix(0.95984889,0,0,0.95984889,358.9385,191.00993)"
       clip-path="url(#clipPath15)"><tspan
         style="font-variant:normal;font-weight:normal;font-size:20px;font-family:Helvetica;writing-mode:lr-tb;fill:#000000;fill-opacity:1;fill-rule:nonzero;stroke:none"
         x="0 18.525391 29.648438 36.308594 46.308594 57.431641"
         y="0"
         sodipodi:role="line"
         id="tspan14">Worker</tspan></text>
    <path
       id="path16"
       d="m 466,82 h 32.5 v 40 h 22.40002"
       style="fill:none;stroke:#000000;stroke-width:1;stroke-linecap:butt;stroke-linejoin:miter;stroke-miterlimit:10;stroke-dasharray:none;stroke-opacity:1"
       transform="matrix(0.95983929,0,0,0.95983929,0.47991964,0.47991964)"
       clip-path="url(#clipPath17)" />
    <path
       id="path18"
       d="m 527.65002,122 -9,4.5 2.25,-4.5 -2.25,-4.5 z"
       style="fill:#000000;fill-opacity:1;fill-rule:nonzero;stroke:#000000;stroke-width:1;stroke-linecap:butt;stroke-linejoin:miter;stroke-miterlimit:10;stroke-dasharray:none;stroke-opacity:1"
       transform="matrix(0.95983929,0,0,0.95983929,0.47991964,0.47991964)"
       clip-path="url(#clipPath19)" />
    <path
       id="path20"
       d="m 346,52 h 120 v 60 H 346 Z"
       style="fill:#ffffff;fill-opacity:1;fill-rule:nonzero;stroke:#000000;stroke-width:1;stroke-linecap:butt;stroke-linejoin:miter;stroke-miterlimit:10;stroke-dasharray:none;stroke-opacity:1"
       transform="scale(0.95983929)"
       clip-path="url(#clipPath21)" />
    <text
       id="text21"
       xml:space="preserve"
       transform="matrix(0.95984889,0,0,0.95984889,358.9385,85.426551)"
       clip-path="url(#clipPath22)"><tspan
         style="font-variant:normal;font-weight:normal;font-size:20px;font-family:Helvetica;writing-mode:lr-tb;fill:#000000;fill-opacity:1;fill-rule:nonzero;stroke:none"
         x="0 18.525391 29.648438 36.308594 46.308594 57.431641"
         y="0"
         sodipodi:role="line"
         id="tspan21">Worker</tspan></text>
    <path
       id="path23"
       d="m 211,82 h 55 l 44.89999,0.160004"
       style="fill:none;stroke:#000000;stroke-width:1;stroke-linecap:butt;stroke-linejoin:miter;stroke-miterlimit:10;stroke-dasharray:none;stroke-opacity:1"
       transform="matrix(0.95983929,0,0,0.95983929,0.47991964,0.47991964)"
       clip-path="url(#clipPath24)" />
    <path
       id="path25"
       d="m 317.64999,82.190002 -9.01999,4.470002 2.26999,-4.5 -2.22998,-4.5 z"
       style="fill:#000000;fill-opacity:1;fill-rule:nonzero;stroke:#000000;stroke-width:1;stroke-linecap:butt;stroke-linejoin:miter;stroke-miterlimit:10;stroke-dasharray:none;stroke-opacity:1"
       transform="matrix(0.95983929,0,0,0.95983929,0.47991964,0.47991964)"
       clip-path="url(#clipPath26)" />
    <path
       id="path27"
       d="m 1,52 h 210 v 60 H 1 Z"
       style="fill:#ffffff;fill-opacity:1;fill-rule:nonzero;stroke:#000000;stroke-width:1;stroke-linecap:butt;stroke-linejoin:miter;stroke-miterlimit:10;stroke-dasharray:none;stroke-opacity:1"
       transform="scale(0.95983929)"
       clip-path="url(#clipPath28)" />
    <text
       id="text28"
       xml:space="preserve"
       transform="matrix(0.95984889,0,0,0.95984889,21.146671,73.908364)"
       clip-path="url(#clipPath29)"><tspan
         style="font-variant:normal;font-weight:normal;font-size:20px;font-family:Helvetica;writing-mode:lr-tb;fill:#000000;fill-opacity:1;fill-rule:nonzero;stroke:none"
         x="0 14.443359 25.566406 36.689453 47.8125 58.935547 68.935547 74.492188 80.048828 91.171875 102.29492 113.41797 124.54102 128.98438 140.10742 151.23047 156.78711"
         y="0"
         sodipodi:role="line"
         id="tspan28">Request needing 1</tspan></text>
    <text
       id="text29"
       xml:space="preserve"
       transform="matrix(0.95984889,0,0,0.95984889,37.179147,96.944738)"
       clip-path="url(#clipPath30)"><tspan
         style="font-variant:normal;font-weight:normal;font-size:20px;font-family:Helvetica;writing-mode:lr-tb;fill:#000000;fill-opacity:1;fill-rule:nonzero;stroke:none"
         x="0 10 21.123047 31.123047 42.246094 53.369141 64.492188 70.048828 81.171875 86.728516 92.285156 106.72852 117.85156 124.51172"
         y="0"
         sodipodi:role="line"
         id="tspan29">second of work</tspan></text>
    <path
       id="path31"
       d="m 211,189 h 55 l 44.89999,0.41"
       style="fill:none;stroke:#000000;stroke-width:1;stroke-linecap:butt;stroke-linejoin:miter;stroke-miterlimit:10;stroke-dasharray:none;stroke-opacity:1"
       transform="matrix(0.95983929,0,0,0.95983929,0.47991964,0.47991964)"
       clip-path="url(#clipPath32)" />
    <path
       id="path33"
       d="m 317.64999,189.47 -9.04,4.42 2.29,-4.48 -2.20999,-4.52 z"
       style="fill:#000000;fill-opacity:1;fill-rule:nonzero;stroke:#000000;stroke-width:1;stroke-linecap:butt;stroke-linejoin:miter;stroke-miterlimit:10;stroke-dasharray:none;stroke-opacity:1"
       transform="matrix(0.95983929,0,0,0.95983929,0.47991964,0.47991964)"
       clip-path="url(#clipPath34)" />
    <path
       id="path35"
       d="m 1,159 h 210 v 60 H 1 Z"
       style="fill:#ffffff;fill-opacity:1;fill-rule:nonzero;stroke:#000000;stroke-width:1;stroke-linecap:butt;stroke-linejoin:miter;stroke-miterlimit:10;stroke-dasharray:none;stroke-opacity:1"
       transform="scale(0.95983929)"
       clip-path="url(#clipPath36)" />
    <text
       id="text36"
       xml:space="preserve"
       transform="matrix(0.95984889,0,0,0.95984889,2.4596128,176.6122)"
       clip-path="url(#clipPath37)"><tspan
         style="font-variant:normal;font-weight:normal;font-size:20px;font-family:Helvetica;writing-mode:lr-tb;fill:#000000;fill-opacity:1;fill-rule:nonzero;stroke:none"
         x="0 14.443359 25.566406 36.689453 47.8125 58.935547 68.935547 74.492188 80.048828 91.171875 102.29492 113.41797 124.54102 128.98438 140.10742 151.23047"
         y="0"
         sodipodi:role="line"
         id="tspan36">Request needing </tspan></text>
    <text
       id="text37"
       xml:space="preserve"
       transform="matrix(0.95984889,0,0,0.95984889,152.96092,176.6122)"
       clip-path="url(#clipPath38)"><tspan
         style="font-variant:normal;font-weight:700;font-size:20px;font-family:Helvetica;writing-mode:lr-tb;fill:#000000;fill-opacity:1;fill-rule:nonzero;stroke:none"
         x="0 5.5566406 16.679688 27.802734 38.925781"
         y="0"
         sodipodi:role="line"
         id="tspan37">.0001</tspan></text>
    <text
       id="text38"
       xml:space="preserve"
       transform="matrix(0.95984889,0,0,0.95984889,37.179147,199.64857)"
       clip-path="url(#clipPath39)"><tspan
         style="font-variant:normal;font-weight:normal;font-size:20px;font-family:Helvetica;writing-mode:lr-tb;fill:#000000;fill-opacity:1;fill-rule:nonzero;stroke:none"
         x="0 10 21.123047 31.123047 42.246094 53.369141 64.492188 70.048828 81.171875 86.728516 92.285156 106.72852 117.85156 124.51172"
         y="0"
         sodipodi:role="line"
         id="tspan38">second of work</tspan></text>
  </g>
</svg>
