<?xml version="1.0" encoding="UTF-8" standalone="no"?>
<!-- Created with Inkscape (http://www.inkscape.org/) -->

<svg
   version="1.1"
   id="svg1"
   width="828.15997"
   height="408"
   viewBox="0 0 828.15997 408"
   sodipodi:docname="node-18.pdf"
   xmlns:inkscape="http://www.inkscape.org/namespaces/inkscape"
   xmlns:sodipodi="http://sodipodi.sourceforge.net/DTD/sodipodi-0.dtd"
   xmlns="http://www.w3.org/2000/svg"
   xmlns:svg="http://www.w3.org/2000/svg">
  <defs
     id="defs1">
    <clipPath
       clipPathUnits="userSpaceOnUse"
       id="clipPath2">
      <path
         d="M 0,0 H 2587.4998 V 1272.7864 H 0 Z"
         transform="scale(0.33391306)"
         clip-rule="evenodd"
         id="path2" />
    </clipPath>
    <clipPath
       clipPathUnits="userSpaceOnUse"
       id="clipPath4">
      <path
         d="M 0,0 H 2587.4998 V 1269.7916 H 0 Z"
         transform="scale(0.33391306)"
         clip-rule="evenodd"
         id="path4" />
    </clipPath>
    <clipPath
       clipPathUnits="userSpaceOnUse"
       id="clipPath6">
      <path
         d="M 0,0 H 2587.4998 V 1269.7916 H 0 Z"
         transform="scale(0.33391306)"
         clip-rule="evenodd"
         id="path6" />
    </clipPath>
    <clipPath
       clipPathUnits="userSpaceOnUse"
       id="clipPath8">
      <path
         d="M 0,0 H 2587.4998 V 1269.7916 H 0 Z"
         transform="matrix(0.33391306,0,0,0.33391306,-0.5,-0.5)"
         clip-rule="evenodd"
         id="path8" />
    </clipPath>
    <clipPath
       clipPathUnits="userSpaceOnUse"
       id="clipPath10">
      <path
         d="M 0,0 H 2587.4998 V 1269.7916 H 0 Z"
         transform="matrix(0.33391306,0,0,0.33391306,-0.5,-0.5)"
         clip-rule="evenodd"
         id="path10" />
    </clipPath>
    <clipPath
       clipPathUnits="userSpaceOnUse"
       id="clipPath12">
      <path
         d="M 0,0 H 2587.4998 V 1269.7916 H 0 Z"
         transform="scale(0.33391306)"
         clip-rule="evenodd"
         id="path12" />
    </clipPath>
    <clipPath
       clipPathUnits="userSpaceOnUse"
       id="clipPath13">
      <path
         d="M 0,0 H 2587.4998 V 1269.7916 H 0 Z"
         transform="matrix(0.33390972,0,0,0.33390972,-504.85938,-83)"
         clip-rule="evenodd"
         id="path13" />
    </clipPath>
    <clipPath
       clipPathUnits="userSpaceOnUse"
       id="clipPath15">
      <path
         d="M 0,0 H 2587.4998 V 1269.7916 H 0 Z"
         transform="matrix(0.33391306,0,0,0.33391306,-0.5,-0.5)"
         clip-rule="evenodd"
         id="path15" />
    </clipPath>
    <clipPath
       clipPathUnits="userSpaceOnUse"
       id="clipPath17">
      <path
         d="M 0,0 H 2587.4998 V 1269.7916 H 0 Z"
         transform="matrix(0.33391306,0,0,0.33391306,-0.5,-0.5)"
         clip-rule="evenodd"
         id="path17" />
    </clipPath>
    <clipPath
       clipPathUnits="userSpaceOnUse"
       id="clipPath19">
      <path
         d="M 0,0 H 2587.4998 V 1269.7916 H 0 Z"
         transform="scale(0.33391306)"
         clip-rule="evenodd"
         id="path19" />
    </clipPath>
    <clipPath
       clipPathUnits="userSpaceOnUse"
       id="clipPath20">
      <path
         d="M 0,0 H 2587.4998 V 1269.7916 H 0 Z"
         transform="matrix(0.33390972,0,0,0.33390972,-43.75,-223)"
         clip-rule="evenodd"
         id="path20" />
    </clipPath>
    <clipPath
       clipPathUnits="userSpaceOnUse"
       id="clipPath22">
      <path
         d="M 0,0 H 2587.4998 V 1269.7916 H 0 Z"
         transform="scale(0.33391306)"
         clip-rule="evenodd"
         id="path22" />
    </clipPath>
    <clipPath
       clipPathUnits="userSpaceOnUse"
       id="clipPath23">
      <path
         d="M 0,0 H 2587.4998 V 1269.7916 H 0 Z"
         transform="matrix(0.33390972,0,0,0.33390972,-755.96875,-223)"
         clip-rule="evenodd"
         id="path23" />
    </clipPath>
    <clipPath
       clipPathUnits="userSpaceOnUse"
       id="clipPath24">
      <path
         d="M 0,0 H 2587.4998 V 1269.7916 H 0 Z"
         transform="matrix(0.33390972,0,0,0.33390972,-494.875,-24)"
         clip-rule="evenodd"
         id="path24" />
    </clipPath>
    <clipPath
       clipPathUnits="userSpaceOnUse"
       id="clipPath26">
      <path
         d="M 0,0 H 2587.4998 V 1269.7916 H 0 Z"
         transform="scale(0.33391306)"
         clip-rule="evenodd"
         id="path26" />
    </clipPath>
    <clipPath
       clipPathUnits="userSpaceOnUse"
       id="clipPath28">
      <path
         d="M 0,0 H 2587.4998 V 1269.7916 H 0 Z"
         transform="scale(0.33391306)"
         clip-rule="evenodd"
         id="path28" />
    </clipPath>
    <clipPath
       clipPathUnits="userSpaceOnUse"
       id="clipPath29">
      <path
         d="M 0,0 H 2587.4998 V 1269.7916 H 0 Z"
         transform="matrix(0.33390972,0,0,0.33390972,-504.85938,-223)"
         clip-rule="evenodd"
         id="path29" />
    </clipPath>
    <clipPath
       clipPathUnits="userSpaceOnUse"
       id="clipPath30">
      <path
         d="M 0,0 H 2587.4998 V 1269.7916 H 0 Z"
         transform="matrix(0.33390972,0,0,0.33390972,-494.875,-164)"
         clip-rule="evenodd"
         id="path30" />
    </clipPath>
    <clipPath
       clipPathUnits="userSpaceOnUse"
       id="clipPath32">
      <path
         d="M 0,0 H 2587.4998 V 1269.7916 H 0 Z"
         transform="scale(0.33391306)"
         clip-rule="evenodd"
         id="path32" />
    </clipPath>
    <clipPath
       clipPathUnits="userSpaceOnUse"
       id="clipPath34">
      <path
         d="M 0,0 H 2587.4998 V 1269.7916 H 0 Z"
         transform="scale(0.33391306)"
         clip-rule="evenodd"
         id="path34" />
    </clipPath>
    <clipPath
       clipPathUnits="userSpaceOnUse"
       id="clipPath35">
      <path
         d="M 0,0 H 2587.4998 V 1269.7916 H 0 Z"
         transform="matrix(0.33390972,0,0,0.33390972,-504.85938,-367)"
         clip-rule="evenodd"
         id="path35" />
    </clipPath>
    <clipPath
       clipPathUnits="userSpaceOnUse"
       id="clipPath36">
      <path
         d="M 0,0 H 2587.4998 V 1269.7916 H 0 Z"
         transform="matrix(0.33390972,0,0,0.33390972,-494.875,-308)"
         clip-rule="evenodd"
         id="path36" />
    </clipPath>
    <clipPath
       clipPathUnits="userSpaceOnUse"
       id="clipPath38">
      <path
         d="M 0,0 H 2587.4998 V 1269.7916 H 0 Z"
         transform="matrix(0.33391306,0,0,0.33391306,-0.5,-0.5)"
         clip-rule="evenodd"
         id="path38" />
    </clipPath>
    <clipPath
       clipPathUnits="userSpaceOnUse"
       id="clipPath40">
      <path
         d="M 0,0 H 2587.4998 V 1269.7916 H 0 Z"
         transform="matrix(0.33391306,0,0,0.33391306,-0.5,-0.5)"
         clip-rule="evenodd"
         id="path40" />
    </clipPath>
    <clipPath
       clipPathUnits="userSpaceOnUse"
       id="clipPath42">
      <path
         d="M 0,0 H 2587.4998 V 1269.7916 H 0 Z"
         transform="matrix(0.33391306,0,0,0.33391306,-0.5,-0.5)"
         clip-rule="evenodd"
         id="path42" />
    </clipPath>
    <clipPath
       clipPathUnits="userSpaceOnUse"
       id="clipPath44">
      <path
         d="M 0,0 H 2587.4998 V 1269.7916 H 0 Z"
         transform="matrix(0.33391306,0,0,0.33391306,-0.5,-0.5)"
         clip-rule="evenodd"
         id="path44" />
    </clipPath>
    <clipPath
       clipPathUnits="userSpaceOnUse"
       id="clipPath46">
      <path
         d="M 0,0 H 2587.4998 V 1269.7916 H 0 Z"
         transform="matrix(0.33391306,0,0,0.33391306,-0.5,-0.5)"
         clip-rule="evenodd"
         id="path46" />
    </clipPath>
    <clipPath
       clipPathUnits="userSpaceOnUse"
       id="clipPath48">
      <path
         d="M 0,0 H 2587.4998 V 1269.7916 H 0 Z"
         transform="matrix(0.33391306,0,0,0.33391306,-0.5,-0.5)"
         clip-rule="evenodd"
         id="path48" />
    </clipPath>
    <clipPath
       clipPathUnits="userSpaceOnUse"
       id="clipPath50">
      <path
         d="M 0,0 H 2587.4998 V 1269.7916 H 0 Z"
         transform="scale(0.33391306)"
         clip-rule="evenodd"
         id="path50" />
    </clipPath>
    <clipPath
       clipPathUnits="userSpaceOnUse"
       id="clipPath51">
      <path
         d="M 0,0 H 2587.4998 V 1269.7916 H 0 Z"
         transform="matrix(0.33390972,0,0,0.33390972,-187.07813,-211)"
         clip-rule="evenodd"
         id="path51" />
    </clipPath>
    <clipPath
       clipPathUnits="userSpaceOnUse"
       id="clipPath52">
      <path
         d="M 0,0 H 2587.4998 V 1269.7916 H 0 Z"
         transform="matrix(0.33390972,0,0,0.33390972,-190.9375,-235)"
         clip-rule="evenodd"
         id="path52" />
    </clipPath>
    <clipPath
       clipPathUnits="userSpaceOnUse"
       id="clipPath54">
      <path
         d="M 0,0 H 2587.4998 V 1269.7916 H 0 Z"
         transform="scale(0.33391306)"
         clip-rule="evenodd"
         id="path54" />
    </clipPath>
    <clipPath
       clipPathUnits="userSpaceOnUse"
       id="clipPath55">
      <path
         d="M 0,0 H 2587.4998 V 1269.7916 H 0 Z"
         transform="matrix(0.33390972,0,0,0.33390972,-11.640625,-377)"
         clip-rule="evenodd"
         id="path55" />
    </clipPath>
  </defs>
  <sodipodi:namedview
     id="namedview1"
     pagecolor="#ffffff"
     bordercolor="#000000"
     borderopacity="0.25"
     inkscape:showpageshadow="2"
     inkscape:pageopacity="0.0"
     inkscape:pagecheckerboard="0"
     inkscape:deskcolor="#d1d1d1">
    <inkscape:page
       x="0"
       y="0"
       inkscape:label="1"
       id="page1"
       width="828.15997"
       height="408"
       margin="0"
       bleed="0" />
  </sodipodi:namedview>
  <g
     id="g1"
     inkscape:groupmode="layer"
     inkscape:label="1">
    <path
       id="path1"
       d="M 0,0 H 864 V 425 H 0 Z"
       style="fill:#ffffff;fill-opacity:1;fill-rule:nonzero;stroke:none"
       transform="scale(0.95833324)"
       clip-path="url(#clipPath2)" />
    <path
       id="path3"
       d="M 411,1 H 711 V 421 H 411 Z"
       style="fill:#d5e8d4;fill-opacity:1;fill-rule:nonzero;stroke:#82b366;stroke-width:1;stroke-linecap:butt;stroke-linejoin:miter;stroke-miterlimit:10;stroke-dasharray:none;stroke-opacity:1"
       transform="scale(0.95833324)"
       clip-path="url(#clipPath4)" />
    <path
       id="path5"
       d="m 431,31 h 260 v 90 H 431 Z"
       style="fill:#ffffff;fill-opacity:1;fill-rule:nonzero;stroke:#000000;stroke-width:1;stroke-linecap:butt;stroke-linejoin:miter;stroke-miterlimit:10;stroke-dasharray:none;stroke-opacity:1"
       transform="scale(0.95833324)"
       clip-path="url(#clipPath6)" />
    <path
       id="path7"
       d="M 711.01001,216 732,216.5 l -1.08002,0.06"
       style="fill:none;stroke:#000000;stroke-width:1;stroke-linecap:butt;stroke-linejoin:miter;stroke-miterlimit:10;stroke-dasharray:none;stroke-opacity:1"
       transform="matrix(0.95833324,0,0,0.95833324,0.47916662,0.47916662)"
       clip-path="url(#clipPath8)" />
    <path
       id="path9"
       d="m 737.65997,216.19 -8.73999,4.98999 2,-4.61999 -2.5,-4.37 z"
       style="fill:#000000;fill-opacity:1;fill-rule:nonzero;stroke:#000000;stroke-width:1;stroke-linecap:butt;stroke-linejoin:miter;stroke-miterlimit:10;stroke-dasharray:none;stroke-opacity:1"
       transform="matrix(0.95833324,0,0,0.95833324,0.47916662,0.47916662)"
       clip-path="url(#clipPath10)" />
    <path
       id="path11"
       d="m 461,51 h 200 v 50 H 461 Z"
       style="fill:#dae8fc;fill-opacity:1;fill-rule:nonzero;stroke:#6c8ebf;stroke-width:1;stroke-linecap:butt;stroke-linejoin:miter;stroke-miterlimit:10;stroke-dasharray:none;stroke-opacity:1"
       transform="scale(0.95833324)"
       clip-path="url(#clipPath12)" />
    <text
       id="text12"
       xml:space="preserve"
       transform="matrix(0.95834284,0,0,0.95834284,483.82837,79.542456)"
       clip-path="url(#clipPath13)"><tspan
         style="font-variant:normal;font-weight:normal;font-size:20px;font-family:Helvetica;writing-mode:lr-tb;fill:#000000;fill-opacity:1;fill-rule:nonzero;stroke:none"
         x="0 14.443359 25.566406 36.689453 47.8125 53.369141 66.708984 77.832031 84.492188 94.492188 105.61523"
         y="0"
         sodipodi:role="line"
         id="tspan12">Node Server</tspan></text>
    <path
       id="path14"
       d="m 141,216 h 29.89999"
       style="fill:none;stroke:#000000;stroke-width:1;stroke-linecap:butt;stroke-linejoin:miter;stroke-miterlimit:10;stroke-dasharray:none;stroke-opacity:1"
       transform="matrix(0.95833324,0,0,0.95833324,0.47916662,0.47916662)"
       clip-path="url(#clipPath15)" />
    <path
       id="path16"
       d="m 177.64999,216 -9,4.5 2.25,-4.5 -2.25,-4.5 z"
       style="fill:#000000;fill-opacity:1;fill-rule:nonzero;stroke:#000000;stroke-width:1;stroke-linecap:butt;stroke-linejoin:miter;stroke-miterlimit:10;stroke-dasharray:none;stroke-opacity:1"
       transform="matrix(0.95833324,0,0,0.95833324,0.47916662,0.47916662)"
       clip-path="url(#clipPath17)" />
    <path
       id="path18"
       d="m 21,186 h 120 v 60 H 21 Z"
       style="fill:#ffffff;fill-opacity:1;fill-rule:nonzero;stroke:#000000;stroke-width:1;stroke-linecap:butt;stroke-linejoin:miter;stroke-miterlimit:10;stroke-dasharray:none;stroke-opacity:1"
       transform="scale(0.95833324)"
       clip-path="url(#clipPath19)" />
    <text
       id="text19"
       xml:space="preserve"
       transform="matrix(0.95834284,0,0,0.95834284,41.927499,213.71045)"
       clip-path="url(#clipPath20)"><tspan
         style="font-variant:normal;font-weight:normal;font-size:20px;font-family:Helvetica;writing-mode:lr-tb;fill:#000000;fill-opacity:1;fill-rule:nonzero;stroke:none"
         x="0 14.443359 25.566406 36.689453 47.8125 58.935547 68.935547"
         y="0"
         sodipodi:role="line"
         id="tspan19">Request</tspan></text>
    <path
       id="path21"
       d="m 741.01001,186 h 120 v 60 h -120 z"
       style="fill:#ffffff;fill-opacity:1;fill-rule:nonzero;stroke:#000000;stroke-width:1;stroke-linecap:butt;stroke-linejoin:miter;stroke-miterlimit:10;stroke-dasharray:none;stroke-opacity:1"
       transform="scale(0.95833324)"
       clip-path="url(#clipPath22)" />
    <text
       id="text22"
       xml:space="preserve"
       transform="matrix(0.95834284,0,0,0.95834284,724.47724,213.71045)"
       clip-path="url(#clipPath23)"><tspan
         style="font-variant:normal;font-weight:normal;font-size:20px;font-family:Helvetica;writing-mode:lr-tb;fill:#000000;fill-opacity:1;fill-rule:nonzero;stroke:none"
         x="0 14.443359 25.566406 35.566406 46.689453 57.8125 68.935547 78.935547"
         y="0"
         sodipodi:role="line"
         id="tspan22">Response</tspan></text>
    <text
       id="text23"
       xml:space="preserve"
       transform="matrix(0.95834284,0,0,0.95834284,474.25991,23.000228)"
       clip-path="url(#clipPath24)"><tspan
         style="font-variant:normal;font-weight:700;font-size:20px;font-family:Helvetica;writing-mode:lr-tb;fill:#000000;fill-opacity:1;fill-rule:nonzero;stroke:none"
         x="0 13.339844 18.896484 31.113281 43.330078 48.886719 60.009766 65.566406 77.783203 90 97.783203 108.90625 120.0293"
         y="0"
         sodipodi:role="line"
         id="tspan23">Single Thread</tspan></text>
    <path
       id="path25"
       d="m 431,171 h 260 v 90 H 431 Z"
       style="fill:#ffffff;fill-opacity:1;fill-rule:nonzero;stroke:#000000;stroke-width:1;stroke-linecap:butt;stroke-linejoin:miter;stroke-miterlimit:10;stroke-dasharray:none;stroke-opacity:1"
       transform="scale(0.95833324)"
       clip-path="url(#clipPath26)" />
    <path
       id="path27"
       d="m 461,191 h 200 v 50 H 461 Z"
       style="fill:#dae8fc;fill-opacity:1;fill-rule:nonzero;stroke:#6c8ebf;stroke-width:1;stroke-linecap:butt;stroke-linejoin:miter;stroke-miterlimit:10;stroke-dasharray:none;stroke-opacity:1"
       transform="scale(0.95833324)"
       clip-path="url(#clipPath28)" />
    <text
       id="text28"
       xml:space="preserve"
       transform="matrix(0.95834284,0,0,0.95834284,483.82837,213.71045)"
       clip-path="url(#clipPath29)"><tspan
         style="font-variant:normal;font-weight:normal;font-size:20px;font-family:Helvetica;writing-mode:lr-tb;fill:#000000;fill-opacity:1;fill-rule:nonzero;stroke:none"
         x="0 14.443359 25.566406 36.689453 47.8125 53.369141 66.708984 77.832031 84.492188 94.492188 105.61523"
         y="0"
         sodipodi:role="line"
         id="tspan28">Node Server</tspan></text>
    <text
       id="text29"
       xml:space="preserve"
       transform="matrix(0.95834284,0,0,0.95834284,474.25991,157.16823)"
       clip-path="url(#clipPath30)"><tspan
         style="font-variant:normal;font-weight:700;font-size:20px;font-family:Helvetica;writing-mode:lr-tb;fill:#000000;fill-opacity:1;fill-rule:nonzero;stroke:none"
         x="0 13.339844 18.896484 31.113281 43.330078 48.886719 60.009766 65.566406 77.783203 90 97.783203 108.90625 120.0293"
         y="0"
         sodipodi:role="line"
         id="tspan29">Single Thread</tspan></text>
    <path
       id="path31"
       d="m 431,315 h 260 v 90 H 431 Z"
       style="fill:#ffffff;fill-opacity:1;fill-rule:nonzero;stroke:#000000;stroke-width:1;stroke-linecap:butt;stroke-linejoin:miter;stroke-miterlimit:10;stroke-dasharray:none;stroke-opacity:1"
       transform="scale(0.95833324)"
       clip-path="url(#clipPath32)" />
    <path
       id="path33"
       d="m 461,335 h 200 v 50 H 461 Z"
       style="fill:#dae8fc;fill-opacity:1;fill-rule:nonzero;stroke:#6c8ebf;stroke-width:1;stroke-linecap:butt;stroke-linejoin:miter;stroke-miterlimit:10;stroke-dasharray:none;stroke-opacity:1"
       transform="scale(0.95833324)"
       clip-path="url(#clipPath34)" />
    <text
       id="text34"
       xml:space="preserve"
       transform="matrix(0.95834284,0,0,0.95834284,483.82837,351.71182)"
       clip-path="url(#clipPath35)"><tspan
         style="font-variant:normal;font-weight:normal;font-size:20px;font-family:Helvetica;writing-mode:lr-tb;fill:#000000;fill-opacity:1;fill-rule:nonzero;stroke:none"
         x="0 14.443359 25.566406 36.689453 47.8125 53.369141 66.708984 77.832031 84.492188 94.492188 105.61523"
         y="0"
         sodipodi:role="line"
         id="tspan34">Node Server</tspan></text>
    <text
       id="text35"
       xml:space="preserve"
       transform="matrix(0.95834284,0,0,0.95834284,474.25991,295.16959)"
       clip-path="url(#clipPath36)"><tspan
         style="font-variant:normal;font-weight:700;font-size:20px;font-family:Helvetica;writing-mode:lr-tb;fill:#000000;fill-opacity:1;fill-rule:nonzero;stroke:none"
         x="0 13.339844 18.896484 31.113281 43.330078 48.886719 60.009766 65.566406 77.783203 90 97.783203 108.90625 120.0293"
         y="0"
         sodipodi:role="line"
         id="tspan35">Single Thread</tspan></text>
    <path
       id="path37"
       d="m 341,216 h 45 V 76 h 34.89999"
       style="fill:none;stroke:#000000;stroke-width:1;stroke-linecap:butt;stroke-linejoin:miter;stroke-miterlimit:10;stroke-dasharray:none;stroke-opacity:1"
       transform="matrix(0.95833324,0,0,0.95833324,0.47916662,0.47916662)"
       clip-path="url(#clipPath38)" />
    <path
       id="path39"
       d="m 427.64999,76 -9,4.5 2.25,-4.5 -2.25,-4.5 z"
       style="fill:#000000;fill-opacity:1;fill-rule:nonzero;stroke:#000000;stroke-width:1;stroke-linecap:butt;stroke-linejoin:miter;stroke-miterlimit:10;stroke-dasharray:none;stroke-opacity:1"
       transform="matrix(0.95833324,0,0,0.95833324,0.47916662,0.47916662)"
       clip-path="url(#clipPath40)" />
    <path
       id="path41"
       d="m 341,216 h 79.89999"
       style="fill:none;stroke:#000000;stroke-width:1;stroke-linecap:butt;stroke-linejoin:miter;stroke-miterlimit:10;stroke-dasharray:none;stroke-opacity:1"
       transform="matrix(0.95833324,0,0,0.95833324,0.47916662,0.47916662)"
       clip-path="url(#clipPath42)" />
    <path
       id="path43"
       d="m 427.64999,216 -9,4.5 2.25,-4.5 -2.25,-4.5 z"
       style="fill:#000000;fill-opacity:1;fill-rule:nonzero;stroke:#000000;stroke-width:1;stroke-linecap:butt;stroke-linejoin:miter;stroke-miterlimit:10;stroke-dasharray:none;stroke-opacity:1"
       transform="matrix(0.95833324,0,0,0.95833324,0.47916662,0.47916662)"
       clip-path="url(#clipPath44)" />
    <path
       id="path45"
       d="m 341,216 h 45 v 144 h 34.89999"
       style="fill:none;stroke:#000000;stroke-width:1;stroke-linecap:butt;stroke-linejoin:miter;stroke-miterlimit:10;stroke-dasharray:none;stroke-opacity:1"
       transform="matrix(0.95833324,0,0,0.95833324,0.47916662,0.47916662)"
       clip-path="url(#clipPath46)" />
    <path
       id="path47"
       d="m 427.64999,360 -9,4.5 2.25,-4.5 -2.25,-4.5 z"
       style="fill:#000000;fill-opacity:1;fill-rule:nonzero;stroke:#000000;stroke-width:1;stroke-linecap:butt;stroke-linejoin:miter;stroke-miterlimit:10;stroke-dasharray:none;stroke-opacity:1"
       transform="matrix(0.95833324,0,0,0.95833324,0.47916662,0.47916662)"
       clip-path="url(#clipPath48)" />
    <path
       id="path49"
       d="m 181,186 h 160 v 60 H 181 Z"
       style="fill:#e1d5e7;fill-opacity:1;fill-rule:nonzero;stroke:#9673a6;stroke-width:1;stroke-linecap:butt;stroke-linejoin:miter;stroke-miterlimit:10;stroke-dasharray:none;stroke-opacity:1"
       transform="scale(0.95833324)"
       clip-path="url(#clipPath50)" />
    <text
       id="text50"
       xml:space="preserve"
       transform="matrix(0.95834284,0,0,0.95834284,179.28499,202.21034)"
       clip-path="url(#clipPath51)"><tspan
         style="font-variant:normal;font-weight:normal;font-size:20px;font-family:Helvetica;writing-mode:lr-tb;fill:#000000;fill-opacity:1;fill-rule:nonzero;stroke:none"
         x="0 14.443359 18.886719 30.009766 40.009766 45.566406 56.689453 63.349609 68.90625 85.566406 96.689453 107.8125 118.93555 130.05859 141.18164"
         y="0"
         sodipodi:role="line"
         id="tspan50">Cluster Manager</tspan></text>
    <text
       id="text51"
       xml:space="preserve"
       transform="matrix(0.95834284,0,0,0.95834284,182.98359,225.21057)"
       clip-path="url(#clipPath52)"><tspan
         style="font-variant:normal;font-weight:normal;font-size:20px;font-family:Helvetica;writing-mode:lr-tb;fill:#000000;fill-opacity:1;fill-rule:nonzero;stroke:none"
         x="0 5.5566406 11.113281 22.236328 33.359375 44.482422 55.605469 61.162109 74.501953 85.625 90.068359 101.19141 112.31445 122.31445 133.4375"
         y="0"
         sodipodi:role="line"
         id="tspan51">/ Load Balancer</tspan></text>
    <path
       id="path53"
       d="M 1,307 H 351 V 421 H 1 Z"
       style="fill:#f8cecc;fill-opacity:1;fill-rule:nonzero;stroke:#b85450;stroke-width:1;stroke-linecap:butt;stroke-linejoin:miter;stroke-miterlimit:10;stroke-dasharray:none;stroke-opacity:1"
       transform="scale(0.95833324)"
       clip-path="url(#clipPath54)" />
    <text
       id="text54"
       xml:space="preserve"
       transform="matrix(0.95834284,0,0,0.95834284,11.15571,361.29525)"
       clip-path="url(#clipPath55)"><tspan
         style="font-variant:normal;font-weight:700;font-size:35px;font-family:Helvetica;writing-mode:lr-tb;fill:#000000;fill-opacity:1;fill-rule:nonzero;stroke:none"
         x="0 21.379395 42.758789 52.48291 71.948242 81.672363 91.396484 110.86182 120.58594 141.96533 163.34473 175 184.72412 204.18945 223.65479 243.12012 264.49951 278.12012 297.58545 309.24072"
         y="0"
         sodipodi:role="line"
         id="tspan54">This is not accurate</tspan></text>
  </g>
</svg>
