<?xml version="1.0" encoding="UTF-8" standalone="no"?>
<!-- Created with Inkscape (http://www.inkscape.org/) -->

<svg
   version="1.1"
   id="svg1"
   width="578.56"
   height="312"
   viewBox="0 0 578.56 312"
   sodipodi:docname="node-7.pdf"
   xmlns:inkscape="http://www.inkscape.org/namespaces/inkscape"
   xmlns:sodipodi="http://sodipodi.sourceforge.net/DTD/sodipodi-0.dtd"
   xmlns="http://www.w3.org/2000/svg"
   xmlns:svg="http://www.w3.org/2000/svg">
  <defs
     id="defs1">
    <clipPath
       clipPathUnits="userSpaceOnUse"
       id="clipPath2">
      <path
         d="M 0,0 H 1808.3334 V 973.02704 H 0 Z"
         transform="scale(0.33400921)"
         clip-rule="evenodd"
         id="path2" />
    </clipPath>
    <clipPath
       clipPathUnits="userSpaceOnUse"
       id="clipPath4">
      <path
         d="M 0,0 H 1808.3334 V 970.03314 H 0 Z"
         transform="matrix(0.33400921,0,0,0.33400921,-0.49999999,-0.49999999)"
         clip-rule="evenodd"
         id="path4" />
    </clipPath>
    <clipPath
       clipPathUnits="userSpaceOnUse"
       id="clipPath6">
      <path
         d="M 0,0 H 1808.3334 V 970.03314 H 0 Z"
         transform="matrix(0.33400921,0,0,0.33400921,-0.49999999,-0.49999999)"
         clip-rule="evenodd"
         id="path6" />
    </clipPath>
    <clipPath
       clipPathUnits="userSpaceOnUse"
       id="clipPath8">
      <path
         d="M 0,0 H 1808.3334 V 970.03314 H 0 Z"
         transform="scale(0.33400921)"
         clip-rule="evenodd"
         id="path8" />
    </clipPath>
    <clipPath
       clipPathUnits="userSpaceOnUse"
       id="clipPath9">
      <path
         d="M 0,0 H 1808.3334 V 970.03314 H 0 Z"
         transform="matrix(0.33400586,0,0,0.33400586,-61.71875,-47.999999)"
         clip-rule="evenodd"
         id="path9" />
    </clipPath>
    <clipPath
       clipPathUnits="userSpaceOnUse"
       id="clipPath11">
      <path
         d="M 0,0 H 1808.3334 V 970.03314 H 0 Z"
         transform="scale(0.33400921)"
         clip-rule="evenodd"
         id="path11" />
    </clipPath>
    <clipPath
       clipPathUnits="userSpaceOnUse"
       id="clipPath12">
      <path
         d="M 0,0 H 1808.3334 V 970.03314 H 0 Z"
         transform="matrix(0.33400586,0,0,0.33400586,-281.21875,-36)"
         clip-rule="evenodd"
         id="path12" />
    </clipPath>
    <clipPath
       clipPathUnits="userSpaceOnUse"
       id="clipPath13">
      <path
         d="M 0,0 H 1808.3334 V 970.03314 H 0 Z"
         transform="matrix(0.33400586,0,0,0.33400586,-310.01562,-60)"
         clip-rule="evenodd"
         id="path13" />
    </clipPath>
    <clipPath
       clipPathUnits="userSpaceOnUse"
       id="clipPath15">
      <path
         d="M 0,0 H 1808.3334 V 970.03314 H 0 Z"
         transform="matrix(0.33400921,0,0,0.33400921,-0.49999999,-0.49999999)"
         clip-rule="evenodd"
         id="path15" />
    </clipPath>
    <clipPath
       clipPathUnits="userSpaceOnUse"
       id="clipPath17">
      <path
         d="M 0,0 H 1808.3334 V 970.03314 H 0 Z"
         transform="matrix(0.33400921,0,0,0.33400921,-0.49999999,-0.49999999)"
         clip-rule="evenodd"
         id="path17" />
    </clipPath>
    <clipPath
       clipPathUnits="userSpaceOnUse"
       id="clipPath19">
      <path
         d="M 0,0 H 1808.3334 V 970.03314 H 0 Z"
         transform="scale(0.33400921)"
         clip-rule="evenodd"
         id="path19" />
    </clipPath>
    <clipPath
       clipPathUnits="userSpaceOnUse"
       id="clipPath20">
      <path
         d="M 0,0 H 1808.3334 V 970.03314 H 0 Z"
         transform="matrix(0.33400586,0,0,0.33400586,-53.953125,-288)"
         clip-rule="evenodd"
         id="path20" />
    </clipPath>
    <clipPath
       clipPathUnits="userSpaceOnUse"
       id="clipPath22">
      <path
         d="M 0,0 H 1808.3334 V 970.03314 H 0 Z"
         transform="scale(0.33400921)"
         clip-rule="evenodd"
         id="path22" />
    </clipPath>
    <clipPath
       clipPathUnits="userSpaceOnUse"
       id="clipPath23">
      <path
         d="M 0,0 H 1808.3334 V 970.03314 H 0 Z"
         transform="matrix(0.33400586,0,0,0.33400586,-301.48438,-264)"
         clip-rule="evenodd"
         id="path23" />
    </clipPath>
    <clipPath
       clipPathUnits="userSpaceOnUse"
       id="clipPath24">
      <path
         d="M 0,0 H 1808.3334 V 970.03314 H 0 Z"
         transform="matrix(0.33400586,0,0,0.33400586,-297.65625,-288)"
         clip-rule="evenodd"
         id="path24" />
    </clipPath>
    <clipPath
       clipPathUnits="userSpaceOnUse"
       id="clipPath25">
      <path
         d="M 0,0 H 1808.3334 V 970.03314 H 0 Z"
         transform="matrix(0.33400586,0,0,0.33400586,-388.375,-312)"
         clip-rule="evenodd"
         id="path25" />
    </clipPath>
    <clipPath
       clipPathUnits="userSpaceOnUse"
       id="clipPath27">
      <path
         d="M 0,0 H 1808.3334 V 970.03314 H 0 Z"
         transform="matrix(0.33400921,0,0,0.33400921,-0.49999999,-0.49999999)"
         clip-rule="evenodd"
         id="path27" />
    </clipPath>
    <clipPath
       clipPathUnits="userSpaceOnUse"
       id="clipPath29">
      <path
         d="M 0,0 H 1808.3334 V 970.03314 H 0 Z"
         transform="matrix(0.33400921,0,0,0.33400921,-0.49999999,-0.49999999)"
         clip-rule="evenodd"
         id="path29" />
    </clipPath>
    <clipPath
       clipPathUnits="userSpaceOnUse"
       id="clipPath31">
      <path
         d="M 0,0 H 1808.3334 V 970.03314 H 0 Z"
         transform="scale(0.33400921)"
         clip-rule="evenodd"
         id="path31" />
    </clipPath>
    <clipPath
       clipPathUnits="userSpaceOnUse"
       id="clipPath32">
      <path
         d="M 0,0 H 1808.3334 V 970.03314 H 0 Z"
         transform="matrix(0.33400586,0,0,0.33400586,-75.96875,-168)"
         clip-rule="evenodd"
         id="path32" />
    </clipPath>
    <clipPath
       clipPathUnits="userSpaceOnUse"
       id="clipPath34">
      <path
         d="M 0,0 H 1808.3334 V 970.03314 H 0 Z"
         transform="scale(0.33400921)"
         clip-rule="evenodd"
         id="path34" />
    </clipPath>
    <clipPath
       clipPathUnits="userSpaceOnUse"
       id="clipPath35">
      <path
         d="M 0,0 H 1808.3334 V 970.03314 H 0 Z"
         transform="matrix(0.33400586,0,0,0.33400586,-280.35938,-168)"
         clip-rule="evenodd"
         id="path35" />
    </clipPath>
  </defs>
  <sodipodi:namedview
     id="namedview1"
     pagecolor="#ffffff"
     bordercolor="#000000"
     borderopacity="0.25"
     inkscape:showpageshadow="2"
     inkscape:pageopacity="0.0"
     inkscape:pagecheckerboard="0"
     inkscape:deskcolor="#d1d1d1">
    <inkscape:page
       x="0"
       y="0"
       inkscape:label="1"
       id="page1"
       width="578.56"
       height="312"
       margin="0"
       bleed="0" />
  </sodipodi:namedview>
  <g
     id="g1"
     inkscape:groupmode="layer"
     inkscape:label="1">
    <path
       id="path1"
       d="M 0,0 H 604 V 325 H 0 Z"
       style="fill:#ffffff;fill-opacity:1;fill-rule:nonzero;stroke:none"
       transform="scale(0.95805737)"
       clip-path="url(#clipPath2)" />
    <path
       id="path3"
       d="m 201,41 h 59.89999"
       style="fill:none;stroke:#000000;stroke-width:1;stroke-linecap:butt;stroke-linejoin:miter;stroke-miterlimit:10;stroke-dasharray:none;stroke-opacity:1"
       transform="matrix(0.95805737,0,0,0.95805737,0.47902868,0.47902868)"
       clip-path="url(#clipPath4)" />
    <path
       id="path5"
       d="m 267.64999,41 -9,4.5 2.25,-4.5 -2.25,-4.5 z"
       style="fill:#000000;fill-opacity:1;fill-rule:nonzero;stroke:#000000;stroke-width:1;stroke-linecap:butt;stroke-linejoin:miter;stroke-miterlimit:10;stroke-dasharray:none;stroke-opacity:1"
       transform="matrix(0.95805737,0,0,0.95805737,0.47902868,0.47902868)"
       clip-path="url(#clipPath6)" />
    <path
       id="path7"
       d="M 1,1 H 201 V 81 H 1 Z"
       style="fill:#dae8fc;fill-opacity:1;fill-rule:nonzero;stroke:#6c8ebf;stroke-width:1;stroke-linecap:butt;stroke-linejoin:miter;stroke-miterlimit:10;stroke-dasharray:none;stroke-opacity:1"
       transform="scale(0.95805737)"
       clip-path="url(#clipPath8)" />
    <text
       id="text8"
       xml:space="preserve"
       transform="matrix(0.95806697,0,0,0.95806697,59.130696,45.987214)"
       clip-path="url(#clipPath9)"><tspan
         style="font-variant:normal;font-weight:normal;font-size:20px;font-family:Helvetica;writing-mode:lr-tb;fill:#000000;fill-opacity:1;fill-rule:nonzero;stroke:none"
         x="0 5.5566406 11.113281 26.669922 32.226562 50.751953 61.875 68.535156"
         y="0"
         sodipodi:role="line"
         id="tspan8">I/O Work</tspan></text>
    <path
       id="path10"
       d="M 271,1 H 601 V 81 H 271 Z"
       style="fill:#d5e8d4;fill-opacity:1;fill-rule:nonzero;stroke:#82b366;stroke-width:1;stroke-linecap:butt;stroke-linejoin:miter;stroke-miterlimit:10;stroke-dasharray:none;stroke-opacity:1"
       transform="scale(0.95805737)"
       clip-path="url(#clipPath11)" />
    <text
       id="text11"
       xml:space="preserve"
       transform="matrix(0.95806697,0,0,0.95806697,269.4264,34.490411)"
       clip-path="url(#clipPath12)"><tspan
         style="font-variant:normal;font-weight:normal;font-size:20px;font-family:Helvetica;writing-mode:lr-tb;fill:#000000;fill-opacity:1;fill-rule:nonzero;stroke:none"
         x="0 13.339844 24.462891 34.462891 40.019531 51.142578 55.585938 66.708984 77.832031 83.388672 88.945312 100.06836 111.19141 116.74805 122.30469 133.42773 143.42773 154.55078 164.55078 170.10742 175.66406 186.78711 197.91016 203.4668 219.02344 232.36328 236.18164 246.18164 251.73828 262.86133 273.98438 278.42773 282.87109 288.42773 293.98438 298.42773"
         y="0"
         sodipodi:role="line"
         id="tspan11">Anything that uses the OS's built in</tspan></text>
    <text
       id="text12"
       xml:space="preserve"
       transform="matrix(0.95806697,0,0,0.95806697,297.01573,57.484018)"
       clip-path="url(#clipPath13)"><tspan
         style="font-variant:normal;font-weight:normal;font-size:20px;font-family:Helvetica;writing-mode:lr-tb;fill:#000000;fill-opacity:1;fill-rule:nonzero;stroke:none"
         x="0 11.123047 21.123047 31.123047 42.246094 52.246094 57.802734 67.802734 73.359375 84.482422 89.6875 95.244141 100.80078 107.46094 118.58398 129.70703 135.26367 149.70703 160.83008 167.49023 177.49023 183.04688 194.16992 204.16992 214.16992 225.29297 235.29297 245.29297"
         y="0"
         sodipodi:role="line"
         id="tspan12">async stuff (network access)</tspan></text>
    <path
       id="path14"
       d="m 201,281 h 59.89999"
       style="fill:none;stroke:#000000;stroke-width:1;stroke-linecap:butt;stroke-linejoin:miter;stroke-miterlimit:10;stroke-dasharray:none;stroke-opacity:1"
       transform="matrix(0.95805737,0,0,0.95805737,0.47902868,0.47902868)"
       clip-path="url(#clipPath15)" />
    <path
       id="path16"
       d="m 267.64999,281 -9,4.5 2.25,-4.5 -2.25,-4.5 z"
       style="fill:#000000;fill-opacity:1;fill-rule:nonzero;stroke:#000000;stroke-width:1;stroke-linecap:butt;stroke-linejoin:miter;stroke-miterlimit:10;stroke-dasharray:none;stroke-opacity:1"
       transform="matrix(0.95805737,0,0,0.95805737,0.47902868,0.47902868)"
       clip-path="url(#clipPath17)" />
    <path
       id="path18"
       d="m 1,241 h 200 v 80 H 1 Z"
       style="fill:#dae8fc;fill-opacity:1;fill-rule:nonzero;stroke:#6c8ebf;stroke-width:1;stroke-linecap:butt;stroke-linejoin:miter;stroke-miterlimit:10;stroke-dasharray:none;stroke-opacity:1"
       transform="scale(0.95805737)"
       clip-path="url(#clipPath19)" />
    <text
       id="text19"
       xml:space="preserve"
       transform="matrix(0.95806697,0,0,0.95806697,51.690707,275.92329)"
       clip-path="url(#clipPath20)"><tspan
         style="font-variant:normal;font-weight:normal;font-size:20px;font-family:Helvetica;writing-mode:lr-tb;fill:#000000;fill-opacity:1;fill-rule:nonzero;stroke:none"
         x="0 14.443359 27.783203 42.226562 47.783203 66.308594 77.431641 84.091797"
         y="0"
         sodipodi:role="line"
         id="tspan19">CPU Work</tspan></text>
    <path
       id="path21"
       d="m 271,241 h 330 v 80 H 271 Z"
       style="fill:#d5e8d4;fill-opacity:1;fill-rule:nonzero;stroke:#82b366;stroke-width:1;stroke-linecap:butt;stroke-linejoin:miter;stroke-miterlimit:10;stroke-dasharray:none;stroke-opacity:1"
       transform="scale(0.95805737)"
       clip-path="url(#clipPath22)" />
    <text
       id="text22"
       xml:space="preserve"
       transform="matrix(0.95806697,0,0,0.95806697,288.84223,252.92968)"
       clip-path="url(#clipPath23)"><tspan
         style="font-variant:normal;font-weight:normal;font-size:20px;font-family:Helvetica;writing-mode:lr-tb;fill:#000000;fill-opacity:1;fill-rule:nonzero;stroke:none"
         x="0 13.339844 24.462891 34.462891 40.019531 50.019531 63.359375 68.916016 78.916016 90.039062 101.16211 112.28516 117.8418 123.39844 134.52148 145.64453 151.20117 156.75781 171.20117 182.32422 187.88086 202.32422 208.98438 213.42773 218.98438 230.10742 235.66406 241.2207 252.34375 263.4668"
         y="0"
         sodipodi:role="line"
         id="tspan22">Any JS code that we write that</tspan></text>
    <text
       id="text23"
       xml:space="preserve"
       transform="matrix(0.95806697,0,0,0.95806697,285.17462,275.92329)"
       clip-path="url(#clipPath24)"><tspan
         style="font-variant:normal;font-weight:normal;font-size:20px;font-family:Helvetica;writing-mode:lr-tb;fill:#000000;fill-opacity:1;fill-rule:nonzero;stroke:none"
         x="0 11.123047 22.246094 33.369141 43.369141 54.492188 58.310547 63.867188 69.423828 80.546875 90.546875 101.66992 107.22656 118.34961 129.47266 133.91602 138.35938 143.91602 149.47266 153.91602 165.03906 170.5957 186.15234 199.49219 203.31055 213.31055 218.86719 229.99023 241.11328 245.55664 250 255.55664 261.11328 265.55664"
         y="0"
         sodipodi:role="line"
         id="tspan23">doesn't use built in OS's built in</tspan></text>
    <text
       id="text24"
       xml:space="preserve"
       transform="matrix(0.95806697,0,0,0.95806697,372.08926,298.91689)"
       clip-path="url(#clipPath25)"><tspan
         style="font-variant:normal;font-weight:normal;font-size:20px;font-family:Helvetica;writing-mode:lr-tb;fill:#000000;fill-opacity:1;fill-rule:nonzero;stroke:none"
         x="0 11.123047 21.123047 31.123047 42.246094 52.246094 57.802734 67.802734 73.359375 84.482422 89.6875"
         y="0"
         sodipodi:role="line"
         id="tspan24">async stuff</tspan></text>
    <path
       id="path26"
       d="m 201,161 h 59.89999"
       style="fill:none;stroke:#000000;stroke-width:1;stroke-linecap:butt;stroke-linejoin:miter;stroke-miterlimit:10;stroke-dasharray:none;stroke-opacity:1"
       transform="matrix(0.95805737,0,0,0.95805737,0.47902868,0.47902868)"
       clip-path="url(#clipPath27)" />
    <path
       id="path28"
       d="m 267.64999,161 -9,4.5 2.25,-4.5 -2.25,-4.5 z"
       style="fill:#000000;fill-opacity:1;fill-rule:nonzero;stroke:#000000;stroke-width:1;stroke-linecap:butt;stroke-linejoin:miter;stroke-miterlimit:10;stroke-dasharray:none;stroke-opacity:1"
       transform="matrix(0.95805737,0,0,0.95805737,0.47902868,0.47902868)"
       clip-path="url(#clipPath29)" />
    <path
       id="path30"
       d="m 1,121 h 200 v 80 H 1 Z"
       style="fill:#dae8fc;fill-opacity:1;fill-rule:nonzero;stroke:#6c8ebf;stroke-width:1;stroke-linecap:butt;stroke-linejoin:miter;stroke-miterlimit:10;stroke-dasharray:none;stroke-opacity:1"
       transform="scale(0.95805737)"
       clip-path="url(#clipPath31)" />
    <text
       id="text31"
       xml:space="preserve"
       transform="matrix(0.95806697,0,0,0.95806697,72.78315,160.95525)"
       clip-path="url(#clipPath32)"><tspan
         style="font-variant:normal;font-weight:normal;font-size:20px;font-family:Helvetica;writing-mode:lr-tb;fill:#000000;fill-opacity:1;fill-rule:nonzero;stroke:none"
         x="0 11.123047 22.246094 27.802734 38.925781"
         y="0"
         sodipodi:role="line"
         id="tspan31">50/50</tspan></text>
    <path
       id="path33"
       d="m 271,121 h 330 v 80 H 271 Z"
       style="fill:#d5e8d4;fill-opacity:1;fill-rule:nonzero;stroke:#82b366;stroke-width:1;stroke-linecap:butt;stroke-linejoin:miter;stroke-miterlimit:10;stroke-dasharray:none;stroke-opacity:1"
       transform="scale(0.95805737)"
       clip-path="url(#clipPath34)" />
    <text
       id="text34"
       xml:space="preserve"
       transform="matrix(0.95806697,0,0,0.95806697,268.60306,160.95525)"
       clip-path="url(#clipPath35)"><tspan
         style="font-variant:normal;font-weight:normal;font-size:20px;font-family:Helvetica;writing-mode:lr-tb;fill:#000000;fill-opacity:1;fill-rule:nonzero;stroke:none"
         x="0 14.443359 24.443359 28.886719 40.009766 51.132812 56.689453 62.246094 73.369141 84.492188 90.048828 95.605469 106.72852 113.38867 124.51172 135.63477 146.75781 157.88086 169.00391 180.12695 184.57031 190.12695 195.68359 201.24023 207.90039 220.11719 233.45703 239.01367 255.67383 266.79688 277.91992 289.04297 293.48633 304.60938"
         y="0"
         sodipodi:role="line"
         id="tspan34">Using the threadpool.  (FS module)</tspan></text>
  </g>
</svg>
