<?xml version="1.0" encoding="UTF-8" standalone="no"?>
<!-- Created with Inkscape (http://www.inkscape.org/) -->

<svg
   version="1.1"
   id="svg1"
   width="800"
   height="139.84"
   viewBox="0 0 800 139.84"
   sodipodi:docname="node-11.pdf"
   xmlns:inkscape="http://www.inkscape.org/namespaces/inkscape"
   xmlns:sodipodi="http://sodipodi.sourceforge.net/DTD/sodipodi-0.dtd"
   xmlns="http://www.w3.org/2000/svg"
   xmlns:svg="http://www.w3.org/2000/svg">
  <defs
     id="defs1">
    <clipPath
       clipPathUnits="userSpaceOnUse"
       id="clipPath2">
      <path
         d="M 0,0 H 2500 V 434.65228 H 0 Z"
         transform="scale(0.33359999)"
         clip-rule="evenodd"
         id="path2" />
    </clipPath>
    <clipPath
       clipPathUnits="userSpaceOnUse"
       id="clipPath4">
      <path
         d="M 0,0 H 2500 V 431.65469 H 0 Z"
         transform="matrix(0.33359999,0,0,0.33359999,-0.5,-0.5)"
         clip-rule="evenodd"
         id="path4" />
    </clipPath>
    <clipPath
       clipPathUnits="userSpaceOnUse"
       id="clipPath6">
      <path
         d="M 0,0 H 2500 V 431.65469 H 0 Z"
         transform="matrix(0.33359999,0,0,0.33359999,-0.5,-0.5)"
         clip-rule="evenodd"
         id="path6" />
    </clipPath>
    <clipPath
       clipPathUnits="userSpaceOnUse"
       id="clipPath8">
      <path
         d="M 0,0 H 2500 V 431.65469 H 0 Z"
         transform="scale(0.33359999)"
         clip-rule="evenodd"
         id="path8" />
    </clipPath>
    <clipPath
       clipPathUnits="userSpaceOnUse"
       id="clipPath9">
      <path
         d="M 0,0 H 2500 V 431.65469 H 0 Z"
         transform="matrix(0.33359665,0,0,0.33359665,-22.265625,-66)"
         clip-rule="evenodd"
         id="path9" />
    </clipPath>
    <clipPath
       clipPathUnits="userSpaceOnUse"
       id="clipPath10">
      <path
         d="M 0,0 H 2500 V 431.65469 H 0 Z"
         transform="matrix(0.33359665,0,0,0.33359665,-13.203125,-90)"
         clip-rule="evenodd"
         id="path10" />
    </clipPath>
    <clipPath
       clipPathUnits="userSpaceOnUse"
       id="clipPath12">
      <path
         d="M 0,0 H 2500 V 431.65469 H 0 Z"
         transform="scale(0.33359999)"
         clip-rule="evenodd"
         id="path12" />
    </clipPath>
    <clipPath
       clipPathUnits="userSpaceOnUse"
       id="clipPath13">
      <path
         d="M 0,0 H 2500 V 431.65469 H 0 Z"
         transform="matrix(0.33359665,0,0,0.33359665,-281.5,-38)"
         clip-rule="evenodd"
         id="path13" />
    </clipPath>
    <clipPath
       clipPathUnits="userSpaceOnUse"
       id="clipPath15">
      <path
         d="M 0,0 H 2500 V 431.65469 H 0 Z"
         transform="scale(0.33359999)"
         clip-rule="evenodd"
         id="path15" />
    </clipPath>
    <clipPath
       clipPathUnits="userSpaceOnUse"
       id="clipPath16">
      <path
         d="M 0,0 H 2500 V 431.65469 H 0 Z"
         transform="matrix(0.33359665,0,0,0.33359665,-275.39063,-106)"
         clip-rule="evenodd"
         id="path16" />
    </clipPath>
    <clipPath
       clipPathUnits="userSpaceOnUse"
       id="clipPath17">
      <path
         d="M 0,0 H 2500 V 431.65469 H 0 Z"
         transform="matrix(0.33359665,0,0,0.33359665,-327.64063,-130)"
         clip-rule="evenodd"
         id="path17" />
    </clipPath>
    <clipPath
       clipPathUnits="userSpaceOnUse"
       id="clipPath19">
      <path
         d="M 0,0 H 2500 V 431.65469 H 0 Z"
         transform="matrix(0.33359999,0,0,0.33359999,-0.5,-0.5)"
         clip-rule="evenodd"
         id="path19" />
    </clipPath>
    <clipPath
       clipPathUnits="userSpaceOnUse"
       id="clipPath20">
      <path
         d="M 0,0 H 2500 V 431.65469 H 0 Z"
         transform="matrix(0.33359665,0,0,0.33359665,-515.15625,-78)"
         clip-rule="evenodd"
         id="path20" />
    </clipPath>
    <clipPath
       clipPathUnits="userSpaceOnUse"
       id="clipPath22">
      <path
         d="M 0,0 H 2500 V 431.65469 H 0 Z"
         transform="scale(0.33359999)"
         clip-rule="evenodd"
         id="path22" />
    </clipPath>
    <clipPath
       clipPathUnits="userSpaceOnUse"
       id="clipPath23">
      <path
         d="M 0,0 H 2500 V 431.65469 H 0 Z"
         transform="matrix(0.33359665,0,0,0.33359665,-553.96875,-78)"
         clip-rule="evenodd"
         id="path23" />
    </clipPath>
  </defs>
  <sodipodi:namedview
     id="namedview1"
     pagecolor="#ffffff"
     bordercolor="#000000"
     borderopacity="0.25"
     inkscape:showpageshadow="2"
     inkscape:pageopacity="0.0"
     inkscape:pagecheckerboard="0"
     inkscape:deskcolor="#d1d1d1">
    <inkscape:page
       x="0"
       y="0"
       inkscape:label="1"
       id="page1"
       width="800"
       height="139.84"
       margin="0"
       bleed="0" />
  </sodipodi:namedview>
  <g
     id="g1"
     inkscape:groupmode="layer"
     inkscape:label="1">
    <path
       id="path1"
       d="M 0,0 H 834 V 145 H 0 Z"
       style="fill:#ffffff;fill-opacity:1;fill-rule:nonzero;stroke:none"
       transform="scale(0.9592326)"
       clip-path="url(#clipPath2)" />
    <path
       id="path3"
       d="m 141,71 h 20 9.89999"
       style="fill:none;stroke:#000000;stroke-width:1;stroke-linecap:butt;stroke-linejoin:miter;stroke-miterlimit:10;stroke-dasharray:none;stroke-opacity:1"
       transform="matrix(0.9592326,0,0,0.9592326,0.4796163,0.4796163)"
       clip-path="url(#clipPath4)" />
    <path
       id="path5"
       d="m 177.64999,71 -9,4.5 2.25,-4.5 -2.25,-4.5 z"
       style="fill:#000000;fill-opacity:1;fill-rule:nonzero;stroke:#000000;stroke-width:1;stroke-linecap:butt;stroke-linejoin:miter;stroke-miterlimit:10;stroke-dasharray:none;stroke-opacity:1"
       transform="matrix(0.9592326,0,0,0.9592326,0.4796163,0.4796163)"
       clip-path="url(#clipPath6)" />
    <path
       id="path7"
       d="m 1,36 h 140 v 70 H 1 Z"
       style="fill:#ffffff;fill-opacity:1;fill-rule:nonzero;stroke:#000000;stroke-width:1;stroke-linecap:butt;stroke-linejoin:miter;stroke-miterlimit:10;stroke-dasharray:none;stroke-opacity:1"
       transform="scale(0.9592326)"
       clip-path="url(#clipPath8)" />
    <text
       id="text8"
       xml:space="preserve"
       transform="matrix(0.9592422,0,0,0.9592422,21.358127,63.309985)"
       clip-path="url(#clipPath9)"><tspan
         style="font-variant:normal;font-weight:normal;font-size:20px;font-family:Helvetica;writing-mode:lr-tb;fill:#000000;fill-opacity:1;fill-rule:nonzero;stroke:none"
         x="0 11.123047 22.246094 40.771484 51.894531 58.554688 68.554688 75.214844 86.337891"
         y="0"
         sodipodi:role="line"
         id="tspan8">doWork(30</tspan></text>
    <text
       id="text9"
       xml:space="preserve"
       transform="matrix(0.9592422,0,0,0.9592422,12.664995,86.331798)"
       clip-path="url(#clipPath10)"><tspan
         style="font-variant:normal;font-weight:normal;font-size:20px;font-family:Helvetica;writing-mode:lr-tb;fill:#000000;fill-opacity:1;fill-rule:nonzero;stroke:none"
         x="0 16.660156 21.103516 25.546875 29.990234 34.433594 44.433594 55.556641 65.556641 76.679688 87.802734 98.925781 108.92578"
         y="0"
         sodipodi:role="line"
         id="tspan9">milliseconds)</tspan></text>
    <path
       id="path11"
       d="M 251,1 H 471 V 61 H 251 Z"
       style="fill:#ffffff;fill-opacity:1;fill-rule:nonzero;stroke:#000000;stroke-width:1;stroke-linecap:butt;stroke-linejoin:miter;stroke-miterlimit:10;stroke-dasharray:none;stroke-opacity:1"
       transform="scale(0.9592326)"
       clip-path="url(#clipPath12)" />
    <text
       id="text12"
       xml:space="preserve"
       transform="matrix(0.9592422,0,0,0.9592422,270.02668,36.451204)"
       clip-path="url(#clipPath13)"><tspan
         style="font-variant:normal;font-weight:normal;font-size:20px;font-family:Helvetica;writing-mode:lr-tb;fill:#000000;fill-opacity:1;fill-rule:nonzero;stroke:none"
         x="0 11.123047 22.246094 33.369141 44.492188 50.048828 66.708984 71.152344 75.595703 80.039062 84.482422 94.482422 105.60547 115.60547 126.72852 137.85156 148.97461"
         y="0"
         sodipodi:role="line"
         id="tspan12">1000 milliseconds</tspan></text>
    <path
       id="path14"
       d="m 251,81 h 220 v 60 H 251 Z"
       style="fill:#ffffff;fill-opacity:1;fill-rule:nonzero;stroke:#000000;stroke-width:1;stroke-linecap:butt;stroke-linejoin:miter;stroke-miterlimit:10;stroke-dasharray:none;stroke-opacity:1"
       transform="scale(0.9592326)"
       clip-path="url(#clipPath15)" />
    <text
       id="text15"
       xml:space="preserve"
       transform="matrix(0.9592422,0,0,0.9592422,264.16631,101.67967)"
       clip-path="url(#clipPath16)"><tspan
         style="font-variant:normal;font-weight:normal;font-size:20px;font-family:Helvetica;writing-mode:lr-tb;fill:#000000;fill-opacity:1;fill-rule:nonzero;stroke:none"
         x="0 11.123047 22.246094 27.802734 44.462891 48.90625 53.349609 57.792969 62.236328 72.236328 83.359375 93.359375 104.48242 115.60547 126.72852 136.72852 142.28516 153.4082 164.53125"
         y="0"
         sodipodi:role="line"
         id="tspan15">30 milliseconds per</tspan></text>
    <text
       id="text16"
       xml:space="preserve"
       transform="matrix(0.9592422,0,0,0.9592422,314.28672,124.70149)"
       clip-path="url(#clipPath17)"><tspan
         style="font-variant:normal;font-weight:normal;font-size:20px;font-family:Helvetica;writing-mode:lr-tb;fill:#000000;fill-opacity:1;fill-rule:nonzero;stroke:none"
         x="0 6.6601562 17.783203 28.90625 40.029297 51.152344 61.152344"
         y="0"
         sodipodi:role="line"
         id="tspan16">request</tspan></text>
    <path
       id="path18"
       d="M 231,70.5 H 491"
       style="fill:none;stroke:#000000;stroke-width:1;stroke-linecap:butt;stroke-linejoin:miter;stroke-miterlimit:10;stroke-dasharray:none;stroke-opacity:1"
       transform="matrix(0.9592326,0,0,0.9592326,0.4796163,0.4796163)"
       clip-path="url(#clipPath19)" />
    <text
       id="text19"
       xml:space="preserve"
       transform="matrix(0.9592422,0,0,0.9592422,494.15961,74.820892)"
       clip-path="url(#clipPath20)"><tspan
         style="font-variant:normal;font-weight:normal;font-size:20px;font-family:Helvetica;writing-mode:lr-tb;fill:#000000;fill-opacity:1;fill-rule:nonzero;stroke:none"
         x="0"
         y="0"
         id="tspan19">=</tspan></text>
    <path
       id="path21"
       d="m 541.01001,31 h 290 v 80 h -290 z"
       style="fill:#f8cecc;fill-opacity:1;fill-rule:nonzero;stroke:#b85450;stroke-width:1;stroke-linecap:butt;stroke-linejoin:miter;stroke-miterlimit:10;stroke-dasharray:none;stroke-opacity:1"
       transform="scale(0.9592326)"
       clip-path="url(#clipPath22)" />
    <text
       id="text22"
       xml:space="preserve"
       transform="matrix(0.9592422,0,0,0.9592422,531.3902,74.820892)"
       clip-path="url(#clipPath23)"><tspan
         style="font-variant:normal;font-weight:normal;font-size:20px;font-family:Helvetica;writing-mode:lr-tb;fill:#000000;fill-opacity:1;fill-rule:nonzero;stroke:none"
         x="0 11.679688 22.802734 33.925781 39.482422 46.142578 57.265625 68.388672 79.511719 90.634766 100.63477 106.19141 116.19141 121.74805 132.87109 143.99414 150.6543 156.21094 166.21094 177.33398 187.33398 198.45703 209.58008 220.70312 226.25977 242.91992 254.04297"
         y="0"
         sodipodi:role="line"
         id="tspan22">~33 requests per second max</tspan></text>
  </g>
</svg>
