<?xml version="1.0" encoding="UTF-8" standalone="no"?>
<!-- Created with Inkscape (http://www.inkscape.org/) -->

<svg
   version="1.1"
   id="svg1"
   width="713.27997"
   height="476.16"
   viewBox="0 0 713.27997 476.16"
   sodipodi:docname="node-24.pdf"
   xmlns:inkscape="http://www.inkscape.org/namespaces/inkscape"
   xmlns:sodipodi="http://sodipodi.sourceforge.net/DTD/sodipodi-0.dtd"
   xmlns="http://www.w3.org/2000/svg"
   xmlns:svg="http://www.w3.org/2000/svg">
  <defs
     id="defs1">
    <clipPath
       clipPathUnits="userSpaceOnUse"
       id="clipPath2">
      <path
         d="M 0,0 H 2229.1667 V 1486.1111 H 0 Z"
         transform="scale(0.33375702)"
         clip-rule="evenodd"
         id="path2" />
    </clipPath>
    <clipPath
       clipPathUnits="userSpaceOnUse"
       id="clipPath4">
      <path
         d="M 0,0 H 2229.1667 V 1480.1188 H 0 Z"
         transform="matrix(0.33375702,0,0,0.33375702,-0.50000001,-0.50000001)"
         clip-rule="evenodd"
         id="path4" />
    </clipPath>
    <clipPath
       clipPathUnits="userSpaceOnUse"
       id="clipPath6">
      <path
         d="M 0,0 H 2229.1667 V 1480.1188 H 0 Z"
         transform="matrix(0.33375702,0,0,0.33375702,-0.50000001,-0.50000001)"
         clip-rule="evenodd"
         id="path6" />
    </clipPath>
    <clipPath
       clipPathUnits="userSpaceOnUse"
       id="clipPath7">
      <path
         d="M 0,0 H 2229.1667 V 1480.1188 H 0 Z"
         transform="matrix(0.33375366,0,0,0.33375366,-0.140625,-128)"
         clip-rule="evenodd"
         id="path7" />
    </clipPath>
    <clipPath
       clipPathUnits="userSpaceOnUse"
       id="clipPath9">
      <path
         d="M 0,0 H 2229.1667 V 1480.1188 H 0 Z"
         transform="matrix(0.33375702,0,0,0.33375702,-0.50000001,-0.50000001)"
         clip-rule="evenodd"
         id="path9" />
    </clipPath>
    <clipPath
       clipPathUnits="userSpaceOnUse"
       id="clipPath10">
      <path
         d="M 0,0 H 2229.1667 V 1480.1188 H 0 Z"
         transform="matrix(0.33375366,0,0,0.33375366,-61.4375,-128)"
         clip-rule="evenodd"
         id="path10" />
    </clipPath>
    <clipPath
       clipPathUnits="userSpaceOnUse"
       id="clipPath12">
      <path
         d="M 0,0 H 2229.1667 V 1480.1188 H 0 Z"
         transform="scale(0.33375702)"
         clip-rule="evenodd"
         id="path12" />
    </clipPath>
    <clipPath
       clipPathUnits="userSpaceOnUse"
       id="clipPath13">
      <path
         d="M 0,0 H 2229.1667 V 1480.1188 H 0 Z"
         transform="matrix(0.33375366,0,0,0.33375366,-128.8125,-213)"
         clip-rule="evenodd"
         id="path13" />
    </clipPath>
    <clipPath
       clipPathUnits="userSpaceOnUse"
       id="clipPath15">
      <path
         d="M 0,0 H 2229.1667 V 1480.1188 H 0 Z"
         transform="matrix(0.33375702,0,0,0.33375702,-0.50000001,-0.50000001)"
         clip-rule="evenodd"
         id="path15" />
    </clipPath>
    <clipPath
       clipPathUnits="userSpaceOnUse"
       id="clipPath16">
      <path
         d="M 0,0 H 2229.1667 V 1480.1188 H 0 Z"
         transform="matrix(0.33375366,0,0,0.33375366,-41.437499,-308)"
         clip-rule="evenodd"
         id="path16" />
    </clipPath>
    <clipPath
       clipPathUnits="userSpaceOnUse"
       id="clipPath18">
      <path
         d="M 0,0 H 2229.1667 V 1480.1188 H 0 Z"
         transform="matrix(0.33375702,0,0,0.33375702,-0.50000001,-0.50000001)"
         clip-rule="evenodd"
         id="path18" />
    </clipPath>
    <clipPath
       clipPathUnits="userSpaceOnUse"
       id="clipPath20">
      <path
         d="M 0,0 H 2229.1667 V 1480.1188 H 0 Z"
         transform="matrix(0.33375702,0,0,0.33375702,-0.50000001,-0.50000001)"
         clip-rule="evenodd"
         id="path20" />
    </clipPath>
    <clipPath
       clipPathUnits="userSpaceOnUse"
       id="clipPath22">
      <path
         d="M 0,0 H 2229.1667 V 1480.1188 H 0 Z"
         transform="scale(0.33375702)"
         clip-rule="evenodd"
         id="path22" />
    </clipPath>
    <clipPath
       clipPathUnits="userSpaceOnUse"
       id="clipPath23">
      <path
         d="M 0,0 H 2229.1667 V 1480.1188 H 0 Z"
         transform="matrix(0.33375366,0,0,0.33375366,-144.20313,-26)"
         clip-rule="evenodd"
         id="path23" />
    </clipPath>
    <clipPath
       clipPathUnits="userSpaceOnUse"
       id="clipPath24">
      <path
         d="M 0,0 H 2229.1667 V 1480.1188 H 0 Z"
         transform="matrix(0.33375366,0,0,0.33375366,-142.71875,-50)"
         clip-rule="evenodd"
         id="path24" />
    </clipPath>
    <clipPath
       clipPathUnits="userSpaceOnUse"
       id="clipPath26">
      <path
         d="M 0,0 H 2229.1667 V 1480.1188 H 0 Z"
         transform="matrix(0.33375702,0,0,0.33375702,-0.50000001,-0.50000001)"
         clip-rule="evenodd"
         id="path26" />
    </clipPath>
    <clipPath
       clipPathUnits="userSpaceOnUse"
       id="clipPath28">
      <path
         d="M 0,0 H 2229.1667 V 1480.1188 H 0 Z"
         transform="matrix(0.33375702,0,0,0.33375702,-0.50000001,-0.50000001)"
         clip-rule="evenodd"
         id="path28" />
    </clipPath>
    <clipPath
       clipPathUnits="userSpaceOnUse"
       id="clipPath30">
      <path
         d="M 0,0 H 2229.1667 V 1480.1188 H 0 Z"
         transform="scale(0.33375702)"
         clip-rule="evenodd"
         id="path30" />
    </clipPath>
    <clipPath
       clipPathUnits="userSpaceOnUse"
       id="clipPath31">
      <path
         d="M 0,0 H 2229.1667 V 1480.1188 H 0 Z"
         transform="matrix(0.33375366,0,0,0.33375366,-254.20313,-26)"
         clip-rule="evenodd"
         id="path31" />
    </clipPath>
    <clipPath
       clipPathUnits="userSpaceOnUse"
       id="clipPath32">
      <path
         d="M 0,0 H 2229.1667 V 1480.1188 H 0 Z"
         transform="matrix(0.33375366,0,0,0.33375366,-252.71875,-50)"
         clip-rule="evenodd"
         id="path32" />
    </clipPath>
    <clipPath
       clipPathUnits="userSpaceOnUse"
       id="clipPath34">
      <path
         d="M 0,0 H 2229.1667 V 1480.1188 H 0 Z"
         transform="matrix(0.33375702,0,0,0.33375702,-0.50000001,-0.50000001)"
         clip-rule="evenodd"
         id="path34" />
    </clipPath>
    <clipPath
       clipPathUnits="userSpaceOnUse"
       id="clipPath35">
      <path
         d="M 0,0 H 2229.1667 V 1480.1188 H 0 Z"
         transform="matrix(0.33375366,0,0,0.33375366,-534.3125,-213)"
         clip-rule="evenodd"
         id="path35" />
    </clipPath>
    <clipPath
       clipPathUnits="userSpaceOnUse"
       id="clipPath37">
      <path
         d="M 0,0 H 2229.1667 V 1480.1188 H 0 Z"
         transform="scale(0.33375702)"
         clip-rule="evenodd"
         id="path37" />
    </clipPath>
    <clipPath
       clipPathUnits="userSpaceOnUse"
       id="clipPath38">
      <path
         d="M 0,0 H 2229.1667 V 1480.1188 H 0 Z"
         transform="matrix(0.33375366,0,0,0.33375366,-238.8125,-308)"
         clip-rule="evenodd"
         id="path38" />
    </clipPath>
  </defs>
  <sodipodi:namedview
     id="namedview1"
     pagecolor="#ffffff"
     bordercolor="#000000"
     borderopacity="0.25"
     inkscape:showpageshadow="2"
     inkscape:pageopacity="0.0"
     inkscape:pagecheckerboard="0"
     inkscape:deskcolor="#d1d1d1">
    <inkscape:page
       x="0"
       y="0"
       inkscape:label="1"
       id="page1"
       width="713.27997"
       height="476.16"
       margin="0"
       bleed="0" />
  </sodipodi:namedview>
  <g
     id="g1"
     inkscape:groupmode="layer"
     inkscape:label="1">
    <path
       id="path1"
       d="M 0,0 H 744 V 496 H 0 Z"
       style="fill:#ffffff;fill-opacity:1;fill-rule:nonzero;stroke:none"
       transform="scale(0.9587813)"
       clip-path="url(#clipPath2)" />
    <path
       id="path3"
       d="M 102,111 V 400.89999"
       style="fill:none;stroke:#000000;stroke-width:1;stroke-linecap:butt;stroke-linejoin:miter;stroke-miterlimit:10;stroke-dasharray:none;stroke-opacity:1"
       transform="matrix(0.9587813,0,0,0.9587813,0.47939066,0.47939066)"
       clip-path="url(#clipPath4)" />
    <path
       id="path5"
       d="m 102,407.64999 -4.5,-9 4.5,2.25 4.5,-2.25 z"
       style="fill:#000000;fill-opacity:1;fill-rule:nonzero;stroke:#000000;stroke-width:1;stroke-linecap:butt;stroke-linejoin:miter;stroke-miterlimit:10;stroke-dasharray:none;stroke-opacity:1"
       transform="matrix(0.9587813,0,0,0.9587813,0.47939066,0.47939066)"
       clip-path="url(#clipPath6)" />
    <text
       id="text6"
       xml:space="preserve"
       transform="matrix(0.95879094,0,0,0.95879094,0.13482998,122.72524)"
       clip-path="url(#clipPath7)"><tspan
         style="font-style:oblique;font-variant:normal;font-weight:normal;font-size:20px;font-family:Helvetica;writing-mode:lr-tb;fill:#000000;fill-opacity:1;fill-rule:nonzero;stroke:none"
         x="0 11.484375 15.927734 32.587891"
         y="0"
         sodipodi:role="line"
         id="tspan6">Time</tspan></text>
    <path
       id="path8"
       d="M 102,111 H 502.01001"
       style="fill:none;stroke:#000000;stroke-width:1;stroke-linecap:butt;stroke-linejoin:miter;stroke-miterlimit:10;stroke-dasharray:none;stroke-opacity:1"
       transform="matrix(0.9587813,0,0,0.9587813,0.47939066,0.47939066)"
       clip-path="url(#clipPath9)" />
    <text
       id="text9"
       xml:space="preserve"
       transform="matrix(0.95879094,0,0,0.95879094,58.905718,122.72524)"
       clip-path="url(#clipPath10)"><tspan
         style="font-style:oblique;font-variant:normal;font-weight:normal;font-size:20px;font-family:Helvetica;writing-mode:lr-tb;fill:#000000;fill-opacity:1;fill-rule:nonzero;stroke:none"
         x="0 11.123047"
         y="0"
         sodipodi:role="line"
         id="tspan9">0s</tspan></text>
    <path
       id="path11"
       d="M 127,111 H 227 V 301 H 127 Z"
       style="fill:#dae8fc;fill-opacity:1;fill-rule:nonzero;stroke:#6c8ebf;stroke-width:1;stroke-linecap:butt;stroke-linejoin:miter;stroke-miterlimit:10;stroke-dasharray:none;stroke-opacity:1"
       transform="scale(0.9587813)"
       clip-path="url(#clipPath12)" />
    <text
       id="text12"
       xml:space="preserve"
       transform="matrix(0.95879094,0,0,0.95879094,123.50426,204.22247)"
       clip-path="url(#clipPath13)"><tspan
         style="font-variant:normal;font-weight:normal;font-size:20px;font-family:Helvetica;writing-mode:lr-tb;fill:#000000;fill-opacity:1;fill-rule:nonzero;stroke:none"
         x="0 11.123047 22.246094 40.771484 51.894531 58.554688 68.554688 74.111328 85.234375"
         y="0"
         sodipodi:role="line"
         id="tspan12">doWork #1</tspan></text>
    <path
       id="path14"
       d="m 82,299.5 h 9.000092 v 3 H 82 m 18.00018,-3 h 9.00009 v 3 h -9.00009 m 18.00018,-3 h 9.00009 v 3 h -9.00009 m 18.00017,-3 h 9.0001 v 3 h -9.0001 m 18.00019,-3 h 9.00009 v 3 h -9.00009 m 18.00018,-3 h 9.00008 v 3 h -9.00008 m 18.00017,-3 h 9.00009 v 3 h -9.00009 m 18.00018,-3 h 9.00009 v 3 h -9.00009 m 18.00018,-3 h 9.0001 v 3 h -9.0001 m 18.00019,-3 h 9.00009 v 3 h -9.00009 m 18.00018,-3 h 9.00009 v 3 h -9.00009 m 18.00015,-3 h 9.00013 v 3 h -9.00013 m 18.00019,-3 h 9.00012 v 3 h -9.00012 m 18.00018,-3 h 9.00012 v 3 h -9.00012 m 18.00018,-3 h 9.00009 v 3 h -9.00009 m 18.00019,-3 h 9.00009 v 3 h -9.00009 m 18.00018,-3 h 9.00009 v 3 h -9.00009 m 18.00018,-3 h 9.00009 v 3 h -9.00009 m 18.00018,-3 h 9.0001 v 3 h -9.0001 m 18.00019,-3 h 9.00009 v 3 h -9.00009 m 18.00018,-3 h 9.00006 v 3 h -9.00006 m 18.00015,-3 h 9.0001 v 3 h -9.0001 m 18.00019,-3 h 9.00009 v 3 h -9.00009 m 18.00018,-3 h 9.00009 v 3 h -9.00009"
       style="fill:#000000;fill-opacity:1;fill-rule:nonzero;stroke:none"
       transform="matrix(0.9587813,0,0,0.9587813,0.47939066,0.47939066)"
       clip-path="url(#clipPath15)" />
    <text
       id="text15"
       xml:space="preserve"
       transform="matrix(0.95879094,0,0,0.95879094,39.729899,295.30761)"
       clip-path="url(#clipPath16)"><tspan
         style="font-variant:normal;font-weight:normal;font-size:20px;font-family:Helvetica;writing-mode:lr-tb;fill:#000000;fill-opacity:1;fill-rule:nonzero;stroke:none"
         x="0 11.123047"
         y="0"
         sodipodi:role="line"
         id="tspan15">1s</tspan></text>
    <path
       id="path17"
       d="m 177,61 v 39.9"
       style="fill:none;stroke:#000000;stroke-width:1;stroke-linecap:butt;stroke-linejoin:miter;stroke-miterlimit:10;stroke-dasharray:none;stroke-opacity:1"
       transform="matrix(0.9587813,0,0,0.9587813,0.47939066,0.47939066)"
       clip-path="url(#clipPath18)" />
    <path
       id="path19"
       d="M 177,107.65 172.5,98.650002 177,100.9 181.5,98.650002 Z"
       style="fill:#000000;fill-opacity:1;fill-rule:nonzero;stroke:#000000;stroke-width:1;stroke-linecap:butt;stroke-linejoin:miter;stroke-miterlimit:10;stroke-dasharray:none;stroke-opacity:1"
       transform="matrix(0.9587813,0,0,0.9587813,0.47939066,0.47939066)"
       clip-path="url(#clipPath20)" />
    <path
       id="path21"
       d="m 137,1 h 80 v 60 h -80 z"
       style="fill:#ffffff;fill-opacity:1;fill-rule:nonzero;stroke:#000000;stroke-width:1;stroke-linecap:butt;stroke-linejoin:miter;stroke-miterlimit:10;stroke-dasharray:none;stroke-opacity:1"
       transform="scale(0.9587813)"
       clip-path="url(#clipPath22)" />
    <text
       id="text22"
       xml:space="preserve"
       transform="matrix(0.95879094,0,0,0.95879094,138.26065,24.928564)"
       clip-path="url(#clipPath23)"><tspan
         style="font-variant:normal;font-weight:normal;font-size:20px;font-family:Helvetica;writing-mode:lr-tb;fill:#000000;fill-opacity:1;fill-rule:nonzero;stroke:none"
         x="0 14.443359 25.566406 36.689453 42.246094 47.802734 58.925781"
         y="0"
         sodipodi:role="line"
         id="tspan22">Req for</tspan></text>
    <text
       id="text23"
       xml:space="preserve"
       transform="matrix(0.95879094,0,0,0.95879094,136.83744,47.939547)"
       clip-path="url(#clipPath24)"><tspan
         style="font-variant:normal;font-weight:normal;font-size:20px;font-family:Helvetica;writing-mode:lr-tb;fill:#000000;fill-opacity:1;fill-rule:nonzero;stroke:none"
         x="0 11.123047 22.246094 40.771484 51.894531 58.554688"
         y="0"
         sodipodi:role="line"
         id="tspan23">doWork</tspan></text>
    <path
       id="path25"
       d="m 287,61 v 25 14.9"
       style="fill:none;stroke:#000000;stroke-width:1;stroke-linecap:butt;stroke-linejoin:miter;stroke-miterlimit:10;stroke-dasharray:none;stroke-opacity:1"
       transform="matrix(0.9587813,0,0,0.9587813,0.47939066,0.47939066)"
       clip-path="url(#clipPath26)" />
    <path
       id="path27"
       d="M 287,107.65 282.5,98.650002 287,100.9 291.5,98.650002 Z"
       style="fill:#000000;fill-opacity:1;fill-rule:nonzero;stroke:#000000;stroke-width:1;stroke-linecap:butt;stroke-linejoin:miter;stroke-miterlimit:10;stroke-dasharray:none;stroke-opacity:1"
       transform="matrix(0.9587813,0,0,0.9587813,0.47939066,0.47939066)"
       clip-path="url(#clipPath28)" />
    <path
       id="path29"
       d="m 247,1 h 80 v 60 h -80 z"
       style="fill:#ffffff;fill-opacity:1;fill-rule:nonzero;stroke:#000000;stroke-width:1;stroke-linecap:butt;stroke-linejoin:miter;stroke-miterlimit:10;stroke-dasharray:none;stroke-opacity:1"
       transform="scale(0.9587813)"
       clip-path="url(#clipPath30)" />
    <text
       id="text30"
       xml:space="preserve"
       transform="matrix(0.95879094,0,0,0.95879094,243.72766,24.928564)"
       clip-path="url(#clipPath31)"><tspan
         style="font-variant:normal;font-weight:normal;font-size:20px;font-family:Helvetica;writing-mode:lr-tb;fill:#000000;fill-opacity:1;fill-rule:nonzero;stroke:none"
         x="0 14.443359 25.566406 36.689453 42.246094 47.802734 58.925781"
         y="0"
         sodipodi:role="line"
         id="tspan30">Req for</tspan></text>
    <text
       id="text31"
       xml:space="preserve"
       transform="matrix(0.95879094,0,0,0.95879094,242.30445,47.939547)"
       clip-path="url(#clipPath32)"><tspan
         style="font-variant:normal;font-weight:normal;font-size:20px;font-family:Helvetica;writing-mode:lr-tb;fill:#000000;fill-opacity:1;fill-rule:nonzero;stroke:none"
         x="0 11.123047 22.246094 40.771484 51.894531 58.554688"
         y="0"
         sodipodi:role="line"
         id="tspan31">doWork</tspan></text>
    <path
       id="path33"
       d="m 502.01001,176 h 240 v 60 h -240 z"
       style="fill:#f8cecc;fill-opacity:1;fill-rule:nonzero;stroke:#b85450;stroke-width:1;stroke-linecap:butt;stroke-linejoin:miter;stroke-miterlimit:10;stroke-dasharray:none;stroke-opacity:1"
       transform="matrix(0.9587813,0,0,0.9587813,0.47939066,0.47939066)"
       clip-path="url(#clipPath34)" />
    <text
       id="text34"
       xml:space="preserve"
       transform="matrix(0.95879094,0,0,0.95879094,512.29398,204.22247)"
       clip-path="url(#clipPath35)"><tspan
         style="font-variant:normal;font-weight:700;font-size:20px;font-family:Helvetica;writing-mode:lr-tb;fill:#000000;fill-opacity:1;fill-rule:nonzero;stroke:none"
         x="0 18.701172 24.257812 30.917969 43.134766 55.351562 67.568359 74.228516 79.785156 90.908203 96.464844 108.68164 119.80469 126.46484 137.58789 145.37109 150.92773 163.14453"
         y="0"
         sodipodi:role="line"
         id="tspan34">Without clustering</tspan></text>
    <path
       id="path36"
       d="M 237,111 H 337 V 491 H 237 Z"
       style="fill:#dae8fc;fill-opacity:1;fill-rule:nonzero;stroke:#6c8ebf;stroke-width:1;stroke-linecap:butt;stroke-linejoin:miter;stroke-miterlimit:10;stroke-dasharray:none;stroke-opacity:1"
       transform="scale(0.9587813)"
       clip-path="url(#clipPath37)" />
    <text
       id="text37"
       xml:space="preserve"
       transform="matrix(0.95879094,0,0,0.95879094,228.97126,295.30761)"
       clip-path="url(#clipPath38)"><tspan
         style="font-variant:normal;font-weight:normal;font-size:20px;font-family:Helvetica;writing-mode:lr-tb;fill:#000000;fill-opacity:1;fill-rule:nonzero;stroke:none"
         x="0 11.123047 22.246094 40.771484 51.894531 58.554688 68.554688 74.111328 85.234375"
         y="0"
         sodipodi:role="line"
         id="tspan37">doWork #2</tspan></text>
  </g>
</svg>
