<?xml version="1.0" encoding="UTF-8" standalone="no"?>
<!-- Created with Inkscape (http://www.inkscape.org/) -->

<svg
   version="1.1"
   id="svg1"
   width="627.83997"
   height="141.43999"
   viewBox="0 0 627.83997 141.43999"
   sodipodi:docname="node-2.pdf"
   xmlns:inkscape="http://www.inkscape.org/namespaces/inkscape"
   xmlns:sodipodi="http://sodipodi.sourceforge.net/DTD/sodipodi-0.dtd"
   xmlns="http://www.w3.org/2000/svg"
   xmlns:svg="http://www.w3.org/2000/svg">
  <defs
     id="defs1">
    <clipPath
       clipPathUnits="userSpaceOnUse"
       id="clipPath2">
      <path
         d="M 0,0 H 1962.5 V 440.43893 H 0 Z"
         transform="scale(0.33375796)"
         clip-rule="evenodd"
         id="path2" />
    </clipPath>
    <clipPath
       clipPathUnits="userSpaceOnUse"
       id="clipPath4">
      <path
         d="M 0,0 H 1962.5 V 434.44656 H 0 Z"
         transform="matrix(0.33375796,0,0,0.33375796,-0.5,-0.5)"
         clip-rule="evenodd"
         id="path4" />
    </clipPath>
    <clipPath
       clipPathUnits="userSpaceOnUse"
       id="clipPath6">
      <path
         d="M 0,0 H 1962.5 V 434.44656 H 0 Z"
         transform="matrix(0.33375796,0,0,0.33375796,-0.5,-0.5)"
         clip-rule="evenodd"
         id="path6" />
    </clipPath>
    <clipPath
       clipPathUnits="userSpaceOnUse"
       id="clipPath8">
      <path
         d="M 0,0 H 1962.5 V 434.44656 H 0 Z"
         transform="scale(0.33375796)"
         clip-rule="evenodd"
         id="path8" />
    </clipPath>
    <clipPath
       clipPathUnits="userSpaceOnUse"
       id="clipPath9">
      <path
         d="M 0,0 H 1962.5 V 434.44656 H 0 Z"
         transform="matrix(0.33375462,0,0,0.33375462,-57.046876,-70)"
         clip-rule="evenodd"
         id="path9" />
    </clipPath>
    <clipPath
       clipPathUnits="userSpaceOnUse"
       id="clipPath10">
      <path
         d="M 0,0 H 1962.5 V 434.44656 H 0 Z"
         transform="matrix(0.33375462,0,0,0.33375462,-7.609375,-94)"
         clip-rule="evenodd"
         id="path10" />
    </clipPath>
    <clipPath
       clipPathUnits="userSpaceOnUse"
       id="clipPath11">
      <path
         d="M 0,0 H 1962.5 V 434.44656 H 0 Z"
         transform="matrix(0.33375462,0,0,0.33375462,-87.09375,-118)"
         clip-rule="evenodd"
         id="path11" />
    </clipPath>
    <clipPath
       clipPathUnits="userSpaceOnUse"
       id="clipPath12">
      <path
         d="M 0,0 H 1962.5 V 434.44656 H 0 Z"
         transform="matrix(0.33375462,0,0,0.33375462,-30.9375,-19)"
         clip-rule="evenodd"
         id="path12" />
    </clipPath>
    <clipPath
       clipPathUnits="userSpaceOnUse"
       id="clipPath14">
      <path
         d="M 0,0 H 1962.5 V 434.44656 H 0 Z"
         transform="scale(0.33375796)"
         clip-rule="evenodd"
         id="path14" />
    </clipPath>
    <clipPath
       clipPathUnits="userSpaceOnUse"
       id="clipPath15">
      <path
         d="M 0,0 H 1962.5 V 434.44656 H 0 Z"
         transform="matrix(0.33375462,0,0,0.33375462,-390.92188,-70)"
         clip-rule="evenodd"
         id="path15" />
    </clipPath>
    <clipPath
       clipPathUnits="userSpaceOnUse"
       id="clipPath16">
      <path
         d="M 0,0 H 1962.5 V 434.44656 H 0 Z"
         transform="matrix(0.33375462,0,0,0.33375462,-402.03125,-94)"
         clip-rule="evenodd"
         id="path16" />
    </clipPath>
    <clipPath
       clipPathUnits="userSpaceOnUse"
       id="clipPath17">
      <path
         d="M 0,0 H 1962.5 V 434.44656 H 0 Z"
         transform="matrix(0.33375462,0,0,0.33375462,-485.40626,-118)"
         clip-rule="evenodd"
         id="path17" />
    </clipPath>
    <clipPath
       clipPathUnits="userSpaceOnUse"
       id="clipPath18">
      <path
         d="M 0,0 H 1962.5 V 434.44656 H 0 Z"
         transform="matrix(0.33375462,0,0,0.33375462,-403.51563,-19)"
         clip-rule="evenodd"
         id="path18" />
    </clipPath>
  </defs>
  <sodipodi:namedview
     id="namedview1"
     pagecolor="#ffffff"
     bordercolor="#000000"
     borderopacity="0.25"
     inkscape:showpageshadow="2"
     inkscape:pageopacity="0.0"
     inkscape:pagecheckerboard="0"
     inkscape:deskcolor="#d1d1d1">
    <inkscape:page
       x="0"
       y="0"
       inkscape:label="1"
       id="page1"
       width="627.83997"
       height="141.43999"
       margin="0"
       bleed="0" />
  </sodipodi:namedview>
  <g
     id="g1"
     inkscape:groupmode="layer"
     inkscape:label="1">
    <path
       id="path1"
       d="M 0,0 H 655 V 147 H 0 Z"
       style="fill:#ffffff;fill-opacity:1;fill-rule:nonzero;stroke:none"
       transform="scale(0.95877858)"
       clip-path="url(#clipPath2)" />
    <path
       id="path3"
       d="m 301,87 h 69.89999"
       style="fill:none;stroke:#000000;stroke-width:1;stroke-linecap:butt;stroke-linejoin:miter;stroke-miterlimit:10;stroke-dasharray:none;stroke-opacity:1"
       transform="matrix(0.95877858,0,0,0.95877858,0.47938929,0.47938929)"
       clip-path="url(#clipPath4)" />
    <path
       id="path5"
       d="m 377.64999,87 -9,4.5 2.25,-4.5 -2.25,-4.5 z"
       style="fill:#000000;fill-opacity:1;fill-rule:nonzero;stroke:#000000;stroke-width:1;stroke-linecap:butt;stroke-linejoin:miter;stroke-miterlimit:10;stroke-dasharray:none;stroke-opacity:1"
       transform="matrix(0.95877858,0,0,0.95877858,0.47938929,0.47938929)"
       clip-path="url(#clipPath6)" />
    <path
       id="path7"
       d="M 1,32 H 301 V 142 H 1 Z"
       style="fill:#dae8fc;fill-opacity:1;fill-rule:nonzero;stroke:#6c8ebf;stroke-width:1;stroke-linecap:butt;stroke-linejoin:miter;stroke-miterlimit:10;stroke-dasharray:none;stroke-opacity:1"
       transform="scale(0.95877858)"
       clip-path="url(#clipPath8)" />
    <text
       id="text8"
       xml:space="preserve"
       transform="matrix(0.95878818,0,0,0.95878818,54.69587,67.115173)"
       clip-path="url(#clipPath9)"><tspan
         style="font-variant:normal;font-weight:normal;font-size:20px;font-family:Helvetica;writing-mode:lr-tb;fill:#000000;fill-opacity:1;fill-rule:nonzero;stroke:none"
         x="0 13.339844 24.462891 35.585938 46.708984 51.152344 62.275391 67.832031 73.388672 78.945312 90.068359 100.06836 111.19141 116.74805 131.19141 142.31445 153.4375 164.56055 170.11719 181.24023"
         y="0"
         sodipodi:role="line"
         id="tspan8">Should I use Node or</tspan></text>
    <text
       id="text9"
       xml:space="preserve"
       transform="matrix(0.95878818,0,0,0.95878818,7.2957788,90.126089)"
       clip-path="url(#clipPath10)"><tspan
         style="font-variant:normal;font-weight:normal;font-size:20px;font-family:Helvetica;writing-mode:lr-tb;fill:#000000;fill-opacity:1;fill-rule:nonzero;stroke:none"
         x="0 6.6601562 22.216797 33.339844 38.896484 53.339844 64.462891 75.585938 85.585938 91.142578 101.14258 112.26562 122.26562 133.38867 138.94531 152.28516 162.28516 173.4082 177.85156 188.97461 194.53125 213.4082 224.53125 235.6543 241.21094 252.33398 262.33398 273.45703 280.11719"
         y="0"
         sodipodi:role="line"
         id="tspan9">(Go/Ruby/Java/Scala/Whatever)</tspan></text>
    <text
       id="text10"
       xml:space="preserve"
       transform="matrix(0.95878818,0,0,0.95878818,83.504458,113.13701)"
       clip-path="url(#clipPath11)"><tspan
         style="font-variant:normal;font-weight:normal;font-size:20px;font-family:Helvetica;writing-mode:lr-tb;fill:#000000;fill-opacity:1;fill-rule:nonzero;stroke:none"
         x="0 5.5566406 16.679688 23.339844 28.896484 45.556641 55.556641 61.113281 71.113281 82.236328 88.896484 98.896484 110.01953 116.67969"
         y="0"
         sodipodi:role="line"
         id="tspan10">for my server?</tspan></text>
    <text
       id="text11"
       xml:space="preserve"
       transform="matrix(0.95878818,0,0,0.95878818,29.662509,18.216975)"
       clip-path="url(#clipPath12)"><tspan
         style="font-variant:normal;font-weight:700;font-size:20px;font-family:Helvetica;writing-mode:lr-tb;fill:#000000;fill-opacity:1;fill-rule:nonzero;stroke:none"
         x="0 13.339844 25.556641 37.773438 48.896484 56.679688 62.236328 76.679688 88.896484 106.67969 124.46289 136.67969 148.89648 154.45312 170.00977 182.22656 193.34961 204.47266 211.13281 216.68945 228.90625"
         y="0"
         sodipodi:role="line"
         id="tspan11">Super Common Question</tspan></text>
    <path
       id="path13"
       d="M 381,32 H 651 V 142 H 381 Z"
       style="fill:#d5e8d4;fill-opacity:1;fill-rule:nonzero;stroke:#82b366;stroke-width:1;stroke-linecap:butt;stroke-linejoin:miter;stroke-miterlimit:10;stroke-dasharray:none;stroke-opacity:1"
       transform="scale(0.95877858)"
       clip-path="url(#clipPath14)" />
    <text
       id="text14"
       xml:space="preserve"
       transform="matrix(0.95878818,0,0,0.95878818,374.81128,67.115173)"
       clip-path="url(#clipPath15)"><tspan
         style="font-variant:normal;font-weight:normal;font-size:20px;font-family:Helvetica;writing-mode:lr-tb;fill:#000000;fill-opacity:1;fill-rule:nonzero;stroke:none"
         x="0 14.443359 24.443359 35.566406 41.123047 55.566406 66.689453 77.8125 88.935547 94.492188 98.935547 104.49219 110.04883 120.04883 131.17188 142.29492 148.95508 154.51172 165.63477 176.75781 187.88086 192.32422 196.76758 206.76758 217.89062 223.44727 227.89062 239.01367"
         y="0"
         sodipodi:role="line"
         id="tspan14">Use Node if your application</tspan></text>
    <text
       id="text15"
       xml:space="preserve"
       transform="matrix(0.95878818,0,0,0.95878818,385.46281,90.126089)"
       clip-path="url(#clipPath16)"><tspan
         style="font-variant:normal;font-weight:normal;font-size:20px;font-family:Helvetica;writing-mode:lr-tb;fill:#000000;fill-opacity:1;fill-rule:nonzero;stroke:none"
         x="0 4.4433594 14.443359 20 25.556641 31.113281 46.669922 52.226562 63.349609 74.472656 85.595703 96.71875 107.8418 113.39844 124.52148 135.64453 146.76758 152.32422 163.44727 174.57031 180.12695 185.68359 200.12695 213.4668"
         y="0"
         sodipodi:role="line"
         id="tspan15">is I/O bound and not CPU</tspan></text>
    <text
       id="text16"
       xml:space="preserve"
       transform="matrix(0.95878818,0,0,0.95878818,465.40178,113.13701)"
       clip-path="url(#clipPath17)"><tspan
         style="font-variant:normal;font-weight:normal;font-size:20px;font-family:Helvetica;writing-mode:lr-tb;fill:#000000;fill-opacity:1;fill-rule:nonzero;stroke:none"
         x="0 11.123047 22.246094 33.369141 44.492188 55.615234"
         y="0"
         sodipodi:role="line"
         id="tspan16">bound.</tspan></text>
    <text
       id="text17"
       xml:space="preserve"
       transform="matrix(0.95878818,0,0,0.95878818,386.88602,18.216975)"
       clip-path="url(#clipPath18)"><tspan
         style="font-variant:normal;font-weight:700;font-size:20px;font-family:Helvetica;writing-mode:lr-tb;fill:#000000;fill-opacity:1;fill-rule:nonzero;stroke:none"
         x="0 13.339844 25.556641 37.773438 48.896484 56.679688 62.236328 76.679688 88.896484 106.67969 124.46289 136.67969 148.89648 153.7207 168.16406 180.38086 191.50391 207.06055 218.18359"
         y="0"
         sodipodi:role="line"
         id="tspan17">Super Common Answer</tspan></text>
  </g>
</svg>
