<?xml version="1.0" encoding="UTF-8" standalone="no"?>
<!-- Created with Inkscape (http://www.inkscape.org/) -->

<svg
   version="1.1"
   id="svg1"
   width="388.16"
   height="169.28"
   viewBox="0 0 388.16 169.28"
   sodipodi:docname="node-14.pdf"
   xmlns:inkscape="http://www.inkscape.org/namespaces/inkscape"
   xmlns:sodipodi="http://sodipodi.sourceforge.net/DTD/sodipodi-0.dtd"
   xmlns="http://www.w3.org/2000/svg"
   xmlns:svg="http://www.w3.org/2000/svg">
  <defs
     id="defs1">
    <clipPath
       clipPathUnits="userSpaceOnUse"
       id="clipPath2">
      <path
         d="M 0,0 H 1212.5 V 528.21783 H 0 Z"
         transform="scale(0.33319588)"
         clip-rule="evenodd"
         id="path2" />
    </clipPath>
    <clipPath
       clipPathUnits="userSpaceOnUse"
       id="clipPath3">
      <path
         d="M 0,0 H 1212.5 V 525.21661 H 0 Z"
         transform="matrix(0.33319254,0,0,0.33319254,-60.96875,-19)"
         clip-rule="evenodd"
         id="path3" />
    </clipPath>
    <clipPath
       clipPathUnits="userSpaceOnUse"
       id="clipPath5">
      <path
         d="M 0,0 H 1212.5 V 525.21661 H 0 Z"
         transform="scale(0.33319588)"
         clip-rule="evenodd"
         id="path5" />
    </clipPath>
    <clipPath
       clipPathUnits="userSpaceOnUse"
       id="clipPath6">
      <path
         d="M 0,0 H 1212.5 V 525.21661 H 0 Z"
         transform="matrix(0.33319254,0,0,0.33319254,-79.90625,-69)"
         clip-rule="evenodd"
         id="path6" />
    </clipPath>
    <clipPath
       clipPathUnits="userSpaceOnUse"
       id="clipPath8">
      <path
         d="M 0,0 H 1212.5 V 525.21661 H 0 Z"
         transform="scale(0.33319588)"
         clip-rule="evenodd"
         id="path8" />
    </clipPath>
    <clipPath
       clipPathUnits="userSpaceOnUse"
       id="clipPath9">
      <path
         d="M 0,0 H 1212.5 V 525.21661 H 0 Z"
         transform="matrix(0.33319254,0,0,0.33319254,-109.09375,-149)"
         clip-rule="evenodd"
         id="path9" />
    </clipPath>
  </defs>
  <sodipodi:namedview
     id="namedview1"
     pagecolor="#ffffff"
     bordercolor="#000000"
     borderopacity="0.25"
     inkscape:showpageshadow="2"
     inkscape:pageopacity="0.0"
     inkscape:pagecheckerboard="0"
     inkscape:deskcolor="#d1d1d1">
    <inkscape:page
       x="0"
       y="0"
       inkscape:label="1"
       id="page1"
       width="388.16"
       height="169.28"
       margin="0"
       bleed="0" />
  </sodipodi:namedview>
  <g
     id="g1"
     inkscape:groupmode="layer"
     inkscape:label="1">
    <path
       id="path1"
       d="M 0,0 H 404 V 176 H 0 Z"
       style="fill:#ffffff;fill-opacity:1;fill-rule:nonzero;stroke:none"
       transform="scale(0.96039599)"
       clip-path="url(#clipPath2)" />
    <text
       id="text2"
       xml:space="preserve"
       transform="matrix(0.96040562,0,0,0.96040562,58.55473,18.247707)"
       clip-path="url(#clipPath3)"><tspan
         style="font-variant:normal;font-weight:700;font-size:20px;font-family:Helvetica;writing-mode:lr-tb;fill:#000000;fill-opacity:1;fill-rule:nonzero;stroke:none"
         x="0 5.5566406 23.339844 35.556641 43.339844 55.556641 66.679688 72.236328 84.453125 96.669922 102.22656 116.66992 128.88672 141.10352 152.22656 157.7832 171.12305 182.24609 190.0293 196.68945 208.90625 216.68945 234.47266 245.5957 257.8125 268.93555"
         y="0"
         sodipodi:role="line"
         id="tspan2">Improving Node Performance</tspan></text>
    <path
       id="path4"
       d="M 1,32 H 401 V 92 H 1 Z"
       style="fill:#ffffff;fill-opacity:1;fill-rule:nonzero;stroke:#000000;stroke-width:1;stroke-linecap:butt;stroke-linejoin:miter;stroke-miterlimit:10;stroke-dasharray:none;stroke-opacity:1"
       transform="scale(0.96039599)"
       clip-path="url(#clipPath5)" />
    <text
       id="text5"
       xml:space="preserve"
       transform="matrix(0.96040562,0,0,0.96040562,76.742412,66.267988)"
       clip-path="url(#clipPath6)"><tspan
         style="font-variant:normal;font-weight:normal;font-size:20px;font-family:Helvetica;writing-mode:lr-tb;fill:#000000;fill-opacity:1;fill-rule:nonzero;stroke:none"
         x="0 14.443359 24.443359 35.566406 41.123047 55.566406 66.689453 77.8125 88.935547 94.492188 98.935547 110.05859 115.61523 119.43359 133.87695 138.32031 149.44336 159.44336 165 176.12305 182.7832 186.60156 192.1582 208.81836 219.94141 231.06445"
         y="0"
         sodipodi:role="line"
         id="tspan5">Use Node in 'Cluster' Mode</tspan></text>
    <path
       id="path7"
       d="m 1,112 h 400 v 60 H 1 Z"
       style="fill:#ffffff;fill-opacity:1;fill-rule:nonzero;stroke:#000000;stroke-width:1;stroke-linecap:butt;stroke-linejoin:miter;stroke-miterlimit:10;stroke-dasharray:none;stroke-opacity:1"
       transform="scale(0.96039599)"
       clip-path="url(#clipPath8)" />
    <text
       id="text8"
       xml:space="preserve"
       transform="matrix(0.96040562,0,0,0.96040562,104.77425,143.10044)"
       clip-path="url(#clipPath9)"><tspan
         style="font-variant:normal;font-weight:normal;font-size:20px;font-family:Helvetica;writing-mode:lr-tb;fill:#000000;fill-opacity:1;fill-rule:nonzero;stroke:none"
         x="0 14.443359 24.443359 35.566406 41.123047 59.648438 70.771484 77.431641 87.431641 98.554688 105.21484 110.41992 122.63672 133.75977 140.41992 151.54297 162.66602 173.78906"
         y="0"
         sodipodi:role="line"
         id="tspan8">Use Worker Threads</tspan></text>
  </g>
</svg>
