<?xml version="1.0" encoding="UTF-8" standalone="no"?>
<!-- Created with Inkscape (http://www.inkscape.org/) -->

<svg
   version="1.1"
   id="svg1"
   width="656"
   height="357.44"
   viewBox="0 0 656 357.44"
   sodipodi:docname="node-6.pdf"
   xmlns:inkscape="http://www.inkscape.org/namespaces/inkscape"
   xmlns:sodipodi="http://sodipodi.sourceforge.net/DTD/sodipodi-0.dtd"
   xmlns="http://www.w3.org/2000/svg"
   xmlns:svg="http://www.w3.org/2000/svg">
  <defs
     id="defs1">
    <clipPath
       clipPathUnits="userSpaceOnUse"
       id="clipPath2">
      <path
         d="M 0,0 H 2049.9998 V 1114.9122 H 0 Z"
         transform="scale(0.33365856)"
         clip-rule="evenodd"
         id="path2" />
    </clipPath>
    <clipPath
       clipPathUnits="userSpaceOnUse"
       id="clipPath3">
      <path
         d="M 0,0 H 2049.9998 V 1111.9152 H 0 Z"
         transform="matrix(0.33365522,0,0,0.33365522,-221.1875,-19)"
         clip-rule="evenodd"
         id="path3" />
    </clipPath>
    <clipPath
       clipPathUnits="userSpaceOnUse"
       id="clipPath5">
      <path
         d="M 0,0 H 2049.9998 V 1111.9152 H 0 Z"
         transform="scale(0.33365856)"
         clip-rule="evenodd"
         id="path5" />
    </clipPath>
    <clipPath
       clipPathUnits="userSpaceOnUse"
       id="clipPath7">
      <path
         d="M 0,0 H 2049.9998 V 1111.9152 H 0 Z"
         transform="scale(0.33365856)"
         clip-rule="evenodd"
         id="path7" />
    </clipPath>
    <clipPath
       clipPathUnits="userSpaceOnUse"
       id="clipPath8">
      <path
         d="M 0,0 H 2049.9998 V 1111.9152 H 0 Z"
         transform="matrix(0.33365522,0,0,0.33365522,-193.42188,-78)"
         clip-rule="evenodd"
         id="path8" />
    </clipPath>
    <clipPath
       clipPathUnits="userSpaceOnUse"
       id="clipPath10">
      <path
         d="M 0,0 H 2049.9998 V 1111.9152 H 0 Z"
         transform="scale(0.33365856)"
         clip-rule="evenodd"
         id="path10" />
    </clipPath>
    <clipPath
       clipPathUnits="userSpaceOnUse"
       id="clipPath11">
      <path
         d="M 0,0 H 2049.9998 V 1111.9152 H 0 Z"
         transform="matrix(0.33365522,0,0,0.33365522,-357.42188,-78)"
         clip-rule="evenodd"
         id="path11" />
    </clipPath>
    <clipPath
       clipPathUnits="userSpaceOnUse"
       id="clipPath13">
      <path
         d="M 0,0 H 2049.9998 V 1111.9152 H 0 Z"
         transform="matrix(0.33365856,0,0,0.33365856,-0.5,-0.5)"
         clip-rule="evenodd"
         id="path13" />
    </clipPath>
    <clipPath
       clipPathUnits="userSpaceOnUse"
       id="clipPath15">
      <path
         d="M 0,0 H 2049.9998 V 1111.9152 H 0 Z"
         transform="matrix(0.33365856,0,0,0.33365856,-0.5,-0.5)"
         clip-rule="evenodd"
         id="path15" />
    </clipPath>
    <clipPath
       clipPathUnits="userSpaceOnUse"
       id="clipPath17">
      <path
         d="M 0,0 H 2049.9998 V 1111.9152 H 0 Z"
         transform="scale(0.33365856)"
         clip-rule="evenodd"
         id="path17" />
    </clipPath>
    <clipPath
       clipPathUnits="userSpaceOnUse"
       id="clipPath18">
      <path
         d="M 0,0 H 2049.9998 V 1111.9152 H 0 Z"
         transform="matrix(0.33365522,0,0,0.33365522,-212.45312,-170)"
         clip-rule="evenodd"
         id="path18" />
    </clipPath>
    <clipPath
       clipPathUnits="userSpaceOnUse"
       id="clipPath20">
      <path
         d="M 0,0 H 2049.9998 V 1111.9152 H 0 Z"
         transform="matrix(0.33365856,0,0,0.33365856,-0.5,-0.5)"
         clip-rule="evenodd"
         id="path20" />
    </clipPath>
    <clipPath
       clipPathUnits="userSpaceOnUse"
       id="clipPath22">
      <path
         d="M 0,0 H 2049.9998 V 1111.9152 H 0 Z"
         transform="matrix(0.33365856,0,0,0.33365856,-0.5,-0.5)"
         clip-rule="evenodd"
         id="path22" />
    </clipPath>
    <clipPath
       clipPathUnits="userSpaceOnUse"
       id="clipPath24">
      <path
         d="M 0,0 H 2049.9998 V 1111.9152 H 0 Z"
         transform="scale(0.33365856)"
         clip-rule="evenodd"
         id="path24" />
    </clipPath>
    <clipPath
       clipPathUnits="userSpaceOnUse"
       id="clipPath25">
      <path
         d="M 0,0 H 2049.9998 V 1111.9152 H 0 Z"
         transform="matrix(0.33365522,0,0,0.33365522,-254.51563,-240)"
         clip-rule="evenodd"
         id="path25" />
    </clipPath>
    <clipPath
       clipPathUnits="userSpaceOnUse"
       id="clipPath27">
      <path
         d="M 0,0 H 2049.9998 V 1111.9152 H 0 Z"
         transform="scale(0.33365856)"
         clip-rule="evenodd"
         id="path27" />
    </clipPath>
    <clipPath
       clipPathUnits="userSpaceOnUse"
       id="clipPath28">
      <path
         d="M 0,0 H 2049.9998 V 1111.9152 H 0 Z"
         transform="matrix(0.33365522,0,0,0.33365522,-174.35938,-276)"
         clip-rule="evenodd"
         id="path28" />
    </clipPath>
    <clipPath
       clipPathUnits="userSpaceOnUse"
       id="clipPath30">
      <path
         d="M 0,0 H 2049.9998 V 1111.9152 H 0 Z"
         transform="scale(0.33365856)"
         clip-rule="evenodd"
         id="path30" />
    </clipPath>
    <clipPath
       clipPathUnits="userSpaceOnUse"
       id="clipPath31">
      <path
         d="M 0,0 H 2049.9998 V 1111.9152 H 0 Z"
         transform="matrix(0.33365522,0,0,0.33365522,-244.35938,-276)"
         clip-rule="evenodd"
         id="path31" />
    </clipPath>
    <clipPath
       clipPathUnits="userSpaceOnUse"
       id="clipPath33">
      <path
         d="M 0,0 H 2049.9998 V 1111.9152 H 0 Z"
         transform="scale(0.33365856)"
         clip-rule="evenodd"
         id="path33" />
    </clipPath>
    <clipPath
       clipPathUnits="userSpaceOnUse"
       id="clipPath34">
      <path
         d="M 0,0 H 2049.9998 V 1111.9152 H 0 Z"
         transform="matrix(0.33365522,0,0,0.33365522,-314.35938,-276)"
         clip-rule="evenodd"
         id="path34" />
    </clipPath>
    <clipPath
       clipPathUnits="userSpaceOnUse"
       id="clipPath36">
      <path
         d="M 0,0 H 2049.9998 V 1111.9152 H 0 Z"
         transform="scale(0.33365856)"
         clip-rule="evenodd"
         id="path36" />
    </clipPath>
    <clipPath
       clipPathUnits="userSpaceOnUse"
       id="clipPath37">
      <path
         d="M 0,0 H 2049.9998 V 1111.9152 H 0 Z"
         transform="matrix(0.33365522,0,0,0.33365522,-384.35938,-276)"
         clip-rule="evenodd"
         id="path37" />
    </clipPath>
    <clipPath
       clipPathUnits="userSpaceOnUse"
       id="clipPath39">
      <path
         d="M 0,0 H 2049.9998 V 1111.9152 H 0 Z"
         transform="scale(0.33365856)"
         clip-rule="evenodd"
         id="path39" />
    </clipPath>
    <clipPath
       clipPathUnits="userSpaceOnUse"
       id="clipPath40">
      <path
         d="M 0,0 H 2049.9998 V 1111.9152 H 0 Z"
         transform="matrix(0.33365522,0,0,0.33365522,-594.6875,-356)"
         clip-rule="evenodd"
         id="path40" />
    </clipPath>
    <clipPath
       clipPathUnits="userSpaceOnUse"
       id="clipPath42">
      <path
         d="M 0,0 H 2049.9998 V 1111.9152 H 0 Z"
         transform="scale(0.33365856)"
         clip-rule="evenodd"
         id="path42" />
    </clipPath>
    <clipPath
       clipPathUnits="userSpaceOnUse"
       id="clipPath43">
      <path
         d="M 0,0 H 2049.9998 V 1111.9152 H 0 Z"
         transform="matrix(0.33365522,0,0,0.33365522,-230.6875,-356)"
         clip-rule="evenodd"
         id="path43" />
    </clipPath>
    <clipPath
       clipPathUnits="userSpaceOnUse"
       id="clipPath45">
      <path
         d="M 0,0 H 2049.9998 V 1111.9152 H 0 Z"
         transform="matrix(0.33365856,0,0,0.33365856,-0.5,-0.5)"
         clip-rule="evenodd"
         id="path45" />
    </clipPath>
    <clipPath
       clipPathUnits="userSpaceOnUse"
       id="clipPath47">
      <path
         d="M 0,0 H 2049.9998 V 1111.9152 H 0 Z"
         transform="matrix(0.33365856,0,0,0.33365856,-0.5,-0.5)"
         clip-rule="evenodd"
         id="path47" />
    </clipPath>
    <clipPath
       clipPathUnits="userSpaceOnUse"
       id="clipPath49">
      <path
         d="M 0,0 H 2049.9998 V 1111.9152 H 0 Z"
         transform="scale(0.33365856)"
         clip-rule="evenodd"
         id="path49" />
    </clipPath>
    <clipPath
       clipPathUnits="userSpaceOnUse"
       id="clipPath50">
      <path
         d="M 0,0 H 2049.9998 V 1111.9152 H 0 Z"
         transform="matrix(0.33365522,0,0,0.33365522,-318.70313,-348)"
         clip-rule="evenodd"
         id="path50" />
    </clipPath>
    <clipPath
       clipPathUnits="userSpaceOnUse"
       id="clipPath51">
      <path
         d="M 0,0 H 2049.9998 V 1111.9152 H 0 Z"
         transform="matrix(0.33365522,0,0,0.33365522,-336.76563,-364)"
         clip-rule="evenodd"
         id="path51" />
    </clipPath>
    <clipPath
       clipPathUnits="userSpaceOnUse"
       id="clipPath53">
      <path
         d="M 0,0 H 2049.9998 V 1111.9152 H 0 Z"
         transform="matrix(0.33365856,0,0,0.33365856,-0.5,-0.5)"
         clip-rule="evenodd"
         id="path53" />
    </clipPath>
    <clipPath
       clipPathUnits="userSpaceOnUse"
       id="clipPath55">
      <path
         d="M 0,0 H 2049.9998 V 1111.9152 H 0 Z"
         transform="matrix(0.33365856,0,0,0.33365856,-0.5,-0.5)"
         clip-rule="evenodd"
         id="path55" />
    </clipPath>
    <clipPath
       clipPathUnits="userSpaceOnUse"
       id="clipPath57">
      <path
         d="M 0,0 H 2049.9998 V 1111.9152 H 0 Z"
         transform="scale(0.33365856)"
         clip-rule="evenodd"
         id="path57" />
    </clipPath>
    <clipPath
       clipPathUnits="userSpaceOnUse"
       id="clipPath58">
      <path
         d="M 0,0 H 2049.9998 V 1111.9152 H 0 Z"
         transform="matrix(0.33365522,0,0,0.33365522,-388.70312,-348)"
         clip-rule="evenodd"
         id="path58" />
    </clipPath>
    <clipPath
       clipPathUnits="userSpaceOnUse"
       id="clipPath59">
      <path
         d="M 0,0 H 2049.9998 V 1111.9152 H 0 Z"
         transform="matrix(0.33365522,0,0,0.33365522,-406.76562,-364)"
         clip-rule="evenodd"
         id="path59" />
    </clipPath>
    <clipPath
       clipPathUnits="userSpaceOnUse"
       id="clipPath61">
      <path
         d="M 0,0 H 2049.9998 V 1111.9152 H 0 Z"
         transform="matrix(0.33365856,0,0,0.33365856,-0.5,-0.5)"
         clip-rule="evenodd"
         id="path61" />
    </clipPath>
    <clipPath
       clipPathUnits="userSpaceOnUse"
       id="clipPath63">
      <path
         d="M 0,0 H 2049.9998 V 1111.9152 H 0 Z"
         transform="matrix(0.33365856,0,0,0.33365856,-0.5,-0.5)"
         clip-rule="evenodd"
         id="path63" />
    </clipPath>
    <clipPath
       clipPathUnits="userSpaceOnUse"
       id="clipPath65">
      <path
         d="M 0,0 H 2049.9998 V 1111.9152 H 0 Z"
         transform="scale(0.33365856)"
         clip-rule="evenodd"
         id="path65" />
    </clipPath>
    <clipPath
       clipPathUnits="userSpaceOnUse"
       id="clipPath66">
      <path
         d="M 0,0 H 2049.9998 V 1111.9152 H 0 Z"
         transform="matrix(0.33365522,0,0,0.33365522,-100.70312,-348)"
         clip-rule="evenodd"
         id="path66" />
    </clipPath>
    <clipPath
       clipPathUnits="userSpaceOnUse"
       id="clipPath67">
      <path
         d="M 0,0 H 2049.9998 V 1111.9152 H 0 Z"
         transform="matrix(0.33365522,0,0,0.33365522,-118.76562,-364)"
         clip-rule="evenodd"
         id="path67" />
    </clipPath>
    <clipPath
       clipPathUnits="userSpaceOnUse"
       id="clipPath69">
      <path
         d="M 0,0 H 2049.9998 V 1111.9152 H 0 Z"
         transform="scale(0.33365856)"
         clip-rule="evenodd"
         id="path69" />
    </clipPath>
    <clipPath
       clipPathUnits="userSpaceOnUse"
       id="clipPath70">
      <path
         d="M 0,0 H 2049.9998 V 1111.9152 H 0 Z"
         transform="matrix(0.33365522,0,0,0.33365522,-14.9375,-276)"
         clip-rule="evenodd"
         id="path70" />
    </clipPath>
  </defs>
  <sodipodi:namedview
     id="namedview1"
     pagecolor="#ffffff"
     bordercolor="#000000"
     borderopacity="0.25"
     inkscape:showpageshadow="2"
     inkscape:pageopacity="0.0"
     inkscape:pagecheckerboard="0"
     inkscape:deskcolor="#d1d1d1">
    <inkscape:page
       x="0"
       y="0"
       inkscape:label="1"
       id="page1"
       width="656"
       height="357.44"
       margin="0"
       bleed="0" />
  </sodipodi:namedview>
  <g
     id="g1"
     inkscape:groupmode="layer"
     inkscape:label="1">
    <path
       id="path1"
       d="M 0,0 H 684 V 372 H 0 Z"
       style="fill:#ffffff;fill-opacity:1;fill-rule:nonzero;stroke:none"
       transform="scale(0.95906422)"
       clip-path="url(#clipPath2)" />
    <text
       id="text2"
       xml:space="preserve"
       transform="matrix(0.95907382,0,0,0.95907382,212.13514,18.222403)"
       clip-path="url(#clipPath3)"><tspan
         style="font-variant:normal;font-weight:700;font-size:20px;font-family:Helvetica;writing-mode:lr-tb;fill:#000000;fill-opacity:1;fill-rule:nonzero;stroke:none"
         x="0 11.123047 22.246094 33.369141 44.492188 50.048828 66.708984 77.832031 88.955078 101.17188 113.38867 125.60547 136.72852 142.28516 155.625 163.4082"
         y="0"
         sodipodi:role="line"
         id="tspan2">2015 Macbook Pro</tspan></text>
    <path
       id="path4"
       d="m 144,23 h 330 v 90 H 144 Z"
       style="fill:#d5e8d4;fill-opacity:1;fill-rule:nonzero;stroke:#82b366;stroke-width:1;stroke-linecap:butt;stroke-linejoin:miter;stroke-miterlimit:10;stroke-dasharray:none;stroke-opacity:1"
       transform="scale(0.95906422)"
       clip-path="url(#clipPath5)" />
    <path
       id="path6"
       d="M 157,43 H 301 V 98 H 157 Z"
       style="fill:#f8cecc;fill-opacity:1;fill-rule:nonzero;stroke:#b85450;stroke-width:1;stroke-linecap:butt;stroke-linejoin:miter;stroke-miterlimit:10;stroke-dasharray:none;stroke-opacity:1"
       transform="scale(0.95906422)"
       clip-path="url(#clipPath7)" />
    <text
       id="text7"
       xml:space="preserve"
       transform="matrix(0.95907382,0,0,0.95907382,185.50586,74.807758)"
       clip-path="url(#clipPath8)"><tspan
         style="font-variant:normal;font-weight:normal;font-size:20px;font-family:Helvetica;writing-mode:lr-tb;fill:#000000;fill-opacity:1;fill-rule:nonzero;stroke:none"
         x="0 14.443359 25.566406 32.226562 43.349609 48.90625 60.029297"
         y="0"
         sodipodi:role="line"
         id="tspan7">Core #1</tspan></text>
    <path
       id="path9"
       d="M 321,43 H 465 V 98 H 321 Z"
       style="fill:#dae8fc;fill-opacity:1;fill-rule:nonzero;stroke:#6c8ebf;stroke-width:1;stroke-linecap:butt;stroke-linejoin:miter;stroke-miterlimit:10;stroke-dasharray:none;stroke-opacity:1"
       transform="scale(0.95906422)"
       clip-path="url(#clipPath10)" />
    <text
       id="text10"
       xml:space="preserve"
       transform="matrix(0.95907382,0,0,0.95907382,342.79397,74.807758)"
       clip-path="url(#clipPath11)"><tspan
         style="font-variant:normal;font-weight:normal;font-size:20px;font-family:Helvetica;writing-mode:lr-tb;fill:#000000;fill-opacity:1;fill-rule:nonzero;stroke:none"
         x="0 14.443359 25.566406 32.226562 43.349609 48.90625 60.029297"
         y="0"
         sodipodi:role="line"
         id="tspan10">Core #2</tspan></text>
    <path
       id="path12"
       d="M 309,143 V 123.11"
       style="fill:none;stroke:#000000;stroke-width:1;stroke-linecap:butt;stroke-linejoin:miter;stroke-miterlimit:10;stroke-dasharray:none;stroke-opacity:1"
       transform="matrix(0.95906422,0,0,0.95906422,0.47953211,0.47953211)"
       clip-path="url(#clipPath13)" />
    <path
       id="path14"
       d="m 309,116.36 4.5,9 -4.5,-2.25 -4.5,2.25 z"
       style="fill:#000000;fill-opacity:1;fill-rule:nonzero;stroke:#000000;stroke-width:1;stroke-linecap:butt;stroke-linejoin:miter;stroke-miterlimit:10;stroke-dasharray:none;stroke-opacity:1"
       transform="matrix(0.95906422,0,0,0.95906422,0.47953211,0.47953211)"
       clip-path="url(#clipPath15)" />
    <path
       id="path16"
       d="m 144,143 h 330 v 40 H 144 Z"
       style="fill:#ffffff;fill-opacity:1;fill-rule:nonzero;stroke:#000000;stroke-width:1;stroke-linecap:butt;stroke-linejoin:miter;stroke-miterlimit:10;stroke-dasharray:none;stroke-opacity:1"
       transform="scale(0.95906422)"
       clip-path="url(#clipPath17)" />
    <text
       id="text17"
       xml:space="preserve"
       transform="matrix(0.95907382,0,0,0.95907382,203.75823,163.04255)"
       clip-path="url(#clipPath18)"><tspan
         style="font-variant:normal;font-weight:normal;font-size:20px;font-family:Helvetica;writing-mode:lr-tb;fill:#000000;fill-opacity:1;fill-rule:nonzero;stroke:none"
         x="0 15.556641 28.896484 34.101562 46.318359 57.441406 64.101562 75.224609 86.347656 97.470703 103.02734 116.36719 126.36719 137.49023 148.61328 159.73633 170.85938 175.30273 186.42578"
         y="0"
         sodipodi:role="line"
         id="tspan17">OS Thread Scheduler</tspan></text>
    <path
       id="path19"
       d="M 309,213 V 193.11"
       style="fill:none;stroke:#000000;stroke-width:1;stroke-linecap:butt;stroke-linejoin:miter;stroke-miterlimit:10;stroke-dasharray:none;stroke-opacity:1"
       transform="matrix(0.95906422,0,0,0.95906422,0.47953211,0.47953211)"
       clip-path="url(#clipPath20)" />
    <path
       id="path21"
       d="m 309,186.36 4.5,9 -4.5,-2.25 -4.5,2.25 z"
       style="fill:#000000;fill-opacity:1;fill-rule:nonzero;stroke:#000000;stroke-width:1;stroke-linecap:butt;stroke-linejoin:miter;stroke-miterlimit:10;stroke-dasharray:none;stroke-opacity:1"
       transform="matrix(0.95906422,0,0,0.95906422,0.47953211,0.47953211)"
       clip-path="url(#clipPath22)" />
    <path
       id="path23"
       d="m 169,213 h 280 v 40 H 169 Z"
       style="fill:#f5f5f5;fill-opacity:1;fill-rule:nonzero;stroke:#666666;stroke-width:1;stroke-linecap:butt;stroke-linejoin:miter;stroke-miterlimit:10;stroke-dasharray:none;stroke-opacity:1"
       transform="scale(0.95906422)"
       clip-path="url(#clipPath24)" />
    <text
       id="text24"
       xml:space="preserve"
       transform="matrix(0.95907382,0,0,0.95907382,244.09928,230.17772)"
       clip-path="url(#clipPath25)"><tspan
         style="font-variant:normal;font-weight:normal;font-size:20px;font-family:Helvetica;writing-mode:lr-tb;fill:#000000;fill-opacity:1;fill-rule:nonzero;stroke:none"
         x="0 12.216797 23.339844 30 41.123047 52.246094 63.369141 68.925781 82.265625 93.388672 104.51172"
         y="0"
         sodipodi:role="line"
         id="tspan24">Thread Pool</tspan></text>
    <path
       id="path26"
       d="m 169,253 h 70 v 35 h -70 z"
       style="fill:#f5f5f5;fill-opacity:1;fill-rule:nonzero;stroke:#666666;stroke-width:1;stroke-linecap:butt;stroke-linejoin:miter;stroke-miterlimit:10;stroke-dasharray:none;stroke-opacity:1"
       transform="scale(0.95906422)"
       clip-path="url(#clipPath27)" />
    <text
       id="text27"
       xml:space="preserve"
       transform="matrix(0.95907382,0,0,0.95907382,167.22352,264.70437)"
       clip-path="url(#clipPath28)"><tspan
         style="font-variant:normal;font-weight:normal;font-size:13px;font-family:Helvetica;writing-mode:lr-tb;fill:#000000;fill-opacity:1;fill-rule:nonzero;stroke:none"
         x="0 7.940918 15.170898 19.5 26.72998 33.959961 41.189941 44.801758 52.031738"
         y="0"
         sodipodi:role="line"
         id="tspan27">Thread #1</tspan></text>
    <path
       id="path29"
       d="m 239,253 h 70 v 35 h -70 z"
       style="fill:#f5f5f5;fill-opacity:1;fill-rule:nonzero;stroke:#666666;stroke-width:1;stroke-linecap:butt;stroke-linejoin:miter;stroke-miterlimit:10;stroke-dasharray:none;stroke-opacity:1"
       transform="scale(0.95906422)"
       clip-path="url(#clipPath30)" />
    <text
       id="text30"
       xml:space="preserve"
       transform="matrix(0.95907382,0,0,0.95907382,234.35868,264.70437)"
       clip-path="url(#clipPath31)"><tspan
         style="font-variant:normal;font-weight:normal;font-size:13px;font-family:Helvetica;writing-mode:lr-tb;fill:#000000;fill-opacity:1;fill-rule:nonzero;stroke:none"
         x="0 7.940918 15.170898 19.5 26.72998 33.959961 41.189941 44.801758 52.031738"
         y="0"
         sodipodi:role="line"
         id="tspan30">Thread #2</tspan></text>
    <path
       id="path32"
       d="m 309,253 h 70 v 35 h -70 z"
       style="fill:#f5f5f5;fill-opacity:1;fill-rule:nonzero;stroke:#666666;stroke-width:1;stroke-linecap:butt;stroke-linejoin:miter;stroke-miterlimit:10;stroke-dasharray:none;stroke-opacity:1"
       transform="scale(0.95906422)"
       clip-path="url(#clipPath33)" />
    <text
       id="text33"
       xml:space="preserve"
       transform="matrix(0.95907382,0,0,0.95907382,301.49385,264.70437)"
       clip-path="url(#clipPath34)"><tspan
         style="font-variant:normal;font-weight:normal;font-size:13px;font-family:Helvetica;writing-mode:lr-tb;fill:#000000;fill-opacity:1;fill-rule:nonzero;stroke:none"
         x="0 7.940918 15.170898 19.5 26.72998 33.959961 41.189941 44.801758 52.031738"
         y="0"
         sodipodi:role="line"
         id="tspan33">Thread #3</tspan></text>
    <path
       id="path35"
       d="m 379,253 h 70 v 35 h -70 z"
       style="fill:#f5f5f5;fill-opacity:1;fill-rule:nonzero;stroke:#666666;stroke-width:1;stroke-linecap:butt;stroke-linejoin:miter;stroke-miterlimit:10;stroke-dasharray:none;stroke-opacity:1"
       transform="scale(0.95906422)"
       clip-path="url(#clipPath36)" />
    <text
       id="text36"
       xml:space="preserve"
       transform="matrix(0.95907382,0,0,0.95907382,368.62902,264.70437)"
       clip-path="url(#clipPath37)"><tspan
         style="font-variant:normal;font-weight:normal;font-size:13px;font-family:Helvetica;writing-mode:lr-tb;fill:#000000;fill-opacity:1;fill-rule:nonzero;stroke:none"
         x="0 7.940918 15.170898 19.5 26.72998 33.959961 41.189941 44.801758 52.031738"
         y="0"
         sodipodi:role="line"
         id="tspan36">Thread #4</tspan></text>
    <path
       id="path38"
       d="m 551.01001,333 h 130 v 35 h -130 z"
       style="fill:#f5f5f5;fill-opacity:1;fill-rule:nonzero;stroke:#666666;stroke-width:1;stroke-linecap:butt;stroke-linejoin:miter;stroke-miterlimit:10;stroke-dasharray:none;stroke-opacity:1"
       transform="scale(0.95906422)"
       clip-path="url(#clipPath39)" />
    <text
       id="text39"
       xml:space="preserve"
       transform="matrix(0.95907382,0,0,0.95907382,570.34921,341.43028)"
       clip-path="url(#clipPath40)"><tspan
         style="font-variant:normal;font-weight:normal;font-size:13px;font-family:Helvetica;writing-mode:lr-tb;fill:#000000;fill-opacity:1;fill-rule:nonzero;stroke:none"
         x="0 9.3881836 17.329102 25.27002 33.940918"
         y="0"
         sodipodi:role="line"
         id="tspan39">HTTPS</tspan></text>
    <path
       id="path41"
       d="m 204,333 h 70 v 35 h -70 z"
       style="fill:#f5f5f5;fill-opacity:1;fill-rule:nonzero;stroke:#666666;stroke-width:1;stroke-linecap:butt;stroke-linejoin:miter;stroke-miterlimit:10;stroke-dasharray:none;stroke-opacity:1"
       transform="scale(0.95906422)"
       clip-path="url(#clipPath42)" />
    <text
       id="text42"
       xml:space="preserve"
       transform="matrix(0.95907382,0,0,0.95907382,221.24634,341.43028)"
       clip-path="url(#clipPath43)"><tspan
         style="font-variant:normal;font-weight:normal;font-size:13px;font-family:Helvetica;writing-mode:lr-tb;fill:#000000;fill-opacity:1;fill-rule:nonzero;stroke:none"
         x="0 7.940918"
         y="0"
         sodipodi:role="line"
         id="tspan42">FS</tspan></text>
    <path
       id="path44"
       d="M 344,333 V 298.10999"
       style="fill:none;stroke:#000000;stroke-width:1;stroke-linecap:butt;stroke-linejoin:miter;stroke-miterlimit:10;stroke-dasharray:none;stroke-opacity:1"
       transform="matrix(0.95906422,0,0,0.95906422,0.47953211,0.47953211)"
       clip-path="url(#clipPath45)" />
    <path
       id="path46"
       d="m 344,291.35999 4.5,9 -4.5,-2.25 -4.5,2.25 z"
       style="fill:#000000;fill-opacity:1;fill-rule:nonzero;stroke:#000000;stroke-width:1;stroke-linecap:butt;stroke-linejoin:miter;stroke-miterlimit:10;stroke-dasharray:none;stroke-opacity:1"
       transform="matrix(0.95906422,0,0,0.95906422,0.47953211,0.47953211)"
       clip-path="url(#clipPath47)" />
    <path
       id="path48"
       d="m 309,333 h 70 v 35 h -70 z"
       style="fill:#f5f5f5;fill-opacity:1;fill-rule:nonzero;stroke:#666666;stroke-width:1;stroke-linecap:butt;stroke-linejoin:miter;stroke-miterlimit:10;stroke-dasharray:none;stroke-opacity:1"
       transform="scale(0.95906422)"
       clip-path="url(#clipPath49)" />
    <text
       id="text49"
       xml:space="preserve"
       transform="matrix(0.95907382,0,0,0.95907382,305.65983,333.75769)"
       clip-path="url(#clipPath50)"><tspan
         style="font-variant:normal;font-weight:normal;font-size:13px;font-family:Helvetica;writing-mode:lr-tb;fill:#000000;fill-opacity:1;fill-rule:nonzero;stroke:none"
         x="0 8.6708984 17.341797 26.012695 35.400879 43.341797"
         y="0"
         sodipodi:role="line"
         id="tspan49">PBKDF2</tspan></text>
    <text
       id="text50"
       xml:space="preserve"
       transform="matrix(0.95907382,0,0,0.95907382,322.9831,349.10287)"
       clip-path="url(#clipPath51)"><tspan
         style="font-variant:normal;font-weight:normal;font-size:13px;font-family:Helvetica;writing-mode:lr-tb;fill:#000000;fill-opacity:1;fill-rule:nonzero;stroke:none"
         x="0 7.2299805"
         y="0"
         sodipodi:role="line"
         id="tspan50">#2</tspan></text>
    <path
       id="path52"
       d="M 414,333 V 298.10999"
       style="fill:none;stroke:#000000;stroke-width:1;stroke-linecap:butt;stroke-linejoin:miter;stroke-miterlimit:10;stroke-dasharray:none;stroke-opacity:1"
       transform="matrix(0.95906422,0,0,0.95906422,0.47953211,0.47953211)"
       clip-path="url(#clipPath53)" />
    <path
       id="path54"
       d="m 414,291.35999 4.5,9 -4.5,-2.25 -4.5,2.25 z"
       style="fill:#000000;fill-opacity:1;fill-rule:nonzero;stroke:#000000;stroke-width:1;stroke-linecap:butt;stroke-linejoin:miter;stroke-miterlimit:10;stroke-dasharray:none;stroke-opacity:1"
       transform="matrix(0.95906422,0,0,0.95906422,0.47953211,0.47953211)"
       clip-path="url(#clipPath55)" />
    <path
       id="path56"
       d="m 379,333 h 70 v 35 h -70 z"
       style="fill:#f5f5f5;fill-opacity:1;fill-rule:nonzero;stroke:#666666;stroke-width:1;stroke-linecap:butt;stroke-linejoin:miter;stroke-miterlimit:10;stroke-dasharray:none;stroke-opacity:1"
       transform="scale(0.95906422)"
       clip-path="url(#clipPath57)" />
    <text
       id="text57"
       xml:space="preserve"
       transform="matrix(0.95907382,0,0,0.95907382,372.79499,333.75769)"
       clip-path="url(#clipPath58)"><tspan
         style="font-variant:normal;font-weight:normal;font-size:13px;font-family:Helvetica;writing-mode:lr-tb;fill:#000000;fill-opacity:1;fill-rule:nonzero;stroke:none"
         x="0 8.6708984 17.341797 26.012695 35.400879 43.341797"
         y="0"
         sodipodi:role="line"
         id="tspan57">PBKDF2</tspan></text>
    <text
       id="text58"
       xml:space="preserve"
       transform="matrix(0.95907382,0,0,0.95907382,390.11826,349.10287)"
       clip-path="url(#clipPath59)"><tspan
         style="font-variant:normal;font-weight:normal;font-size:13px;font-family:Helvetica;writing-mode:lr-tb;fill:#000000;fill-opacity:1;fill-rule:nonzero;stroke:none"
         x="0 7.2299805"
         y="0"
         sodipodi:role="line"
         id="tspan58">#3</tspan></text>
    <path
       id="path60"
       d="m 126,333 v -22.5 h 78 v -12.39001"
       style="fill:none;stroke:#000000;stroke-width:1;stroke-linecap:butt;stroke-linejoin:miter;stroke-miterlimit:10;stroke-dasharray:none;stroke-opacity:1"
       transform="matrix(0.95906422,0,0,0.95906422,0.47953211,0.47953211)"
       clip-path="url(#clipPath61)" />
    <path
       id="path62"
       d="m 204,291.35999 4.5,9 -4.5,-2.25 -4.5,2.25 z"
       style="fill:#000000;fill-opacity:1;fill-rule:nonzero;stroke:#000000;stroke-width:1;stroke-linecap:butt;stroke-linejoin:miter;stroke-miterlimit:10;stroke-dasharray:none;stroke-opacity:1"
       transform="matrix(0.95906422,0,0,0.95906422,0.47953211,0.47953211)"
       clip-path="url(#clipPath63)" />
    <path
       id="path64"
       d="m 91,333 h 70 v 35 H 91 Z"
       style="fill:#f5f5f5;fill-opacity:1;fill-rule:nonzero;stroke:#666666;stroke-width:1;stroke-linecap:butt;stroke-linejoin:miter;stroke-miterlimit:10;stroke-dasharray:none;stroke-opacity:1"
       transform="scale(0.95906422)"
       clip-path="url(#clipPath65)" />
    <text
       id="text65"
       xml:space="preserve"
       transform="matrix(0.95907382,0,0,0.95907382,96.58173,333.75769)"
       clip-path="url(#clipPath66)"><tspan
         style="font-variant:normal;font-weight:normal;font-size:13px;font-family:Helvetica;writing-mode:lr-tb;fill:#000000;fill-opacity:1;fill-rule:nonzero;stroke:none"
         x="0 8.6708984 17.341797 26.012695 35.400879 43.341797"
         y="0"
         sodipodi:role="line"
         id="tspan65">PBKDF2</tspan></text>
    <text
       id="text66"
       xml:space="preserve"
       transform="matrix(0.95907382,0,0,0.95907382,113.905,349.10287)"
       clip-path="url(#clipPath67)"><tspan
         style="font-variant:normal;font-weight:normal;font-size:13px;font-family:Helvetica;writing-mode:lr-tb;fill:#000000;fill-opacity:1;fill-rule:nonzero;stroke:none"
         x="0 7.2299805"
         y="0"
         sodipodi:role="line"
         id="tspan66">#4</tspan></text>
    <path
       id="path68"
       d="m 1,240.5 h 90 v 60 H 1 Z"
       style="fill:#e1d5e7;fill-opacity:1;fill-rule:nonzero;stroke:#9673a6;stroke-width:1;stroke-linecap:butt;stroke-linejoin:miter;stroke-miterlimit:10;stroke-dasharray:none;stroke-opacity:1"
       transform="scale(0.95906422)"
       clip-path="url(#clipPath69)" />
    <text
       id="text69"
       xml:space="preserve"
       transform="matrix(0.95907382,0,0,0.95907382,14.326165,264.70437)"
       clip-path="url(#clipPath70)"><tspan
         style="font-variant:normal;font-weight:normal;font-size:13px;font-family:Helvetica;writing-mode:lr-tb;fill:#000000;fill-opacity:1;fill-rule:nonzero;stroke:none"
         x="0 9.3881836 16.618164 20.947266 28.177246 31.789062 41.177246 45.506348 48.394531 54.894531"
         y="0"
         sodipodi:role="line"
         id="tspan69">Hard Drive</tspan></text>
  </g>
</svg>
