<?xml version="1.0" encoding="UTF-8" standalone="no"?>
<!-- Created with Inkscape (http://www.inkscape.org/) -->

<svg
   version="1.1"
   id="svg1"
   width="482.55997"
   height="208"
   viewBox="0 0 482.55997 208"
   sodipodi:docname="node-9.pdf"
   xmlns:inkscape="http://www.inkscape.org/namespaces/inkscape"
   xmlns:sodipodi="http://sodipodi.sourceforge.net/DTD/sodipodi-0.dtd"
   xmlns="http://www.w3.org/2000/svg"
   xmlns:svg="http://www.w3.org/2000/svg">
  <defs
     id="defs1">
    <clipPath
       clipPathUnits="userSpaceOnUse"
       id="clipPath2">
      <path
         d="M 0,0 H 1508.3333 V 649.42126 H 0 Z"
         transform="scale(0.33414367)"
         clip-rule="evenodd"
         id="path2" />
    </clipPath>
    <clipPath
       clipPathUnits="userSpaceOnUse"
       id="clipPath4">
      <path
         d="M 0,0 H 1508.3333 V 643.43579 H 0 Z"
         transform="scale(0.33414367)"
         clip-rule="evenodd"
         id="path4" />
    </clipPath>
    <clipPath
       clipPathUnits="userSpaceOnUse"
       id="clipPath6">
      <path
         d="M 0,0 H 1508.3333 V 643.43579 H 0 Z"
         transform="scale(0.33414367)"
         clip-rule="evenodd"
         id="path6" />
    </clipPath>
    <clipPath
       clipPathUnits="userSpaceOnUse"
       id="clipPath7">
      <path
         d="M 0,0 H 1508.3333 V 643.43579 H 0 Z"
         transform="matrix(0.33414032,0,0,0.33414032,-128.65625,-94.000001)"
         clip-rule="evenodd"
         id="path7" />
    </clipPath>
    <clipPath
       clipPathUnits="userSpaceOnUse"
       id="clipPath9">
      <path
         d="M 0,0 H 1508.3333 V 643.43579 H 0 Z"
         transform="matrix(0.33414367,0,0,0.33414367,-0.5,-0.5)"
         clip-rule="evenodd"
         id="path9" />
    </clipPath>
    <clipPath
       clipPathUnits="userSpaceOnUse"
       id="clipPath11">
      <path
         d="M 0,0 H 1508.3333 V 643.43579 H 0 Z"
         transform="matrix(0.33414367,0,0,0.33414367,-0.5,-0.5)"
         clip-rule="evenodd"
         id="path11" />
    </clipPath>
    <clipPath
       clipPathUnits="userSpaceOnUse"
       id="clipPath13">
      <path
         d="M 0,0 H 1508.3333 V 643.43579 H 0 Z"
         transform="scale(0.33414367)"
         clip-rule="evenodd"
         id="path13" />
    </clipPath>
    <clipPath
       clipPathUnits="userSpaceOnUse"
       id="clipPath14">
      <path
         d="M 0,0 H 1508.3333 V 643.43579 H 0 Z"
         transform="matrix(0.33414032,0,0,0.33414032,-215.5625,-94.000001)"
         clip-rule="evenodd"
         id="path14" />
    </clipPath>
    <clipPath
       clipPathUnits="userSpaceOnUse"
       id="clipPath16">
      <path
         d="M 0,0 H 1508.3333 V 643.43579 H 0 Z"
         transform="scale(0.33414367)"
         clip-rule="evenodd"
         id="path16" />
    </clipPath>
    <clipPath
       clipPathUnits="userSpaceOnUse"
       id="clipPath17">
      <path
         d="M 0,0 H 1508.3333 V 643.43579 H 0 Z"
         transform="matrix(0.33414032,0,0,0.33414032,-129.65625,-178)"
         clip-rule="evenodd"
         id="path17" />
    </clipPath>
    <clipPath
       clipPathUnits="userSpaceOnUse"
       id="clipPath19">
      <path
         d="M 0,0 H 1508.3333 V 643.43579 H 0 Z"
         transform="scale(0.33414367)"
         clip-rule="evenodd"
         id="path19" />
    </clipPath>
    <clipPath
       clipPathUnits="userSpaceOnUse"
       id="clipPath20">
      <path
         d="M 0,0 H 1508.3333 V 643.43579 H 0 Z"
         transform="matrix(0.33414032,0,0,0.33414032,-216.5625,-178)"
         clip-rule="evenodd"
         id="path20" />
    </clipPath>
    <clipPath
       clipPathUnits="userSpaceOnUse"
       id="clipPath22">
      <path
         d="M 0,0 H 1508.3333 V 643.43579 H 0 Z"
         transform="scale(0.33414367)"
         clip-rule="evenodd"
         id="path22" />
    </clipPath>
    <clipPath
       clipPathUnits="userSpaceOnUse"
       id="clipPath23">
      <path
         d="M 0,0 H 1508.3333 V 643.43579 H 0 Z"
         transform="matrix(0.33414032,0,0,0.33414032,-186.90625,-34)"
         clip-rule="evenodd"
         id="path23" />
    </clipPath>
    <clipPath
       clipPathUnits="userSpaceOnUse"
       id="clipPath25">
      <path
         d="M 0,0 H 1508.3333 V 643.43579 H 0 Z"
         transform="scale(0.33414367)"
         clip-rule="evenodd"
         id="path25" />
    </clipPath>
    <clipPath
       clipPathUnits="userSpaceOnUse"
       id="clipPath26">
      <path
         d="M 0,0 H 1508.3333 V 643.43579 H 0 Z"
         transform="matrix(0.33414032,0,0,0.33414032,-11.4375,-94.000001)"
         clip-rule="evenodd"
         id="path26" />
    </clipPath>
    <clipPath
       clipPathUnits="userSpaceOnUse"
       id="clipPath28">
      <path
         d="M 0,0 H 1508.3333 V 643.43579 H 0 Z"
         transform="scale(0.33414367)"
         clip-rule="evenodd"
         id="path28" />
    </clipPath>
    <clipPath
       clipPathUnits="userSpaceOnUse"
       id="clipPath29">
      <path
         d="M 0,0 H 1508.3333 V 643.43579 H 0 Z"
         transform="matrix(0.33414032,0,0,0.33414032,-9.4375,-178)"
         clip-rule="evenodd"
         id="path29" />
    </clipPath>
    <clipPath
       clipPathUnits="userSpaceOnUse"
       id="clipPath31">
      <path
         d="M 0,0 H 1508.3333 V 643.43579 H 0 Z"
         transform="matrix(-0.33414367,0,0,-0.33414367,792.00002,255.99999)"
         clip-rule="evenodd"
         id="path31" />
    </clipPath>
    <clipPath
       clipPathUnits="userSpaceOnUse"
       id="clipPath32">
      <path
         d="M 0,0 H 1508.3333 V 643.43579 H 0 Z"
         transform="matrix(0.33414032,0,0,0.33414032,-434.75001,-135)"
         clip-rule="evenodd"
         id="path32" />
    </clipPath>
  </defs>
  <sodipodi:namedview
     id="namedview1"
     pagecolor="#ffffff"
     bordercolor="#000000"
     borderopacity="0.25"
     inkscape:showpageshadow="2"
     inkscape:pageopacity="0.0"
     inkscape:pagecheckerboard="0"
     inkscape:deskcolor="#d1d1d1">
    <inkscape:page
       x="0"
       y="0"
       inkscape:label="1"
       id="page1"
       width="482.55997"
       height="208"
       margin="0"
       bleed="0" />
  </sodipodi:namedview>
  <g
     id="g1"
     inkscape:groupmode="layer"
     inkscape:label="1">
    <path
       id="path1"
       d="M 0,0 H 504 V 217 H 0 Z"
       style="fill:#ffffff;fill-opacity:1;fill-rule:nonzero;stroke:none"
       transform="scale(0.95767186)"
       clip-path="url(#clipPath2)" />
    <path
       id="path3"
       d="M 99,42 H 366 V 212 H 99 Z"
       style="fill:#d5e8d4;fill-opacity:1;fill-rule:nonzero;stroke:#82b366;stroke-width:1;stroke-linecap:butt;stroke-linejoin:miter;stroke-miterlimit:10;stroke-dasharray:none;stroke-opacity:1"
       transform="scale(0.95767186)"
       clip-path="url(#clipPath4)" />
    <path
       id="path5"
       d="m 112,62 h 50 v 50 h -50 z"
       style="fill:#ffffff;fill-opacity:1;fill-rule:nonzero;stroke:#000000;stroke-width:1;stroke-linecap:butt;stroke-linejoin:miter;stroke-miterlimit:10;stroke-dasharray:none;stroke-opacity:1"
       transform="scale(0.95767186)"
       clip-path="url(#clipPath6)" />
    <text
       id="text6"
       xml:space="preserve"
       transform="matrix(0.95768146,0,0,0.95768146,123.21171,90.022058)"
       clip-path="url(#clipPath7)"><tspan
         style="font-variant:normal;font-weight:normal;font-size:20px;font-family:Helvetica;writing-mode:lr-tb;fill:#000000;fill-opacity:1;fill-rule:nonzero;stroke:none"
         x="0 11.123047"
         y="0"
         sodipodi:role="line"
         id="tspan6">1.</tspan></text>
    <path
       id="path8"
       d="m 256.5,112 0.35001,23.89999"
       style="fill:none;stroke:#000000;stroke-width:1;stroke-linecap:butt;stroke-linejoin:miter;stroke-miterlimit:10;stroke-dasharray:none;stroke-opacity:1"
       transform="matrix(0.95767186,0,0,0.95767186,0.47883593,0.47883593)"
       clip-path="url(#clipPath9)" />
    <path
       id="path10"
       d="m 256.95001,142.64999 -4.63,-8.93998 4.53,2.18998 4.47,-2.31999 z"
       style="fill:#000000;fill-opacity:1;fill-rule:nonzero;stroke:#000000;stroke-width:1;stroke-linecap:butt;stroke-linejoin:miter;stroke-miterlimit:10;stroke-dasharray:none;stroke-opacity:1"
       transform="matrix(0.95767186,0,0,0.95767186,0.47883593,0.47883593)"
       clip-path="url(#clipPath11)" />
    <path
       id="path12"
       d="m 161,62 h 191 v 50 H 161 Z"
       style="fill:#ffffff;fill-opacity:1;fill-rule:nonzero;stroke:#000000;stroke-width:1;stroke-linecap:butt;stroke-linejoin:miter;stroke-miterlimit:10;stroke-dasharray:none;stroke-opacity:1"
       transform="scale(0.95767186)"
       clip-path="url(#clipPath13)" />
    <text
       id="text13"
       xml:space="preserve"
       transform="matrix(0.95768146,0,0,0.95768146,206.44021,90.022058)"
       clip-path="url(#clipPath14)"><tspan
         style="font-variant:normal;font-weight:normal;font-size:20px;font-family:Helvetica;writing-mode:lr-tb;fill:#000000;fill-opacity:1;fill-rule:nonzero;stroke:none"
         x="0 11.123047 22.246094 40.771484 51.894531 58.554688 68.554688 75.214844"
         y="0"
         sodipodi:role="line"
         id="tspan13">doWork()</tspan></text>
    <path
       id="path15"
       d="m 112.5,146 h 50 v 50 h -50 z"
       style="fill:#ffffff;fill-opacity:1;fill-rule:nonzero;stroke:#000000;stroke-width:1;stroke-linecap:butt;stroke-linejoin:miter;stroke-miterlimit:10;stroke-dasharray:none;stroke-opacity:1"
       transform="scale(0.95767186)"
       clip-path="url(#clipPath16)" />
    <text
       id="text16"
       xml:space="preserve"
       transform="matrix(0.95768146,0,0,0.95768146,124.16939,170.4673)"
       clip-path="url(#clipPath17)"><tspan
         style="font-variant:normal;font-weight:normal;font-size:20px;font-family:Helvetica;writing-mode:lr-tb;fill:#000000;fill-opacity:1;fill-rule:nonzero;stroke:none"
         x="0 11.123047"
         y="0"
         sodipodi:role="line"
         id="tspan16">2.</tspan></text>
    <path
       id="path18"
       d="m 161.5,146 h 191 v 50 h -191 z"
       style="fill:#ffffff;fill-opacity:1;fill-rule:nonzero;stroke:#000000;stroke-width:1;stroke-linecap:butt;stroke-linejoin:miter;stroke-miterlimit:10;stroke-dasharray:none;stroke-opacity:1"
       transform="scale(0.95767186)"
       clip-path="url(#clipPath19)" />
    <text
       id="text19"
       xml:space="preserve"
       transform="matrix(0.95768146,0,0,0.95768146,207.39789,170.4673)"
       clip-path="url(#clipPath20)"><tspan
         style="font-variant:normal;font-weight:normal;font-size:20px;font-family:Helvetica;writing-mode:lr-tb;fill:#000000;fill-opacity:1;fill-rule:nonzero;stroke:none"
         x="0 11.123047 22.246094 40.771484 51.894531 58.554688 68.554688 75.214844"
         y="0"
         sodipodi:role="line"
         id="tspan19">doWork()</tspan></text>
    <path
       id="path21"
       d="M 99,1 H 366 V 52 H 99 Z"
       style="fill:#d5e8d4;fill-opacity:1;fill-rule:nonzero;stroke:#82b366;stroke-width:1;stroke-linecap:butt;stroke-linejoin:miter;stroke-miterlimit:10;stroke-dasharray:none;stroke-opacity:1"
       transform="scale(0.95767186)"
       clip-path="url(#clipPath22)" />
    <text
       id="text22"
       xml:space="preserve"
       transform="matrix(0.95768146,0,0,0.95768146,178.99665,32.56117)"
       clip-path="url(#clipPath23)"><tspan
         style="font-variant:normal;font-weight:normal;font-size:20px;font-family:Helvetica;writing-mode:lr-tb;fill:#000000;fill-opacity:1;fill-rule:nonzero;stroke:none"
         x="0 12.216797 23.339844 30 41.123047 52.246094 63.369141 68.925781 80.048828"
         y="0"
         sodipodi:role="line"
         id="tspan22">Thread #1</tspan></text>
    <path
       id="path24"
       d="M 106,62 H 81 c -6.666664,0 -10,3.333336 -10,10 v 7.25 c 0,4.833336 -3.333336,7.25 -10,7.25 H 46 c -6.666668,0 -6.666668,0 0,0 h 15 c 6.666664,0 10,3.333336 10,10 v 7.25 c 0,4.83334 3.333336,7.25 10,7.25 h 25"
       style="fill:none;stroke:#000000;stroke-width:1;stroke-linecap:butt;stroke-linejoin:miter;stroke-miterlimit:10;stroke-dasharray:none;stroke-opacity:1"
       transform="scale(0.95767186)"
       clip-path="url(#clipPath25)" />
    <text
       id="text25"
       xml:space="preserve"
       transform="matrix(0.95768146,0,0,0.95768146,10.953482,90.022058)"
       clip-path="url(#clipPath26)"><tspan
         style="font-variant:normal;font-weight:normal;font-size:20px;font-family:Helvetica;writing-mode:lr-tb;fill:#000000;fill-opacity:1;fill-rule:nonzero;stroke:none"
         x="0 11.123047"
         y="0"
         sodipodi:role="line"
         id="tspan25">5s</tspan></text>
    <path
       id="path27"
       d="M 104,146 H 79 c -6.666664,0 -10,3.33333 -10,10 v 7.25 c 0,4.83333 -3.333336,7.25 -10,7.25 H 44 c -6.666668,0 -6.666668,0 0,0 h 15 c 6.666664,0 10,3.33333 10,10 v 7.25 c 0,4.83333 3.333336,7.25 10,7.25 h 25"
       style="fill:none;stroke:#000000;stroke-width:1;stroke-linecap:butt;stroke-linejoin:miter;stroke-miterlimit:10;stroke-dasharray:none;stroke-opacity:1"
       transform="scale(0.95767186)"
       clip-path="url(#clipPath28)" />
    <text
       id="text28"
       xml:space="preserve"
       transform="matrix(0.95768146,0,0,0.95768146,9.0381188,170.4673)"
       clip-path="url(#clipPath29)"><tspan
         style="font-variant:normal;font-weight:normal;font-size:20px;font-family:Helvetica;writing-mode:lr-tb;fill:#000000;fill-opacity:1;fill-rule:nonzero;stroke:none"
         x="0 11.123047"
         y="0"
         sodipodi:role="line"
         id="tspan28">5s</tspan></text>
    <path
       id="path30"
       d="m 436,63 h -30 c -6.66666,0 -10,3.333336 -10,10 v 45 c 0,6.66666 -3.33334,10 -10,10 h -20 c -6.66666,0 -6.66666,0 0,0 h 20 c 6.66666,0 10,3.33333 10,10 v 45 c 0,6.66667 3.33334,10 10,10 h 30"
       style="fill:none;stroke:#000000;stroke-width:1;stroke-linecap:butt;stroke-linejoin:miter;stroke-miterlimit:10;stroke-dasharray:none;stroke-opacity:1"
       transform="matrix(-0.95767186,0,0,-0.95767186,758.47613,245.16399)"
       clip-path="url(#clipPath31)" />
    <text
       id="text31"
       xml:space="preserve"
       transform="matrix(0.95768146,0,0,0.95768146,416.35202,129.287)"
       clip-path="url(#clipPath32)"><tspan
         style="font-variant:normal;font-weight:normal;font-size:20px;font-family:Helvetica;writing-mode:lr-tb;fill:#000000;fill-opacity:1;fill-rule:nonzero;stroke:none"
         x="0 11.123047 21.123047 26.679688 32.236328 43.359375 48.916016 60.039062"
         y="0"
         sodipodi:role="line"
         id="tspan31">2s total</tspan></text>
  </g>
</svg>
