<?xml version="1.0" encoding="UTF-8" standalone="no"?>
<!-- Created with Inkscape (http://www.inkscape.org/) -->

<svg
   version="1.1"
   id="svg1"
   width="388.16"
   height="462.71997"
   viewBox="0 0 388.16 462.71997"
   sodipodi:docname="node-5.pdf"
   xmlns:inkscape="http://www.inkscape.org/namespaces/inkscape"
   xmlns:sodipodi="http://sodipodi.sourceforge.net/DTD/sodipodi-0.dtd"
   xmlns="http://www.w3.org/2000/svg"
   xmlns:svg="http://www.w3.org/2000/svg">
  <defs
     id="defs1">
    <clipPath
       clipPathUnits="userSpaceOnUse"
       id="clipPath2">
      <path
         d="M 0,0 H 1212.4999 V 1443.0245 H 0 Z"
         transform="scale(0.33402065)"
         clip-rule="evenodd"
         id="path2" />
    </clipPath>
    <clipPath
       clipPathUnits="userSpaceOnUse"
       id="clipPath4">
      <path
         d="M 0,0 H 1212.4999 V 1440.0308 H 0 Z"
         transform="matrix(0.33402065,0,0,0.33402065,-0.49999999,-0.49999999)"
         clip-rule="evenodd"
         id="path4" />
    </clipPath>
    <clipPath
       clipPathUnits="userSpaceOnUse"
       id="clipPath6">
      <path
         d="M 0,0 H 1212.4999 V 1440.0308 H 0 Z"
         transform="matrix(0.33402065,0,0,0.33402065,-0.49999999,-0.49999999)"
         clip-rule="evenodd"
         id="path6" />
    </clipPath>
    <clipPath
       clipPathUnits="userSpaceOnUse"
       id="clipPath7">
      <path
         d="M 0,0 H 1212.4999 V 1440.0308 H 0 Z"
         transform="matrix(0.3340173,0,0,0.3340173,-0.14062499,-26)"
         clip-rule="evenodd"
         id="path7" />
    </clipPath>
    <clipPath
       clipPathUnits="userSpaceOnUse"
       id="clipPath9">
      <path
         d="M 0,0 H 1212.4999 V 1440.0308 H 0 Z"
         transform="matrix(0.33402065,0,0,0.33402065,-0.49999999,-0.49999999)"
         clip-rule="evenodd"
         id="path9" />
    </clipPath>
    <clipPath
       clipPathUnits="userSpaceOnUse"
       id="clipPath11">
      <path
         d="M 0,0 H 1212.4999 V 1440.0308 H 0 Z"
         transform="matrix(0.33402065,0,0,0.33402065,-0.49999999,-0.49999999)"
         clip-rule="evenodd"
         id="path11" />
    </clipPath>
    <clipPath
       clipPathUnits="userSpaceOnUse"
       id="clipPath13">
      <path
         d="M 0,0 H 1212.4999 V 1440.0308 H 0 Z"
         transform="scale(0.33402065)"
         clip-rule="evenodd"
         id="path13" />
    </clipPath>
    <clipPath
       clipPathUnits="userSpaceOnUse"
       id="clipPath14">
      <path
         d="M 0,0 H 1212.4999 V 1440.0308 H 0 Z"
         transform="matrix(0.3340173,0,0,0.3340173,-159.92187,-46)"
         clip-rule="evenodd"
         id="path14" />
    </clipPath>
    <clipPath
       clipPathUnits="userSpaceOnUse"
       id="clipPath16">
      <path
         d="M 0,0 H 1212.4999 V 1440.0308 H 0 Z"
         transform="matrix(0.33402065,0,0,0.33402065,-0.49999999,-0.49999999)"
         clip-rule="evenodd"
         id="path16" />
    </clipPath>
    <clipPath
       clipPathUnits="userSpaceOnUse"
       id="clipPath18">
      <path
         d="M 0,0 H 1212.4999 V 1440.0308 H 0 Z"
         transform="matrix(0.33402065,0,0,0.33402065,-0.49999999,-0.49999999)"
         clip-rule="evenodd"
         id="path18" />
    </clipPath>
    <clipPath
       clipPathUnits="userSpaceOnUse"
       id="clipPath20">
      <path
         d="M 0,0 H 1212.4999 V 1440.0308 H 0 Z"
         transform="scale(0.33402065)"
         clip-rule="evenodd"
         id="path20" />
    </clipPath>
    <clipPath
       clipPathUnits="userSpaceOnUse"
       id="clipPath21">
      <path
         d="M 0,0 H 1212.4999 V 1440.0308 H 0 Z"
         transform="matrix(0.3340173,0,0,0.3340173,-95.3125,-114)"
         clip-rule="evenodd"
         id="path21" />
    </clipPath>
    <clipPath
       clipPathUnits="userSpaceOnUse"
       id="clipPath22">
      <path
         d="M 0,0 H 1212.4999 V 1440.0308 H 0 Z"
         transform="matrix(0.3340173,0,0,0.3340173,-148.07812,-138)"
         clip-rule="evenodd"
         id="path22" />
    </clipPath>
    <clipPath
       clipPathUnits="userSpaceOnUse"
       id="clipPath24">
      <path
         d="M 0,0 H 1212.4999 V 1440.0308 H 0 Z"
         transform="matrix(0.33402065,0,0,0.33402065,-0.49999999,-0.49999999)"
         clip-rule="evenodd"
         id="path24" />
    </clipPath>
    <clipPath
       clipPathUnits="userSpaceOnUse"
       id="clipPath26">
      <path
         d="M 0,0 H 1212.4999 V 1440.0308 H 0 Z"
         transform="matrix(0.33402065,0,0,0.33402065,-0.49999999,-0.49999999)"
         clip-rule="evenodd"
         id="path26" />
    </clipPath>
    <clipPath
       clipPathUnits="userSpaceOnUse"
       id="clipPath28">
      <path
         d="M 0,0 H 1212.4999 V 1440.0308 H 0 Z"
         transform="scale(0.33402065)"
         clip-rule="evenodd"
         id="path28" />
    </clipPath>
    <clipPath
       clipPathUnits="userSpaceOnUse"
       id="clipPath29">
      <path
         d="M 0,0 H 1212.4999 V 1440.0308 H 0 Z"
         transform="matrix(0.3340173,0,0,0.3340173,-115.82812,-206)"
         clip-rule="evenodd"
         id="path29" />
    </clipPath>
    <clipPath
       clipPathUnits="userSpaceOnUse"
       id="clipPath31">
      <path
         d="M 0,0 H 1212.4999 V 1440.0308 H 0 Z"
         transform="matrix(0.33402065,0,0,0.33402065,-0.49999999,-0.49999999)"
         clip-rule="evenodd"
         id="path31" />
    </clipPath>
    <clipPath
       clipPathUnits="userSpaceOnUse"
       id="clipPath33">
      <path
         d="M 0,0 H 1212.4999 V 1440.0308 H 0 Z"
         transform="matrix(0.33402065,0,0,0.33402065,-0.49999999,-0.49999999)"
         clip-rule="evenodd"
         id="path33" />
    </clipPath>
    <clipPath
       clipPathUnits="userSpaceOnUse"
       id="clipPath35">
      <path
         d="M 0,0 H 1212.4999 V 1440.0308 H 0 Z"
         transform="scale(0.33402065)"
         clip-rule="evenodd"
         id="path35" />
    </clipPath>
    <clipPath
       clipPathUnits="userSpaceOnUse"
       id="clipPath36">
      <path
         d="M 0,0 H 1212.4999 V 1440.0308 H 0 Z"
         transform="matrix(0.3340173,0,0,0.3340173,-110.79687,-286)"
         clip-rule="evenodd"
         id="path36" />
    </clipPath>
    <clipPath
       clipPathUnits="userSpaceOnUse"
       id="clipPath38">
      <path
         d="M 0,0 H 1212.4999 V 1440.0308 H 0 Z"
         transform="matrix(0.33402065,0,0,0.33402065,-0.49999999,-0.49999999)"
         clip-rule="evenodd"
         id="path38" />
    </clipPath>
    <clipPath
       clipPathUnits="userSpaceOnUse"
       id="clipPath40">
      <path
         d="M 0,0 H 1212.4999 V 1440.0308 H 0 Z"
         transform="matrix(0.33402065,0,0,0.33402065,-0.49999999,-0.49999999)"
         clip-rule="evenodd"
         id="path40" />
    </clipPath>
    <clipPath
       clipPathUnits="userSpaceOnUse"
       id="clipPath42">
      <path
         d="M 0,0 H 1212.4999 V 1440.0308 H 0 Z"
         transform="scale(0.33402065)"
         clip-rule="evenodd"
         id="path42" />
    </clipPath>
    <clipPath
       clipPathUnits="userSpaceOnUse"
       id="clipPath43">
      <path
         d="M 0,0 H 1212.4999 V 1440.0308 H 0 Z"
         transform="matrix(0.3340173,0,0,0.3340173,-123.60937,-354)"
         clip-rule="evenodd"
         id="path43" />
    </clipPath>
    <clipPath
       clipPathUnits="userSpaceOnUse"
       id="clipPath44">
      <path
         d="M 0,0 H 1212.4999 V 1440.0308 H 0 Z"
         transform="matrix(0.3340173,0,0,0.3340173,-145.82813,-378)"
         clip-rule="evenodd"
         id="path44" />
    </clipPath>
    <clipPath
       clipPathUnits="userSpaceOnUse"
       id="clipPath46">
      <path
         d="M 0,0 H 1212.4999 V 1440.0308 H 0 Z"
         transform="scale(0.33402065)"
         clip-rule="evenodd"
         id="path46" />
    </clipPath>
    <clipPath
       clipPathUnits="userSpaceOnUse"
       id="clipPath47">
      <path
         d="M 0,0 H 1212.4999 V 1440.0308 H 0 Z"
         transform="matrix(0.3340173,0,0,0.3340173,-103.57812,-446)"
         clip-rule="evenodd"
         id="path47" />
    </clipPath>
  </defs>
  <sodipodi:namedview
     id="namedview1"
     pagecolor="#ffffff"
     bordercolor="#000000"
     borderopacity="0.25"
     inkscape:showpageshadow="2"
     inkscape:pageopacity="0.0"
     inkscape:pagecheckerboard="0"
     inkscape:deskcolor="#d1d1d1">
    <inkscape:page
       x="0"
       y="0"
       inkscape:label="1"
       id="page1"
       width="388.16"
       height="462.71997"
       margin="0"
       bleed="0" />
  </sodipodi:namedview>
  <g
     id="g1"
     inkscape:groupmode="layer"
     inkscape:label="1">
    <path
       id="path1"
       d="M 0,0 H 405 V 482 H 0 Z"
       style="fill:#ffffff;fill-opacity:1;fill-rule:nonzero;stroke:none"
       transform="scale(0.95802457)"
       clip-path="url(#clipPath2)" />
    <path
       id="path3"
       d="M 62,9 V 458.89999"
       style="fill:none;stroke:#000000;stroke-width:1;stroke-linecap:butt;stroke-linejoin:miter;stroke-miterlimit:10;stroke-dasharray:none;stroke-opacity:1"
       transform="matrix(0.95802457,0,0,0.95802457,0.47901228,0.47901228)"
       clip-path="url(#clipPath4)" />
    <path
       id="path5"
       d="m 62,465.64999 -4.5,-9 4.5,2.25 4.5,-2.25 z"
       style="fill:#000000;fill-opacity:1;fill-rule:nonzero;stroke:#000000;stroke-width:1;stroke-linecap:butt;stroke-linejoin:miter;stroke-miterlimit:10;stroke-dasharray:none;stroke-opacity:1"
       transform="matrix(0.95802457,0,0,0.95802457,0.47901228,0.47901228)"
       clip-path="url(#clipPath6)" />
    <text
       id="text6"
       xml:space="preserve"
       transform="matrix(0.95803417,0,0,0.95803417,0.13472355,24.908888)"
       clip-path="url(#clipPath7)"><tspan
         style="font-variant:normal;font-weight:normal;font-size:20px;font-family:Helvetica;writing-mode:lr-tb;fill:#000000;fill-opacity:1;fill-rule:nonzero;stroke:none"
         x="0 11.484375 15.927734 32.587891"
         y="0"
         sodipodi:role="line"
         id="tspan6">Time</tspan></text>
    <path
       id="path8"
       d="M 242,69 V 89 69 78.900002"
       style="fill:none;stroke:#000000;stroke-width:1;stroke-linecap:butt;stroke-linejoin:miter;stroke-miterlimit:10;stroke-dasharray:none;stroke-opacity:1"
       transform="matrix(0.95802457,0,0,0.95802457,0.47901228,0.47901228)"
       clip-path="url(#clipPath9)" />
    <path
       id="path10"
       d="m 242,85.650002 -4.5,-9 4.5,2.25 4.5,-2.25 z"
       style="fill:#000000;fill-opacity:1;fill-rule:nonzero;stroke:#000000;stroke-width:1;stroke-linecap:butt;stroke-linejoin:miter;stroke-miterlimit:10;stroke-dasharray:none;stroke-opacity:1"
       transform="matrix(0.95802457,0,0,0.95802457,0.47901228,0.47901228)"
       clip-path="url(#clipPath11)" />
    <path
       id="path12"
       d="M 82,9 H 402 V 69 H 82 Z"
       style="fill:#ffffff;fill-opacity:1;fill-rule:nonzero;stroke:#000000;stroke-width:1;stroke-linecap:butt;stroke-linejoin:miter;stroke-miterlimit:10;stroke-dasharray:none;stroke-opacity:1"
       transform="scale(0.95802457)"
       clip-path="url(#clipPath13)" />
    <text
       id="text13"
       xml:space="preserve"
       transform="matrix(0.95803417,0,0,0.95803417,153.21062,44.069572)"
       clip-path="url(#clipPath14)"><tspan
         style="font-variant:normal;font-weight:normal;font-size:20px;font-family:Helvetica;writing-mode:lr-tb;fill:#000000;fill-opacity:1;fill-rule:nonzero;stroke:none"
         x="0 18.525391 29.648438 35.205078 45.205078 56.328125 60.771484 65.214844 70.771484 76.328125 86.328125 91.884766 98.544922 109.66797 120.79102 131.91406 144.13086 148.57422 153.01758"
         y="0"
         sodipodi:role="line"
         id="tspan13">We call fs.readFile</tspan></text>
    <path
       id="path15"
       d="m 242,149 v 20 -20 9.89999"
       style="fill:none;stroke:#000000;stroke-width:1;stroke-linecap:butt;stroke-linejoin:miter;stroke-miterlimit:10;stroke-dasharray:none;stroke-opacity:1"
       transform="matrix(0.95802457,0,0,0.95802457,0.47901228,0.47901228)"
       clip-path="url(#clipPath16)" />
    <path
       id="path17"
       d="m 242,165.64999 -4.5,-9 4.5,2.25 4.5,-2.25 z"
       style="fill:#000000;fill-opacity:1;fill-rule:nonzero;stroke:#000000;stroke-width:1;stroke-linecap:butt;stroke-linejoin:miter;stroke-miterlimit:10;stroke-dasharray:none;stroke-opacity:1"
       transform="matrix(0.95802457,0,0,0.95802457,0.47901228,0.47901228)"
       clip-path="url(#clipPath18)" />
    <path
       id="path19"
       d="m 82,89 h 320 v 60 H 82 Z"
       style="fill:#ffffff;fill-opacity:1;fill-rule:nonzero;stroke:#000000;stroke-width:1;stroke-linecap:butt;stroke-linejoin:miter;stroke-miterlimit:10;stroke-dasharray:none;stroke-opacity:1"
       transform="scale(0.95802457)"
       clip-path="url(#clipPath20)" />
    <g
       id="g20" />
    <text
       id="text20"
       xml:space="preserve"
       transform="matrix(0.95803417,0,0,0.95803417,91.312632,109.2159)"
       clip-path="url(#clipPath21)"><tspan
         style="font-variant:normal;font-weight:normal;font-size:20px;font-family:Helvetica;writing-mode:lr-tb;fill:#000000;fill-opacity:1;fill-rule:nonzero;stroke:none"
         x="0 14.443359 25.566406 36.689453 47.8125 53.369141 64.492188 75.615234 81.171875 91.171875 96.728516 106.72852 117.85156 134.51172 145.63477 151.19141 155.00977 165.00977 170.56641 181.68945 187.24609 197.24609 201.06445 206.62109 217.74414 228.86719 234.42383 239.98047 251.10352 262.22656 267.7832 277.7832 282.22656"
         y="0"
         sodipodi:role="line"
         id="tspan20">Node gets some 'stats' on the ﬁle</tspan></text>
    <text
       id="text21"
       xml:space="preserve"
       transform="matrix(0.95803417,0,0,0.95803417,141.8639,132.20872)"
       clip-path="url(#clipPath22)"><tspan
         style="font-variant:normal;font-weight:normal;font-size:20px;font-family:Helvetica;writing-mode:lr-tb;fill:#000000;fill-opacity:1;fill-rule:nonzero;stroke:none"
         x="0 6.6601562 13.320312 24.443359 35.566406 46.689453 51.132812 57.792969 68.916016 78.916016 84.472656 98.916016 113.35938 118.91602 130.03906 140.03906 150.03906 161.16211 171.16211 181.16211"
         y="0"
         sodipodi:role="line"
         id="tspan21">(requires HD access)</tspan></text>
    <path
       id="path23"
       d="m 242,229 v 20 -20 9.89999"
       style="fill:none;stroke:#000000;stroke-width:1;stroke-linecap:butt;stroke-linejoin:miter;stroke-miterlimit:10;stroke-dasharray:none;stroke-opacity:1"
       transform="matrix(0.95802457,0,0,0.95802457,0.47901228,0.47901228)"
       clip-path="url(#clipPath24)" />
    <path
       id="path25"
       d="m 242,245.64999 -4.5,-9 4.5,2.25 4.5,-2.25 z"
       style="fill:#000000;fill-opacity:1;fill-rule:nonzero;stroke:#000000;stroke-width:1;stroke-linecap:butt;stroke-linejoin:miter;stroke-miterlimit:10;stroke-dasharray:none;stroke-opacity:1"
       transform="matrix(0.95802457,0,0,0.95802457,0.47901228,0.47901228)"
       clip-path="url(#clipPath26)" />
    <path
       id="path27"
       d="m 82,169 h 320 v 60 H 82 Z"
       style="fill:#dae8fc;fill-opacity:1;fill-rule:nonzero;stroke:#6c8ebf;stroke-width:1;stroke-linecap:butt;stroke-linejoin:miter;stroke-miterlimit:10;stroke-dasharray:none;stroke-opacity:1"
       transform="scale(0.95802457)"
       clip-path="url(#clipPath28)" />
    <text
       id="text28"
       xml:space="preserve"
       transform="matrix(0.95803417,0,0,0.95803417,110.9673,197.35504)"
       clip-path="url(#clipPath29)"><tspan
         style="font-variant:normal;font-weight:normal;font-size:20px;font-family:Helvetica;writing-mode:lr-tb;fill:#000000;fill-opacity:1;fill-rule:nonzero;stroke:none"
         x="0 14.443359 28.886719 34.443359 45.566406 55.566406 65.566406 76.689453 86.689453 96.689453 107.8125 118.93555 124.49219 130.04883 140.04883 145.60547 156.72852 162.28516 172.28516 177.8418 184.50195 195.625 201.18164 212.30469 218.96484 230.08789 241.21094"
         y="0"
         sodipodi:role="line"
         id="tspan28">HD accessed, stats returned</tspan></text>
    <path
       id="path30"
       d="m 242,309 v 20 -20 9.89999"
       style="fill:none;stroke:#000000;stroke-width:1;stroke-linecap:butt;stroke-linejoin:miter;stroke-miterlimit:10;stroke-dasharray:none;stroke-opacity:1"
       transform="matrix(0.95802457,0,0,0.95802457,0.47901228,0.47901228)"
       clip-path="url(#clipPath31)" />
    <path
       id="path32"
       d="m 242,325.64999 -4.5,-9 4.5,2.25 4.5,-2.25 z"
       style="fill:#000000;fill-opacity:1;fill-rule:nonzero;stroke:#000000;stroke-width:1;stroke-linecap:butt;stroke-linejoin:miter;stroke-miterlimit:10;stroke-dasharray:none;stroke-opacity:1"
       transform="matrix(0.95802457,0,0,0.95802457,0.47901228,0.47901228)"
       clip-path="url(#clipPath33)" />
    <path
       id="path34"
       d="m 82,249 h 320 v 60 H 82 Z"
       style="fill:#ffffff;fill-opacity:1;fill-rule:nonzero;stroke:#000000;stroke-width:1;stroke-linecap:butt;stroke-linejoin:miter;stroke-miterlimit:10;stroke-dasharray:none;stroke-opacity:1"
       transform="scale(0.95802457)"
       clip-path="url(#clipPath35)" />
    <g
       id="g35" />
    <text
       id="text35"
       xml:space="preserve"
       transform="matrix(0.95803417,0,0,0.95803417,106.14719,273.99777)"
       clip-path="url(#clipPath36)"><tspan
         style="font-variant:normal;font-weight:normal;font-size:20px;font-family:Helvetica;writing-mode:lr-tb;fill:#000000;fill-opacity:1;fill-rule:nonzero;stroke:none"
         x="0 14.443359 25.566406 36.689453 47.8125 53.369141 60.029297 71.152344 82.275391 93.398438 104.52148 114.52148 120.07812 130.07812 135.63477 141.19141 152.31445 157.87109 164.53125 175.6543 186.77734 197.90039 203.45703 209.01367 220.13672 231.25977 236.81641 246.81641 251.25977"
         y="0"
         sodipodi:role="line"
         id="tspan35">Node requests to read the ﬁle</tspan></text>
    <path
       id="path37"
       d="m 242,389 v 20 -20 9.89999"
       style="fill:none;stroke:#000000;stroke-width:1;stroke-linecap:butt;stroke-linejoin:miter;stroke-miterlimit:10;stroke-dasharray:none;stroke-opacity:1"
       transform="matrix(0.95802457,0,0,0.95802457,0.47901228,0.47901228)"
       clip-path="url(#clipPath38)" />
    <path
       id="path39"
       d="m 242,405.64999 -4.5,-9 4.5,2.25 4.5,-2.25 z"
       style="fill:#000000;fill-opacity:1;fill-rule:nonzero;stroke:#000000;stroke-width:1;stroke-linecap:butt;stroke-linejoin:miter;stroke-miterlimit:10;stroke-dasharray:none;stroke-opacity:1"
       transform="matrix(0.95802457,0,0,0.95802457,0.47901228,0.47901228)"
       clip-path="url(#clipPath40)" />
    <path
       id="path41"
       d="m 82,329 h 320 v 60 H 82 Z"
       style="fill:#dae8fc;fill-opacity:1;fill-rule:nonzero;stroke:#6c8ebf;stroke-width:1;stroke-linecap:butt;stroke-linejoin:miter;stroke-miterlimit:10;stroke-dasharray:none;stroke-opacity:1"
       transform="scale(0.95802457)"
       clip-path="url(#clipPath42)" />
    <g
       id="g42" />
    <text
       id="text42"
       xml:space="preserve"
       transform="matrix(0.95803417,0,0,0.95803417,118.422,339.1441)"
       clip-path="url(#clipPath43)"><tspan
         style="font-variant:normal;font-weight:normal;font-size:20px;font-family:Helvetica;writing-mode:lr-tb;fill:#000000;fill-opacity:1;fill-rule:nonzero;stroke:none"
         x="0 14.443359 28.886719 34.443359 45.566406 55.566406 65.566406 76.689453 86.689453 96.689453 107.8125 118.93555 124.49219 130.04883 140.04883 144.49219 155.61523 161.17188 171.17188 182.29492 193.41797 198.97461 210.09766 221.2207 226.77734"
         y="0"
         sodipodi:role="line"
         id="tspan42">HD accessed, ﬁle contents</tspan></text>
    <text
       id="text43"
       xml:space="preserve"
       transform="matrix(0.95803417,0,0,0.95803417,139.70833,362.13692)"
       clip-path="url(#clipPath44)"><tspan
         style="font-variant:normal;font-weight:normal;font-size:20px;font-family:Helvetica;writing-mode:lr-tb;fill:#000000;fill-opacity:1;fill-rule:nonzero;stroke:none"
         x="0 10 15.556641 22.216797 33.339844 44.462891 61.123047 72.246094 83.369141 88.925781 100.04883 111.17188 121.17188 131.17188 136.72852 142.28516 153.4082 158.96484 170.08789 181.21094"
         y="0"
         sodipodi:role="line"
         id="tspan43">streamed back to app</tspan></text>
    <path
       id="path45"
       d="m 82,409 h 320 v 60 H 82 Z"
       style="fill:#ffffff;fill-opacity:1;fill-rule:nonzero;stroke:#000000;stroke-width:1;stroke-linecap:butt;stroke-linejoin:miter;stroke-miterlimit:10;stroke-dasharray:none;stroke-opacity:1"
       transform="scale(0.95802457)"
       clip-path="url(#clipPath46)" />
    <g
       id="g46" />
    <text
       id="text46"
       xml:space="preserve"
       transform="matrix(0.95803417,0,0,0.95803417,99.231383,427.28324)"
       clip-path="url(#clipPath47)"><tspan
         style="font-variant:normal;font-weight:normal;font-size:20px;font-family:Helvetica;writing-mode:lr-tb;fill:#000000;fill-opacity:1;fill-rule:nonzero;stroke:none"
         x="0 14.443359 25.566406 36.689453 47.8125 53.369141 60.029297 71.152344 76.708984 87.832031 94.492188 105.61523 115.61523 121.17188 131.17188 135.61523 146.73828 152.29492 162.29492 173.41797 184.54102 190.09766 201.2207 212.34375 217.90039 227.90039 233.45703 239.01367 250.13672 255.69336 266.81641"
         y="0"
         sodipodi:role="line"
         id="tspan46">Node returns ﬁle contents to us</tspan></text>
  </g>
</svg>
