<?xml version="1.0" encoding="UTF-8" standalone="no"?>
<!-- Created with Inkscape (http://www.inkscape.org/) -->

<svg
   version="1.1"
   id="svg1"
   width="801.27997"
   height="406.71997"
   viewBox="0 0 801.27997 406.71997"
   sodipodi:docname="node-25.pdf"
   xmlns:inkscape="http://www.inkscape.org/namespaces/inkscape"
   xmlns:sodipodi="http://sodipodi.sourceforge.net/DTD/sodipodi-0.dtd"
   xmlns="http://www.w3.org/2000/svg"
   xmlns:svg="http://www.w3.org/2000/svg">
  <defs
     id="defs1">
    <clipPath
       clipPathUnits="userSpaceOnUse"
       id="clipPath2">
      <path
         d="M 0,0 H 2504.1667 V 1270.0559 H 0 Z"
         transform="scale(0.33384359)"
         clip-rule="evenodd"
         id="path2" />
    </clipPath>
    <clipPath
       clipPathUnits="userSpaceOnUse"
       id="clipPath4">
      <path
         d="M 0,0 H 2504.1667 V 1264.0651 H 0 Z"
         transform="matrix(0.33384359,0,0,0.33384359,-0.50000001,-0.50000001)"
         clip-rule="evenodd"
         id="path4" />
    </clipPath>
    <clipPath
       clipPathUnits="userSpaceOnUse"
       id="clipPath6">
      <path
         d="M 0,0 H 2504.1667 V 1264.0651 H 0 Z"
         transform="matrix(0.33384359,0,0,0.33384359,-0.50000001,-0.50000001)"
         clip-rule="evenodd"
         id="path6" />
    </clipPath>
    <clipPath
       clipPathUnits="userSpaceOnUse"
       id="clipPath7">
      <path
         d="M 0,0 H 2504.1667 V 1264.0651 H 0 Z"
         transform="matrix(0.33384023,0,0,0.33384023,-0.140625,-128)"
         clip-rule="evenodd"
         id="path7" />
    </clipPath>
    <clipPath
       clipPathUnits="userSpaceOnUse"
       id="clipPath9">
      <path
         d="M 0,0 H 2504.1667 V 1264.0651 H 0 Z"
         transform="matrix(0.33384359,0,0,0.33384359,-0.50000001,-0.50000001)"
         clip-rule="evenodd"
         id="path9" />
    </clipPath>
    <clipPath
       clipPathUnits="userSpaceOnUse"
       id="clipPath10">
      <path
         d="M 0,0 H 2504.1667 V 1264.0651 H 0 Z"
         transform="matrix(0.33384023,0,0,0.33384023,-61.437499,-128)"
         clip-rule="evenodd"
         id="path10" />
    </clipPath>
    <clipPath
       clipPathUnits="userSpaceOnUse"
       id="clipPath12">
      <path
         d="M 0,0 H 2504.1667 V 1264.0651 H 0 Z"
         transform="scale(0.33384359)"
         clip-rule="evenodd"
         id="path12" />
    </clipPath>
    <clipPath
       clipPathUnits="userSpaceOnUse"
       id="clipPath13">
      <path
         d="M 0,0 H 2504.1667 V 1264.0651 H 0 Z"
         transform="matrix(0.33384023,0,0,0.33384023,-133.06249,-213)"
         clip-rule="evenodd"
         id="path13" />
    </clipPath>
    <clipPath
       clipPathUnits="userSpaceOnUse"
       id="clipPath15">
      <path
         d="M 0,0 H 2504.1667 V 1264.0651 H 0 Z"
         transform="scale(0.33384359)"
         clip-rule="evenodd"
         id="path15" />
    </clipPath>
    <clipPath
       clipPathUnits="userSpaceOnUse"
       id="clipPath16">
      <path
         d="M 0,0 H 2504.1667 V 1264.0651 H 0 Z"
         transform="matrix(0.33384023,0,0,0.33384023,-243.0625,-213)"
         clip-rule="evenodd"
         id="path16" />
    </clipPath>
    <clipPath
       clipPathUnits="userSpaceOnUse"
       id="clipPath18">
      <path
         d="M 0,0 H 2504.1667 V 1264.0651 H 0 Z"
         transform="matrix(0.33384359,0,0,0.33384359,-0.50000001,-0.50000001)"
         clip-rule="evenodd"
         id="path18" />
    </clipPath>
    <clipPath
       clipPathUnits="userSpaceOnUse"
       id="clipPath19">
      <path
         d="M 0,0 H 2504.1667 V 1264.0651 H 0 Z"
         transform="matrix(0.33384023,0,0,0.33384023,-41.437499,-308)"
         clip-rule="evenodd"
         id="path19" />
    </clipPath>
    <clipPath
       clipPathUnits="userSpaceOnUse"
       id="clipPath21">
      <path
         d="M 0,0 H 2504.1667 V 1264.0651 H 0 Z"
         transform="matrix(0.33384359,0,0,0.33384359,-0.50000001,-0.50000001)"
         clip-rule="evenodd"
         id="path21" />
    </clipPath>
    <clipPath
       clipPathUnits="userSpaceOnUse"
       id="clipPath23">
      <path
         d="M 0,0 H 2504.1667 V 1264.0651 H 0 Z"
         transform="matrix(0.33384359,0,0,0.33384359,-0.50000001,-0.50000001)"
         clip-rule="evenodd"
         id="path23" />
    </clipPath>
    <clipPath
       clipPathUnits="userSpaceOnUse"
       id="clipPath25">
      <path
         d="M 0,0 H 2504.1667 V 1264.0651 H 0 Z"
         transform="scale(0.33384359)"
         clip-rule="evenodd"
         id="path25" />
    </clipPath>
    <clipPath
       clipPathUnits="userSpaceOnUse"
       id="clipPath26">
      <path
         d="M 0,0 H 2504.1667 V 1264.0651 H 0 Z"
         transform="matrix(0.33384023,0,0,0.33384023,-144.20312,-26)"
         clip-rule="evenodd"
         id="path26" />
    </clipPath>
    <clipPath
       clipPathUnits="userSpaceOnUse"
       id="clipPath27">
      <path
         d="M 0,0 H 2504.1667 V 1264.0651 H 0 Z"
         transform="matrix(0.33384023,0,0,0.33384023,-146.96875,-50)"
         clip-rule="evenodd"
         id="path27" />
    </clipPath>
    <clipPath
       clipPathUnits="userSpaceOnUse"
       id="clipPath29">
      <path
         d="M 0,0 H 2504.1667 V 1264.0651 H 0 Z"
         transform="matrix(0.33384359,0,0,0.33384359,-0.50000001,-0.50000001)"
         clip-rule="evenodd"
         id="path29" />
    </clipPath>
    <clipPath
       clipPathUnits="userSpaceOnUse"
       id="clipPath31">
      <path
         d="M 0,0 H 2504.1667 V 1264.0651 H 0 Z"
         transform="matrix(0.33384359,0,0,0.33384359,-0.50000001,-0.50000001)"
         clip-rule="evenodd"
         id="path31" />
    </clipPath>
    <clipPath
       clipPathUnits="userSpaceOnUse"
       id="clipPath33">
      <path
         d="M 0,0 H 2504.1667 V 1264.0651 H 0 Z"
         transform="scale(0.33384359)"
         clip-rule="evenodd"
         id="path33" />
    </clipPath>
    <clipPath
       clipPathUnits="userSpaceOnUse"
       id="clipPath34">
      <path
         d="M 0,0 H 2504.1667 V 1264.0651 H 0 Z"
         transform="matrix(0.33384023,0,0,0.33384023,-254.20313,-26)"
         clip-rule="evenodd"
         id="path34" />
    </clipPath>
    <clipPath
       clipPathUnits="userSpaceOnUse"
       id="clipPath35">
      <path
         d="M 0,0 H 2504.1667 V 1264.0651 H 0 Z"
         transform="matrix(0.33384023,0,0,0.33384023,-256.96875,-50)"
         clip-rule="evenodd"
         id="path35" />
    </clipPath>
    <clipPath
       clipPathUnits="userSpaceOnUse"
       id="clipPath37">
      <path
         d="M 0,0 H 2504.1667 V 1264.0651 H 0 Z"
         transform="matrix(0.33384359,0,0,0.33384359,-0.50000001,-0.50000001)"
         clip-rule="evenodd"
         id="path37" />
    </clipPath>
    <clipPath
       clipPathUnits="userSpaceOnUse"
       id="clipPath38">
      <path
         d="M 0,0 H 2504.1667 V 1264.0651 H 0 Z"
         transform="matrix(0.33384023,0,0,0.33384023,-619.85937,-378)"
         clip-rule="evenodd"
         id="path38" />
    </clipPath>
  </defs>
  <sodipodi:namedview
     id="namedview1"
     pagecolor="#ffffff"
     bordercolor="#000000"
     borderopacity="0.25"
     inkscape:showpageshadow="2"
     inkscape:pageopacity="0.0"
     inkscape:pagecheckerboard="0"
     inkscape:deskcolor="#d1d1d1">
    <inkscape:page
       x="0"
       y="0"
       inkscape:label="1"
       id="page1"
       width="801.27997"
       height="406.71997"
       margin="0"
       bleed="0" />
  </sodipodi:namedview>
  <g
     id="g1"
     inkscape:groupmode="layer"
     inkscape:label="1">
    <path
       id="path1"
       d="M 0,0 H 836 V 424 H 0 Z"
       style="fill:#ffffff;fill-opacity:1;fill-rule:nonzero;stroke:none"
       transform="scale(0.95853266)"
       clip-path="url(#clipPath2)" />
    <path
       id="path3"
       d="M 102,111 V 400.89999"
       style="fill:none;stroke:#000000;stroke-width:1;stroke-linecap:butt;stroke-linejoin:miter;stroke-miterlimit:10;stroke-dasharray:none;stroke-opacity:1"
       transform="matrix(0.95853266,0,0,0.95853266,0.47926634,0.47926634)"
       clip-path="url(#clipPath4)" />
    <path
       id="path5"
       d="m 102,407.64999 -4.5,-9 4.5,2.25 4.5,-2.25 z"
       style="fill:#000000;fill-opacity:1;fill-rule:nonzero;stroke:#000000;stroke-width:1;stroke-linecap:butt;stroke-linejoin:miter;stroke-miterlimit:10;stroke-dasharray:none;stroke-opacity:1"
       transform="matrix(0.95853266,0,0,0.95853266,0.47926634,0.47926634)"
       clip-path="url(#clipPath6)" />
    <text
       id="text6"
       xml:space="preserve"
       transform="matrix(0.9585423,0,0,0.9585423,0.13479501,122.69341)"
       clip-path="url(#clipPath7)"><tspan
         style="font-style:oblique;font-variant:normal;font-weight:normal;font-size:20px;font-family:Helvetica;writing-mode:lr-tb;fill:#000000;fill-opacity:1;fill-rule:nonzero;stroke:none"
         x="0 11.484375 15.927734 32.587891"
         y="0"
         sodipodi:role="line"
         id="tspan6">Time</tspan></text>
    <path
       id="path8"
       d="M 102,111 H 832.01001"
       style="fill:none;stroke:#000000;stroke-width:1;stroke-linecap:butt;stroke-linejoin:miter;stroke-miterlimit:10;stroke-dasharray:none;stroke-opacity:1"
       transform="matrix(0.95853266,0,0,0.95853266,0.47926634,0.47926634)"
       clip-path="url(#clipPath9)" />
    <text
       id="text9"
       xml:space="preserve"
       transform="matrix(0.9585423,0,0,0.9585423,58.890442,122.69341)"
       clip-path="url(#clipPath10)"><tspan
         style="font-style:oblique;font-variant:normal;font-weight:normal;font-size:20px;font-family:Helvetica;writing-mode:lr-tb;fill:#000000;fill-opacity:1;fill-rule:nonzero;stroke:none"
         x="0 11.123047"
         y="0"
         sodipodi:role="line"
         id="tspan9">0s</tspan></text>
    <path
       id="path11"
       d="M 127,111 H 227 V 301 H 127 Z"
       style="fill:#dae8fc;fill-opacity:1;fill-rule:nonzero;stroke:#6c8ebf;stroke-width:1;stroke-linecap:butt;stroke-linejoin:miter;stroke-miterlimit:10;stroke-dasharray:none;stroke-opacity:1"
       transform="scale(0.95853266)"
       clip-path="url(#clipPath12)" />
    <text
       id="text12"
       xml:space="preserve"
       transform="matrix(0.9585423,0,0,0.9585423,127.54603,204.16951)"
       clip-path="url(#clipPath13)"><tspan
         style="font-variant:normal;font-weight:normal;font-size:20px;font-family:Helvetica;writing-mode:lr-tb;fill:#000000;fill-opacity:1;fill-rule:nonzero;stroke:none"
         x="0 11.123047 22.246094 32.246094 43.369141 48.925781 60.048828 65.605469 76.728516"
         y="0"
         sodipodi:role="line"
         id="tspan12">pbkdf2 #1</tspan></text>
    <path
       id="path14"
       d="M 237,111 H 337 V 301 H 237 Z"
       style="fill:#dae8fc;fill-opacity:1;fill-rule:nonzero;stroke:#6c8ebf;stroke-width:1;stroke-linecap:butt;stroke-linejoin:miter;stroke-miterlimit:10;stroke-dasharray:none;stroke-opacity:1"
       transform="scale(0.95853266)"
       clip-path="url(#clipPath15)" />
    <text
       id="text15"
       xml:space="preserve"
       transform="matrix(0.9585423,0,0,0.9585423,232.98569,204.16951)"
       clip-path="url(#clipPath16)"><tspan
         style="font-variant:normal;font-weight:normal;font-size:20px;font-family:Helvetica;writing-mode:lr-tb;fill:#000000;fill-opacity:1;fill-rule:nonzero;stroke:none"
         x="0 11.123047 22.246094 32.246094 43.369141 48.925781 60.048828 65.605469 76.728516"
         y="0"
         sodipodi:role="line"
         id="tspan15">pbkdf2 #2</tspan></text>
    <path
       id="path17"
       d="m 82,299.5 h 9.000092 v 3 H 82 m 18.00018,-3 h 9.00009 v 3 h -9.00009 m 18.00018,-3 h 9.00009 v 3 h -9.00009 m 18.00017,-3 h 9.0001 v 3 h -9.0001 m 18.00019,-3 h 9.00009 v 3 h -9.00009 m 18.00018,-3 h 9.00008 v 3 h -9.00008 m 18.00017,-3 h 9.00009 v 3 h -9.00009 m 18.00018,-3 h 9.00009 v 3 h -9.00009 m 18.00018,-3 h 9.0001 v 3 h -9.0001 m 18.00019,-3 h 9.00009 v 3 h -9.00009 m 18.00018,-3 h 9.00009 v 3 h -9.00009 m 18.00015,-3 h 9.00013 v 3 h -9.00013 m 18.00019,-3 h 9.00012 v 3 h -9.00012 m 18.00018,-3 h 9.00012 v 3 h -9.00012 m 18.00018,-3 h 9.00009 v 3 h -9.00009 m 18.00019,-3 h 9.00009 v 3 h -9.00009 m 18.00018,-3 h 9.00009 v 3 h -9.00009 m 18.00018,-3 h 9.00009 v 3 h -9.00009 m 18.00018,-3 h 9.0001 v 3 h -9.0001 m 18.00019,-3 h 9.00009 v 3 h -9.00009 m 18.00018,-3 h 9.00006 v 3 h -9.00006 m 18.00015,-3 h 9.0001 v 3 h -9.0001 m 18.00019,-3 h 9.00009 v 3 h -9.00009 m 18.00018,-3 h 9.00009 v 3 h -9.00009 m 18.00015,-3 h 9.00012 v 3 h -9.00012 m 18.00025,-3 h 9.00006 v 3 h -9.00006 m 18.00012,-3 h 9.00012 v 3 h -9.00012 m 18.00024,-3 h 9.00006 v 3 h -9.00006 m 18.00012,-3 h 9.00013 v 3 H 586.005 m 18.00019,-3 h 9.00012 v 3 h -9.00012 m 18.00018,-3 h 9.00012 v 3 h -9.00012 m 18.00018,-3 h 9.00013 v 3 h -9.00013 m 18.00019,-3 h 9.00006 v 3 h -9.00006 m 18.00018,-3 h 9.00006 v 3 h -9.00006 m 18.00018,-3 h 9.00006 v 3 h -9.00006 m 18.00019,-3 h 9.00006 v 3 h -9.00006 m 18.00018,-3 h 9.00006 v 3 h -9.00006 m 18.00018,-3 h 9.00006 v 3 h -9.00006 m 18.00019,-3 h 9.00006 v 3 h -9.00006 m 18.00018,-3 h 8.00299 v 3 h -8.00299"
       style="fill:#000000;fill-opacity:1;fill-rule:nonzero;stroke:none"
       transform="matrix(0.95853266,0,0,0.95853266,0.47926634,0.47926634)"
       clip-path="url(#clipPath18)" />
    <text
       id="text18"
       xml:space="preserve"
       transform="matrix(0.9585423,0,0,0.9585423,39.719596,295.23103)"
       clip-path="url(#clipPath19)"><tspan
         style="font-variant:normal;font-weight:normal;font-size:20px;font-family:Helvetica;writing-mode:lr-tb;fill:#000000;fill-opacity:1;fill-rule:nonzero;stroke:none"
         x="0 11.123047"
         y="0"
         sodipodi:role="line"
         id="tspan18">1s</tspan></text>
    <path
       id="path20"
       d="m 177,61 v 39.9"
       style="fill:none;stroke:#000000;stroke-width:1;stroke-linecap:butt;stroke-linejoin:miter;stroke-miterlimit:10;stroke-dasharray:none;stroke-opacity:1"
       transform="matrix(0.95853266,0,0,0.95853266,0.47926634,0.47926634)"
       clip-path="url(#clipPath21)" />
    <path
       id="path22"
       d="M 177,107.65 172.5,98.650002 177,100.9 181.5,98.650002 Z"
       style="fill:#000000;fill-opacity:1;fill-rule:nonzero;stroke:#000000;stroke-width:1;stroke-linecap:butt;stroke-linejoin:miter;stroke-miterlimit:10;stroke-dasharray:none;stroke-opacity:1"
       transform="matrix(0.95853266,0,0,0.95853266,0.47926634,0.47926634)"
       clip-path="url(#clipPath23)" />
    <path
       id="path24"
       d="m 137,1 h 80 v 60 h -80 z"
       style="fill:#ffffff;fill-opacity:1;fill-rule:nonzero;stroke:#000000;stroke-width:1;stroke-linecap:butt;stroke-linejoin:miter;stroke-miterlimit:10;stroke-dasharray:none;stroke-opacity:1"
       transform="scale(0.95853266)"
       clip-path="url(#clipPath25)" />
    <text
       id="text25"
       xml:space="preserve"
       transform="matrix(0.9585423,0,0,0.9585423,138.22479,24.9221)"
       clip-path="url(#clipPath26)"><tspan
         style="font-variant:normal;font-weight:normal;font-size:20px;font-family:Helvetica;writing-mode:lr-tb;fill:#000000;fill-opacity:1;fill-rule:nonzero;stroke:none"
         x="0 14.443359 25.566406 36.689453 42.246094 47.802734 58.925781"
         y="0"
         sodipodi:role="line"
         id="tspan25">Req for</tspan></text>
    <text
       id="text26"
       xml:space="preserve"
       transform="matrix(0.9585423,0,0,0.9585423,140.87576,47.927115)"
       clip-path="url(#clipPath27)"><tspan
         style="font-variant:normal;font-weight:normal;font-size:20px;font-family:Helvetica;writing-mode:lr-tb;fill:#000000;fill-opacity:1;fill-rule:nonzero;stroke:none"
         x="0 11.123047 22.246094 32.246094 43.369141 48.925781"
         y="0"
         sodipodi:role="line"
         id="tspan26">pbkdf2</tspan></text>
    <path
       id="path28"
       d="m 287,61 v 39.9"
       style="fill:none;stroke:#000000;stroke-width:1;stroke-linecap:butt;stroke-linejoin:miter;stroke-miterlimit:10;stroke-dasharray:none;stroke-opacity:1"
       transform="matrix(0.95853266,0,0,0.95853266,0.47926634,0.47926634)"
       clip-path="url(#clipPath29)" />
    <path
       id="path30"
       d="M 287,107.65 282.5,98.650002 287,100.9 291.5,98.650002 Z"
       style="fill:#000000;fill-opacity:1;fill-rule:nonzero;stroke:#000000;stroke-width:1;stroke-linecap:butt;stroke-linejoin:miter;stroke-miterlimit:10;stroke-dasharray:none;stroke-opacity:1"
       transform="matrix(0.95853266,0,0,0.95853266,0.47926634,0.47926634)"
       clip-path="url(#clipPath31)" />
    <path
       id="path32"
       d="m 247,1 h 80 v 60 h -80 z"
       style="fill:#ffffff;fill-opacity:1;fill-rule:nonzero;stroke:#000000;stroke-width:1;stroke-linecap:butt;stroke-linejoin:miter;stroke-miterlimit:10;stroke-dasharray:none;stroke-opacity:1"
       transform="scale(0.95853266)"
       clip-path="url(#clipPath33)" />
    <text
       id="text33"
       xml:space="preserve"
       transform="matrix(0.9585423,0,0,0.9585423,243.66445,24.9221)"
       clip-path="url(#clipPath34)"><tspan
         style="font-variant:normal;font-weight:normal;font-size:20px;font-family:Helvetica;writing-mode:lr-tb;fill:#000000;fill-opacity:1;fill-rule:nonzero;stroke:none"
         x="0 14.443359 25.566406 36.689453 42.246094 47.802734 58.925781"
         y="0"
         sodipodi:role="line"
         id="tspan33">Req for</tspan></text>
    <text
       id="text34"
       xml:space="preserve"
       transform="matrix(0.9585423,0,0,0.9585423,246.31542,47.927115)"
       clip-path="url(#clipPath35)"><tspan
         style="font-variant:normal;font-weight:normal;font-size:20px;font-family:Helvetica;writing-mode:lr-tb;fill:#000000;fill-opacity:1;fill-rule:nonzero;stroke:none"
         x="0 11.123047 22.246094 32.246094 43.369141 48.925781"
         y="0"
         sodipodi:role="line"
         id="tspan34">pbkdf2</tspan></text>
    <path
       id="path36"
       d="m 572.01001,341 h 240 v 60 h -240 z"
       style="fill:#f8cecc;fill-opacity:1;fill-rule:nonzero;stroke:#b85450;stroke-width:1;stroke-linecap:butt;stroke-linejoin:miter;stroke-miterlimit:10;stroke-dasharray:none;stroke-opacity:1"
       transform="matrix(0.95853266,0,0,0.95853266,0.47926634,0.47926634)"
       clip-path="url(#clipPath37)" />
    <text
       id="text37"
       xml:space="preserve"
       transform="matrix(0.9585423,0,0,0.9585423,594.16143,362.32899)"
       clip-path="url(#clipPath38)"><tspan
         style="font-variant:normal;font-weight:700;font-size:20px;font-family:Helvetica;writing-mode:lr-tb;fill:#000000;fill-opacity:1;fill-rule:nonzero;stroke:none"
         x="0 18.701172 24.257812 30.917969 43.134766 48.691406 59.814453 65.371094 77.587891 88.710938 95.371094 106.49414 114.27734 119.83398 132.05078"
         y="0"
         sodipodi:role="line"
         id="tspan37">With clustering</tspan></text>
  </g>
</svg>
