<?xml version="1.0" encoding="UTF-8" standalone="no"?>
<!-- Created with Inkscape (http://www.inkscape.org/) -->

<svg
   version="1.1"
   id="svg1"
   width="416"
   height="353.28"
   viewBox="0 0 416 353.28"
   sodipodi:docname="node-21.pdf"
   xmlns:inkscape="http://www.inkscape.org/namespaces/inkscape"
   xmlns:sodipodi="http://sodipodi.sourceforge.net/DTD/sodipodi-0.dtd"
   xmlns="http://www.w3.org/2000/svg"
   xmlns:svg="http://www.w3.org/2000/svg">
  <defs
     id="defs1">
    <clipPath
       clipPathUnits="userSpaceOnUse"
       id="clipPath2">
      <path
         d="M 0,0 H 1300 V 1102.3041 H 0 Z"
         transform="scale(0.33384617)"
         clip-rule="evenodd"
         id="path2" />
    </clipPath>
    <clipPath
       clipPathUnits="userSpaceOnUse"
       id="clipPath4">
      <path
         d="M 0,0 H 1300 V 1096.3134 H 0 Z"
         transform="matrix(0.33384617,0,0,0.33384617,-0.50000001,-0.50000001)"
         clip-rule="evenodd"
         id="path4" />
    </clipPath>
    <clipPath
       clipPathUnits="userSpaceOnUse"
       id="clipPath6">
      <path
         d="M 0,0 H 1300 V 1096.3134 H 0 Z"
         transform="matrix(0.33384617,0,0,0.33384617,-0.50000001,-0.50000001)"
         clip-rule="evenodd"
         id="path6" />
    </clipPath>
    <clipPath
       clipPathUnits="userSpaceOnUse"
       id="clipPath8">
      <path
         d="M 0,0 H 1300 V 1096.3134 H 0 Z"
         transform="matrix(0.33384617,0,0,0.33384617,-0.50000001,-0.50000001)"
         clip-rule="evenodd"
         id="path8" />
    </clipPath>
    <clipPath
       clipPathUnits="userSpaceOnUse"
       id="clipPath10">
      <path
         d="M 0,0 H 1300 V 1096.3134 H 0 Z"
         transform="matrix(0.33384617,0,0,0.33384617,-0.50000001,-0.50000001)"
         clip-rule="evenodd"
         id="path10" />
    </clipPath>
    <clipPath
       clipPathUnits="userSpaceOnUse"
       id="clipPath12">
      <path
         d="M 0,0 H 1300 V 1096.3134 H 0 Z"
         transform="scale(0.33384617)"
         clip-rule="evenodd"
         id="path12" />
    </clipPath>
    <clipPath
       clipPathUnits="userSpaceOnUse"
       id="clipPath13">
      <path
         d="M 0,0 H 1300 V 1096.3134 H 0 Z"
         transform="matrix(0.33384282,0,0,0.33384282,-51.09375,-134)"
         clip-rule="evenodd"
         id="path13" />
    </clipPath>
    <clipPath
       clipPathUnits="userSpaceOnUse"
       id="clipPath15">
      <path
         d="M 0,0 H 1300 V 1096.3134 H 0 Z"
         transform="matrix(0.33384617,0,0,0.33384617,-0.50000001,-0.50000001)"
         clip-rule="evenodd"
         id="path15" />
    </clipPath>
    <clipPath
       clipPathUnits="userSpaceOnUse"
       id="clipPath17">
      <path
         d="M 0,0 H 1300 V 1096.3134 H 0 Z"
         transform="matrix(0.33384617,0,0,0.33384617,-0.50000001,-0.50000001)"
         clip-rule="evenodd"
         id="path17" />
    </clipPath>
    <clipPath
       clipPathUnits="userSpaceOnUse"
       id="clipPath18">
      <path
         d="M 0,0 H 1300 V 1096.3134 H 0 Z"
         transform="matrix(0.33384282,0,0,0.33384282,-1.625,-19)"
         clip-rule="evenodd"
         id="path18" />
    </clipPath>
    <clipPath
       clipPathUnits="userSpaceOnUse"
       id="clipPath20">
      <path
         d="M 0,0 H 1300 V 1096.3134 H 0 Z"
         transform="matrix(0.33384617,0,0,0.33384617,-0.50000001,-0.50000001)"
         clip-rule="evenodd"
         id="path20" />
    </clipPath>
    <clipPath
       clipPathUnits="userSpaceOnUse"
       id="clipPath22">
      <path
         d="M 0,0 H 1300 V 1096.3134 H 0 Z"
         transform="matrix(0.33384617,0,0,0.33384617,-0.50000001,-0.50000001)"
         clip-rule="evenodd"
         id="path22" />
    </clipPath>
    <clipPath
       clipPathUnits="userSpaceOnUse"
       id="clipPath24">
      <path
         d="M 0,0 H 1300 V 1096.3134 H 0 Z"
         transform="scale(0.33384617)"
         clip-rule="evenodd"
         id="path24" />
    </clipPath>
    <clipPath
       clipPathUnits="userSpaceOnUse"
       id="clipPath25">
      <path
         d="M 0,0 H 1300 V 1096.3134 H 0 Z"
         transform="matrix(0.33384282,0,0,0.33384282,-11.078125,-269)"
         clip-rule="evenodd"
         id="path25" />
    </clipPath>
    <clipPath
       clipPathUnits="userSpaceOnUse"
       id="clipPath27">
      <path
         d="M 0,0 H 1300 V 1096.3134 H 0 Z"
         transform="matrix(0.33384617,0,0,0.33384617,-0.50000001,-0.50000001)"
         clip-rule="evenodd"
         id="path27" />
    </clipPath>
    <clipPath
       clipPathUnits="userSpaceOnUse"
       id="clipPath29">
      <path
         d="M 0,0 H 1300 V 1096.3134 H 0 Z"
         transform="matrix(0.33384617,0,0,0.33384617,-0.50000001,-0.50000001)"
         clip-rule="evenodd"
         id="path29" />
    </clipPath>
    <clipPath
       clipPathUnits="userSpaceOnUse"
       id="clipPath30">
      <path
         d="M 0,0 H 1300 V 1096.3134 H 0 Z"
         transform="matrix(0.33384282,0,0,0.33384282,-29.984375,-359)"
         clip-rule="evenodd"
         id="path30" />
    </clipPath>
    <clipPath
       clipPathUnits="userSpaceOnUse"
       id="clipPath32">
      <path
         d="M 0,0 H 1300 V 1096.3134 H 0 Z"
         transform="scale(0.33384617)"
         clip-rule="evenodd"
         id="path32" />
    </clipPath>
    <clipPath
       clipPathUnits="userSpaceOnUse"
       id="clipPath33">
      <path
         d="M 0,0 H 1300 V 1096.3134 H 0 Z"
         transform="matrix(0.33384282,0,0,0.33384282,-278.35938,-54)"
         clip-rule="evenodd"
         id="path33" />
    </clipPath>
  </defs>
  <sodipodi:namedview
     id="namedview1"
     pagecolor="#ffffff"
     bordercolor="#000000"
     borderopacity="0.25"
     inkscape:showpageshadow="2"
     inkscape:pageopacity="0.0"
     inkscape:pagecheckerboard="0"
     inkscape:deskcolor="#d1d1d1">
    <inkscape:page
       x="0"
       y="0"
       inkscape:label="1"
       id="page1"
       width="416"
       height="353.28"
       margin="0"
       bleed="0" />
  </sodipodi:namedview>
  <g
     id="g1"
     inkscape:groupmode="layer"
     inkscape:label="1">
    <path
       id="path1"
       d="M 0,0 H 434 V 368 H 0 Z"
       style="fill:#ffffff;fill-opacity:1;fill-rule:nonzero;stroke:none"
       transform="scale(0.95852527)"
       clip-path="url(#clipPath2)" />
    <path
       id="path3"
       d="m 85,162 v 54.89999"
       style="fill:none;stroke:#000000;stroke-width:1;stroke-linecap:butt;stroke-linejoin:miter;stroke-miterlimit:10;stroke-dasharray:none;stroke-opacity:1"
       transform="matrix(0.95852527,0,0,0.95852527,0.47926264,0.47926264)"
       clip-path="url(#clipPath4)" />
    <path
       id="path5"
       d="m 85,223.64999 -4.5,-9 4.5,2.25 4.5,-2.25 z"
       style="fill:#000000;fill-opacity:1;fill-rule:nonzero;stroke:#000000;stroke-width:1;stroke-linecap:butt;stroke-linejoin:miter;stroke-miterlimit:10;stroke-dasharray:none;stroke-opacity:1"
       transform="matrix(0.95852527,0,0,0.95852527,0.47926264,0.47926264)"
       clip-path="url(#clipPath6)" />
    <path
       id="path7"
       d="M 165,109.5 H 351 V 92.099998"
       style="fill:none;stroke:#000000;stroke-width:1;stroke-linecap:butt;stroke-linejoin:miter;stroke-miterlimit:10;stroke-dasharray:none;stroke-opacity:1"
       transform="matrix(0.95852527,0,0,0.95852527,0.47926264,0.47926264)"
       clip-path="url(#clipPath8)" />
    <path
       id="path9"
       d="m 351,85.349998 4.5,9 -4.5,-2.25 -4.5,2.25 z"
       style="fill:#000000;fill-opacity:1;fill-rule:nonzero;stroke:#000000;stroke-width:1;stroke-linecap:butt;stroke-linejoin:miter;stroke-miterlimit:10;stroke-dasharray:none;stroke-opacity:1"
       transform="matrix(0.95852527,0,0,0.95852527,0.47926264,0.47926264)"
       clip-path="url(#clipPath10)" />
    <path
       id="path11"
       d="m 5,92 h 160 v 70 H 5 Z"
       style="fill:#ffffff;fill-opacity:1;fill-rule:nonzero;stroke:#000000;stroke-width:1;stroke-linecap:butt;stroke-linejoin:miter;stroke-miterlimit:10;stroke-dasharray:none;stroke-opacity:1"
       transform="scale(0.95852527)"
       clip-path="url(#clipPath12)" />
    <text
       id="text12"
       xml:space="preserve"
       transform="matrix(0.95853487,0,0,0.95853487,48.975141,128.44367)"
       clip-path="url(#clipPath13)"><tspan
         style="font-variant:normal;font-weight:normal;font-size:20px;font-family:Helvetica;writing-mode:lr-tb;fill:#000000;fill-opacity:1;fill-rule:nonzero;stroke:none"
         x="0 4.4433594 15.566406 26.689453 37.8125 47.8125 53.369141 57.8125"
         y="0"
         sodipodi:role="line"
         id="tspan12">index.js</tspan></text>
    <path
       id="path14"
       d="M 85,22 V 81.900002"
       style="fill:none;stroke:#000000;stroke-width:1;stroke-linecap:butt;stroke-linejoin:miter;stroke-miterlimit:10;stroke-dasharray:none;stroke-opacity:1"
       transform="matrix(0.95852527,0,0,0.95852527,0.47926264,0.47926264)"
       clip-path="url(#clipPath15)" />
    <path
       id="path16"
       d="m 85,88.650002 -4.5,-9 4.5,2.25 4.5,-2.25 z"
       style="fill:#000000;fill-opacity:1;fill-rule:nonzero;stroke:#000000;stroke-width:1;stroke-linecap:butt;stroke-linejoin:miter;stroke-miterlimit:10;stroke-dasharray:none;stroke-opacity:1"
       transform="matrix(0.95852527,0,0,0.95852527,0.47926264,0.47926264)"
       clip-path="url(#clipPath17)" />
    <text
       id="text17"
       xml:space="preserve"
       transform="matrix(0.95853487,0,0,0.95853487,1.5576192,18.212163)"
       clip-path="url(#clipPath18)"><tspan
         style="font-style:oblique;font-variant:normal;font-weight:normal;font-size:20px;font-family:Helvetica;writing-mode:lr-tb;fill:#000000;fill-opacity:1;fill-rule:nonzero;stroke:none"
         x="0 14.443359 28.886719 43.330078 48.886719 60.009766 71.132812 82.255859 93.378906 98.935547 103.37891 114.50195 125.625 136.74805 146.74805 152.30469 156.74805"
         y="0"
         sodipodi:role="line"
         id="tspan17">RUN node index.js</tspan></text>
    <path
       id="path19"
       d="m 85,297 v 34.89999"
       style="fill:none;stroke:#000000;stroke-width:1;stroke-linecap:butt;stroke-linejoin:miter;stroke-miterlimit:10;stroke-dasharray:none;stroke-opacity:1"
       transform="matrix(0.95852527,0,0,0.95852527,0.47926264,0.47926264)"
       clip-path="url(#clipPath20)" />
    <path
       id="path21"
       d="m 85,338.64999 -4.5,-9 4.5,2.25 4.5,-2.25 z"
       style="fill:#000000;fill-opacity:1;fill-rule:nonzero;stroke:#000000;stroke-width:1;stroke-linecap:butt;stroke-linejoin:miter;stroke-miterlimit:10;stroke-dasharray:none;stroke-opacity:1"
       transform="matrix(0.95852527,0,0,0.95852527,0.47926264,0.47926264)"
       clip-path="url(#clipPath22)" />
    <path
       id="path23"
       d="m 5,227 h 160 v 70 H 5 Z"
       style="fill:#dae8fc;fill-opacity:1;fill-rule:nonzero;stroke:#6c8ebf;stroke-width:1;stroke-linecap:butt;stroke-linejoin:miter;stroke-miterlimit:10;stroke-dasharray:none;stroke-opacity:1"
       transform="scale(0.95852527)"
       clip-path="url(#clipPath24)" />
    <text
       id="text24"
       xml:space="preserve"
       transform="matrix(0.95853487,0,0,0.95853487,10.618769,257.84588)"
       clip-path="url(#clipPath25)"><tspan
         style="font-variant:normal;font-weight:normal;font-size:20px;font-family:Helvetica;writing-mode:lr-tb;fill:#000000;fill-opacity:1;fill-rule:nonzero;stroke:none"
         x="0 14.443359 18.886719 30.009766 40.009766 45.566406 56.689453 63.349609 68.90625 85.566406 96.689453 107.8125 118.93555 130.05859 141.18164"
         y="0"
         sodipodi:role="line"
         id="tspan24">Cluster Manager</tspan></text>
    <path
       id="path26"
       d="m 170,352 h 45 V 144.5 h -39.89"
       style="fill:none;stroke:#000000;stroke-width:1;stroke-linecap:butt;stroke-linejoin:miter;stroke-miterlimit:10;stroke-dasharray:none;stroke-opacity:1"
       transform="matrix(0.95852527,0,0,0.95852527,0.47926264,0.47926264)"
       clip-path="url(#clipPath27)" />
    <path
       id="path28"
       d="m 168.36,144.5 9,-4.5 -2.25,4.5 2.25,4.5 z"
       style="fill:#000000;fill-opacity:1;fill-rule:nonzero;stroke:#000000;stroke-width:1;stroke-linecap:butt;stroke-linejoin:miter;stroke-miterlimit:10;stroke-dasharray:none;stroke-opacity:1"
       transform="matrix(0.95852527,0,0,0.95852527,0.47926264,0.47926264)"
       clip-path="url(#clipPath29)" />
    <text
       id="text29"
       xml:space="preserve"
       transform="matrix(0.95853487,0,0,0.95853487,28.741069,344.11402)"
       clip-path="url(#clipPath30)"><tspan
         style="font-style:oblique;font-variant:normal;font-weight:normal;font-size:20px;font-family:Helvetica;writing-mode:lr-tb;fill:#000000;fill-opacity:1;fill-rule:nonzero;stroke:none"
         x="0 10 14.443359 25.566406 35.566406 41.123047 52.246094 57.8125 63.369141 68.925781 80.048828 86.708984 96.708984 103.36914"
         y="0"
         sodipodi:role="line"
         id="tspan29">cluster.fork()</tspan></text>
    <path
       id="path31"
       d="M 271,12 H 431 V 82 H 271 Z"
       style="fill:#d5e8d4;fill-opacity:1;fill-rule:nonzero;stroke:#82b366;stroke-width:1;stroke-linecap:butt;stroke-linejoin:miter;stroke-miterlimit:10;stroke-dasharray:none;stroke-opacity:1"
       transform="scale(0.95852527)"
       clip-path="url(#clipPath32)" />
    <text
       id="text32"
       xml:space="preserve"
       transform="matrix(0.95853487,0,0,0.95853487,266.81717,51.760883)"
       clip-path="url(#clipPath33)"><tspan
         style="font-variant:normal;font-weight:normal;font-size:20px;font-family:Helvetica;writing-mode:lr-tb;fill:#000000;fill-opacity:1;fill-rule:nonzero;stroke:none"
         x="0 18.525391 29.648438 36.308594 46.308594 57.431641 64.091797 69.648438 75.205078 86.328125 96.328125 101.88477 113.00781 124.13086 134.13086"
         y="0"
         sodipodi:role="line"
         id="tspan32">Worker Instance</tspan></text>
  </g>
</svg>
