<?xml version="1.0" encoding="UTF-8" standalone="no"?>
<!-- Created with Inkscape (http://www.inkscape.org/) -->

<svg
   version="1.1"
   id="svg1"
   width="830.71997"
   height="342.72"
   viewBox="0 0 830.71997 342.72"
   sodipodi:docname="node-13.pdf"
   xmlns:inkscape="http://www.inkscape.org/namespaces/inkscape"
   xmlns:sodipodi="http://sodipodi.sourceforge.net/DTD/sodipodi-0.dtd"
   xmlns="http://www.w3.org/2000/svg"
   xmlns:svg="http://www.w3.org/2000/svg">
  <defs
     id="defs1">
    <clipPath
       clipPathUnits="userSpaceOnUse"
       id="clipPath2">
      <path
         d="M 0,0 H 2595.833 V 1068.8724 H 0 Z"
         transform="scale(0.33399682)"
         clip-rule="evenodd"
         id="path2" />
    </clipPath>
    <clipPath
       clipPathUnits="userSpaceOnUse"
       id="clipPath4">
      <path
         d="M 0,0 H 2595.833 V 1065.8784 H 0 Z"
         transform="scale(0.33399682)"
         clip-rule="evenodd"
         id="path4" />
    </clipPath>
    <clipPath
       clipPathUnits="userSpaceOnUse"
       id="clipPath5">
      <path
         d="M 0,0 H 2595.833 V 1065.8784 H 0 Z"
         transform="matrix(0.33399347,0,0,0.33399347,-38.625,-82)"
         clip-rule="evenodd"
         id="path5" />
    </clipPath>
    <clipPath
       clipPathUnits="userSpaceOnUse"
       id="clipPath6">
      <path
         d="M 0,0 H 2595.833 V 1065.8784 H 0 Z"
         transform="matrix(0.33399347,0,0,0.33399347,-97.53125,-106)"
         clip-rule="evenodd"
         id="path6" />
    </clipPath>
    <clipPath
       clipPathUnits="userSpaceOnUse"
       id="clipPath8">
      <path
         d="M 0,0 H 2595.833 V 1065.8784 H 0 Z"
         transform="scale(0.33399682)"
         clip-rule="evenodd"
         id="path8" />
    </clipPath>
    <clipPath
       clipPathUnits="userSpaceOnUse"
       id="clipPath9">
      <path
         d="M 0,0 H 2595.833 V 1065.8784 H 0 Z"
         transform="matrix(0.33399347,0,0,0.33399347,-306.35938,-70)"
         clip-rule="evenodd"
         id="path9" />
    </clipPath>
    <clipPath
       clipPathUnits="userSpaceOnUse"
       id="clipPath10">
      <path
         d="M 0,0 H 2595.833 V 1065.8784 H 0 Z"
         transform="matrix(0.33399347,0,0,0.33399347,-306.90625,-94)"
         clip-rule="evenodd"
         id="path10" />
    </clipPath>
    <clipPath
       clipPathUnits="userSpaceOnUse"
       id="clipPath11">
      <path
         d="M 0,0 H 2595.833 V 1065.8784 H 0 Z"
         transform="matrix(0.33399347,0,0,0.33399347,-320.25,-118)"
         clip-rule="evenodd"
         id="path11" />
    </clipPath>
    <clipPath
       clipPathUnits="userSpaceOnUse"
       id="clipPath13">
      <path
         d="M 0,0 H 2595.833 V 1065.8784 H 0 Z"
         transform="scale(0.33399682)"
         clip-rule="evenodd"
         id="path13" />
    </clipPath>
    <clipPath
       clipPathUnits="userSpaceOnUse"
       id="clipPath14">
      <path
         d="M 0,0 H 2595.833 V 1065.8784 H 0 Z"
         transform="matrix(0.33399347,0,0,0.33399347,-611.01562,-70)"
         clip-rule="evenodd"
         id="path14" />
    </clipPath>
    <clipPath
       clipPathUnits="userSpaceOnUse"
       id="clipPath15">
      <path
         d="M 0,0 H 2595.833 V 1065.8784 H 0 Z"
         transform="matrix(0.33399347,0,0,0.33399347,-603.5625,-94)"
         clip-rule="evenodd"
         id="path15" />
    </clipPath>
    <clipPath
       clipPathUnits="userSpaceOnUse"
       id="clipPath16">
      <path
         d="M 0,0 H 2595.833 V 1065.8784 H 0 Z"
         transform="matrix(0.33399347,0,0,0.33399347,-681.96875,-118)"
         clip-rule="evenodd"
         id="path16" />
    </clipPath>
    <clipPath
       clipPathUnits="userSpaceOnUse"
       id="clipPath18">
      <path
         d="M 0,0 H 2595.833 V 1065.8784 H 0 Z"
         transform="scale(0.33399682)"
         clip-rule="evenodd"
         id="path18" />
    </clipPath>
    <clipPath
       clipPathUnits="userSpaceOnUse"
       id="clipPath19">
      <path
         d="M 0,0 H 2595.833 V 1065.8784 H 0 Z"
         transform="matrix(0.33399347,0,0,0.33399347,-38.046875,-182)"
         clip-rule="evenodd"
         id="path19" />
    </clipPath>
    <clipPath
       clipPathUnits="userSpaceOnUse"
       id="clipPath20">
      <path
         d="M 0,0 H 2595.833 V 1065.8784 H 0 Z"
         transform="matrix(0.33399347,0,0,0.33399347,-66.390625,-206)"
         clip-rule="evenodd"
         id="path20" />
    </clipPath>
    <clipPath
       clipPathUnits="userSpaceOnUse"
       id="clipPath22">
      <path
         d="M 0,0 H 2595.833 V 1065.8784 H 0 Z"
         transform="scale(0.33399682)"
         clip-rule="evenodd"
         id="path22" />
    </clipPath>
    <clipPath
       clipPathUnits="userSpaceOnUse"
       id="clipPath23">
      <path
         d="M 0,0 H 2595.833 V 1065.8784 H 0 Z"
         transform="matrix(0.33399347,0,0,0.33399347,-309.125,-182)"
         clip-rule="evenodd"
         id="path23" />
    </clipPath>
    <clipPath
       clipPathUnits="userSpaceOnUse"
       id="clipPath24">
      <path
         d="M 0,0 H 2595.833 V 1065.8784 H 0 Z"
         transform="matrix(0.33399347,0,0,0.33399347,-398.64063,-206)"
         clip-rule="evenodd"
         id="path24" />
    </clipPath>
    <clipPath
       clipPathUnits="userSpaceOnUse"
       id="clipPath26">
      <path
         d="M 0,0 H 2595.833 V 1065.8784 H 0 Z"
         transform="scale(0.33399682)"
         clip-rule="evenodd"
         id="path26" />
    </clipPath>
    <clipPath
       clipPathUnits="userSpaceOnUse"
       id="clipPath27">
      <path
         d="M 0,0 H 2595.833 V 1065.8784 H 0 Z"
         transform="matrix(0.33399347,0,0,0.33399347,-620.82813,-182)"
         clip-rule="evenodd"
         id="path27" />
    </clipPath>
    <clipPath
       clipPathUnits="userSpaceOnUse"
       id="clipPath28">
      <path
         d="M 0,0 H 2595.833 V 1065.8784 H 0 Z"
         transform="matrix(0.33399347,0,0,0.33399347,-691.42188,-206)"
         clip-rule="evenodd"
         id="path28" />
    </clipPath>
    <clipPath
       clipPathUnits="userSpaceOnUse"
       id="clipPath30">
      <path
         d="M 0,0 H 2595.833 V 1065.8784 H 0 Z"
         transform="matrix(0.33399682,0,0,0.33399682,-0.5,-0.5)"
         clip-rule="evenodd"
         id="path30" />
    </clipPath>
    <clipPath
       clipPathUnits="userSpaceOnUse"
       id="clipPath32">
      <path
         d="M 0,0 H 2595.833 V 1065.8784 H 0 Z"
         transform="matrix(0.33399682,0,0,0.33399682,-0.5,-0.5)"
         clip-rule="evenodd"
         id="path32" />
    </clipPath>
    <clipPath
       clipPathUnits="userSpaceOnUse"
       id="clipPath34">
      <path
         d="M 0,0 H 2595.833 V 1065.8784 H 0 Z"
         transform="matrix(0.33399682,0,0,0.33399682,-0.5,-0.5)"
         clip-rule="evenodd"
         id="path34" />
    </clipPath>
    <clipPath
       clipPathUnits="userSpaceOnUse"
       id="clipPath35">
      <path
         d="M 0,0 H 2595.833 V 1065.8784 H 0 Z"
         transform="matrix(0.33399347,0,0,0.33399347,-74.1875,-19)"
         clip-rule="evenodd"
         id="path35" />
    </clipPath>
    <clipPath
       clipPathUnits="userSpaceOnUse"
       id="clipPath36">
      <path
         d="M 0,0 H 2595.833 V 1065.8784 H 0 Z"
         transform="matrix(0.33399347,0,0,0.33399347,-367.01563,-19)"
         clip-rule="evenodd"
         id="path36" />
    </clipPath>
    <clipPath
       clipPathUnits="userSpaceOnUse"
       id="clipPath37">
      <path
         d="M 0,0 H 2595.833 V 1065.8784 H 0 Z"
         transform="matrix(0.33399347,0,0,0.33399347,-422.86914,-19)"
         clip-rule="evenodd"
         id="path37" />
    </clipPath>
    <clipPath
       clipPathUnits="userSpaceOnUse"
       id="clipPath38">
      <path
         d="M 0,0 H 2595.833 V 1065.8784 H 0 Z"
         transform="matrix(0.33399347,0,0,0.33399347,-683.64063,-19)"
         clip-rule="evenodd"
         id="path38" />
    </clipPath>
  </defs>
  <sodipodi:namedview
     id="namedview1"
     pagecolor="#ffffff"
     bordercolor="#000000"
     borderopacity="0.25"
     inkscape:showpageshadow="2"
     inkscape:pageopacity="0.0"
     inkscape:pagecheckerboard="0"
     inkscape:deskcolor="#d1d1d1">
    <inkscape:page
       x="0"
       y="0"
       inkscape:label="1"
       id="page1"
       width="830.71997"
       height="342.72"
       margin="0"
       bleed="0" />
  </sodipodi:namedview>
  <g
     id="g1"
     inkscape:groupmode="layer"
     inkscape:label="1">
    <path
       id="path1"
       d="M 0,0 H 867 V 357 H 0 Z"
       style="fill:#ffffff;fill-opacity:1;fill-rule:nonzero;stroke:none"
       transform="scale(0.95809292)"
       clip-path="url(#clipPath2)" />
    <path
       id="path3"
       d="m 12,42 h 260 v 90 H 12 Z"
       style="fill:#f5f5f5;fill-opacity:1;fill-rule:nonzero;stroke:#666666;stroke-width:1;stroke-linecap:butt;stroke-linejoin:miter;stroke-miterlimit:10;stroke-dasharray:none;stroke-opacity:1"
       transform="scale(0.95809292)"
       clip-path="url(#clipPath4)" />
    <text
       id="text4"
       xml:space="preserve"
       transform="matrix(0.95810252,0,0,0.95810252,37.00671,78.564407)"
       clip-path="url(#clipPath5)"><tspan
         style="font-variant:normal;font-weight:normal;font-size:20px;font-family:Helvetica;writing-mode:lr-tb;fill:#000000;fill-opacity:1;fill-rule:nonzero;stroke:none"
         x="0 16.660156 27.783203 38.90625 43.349609 48.90625 58.90625 64.462891 81.123047 92.246094 103.36914 113.36914 118.92578 125.58594 136.70898 146.70898 157.83203 164.49219 175.61523 185.61523 191.17188 195.61523"
         y="0"
         sodipodi:role="line"
         id="tspan4">Modify many records in</tspan></text>
    <text
       id="text5"
       xml:space="preserve"
       transform="matrix(0.95810252,0,0,0.95810252,93.444936,101.55887)"
       clip-path="url(#clipPath6)"><tspan
         style="font-variant:normal;font-weight:normal;font-size:20px;font-family:Helvetica;writing-mode:lr-tb;fill:#000000;fill-opacity:1;fill-rule:nonzero;stroke:none"
         x="0 16.660156 27.783203 38.90625 50.029297 61.152344 75.595703"
         y="0"
         sodipodi:role="line"
         id="tspan5">MongoDB</tspan></text>
    <path
       id="path7"
       d="m 302,42 h 260 v 90 H 302 Z"
       style="fill:#f8cecc;fill-opacity:1;fill-rule:nonzero;stroke:#b85450;stroke-width:1;stroke-linecap:butt;stroke-linejoin:miter;stroke-miterlimit:10;stroke-dasharray:none;stroke-opacity:1"
       transform="scale(0.95809292)"
       clip-path="url(#clipPath8)" />
    <text
       id="text8"
       xml:space="preserve"
       transform="matrix(0.95810252,0,0,0.95810252,293.52369,67.067176)"
       clip-path="url(#clipPath9)"><tspan
         style="font-variant:normal;font-weight:normal;font-size:20px;font-family:Helvetica;writing-mode:lr-tb;fill:#000000;fill-opacity:1;fill-rule:nonzero;stroke:none"
         x="0 11.123047 22.246094 33.369141 44.492188 50.048828 61.171875 72.294922 77.851562 88.974609 93.417969 97.861328 103.41797 110.07812 121.20117 131.20117 142.32422 148.98438 160.10742 170.10742 175.66406 181.2207 192.34375 197.90039 212.34375 223.4668 234.58984 245.71289"
         y="0"
         sodipodi:role="line"
         id="tspan8">Load up all records to Node,</tspan></text>
    <text
       id="text9"
       xml:space="preserve"
       transform="matrix(0.95810252,0,0,0.95810252,294.04765,90.061637)"
       clip-path="url(#clipPath10)"><tspan
         style="font-variant:normal;font-weight:normal;font-size:20px;font-family:Helvetica;writing-mode:lr-tb;fill:#000000;fill-opacity:1;fill-rule:nonzero;stroke:none"
         x="0 16.660156 27.783203 38.90625 43.349609 48.90625 58.90625 64.462891 75.585938 86.708984 97.832031 103.38867 114.51172 124.51172 130.06836 141.19141 152.31445 163.4375 168.99414 173.4375 184.56055 190.11719 201.24023 206.79688 211.24023 222.36328 233.48633 244.60938"
         y="0"
         sodipodi:role="line"
         id="tspan9">modify one by one in a loop,</tspan></text>
    <text
       id="text10"
       xml:space="preserve"
       transform="matrix(0.95810252,0,0,0.95810252,306.83233,113.0561)"
       clip-path="url(#clipPath11)"><tspan
         style="font-variant:normal;font-weight:normal;font-size:20px;font-family:Helvetica;writing-mode:lr-tb;fill:#000000;fill-opacity:1;fill-rule:nonzero;stroke:none"
         x="0 5.5566406 16.679688 27.802734 38.925781 44.482422 54.482422 65.605469 75.605469 86.728516 92.285156 103.4082 114.53125 124.53125 134.53125 140.08789 145.64453 156.76758 162.32422 178.98438 190.10742 201.23047 212.35352"
         y="0"
         sodipodi:role="line"
         id="tspan10">then save back to Mongo</tspan></text>
    <path
       id="path12"
       d="m 592.01001,42 h 260 v 90 h -260 z"
       style="fill:#d5e8d4;fill-opacity:1;fill-rule:nonzero;stroke:#82b366;stroke-width:1;stroke-linecap:butt;stroke-linejoin:miter;stroke-miterlimit:10;stroke-dasharray:none;stroke-opacity:1"
       transform="scale(0.95809292)"
       clip-path="url(#clipPath13)" />
    <text
       id="text13"
       xml:space="preserve"
       transform="matrix(0.95810252,0,0,0.95810252,585.41561,67.067176)"
       clip-path="url(#clipPath14)"><tspan
         style="font-variant:normal;font-weight:normal;font-size:20px;font-family:Helvetica;writing-mode:lr-tb;fill:#000000;fill-opacity:1;fill-rule:nonzero;stroke:none"
         x="0 18.525391 25.185547 29.628906 35.185547 46.308594 51.865234 62.988281 68.544922 79.667969 90.791016 101.91406 108.57422 118.57422 124.13086 129.6875 140.81055 151.93359 157.49023 163.04688 179.70703 190.83008 200.83008 211.95312"
         y="0"
         sodipodi:role="line"
         id="tspan13">Write a query that makes</tspan></text>
    <text
       id="text14"
       xml:space="preserve"
       transform="matrix(0.95810252,0,0,0.95810252,578.27475,90.061637)"
       clip-path="url(#clipPath15)"><tspan
         style="font-variant:normal;font-weight:normal;font-size:20px;font-family:Helvetica;writing-mode:lr-tb;fill:#000000;fill-opacity:1;fill-rule:nonzero;stroke:none"
         x="0 16.660156 27.783203 38.90625 50.029297 61.152344 66.708984 77.832031 88.955078 100.07812 111.20117 115.64453 126.76758 132.32422 137.88086 149.00391 160.12695 165.68359 176.80664 187.92969 199.05273 210.17578 215.73242 226.85547"
         y="0"
         sodipodi:role="line"
         id="tspan14">mongo handle the updates</tspan></text>
    <text
       id="text15"
       xml:space="preserve"
       transform="matrix(0.95810252,0,0,0.95810252,653.39598,113.0561)"
       clip-path="url(#clipPath16)"><tspan
         style="font-variant:normal;font-weight:normal;font-size:20px;font-family:Helvetica;writing-mode:lr-tb;fill:#000000;fill-opacity:1;fill-rule:nonzero;stroke:none"
         x="0 4.4433594 15.566406 21.123047 32.246094 38.90625 50.029297 61.152344 65.595703 70.039062"
         y="0"
         sodipodi:role="line"
         id="tspan15">internally</tspan></text>
    <path
       id="path17"
       d="m 12,142 h 260 v 90 H 12 Z"
       style="fill:#f5f5f5;fill-opacity:1;fill-rule:nonzero;stroke:#666666;stroke-width:1;stroke-linecap:butt;stroke-linejoin:miter;stroke-miterlimit:10;stroke-dasharray:none;stroke-opacity:1"
       transform="scale(0.95809292)"
       clip-path="url(#clipPath18)" />
    <g
       id="g18" />
    <g
       id="g19" />
    <text
       id="text19"
       xml:space="preserve"
       transform="matrix(0.95810252,0,0,0.95810252,36.452807,174.37466)"
       clip-path="url(#clipPath19)"><tspan
         style="font-variant:normal;font-weight:normal;font-size:20px;font-family:Helvetica;writing-mode:lr-tb;fill:#000000;fill-opacity:1;fill-rule:nonzero;stroke:none"
         x="0 11.123047 22.246094 33.369141 44.492188 50.048828 61.171875 72.294922 77.851562 88.974609 94.53125 100.08789 106.74805 117.87109 134.53125 140.08789 150.08789 161.21094 166.76758 172.32422 182.32422 186.76758 197.89062"
         y="0"
         sodipodi:role="line"
         id="tspan19">Load data from ﬂat ﬁles</tspan></text>
    <text
       id="text20"
       xml:space="preserve"
       transform="matrix(0.95810252,0,0,0.95810252,63.609025,197.36912)"
       clip-path="url(#clipPath20)"><tspan
         style="font-variant:normal;font-weight:normal;font-size:20px;font-family:Helvetica;writing-mode:lr-tb;fill:#000000;fill-opacity:1;fill-rule:nonzero;stroke:none"
         x="0 10 15.556641 26.679688 33.339844 44.462891 55.585938 61.142578 72.265625 83.388672 88.945312 94.501953 105.625 116.74805 122.30469 136.74805"
         y="0"
         sodipodi:role="line"
         id="tspan20">stored on the HD</tspan></text>
    <path
       id="path21"
       d="m 302,142 h 260 v 90 H 302 Z"
       style="fill:#f8cecc;fill-opacity:1;fill-rule:nonzero;stroke:#b85450;stroke-width:1;stroke-linecap:butt;stroke-linejoin:miter;stroke-miterlimit:10;stroke-dasharray:none;stroke-opacity:1"
       transform="scale(0.95809292)"
       clip-path="url(#clipPath22)" />
    <g
       id="g22" />
    <text
       id="text22"
       xml:space="preserve"
       transform="matrix(0.95810252,0,0,0.95810252,296.17344,174.37466)"
       clip-path="url(#clipPath23)"><tspan
         style="font-variant:normal;font-weight:normal;font-size:20px;font-family:Helvetica;writing-mode:lr-tb;fill:#000000;fill-opacity:1;fill-rule:nonzero;stroke:none"
         x="0 11.123047 22.246094 33.369141 44.492188 50.048828 55.605469 66.728516 77.851562 83.408203 93.408203 97.851562 108.97461 118.97461 124.53125 135.6543 146.77734 156.77734 167.90039 173.45703 179.01367 190.13672 196.79688 202.35352 213.47656 224.59961 234.59961"
         y="0"
         sodipodi:role="line"
         id="tspan22">Load the ﬁles once for each</tspan></text>
    <text
       id="text23"
       xml:space="preserve"
       transform="matrix(0.95810252,0,0,0.95810252,381.93859,197.36912)"
       clip-path="url(#clipPath24)"><tspan
         style="font-variant:normal;font-weight:normal;font-size:20px;font-family:Helvetica;writing-mode:lr-tb;fill:#000000;fill-opacity:1;fill-rule:nonzero;stroke:none"
         x="0 6.6601562 17.783203 28.90625 40.029297 51.152344 61.152344"
         y="0"
         sodipodi:role="line"
         id="tspan23">request</tspan></text>
    <path
       id="path25"
       d="m 592.01001,142 h 260 v 90 h -260 z"
       style="fill:#d5e8d4;fill-opacity:1;fill-rule:nonzero;stroke:#82b366;stroke-width:1;stroke-linecap:butt;stroke-linejoin:miter;stroke-miterlimit:10;stroke-dasharray:none;stroke-opacity:1"
       transform="scale(0.95809292)"
       clip-path="url(#clipPath26)" />
    <g
       id="g26" />
    <text
       id="text26"
       xml:space="preserve"
       transform="matrix(0.95810252,0,0,0.95810252,594.817,174.37466)"
       clip-path="url(#clipPath27)"><tspan
         style="font-variant:normal;font-weight:normal;font-size:20px;font-family:Helvetica;writing-mode:lr-tb;fill:#000000;fill-opacity:1;fill-rule:nonzero;stroke:none"
         x="0 11.123047 22.246094 33.369141 44.492188 50.048828 55.605469 66.728516 77.851562 83.408203 93.408203 97.851562 108.97461 118.97461 124.53125 135.6543 141.21094 146.76758 156.76758 167.89062 174.55078 184.55078 195.67383"
         y="0"
         sodipodi:role="line"
         id="tspan26">Load the ﬁles at server</tspan></text>
    <text
       id="text27"
       xml:space="preserve"
       transform="matrix(0.95810252,0,0,0.95810252,662.45305,197.36912)"
       clip-path="url(#clipPath28)"><tspan
         style="font-variant:normal;font-weight:normal;font-size:20px;font-family:Helvetica;writing-mode:lr-tb;fill:#000000;fill-opacity:1;fill-rule:nonzero;stroke:none"
         x="0 10 15.556641 26.679688 33.339844 38.896484 50.019531"
         y="0"
         sodipodi:role="line"
         id="tspan27">startup</tspan></text>
    <path
       id="path29"
       d="M 2,32 H 862.01001"
       style="fill:none;stroke:#000000;stroke-width:1;stroke-linecap:butt;stroke-linejoin:miter;stroke-miterlimit:10;stroke-dasharray:none;stroke-opacity:1"
       transform="matrix(0.95809292,0,0,0.95809292,0.47904646,0.47904646)"
       clip-path="url(#clipPath30)" />
    <path
       id="path31"
       d="M 288,12 V 352"
       style="fill:none;stroke:#000000;stroke-width:1;stroke-linecap:butt;stroke-linejoin:miter;stroke-miterlimit:10;stroke-dasharray:none;stroke-opacity:1"
       transform="matrix(0.95809292,0,0,0.95809292,0.47904646,0.47904646)"
       clip-path="url(#clipPath32)" />
    <path
       id="path33"
       d="M 579.01001,12 V 352"
       style="fill:none;stroke:#000000;stroke-width:1;stroke-linecap:butt;stroke-linejoin:miter;stroke-miterlimit:10;stroke-dasharray:none;stroke-opacity:1"
       transform="matrix(0.95809292,0,0,0.95809292,0.47904646,0.47904646)"
       clip-path="url(#clipPath34)" />
    <text
       id="text34"
       xml:space="preserve"
       transform="matrix(0.95810252,0,0,0.95810252,71.079231,18.203948)"
       clip-path="url(#clipPath35)"><tspan
         style="font-variant:normal;font-weight:normal;font-size:20px;font-family:Helvetica;writing-mode:lr-tb;fill:#000000;fill-opacity:1;fill-rule:nonzero;stroke:none"
         x="0 5.5566406 11.113281 16.669922 26.669922 37.792969 48.916016 54.472656 68.916016 80.039062 91.162109 96.71875 102.27539 107.83203 118.95508 124.51172 130.06836"
         y="0"
         sodipodi:role="line"
         id="tspan34">If you want to...</tspan></text>
    <text
       id="text35"
       xml:space="preserve"
       transform="matrix(0.95810252,0,0,0.95810252,351.6386,18.203948)"
       clip-path="url(#clipPath36)"><tspan
         style="font-variant:normal;font-weight:700;font-size:20px;font-family:Helvetica;writing-mode:lr-tb;fill:#000000;fill-opacity:1;fill-rule:nonzero;stroke:none"
         x="0 14.443359 26.660156 38.876953 43.632812"
         y="0"
         sodipodi:role="line"
         id="tspan35">Don't</tspan></text>
    <text
       id="text36"
       xml:space="preserve"
       transform="matrix(0.95810252,0,0,0.95810252,405.15199,18.203948)"
       clip-path="url(#clipPath37)"><tspan
         style="font-variant:normal;font-weight:normal;font-size:20px;font-family:Helvetica;writing-mode:lr-tb;fill:#000000;fill-opacity:1;fill-rule:nonzero;stroke:none"
         x="0 14.443359 25.566406 30.771484 42.988281 54.111328 58.554688 68.554688"
         y="0"
         sodipodi:role="line"
         id="tspan36">Do This!</tspan></text>
    <text
       id="text37"
       xml:space="preserve"
       transform="matrix(0.95810252,0,0,0.95810252,654.99781,18.203948)"
       clip-path="url(#clipPath38)"><tspan
         style="font-variant:normal;font-weight:700;font-size:20px;font-family:Helvetica;writing-mode:lr-tb;fill:#000000;fill-opacity:1;fill-rule:nonzero;stroke:none"
         x="0 11.123047 18.90625 30.029297 35.585938 47.802734 60.019531 65.576172"
         y="0"
         sodipodi:role="line"
         id="tspan37">Try This</tspan></text>
  </g>
</svg>
