<?xml version="1.0" encoding="UTF-8" standalone="no"?>
<!-- Created with Inkscape (http://www.inkscape.org/) -->

<svg
   version="1.1"
   id="svg1"
   width="473.28"
   height="408"
   viewBox="0 0 473.28 408"
   sodipodi:docname="node-17.pdf"
   xmlns:inkscape="http://www.inkscape.org/namespaces/inkscape"
   xmlns:sodipodi="http://sodipodi.sourceforge.net/DTD/sodipodi-0.dtd"
   xmlns="http://www.w3.org/2000/svg"
   xmlns:svg="http://www.w3.org/2000/svg">
  <defs
     id="defs1">
    <clipPath
       clipPathUnits="userSpaceOnUse"
       id="clipPath2">
      <path
         d="M 0,0 H 1479.1666 V 1272.5624 H 0 Z"
         transform="scale(0.33397184)"
         clip-rule="evenodd"
         id="path2" />
    </clipPath>
    <clipPath
       clipPathUnits="userSpaceOnUse"
       id="clipPath4">
      <path
         d="M 0,0 H 1479.1666 V 1269.5681 H 0 Z"
         transform="scale(0.33397184)"
         clip-rule="evenodd"
         id="path4" />
    </clipPath>
    <clipPath
       clipPathUnits="userSpaceOnUse"
       id="clipPath6">
      <path
         d="M 0,0 H 1479.1666 V 1269.5681 H 0 Z"
         transform="scale(0.33397184)"
         clip-rule="evenodd"
         id="path6" />
    </clipPath>
    <clipPath
       clipPathUnits="userSpaceOnUse"
       id="clipPath8">
      <path
         d="M 0,0 H 1479.1666 V 1269.5681 H 0 Z"
         transform="scale(0.33397184)"
         clip-rule="evenodd"
         id="path8" />
    </clipPath>
    <clipPath
       clipPathUnits="userSpaceOnUse"
       id="clipPath9">
      <path
         d="M 0,0 H 1479.1666 V 1269.5681 H 0 Z"
         transform="matrix(0.3339685,0,0,0.3339685,-284.85938,-83)"
         clip-rule="evenodd"
         id="path9" />
    </clipPath>
    <clipPath
       clipPathUnits="userSpaceOnUse"
       id="clipPath10">
      <path
         d="M 0,0 H 1479.1666 V 1269.5681 H 0 Z"
         transform="matrix(0.3339685,0,0,0.3339685,-274.87499,-24)"
         clip-rule="evenodd"
         id="path10" />
    </clipPath>
    <clipPath
       clipPathUnits="userSpaceOnUse"
       id="clipPath12">
      <path
         d="M 0,0 H 1479.1666 V 1269.5681 H 0 Z"
         transform="scale(0.33397184)"
         clip-rule="evenodd"
         id="path12" />
    </clipPath>
    <clipPath
       clipPathUnits="userSpaceOnUse"
       id="clipPath14">
      <path
         d="M 0,0 H 1479.1666 V 1269.5681 H 0 Z"
         transform="scale(0.33397184)"
         clip-rule="evenodd"
         id="path14" />
    </clipPath>
    <clipPath
       clipPathUnits="userSpaceOnUse"
       id="clipPath15">
      <path
         d="M 0,0 H 1479.1666 V 1269.5681 H 0 Z"
         transform="matrix(0.3339685,0,0,0.3339685,-284.85938,-223)"
         clip-rule="evenodd"
         id="path15" />
    </clipPath>
    <clipPath
       clipPathUnits="userSpaceOnUse"
       id="clipPath16">
      <path
         d="M 0,0 H 1479.1666 V 1269.5681 H 0 Z"
         transform="matrix(0.3339685,0,0,0.3339685,-274.87499,-164)"
         clip-rule="evenodd"
         id="path16" />
    </clipPath>
    <clipPath
       clipPathUnits="userSpaceOnUse"
       id="clipPath18">
      <path
         d="M 0,0 H 1479.1666 V 1269.5681 H 0 Z"
         transform="scale(0.33397184)"
         clip-rule="evenodd"
         id="path18" />
    </clipPath>
    <clipPath
       clipPathUnits="userSpaceOnUse"
       id="clipPath20">
      <path
         d="M 0,0 H 1479.1666 V 1269.5681 H 0 Z"
         transform="scale(0.33397184)"
         clip-rule="evenodd"
         id="path20" />
    </clipPath>
    <clipPath
       clipPathUnits="userSpaceOnUse"
       id="clipPath21">
      <path
         d="M 0,0 H 1479.1666 V 1269.5681 H 0 Z"
         transform="matrix(0.3339685,0,0,0.3339685,-284.85938,-367)"
         clip-rule="evenodd"
         id="path21" />
    </clipPath>
    <clipPath
       clipPathUnits="userSpaceOnUse"
       id="clipPath22">
      <path
         d="M 0,0 H 1479.1666 V 1269.5681 H 0 Z"
         transform="matrix(0.3339685,0,0,0.3339685,-274.87499,-308)"
         clip-rule="evenodd"
         id="path22" />
    </clipPath>
    <clipPath
       clipPathUnits="userSpaceOnUse"
       id="clipPath24">
      <path
         d="M 0,0 H 1479.1666 V 1269.5681 H 0 Z"
         transform="matrix(0.33397184,0,0,0.33397184,-0.49999999,-0.49999999)"
         clip-rule="evenodd"
         id="path24" />
    </clipPath>
    <clipPath
       clipPathUnits="userSpaceOnUse"
       id="clipPath26">
      <path
         d="M 0,0 H 1479.1666 V 1269.5681 H 0 Z"
         transform="matrix(0.33397184,0,0,0.33397184,-0.49999999,-0.49999999)"
         clip-rule="evenodd"
         id="path26" />
    </clipPath>
    <clipPath
       clipPathUnits="userSpaceOnUse"
       id="clipPath28">
      <path
         d="M 0,0 H 1479.1666 V 1269.5681 H 0 Z"
         transform="matrix(0.33397184,0,0,0.33397184,-0.49999999,-0.49999999)"
         clip-rule="evenodd"
         id="path28" />
    </clipPath>
    <clipPath
       clipPathUnits="userSpaceOnUse"
       id="clipPath30">
      <path
         d="M 0,0 H 1479.1666 V 1269.5681 H 0 Z"
         transform="matrix(0.33397184,0,0,0.33397184,-0.49999999,-0.49999999)"
         clip-rule="evenodd"
         id="path30" />
    </clipPath>
    <clipPath
       clipPathUnits="userSpaceOnUse"
       id="clipPath32">
      <path
         d="M 0,0 H 1479.1666 V 1269.5681 H 0 Z"
         transform="matrix(0.33397184,0,0,0.33397184,-0.49999999,-0.49999999)"
         clip-rule="evenodd"
         id="path32" />
    </clipPath>
    <clipPath
       clipPathUnits="userSpaceOnUse"
       id="clipPath34">
      <path
         d="M 0,0 H 1479.1666 V 1269.5681 H 0 Z"
         transform="matrix(0.33397184,0,0,0.33397184,-0.49999999,-0.49999999)"
         clip-rule="evenodd"
         id="path34" />
    </clipPath>
    <clipPath
       clipPathUnits="userSpaceOnUse"
       id="clipPath36">
      <path
         d="M 0,0 H 1479.1666 V 1269.5681 H 0 Z"
         transform="scale(0.33397184)"
         clip-rule="evenodd"
         id="path36" />
    </clipPath>
    <clipPath
       clipPathUnits="userSpaceOnUse"
       id="clipPath37">
      <path
         d="M 0,0 H 1479.1666 V 1269.5681 H 0 Z"
         transform="matrix(0.3339685,0,0,0.3339685,-29.3125,-211)"
         clip-rule="evenodd"
         id="path37" />
    </clipPath>
    <clipPath
       clipPathUnits="userSpaceOnUse"
       id="clipPath38">
      <path
         d="M 0,0 H 1479.1666 V 1269.5681 H 0 Z"
         transform="matrix(0.3339685,0,0,0.3339685,-21.53125,-235)"
         clip-rule="evenodd"
         id="path38" />
    </clipPath>
  </defs>
  <sodipodi:namedview
     id="namedview1"
     pagecolor="#ffffff"
     bordercolor="#000000"
     borderopacity="0.25"
     inkscape:showpageshadow="2"
     inkscape:pageopacity="0.0"
     inkscape:pagecheckerboard="0"
     inkscape:deskcolor="#d1d1d1">
    <inkscape:page
       x="0"
       y="0"
       inkscape:label="1"
       id="page1"
       width="473.28"
       height="408"
       margin="0"
       bleed="0" />
  </sodipodi:namedview>
  <g
     id="g1"
     inkscape:groupmode="layer"
     inkscape:label="1">
    <path
       id="path1"
       d="M 0,0 H 494 V 425 H 0 Z"
       style="fill:#ffffff;fill-opacity:1;fill-rule:nonzero;stroke:none"
       transform="scale(0.95816457)"
       clip-path="url(#clipPath2)" />
    <path
       id="path3"
       d="M 191,1 H 491 V 421 H 191 Z"
       style="fill:#d5e8d4;fill-opacity:1;fill-rule:nonzero;stroke:#82b366;stroke-width:1;stroke-linecap:butt;stroke-linejoin:miter;stroke-miterlimit:10;stroke-dasharray:none;stroke-opacity:1"
       transform="scale(0.95816457)"
       clip-path="url(#clipPath4)" />
    <path
       id="path5"
       d="m 211,31 h 260 v 90 H 211 Z"
       style="fill:#ffffff;fill-opacity:1;fill-rule:nonzero;stroke:#000000;stroke-width:1;stroke-linecap:butt;stroke-linejoin:miter;stroke-miterlimit:10;stroke-dasharray:none;stroke-opacity:1"
       transform="scale(0.95816457)"
       clip-path="url(#clipPath6)" />
    <path
       id="path7"
       d="m 241,51 h 200 v 50 H 241 Z"
       style="fill:#dae8fc;fill-opacity:1;fill-rule:nonzero;stroke:#6c8ebf;stroke-width:1;stroke-linecap:butt;stroke-linejoin:miter;stroke-miterlimit:10;stroke-dasharray:none;stroke-opacity:1"
       transform="scale(0.95816457)"
       clip-path="url(#clipPath8)" />
    <text
       id="text8"
       xml:space="preserve"
       transform="matrix(0.95817417,0,0,0.95817417,272.9449,79.528456)"
       clip-path="url(#clipPath9)"><tspan
         style="font-variant:normal;font-weight:normal;font-size:20px;font-family:Helvetica;writing-mode:lr-tb;fill:#000000;fill-opacity:1;fill-rule:nonzero;stroke:none"
         x="0 14.443359 25.566406 36.689453 47.8125 53.369141 66.708984 77.832031 84.492188 94.492188 105.61523"
         y="0"
         sodipodi:role="line"
         id="tspan8">Node Server</tspan></text>
    <text
       id="text9"
       xml:space="preserve"
       transform="matrix(0.95817417,0,0,0.95817417,263.37812,22.99618)"
       clip-path="url(#clipPath10)"><tspan
         style="font-variant:normal;font-weight:700;font-size:20px;font-family:Helvetica;writing-mode:lr-tb;fill:#000000;fill-opacity:1;fill-rule:nonzero;stroke:none"
         x="0 13.339844 18.896484 31.113281 43.330078 48.886719 60.009766 65.566406 77.783203 90 97.783203 108.90625 120.0293"
         y="0"
         sodipodi:role="line"
         id="tspan9">Single Thread</tspan></text>
    <path
       id="path11"
       d="m 211,171 h 260 v 90 H 211 Z"
       style="fill:#ffffff;fill-opacity:1;fill-rule:nonzero;stroke:#000000;stroke-width:1;stroke-linecap:butt;stroke-linejoin:miter;stroke-miterlimit:10;stroke-dasharray:none;stroke-opacity:1"
       transform="scale(0.95816457)"
       clip-path="url(#clipPath12)" />
    <path
       id="path13"
       d="m 241,191 h 200 v 50 H 241 Z"
       style="fill:#dae8fc;fill-opacity:1;fill-rule:nonzero;stroke:#6c8ebf;stroke-width:1;stroke-linecap:butt;stroke-linejoin:miter;stroke-miterlimit:10;stroke-dasharray:none;stroke-opacity:1"
       transform="scale(0.95816457)"
       clip-path="url(#clipPath14)" />
    <text
       id="text14"
       xml:space="preserve"
       transform="matrix(0.95817417,0,0,0.95817417,272.9449,213.67284)"
       clip-path="url(#clipPath15)"><tspan
         style="font-variant:normal;font-weight:normal;font-size:20px;font-family:Helvetica;writing-mode:lr-tb;fill:#000000;fill-opacity:1;fill-rule:nonzero;stroke:none"
         x="0 14.443359 25.566406 36.689453 47.8125 53.369141 66.708984 77.832031 84.492188 94.492188 105.61523"
         y="0"
         sodipodi:role="line"
         id="tspan14">Node Server</tspan></text>
    <text
       id="text15"
       xml:space="preserve"
       transform="matrix(0.95817417,0,0,0.95817417,263.37812,157.14056)"
       clip-path="url(#clipPath16)"><tspan
         style="font-variant:normal;font-weight:700;font-size:20px;font-family:Helvetica;writing-mode:lr-tb;fill:#000000;fill-opacity:1;fill-rule:nonzero;stroke:none"
         x="0 13.339844 18.896484 31.113281 43.330078 48.886719 60.009766 65.566406 77.783203 90 97.783203 108.90625 120.0293"
         y="0"
         sodipodi:role="line"
         id="tspan15">Single Thread</tspan></text>
    <path
       id="path17"
       d="m 211,315 h 260 v 90 H 211 Z"
       style="fill:#ffffff;fill-opacity:1;fill-rule:nonzero;stroke:#000000;stroke-width:1;stroke-linecap:butt;stroke-linejoin:miter;stroke-miterlimit:10;stroke-dasharray:none;stroke-opacity:1"
       transform="scale(0.95816457)"
       clip-path="url(#clipPath18)" />
    <path
       id="path19"
       d="m 241,335 h 200 v 50 H 241 Z"
       style="fill:#dae8fc;fill-opacity:1;fill-rule:nonzero;stroke:#6c8ebf;stroke-width:1;stroke-linecap:butt;stroke-linejoin:miter;stroke-miterlimit:10;stroke-dasharray:none;stroke-opacity:1"
       transform="scale(0.95816457)"
       clip-path="url(#clipPath20)" />
    <text
       id="text20"
       xml:space="preserve"
       transform="matrix(0.95817417,0,0,0.95817417,272.9449,351.64992)"
       clip-path="url(#clipPath21)"><tspan
         style="font-variant:normal;font-weight:normal;font-size:20px;font-family:Helvetica;writing-mode:lr-tb;fill:#000000;fill-opacity:1;fill-rule:nonzero;stroke:none"
         x="0 14.443359 25.566406 36.689453 47.8125 53.369141 66.708984 77.832031 84.492188 94.492188 105.61523"
         y="0"
         sodipodi:role="line"
         id="tspan20">Node Server</tspan></text>
    <text
       id="text21"
       xml:space="preserve"
       transform="matrix(0.95817417,0,0,0.95817417,263.37812,295.11764)"
       clip-path="url(#clipPath22)"><tspan
         style="font-variant:normal;font-weight:700;font-size:20px;font-family:Helvetica;writing-mode:lr-tb;fill:#000000;fill-opacity:1;fill-rule:nonzero;stroke:none"
         x="0 13.339844 18.896484 31.113281 43.330078 48.886719 60.009766 65.566406 77.783203 90 97.783203 108.90625 120.0293"
         y="0"
         sodipodi:role="line"
         id="tspan21">Single Thread</tspan></text>
    <path
       id="path23"
       d="m 121,216 h 45 V 76 h 34.89999"
       style="fill:none;stroke:#000000;stroke-width:1;stroke-linecap:butt;stroke-linejoin:miter;stroke-miterlimit:10;stroke-dasharray:none;stroke-opacity:1"
       transform="matrix(0.95816457,0,0,0.95816457,0.47908228,0.47908228)"
       clip-path="url(#clipPath24)" />
    <path
       id="path25"
       d="m 207.64999,76 -9,4.5 2.25,-4.5 -2.25,-4.5 z"
       style="fill:#000000;fill-opacity:1;fill-rule:nonzero;stroke:#000000;stroke-width:1;stroke-linecap:butt;stroke-linejoin:miter;stroke-miterlimit:10;stroke-dasharray:none;stroke-opacity:1"
       transform="matrix(0.95816457,0,0,0.95816457,0.47908228,0.47908228)"
       clip-path="url(#clipPath26)" />
    <path
       id="path27"
       d="m 121,216 h 79.89999"
       style="fill:none;stroke:#000000;stroke-width:1;stroke-linecap:butt;stroke-linejoin:miter;stroke-miterlimit:10;stroke-dasharray:none;stroke-opacity:1"
       transform="matrix(0.95816457,0,0,0.95816457,0.47908228,0.47908228)"
       clip-path="url(#clipPath28)" />
    <path
       id="path29"
       d="m 207.64999,216 -9,4.5 2.25,-4.5 -2.25,-4.5 z"
       style="fill:#000000;fill-opacity:1;fill-rule:nonzero;stroke:#000000;stroke-width:1;stroke-linecap:butt;stroke-linejoin:miter;stroke-miterlimit:10;stroke-dasharray:none;stroke-opacity:1"
       transform="matrix(0.95816457,0,0,0.95816457,0.47908228,0.47908228)"
       clip-path="url(#clipPath30)" />
    <path
       id="path31"
       d="m 121,216 h 45 v 144 h 34.89999"
       style="fill:none;stroke:#000000;stroke-width:1;stroke-linecap:butt;stroke-linejoin:miter;stroke-miterlimit:10;stroke-dasharray:none;stroke-opacity:1"
       transform="matrix(0.95816457,0,0,0.95816457,0.47908228,0.47908228)"
       clip-path="url(#clipPath32)" />
    <path
       id="path33"
       d="m 207.64999,360 -9,4.5 2.25,-4.5 -2.25,-4.5 z"
       style="fill:#000000;fill-opacity:1;fill-rule:nonzero;stroke:#000000;stroke-width:1;stroke-linecap:butt;stroke-linejoin:miter;stroke-miterlimit:10;stroke-dasharray:none;stroke-opacity:1"
       transform="matrix(0.95816457,0,0,0.95816457,0.47908228,0.47908228)"
       clip-path="url(#clipPath34)" />
    <path
       id="path35"
       d="m 1,186 h 120 v 60 H 1 Z"
       style="fill:#e1d5e7;fill-opacity:1;fill-rule:nonzero;stroke:#9673a6;stroke-width:1;stroke-linecap:butt;stroke-linejoin:miter;stroke-miterlimit:10;stroke-dasharray:none;stroke-opacity:1"
       transform="scale(0.95816457)"
       clip-path="url(#clipPath36)" />
    <text
       id="text36"
       xml:space="preserve"
       transform="matrix(0.95817417,0,0,0.95817417,28.08648,202.17475)"
       clip-path="url(#clipPath37)"><tspan
         style="font-variant:normal;font-weight:normal;font-size:20px;font-family:Helvetica;writing-mode:lr-tb;fill:#000000;fill-opacity:1;fill-rule:nonzero;stroke:none"
         x="0 14.443359 18.886719 30.009766 40.009766 45.566406 56.689453"
         y="0"
         sodipodi:role="line"
         id="tspan36">Cluster</tspan></text>
    <text
       id="text37"
       xml:space="preserve"
       transform="matrix(0.95817417,0,0,0.95817417,20.630688,225.17093)"
       clip-path="url(#clipPath38)"><tspan
         style="font-variant:normal;font-weight:normal;font-size:20px;font-family:Helvetica;writing-mode:lr-tb;fill:#000000;fill-opacity:1;fill-rule:nonzero;stroke:none"
         x="0 16.660156 27.783203 38.90625 50.029297 61.152344 72.275391"
         y="0"
         sodipodi:role="line"
         id="tspan37">Manager</tspan></text>
  </g>
</svg>
