<?xml version="1.0" encoding="UTF-8" standalone="no"?>
<!-- Created with Inkscape (http://www.inkscape.org/) -->

<svg
   version="1.1"
   id="svg1"
   width="780.15997"
   height="266.56"
   viewBox="0 0 780.15997 266.56"
   sodipodi:docname="node-11.pdf"
   xmlns:inkscape="http://www.inkscape.org/namespaces/inkscape"
   xmlns:sodipodi="http://sodipodi.sourceforge.net/DTD/sodipodi-0.dtd"
   xmlns="http://www.w3.org/2000/svg"
   xmlns:svg="http://www.w3.org/2000/svg">
  <defs
     id="defs1">
    <clipPath
       clipPathUnits="userSpaceOnUse"
       id="clipPath2">
      <path
         d="M 0,0 H 2437.5 V 832.46313 H 0 Z"
         transform="scale(0.33394871)"
         clip-rule="evenodd"
         id="path2" />
    </clipPath>
    <clipPath
       clipPathUnits="userSpaceOnUse"
       id="clipPath4">
      <path
         d="M 0,0 H 2437.5 V 829.46869 H 0 Z"
         transform="matrix(0.33394871,0,0,0.33394871,-0.49999999,-0.49999999)"
         clip-rule="evenodd"
         id="path4" />
    </clipPath>
    <clipPath
       clipPathUnits="userSpaceOnUse"
       id="clipPath5">
      <path
         d="M 0,0 H 2437.5 V 829.46869 H 0 Z"
         transform="matrix(0.33394536,0,0,0.33394536,-3,-57)"
         clip-rule="evenodd"
         id="path5" />
    </clipPath>
    <clipPath
       clipPathUnits="userSpaceOnUse"
       id="clipPath6">
      <path
         d="M 0,0 H 2437.5 V 829.46869 H 0 Z"
         transform="matrix(0.33394536,0,0,0.33394536,-3,-80)"
         clip-rule="evenodd"
         id="path6" />
    </clipPath>
    <clipPath
       clipPathUnits="userSpaceOnUse"
       id="clipPath7">
      <path
         d="M 0,0 H 2437.5 V 829.46869 H 0 Z"
         transform="matrix(0.33394536,0,0,0.33394536,-3,-103)"
         clip-rule="evenodd"
         id="path7" />
    </clipPath>
    <clipPath
       clipPathUnits="userSpaceOnUse"
       id="clipPath8">
      <path
         d="M 0,0 H 2437.5 V 829.46869 H 0 Z"
         transform="matrix(0.33394536,0,0,0.33394536,-3,-126)"
         clip-rule="evenodd"
         id="path8" />
    </clipPath>
    <clipPath
       clipPathUnits="userSpaceOnUse"
       id="clipPath9">
      <path
         d="M 0,0 H 2437.5 V 829.46869 H 0 Z"
         transform="matrix(0.33394536,0,0,0.33394536,-3,-148)"
         clip-rule="evenodd"
         id="path9" />
    </clipPath>
    <clipPath
       clipPathUnits="userSpaceOnUse"
       id="clipPath10">
      <path
         d="M 0,0 H 2437.5 V 829.46869 H 0 Z"
         transform="matrix(0.33394536,0,0,0.33394536,-3,-171)"
         clip-rule="evenodd"
         id="path10" />
    </clipPath>
    <clipPath
       clipPathUnits="userSpaceOnUse"
       id="clipPath11">
      <path
         d="M 0,0 H 2437.5 V 829.46869 H 0 Z"
         transform="matrix(0.33394536,0,0,0.33394536,-43.140625,-21)"
         clip-rule="evenodd"
         id="path11" />
    </clipPath>
    <clipPath
       clipPathUnits="userSpaceOnUse"
       id="clipPath13">
      <path
         d="M 0,0 H 2437.5 V 829.46869 H 0 Z"
         transform="matrix(0.33394871,0,0,0.33394871,-0.49999999,-0.49999999)"
         clip-rule="evenodd"
         id="path13" />
    </clipPath>
    <clipPath
       clipPathUnits="userSpaceOnUse"
       id="clipPath14">
      <path
         d="M 0,0 H 2437.5 V 829.46869 H 0 Z"
         transform="matrix(0.33394536,0,0,0.33394536,-533.92188,-19)"
         clip-rule="evenodd"
         id="path14" />
    </clipPath>
    <clipPath
       clipPathUnits="userSpaceOnUse"
       id="clipPath16">
      <path
         d="M 0,0 H 2437.5 V 829.46869 H 0 Z"
         transform="matrix(0.33394871,0,0,0.33394871,-0.49999999,-0.49999999)"
         clip-rule="evenodd"
         id="path16" />
    </clipPath>
    <clipPath
       clipPathUnits="userSpaceOnUse"
       id="clipPath17">
      <path
         d="M 0,0 H 2437.5 V 829.46869 H 0 Z"
         transform="matrix(0.33394536,0,0,0.33394536,-467.78125,-78.999999)"
         clip-rule="evenodd"
         id="path17" />
    </clipPath>
    <clipPath
       clipPathUnits="userSpaceOnUse"
       id="clipPath19">
      <path
         d="M 0,0 H 2437.5 V 829.46869 H 0 Z"
         transform="matrix(0.33394871,0,0,0.33394871,-0.49999999,-0.49999999)"
         clip-rule="evenodd"
         id="path19" />
    </clipPath>
    <clipPath
       clipPathUnits="userSpaceOnUse"
       id="clipPath20">
      <path
         d="M 0,0 H 2437.5 V 829.46869 H 0 Z"
         transform="matrix(0.33394536,0,0,0.33394536,-598.3125,-78.999999)"
         clip-rule="evenodd"
         id="path20" />
    </clipPath>
    <clipPath
       clipPathUnits="userSpaceOnUse"
       id="clipPath22">
      <path
         d="M 0,0 H 2437.5 V 829.46869 H 0 Z"
         transform="matrix(0.33394871,0,0,0.33394871,-0.49999999,-0.49999999)"
         clip-rule="evenodd"
         id="path22" />
    </clipPath>
    <clipPath
       clipPathUnits="userSpaceOnUse"
       id="clipPath23">
      <path
         d="M 0,0 H 2437.5 V 829.46869 H 0 Z"
         transform="matrix(0.33394536,0,0,0.33394536,-708.25,-78.999999)"
         clip-rule="evenodd"
         id="path23" />
    </clipPath>
    <clipPath
       clipPathUnits="userSpaceOnUse"
       id="clipPath25">
      <path
         d="M 0,0 H 2437.5 V 829.46869 H 0 Z"
         transform="matrix(0.33394871,0,0,0.33394871,-0.49999999,-0.49999999)"
         clip-rule="evenodd"
         id="path25" />
    </clipPath>
    <clipPath
       clipPathUnits="userSpaceOnUse"
       id="clipPath26">
      <path
         d="M 0,0 H 2437.5 V 829.46869 H 0 Z"
         transform="matrix(0.33394536,0,0,0.33394536,-438.21875,-149)"
         clip-rule="evenodd"
         id="path26" />
    </clipPath>
    <clipPath
       clipPathUnits="userSpaceOnUse"
       id="clipPath28">
      <path
         d="M 0,0 H 2437.5 V 829.46869 H 0 Z"
         transform="matrix(0.33394871,0,0,0.33394871,-0.49999999,-0.49999999)"
         clip-rule="evenodd"
         id="path28" />
    </clipPath>
    <clipPath
       clipPathUnits="userSpaceOnUse"
       id="clipPath29">
      <path
         d="M 0,0 H 2437.5 V 829.46869 H 0 Z"
         transform="matrix(0.33394536,0,0,0.33394536,-592.51562,-149)"
         clip-rule="evenodd"
         id="path29" />
    </clipPath>
    <clipPath
       clipPathUnits="userSpaceOnUse"
       id="clipPath31">
      <path
         d="M 0,0 H 2437.5 V 829.46869 H 0 Z"
         transform="matrix(0,0.33394871,-0.33394871,0,392.99999,41)"
         clip-rule="evenodd"
         id="path31" />
    </clipPath>
    <clipPath
       clipPathUnits="userSpaceOnUse"
       id="clipPath33">
      <path
         d="M 0,0 H 2437.5 V 829.46869 H 0 Z"
         transform="matrix(0,0.33394871,-0.33394871,0,828.01,-394.00999)"
         clip-rule="evenodd"
         id="path33" />
    </clipPath>
    <clipPath
       clipPathUnits="userSpaceOnUse"
       id="clipPath34">
      <path
         d="M 0,0 H 2437.5 V 829.46869 H 0 Z"
         transform="matrix(0.33394536,0,0,0.33394536,-146.04688,-248)"
         clip-rule="evenodd"
         id="path34" />
    </clipPath>
    <clipPath
       clipPathUnits="userSpaceOnUse"
       id="clipPath35">
      <path
         d="M 0,0 H 2437.5 V 829.46869 H 0 Z"
         transform="matrix(0.33394536,0,0,0.33394536,-121.57813,-271)"
         clip-rule="evenodd"
         id="path35" />
    </clipPath>
    <clipPath
       clipPathUnits="userSpaceOnUse"
       id="clipPath36">
      <path
         d="M 0,0 H 2437.5 V 829.46869 H 0 Z"
         transform="matrix(0.33394536,0,0,0.33394536,-574.17188,-248)"
         clip-rule="evenodd"
         id="path36" />
    </clipPath>
    <clipPath
       clipPathUnits="userSpaceOnUse"
       id="clipPath37">
      <path
         d="M 0,0 H 2437.5 V 829.46869 H 0 Z"
         transform="matrix(0.33394536,0,0,0.33394536,-558.32813,-271)"
         clip-rule="evenodd"
         id="path37" />
    </clipPath>
  </defs>
  <sodipodi:namedview
     id="namedview1"
     pagecolor="#ffffff"
     bordercolor="#000000"
     borderopacity="0.25"
     inkscape:showpageshadow="2"
     inkscape:pageopacity="0.0"
     inkscape:pagecheckerboard="0"
     inkscape:deskcolor="#d1d1d1">
    <inkscape:page
       x="0"
       y="0"
       inkscape:label="1"
       id="page1"
       width="780.15997"
       height="266.56"
       margin="0"
       bleed="0" />
  </sodipodi:namedview>
  <g
     id="g1"
     inkscape:groupmode="layer"
     inkscape:label="1">
    <path
       id="path1"
       d="M 0,0 H 814 V 278 H 0 Z"
       style="fill:#ffffff;fill-opacity:1;fill-rule:nonzero;stroke:none"
       transform="scale(0.95823094)"
       clip-path="url(#clipPath2)" />
    <path
       id="path3"
       d="M 1,27 H 351 V 187 H 1 Z"
       style="fill:#ffffff;fill-opacity:1;fill-rule:nonzero;stroke:#000000;stroke-width:1;stroke-linecap:butt;stroke-linejoin:miter;stroke-miterlimit:10;stroke-dasharray:none;stroke-opacity:1"
       transform="matrix(0.95823094,0,0,0.95823094,0.47911546,0.47911546)"
       clip-path="url(#clipPath4)" />
    <text
       id="text4"
       xml:space="preserve"
       transform="matrix(0.95824054,0,0,0.95824054,2.8747216,54.619711)"
       clip-path="url(#clipPath5)"><tspan
         style="font-variant:normal;font-weight:normal;font-size:19px;font-family:Helvetica;writing-mode:lr-tb;fill:#000000;fill-opacity:1;fill-rule:nonzero;stroke:none"
         x="0"
         y="0"
         id="tspan4">{</tspan></text>
    <text
       id="text5"
       xml:space="preserve"
       transform="matrix(0.95824054,0,0,0.95824054,2.8747216,76.659243)"
       clip-path="url(#clipPath6)"><tspan
         style="font-variant:normal;font-weight:normal;font-size:19px;font-family:Helvetica;writing-mode:lr-tb;fill:#000000;fill-opacity:1;fill-rule:nonzero;stroke:none"
         x="0 5.2788086 10.557617 17.302246 27.869141 32.090332 42.657227 49.401855 54.680664 61.425293 71.992188 82.559082 93.125977 103.69287 114.25977 123.75977 134.32666 144.89355 155.46045 164.96045 175.52734 186.09424 196.66113 207.22803 217.79492 228.36182 238.92871 249.49561 260.0625 270.62939 275.9082 286.4751 297.04199 306.54199 313.28662"
         y="0"
         sodipodi:role="line"
         id="tspan5">  &quot;_id&quot;:&quot;5a85dc351cd843163727f63c&quot;,</tspan></text>
    <text
       id="text6"
       xml:space="preserve"
       transform="matrix(0.95824054,0,0,0.95824054,2.8747216,98.698775)"
       clip-path="url(#clipPath7)"><tspan
         style="font-variant:normal;font-weight:normal;font-size:19px;font-family:Helvetica;writing-mode:lr-tb;fill:#000000;fill-opacity:1;fill-rule:nonzero;stroke:none"
         x="0 5.2788086 10.557617 17.302246 27.869141 38.436035 49.00293 59.569824 63.791016 74.35791 79.636719 90.203613 96.948242 102.22705 108.97168 118.1377 127.30371 137.87061 148.4375 159.00439 169.57129 178.7373 189.3042 199.87109 210.43799 221.00488 231.57178 242.13867 252.70557 263.27246 273.83936 284.40625 294.97314 305.54004 316.10693 326.67383 333.41846"
         y="0"
         sodipodi:role="line"
         id="tspan6">  &quot;googleId&quot;:&quot;111739110062406498094&quot;,</tspan></text>
    <text
       id="text7"
       xml:space="preserve"
       transform="matrix(0.95824054,0,0,0.95824054,2.8747216,120.73831)"
       clip-path="url(#clipPath8)"><tspan
         style="font-variant:normal;font-weight:normal;font-size:19px;font-family:Helvetica;writing-mode:lr-tb;fill:#000000;fill-opacity:1;fill-rule:nonzero;stroke:none"
         x="0 5.2788086 10.557617 17.302246 27.869141 32.090332 41.590332 52.157227 56.378418 66.945312 76.445312 90.166504 100.7334 116.56055 127.12744 133.87207 139.15088 145.89551 158.56836 174.39551 184.9624 189.18359 193.40479 202.90479 208.18359 221.90479 232.47168 241.97168 248.71631"
         y="0"
         sodipodi:role="line"
         id="tspan7">  &quot;displayName&quot;:&quot;Emaily Dev&quot;,</tspan></text>
    <text
       id="text8"
       xml:space="preserve"
       transform="matrix(0.95824054,0,0,0.95824054,2.8747216,141.8196)"
       clip-path="url(#clipPath9)"><tspan
         style="font-variant:normal;font-weight:normal;font-size:19px;font-family:Helvetica;writing-mode:lr-tb;fill:#000000;fill-opacity:1;fill-rule:nonzero;stroke:none"
         x="0 5.2788086 10.557617 17.302246 27.869141 38.436035 47.936035 54.680664 59.959473"
         y="0"
         sodipodi:role="line"
         id="tspan8">  &quot;__v&quot;:0</tspan></text>
    <text
       id="text9"
       xml:space="preserve"
       transform="matrix(0.95824054,0,0,0.95824054,2.8747216,163.85913)"
       clip-path="url(#clipPath10)"><tspan
         style="font-variant:normal;font-weight:normal;font-size:19px;font-family:Helvetica;writing-mode:lr-tb;fill:#000000;fill-opacity:1;fill-rule:nonzero;stroke:none"
         x="0"
         y="0"
         id="tspan9">}</tspan></text>
    <text
       id="text10"
       xml:space="preserve"
       transform="matrix(0.95824054,0,0,0.95824054,41.339096,20.123051)"
       clip-path="url(#clipPath11)"><tspan
         style="font-variant:normal;font-weight:700;font-size:19px;font-family:Helvetica;writing-mode:lr-tb;fill:#000000;fill-opacity:1;fill-rule:nonzero;stroke:none"
         x="0 10.566895 23.239746 38.018555 51.739746 57.018555 70.739746 81.306641 92.912598 100.30664 110.87354 121.44043 132.00732 143.61328 149.94043 160.50732 166.83447 172.11328 183.71924 195.3252 200.604 212.20996 218.53711 223.81592 239.64307 251.24902 262.85498 273.42188"
         y="0"
         sodipodi:role="line"
         id="tspan10">JSON Representation of Model</tspan></text>
    <path
       id="path12"
       d="M 411,32 H 811 V 187 H 411 Z"
       style="fill:#ffffff;fill-opacity:1;fill-rule:nonzero;stroke:#000000;stroke-width:1;stroke-linecap:butt;stroke-linejoin:miter;stroke-miterlimit:10;stroke-dasharray:none;stroke-opacity:1"
       transform="matrix(0.95823094,0,0,0.95823094,0.47911546,0.47911546)"
       clip-path="url(#clipPath13)" />
    <text
       id="text13"
       xml:space="preserve"
       transform="matrix(0.95824054,0,0,0.95824054,511.62559,18.20657)"
       clip-path="url(#clipPath14)"><tspan
         style="font-variant:normal;font-weight:700;font-size:19px;font-family:Helvetica;writing-mode:lr-tb;fill:#000000;fill-opacity:1;fill-rule:nonzero;stroke:none"
         x="0 15.827148 27.433105 39.039062 50.64502 62.250977 73.856934 84.423828 94.990723 100.26953 116.09668 127.70264 139.30859 149.87549"
         y="0"
         sodipodi:role="line"
         id="tspan13">Mongoose Model</tspan></text>
    <path
       id="path15"
       d="m 421,42 h 120 v 60 H 421 Z"
       style="fill:#ffffff;fill-opacity:1;fill-rule:nonzero;stroke:#000000;stroke-width:1;stroke-linecap:butt;stroke-linejoin:miter;stroke-miterlimit:10;stroke-dasharray:none;stroke-opacity:1"
       transform="matrix(0.95823094,0,0,0.95823094,0.47911546,0.47911546)"
       clip-path="url(#clipPath16)" />
    <text
       id="text16"
       xml:space="preserve"
       transform="matrix(0.95824054,0,0,0.95824054,448.24696,75.701002)"
       clip-path="url(#clipPath17)"><tspan
         style="font-variant:normal;font-weight:normal;font-size:19px;font-family:Helvetica;writing-mode:lr-tb;fill:#000000;fill-opacity:1;fill-rule:nonzero;stroke:none"
         x="0 10.566895 21.133789"
         y="0"
         sodipodi:role="line"
         id="tspan16">get</tspan></text>
    <path
       id="path18"
       d="m 551.01001,42 h 120 v 60 h -120 z"
       style="fill:#ffffff;fill-opacity:1;fill-rule:nonzero;stroke:#000000;stroke-width:1;stroke-linecap:butt;stroke-linejoin:miter;stroke-miterlimit:10;stroke-dasharray:none;stroke-opacity:1"
       transform="matrix(0.95823094,0,0,0.95823094,0.47911546,0.47911546)"
       clip-path="url(#clipPath19)" />
    <text
       id="text19"
       xml:space="preserve"
       transform="matrix(0.95824054,0,0,0.95824054,573.32729,75.701002)"
       clip-path="url(#clipPath20)"><tspan
         style="font-variant:normal;font-weight:normal;font-size:19px;font-family:Helvetica;writing-mode:lr-tb;fill:#000000;fill-opacity:1;fill-rule:nonzero;stroke:none"
         x="0 9.5 20.066895"
         y="0"
         sodipodi:role="line"
         id="tspan19">set</tspan></text>
    <path
       id="path21"
       d="m 681.01001,42 h 120 v 60 h -120 z"
       style="fill:#ffffff;fill-opacity:1;fill-rule:nonzero;stroke:#000000;stroke-width:1;stroke-linecap:butt;stroke-linejoin:miter;stroke-miterlimit:10;stroke-dasharray:none;stroke-opacity:1"
       transform="matrix(0.95823094,0,0,0.95823094,0.47911546,0.47911546)"
       clip-path="url(#clipPath22)" />
    <text
       id="text22"
       xml:space="preserve"
       transform="matrix(0.95824054,0,0,0.95824054,678.67386,75.701002)"
       clip-path="url(#clipPath23)"><tspan
         style="font-variant:normal;font-weight:normal;font-size:19px;font-family:Helvetica;writing-mode:lr-tb;fill:#000000;fill-opacity:1;fill-rule:nonzero;stroke:none"
         x="0 9.5 20.066895 24.288086 28.509277 39.076172 49.643066 54.921875"
         y="0"
         sodipodi:role="line"
         id="tspan22">validate</tspan></text>
    <path
       id="path24"
       d="m 421,112 h 120 v 60 H 421 Z"
       style="fill:#ffffff;fill-opacity:1;fill-rule:nonzero;stroke:#000000;stroke-width:1;stroke-linecap:butt;stroke-linejoin:miter;stroke-miterlimit:10;stroke-dasharray:none;stroke-opacity:1"
       transform="matrix(0.95823094,0,0,0.95823094,0.47911546,0.47911546)"
       clip-path="url(#clipPath25)" />
    <g
       id="g25" />
    <text
       id="text25"
       xml:space="preserve"
       transform="matrix(0.95824054,0,0,0.95824054,419.91897,142.77784)"
       clip-path="url(#clipPath26)"><tspan
         style="font-variant:normal;font-weight:normal;font-size:19px;font-family:Helvetica;writing-mode:lr-tb;fill:#000000;fill-opacity:1;fill-rule:nonzero;stroke:none"
         x="0 4.2211914 13.721191 29.54834 40.115234 50.682129 54.90332 64.40332 74.970215"
         y="0"
         sodipodi:role="line"
         id="tspan25">isModiﬁed</tspan></text>
    <path
       id="path27"
       d="m 551.01001,112 h 120 v 60 h -120 z"
       style="fill:#ffffff;fill-opacity:1;fill-rule:nonzero;stroke:#000000;stroke-width:1;stroke-linecap:butt;stroke-linejoin:miter;stroke-miterlimit:10;stroke-dasharray:none;stroke-opacity:1"
       transform="matrix(0.95823094,0,0,0.95823094,0.47911546,0.47911546)"
       clip-path="url(#clipPath28)" />
    <text
       id="text28"
       xml:space="preserve"
       transform="matrix(0.95824054,0,0,0.95824054,567.77249,142.77784)"
       clip-path="url(#clipPath29)"><tspan
         style="font-variant:normal;font-weight:normal;font-size:19px;font-family:Helvetica;writing-mode:lr-tb;fill:#000000;fill-opacity:1;fill-rule:nonzero;stroke:none"
         x="0 10.566895 15.845703 21.124512 27.45166"
         y="0"
         sodipodi:role="line"
         id="tspan28">attrs</tspan></text>
    <path
       id="path30"
       d="m 191,42 h -7.5 c -5,0 -7.5,3.333332 -7.5,10 v 155 c 0,6.66667 -2.5,10 -7.5,10 h -3.75 c -2.5,0 -1.25,0 3.75,0 h 3.75 c 2.5,0 3.75,3.33333 3.75,10 v 155 c 0,6.66666 2.5,10 7.5,10 h 7.5"
       style="fill:none;stroke:#000000;stroke-width:1;stroke-linecap:butt;stroke-linejoin:miter;stroke-miterlimit:10;stroke-dasharray:none;stroke-opacity:1"
       transform="matrix(0,-0.95823094,0.95823094,0,-39.287469,376.58475)"
       clip-path="url(#clipPath31)" />
    <path
       id="path32"
       d="m 626.01001,17 h -7.5 c -5,0 -7.5,3.333332 -7.5,10 v 180 c 0,6.66667 -2.5,10 -7.5,10 h -3.75 c -2.5,0 -1.25,0 3.75,0 h 3.75 c 2.5,0 3.75,3.33333 3.75,10 v 180 c 0,6.66666 2.5,10 7.5,10 h 7.5"
       style="fill:none;stroke:#000000;stroke-width:1;stroke-linecap:butt;stroke-linejoin:miter;stroke-miterlimit:10;stroke-dasharray:none;stroke-opacity:1"
       transform="matrix(0,-0.95823094,0.95823094,0,377.55256,793.4248)"
       clip-path="url(#clipPath33)" />
    <text
       id="text33"
       xml:space="preserve"
       transform="matrix(0.95824054,0,0,0.95824054,139.94804,237.64365)"
       clip-path="url(#clipPath34)"><tspan
         style="font-style:oblique;font-variant:normal;font-weight:normal;font-size:19px;font-family:Helvetica;writing-mode:lr-tb;fill:#000000;fill-opacity:1;fill-rule:nonzero;stroke:none"
         x="0 17.599121 28.166016 33.444824 44.011719 50.338867"
         y="0"
         sodipodi:role="line"
         id="tspan33">We are</tspan></text>
    <text
       id="text34"
       xml:space="preserve"
       transform="matrix(0.95824054,0,0,0.95824054,116.50109,259.68319)"
       clip-path="url(#clipPath35)"><tspan
         style="font-style:oblique;font-variant:normal;font-weight:normal;font-size:19px;font-family:Helvetica;writing-mode:lr-tb;fill:#000000;fill-opacity:1;fill-rule:nonzero;stroke:none"
         x="0 6.3271484 16.894043 22.172852 32.739746 39.066895 49.633789 53.85498 64.421875 74.98877 80.267578 85.546387 96.113281 100.33447"
         y="0"
         sodipodi:role="line"
         id="tspan34">returning this</tspan></text>
    <text
       id="text35"
       xml:space="preserve"
       transform="matrix(0.95824054,0,0,0.95824054,550.19477,237.64365)"
       clip-path="url(#clipPath36)"><tspan
         style="font-style:oblique;font-variant:normal;font-weight:normal;font-size:19px;font-family:Helvetica;writing-mode:lr-tb;fill:#000000;fill-opacity:1;fill-rule:nonzero;stroke:none"
         x="0 14.778809 25.345703 31.672852 36.95166 47.518555 58.085449"
         y="0"
         sodipodi:role="line"
         id="tspan35">Our app</tspan></text>
    <text
       id="text36"
       xml:space="preserve"
       transform="matrix(0.95824054,0,0,0.95824054,535.01265,259.68319)"
       clip-path="url(#clipPath37)"><tspan
         style="font-style:oblique;font-variant:normal;font-weight:normal;font-size:19px;font-family:Helvetica;writing-mode:lr-tb;fill:#000000;fill-opacity:1;fill-rule:nonzero;stroke:none"
         x="0 10.566895 20.066895 30.633789 41.200684 50.700684 55.979492 65.479492 70.758301 76.037109 86.604004 90.825195"
         y="0"
         sodipodi:role="line"
         id="tspan36">expects this</tspan></text>
  </g>
</svg>
