<?xml version="1.0" encoding="UTF-8" standalone="no"?>
<!-- Created with Inkscape (http://www.inkscape.org/) -->

<svg
   version="1.1"
   id="svg1"
   width="376"
   height="294.72"
   viewBox="0 0 376 294.72"
   sodipodi:docname="node-3.pdf"
   xmlns:inkscape="http://www.inkscape.org/namespaces/inkscape"
   xmlns:sodipodi="http://sodipodi.sourceforge.net/DTD/sodipodi-0.dtd"
   xmlns="http://www.w3.org/2000/svg"
   xmlns:svg="http://www.w3.org/2000/svg">
  <defs
     id="defs1">
    <clipPath
       clipPathUnits="userSpaceOnUse"
       id="clipPath2">
      <path
         d="M 0,0 H 1174.9999 V 917.87524 H 0 Z"
         transform="scale(0.33446811)"
         clip-rule="evenodd"
         id="path2" />
    </clipPath>
    <clipPath
       clipPathUnits="userSpaceOnUse"
       id="clipPath4">
      <path
         d="M 0,0 H 1174.9999 V 914.88544 H 0 Z"
         transform="matrix(0.33446811,0,0,0.33446811,-0.5,-0.5)"
         clip-rule="evenodd"
         id="path4" />
    </clipPath>
    <clipPath
       clipPathUnits="userSpaceOnUse"
       id="clipPath5">
      <path
         d="M 0,0 H 1174.9999 V 914.88544 H 0 Z"
         transform="matrix(0.33446475,0,0,0.33446475,-78.484375,-38)"
         clip-rule="evenodd"
         id="path5" />
    </clipPath>
    <clipPath
       clipPathUnits="userSpaceOnUse"
       id="clipPath7">
      <path
         d="M 0,0 H 1174.9999 V 914.88544 H 0 Z"
         transform="matrix(0.33446811,0,0,0.33446811,-0.5,-0.5)"
         clip-rule="evenodd"
         id="path7" />
    </clipPath>
    <clipPath
       clipPathUnits="userSpaceOnUse"
       id="clipPath8">
      <path
         d="M 0,0 H 1174.9999 V 914.88544 H 0 Z"
         transform="matrix(0.33446475,0,0,0.33446475,-57.531251,-98)"
         clip-rule="evenodd"
         id="path8" />
    </clipPath>
    <clipPath
       clipPathUnits="userSpaceOnUse"
       id="clipPath10">
      <path
         d="M 0,0 H 1174.9999 V 914.88544 H 0 Z"
         transform="matrix(0.33446811,0,0,0.33446811,-0.5,-0.5)"
         clip-rule="evenodd"
         id="path10" />
    </clipPath>
    <clipPath
       clipPathUnits="userSpaceOnUse"
       id="clipPath11">
      <path
         d="M 0,0 H 1174.9999 V 914.88544 H 0 Z"
         transform="matrix(0.33446475,0,0,0.33446475,-86.484375,-158.00001)"
         clip-rule="evenodd"
         id="path11" />
    </clipPath>
    <clipPath
       clipPathUnits="userSpaceOnUse"
       id="clipPath13">
      <path
         d="M 0,0 H 1174.9999 V 914.88544 H 0 Z"
         transform="matrix(0.33446811,0,0,0.33446811,-0.5,-0.5)"
         clip-rule="evenodd"
         id="path13" />
    </clipPath>
    <clipPath
       clipPathUnits="userSpaceOnUse"
       id="clipPath14">
      <path
         d="M 0,0 H 1174.9999 V 914.88544 H 0 Z"
         transform="matrix(0.33446475,0,0,0.33446475,-64.53125,-218.00001)"
         clip-rule="evenodd"
         id="path14" />
    </clipPath>
    <clipPath
       clipPathUnits="userSpaceOnUse"
       id="clipPath16">
      <path
         d="M 0,0 H 1174.9999 V 914.88544 H 0 Z"
         transform="matrix(0.33446811,0,0,0.33446811,-0.5,-0.5)"
         clip-rule="evenodd"
         id="path16" />
    </clipPath>
    <clipPath
       clipPathUnits="userSpaceOnUse"
       id="clipPath17">
      <path
         d="M 0,0 H 1174.9999 V 914.88544 H 0 Z"
         transform="matrix(0.33446475,0,0,0.33446475,-93.484376,-278.00001)"
         clip-rule="evenodd"
         id="path17" />
    </clipPath>
    <clipPath
       clipPathUnits="userSpaceOnUse"
       id="clipPath19">
      <path
         d="M 0,0 H 1174.9999 V 914.88544 H 0 Z"
         transform="matrix(-0.33446811,0,0,-0.33446811,481.99998,302)"
         clip-rule="evenodd"
         id="path19" />
    </clipPath>
    <clipPath
       clipPathUnits="userSpaceOnUse"
       id="clipPath20">
      <path
         d="M 0,0 H 1174.9999 V 914.88544 H 0 Z"
         transform="matrix(0.33446475,0,0,0.33446475,-278.96875,-136)"
         clip-rule="evenodd"
         id="path20" />
    </clipPath>
    <clipPath
       clipPathUnits="userSpaceOnUse"
       id="clipPath21">
      <path
         d="M 0,0 H 1174.9999 V 914.88544 H 0 Z"
         transform="matrix(0.33446475,0,0,0.33446475,-275.46875,-158.00001)"
         clip-rule="evenodd"
         id="path21" />
    </clipPath>
    <clipPath
       clipPathUnits="userSpaceOnUse"
       id="clipPath22">
      <path
         d="M 0,0 H 1174.9999 V 914.88544 H 0 Z"
         transform="matrix(0.33446475,0,0,0.33446475,-278.96875,-179)"
         clip-rule="evenodd"
         id="path22" />
    </clipPath>
    <clipPath
       clipPathUnits="userSpaceOnUse"
       id="clipPath24">
      <path
         d="M 0,0 H 1174.9999 V 914.88544 H 0 Z"
         transform="matrix(-0.33446811,0,0,-0.33446811,481.99998,542.00002)"
         clip-rule="evenodd"
         id="path24" />
    </clipPath>
    <clipPath
       clipPathUnits="userSpaceOnUse"
       id="clipPath25">
      <path
         d="M 0,0 H 1174.9999 V 914.88544 H 0 Z"
         transform="matrix(0.33446475,0,0,0.33446475,-290.46875,-256)"
         clip-rule="evenodd"
         id="path25" />
    </clipPath>
    <clipPath
       clipPathUnits="userSpaceOnUse"
       id="clipPath26">
      <path
         d="M 0,0 H 1174.9999 V 914.88544 H 0 Z"
         transform="matrix(0.33446475,0,0,0.33446475,-298.46875,-278.00001)"
         clip-rule="evenodd"
         id="path26" />
    </clipPath>
    <clipPath
       clipPathUnits="userSpaceOnUse"
       id="clipPath27">
      <path
         d="M 0,0 H 1174.9999 V 914.88544 H 0 Z"
         transform="matrix(0.33446475,0,0,0.33446475,-290.96875,-299)"
         clip-rule="evenodd"
         id="path27" />
    </clipPath>
  </defs>
  <sodipodi:namedview
     id="namedview1"
     pagecolor="#ffffff"
     bordercolor="#000000"
     borderopacity="0.25"
     inkscape:showpageshadow="2"
     inkscape:pageopacity="0.0"
     inkscape:pagecheckerboard="0"
     inkscape:deskcolor="#d1d1d1">
    <inkscape:page
       x="0"
       y="0"
       inkscape:label="1"
       id="page1"
       width="376"
       height="294.72"
       margin="0"
       bleed="0" />
  </sodipodi:namedview>
  <g
     id="g1"
     inkscape:groupmode="layer"
     inkscape:label="1">
    <path
       id="path1"
       d="M 0,0 H 393 V 307 H 0 Z"
       style="fill:#ffffff;fill-opacity:1;fill-rule:nonzero;stroke:none"
       transform="scale(0.9567429)"
       clip-path="url(#clipPath2)" />
    <path
       id="path3"
       d="M 1,1 H 201 V 61 H 1 Z"
       style="fill:#ffffff;fill-opacity:1;fill-rule:nonzero;stroke:#000000;stroke-width:1;stroke-linecap:butt;stroke-linejoin:miter;stroke-miterlimit:10;stroke-dasharray:none;stroke-opacity:1"
       transform="matrix(0.9567429,0,0,0.9567429,0.47837145,0.47837145)"
       clip-path="url(#clipPath4)" />
    <text
       id="text4"
       xml:space="preserve"
       transform="matrix(0.9567525,0,0,0.9567525,75.090122,36.356595)"
       clip-path="url(#clipPath5)"><tspan
         style="font-variant:normal;font-weight:normal;font-size:18px;font-family:Helvetica;writing-mode:lr-tb;fill:#000000;fill-opacity:1;fill-rule:nonzero;stroke:none"
         x="0 12.005859 16.004883 26.015625 36.026367"
         y="0"
         sodipodi:role="line"
         id="tspan4">Blogs</tspan></text>
    <path
       id="path6"
       d="m 41,61 h 160 v 60 H 41 Z"
       style="fill:#fff2cc;fill-opacity:1;fill-rule:nonzero;stroke:#d6b656;stroke-width:1;stroke-linecap:butt;stroke-linejoin:miter;stroke-miterlimit:10;stroke-dasharray:none;stroke-opacity:1"
       transform="matrix(0.9567429,0,0,0.9567429,0.47837145,0.47837145)"
       clip-path="url(#clipPath7)" />
    <g
       id="g7" />
    <text
       id="text7"
       xml:space="preserve"
       transform="matrix(0.9567525,0,0,0.9567525,55.043168,93.761745)"
       clip-path="url(#clipPath8)"><tspan
         style="font-variant:normal;font-weight:normal;font-size:18px;font-family:Helvetica;writing-mode:lr-tb;fill:#000000;fill-opacity:1;fill-rule:nonzero;stroke:none"
         x="0 5.0009766 14.000977 24.011719 34.022461 40.016602 46.02832 51.029297 56.030273 60.029297 65.030273 69.029297 79.040039 84.041016 89.041992 92.478516 102.48926 106.48828 109.9248 114.92578 120.9375"
         y="0"
         sodipodi:role="line"
         id="tspan7">.ﬁnd({ title: 'hi' })</tspan></text>
    <path
       id="path9"
       d="m 41,121 h 160 v 60 H 41 Z"
       style="fill:#fff2cc;fill-opacity:1;fill-rule:nonzero;stroke:#d6b656;stroke-width:1;stroke-linecap:butt;stroke-linejoin:miter;stroke-miterlimit:10;stroke-dasharray:none;stroke-opacity:1"
       transform="matrix(0.9567429,0,0,0.9567429,0.47837145,0.47837145)"
       clip-path="url(#clipPath10)" />
    <text
       id="text10"
       xml:space="preserve"
       transform="matrix(0.9567525,0,0,0.9567525,82.744142,151.1669)"
       clip-path="url(#clipPath11)"><tspan
         style="font-variant:normal;font-weight:normal;font-size:18px;font-family:Helvetica;writing-mode:lr-tb;fill:#000000;fill-opacity:1;fill-rule:nonzero;stroke:none"
         x="0 5.0009766 9 12.999023 27.993164 31.992188 36.993164 42.987305 52.998047 63.008789"
         y="0"
         sodipodi:role="line"
         id="tspan10">.limit(10)</tspan></text>
    <path
       id="path12"
       d="m 41,181 h 160 v 60 H 41 Z"
       style="fill:#fff2cc;fill-opacity:1;fill-rule:nonzero;stroke:#d6b656;stroke-width:1;stroke-linecap:butt;stroke-linejoin:miter;stroke-miterlimit:10;stroke-dasharray:none;stroke-opacity:1"
       transform="matrix(0.9567429,0,0,0.9567429,0.47837145,0.47837145)"
       clip-path="url(#clipPath13)" />
    <text
       id="text13"
       xml:space="preserve"
       transform="matrix(0.9567525,0,0,0.9567525,61.740435,208.57205)"
       clip-path="url(#clipPath14)"><tspan
         style="font-variant:normal;font-weight:normal;font-size:18px;font-family:Helvetica;writing-mode:lr-tb;fill:#000000;fill-opacity:1;fill-rule:nonzero;stroke:none"
         x="0 5.0009766 14.000977 24.011719 30.005859 35.006836 41.000977 44.4375 53.4375 63.448242 73.458984 78.459961 88.470703 98.481445 103.48242 106.91895"
         y="0"
         sodipodi:role="line"
         id="tspan13">.sort('content')</tspan></text>
    <path
       id="path15"
       d="m 41,241 h 160 v 60 H 41 Z"
       style="fill:#d5e8d4;fill-opacity:1;fill-rule:nonzero;stroke:#82b366;stroke-width:1;stroke-linecap:butt;stroke-linejoin:miter;stroke-miterlimit:10;stroke-dasharray:none;stroke-opacity:1"
       transform="matrix(0.9567429,0,0,0.9567429,0.47837145,0.47837145)"
       clip-path="url(#clipPath16)" />
    <text
       id="text16"
       xml:space="preserve"
       transform="matrix(0.9567525,0,0,0.9567525,89.44141,265.9772)"
       clip-path="url(#clipPath17)"><tspan
         style="font-variant:normal;font-weight:normal;font-size:18px;font-family:Helvetica;writing-mode:lr-tb;fill:#000000;fill-opacity:1;fill-rule:nonzero;stroke:none"
         x="0 5.0009766 15.011719 24.011719 34.022461 43.022461 49.016602"
         y="0"
         sodipodi:role="line"
         id="tspan16">.exec()</tspan></text>
    <path
       id="path18"
       d="m 271,61 h -20 c -6.66667,0 -10,3.333336 -10,10 v 70 c 0,6.66667 -3.33333,10 -10,10 h -10 c -6.66667,0 -6.66667,0 0,0 h 10 c 6.66667,0 10,3.33333 10,10 v 70 c 0,6.66667 3.33333,10 10,10 h 20"
       style="fill:none;stroke:#000000;stroke-width:1;stroke-linecap:butt;stroke-linejoin:miter;stroke-miterlimit:10;stroke-dasharray:none;stroke-opacity:1"
       transform="matrix(-0.9567429,0,0,-0.9567429,461.15006,288.93636)"
       clip-path="url(#clipPath19)" />
    <text
       id="text19"
       xml:space="preserve"
       transform="matrix(0.9567525,0,0,0.9567525,266.90405,130.11834)"
       clip-path="url(#clipPath20)"><tspan
         style="font-variant:normal;font-weight:normal;font-size:18px;font-family:Helvetica;writing-mode:lr-tb;fill:#000000;fill-opacity:1;fill-rule:nonzero;stroke:none"
         x="0 12.999023 18.993164 29.003906 39.014648 44.015625 54.026367 63.026367 68.027344 78.038086 88.048828"
         y="0"
         sodipodi:role="line"
         id="tspan19">Creates and</tspan></text>
    <text
       id="text20"
       xml:space="preserve"
       transform="matrix(0.9567525,0,0,0.9567525,263.55542,151.1669)"
       clip-path="url(#clipPath21)"><tspan
         style="font-variant:normal;font-weight:normal;font-size:18px;font-family:Helvetica;writing-mode:lr-tb;fill:#000000;fill-opacity:1;fill-rule:nonzero;stroke:none"
         x="0 9 19.010742 28.010742 33.011719 43.022461 58.016602 62.015625 71.015625 81.026367 90.026367 95.027344"
         y="0"
         sodipodi:role="line"
         id="tspan20">customizes a</tspan></text>
    <text
       id="text21"
       xml:space="preserve"
       transform="matrix(0.9567525,0,0,0.9567525,266.90405,171.2587)"
       clip-path="url(#clipPath22)"><tspan
         style="font-variant:normal;font-weight:normal;font-size:18px;font-family:Helvetica;writing-mode:lr-tb;fill:#000000;fill-opacity:1;fill-rule:nonzero;stroke:none"
         x="0 10.010742 20.021484 30.032227 36.026367 45.026367 50.027344 60.038086 70.048828 74.047852 84.058594 93.058594"
         y="0"
         sodipodi:role="line"
         id="tspan21">query object</tspan></text>
    <path
       id="path23"
       d="m 271,241 h -20 c -6.66667,0 -10,3.33333 -10,10 v 10 c 0,6.66666 -3.33333,10 -10,10 h -10 c -6.66667,0 -6.66667,0 0,0 h 10 c 6.66667,0 10,3.33334 10,10 v 10 c 0,6.66666 3.33333,10 10,10 h 20"
       style="fill:none;stroke:#000000;stroke-width:1;stroke-linecap:butt;stroke-linejoin:miter;stroke-miterlimit:10;stroke-dasharray:none;stroke-opacity:1"
       transform="matrix(-0.9567429,0,0,-0.9567429,461.15006,518.55467)"
       clip-path="url(#clipPath24)" />
    <text
       id="text24"
       xml:space="preserve"
       transform="matrix(0.9567525,0,0,0.9567525,277.9067,244.92864)"
       clip-path="url(#clipPath25)"><tspan
         style="font-variant:normal;font-weight:normal;font-size:18px;font-family:Helvetica;writing-mode:lr-tb;fill:#000000;fill-opacity:1;fill-rule:nonzero;stroke:none"
         x="0 12.005859 22.016602 32.027344 42.038086 51.038086 56.039062 61.040039 71.050781"
         y="0"
         sodipodi:role="line"
         id="tspan24">Sends the</tspan></text>
    <text
       id="text25"
       xml:space="preserve"
       transform="matrix(0.9567525,0,0,0.9567525,285.56072,265.9772)"
       clip-path="url(#clipPath26)"><tspan
         style="font-variant:normal;font-weight:normal;font-size:18px;font-family:Helvetica;writing-mode:lr-tb;fill:#000000;fill-opacity:1;fill-rule:nonzero;stroke:none"
         x="0 10.010742 20.021484 30.032227 36.026367 45.026367 50.027344 55.02832"
         y="0"
         sodipodi:role="line"
         id="tspan25">query to</tspan></text>
    <text
       id="text26"
       xml:space="preserve"
       transform="matrix(0.9567525,0,0,0.9567525,278.38508,286.069)"
       clip-path="url(#clipPath27)"><tspan
         style="font-variant:normal;font-weight:normal;font-size:18px;font-family:Helvetica;writing-mode:lr-tb;fill:#000000;fill-opacity:1;fill-rule:nonzero;stroke:none"
         x="0 14.994141 25.004883 35.015625 45.026367 55.037109 68.036133"
         y="0"
         sodipodi:role="line"
         id="tspan26">MongoDB</tspan></text>
  </g>
</svg>
