<?xml version="1.0" encoding="UTF-8" standalone="no"?>
<!-- Created with Inkscape (http://www.inkscape.org/) -->

<svg
   version="1.1"
   id="svg1"
   width="688"
   height="291.84"
   viewBox="0 0 688 291.84"
   sodipodi:docname="node-8.pdf"
   xmlns:inkscape="http://www.inkscape.org/namespaces/inkscape"
   xmlns:sodipodi="http://sodipodi.sourceforge.net/DTD/sodipodi-0.dtd"
   xmlns="http://www.w3.org/2000/svg"
   xmlns:svg="http://www.w3.org/2000/svg">
  <defs
     id="defs1">
    <clipPath
       clipPathUnits="userSpaceOnUse"
       id="clipPath2">
      <path
         d="M 0,0 H 2150 V 912.03058 H 0 Z"
         transform="scale(0.33441861)"
         clip-rule="evenodd"
         id="path2" />
    </clipPath>
    <clipPath
       clipPathUnits="userSpaceOnUse"
       id="clipPath4">
      <path
         d="M 0,0 H 2150 V 909.04028 H 0 Z"
         transform="matrix(0.33441861,0,0,0.33441861,-0.5,-0.5)"
         clip-rule="evenodd"
         id="path4" />
    </clipPath>
    <clipPath
       clipPathUnits="userSpaceOnUse"
       id="clipPath6">
      <path
         d="M 0,0 H 2150 V 909.04028 H 0 Z"
         transform="matrix(0.33441861,0,0,0.33441861,-0.5,-0.5)"
         clip-rule="evenodd"
         id="path6" />
    </clipPath>
    <clipPath
       clipPathUnits="userSpaceOnUse"
       id="clipPath8">
      <path
         d="M 0,0 H 2150 V 909.04028 H 0 Z"
         transform="matrix(0.33441861,0,0,0.33441861,-0.5,-0.5)"
         clip-rule="evenodd"
         id="path8" />
    </clipPath>
    <clipPath
       clipPathUnits="userSpaceOnUse"
       id="clipPath10">
      <path
         d="M 0,0 H 2150 V 909.04028 H 0 Z"
         transform="matrix(0.33441861,0,0,0.33441861,-0.5,-0.5)"
         clip-rule="evenodd"
         id="path10" />
    </clipPath>
    <clipPath
       clipPathUnits="userSpaceOnUse"
       id="clipPath11">
      <path
         d="M 0,0 H 2150 V 909.04028 H 0 Z"
         transform="matrix(0.33441526,0,0,0.33441526,-43.968751,-58)"
         clip-rule="evenodd"
         id="path11" />
    </clipPath>
    <clipPath
       clipPathUnits="userSpaceOnUse"
       id="clipPath13">
      <path
         d="M 0,0 H 2150 V 909.04028 H 0 Z"
         transform="matrix(0.33441861,0,0,0.33441861,-0.5,-0.5)"
         clip-rule="evenodd"
         id="path13" />
    </clipPath>
    <clipPath
       clipPathUnits="userSpaceOnUse"
       id="clipPath14">
      <path
         d="M 0,0 H 2150 V 909.04028 H 0 Z"
         transform="matrix(0.33441526,0,0,0.33441526,-76.453126,-118)"
         clip-rule="evenodd"
         id="path14" />
    </clipPath>
    <clipPath
       clipPathUnits="userSpaceOnUse"
       id="clipPath16">
      <path
         d="M 0,0 H 2150 V 909.04028 H 0 Z"
         transform="matrix(0.33441861,0,0,0.33441861,-0.5,-0.5)"
         clip-rule="evenodd"
         id="path16" />
    </clipPath>
    <clipPath
       clipPathUnits="userSpaceOnUse"
       id="clipPath17">
      <path
         d="M 0,0 H 2150 V 909.04028 H 0 Z"
         transform="matrix(0.33441526,0,0,0.33441526,-71.953125,-178)"
         clip-rule="evenodd"
         id="path17" />
    </clipPath>
    <clipPath
       clipPathUnits="userSpaceOnUse"
       id="clipPath19">
      <path
         d="M 0,0 H 2150 V 909.04028 H 0 Z"
         transform="matrix(0.33441861,0,0,0.33441861,-0.5,-0.5)"
         clip-rule="evenodd"
         id="path19" />
    </clipPath>
    <clipPath
       clipPathUnits="userSpaceOnUse"
       id="clipPath20">
      <path
         d="M 0,0 H 2150 V 909.04028 H 0 Z"
         transform="matrix(0.33441526,0,0,0.33441526,-74.96875,-238)"
         clip-rule="evenodd"
         id="path20" />
    </clipPath>
    <clipPath
       clipPathUnits="userSpaceOnUse"
       id="clipPath22">
      <path
         d="M 0,0 H 2150 V 909.04028 H 0 Z"
         transform="matrix(0.33441861,0,0,0.33441861,-0.5,-0.5)"
         clip-rule="evenodd"
         id="path22" />
    </clipPath>
    <clipPath
       clipPathUnits="userSpaceOnUse"
       id="clipPath24">
      <path
         d="M 0,0 H 2150 V 909.04028 H 0 Z"
         transform="matrix(0.33441861,0,0,0.33441861,-0.5,-0.5)"
         clip-rule="evenodd"
         id="path24" />
    </clipPath>
    <clipPath
       clipPathUnits="userSpaceOnUse"
       id="clipPath26">
      <path
         d="M 0,0 H 2150 V 909.04028 H 0 Z"
         transform="matrix(0.33441861,0,0,0.33441861,-0.5,-0.5)"
         clip-rule="evenodd"
         id="path26" />
    </clipPath>
    <clipPath
       clipPathUnits="userSpaceOnUse"
       id="clipPath27">
      <path
         d="M 0,0 H 2150 V 909.04028 H 0 Z"
         transform="matrix(0.33441526,0,0,0.33441526,-318.98438,-158)"
         clip-rule="evenodd"
         id="path27" />
    </clipPath>
    <clipPath
       clipPathUnits="userSpaceOnUse"
       id="clipPath29">
      <path
         d="M 0,0 H 2150 V 909.04028 H 0 Z"
         transform="matrix(0.33441861,0,0,0.33441861,-0.5,-0.5)"
         clip-rule="evenodd"
         id="path29" />
    </clipPath>
    <clipPath
       clipPathUnits="userSpaceOnUse"
       id="clipPath30">
      <path
         d="M 0,0 H 2150 V 909.04028 H 0 Z"
         transform="matrix(0.33441526,0,0,0.33441526,-595.98438,-158)"
         clip-rule="evenodd"
         id="path30" />
    </clipPath>
    <clipPath
       clipPathUnits="userSpaceOnUse"
       id="clipPath32">
      <path
         d="M 0,0 H 2150 V 909.04028 H 0 Z"
         transform="matrix(0.33441861,0,0,0.33441861,-0.5,-0.5)"
         clip-rule="evenodd"
         id="path32" />
    </clipPath>
    <clipPath
       clipPathUnits="userSpaceOnUse"
       id="clipPath33">
      <path
         d="M 0,0 H 2150 V 909.04028 H 0 Z"
         transform="matrix(0.33441526,0,0,0.33441526,-633.98439,-208)"
         clip-rule="evenodd"
         id="path33" />
    </clipPath>
    <clipPath
       clipPathUnits="userSpaceOnUse"
       id="clipPath35">
      <path
         d="M 0,0 H 2150 V 909.04028 H 0 Z"
         transform="matrix(0.33441861,0,0,0.33441861,-0.5,-0.5)"
         clip-rule="evenodd"
         id="path35" />
    </clipPath>
    <clipPath
       clipPathUnits="userSpaceOnUse"
       id="clipPath36">
      <path
         d="M 0,0 H 2150 V 909.04028 H 0 Z"
         transform="matrix(0.33441526,0,0,0.33441526,-629.48438,-248)"
         clip-rule="evenodd"
         id="path36" />
    </clipPath>
    <clipPath
       clipPathUnits="userSpaceOnUse"
       id="clipPath38">
      <path
         d="M 0,0 H 2150 V 909.04028 H 0 Z"
         transform="matrix(0.33441861,0,0,0.33441861,-0.5,-0.5)"
         clip-rule="evenodd"
         id="path38" />
    </clipPath>
    <clipPath
       clipPathUnits="userSpaceOnUse"
       id="clipPath39">
      <path
         d="M 0,0 H 2150 V 909.04028 H 0 Z"
         transform="matrix(0.33441526,0,0,0.33441526,-632.5,-288)"
         clip-rule="evenodd"
         id="path39" />
    </clipPath>
  </defs>
  <sodipodi:namedview
     id="namedview1"
     pagecolor="#ffffff"
     bordercolor="#000000"
     borderopacity="0.25"
     inkscape:showpageshadow="2"
     inkscape:pageopacity="0.0"
     inkscape:pagecheckerboard="0"
     inkscape:deskcolor="#d1d1d1">
    <inkscape:page
       x="0"
       y="0"
       inkscape:label="1"
       id="page1"
       width="688"
       height="291.84"
       margin="0"
       bleed="0" />
  </sodipodi:namedview>
  <g
     id="g1"
     inkscape:groupmode="layer"
     inkscape:label="1">
    <path
       id="path1"
       d="M 0,0 H 719 V 305 H 0 Z"
       style="fill:#ffffff;fill-opacity:1;fill-rule:nonzero;stroke:none"
       transform="scale(0.9568845)"
       clip-path="url(#clipPath2)" />
    <path
       id="path3"
       d="m 221,151 h 39.89999"
       style="fill:none;stroke:#000000;stroke-width:1;stroke-linecap:butt;stroke-linejoin:miter;stroke-miterlimit:10;stroke-dasharray:none;stroke-opacity:1"
       transform="matrix(0.9568845,0,0,0.9568845,0.47844225,0.47844225)"
       clip-path="url(#clipPath4)" />
    <path
       id="path5"
       d="m 267.64999,151 -9,4.5 2.25,-4.5 -2.25,-4.5 z"
       style="fill:#000000;fill-opacity:1;fill-rule:nonzero;stroke:#000000;stroke-width:1;stroke-linecap:butt;stroke-linejoin:miter;stroke-miterlimit:10;stroke-dasharray:none;stroke-opacity:1"
       transform="matrix(0.9568845,0,0,0.9568845,0.47844225,0.47844225)"
       clip-path="url(#clipPath6)" />
    <path
       id="path7"
       d="M 1,1 H 221 V 301 H 1 Z"
       style="fill:#ffffff;fill-opacity:1;fill-rule:nonzero;stroke:#000000;stroke-width:1;stroke-linecap:butt;stroke-linejoin:miter;stroke-miterlimit:10;stroke-dasharray:none;stroke-opacity:1"
       transform="matrix(0.9568845,0,0,0.9568845,0.47844225,0.47844225)"
       clip-path="url(#clipPath8)" />
    <path
       id="path9"
       d="M 11,21 H 206 V 81 H 11 Z"
       style="fill:#ffffff;fill-opacity:1;fill-rule:nonzero;stroke:#000000;stroke-width:1;stroke-linecap:butt;stroke-linejoin:miter;stroke-miterlimit:10;stroke-dasharray:none;stroke-opacity:1"
       transform="matrix(0.9568845,0,0,0.9568845,0.47844225,0.47844225)"
       clip-path="url(#clipPath10)" />
    <text
       id="text10"
       xml:space="preserve"
       transform="matrix(0.9568941,0,0,0.9568941,42.073438,55.499858)"
       clip-path="url(#clipPath11)"><tspan
         style="font-variant:normal;font-weight:normal;font-size:18px;font-family:Helvetica;writing-mode:lr-tb;fill:#000000;fill-opacity:1;fill-rule:nonzero;stroke:none"
         x="0 5.0009766 15.011719 25.022461 34.022461 39.023438 43.022461 53.033203 63.043945 68.044922 82.045898 92.056641 102.06738 108.06152 117.06152 123.05566"
         y="0"
         sodipodi:role="line"
         id="tspan10">function Query()</tspan></text>
    <path
       id="path12"
       d="m 56,81 h 150 v 60 H 56 Z"
       style="fill:#ffffff;fill-opacity:1;fill-rule:nonzero;stroke:#000000;stroke-width:1;stroke-linecap:butt;stroke-linejoin:miter;stroke-miterlimit:10;stroke-dasharray:none;stroke-opacity:1"
       transform="matrix(0.9568845,0,0,0.9568845,0.47844225,0.47844225)"
       clip-path="url(#clipPath13)" />
    <g
       id="g13" />
    <text
       id="text13"
       xml:space="preserve"
       transform="matrix(0.9568941,0,0,0.9568941,73.157545,112.9135)"
       clip-path="url(#clipPath14)"><tspan
         style="font-variant:normal;font-weight:normal;font-size:18px;font-family:Helvetica;writing-mode:lr-tb;fill:#000000;fill-opacity:1;fill-rule:nonzero;stroke:none"
         x="0 10.010742 16.004883 26.015625 31.016602 41.027344 46.02832 55.02832 65.039062 75.049805 80.050781 89.050781 99.061523"
         y="0"
         sodipodi:role="line"
         id="tspan13">prototype.ﬁnd</tspan></text>
    <path
       id="path15"
       d="m 56,141 h 150 v 60 H 56 Z"
       style="fill:#ffffff;fill-opacity:1;fill-rule:nonzero;stroke:#000000;stroke-width:1;stroke-linecap:butt;stroke-linejoin:miter;stroke-miterlimit:10;stroke-dasharray:none;stroke-opacity:1"
       transform="matrix(0.9568845,0,0,0.9568845,0.47844225,0.47844225)"
       clip-path="url(#clipPath16)" />
    <text
       id="text16"
       xml:space="preserve"
       transform="matrix(0.9568941,0,0,0.9568941,68.851521,170.32715)"
       clip-path="url(#clipPath17)"><tspan
         style="font-variant:normal;font-weight:normal;font-size:18px;font-family:Helvetica;writing-mode:lr-tb;fill:#000000;fill-opacity:1;fill-rule:nonzero;stroke:none"
         x="0 10.010742 16.004883 26.015625 31.016602 41.027344 46.02832 55.02832 65.039062 75.049805 80.050781 90.061523 99.061523 109.07227"
         y="0"
         sodipodi:role="line"
         id="tspan16">prototype.exec</tspan></text>
    <path
       id="path18"
       d="m 56,201 h 150 v 60 H 56 Z"
       style="fill:#ffffff;fill-opacity:1;fill-rule:nonzero;stroke:#000000;stroke-width:1;stroke-linecap:butt;stroke-linejoin:miter;stroke-miterlimit:10;stroke-dasharray:none;stroke-opacity:1"
       transform="matrix(0.9568845,0,0,0.9568845,0.47844225,0.47844225)"
       clip-path="url(#clipPath19)" />
    <text
       id="text19"
       xml:space="preserve"
       transform="matrix(0.9568941,0,0,0.9568941,71.737155,227.7408)"
       clip-path="url(#clipPath20)"><tspan
         style="font-variant:normal;font-weight:normal;font-size:18px;font-family:Helvetica;writing-mode:lr-tb;fill:#000000;fill-opacity:1;fill-rule:nonzero;stroke:none"
         x="0 10.010742 16.004883 26.015625 31.016602 41.027344 46.02832 55.02832 65.039062 75.049805 80.050781 84.049805 88.048828 103.04297 107.04199"
         y="0"
         sodipodi:role="line"
         id="tspan19">prototype.limit</tspan></text>
    <path
       id="path21"
       d="m 466,151 h 44.89999"
       style="fill:none;stroke:#000000;stroke-width:1;stroke-linecap:butt;stroke-linejoin:miter;stroke-miterlimit:10;stroke-dasharray:none;stroke-opacity:1"
       transform="matrix(0.9568845,0,0,0.9568845,0.47844225,0.47844225)"
       clip-path="url(#clipPath22)" />
    <path
       id="path23"
       d="m 517.65002,151 -9.00003,4.5 2.25,-4.5 -2.25,-4.5 z"
       style="fill:#000000;fill-opacity:1;fill-rule:nonzero;stroke:#000000;stroke-width:1;stroke-linecap:butt;stroke-linejoin:miter;stroke-miterlimit:10;stroke-dasharray:none;stroke-opacity:1"
       transform="matrix(0.9568845,0,0,0.9568845,0.47844225,0.47844225)"
       clip-path="url(#clipPath24)" />
    <path
       id="path25"
       d="m 271,121 h 195 v 60 H 271 Z"
       style="fill:#ffffff;fill-opacity:1;fill-rule:nonzero;stroke:#000000;stroke-width:1;stroke-linecap:butt;stroke-linejoin:miter;stroke-miterlimit:10;stroke-dasharray:none;stroke-opacity:1"
       transform="matrix(0.9568845,0,0,0.9568845,0.47844225,0.47844225)"
       clip-path="url(#clipPath26)" />
    <text
       id="text26"
       xml:space="preserve"
       transform="matrix(0.9568941,0,0,0.9568941,305.23427,151.18927)"
       clip-path="url(#clipPath27)"><tspan
         style="font-variant:normal;font-weight:normal;font-size:18px;font-family:Helvetica;writing-mode:lr-tb;fill:#000000;fill-opacity:1;fill-rule:nonzero;stroke:none"
         x="0 10.010742 20.021484 33.020508 38.021484 52.022461 62.033203 72.043945 78.038086 87.038086 93.032227"
         y="0"
         sodipodi:role="line"
         id="tspan26">new Query()</tspan></text>
    <path
       id="path28"
       d="m 521.01001,121 h 195 v 60 h -195 z"
       style="fill:#ffffff;fill-opacity:1;fill-rule:nonzero;stroke:#000000;stroke-width:1;stroke-linecap:butt;stroke-linejoin:miter;stroke-miterlimit:10;stroke-dasharray:none;stroke-opacity:1"
       transform="matrix(0.9568845,0,0,0.9568845,0.47844225,0.47844225)"
       clip-path="url(#clipPath29)" />
    <text
       id="text29"
       xml:space="preserve"
       transform="matrix(0.9568941,0,0,0.9568941,570.29394,151.18927)"
       clip-path="url(#clipPath30)"><tspan
         style="font-variant:normal;font-weight:normal;font-size:18px;font-family:Helvetica;writing-mode:lr-tb;fill:#000000;fill-opacity:1;fill-rule:nonzero;stroke:none"
         x="0 10.010742 20.021484 30.032227 36.026367"
         y="0"
         sodipodi:role="line"
         id="tspan29">query</tspan></text>
    <path
       id="path31"
       d="m 586.01001,181 h 130 v 40 h -130 z"
       style="fill:#ffffff;fill-opacity:1;fill-rule:nonzero;stroke:#000000;stroke-width:1;stroke-linecap:butt;stroke-linejoin:miter;stroke-miterlimit:10;stroke-dasharray:none;stroke-opacity:1"
       transform="matrix(0.9568845,0,0,0.9568845,0.47844225,0.47844225)"
       clip-path="url(#clipPath32)" />
    <g
       id="g32" />
    <text
       id="text32"
       xml:space="preserve"
       transform="matrix(0.9568941,0,0,0.9568941,606.65592,199.03397)"
       clip-path="url(#clipPath33)"><tspan
         style="font-variant:normal;font-weight:normal;font-size:18px;font-family:Helvetica;writing-mode:lr-tb;fill:#000000;fill-opacity:1;fill-rule:nonzero;stroke:none"
         x="0 5.0009766 14.000977 24.011719"
         y="0"
         sodipodi:role="line"
         id="tspan32">.ﬁnd</tspan></text>
    <path
       id="path34"
       d="m 586.01001,221 h 130 v 40 h -130 z"
       style="fill:#ffffff;fill-opacity:1;fill-rule:nonzero;stroke:#000000;stroke-width:1;stroke-linecap:butt;stroke-linejoin:miter;stroke-miterlimit:10;stroke-dasharray:none;stroke-opacity:1"
       transform="matrix(0.9568845,0,0,0.9568845,0.47844225,0.47844225)"
       clip-path="url(#clipPath35)" />
    <text
       id="text35"
       xml:space="preserve"
       transform="matrix(0.9568941,0,0,0.9568941,602.34989,237.30974)"
       clip-path="url(#clipPath36)"><tspan
         style="font-variant:normal;font-weight:normal;font-size:18px;font-family:Helvetica;writing-mode:lr-tb;fill:#000000;fill-opacity:1;fill-rule:nonzero;stroke:none"
         x="0 5.0009766 15.011719 24.011719 34.022461"
         y="0"
         sodipodi:role="line"
         id="tspan35">.exec</tspan></text>
    <path
       id="path37"
       d="m 586.01001,261 h 130 v 40 h -130 z"
       style="fill:#ffffff;fill-opacity:1;fill-rule:nonzero;stroke:#000000;stroke-width:1;stroke-linecap:butt;stroke-linejoin:miter;stroke-miterlimit:10;stroke-dasharray:none;stroke-opacity:1"
       transform="matrix(0.9568845,0,0,0.9568845,0.47844225,0.47844225)"
       clip-path="url(#clipPath38)" />
    <text
       id="text38"
       xml:space="preserve"
       transform="matrix(0.9568941,0,0,0.9568941,605.23552,275.5855)"
       clip-path="url(#clipPath39)"><tspan
         style="font-variant:normal;font-weight:normal;font-size:18px;font-family:Helvetica;writing-mode:lr-tb;fill:#000000;fill-opacity:1;fill-rule:nonzero;stroke:none"
         x="0 5.0009766 9 12.999023 27.993164 31.992188"
         y="0"
         sodipodi:role="line"
         id="tspan38">.limit</tspan></text>
  </g>
</svg>
