<?xml version="1.0" encoding="UTF-8" standalone="no"?>
<!-- Created with Inkscape (http://www.inkscape.org/) -->

<svg
   version="1.1"
   id="svg1"
   width="346.55997"
   height="400"
   viewBox="0 0 346.55997 400"
   sodipodi:docname="node-6.pdf"
   xmlns:inkscape="http://www.inkscape.org/namespaces/inkscape"
   xmlns:sodipodi="http://sodipodi.sourceforge.net/DTD/sodipodi-0.dtd"
   xmlns="http://www.w3.org/2000/svg"
   xmlns:svg="http://www.w3.org/2000/svg">
  <defs
     id="defs1">
    <clipPath
       clipPathUnits="userSpaceOnUse"
       id="clipPath2">
      <path
         d="M 0,0 H 1083.3333 V 1247.9281 H 0 Z"
         transform="scale(0.33415387)"
         clip-rule="evenodd"
         id="path2" />
    </clipPath>
    <clipPath
       clipPathUnits="userSpaceOnUse"
       id="clipPath4">
      <path
         d="M 0,0 H 1083.3333 V 1244.9354 H 0 Z"
         transform="matrix(0.33415387,0,0,0.33415387,-0.5,-0.5)"
         clip-rule="evenodd"
         id="path4" />
    </clipPath>
    <clipPath
       clipPathUnits="userSpaceOnUse"
       id="clipPath6">
      <path
         d="M 0,0 H 1083.3333 V 1244.9354 H 0 Z"
         transform="matrix(0.33415387,0,0,0.33415387,-0.5,-0.5)"
         clip-rule="evenodd"
         id="path6" />
    </clipPath>
    <clipPath
       clipPathUnits="userSpaceOnUse"
       id="clipPath8">
      <path
         d="M 0,0 H 1083.3333 V 1244.9354 H 0 Z"
         transform="matrix(0.33415387,0,0,0.33415387,-0.5,-0.5)"
         clip-rule="evenodd"
         id="path8" />
    </clipPath>
    <clipPath
       clipPathUnits="userSpaceOnUse"
       id="clipPath9">
      <path
         d="M 0,0 H 1083.3333 V 1244.9354 H 0 Z"
         transform="matrix(0.33415051,0,0,0.33415051,-167.96875,-41)"
         clip-rule="evenodd"
         id="path9" />
    </clipPath>
    <clipPath
       clipPathUnits="userSpaceOnUse"
       id="clipPath11">
      <path
         d="M 0,0 H 1083.3333 V 1244.9354 H 0 Z"
         transform="matrix(0.33415387,0,0,0.33415387,-0.5,-0.5)"
         clip-rule="evenodd"
         id="path11" />
    </clipPath>
    <clipPath
       clipPathUnits="userSpaceOnUse"
       id="clipPath13">
      <path
         d="M 0,0 H 1083.3333 V 1244.9354 H 0 Z"
         transform="matrix(0.33415387,0,0,0.33415387,-0.5,-0.5)"
         clip-rule="evenodd"
         id="path13" />
    </clipPath>
    <clipPath
       clipPathUnits="userSpaceOnUse"
       id="clipPath15">
      <path
         d="M 0,0 H 1083.3333 V 1244.9354 H 0 Z"
         transform="matrix(0.33415387,0,0,0.33415387,-0.5,-0.5)"
         clip-rule="evenodd"
         id="path15" />
    </clipPath>
    <clipPath
       clipPathUnits="userSpaceOnUse"
       id="clipPath16">
      <path
         d="M 0,0 H 1083.3333 V 1244.9354 H 0 Z"
         transform="matrix(0.33415051,0,0,0.33415051,-84.578125,-100)"
         clip-rule="evenodd"
         id="path16" />
    </clipPath>
    <clipPath
       clipPathUnits="userSpaceOnUse"
       id="clipPath17">
      <path
         d="M 0,0 H 1083.3333 V 1244.9354 H 0 Z"
         transform="matrix(0.33415051,0,0,0.33415051,-204.54688,-122)"
         clip-rule="evenodd"
         id="path17" />
    </clipPath>
    <clipPath
       clipPathUnits="userSpaceOnUse"
       id="clipPath19">
      <path
         d="M 0,0 H 1083.3333 V 1244.9354 H 0 Z"
         transform="matrix(0.33415387,0,0,0.33415387,-0.5,-0.5)"
         clip-rule="evenodd"
         id="path19" />
    </clipPath>
    <clipPath
       clipPathUnits="userSpaceOnUse"
       id="clipPath21">
      <path
         d="M 0,0 H 1083.3333 V 1244.9354 H 0 Z"
         transform="matrix(0.33415387,0,0,0.33415387,-0.5,-0.5)"
         clip-rule="evenodd"
         id="path21" />
    </clipPath>
    <clipPath
       clipPathUnits="userSpaceOnUse"
       id="clipPath23">
      <path
         d="M 0,0 H 1083.3333 V 1244.9354 H 0 Z"
         transform="matrix(0.33415387,0,0,0.33415387,-0.5,-0.5)"
         clip-rule="evenodd"
         id="path23" />
    </clipPath>
    <clipPath
       clipPathUnits="userSpaceOnUse"
       id="clipPath24">
      <path
         d="M 0,0 H 1083.3333 V 1244.9354 H 0 Z"
         transform="matrix(0.33415051,0,0,0.33415051,-139.01563,-181)"
         clip-rule="evenodd"
         id="path24" />
    </clipPath>
    <clipPath
       clipPathUnits="userSpaceOnUse"
       id="clipPath26">
      <path
         d="M 0,0 H 1083.3333 V 1244.9354 H 0 Z"
         transform="matrix(0.33415387,0,0,0.33415387,-0.5,-0.5)"
         clip-rule="evenodd"
         id="path26" />
    </clipPath>
    <clipPath
       clipPathUnits="userSpaceOnUse"
       id="clipPath28">
      <path
         d="M 0,0 H 1083.3333 V 1244.9354 H 0 Z"
         transform="matrix(0.33415387,0,0,0.33415387,-0.5,-0.5)"
         clip-rule="evenodd"
         id="path28" />
    </clipPath>
    <clipPath
       clipPathUnits="userSpaceOnUse"
       id="clipPath30">
      <path
         d="M 0,0 H 1083.3333 V 1244.9354 H 0 Z"
         transform="matrix(0.33415387,0,0,0.33415387,-0.5,-0.5)"
         clip-rule="evenodd"
         id="path30" />
    </clipPath>
    <clipPath
       clipPathUnits="userSpaceOnUse"
       id="clipPath31">
      <path
         d="M 0,0 H 1083.3333 V 1244.9354 H 0 Z"
         transform="matrix(0.33415051,0,0,0.33415051,-82.90625,-240)"
         clip-rule="evenodd"
         id="path31" />
    </clipPath>
    <clipPath
       clipPathUnits="userSpaceOnUse"
       id="clipPath32">
      <path
         d="M 0,0 H 1083.3333 V 1244.9354 H 0 Z"
         transform="matrix(0.33415051,0,0,0.33415051,-169.96875,-262)"
         clip-rule="evenodd"
         id="path32" />
    </clipPath>
    <clipPath
       clipPathUnits="userSpaceOnUse"
       id="clipPath34">
      <path
         d="M 0,0 H 1083.3333 V 1244.9354 H 0 Z"
         transform="matrix(0.33415387,0,0,0.33415387,-0.5,-0.5)"
         clip-rule="evenodd"
         id="path34" />
    </clipPath>
    <clipPath
       clipPathUnits="userSpaceOnUse"
       id="clipPath36">
      <path
         d="M 0,0 H 1083.3333 V 1244.9354 H 0 Z"
         transform="matrix(0.33415387,0,0,0.33415387,-0.5,-0.5)"
         clip-rule="evenodd"
         id="path36" />
    </clipPath>
    <clipPath
       clipPathUnits="userSpaceOnUse"
       id="clipPath38">
      <path
         d="M 0,0 H 1083.3333 V 1244.9354 H 0 Z"
         transform="matrix(0.33415387,0,0,0.33415387,-0.5,-0.5)"
         clip-rule="evenodd"
         id="path38" />
    </clipPath>
    <clipPath
       clipPathUnits="userSpaceOnUse"
       id="clipPath39">
      <path
         d="M 0,0 H 1083.3333 V 1244.9354 H 0 Z"
         transform="matrix(0.33415051,0,0,0.33415051,-121.9375,-310)"
         clip-rule="evenodd"
         id="path39" />
    </clipPath>
    <clipPath
       clipPathUnits="userSpaceOnUse"
       id="clipPath40">
      <path
         d="M 0,0 H 1083.3333 V 1244.9354 H 0 Z"
         transform="matrix(0.33415051,0,0,0.33415051,-175.46875,-332)"
         clip-rule="evenodd"
         id="path40" />
    </clipPath>
    <clipPath
       clipPathUnits="userSpaceOnUse"
       id="clipPath42">
      <path
         d="M 0,0 H 1083.3333 V 1244.9354 H 0 Z"
         transform="matrix(0.33415387,0,0,0.33415387,-0.5,-0.5)"
         clip-rule="evenodd"
         id="path42" />
    </clipPath>
    <clipPath
       clipPathUnits="userSpaceOnUse"
       id="clipPath43">
      <path
         d="M 0,0 H 1083.3333 V 1244.9354 H 0 Z"
         transform="matrix(0.33415051,0,0,0.33415051,-98.921875,-379.99999)"
         clip-rule="evenodd"
         id="path43" />
    </clipPath>
    <clipPath
       clipPathUnits="userSpaceOnUse"
       id="clipPath44">
      <path
         d="M 0,0 H 1083.3333 V 1244.9354 H 0 Z"
         transform="matrix(0.33415051,0,0,0.33415051,-122.9375,-402)"
         clip-rule="evenodd"
         id="path44" />
    </clipPath>
    <clipPath
       clipPathUnits="userSpaceOnUse"
       id="clipPath46">
      <path
         d="M 0,0 H 1083.3333 V 1244.9354 H 0 Z"
         transform="matrix(0.33415387,0,0,0.33415387,-0.5,-0.5)"
         clip-rule="evenodd"
         id="path46" />
    </clipPath>
    <clipPath
       clipPathUnits="userSpaceOnUse"
       id="clipPath48">
      <path
         d="M 0,0 H 1083.3333 V 1244.9354 H 0 Z"
         transform="matrix(0.33415387,0,0,0.33415387,-0.5,-0.5)"
         clip-rule="evenodd"
         id="path48" />
    </clipPath>
    <clipPath
       clipPathUnits="userSpaceOnUse"
       id="clipPath49">
      <path
         d="M 0,0 H 1083.3333 V 1244.9354 H 0 Z"
         transform="matrix(0.33415051,0,0,0.33415051,-0.328125,-31)"
         clip-rule="evenodd"
         id="path49" />
    </clipPath>
  </defs>
  <sodipodi:namedview
     id="namedview1"
     pagecolor="#ffffff"
     bordercolor="#000000"
     borderopacity="0.25"
     inkscape:showpageshadow="2"
     inkscape:pageopacity="0.0"
     inkscape:pagecheckerboard="0"
     inkscape:deskcolor="#d1d1d1">
    <inkscape:page
       x="0"
       y="0"
       inkscape:label="1"
       id="page1"
       width="346.55997"
       height="400"
       margin="0"
       bleed="0" />
  </sodipodi:namedview>
  <g
     id="g1"
     inkscape:groupmode="layer"
     inkscape:label="1">
    <path
       id="path1"
       d="M 0,0 H 362 V 417 H 0 Z"
       style="fill:#ffffff;fill-opacity:1;fill-rule:nonzero;stroke:none"
       transform="scale(0.95764262)"
       clip-path="url(#clipPath2)" />
    <path
       id="path3"
       d="M 220,59 V 79 59 68.900002"
       style="fill:none;stroke:#000000;stroke-width:1;stroke-linecap:butt;stroke-linejoin:miter;stroke-miterlimit:10;stroke-dasharray:none;stroke-opacity:1"
       transform="matrix(0.95764262,0,0,0.95764262,0.47882131,0.47882131)"
       clip-path="url(#clipPath4)" />
    <path
       id="path5"
       d="m 220,75.650002 -4.5,-9 4.5,2.25 4.5,-2.25 z"
       style="fill:#000000;fill-opacity:1;fill-rule:nonzero;stroke:#000000;stroke-width:1;stroke-linecap:butt;stroke-linejoin:miter;stroke-miterlimit:10;stroke-dasharray:none;stroke-opacity:1"
       transform="matrix(0.95764262,0,0,0.95764262,0.47882131,0.47882131)"
       clip-path="url(#clipPath6)" />
    <path
       id="path7"
       d="M 80,9 H 360 V 59 H 80 Z"
       style="fill:#ffffff;fill-opacity:1;fill-rule:nonzero;stroke:#000000;stroke-width:1;stroke-linecap:butt;stroke-linejoin:miter;stroke-miterlimit:10;stroke-dasharray:none;stroke-opacity:1"
       transform="matrix(0.95764262,0,0,0.95764262,0.47882131,0.47882131)"
       clip-path="url(#clipPath8)" />
    <text
       id="text8"
       xml:space="preserve"
       transform="matrix(0.95765225,0,0,0.95765225,160.85565,39.263742)"
       clip-path="url(#clipPath9)"><tspan
         style="font-variant:normal;font-weight:normal;font-size:18px;font-family:Helvetica;writing-mode:lr-tb;fill:#000000;fill-opacity:1;fill-rule:nonzero;stroke:none"
         x="0 12.999023 18.993164 29.003906 39.014648 44.015625 54.026367 59.027344 69.038086 79.048828 89.05957 95.053711"
         y="0"
         sodipodi:role="line"
         id="tspan8">Create query</tspan></text>
    <path
       id="path10"
       d="m 220,129 v 20 -20 9.89999"
       style="fill:none;stroke:#000000;stroke-width:1;stroke-linecap:butt;stroke-linejoin:miter;stroke-miterlimit:10;stroke-dasharray:none;stroke-opacity:1"
       transform="matrix(0.95764262,0,0,0.95764262,0.47882131,0.47882131)"
       clip-path="url(#clipPath11)" />
    <path
       id="path12"
       d="m 220,145.64999 -4.5,-9 4.5,2.25 4.5,-2.25 z"
       style="fill:#000000;fill-opacity:1;fill-rule:nonzero;stroke:#000000;stroke-width:1;stroke-linecap:butt;stroke-linejoin:miter;stroke-miterlimit:10;stroke-dasharray:none;stroke-opacity:1"
       transform="matrix(0.95764262,0,0,0.95764262,0.47882131,0.47882131)"
       clip-path="url(#clipPath13)" />
    <path
       id="path14"
       d="m 80,79 h 280 v 50 H 80 Z"
       style="fill:#ffffff;fill-opacity:1;fill-rule:nonzero;stroke:#000000;stroke-width:1;stroke-linecap:butt;stroke-linejoin:miter;stroke-miterlimit:10;stroke-dasharray:none;stroke-opacity:1"
       transform="matrix(0.95764262,0,0,0.95764262,0.47882131,0.47882131)"
       clip-path="url(#clipPath15)" />
    <g
       id="g15" />
    <text
       id="text15"
       xml:space="preserve"
       transform="matrix(0.95765225,0,0,0.95765225,80.996432,95.765225)"
       clip-path="url(#clipPath16)"><tspan
         style="font-variant:normal;font-weight:normal;font-size:18px;font-family:Helvetica;writing-mode:lr-tb;fill:#000000;fill-opacity:1;fill-rule:nonzero;stroke:none"
         x="0 12.999023 23.009766 32.009766 37.010742 47.021484 62.015625 66.014648 75.014648 85.025391 90.026367 104.02734 114.03809 124.04883 130.04297 139.04297 144.04395 157.04297 161.04199 166.04297 176.05371 181.05469 184.49121 193.49121 203.50195 213.5127 216.94922 221.9502 226.95117 230.3877 234.38672 238.38574 253.37988 257.37891 262.37988 265.81641"
         y="0"
         sodipodi:role="line"
         id="tspan15">Customize Query with 'ﬁnd', 'limit',</tspan></text>
    <text
       id="text16"
       xml:space="preserve"
       transform="matrix(0.95765225,0,0,0.95765225,195.88478,116.83357)"
       clip-path="url(#clipPath17)"><tspan
         style="font-variant:normal;font-weight:normal;font-size:18px;font-family:Helvetica;writing-mode:lr-tb;fill:#000000;fill-opacity:1;fill-rule:nonzero;stroke:none"
         x="0 3.4365234 13.447266 18.448242 27.448242"
         y="0"
         sodipodi:role="line"
         id="tspan16">'etc'</tspan></text>
    <path
       id="path18"
       d="m 220,199 v 20 -20 9.89999"
       style="fill:none;stroke:#000000;stroke-width:1;stroke-linecap:butt;stroke-linejoin:miter;stroke-miterlimit:10;stroke-dasharray:none;stroke-opacity:1"
       transform="matrix(0.95764262,0,0,0.95764262,0.47882131,0.47882131)"
       clip-path="url(#clipPath19)" />
    <path
       id="path20"
       d="m 220,215.64999 -4.5,-9 4.5,2.25 4.5,-2.25 z"
       style="fill:#000000;fill-opacity:1;fill-rule:nonzero;stroke:#000000;stroke-width:1;stroke-linecap:butt;stroke-linejoin:miter;stroke-miterlimit:10;stroke-dasharray:none;stroke-opacity:1"
       transform="matrix(0.95764262,0,0,0.95764262,0.47882131,0.47882131)"
       clip-path="url(#clipPath21)" />
    <path
       id="path22"
       d="m 80,149 h 280 v 50 H 80 Z"
       style="fill:#ffffff;fill-opacity:1;fill-rule:nonzero;stroke:#000000;stroke-width:1;stroke-linecap:butt;stroke-linejoin:miter;stroke-miterlimit:10;stroke-dasharray:none;stroke-opacity:1"
       transform="matrix(0.95764262,0,0,0.95764262,0.47882131,0.47882131)"
       clip-path="url(#clipPath23)" />
    <text
       id="text23"
       xml:space="preserve"
       transform="matrix(0.95765225,0,0,0.95765225,133.12863,173.33506)"
       clip-path="url(#clipPath24)"><tspan
         style="font-variant:normal;font-weight:normal;font-size:18px;font-family:Helvetica;writing-mode:lr-tb;fill:#000000;fill-opacity:1;fill-rule:nonzero;stroke:none"
         x="0 3.4365234 13.447266 22.447266 32.458008 41.458008 44.894531 49.895508 64.889648 74.900391 79.901367 89.912109 99.922852 109.93359 114.93457 123.93457 133.94531 137.94434 141.94336 151.9541"
         y="0"
         sodipodi:role="line"
         id="tspan23">'exec' method called</tspan></text>
    <path
       id="path25"
       d="m 220,269 v 20 -20 9.89999"
       style="fill:none;stroke:#000000;stroke-width:1;stroke-linecap:butt;stroke-linejoin:miter;stroke-miterlimit:10;stroke-dasharray:none;stroke-opacity:1"
       transform="matrix(0.95764262,0,0,0.95764262,0.47882131,0.47882131)"
       clip-path="url(#clipPath26)" />
    <path
       id="path27"
       d="m 220,285.64999 -4.5,-9 4.5,2.25 4.5,-2.25 z"
       style="fill:#000000;fill-opacity:1;fill-rule:nonzero;stroke:#000000;stroke-width:1;stroke-linecap:butt;stroke-linejoin:miter;stroke-miterlimit:10;stroke-dasharray:none;stroke-opacity:1"
       transform="matrix(0.95764262,0,0,0.95764262,0.47882131,0.47882131)"
       clip-path="url(#clipPath28)" />
    <path
       id="path29"
       d="m 80,219 h 280 v 50 H 80 Z"
       style="fill:#ffffff;fill-opacity:1;fill-rule:nonzero;stroke:#000000;stroke-width:1;stroke-linecap:butt;stroke-linejoin:miter;stroke-miterlimit:10;stroke-dasharray:none;stroke-opacity:1"
       transform="matrix(0.95764262,0,0,0.95764262,0.47882131,0.47882131)"
       clip-path="url(#clipPath30)" />
    <text
       id="text30"
       xml:space="preserve"
       transform="matrix(0.95765225,0,0,0.95765225,79.395357,229.83654)"
       clip-path="url(#clipPath31)"><tspan
         style="font-variant:normal;font-weight:normal;font-size:18px;font-family:Helvetica;writing-mode:lr-tb;fill:#000000;fill-opacity:1;fill-rule:nonzero;stroke:none"
         x="0 12.005859 21.005859 31.016602 40.016602 45.017578 55.02832 64.02832 74.039062 78.038086 88.048828 98.05957 103.06055 113.07129 122.07129 127.07227 137.08301 147.09375 157.10449 163.09863 172.09863 177.09961 187.11035 197.12109 207.13184 212.13281 221.13281 231.14355 241.1543 251.16504 260.16504 265.16602 269.16504"
         y="0"
         sodipodi:role="line"
         id="tspan30">Exec evaluates query and sends it</tspan></text>
    <text
       id="text31"
       xml:space="preserve"
       transform="matrix(0.95765225,0,0,0.95765225,162.77096,250.90489)"
       clip-path="url(#clipPath32)"><tspan
         style="font-variant:normal;font-weight:normal;font-size:18px;font-family:Helvetica;writing-mode:lr-tb;fill:#000000;fill-opacity:1;fill-rule:nonzero;stroke:none"
         x="0 5.0009766 15.011719 20.012695 35.006836 45.017578 55.02832 65.039062 75.049805 88.048828"
         y="0"
         sodipodi:role="line"
         id="tspan31">to MongoDB</tspan></text>
    <path
       id="path33"
       d="m 220,339 v 20 -20 9.89999"
       style="fill:none;stroke:#000000;stroke-width:1;stroke-linecap:butt;stroke-linejoin:miter;stroke-miterlimit:10;stroke-dasharray:none;stroke-opacity:1"
       transform="matrix(0.95764262,0,0,0.95764262,0.47882131,0.47882131)"
       clip-path="url(#clipPath34)" />
    <path
       id="path35"
       d="m 220,355.64999 -4.5,-9 4.5,2.25 4.5,-2.25 z"
       style="fill:#000000;fill-opacity:1;fill-rule:nonzero;stroke:#000000;stroke-width:1;stroke-linecap:butt;stroke-linejoin:miter;stroke-miterlimit:10;stroke-dasharray:none;stroke-opacity:1"
       transform="matrix(0.95764262,0,0,0.95764262,0.47882131,0.47882131)"
       clip-path="url(#clipPath36)" />
    <path
       id="path37"
       d="m 80,289 h 280 v 50 H 80 Z"
       style="fill:#ffffff;fill-opacity:1;fill-rule:nonzero;stroke:#000000;stroke-width:1;stroke-linecap:butt;stroke-linejoin:miter;stroke-miterlimit:10;stroke-dasharray:none;stroke-opacity:1"
       transform="matrix(0.95764262,0,0,0.95764262,0.47882131,0.47882131)"
       clip-path="url(#clipPath38)" />
    <text
       id="text38"
       xml:space="preserve"
       transform="matrix(0.95765225,0,0,0.95765225,116.77372,296.8722)"
       clip-path="url(#clipPath39)"><tspan
         style="font-variant:normal;font-weight:normal;font-size:18px;font-family:Helvetica;writing-mode:lr-tb;fill:#000000;fill-opacity:1;fill-rule:nonzero;stroke:none"
         x="0 14.994141 25.004883 35.015625 45.026367 55.037109 68.036133 80.041992 85.042969 91.037109 101.04785 110.04785 120.05859 130.06934 140.08008 150.09082 159.09082 164.0918 177.09082 181.08984 186.09082"
         y="0"
         sodipodi:role="line"
         id="tspan38">MongoDB responds with</tspan></text>
    <text
       id="text39"
       xml:space="preserve"
       transform="matrix(0.95765225,0,0,0.95765225,168.03804,317.94055)"
       clip-path="url(#clipPath40)"><tspan
         style="font-variant:normal;font-weight:normal;font-size:18px;font-family:Helvetica;writing-mode:lr-tb;fill:#000000;fill-opacity:1;fill-rule:nonzero;stroke:none"
         x="0 3.9990234 14.009766 19.010742 29.021484 35.015625 50.009766 60.020508 65.021484 69.020508 79.03125"
         y="0"
         sodipodi:role="line"
         id="tspan39">information</tspan></text>
    <path
       id="path41"
       d="m 80,359 h 280 v 50 H 80 Z"
       style="fill:#ffffff;fill-opacity:1;fill-rule:nonzero;stroke:#000000;stroke-width:1;stroke-linecap:butt;stroke-linejoin:miter;stroke-miterlimit:10;stroke-dasharray:none;stroke-opacity:1"
       transform="matrix(0.95764262,0,0,0.95764262,0.47882131,0.47882131)"
       clip-path="url(#clipPath42)" />
    <text
       id="text42"
       xml:space="preserve"
       transform="matrix(0.95765225,0,0,0.95765225,94.732756,363.90785)"
       clip-path="url(#clipPath43)"><tspan
         style="font-variant:normal;font-weight:normal;font-size:18px;font-family:Helvetica;writing-mode:lr-tb;fill:#000000;fill-opacity:1;fill-rule:nonzero;stroke:none"
         x="0 14.994141 25.004883 35.015625 45.026367 55.037109 65.047852 74.047852 84.058594 89.05957 99.070312 109.08105 115.0752 124.0752 134.08594 143.08594 148.08691 152.08594 162.09668 167.09766 177.1084 183.10254 198.09668 208.10742 213.1084 217.10742 227.11816 237.12891"
         y="0"
         sodipodi:role="line"
         id="tspan42">Mongoose parses information,</tspan></text>
    <text
       id="text43"
       xml:space="preserve"
       transform="matrix(0.95765225,0,0,0.95765225,117.73137,384.9762)"
       clip-path="url(#clipPath44)"><tspan
         style="font-variant:normal;font-weight:normal;font-size:18px;font-family:Helvetica;writing-mode:lr-tb;fill:#000000;fill-opacity:1;fill-rule:nonzero;stroke:none"
         x="0 9 14.994141 25.004883 35.015625 40.016602 50.027344 59.027344 64.02832 79.022461 89.033203 99.043945 109.05469 113.05371 118.05469 122.05371 132.06445 141.06445 146.06543 156.07617 166.08691 175.08691 185.09766"
         y="0"
         sodipodi:role="line"
         id="tspan43">creates model instances</tspan></text>
    <path
       id="path45"
       d="M 50,9 V 393.89999"
       style="fill:none;stroke:#000000;stroke-width:1;stroke-linecap:butt;stroke-linejoin:miter;stroke-miterlimit:10;stroke-dasharray:none;stroke-opacity:1"
       transform="matrix(0.95764262,0,0,0.95764262,0.47882131,0.47882131)"
       clip-path="url(#clipPath46)" />
    <path
       id="path47"
       d="m 50,400.64999 -4.5,-9 4.5,2.25 4.5,-2.25 z"
       style="fill:#000000;fill-opacity:1;fill-rule:nonzero;stroke:#000000;stroke-width:1;stroke-linecap:butt;stroke-linejoin:miter;stroke-miterlimit:10;stroke-dasharray:none;stroke-opacity:1"
       transform="matrix(0.95764262,0,0,0.95764262,0.47882131,0.47882131)"
       clip-path="url(#clipPath48)" />
    <text
       id="text48"
       xml:space="preserve"
       transform="matrix(0.95765225,0,0,0.95765225,0.31422964,29.68722)"
       clip-path="url(#clipPath49)"><tspan
         style="font-variant:normal;font-weight:normal;font-size:18px;font-family:Helvetica;writing-mode:lr-tb;fill:#000000;fill-opacity:1;fill-rule:nonzero;stroke:none"
         x="0 10.335938 14.334961 29.329102"
         y="0"
         sodipodi:role="line"
         id="tspan48">Time</tspan></text>
  </g>
</svg>
