<?xml version="1.0" encoding="UTF-8" standalone="no"?>
<!-- Created with Inkscape (http://www.inkscape.org/) -->

<svg
   version="1.1"
   id="svg1"
   width="449.28"
   height="150.72"
   viewBox="0 0 449.28 150.72"
   sodipodi:docname="node-2.pdf"
   xmlns:inkscape="http://www.inkscape.org/namespaces/inkscape"
   xmlns:sodipodi="http://sodipodi.sourceforge.net/DTD/sodipodi-0.dtd"
   xmlns="http://www.w3.org/2000/svg"
   xmlns:svg="http://www.w3.org/2000/svg">
  <defs
     id="defs1">
    <clipPath
       clipPathUnits="userSpaceOnUse"
       id="clipPath2">
      <path
         d="M 0,0 H 1404.1666 V 469.05142 H 0 Z"
         transform="scale(0.33471811)"
         clip-rule="evenodd"
         id="path2" />
    </clipPath>
    <clipPath
       clipPathUnits="userSpaceOnUse"
       id="clipPath4">
      <path
         d="M 0,0 H 1404.1666 V 466.06384 H 0 Z"
         transform="matrix(0.33471811,0,0,0.33471811,-0.50000001,-0.50000001)"
         clip-rule="evenodd"
         id="path4" />
    </clipPath>
    <clipPath
       clipPathUnits="userSpaceOnUse"
       id="clipPath5">
      <path
         d="M 0,0 H 1404.1666 V 466.06384 H 0 Z"
         transform="matrix(0.33471477,0,0,0.33471477,-38.890624,-38)"
         clip-rule="evenodd"
         id="path5" />
    </clipPath>
    <clipPath
       clipPathUnits="userSpaceOnUse"
       id="clipPath6">
      <path
         d="M 0,0 H 1404.1666 V 466.06384 H 0 Z"
         transform="matrix(0.33471477,0,0,0.33471477,-334.0625,-38)"
         clip-rule="evenodd"
         id="path6" />
    </clipPath>
    <clipPath
       clipPathUnits="userSpaceOnUse"
       id="clipPath8">
      <path
         d="M 0,0 H 1404.1666 V 466.06384 H 0 Z"
         transform="matrix(0,0.33471811,-0.33471811,0,434.50002,-298.50001)"
         clip-rule="evenodd"
         id="path8" />
    </clipPath>
    <clipPath
       clipPathUnits="userSpaceOnUse"
       id="clipPath9">
      <path
         d="M 0,0 H 1404.1666 V 466.06384 H 0 Z"
         transform="matrix(0.33471477,0,0,0.33471477,-278.9375,-106)"
         clip-rule="evenodd"
         id="path9" />
    </clipPath>
    <clipPath
       clipPathUnits="userSpaceOnUse"
       id="clipPath10">
      <path
         d="M 0,0 H 1404.1666 V 466.06384 H 0 Z"
         transform="matrix(0.33471477,0,0,0.33471477,-268.60938,-127.99999)"
         clip-rule="evenodd"
         id="path10" />
    </clipPath>
    <clipPath
       clipPathUnits="userSpaceOnUse"
       id="clipPath11">
      <path
         d="M 0,0 H 1404.1666 V 466.06384 H 0 Z"
         transform="matrix(0.33471477,0,0,0.33471477,-285.4375,-149)"
         clip-rule="evenodd"
         id="path11" />
    </clipPath>
  </defs>
  <sodipodi:namedview
     id="namedview1"
     pagecolor="#ffffff"
     bordercolor="#000000"
     borderopacity="0.25"
     inkscape:showpageshadow="2"
     inkscape:pageopacity="0.0"
     inkscape:pagecheckerboard="0"
     inkscape:deskcolor="#d1d1d1">
    <inkscape:page
       x="0"
       y="0"
       inkscape:label="1"
       id="page1"
       width="449.28"
       height="150.72"
       margin="0"
       bleed="0" />
  </sodipodi:namedview>
  <g
     id="g1"
     inkscape:groupmode="layer"
     inkscape:label="1">
    <path
       id="path1"
       d="M 0,0 H 470 V 157 H 0 Z"
       style="fill:#ffffff;fill-opacity:1;fill-rule:nonzero;stroke:none"
       transform="scale(0.95602831)"
       clip-path="url(#clipPath2)" />
    <path
       id="path3"
       d="M 1,1 H 441 V 61 H 1 Z"
       style="fill:#d5e8d4;fill-opacity:1;fill-rule:nonzero;stroke:#82b366;stroke-width:1;stroke-linecap:butt;stroke-linejoin:miter;stroke-miterlimit:10;stroke-dasharray:none;stroke-opacity:1"
       transform="matrix(0.95602831,0,0,0.95602831,0.47801416,0.47801416)"
       clip-path="url(#clipPath4)" />
    <g
       id="g4" />
    <text
       id="text4"
       xml:space="preserve"
       transform="matrix(0.95603785,0,0,0.95603785,37.180909,36.329438)"
       clip-path="url(#clipPath5)"><tspan
         style="font-variant:normal;font-weight:normal;font-size:18px;font-family:Helvetica;writing-mode:lr-tb;fill:#000000;fill-opacity:1;fill-rule:nonzero;stroke:none"
         x="0 10.010742 23.009766 33.020508 37.019531 42.020508 47.021484 59.027344 63.026367 73.037109 83.047852 88.048828 97.048828 107.05957 117.07031 123.06445 129.07617 134.07715 144.08789 154.09863 163.09863 173.10938 179.10352 184.10449 189.10547 195.09961 205.11035 215.12109 220.12207 230.13281 239.13281 249.14355 254.15332 259.1543 263.15332 273.16406 278.16504 284.17676 290.1709"
         y="0"
         sodipodi:role="line"
         id="tspan4">await Blog.ﬁnd({ _user: req.user.id }).</tspan></text>
    <text
       id="text5"
       xml:space="preserve"
       transform="matrix(0.95603785,0,0,0.95603785,319.37639,36.329438)"
       clip-path="url(#clipPath6)"><tspan
         style="font-variant:normal;font-weight:700;font-size:18px;font-family:Helvetica;writing-mode:lr-tb;fill:#000000;fill-opacity:1;fill-rule:nonzero;stroke:none"
         x="0 10.010742 20.021484 30.032227 41.027344 51.038086 57.032227 63.026367"
         y="0"
         sodipodi:role="line"
         id="tspan5">cache();</tspan></text>
    <path
       id="path7"
       d="m 389,33 h -12.5 c -6.66666,0 -10,3.333332 -10,10 v 15 c 0,6.666664 -3.33334,10 -10,10 h -6.25 c -4.16666,0 -2.91666,0 3.75,0 h 6.25 c 4.16666,0 6.25,3.333336 6.25,10 v 15 c 0,6.666664 3.33334,10 10,10 H 389"
       style="fill:none;stroke:#000000;stroke-width:1;stroke-linecap:butt;stroke-linejoin:miter;stroke-miterlimit:10;stroke-dasharray:none;stroke-opacity:1"
       transform="matrix(0,-0.95602831,0.95602831,0,285.37446,415.39432)"
       clip-path="url(#clipPath8)" />
    <text
       id="text8"
       xml:space="preserve"
       transform="matrix(0.95603785,0,0,0.95603785,266.67481,101.34001)"
       clip-path="url(#clipPath9)"><tspan
         style="font-style:oblique;font-variant:normal;font-weight:normal;font-size:18px;font-family:Helvetica;writing-mode:lr-tb;fill:#000000;fill-opacity:1;fill-rule:nonzero;stroke:none"
         x="0 10.995117 21.005859 25.004883 34.004883 39.005859 44.006836 54.017578 64.02832 73.02832 78.029297 82.02832 92.039062 102.0498 107.05078 117.06152 127.07227 137.08301 146.08301 151.08398 161.09473 171.10547"
         y="0"
         sodipodi:role="line"
         id="tspan8">This function does not</tspan></text>
    <text
       id="text9"
       xml:space="preserve"
       transform="matrix(0.95603785,0,0,0.95603785,256.80073,122.37284)"
       clip-path="url(#clipPath10)"><tspan
         style="font-style:oblique;font-variant:normal;font-weight:normal;font-size:18px;font-family:Helvetica;writing-mode:lr-tb;fill:#000000;fill-opacity:1;fill-rule:nonzero;stroke:none"
         x="0 10.010742 19.010742 23.009766 32.009766 37.010742 42.011719 46.010742 56.021484 61.022461 76.016602 86.027344 96.038086 106.04883 116.05957 126.07031 135.07031 145.08105 150.08203 155.08301 160.08398 165.08496 170.08594 186.75879"
         y="0"
         sodipodi:role="line"
         id="tspan9">exist in mongoose!!!  We</tspan></text>
    <text
       id="text10"
       xml:space="preserve"
       transform="matrix(0.95603785,0,0,0.95603785,272.88905,142.44964)"
       clip-path="url(#clipPath11)"><tspan
         style="font-style:oblique;font-variant:normal;font-weight:normal;font-size:18px;font-family:Helvetica;writing-mode:lr-tb;fill:#000000;fill-opacity:1;fill-rule:nonzero;stroke:none"
         x="0 10.010742 16.004883 26.015625 31.016602 41.027344 51.038086 55.037109 65.047852 75.058594 80.05957 85.060547 95.071289 100.07227 110.08301 120.09375 130.10449 135.10547 139.10449 144.10547 149.10645 153.10547"
         y="0"
         sodipodi:role="line"
         id="tspan10">are going to add it in</tspan></text>
  </g>
</svg>
