<?xml version="1.0" encoding="UTF-8" standalone="no"?>
<!-- Created with Inkscape (http://www.inkscape.org/) -->

<svg
   version="1.1"
   id="svg1"
   width="660.15997"
   height="257.28"
   viewBox="0 0 660.15997 257.28"
   sodipodi:docname="node-9.pdf"
   xmlns:inkscape="http://www.inkscape.org/namespaces/inkscape"
   xmlns:sodipodi="http://sodipodi.sourceforge.net/DTD/sodipodi-0.dtd"
   xmlns="http://www.w3.org/2000/svg"
   xmlns:svg="http://www.w3.org/2000/svg">
  <defs
     id="defs1">
    <clipPath
       clipPathUnits="userSpaceOnUse"
       id="clipPath2">
      <path
         d="M 0,0 H 2062.5 V 803.41565 H 0 Z"
         transform="scale(0.33357577)"
         clip-rule="evenodd"
         id="path2" />
    </clipPath>
    <clipPath
       clipPathUnits="userSpaceOnUse"
       id="clipPath4">
      <path
         d="M 0,0 H 2062.5 V 803.41565 H 0 Z"
         transform="matrix(0.33357577,0,0,0.33357577,-0.5,-0.5)"
         clip-rule="evenodd"
         id="path4" />
    </clipPath>
    <clipPath
       clipPathUnits="userSpaceOnUse"
       id="clipPath6">
      <path
         d="M 0,0 H 2062.5 V 803.41565 H 0 Z"
         transform="matrix(0.33357577,0,0,0.33357577,-0.5,-0.5)"
         clip-rule="evenodd"
         id="path6" />
    </clipPath>
    <clipPath
       clipPathUnits="userSpaceOnUse"
       id="clipPath8">
      <path
         d="M 0,0 H 2062.5 V 803.41565 H 0 Z"
         transform="scale(0.33357577)"
         clip-rule="evenodd"
         id="path8" />
    </clipPath>
    <clipPath
       clipPathUnits="userSpaceOnUse"
       id="clipPath9">
      <path
         d="M 0,0 H 2062.5 V 803.41565 H 0 Z"
         transform="matrix(0.33357243,0,0,0.33357243,-14.953125,-53)"
         clip-rule="evenodd"
         id="path9" />
    </clipPath>
    <clipPath
       clipPathUnits="userSpaceOnUse"
       id="clipPath11">
      <path
         d="M 0,0 H 2062.5 V 803.41565 H 0 Z"
         transform="scale(0.33357577)"
         clip-rule="evenodd"
         id="path11" />
    </clipPath>
    <clipPath
       clipPathUnits="userSpaceOnUse"
       id="clipPath12">
      <path
         d="M 0,0 H 2062.5 V 803.41565 H 0 Z"
         transform="matrix(0.33357243,0,0,0.33357243,-71.640626,-141)"
         clip-rule="evenodd"
         id="path12" />
    </clipPath>
    <clipPath
       clipPathUnits="userSpaceOnUse"
       id="clipPath13">
      <path
         d="M 0,0 H 2062.5 V 803.41565 H 0 Z"
         transform="matrix(0.33357243,0,0,0.33357243,-95.65625,-170)"
         clip-rule="evenodd"
         id="path13" />
    </clipPath>
    <clipPath
       clipPathUnits="userSpaceOnUse"
       id="clipPath15">
      <path
         d="M 0,0 H 2062.5 V 803.41565 H 0 Z"
         transform="scale(0.33357577)"
         clip-rule="evenodd"
         id="path15" />
    </clipPath>
    <clipPath
       clipPathUnits="userSpaceOnUse"
       id="clipPath16">
      <path
         d="M 0,0 H 2062.5 V 803.41565 H 0 Z"
         transform="matrix(0.33357243,0,0,0.33357243,-467.95313,-23)"
         clip-rule="evenodd"
         id="path16" />
    </clipPath>
    <clipPath
       clipPathUnits="userSpaceOnUse"
       id="clipPath18">
      <path
         d="M 0,0 H 2062.5 V 803.41565 H 0 Z"
         transform="scale(0.33357577)"
         clip-rule="evenodd"
         id="path18" />
    </clipPath>
    <clipPath
       clipPathUnits="userSpaceOnUse"
       id="clipPath19">
      <path
         d="M 0,0 H 348 V 85 H 0 Z"
         transform="matrix(0.33357243,0,0,0.33357243,-0.68585211,-22.289819)"
         id="path19" />
    </clipPath>
    <clipPath
       clipPathUnits="userSpaceOnUse"
       id="clipPath20">
      <path
         d="M 0,0 H 2062.5 V 803.41565 H 0 Z"
         transform="scale(0.31999999)"
         clip-rule="evenodd"
         id="path20" />
    </clipPath>
    <clipPath
       clipPathUnits="userSpaceOnUse"
       id="clipPath22">
      <path
         d="M 0,0 H 2062.5 V 803.41565 H 0 Z"
         transform="scale(0.33357577)"
         clip-rule="evenodd"
         id="path22" />
    </clipPath>
    <clipPath
       clipPathUnits="userSpaceOnUse"
       id="clipPath23">
      <path
         d="M 0,0 H 349 V 85 H 0 Z"
         transform="matrix(0.33357243,0,0,0.33357243,-0.91900423,-22.289819)"
         id="path23" />
    </clipPath>
    <clipPath
       clipPathUnits="userSpaceOnUse"
       id="clipPath24">
      <path
         d="M 0,0 H 2062.5 V 803.41565 H 0 Z"
         transform="scale(0.31999999)"
         clip-rule="evenodd"
         id="path24" />
    </clipPath>
    <clipPath
       clipPathUnits="userSpaceOnUse"
       id="clipPath26">
      <path
         d="M 0,0 H 2062.5 V 803.41565 H 0 Z"
         transform="scale(0.33357577)"
         clip-rule="evenodd"
         id="path26" />
    </clipPath>
    <clipPath
       clipPathUnits="userSpaceOnUse"
       id="clipPath27">
      <path
         d="M 0,0 H 348 V 85 H 0 Z"
         transform="matrix(0.33357243,0,0,0.33357243,-0.68585211,-22.239614)"
         id="path27" />
    </clipPath>
    <clipPath
       clipPathUnits="userSpaceOnUse"
       id="clipPath28">
      <path
         d="M 0,0 H 2062.5 V 803.41565 H 0 Z"
         transform="scale(0.31999999)"
         clip-rule="evenodd"
         id="path28" />
    </clipPath>
    <clipPath
       clipPathUnits="userSpaceOnUse"
       id="clipPath30">
      <path
         d="M 0,0 H 2062.5 V 803.41565 H 0 Z"
         transform="scale(0.33357577)"
         clip-rule="evenodd"
         id="path30" />
    </clipPath>
    <clipPath
       clipPathUnits="userSpaceOnUse"
       id="clipPath31">
      <path
         d="M 0,0 H 349 V 85 H 0 Z"
         transform="matrix(0.33357243,0,0,0.33357243,-0.91900423,-22.239614)"
         id="path31" />
    </clipPath>
    <clipPath
       clipPathUnits="userSpaceOnUse"
       id="clipPath32">
      <path
         d="M 0,0 H 2062.5 V 803.41565 H 0 Z"
         transform="scale(0.31999999)"
         clip-rule="evenodd"
         id="path32" />
    </clipPath>
    <clipPath
       clipPathUnits="userSpaceOnUse"
       id="clipPath34">
      <path
         d="M 0,0 H 2062.5 V 803.41565 H 0 Z"
         transform="scale(0.33357577)"
         clip-rule="evenodd"
         id="path34" />
    </clipPath>
    <clipPath
       clipPathUnits="userSpaceOnUse"
       id="clipPath35">
      <path
         d="M 0,0 H 348 V 85 H 0 Z"
         transform="matrix(0.33357243,0,0,0.33357243,-0.68585211,-22.189404)"
         id="path35" />
    </clipPath>
    <clipPath
       clipPathUnits="userSpaceOnUse"
       id="clipPath36">
      <path
         d="M 0,0 H 2062.5 V 803.41565 H 0 Z"
         transform="scale(0.31999999)"
         clip-rule="evenodd"
         id="path36" />
    </clipPath>
    <clipPath
       clipPathUnits="userSpaceOnUse"
       id="clipPath38">
      <path
         d="M 0,0 H 2062.5 V 803.41565 H 0 Z"
         transform="scale(0.33357577)"
         clip-rule="evenodd"
         id="path38" />
    </clipPath>
    <clipPath
       clipPathUnits="userSpaceOnUse"
       id="clipPath39">
      <path
         d="M 0,0 H 349 V 85 H 0 Z"
         transform="matrix(0.33357243,0,0,0.33357243,-0.91900423,-22.189404)"
         id="path39" />
    </clipPath>
    <clipPath
       clipPathUnits="userSpaceOnUse"
       id="clipPath40">
      <path
         d="M 0,0 H 2062.5 V 803.41565 H 0 Z"
         transform="scale(0.31999999)"
         clip-rule="evenodd"
         id="path40" />
    </clipPath>
  </defs>
  <sodipodi:namedview
     id="namedview1"
     pagecolor="#ffffff"
     bordercolor="#000000"
     borderopacity="0.25"
     inkscape:showpageshadow="2"
     inkscape:pageopacity="0.0"
     inkscape:pagecheckerboard="0"
     inkscape:deskcolor="#d1d1d1">
    <inkscape:page
       x="0"
       y="0"
       inkscape:label="1"
       id="page1"
       width="660.15997"
       height="257.28"
       margin="0"
       bleed="0" />
  </sodipodi:namedview>
  <g
     id="g1"
     inkscape:groupmode="layer"
     inkscape:label="1">
    <path
       id="path1"
       d="M 0,0 H 688 V 268 H 0 Z"
       style="fill:#ffffff;fill-opacity:1;fill-rule:nonzero;stroke:none"
       transform="scale(0.95930226)"
       clip-path="url(#clipPath2)" />
    <path
       id="path3"
       d="m 205,147 h 85 l 74.89999,0.44"
       style="fill:none;stroke:#000000;stroke-width:1;stroke-linecap:butt;stroke-linejoin:miter;stroke-miterlimit:10;stroke-dasharray:none;stroke-opacity:1"
       transform="matrix(0.95930226,0,0,0.95930226,0.47965113,0.47965113)"
       clip-path="url(#clipPath4)" />
    <path
       id="path5"
       d="m 371.64999,147.48 -9.02999,4.44999 2.27999,-4.48999 -2.22,-4.51001 z"
       style="fill:#000000;fill-opacity:1;fill-rule:nonzero;stroke:#000000;stroke-width:1;stroke-linecap:butt;stroke-linejoin:miter;stroke-miterlimit:10;stroke-dasharray:none;stroke-opacity:1"
       transform="matrix(0.95930226,0,0,0.95930226,0.47965113,0.47965113)"
       clip-path="url(#clipPath6)" />
    <path
       id="path7"
       d="M 25,62 H 205 V 232 H 25 Z"
       style="fill:#dae8fc;fill-opacity:1;fill-rule:nonzero;stroke:#6c8ebf;stroke-width:1;stroke-linecap:butt;stroke-linejoin:miter;stroke-miterlimit:10;stroke-dasharray:none;stroke-opacity:1"
       transform="scale(0.95930226)"
       clip-path="url(#clipPath8)" />
    <text
       id="text8"
       xml:space="preserve"
       transform="matrix(0.95931186,0,0,0.95931186,14.34471,50.843529)"
       clip-path="url(#clipPath9)"><tspan
         style="font-variant:normal;font-weight:normal;font-size:24px;font-family:Helvetica;writing-mode:lr-tb;fill:#000000;fill-opacity:1;fill-rule:nonzero;stroke:none"
         x="0 18.667969 32.015625 40.007812 46.675781 64.007812 77.355469 89.355469 96.023438 109.37109 122.71875 129.38672 145.39453 158.74219 166.73438 178.73438 192.08203"
         y="0"
         sodipodi:role="line"
         id="tspan8">Our Hosted Server</tspan></text>
    <path
       id="path10"
       d="m 55,102 h 120 v 90 H 55 Z"
       style="fill:#ffffff;fill-opacity:1;fill-rule:nonzero;stroke:#000000;stroke-width:1;stroke-linecap:butt;stroke-linejoin:miter;stroke-miterlimit:10;stroke-dasharray:none;stroke-opacity:1"
       transform="scale(0.95930226)"
       clip-path="url(#clipPath11)" />
    <text
       id="text11"
       xml:space="preserve"
       transform="matrix(0.95931186,0,0,0.95931186,68.725702,135.26297)"
       clip-path="url(#clipPath12)"><tspan
         style="font-variant:normal;font-weight:normal;font-size:24px;font-family:Helvetica;writing-mode:lr-tb;fill:#000000;fill-opacity:1;fill-rule:nonzero;stroke:none"
         x="0 16.007812 28.007812 41.355469 49.347656 62.695312 74.695312"
         y="0"
         sodipodi:role="line"
         id="tspan11">Express</tspan></text>
    <text
       id="text12"
       xml:space="preserve"
       transform="matrix(0.95931186,0,0,0.95931186,91.764175,163.08302)"
       clip-path="url(#clipPath13)"><tspan
         style="font-variant:normal;font-weight:normal;font-size:24px;font-family:Helvetica;writing-mode:lr-tb;fill:#000000;fill-opacity:1;fill-rule:nonzero;stroke:none"
         x="0 16.007812 32.015625"
         y="0"
         sodipodi:role="line"
         id="tspan12">API</tspan></text>
    <path
       id="path14"
       d="M 375,30 H 685 V 265 H 375 Z"
       style="fill:#d5e8d4;fill-opacity:1;fill-rule:nonzero;stroke:#82b366;stroke-width:1;stroke-linecap:butt;stroke-linejoin:miter;stroke-miterlimit:10;stroke-dasharray:none;stroke-opacity:1"
       transform="scale(0.95930226)"
       clip-path="url(#clipPath15)" />
    <text
       id="text15"
       xml:space="preserve"
       transform="matrix(0.95931186,0,0,0.95931186,448.91299,22.064173)"
       clip-path="url(#clipPath16)"><tspan
         style="font-variant:normal;font-weight:normal;font-size:24px;font-family:Helvetica;writing-mode:lr-tb;fill:#000000;fill-opacity:1;fill-rule:nonzero;stroke:none"
         x="0 16.007812 36 49.347656 61.347656 74.695312 88.042969 94.710938 110.71875"
         y="0"
         sodipodi:role="line"
         id="tspan15">Amazon S3</tspan></text>
    <path
       id="path17"
       d="m 395,45 h 130 v 60 H 395 Z"
       style="fill:#ffffff;fill-opacity:0.6;fill-rule:nonzero;stroke:#000000;stroke-width:1;stroke-linecap:butt;stroke-linejoin:miter;stroke-miterlimit:10;stroke-dasharray:none;stroke-opacity:0.6"
       transform="scale(0.95930226)"
       clip-path="url(#clipPath18)" />
    <g
       opacity="0.3"
       id="g19"
       clip-path="url(#clipPath20)">
      <text
         xml:space="preserve"
         transform="matrix(0.95931186,0,0,0.95931186,386.25793,79.622885)"
         clip-path="url(#clipPath19)"
         id="text19"><tspan
           style="font-variant:normal;font-weight:normal;font-size:24px;font-family:Helvetica;writing-mode:lr-tb;fill:#000000;fill-opacity:1;fill-rule:nonzero;stroke:none"
           x="0 17.332031 30.679688 38.671875 52.019531 58.6875 76.019531 84.011719 89.34375 101.34375"
           y="0"
           sodipodi:role="line"
           id="tspan19">Hard Drive</tspan></text>
    </g>
    <path
       id="path21"
       d="m 535.01001,45 h 130 v 60 h -130 z"
       style="fill:#ffffff;fill-opacity:0.6;fill-rule:nonzero;stroke:#000000;stroke-width:1;stroke-linecap:butt;stroke-linejoin:miter;stroke-miterlimit:10;stroke-dasharray:none;stroke-opacity:0.6"
       transform="scale(0.95930226)"
       clip-path="url(#clipPath22)" />
    <g
       opacity="0.3"
       id="g23"
       clip-path="url(#clipPath24)">
      <text
         xml:space="preserve"
         transform="matrix(0.95931186,0,0,0.95931186,520.56159,79.622885)"
         clip-path="url(#clipPath23)"
         id="text23"><tspan
           style="font-variant:normal;font-weight:normal;font-size:24px;font-family:Helvetica;writing-mode:lr-tb;fill:#000000;fill-opacity:1;fill-rule:nonzero;stroke:none"
           x="0 17.332031 30.679688 38.671875 52.019531 58.6875 76.019531 84.011719 89.34375 101.34375"
           y="0"
           sodipodi:role="line"
           id="tspan23">Hard Drive</tspan></text>
    </g>
    <path
       id="path25"
       d="m 395,115 h 130 v 60 H 395 Z"
       style="fill:#ffffff;fill-opacity:0.6;fill-rule:nonzero;stroke:#000000;stroke-width:1;stroke-linecap:butt;stroke-linejoin:miter;stroke-miterlimit:10;stroke-dasharray:none;stroke-opacity:0.6"
       transform="scale(0.95930226)"
       clip-path="url(#clipPath26)" />
    <g
       opacity="0.3"
       id="g27"
       clip-path="url(#clipPath28)">
      <text
         xml:space="preserve"
         transform="matrix(0.95931186,0,0,0.95931186,386.25793,146.77472)"
         clip-path="url(#clipPath27)"
         id="text27"><tspan
           style="font-variant:normal;font-weight:normal;font-size:24px;font-family:Helvetica;writing-mode:lr-tb;fill:#000000;fill-opacity:1;fill-rule:nonzero;stroke:none"
           x="0 17.332031 30.679688 38.671875 52.019531 58.6875 76.019531 84.011719 89.34375 101.34375"
           y="0"
           sodipodi:role="line"
           id="tspan27">Hard Drive</tspan></text>
    </g>
    <path
       id="path29"
       d="m 535.01001,115 h 130 v 60 h -130 z"
       style="fill:#ffffff;fill-opacity:0.6;fill-rule:nonzero;stroke:#000000;stroke-width:1;stroke-linecap:butt;stroke-linejoin:miter;stroke-miterlimit:10;stroke-dasharray:none;stroke-opacity:0.6"
       transform="scale(0.95930226)"
       clip-path="url(#clipPath30)" />
    <g
       opacity="0.3"
       id="g31"
       clip-path="url(#clipPath32)">
      <text
         xml:space="preserve"
         transform="matrix(0.95931186,0,0,0.95931186,520.56159,146.77472)"
         clip-path="url(#clipPath31)"
         id="text31"><tspan
           style="font-variant:normal;font-weight:normal;font-size:24px;font-family:Helvetica;writing-mode:lr-tb;fill:#000000;fill-opacity:1;fill-rule:nonzero;stroke:none"
           x="0 17.332031 30.679688 38.671875 52.019531 58.6875 76.019531 84.011719 89.34375 101.34375"
           y="0"
           sodipodi:role="line"
           id="tspan31">Hard Drive</tspan></text>
    </g>
    <path
       id="path33"
       d="m 395,185 h 130 v 60 H 395 Z"
       style="fill:#ffffff;fill-opacity:0.6;fill-rule:nonzero;stroke:#000000;stroke-width:1;stroke-linecap:butt;stroke-linejoin:miter;stroke-miterlimit:10;stroke-dasharray:none;stroke-opacity:0.6"
       transform="scale(0.95930226)"
       clip-path="url(#clipPath34)" />
    <g
       opacity="0.3"
       id="g35"
       clip-path="url(#clipPath36)">
      <text
         xml:space="preserve"
         transform="matrix(0.95931186,0,0,0.95931186,386.25793,213.92655)"
         clip-path="url(#clipPath35)"
         id="text35"><tspan
           style="font-variant:normal;font-weight:normal;font-size:24px;font-family:Helvetica;writing-mode:lr-tb;fill:#000000;fill-opacity:1;fill-rule:nonzero;stroke:none"
           x="0 17.332031 30.679688 38.671875 52.019531 58.6875 76.019531 84.011719 89.34375 101.34375"
           y="0"
           sodipodi:role="line"
           id="tspan35">Hard Drive</tspan></text>
    </g>
    <path
       id="path37"
       d="m 535.01001,185 h 130 v 60 h -130 z"
       style="fill:#ffffff;fill-opacity:0.6;fill-rule:nonzero;stroke:#000000;stroke-width:1;stroke-linecap:butt;stroke-linejoin:miter;stroke-miterlimit:10;stroke-dasharray:none;stroke-opacity:0.6"
       transform="scale(0.95930226)"
       clip-path="url(#clipPath38)" />
    <g
       opacity="0.3"
       id="g39"
       clip-path="url(#clipPath40)">
      <text
         xml:space="preserve"
         transform="matrix(0.95931186,0,0,0.95931186,520.56159,213.92655)"
         clip-path="url(#clipPath39)"
         id="text39"><tspan
           style="font-variant:normal;font-weight:normal;font-size:24px;font-family:Helvetica;writing-mode:lr-tb;fill:#000000;fill-opacity:1;fill-rule:nonzero;stroke:none"
           x="0 17.332031 30.679688 38.671875 52.019531 58.6875 76.019531 84.011719 89.34375 101.34375"
           y="0"
           sodipodi:role="line"
           id="tspan39">Hard Drive</tspan></text>
    </g>
  </g>
</svg>
