<?xml version="1.0" encoding="UTF-8" standalone="no"?>
<!-- Created with Inkscape (http://www.inkscape.org/) -->

<svg
   version="1.1"
   id="svg1"
   width="445.44"
   height="236.16"
   viewBox="0 0 445.44 236.16"
   sodipodi:docname="node-25.pdf"
   xmlns:inkscape="http://www.inkscape.org/namespaces/inkscape"
   xmlns:sodipodi="http://sodipodi.sourceforge.net/DTD/sodipodi-0.dtd"
   xmlns="http://www.w3.org/2000/svg"
   xmlns:svg="http://www.w3.org/2000/svg">
  <defs
     id="defs1">
    <clipPath
       clipPathUnits="userSpaceOnUse"
       id="clipPath2">
      <path
         d="M 0,0 H 1391.6666 V 734.82397 H 0 Z"
         transform="scale(0.3334132)"
         clip-rule="evenodd"
         id="path2" />
    </clipPath>
    <clipPath
       clipPathUnits="userSpaceOnUse"
       id="clipPath4">
      <path
         d="M 0,0 H 1391.6666 V 731.82465 H 0 Z"
         transform="scale(0.3334132)"
         clip-rule="evenodd"
         id="path4" />
    </clipPath>
    <clipPath
       clipPathUnits="userSpaceOnUse"
       id="clipPath5">
      <path
         d="M 0,0 H 1391.6666 V 731.82465 H 0 Z"
         transform="matrix(0.33340986,0,0,0.33340986,-25.421875,-116)"
         clip-rule="evenodd"
         id="path5" />
    </clipPath>
    <clipPath
       clipPathUnits="userSpaceOnUse"
       id="clipPath6">
      <path
         d="M 0,0 H 1391.6666 V 731.82465 H 0 Z"
         transform="matrix(0.33340986,0,0,0.33340986,-11.53125,-140)"
         clip-rule="evenodd"
         id="path6" />
    </clipPath>
    <clipPath
       clipPathUnits="userSpaceOnUse"
       id="clipPath8">
      <path
         d="M 0,0 H 1391.6666 V 731.82465 H 0 Z"
         transform="matrix(0.3334132,0,0,0.3334132,-0.49999999,-0.49999999)"
         clip-rule="evenodd"
         id="path8" />
    </clipPath>
    <clipPath
       clipPathUnits="userSpaceOnUse"
       id="clipPath10">
      <path
         d="M 0,0 H 1391.6666 V 731.82465 H 0 Z"
         transform="matrix(0.3334132,0,0,0.3334132,-0.49999999,-0.49999999)"
         clip-rule="evenodd"
         id="path10" />
    </clipPath>
    <clipPath
       clipPathUnits="userSpaceOnUse"
       id="clipPath12">
      <path
         d="M 0,0 H 1391.6666 V 731.82465 H 0 Z"
         transform="scale(0.3334132)"
         clip-rule="evenodd"
         id="path12" />
    </clipPath>
    <clipPath
       clipPathUnits="userSpaceOnUse"
       id="clipPath13">
      <path
         d="M 0,0 H 1391.6666 V 731.82465 H 0 Z"
         transform="matrix(0.33340986,0,0,0.33340986,-163.20312,-38)"
         clip-rule="evenodd"
         id="path13" />
    </clipPath>
    <clipPath
       clipPathUnits="userSpaceOnUse"
       id="clipPath15">
      <path
         d="M 0,0 H 1391.6666 V 731.82465 H 0 Z"
         transform="matrix(0.3334132,0,0,0.3334132,-0.49999999,-0.49999999)"
         clip-rule="evenodd"
         id="path15" />
    </clipPath>
    <clipPath
       clipPathUnits="userSpaceOnUse"
       id="clipPath17">
      <path
         d="M 0,0 H 1391.6666 V 731.82465 H 0 Z"
         transform="matrix(0.3334132,0,0,0.3334132,-0.49999999,-0.49999999)"
         clip-rule="evenodd"
         id="path17" />
    </clipPath>
    <clipPath
       clipPathUnits="userSpaceOnUse"
       id="clipPath19">
      <path
         d="M 0,0 H 1391.6666 V 731.82465 H 0 Z"
         transform="scale(0.3334132)"
         clip-rule="evenodd"
         id="path19" />
    </clipPath>
    <clipPath
       clipPathUnits="userSpaceOnUse"
       id="clipPath20">
      <path
         d="M 0,0 H 1391.6666 V 731.82465 H 0 Z"
         transform="matrix(0.33340986,0,0,0.33340986,-155.4375,-98)"
         clip-rule="evenodd"
         id="path20" />
    </clipPath>
    <clipPath
       clipPathUnits="userSpaceOnUse"
       id="clipPath22">
      <path
         d="M 0,0 H 1391.6666 V 731.82465 H 0 Z"
         transform="matrix(0.3334132,0,0,0.3334132,-0.49999999,-0.49999999)"
         clip-rule="evenodd"
         id="path22" />
    </clipPath>
    <clipPath
       clipPathUnits="userSpaceOnUse"
       id="clipPath24">
      <path
         d="M 0,0 H 1391.6666 V 731.82465 H 0 Z"
         transform="matrix(0.3334132,0,0,0.3334132,-0.49999999,-0.49999999)"
         clip-rule="evenodd"
         id="path24" />
    </clipPath>
    <clipPath
       clipPathUnits="userSpaceOnUse"
       id="clipPath26">
      <path
         d="M 0,0 H 1391.6666 V 731.82465 H 0 Z"
         transform="scale(0.3334132)"
         clip-rule="evenodd"
         id="path26" />
    </clipPath>
    <clipPath
       clipPathUnits="userSpaceOnUse"
       id="clipPath27">
      <path
         d="M 0,0 H 1391.6666 V 731.82465 H 0 Z"
         transform="matrix(0.33340986,0,0,0.33340986,-138.18749,-158)"
         clip-rule="evenodd"
         id="path27" />
    </clipPath>
    <clipPath
       clipPathUnits="userSpaceOnUse"
       id="clipPath29">
      <path
         d="M 0,0 H 1391.6666 V 731.82465 H 0 Z"
         transform="matrix(0.3334132,0,0,0.3334132,-0.49999999,-0.49999999)"
         clip-rule="evenodd"
         id="path29" />
    </clipPath>
    <clipPath
       clipPathUnits="userSpaceOnUse"
       id="clipPath31">
      <path
         d="M 0,0 H 1391.6666 V 731.82465 H 0 Z"
         transform="matrix(0.3334132,0,0,0.3334132,-0.49999999,-0.49999999)"
         clip-rule="evenodd"
         id="path31" />
    </clipPath>
    <clipPath
       clipPathUnits="userSpaceOnUse"
       id="clipPath33">
      <path
         d="M 0,0 H 1391.6666 V 731.82465 H 0 Z"
         transform="scale(0.3334132)"
         clip-rule="evenodd"
         id="path33" />
    </clipPath>
    <clipPath
       clipPathUnits="userSpaceOnUse"
       id="clipPath34">
      <path
         d="M 0,0 H 1391.6666 V 731.82465 H 0 Z"
         transform="matrix(0.33340986,0,0,0.33340986,-130.98437,-217.99999)"
         clip-rule="evenodd"
         id="path34" />
    </clipPath>
    <clipPath
       clipPathUnits="userSpaceOnUse"
       id="clipPath36">
      <path
         d="M 0,0 H 1391.6666 V 731.82465 H 0 Z"
         transform="scale(0.3334132)"
         clip-rule="evenodd"
         id="path36" />
    </clipPath>
    <clipPath
       clipPathUnits="userSpaceOnUse"
       id="clipPath37">
      <path
         d="M 0,0 H 1391.6666 V 731.82465 H 0 Z"
         transform="matrix(0.33340986,0,0,0.33340986,-364.3125,-38)"
         clip-rule="evenodd"
         id="path37" />
    </clipPath>
    <clipPath
       clipPathUnits="userSpaceOnUse"
       id="clipPath39">
      <path
         d="M 0,0 H 1391.6666 V 731.82465 H 0 Z"
         transform="scale(0.3334132)"
         clip-rule="evenodd"
         id="path39" />
    </clipPath>
    <clipPath
       clipPathUnits="userSpaceOnUse"
       id="clipPath40">
      <path
         d="M 0,0 H 1391.6666 V 731.82465 H 0 Z"
         transform="matrix(0.33340986,0,0,0.33340986,-369.39062,-98)"
         clip-rule="evenodd"
         id="path40" />
    </clipPath>
    <clipPath
       clipPathUnits="userSpaceOnUse"
       id="clipPath42">
      <path
         d="M 0,0 H 1391.6666 V 731.82465 H 0 Z"
         transform="scale(0.3334132)"
         clip-rule="evenodd"
         id="path42" />
    </clipPath>
    <clipPath
       clipPathUnits="userSpaceOnUse"
       id="clipPath43">
      <path
         d="M 0,0 H 1391.6666 V 731.82465 H 0 Z"
         transform="matrix(0.33340986,0,0,0.33340986,-354.375,-158)"
         clip-rule="evenodd"
         id="path43" />
    </clipPath>
    <clipPath
       clipPathUnits="userSpaceOnUse"
       id="clipPath45">
      <path
         d="M 0,0 H 1391.6666 V 731.82465 H 0 Z"
         transform="scale(0.3334132)"
         clip-rule="evenodd"
         id="path45" />
    </clipPath>
    <clipPath
       clipPathUnits="userSpaceOnUse"
       id="clipPath46">
      <path
         d="M 0,0 H 1391.6666 V 731.82465 H 0 Z"
         transform="matrix(0.33340986,0,0,0.33340986,-324.92187,-217.99999)"
         clip-rule="evenodd"
         id="path46" />
    </clipPath>
  </defs>
  <sodipodi:namedview
     id="namedview1"
     pagecolor="#ffffff"
     bordercolor="#000000"
     borderopacity="0.25"
     inkscape:showpageshadow="2"
     inkscape:pageopacity="0.0"
     inkscape:pagecheckerboard="0"
     inkscape:deskcolor="#d1d1d1">
    <inkscape:page
       x="0"
       y="0"
       inkscape:label="1"
       id="page1"
       width="445.44"
       height="236.16"
       margin="0"
       bleed="0" />
  </sodipodi:namedview>
  <g
     id="g1"
     inkscape:groupmode="layer"
     inkscape:label="1">
    <path
       id="path1"
       d="M 0,0 H 464 V 245 H 0 Z"
       style="fill:#ffffff;fill-opacity:1;fill-rule:nonzero;stroke:none"
       transform="scale(0.95977001)"
       clip-path="url(#clipPath2)" />
    <path
       id="path3"
       d="M 1,1 H 111 V 241 H 1 Z"
       style="fill:#f5f5f5;fill-opacity:1;fill-rule:nonzero;stroke:#666666;stroke-width:1;stroke-linecap:butt;stroke-linejoin:miter;stroke-miterlimit:10;stroke-dasharray:none;stroke-opacity:1"
       transform="scale(0.95977001)"
       clip-path="url(#clipPath4)" />
    <text
       id="text4"
       xml:space="preserve"
       transform="matrix(0.95977961,0,0,0.95977961,24.399397,111.33443)"
       clip-path="url(#clipPath5)"><tspan
         style="font-variant:normal;font-weight:normal;font-size:20px;font-family:Helvetica;writing-mode:lr-tb;fill:#000000;fill-opacity:1;fill-rule:nonzero;stroke:none"
         x="0 13.339844 17.783203 28.90625 40.029297 45.585938 50.029297"
         y="0"
         sodipodi:role="line"
         id="tspan4">Blog in</tspan></text>
    <text
       id="text5"
       xml:space="preserve"
       transform="matrix(0.95977961,0,0,0.95977961,11.067459,134.36915)"
       clip-path="url(#clipPath6)"><tspan
         style="font-variant:normal;font-weight:normal;font-size:20px;font-family:Helvetica;writing-mode:lr-tb;fill:#000000;fill-opacity:1;fill-rule:nonzero;stroke:none"
         x="0 16.660156 27.783203 38.90625 50.029297 61.152344 75.595703"
         y="0"
         sodipodi:role="line"
         id="tspan5">MongoDB</tspan></text>
    <path
       id="path7"
       d="m 231,31 h 59.89999"
       style="fill:none;stroke:#000000;stroke-width:1;stroke-linecap:butt;stroke-linejoin:miter;stroke-miterlimit:10;stroke-dasharray:none;stroke-opacity:1"
       transform="matrix(0.95977001,0,0,0.95977001,0.479885,0.479885)"
       clip-path="url(#clipPath8)" />
    <path
       id="path9"
       d="m 297.64999,31 -9,4.5 2.25,-4.5 -2.25,-4.5 z"
       style="fill:#000000;fill-opacity:1;fill-rule:nonzero;stroke:#000000;stroke-width:1;stroke-linecap:butt;stroke-linejoin:miter;stroke-miterlimit:10;stroke-dasharray:none;stroke-opacity:1"
       transform="matrix(0.95977001,0,0,0.95977001,0.479885,0.479885)"
       clip-path="url(#clipPath10)" />
    <path
       id="path11"
       d="M 111,1 H 231 V 61 H 111 Z"
       style="fill:#dae8fc;fill-opacity:1;fill-rule:nonzero;stroke:#6c8ebf;stroke-width:1;stroke-linecap:butt;stroke-linejoin:miter;stroke-miterlimit:10;stroke-dasharray:none;stroke-opacity:1"
       transform="scale(0.95977001)"
       clip-path="url(#clipPath12)" />
    <text
       id="text12"
       xml:space="preserve"
       transform="matrix(0.95977961,0,0,0.95977961,156.63903,36.471625)"
       clip-path="url(#clipPath13)"><tspan
         style="font-variant:normal;font-weight:normal;font-size:20px;font-family:Helvetica;writing-mode:lr-tb;fill:#000000;fill-opacity:1;fill-rule:nonzero;stroke:none"
         x="0 4.4433594"
         y="0"
         sodipodi:role="line"
         id="tspan12">id</tspan></text>
    <path
       id="path14"
       d="m 231,91 h 59.89999"
       style="fill:none;stroke:#000000;stroke-width:1;stroke-linecap:butt;stroke-linejoin:miter;stroke-miterlimit:10;stroke-dasharray:none;stroke-opacity:1"
       transform="matrix(0.95977001,0,0,0.95977001,0.479885,0.479885)"
       clip-path="url(#clipPath15)" />
    <path
       id="path16"
       d="m 297.64999,91 -9,4.5 2.25,-4.5 -2.25,-4.5 z"
       style="fill:#000000;fill-opacity:1;fill-rule:nonzero;stroke:#000000;stroke-width:1;stroke-linecap:butt;stroke-linejoin:miter;stroke-miterlimit:10;stroke-dasharray:none;stroke-opacity:1"
       transform="matrix(0.95977001,0,0,0.95977001,0.479885,0.479885)"
       clip-path="url(#clipPath17)" />
    <path
       id="path18"
       d="m 111,61 h 120 v 60 H 111 Z"
       style="fill:#dae8fc;fill-opacity:1;fill-rule:nonzero;stroke:#6c8ebf;stroke-width:1;stroke-linecap:butt;stroke-linejoin:miter;stroke-miterlimit:10;stroke-dasharray:none;stroke-opacity:1"
       transform="scale(0.95977001)"
       clip-path="url(#clipPath19)" />
    <text
       id="text19"
       xml:space="preserve"
       transform="matrix(0.95977961,0,0,0.95977961,149.18574,94.058402)"
       clip-path="url(#clipPath20)"><tspan
         style="font-variant:normal;font-weight:normal;font-size:20px;font-family:Helvetica;writing-mode:lr-tb;fill:#000000;fill-opacity:1;fill-rule:nonzero;stroke:none"
         x="0 5.5566406 10 15.556641 20"
         y="0"
         sodipodi:role="line"
         id="tspan19">title</tspan></text>
    <path
       id="path21"
       d="m 231,151 h 59.89999"
       style="fill:none;stroke:#000000;stroke-width:1;stroke-linecap:butt;stroke-linejoin:miter;stroke-miterlimit:10;stroke-dasharray:none;stroke-opacity:1"
       transform="matrix(0.95977001,0,0,0.95977001,0.479885,0.479885)"
       clip-path="url(#clipPath22)" />
    <path
       id="path23"
       d="m 297.64999,151 -9,4.5 2.25,-4.5 -2.25,-4.5 z"
       style="fill:#000000;fill-opacity:1;fill-rule:nonzero;stroke:#000000;stroke-width:1;stroke-linecap:butt;stroke-linejoin:miter;stroke-miterlimit:10;stroke-dasharray:none;stroke-opacity:1"
       transform="matrix(0.95977001,0,0,0.95977001,0.479885,0.479885)"
       clip-path="url(#clipPath24)" />
    <path
       id="path25"
       d="m 111,121 h 120 v 60 H 111 Z"
       style="fill:#dae8fc;fill-opacity:1;fill-rule:nonzero;stroke:#6c8ebf;stroke-width:1;stroke-linecap:butt;stroke-linejoin:miter;stroke-miterlimit:10;stroke-dasharray:none;stroke-opacity:1"
       transform="scale(0.95977001)"
       clip-path="url(#clipPath26)" />
    <text
       id="text26"
       xml:space="preserve"
       transform="matrix(0.95977961,0,0,0.95977961,132.62954,151.64518)"
       clip-path="url(#clipPath27)"><tspan
         style="font-variant:normal;font-weight:normal;font-size:20px;font-family:Helvetica;writing-mode:lr-tb;fill:#000000;fill-opacity:1;fill-rule:nonzero;stroke:none"
         x="0 10 21.123047 32.246094 37.802734 48.925781 60.048828"
         y="0"
         sodipodi:role="line"
         id="tspan26">content</tspan></text>
    <path
       id="path28"
       d="m 231,211 h 59.89999"
       style="fill:none;stroke:#000000;stroke-width:1;stroke-linecap:butt;stroke-linejoin:miter;stroke-miterlimit:10;stroke-dasharray:none;stroke-opacity:1"
       transform="matrix(0.95977001,0,0,0.95977001,0.479885,0.479885)"
       clip-path="url(#clipPath29)" />
    <path
       id="path30"
       d="m 297.64999,211 -9,4.5 2.25,-4.5 -2.25,-4.5 z"
       style="fill:#000000;fill-opacity:1;fill-rule:nonzero;stroke:#000000;stroke-width:1;stroke-linecap:butt;stroke-linejoin:miter;stroke-miterlimit:10;stroke-dasharray:none;stroke-opacity:1"
       transform="matrix(0.95977001,0,0,0.95977001,0.479885,0.479885)"
       clip-path="url(#clipPath31)" />
    <path
       id="path32"
       d="m 111,181 h 120 v 60 H 111 Z"
       style="fill:#dae8fc;fill-opacity:1;fill-rule:nonzero;stroke:#6c8ebf;stroke-width:1;stroke-linecap:butt;stroke-linejoin:miter;stroke-miterlimit:10;stroke-dasharray:none;stroke-opacity:1"
       transform="scale(0.95977001)"
       clip-path="url(#clipPath33)" />
    <text
       id="text33"
       xml:space="preserve"
       transform="matrix(0.95977961,0,0,0.95977961,125.71613,209.23195)"
       clip-path="url(#clipPath34)"><tspan
         style="font-variant:normal;font-weight:normal;font-size:20px;font-family:Helvetica;writing-mode:lr-tb;fill:#000000;fill-opacity:1;fill-rule:nonzero;stroke:none"
         x="0 4.4433594 21.103516 32.226562 43.349609 54.472656 68.916016 75.576172"
         y="0"
         sodipodi:role="line"
         id="tspan33">imageUrl</tspan></text>
    <path
       id="path35"
       d="M 301,1 H 461 V 61 H 301 Z"
       style="fill:#d5e8d4;fill-opacity:1;fill-rule:nonzero;stroke:#82b366;stroke-width:1;stroke-linecap:butt;stroke-linejoin:miter;stroke-miterlimit:10;stroke-dasharray:none;stroke-opacity:1"
       transform="scale(0.95977001)"
       clip-path="url(#clipPath36)" />
    <text
       id="text36"
       xml:space="preserve"
       transform="matrix(0.95977961,0,0,0.95977961,349.65971,36.471625)"
       clip-path="url(#clipPath37)"><tspan
         style="font-variant:normal;font-weight:normal;font-size:20px;font-family:Helvetica;writing-mode:lr-tb;fill:#000000;fill-opacity:1;fill-rule:nonzero;stroke:none"
         x="0 11.123047 22.246094"
         y="0"
         sodipodi:role="line"
         id="tspan36">123</tspan></text>
    <path
       id="path38"
       d="m 301,61 h 160 v 60 H 301 Z"
       style="fill:#d5e8d4;fill-opacity:1;fill-rule:nonzero;stroke:#82b366;stroke-width:1;stroke-linecap:butt;stroke-linejoin:miter;stroke-miterlimit:10;stroke-dasharray:none;stroke-opacity:1"
       transform="scale(0.95977001)"
       clip-path="url(#clipPath39)" />
    <text
       id="text39"
       xml:space="preserve"
       transform="matrix(0.95977961,0,0,0.95977961,354.53359,94.058402)"
       clip-path="url(#clipPath40)"><tspan
         style="font-variant:normal;font-weight:normal;font-size:20px;font-family:Helvetica;writing-mode:lr-tb;fill:#000000;fill-opacity:1;fill-rule:nonzero;stroke:none"
         x="0 3.8183594 14.941406 19.384766"
         y="0"
         sodipodi:role="line"
         id="tspan39">'hi'</tspan></text>
    <path
       id="path41"
       d="m 301,121 h 160 v 60 H 301 Z"
       style="fill:#d5e8d4;fill-opacity:1;fill-rule:nonzero;stroke:#82b366;stroke-width:1;stroke-linecap:butt;stroke-linejoin:miter;stroke-miterlimit:10;stroke-dasharray:none;stroke-opacity:1"
       transform="scale(0.95977001)"
       clip-path="url(#clipPath42)" />
    <text
       id="text42"
       xml:space="preserve"
       transform="matrix(0.95977961,0,0,0.95977961,340.1219,151.64518)"
       clip-path="url(#clipPath43)"><tspan
         style="font-variant:normal;font-weight:normal;font-size:20px;font-family:Helvetica;writing-mode:lr-tb;fill:#000000;fill-opacity:1;fill-rule:nonzero;stroke:none"
         x="0 3.8183594 9.375 20.498047 31.621094 38.28125 49.404297"
         y="0"
         sodipodi:role="line"
         id="tspan42">'there'</tspan></text>
    <path
       id="path44"
       d="m 301,181 h 160 v 60 H 301 Z"
       style="fill:#d5e8d4;fill-opacity:1;fill-rule:nonzero;stroke:#82b366;stroke-width:1;stroke-linecap:butt;stroke-linejoin:miter;stroke-miterlimit:10;stroke-dasharray:none;stroke-opacity:1"
       transform="scale(0.95977001)"
       clip-path="url(#clipPath45)" />
    <text
       id="text45"
       xml:space="preserve"
       transform="matrix(0.95977961,0,0,0.95977961,311.85339,209.23195)"
       clip-path="url(#clipPath46)"><tspan
         style="font-variant:normal;font-weight:normal;font-size:20px;font-family:Helvetica;writing-mode:lr-tb;fill:#000000;fill-opacity:1;fill-rule:nonzero;stroke:none"
         x="0 3.8183594 8.2617188 24.921875 36.044922 42.705078 53.828125 64.951172 76.074219 81.630859 86.074219 97.197266 108.32031"
         y="0"
         sodipodi:role="line"
         id="tspan45">'img-001.jpg'</tspan></text>
  </g>
</svg>
