<?xml version="1.0" encoding="UTF-8" standalone="no"?>
<!-- Created with Inkscape (http://www.inkscape.org/) -->

<svg
   version="1.1"
   id="svg1"
   width="616"
   height="281.28"
   viewBox="0 0 616 281.28"
   sodipodi:docname="node-3.pdf"
   xmlns:inkscape="http://www.inkscape.org/namespaces/inkscape"
   xmlns:sodipodi="http://sodipodi.sourceforge.net/DTD/sodipodi-0.dtd"
   xmlns="http://www.w3.org/2000/svg"
   xmlns:svg="http://www.w3.org/2000/svg">
  <defs
     id="defs1">
    <clipPath
       clipPathUnits="userSpaceOnUse"
       id="clipPath2">
      <path
         d="M 0,0 H 1924.9999 V 878.80432 H 0 Z"
         transform="scale(0.33454547)"
         clip-rule="evenodd"
         id="path2" />
    </clipPath>
    <clipPath
       clipPathUnits="userSpaceOnUse"
       id="clipPath4">
      <path
         d="M 0,0 H 1924.9999 V 872.82605 H 0 Z"
         transform="matrix(0.33454547,0,0,0.33454547,-0.49999999,-0.49999999)"
         clip-rule="evenodd"
         id="path4" />
    </clipPath>
    <clipPath
       clipPathUnits="userSpaceOnUse"
       id="clipPath6">
      <path
         d="M 0,0 H 1924.9999 V 872.82605 H 0 Z"
         transform="matrix(0.33454547,0,0,0.33454547,-0.49999999,-0.49999999)"
         clip-rule="evenodd"
         id="path6" />
    </clipPath>
    <clipPath
       clipPathUnits="userSpaceOnUse"
       id="clipPath8">
      <path
         d="M 0,0 H 1924.9999 V 872.82605 H 0 Z"
         transform="matrix(0.33454547,0,0,0.33454547,-0.49999999,-0.49999999)"
         clip-rule="evenodd"
         id="path8" />
    </clipPath>
    <clipPath
       clipPathUnits="userSpaceOnUse"
       id="clipPath10">
      <path
         d="M 0,0 H 1924.9999 V 872.82605 H 0 Z"
         transform="matrix(0.33454547,0,0,0.33454547,-0.49999999,-0.49999999)"
         clip-rule="evenodd"
         id="path10" />
    </clipPath>
    <clipPath
       clipPathUnits="userSpaceOnUse"
       id="clipPath12">
      <path
         d="M 0,0 H 1924.9999 V 872.82605 H 0 Z"
         transform="matrix(0.33454547,0,0,0.33454547,-0.49999999,-0.49999999)"
         clip-rule="evenodd"
         id="path12" />
    </clipPath>
    <clipPath
       clipPathUnits="userSpaceOnUse"
       id="clipPath14">
      <path
         d="M 0,0 H 1924.9999 V 872.82605 H 0 Z"
         transform="matrix(0.33454547,0,0,0.33454547,-0.49999999,-0.49999999)"
         clip-rule="evenodd"
         id="path14" />
    </clipPath>
    <clipPath
       clipPathUnits="userSpaceOnUse"
       id="clipPath16">
      <path
         d="M 0,0 H 1924.9999 V 872.82605 H 0 Z"
         transform="matrix(0.33454547,0,0,0.33454547,-0.49999999,-0.49999999)"
         clip-rule="evenodd"
         id="path16" />
    </clipPath>
    <clipPath
       clipPathUnits="userSpaceOnUse"
       id="clipPath18">
      <path
         d="M 0,0 H 1924.9999 V 872.82605 H 0 Z"
         transform="matrix(0.33454547,0,0,0.33454547,-0.49999999,-0.49999999)"
         clip-rule="evenodd"
         id="path18" />
    </clipPath>
    <clipPath
       clipPathUnits="userSpaceOnUse"
       id="clipPath20">
      <path
         d="M 0,0 H 1924.9999 V 872.82605 H 0 Z"
         transform="matrix(0.33454547,0,0,0.33454547,-0.49999999,-0.49999999)"
         clip-rule="evenodd"
         id="path20" />
    </clipPath>
    <clipPath
       clipPathUnits="userSpaceOnUse"
       id="clipPath22">
      <path
         d="M 0,0 H 1924.9999 V 872.82605 H 0 Z"
         transform="matrix(0.33454547,0,0,0.33454547,-0.49999999,-0.49999999)"
         clip-rule="evenodd"
         id="path22" />
    </clipPath>
    <clipPath
       clipPathUnits="userSpaceOnUse"
       id="clipPath24">
      <path
         d="M 0,0 H 1924.9999 V 872.82605 H 0 Z"
         transform="matrix(0.33454547,0,0,0.33454547,-0.49999999,-0.49999999)"
         clip-rule="evenodd"
         id="path24" />
    </clipPath>
    <clipPath
       clipPathUnits="userSpaceOnUse"
       id="clipPath26">
      <path
         d="M 0,0 H 1924.9999 V 872.82605 H 0 Z"
         transform="matrix(0.33454547,0,0,0.33454547,-0.49999999,-0.49999999)"
         clip-rule="evenodd"
         id="path26" />
    </clipPath>
    <clipPath
       clipPathUnits="userSpaceOnUse"
       id="clipPath28">
      <path
         d="M 0,0 H 1924.9999 V 872.82605 H 0 Z"
         transform="matrix(0.33454547,0,0,0.33454547,-0.49999999,-0.49999999)"
         clip-rule="evenodd"
         id="path28" />
    </clipPath>
    <clipPath
       clipPathUnits="userSpaceOnUse"
       id="clipPath30">
      <path
         d="M 0,0 H 1924.9999 V 872.82605 H 0 Z"
         transform="matrix(0.33454547,0,0,0.33454547,-0.49999999,-0.49999999)"
         clip-rule="evenodd"
         id="path30" />
    </clipPath>
    <clipPath
       clipPathUnits="userSpaceOnUse"
       id="clipPath31">
      <path
         d="M 0,0 H 1924.9999 V 872.82605 H 0 Z"
         transform="matrix(0.33454211,0,0,0.33454211,-63,-111)"
         clip-rule="evenodd"
         id="path31" />
    </clipPath>
    <clipPath
       clipPathUnits="userSpaceOnUse"
       id="clipPath32">
      <path
         d="M 0,0 H 1924.9999 V 872.82605 H 0 Z"
         transform="matrix(0.33454211,0,0,0.33454211,-133,-159)"
         clip-rule="evenodd"
         id="path32" />
    </clipPath>
    <clipPath
       clipPathUnits="userSpaceOnUse"
       id="clipPath34">
      <path
         d="M 0,0 H 1924.9999 V 872.82605 H 0 Z"
         transform="scale(0.33454547)"
         clip-rule="evenodd"
         id="path34" />
    </clipPath>
    <clipPath
       clipPathUnits="userSpaceOnUse"
       id="clipPath35">
      <path
         d="M 0,0 H 1924.9999 V 872.82605 H 0 Z"
         transform="matrix(0.33454211,0,0,0.33454211,-517.42188,-197)"
         clip-rule="evenodd"
         id="path35" />
    </clipPath>
    <clipPath
       clipPathUnits="userSpaceOnUse"
       id="clipPath37">
      <path
         d="M 0,0 H 1924.9999 V 872.82605 H 0 Z"
         transform="matrix(0.33454547,0,0,0.33454547,-0.49999999,-0.49999999)"
         clip-rule="evenodd"
         id="path37" />
    </clipPath>
    <clipPath
       clipPathUnits="userSpaceOnUse"
       id="clipPath39">
      <path
         d="M 0,0 H 1924.9999 V 872.82605 H 0 Z"
         transform="matrix(0.33454547,0,0,0.33454547,-0.49999999,-0.49999999)"
         clip-rule="evenodd"
         id="path39" />
    </clipPath>
    <clipPath
       clipPathUnits="userSpaceOnUse"
       id="clipPath41">
      <path
         d="M 0,0 H 1924.9999 V 872.82605 H 0 Z"
         transform="scale(0.33454547)"
         clip-rule="evenodd"
         id="path41" />
    </clipPath>
    <clipPath
       clipPathUnits="userSpaceOnUse"
       id="clipPath42">
      <path
         d="M 0,0 H 1924.9999 V 872.82605 H 0 Z"
         transform="matrix(0.33454211,0,0,0.33454211,-373.76563,-184)"
         clip-rule="evenodd"
         id="path42" />
    </clipPath>
    <clipPath
       clipPathUnits="userSpaceOnUse"
       id="clipPath43">
      <path
         d="M 0,0 H 1924.9999 V 872.82605 H 0 Z"
         transform="matrix(0.33454211,0,0,0.33454211,-385.8125,-24)"
         clip-rule="evenodd"
         id="path43" />
    </clipPath>
    <clipPath
       clipPathUnits="userSpaceOnUse"
       id="clipPath44">
      <path
         d="M 0,0 H 1924.9999 V 872.82605 H 0 Z"
         transform="matrix(0.33454211,0,0,0.33454211,-377.84375,-55.999999)"
         clip-rule="evenodd"
         id="path44" />
    </clipPath>
  </defs>
  <sodipodi:namedview
     id="namedview1"
     pagecolor="#ffffff"
     bordercolor="#000000"
     borderopacity="0.25"
     inkscape:showpageshadow="2"
     inkscape:pageopacity="0.0"
     inkscape:pagecheckerboard="0"
     inkscape:deskcolor="#d1d1d1">
    <inkscape:page
       x="0"
       y="0"
       inkscape:label="1"
       id="page1"
       width="616"
       height="281.28"
       margin="0"
       bleed="0" />
  </sodipodi:namedview>
  <g
     id="g1"
     inkscape:groupmode="layer"
     inkscape:label="1">
    <path
       id="path1"
       d="M 0,0 H 644 V 294 H 0 Z"
       style="fill:#ffffff;fill-opacity:1;fill-rule:nonzero;stroke:none"
       transform="scale(0.95652166)"
       clip-path="url(#clipPath2)" />
    <path
       id="path3"
       d="M 1,80 H 321 V 290 H 1 Z"
       style="fill:#ffffff;fill-opacity:1;fill-rule:nonzero;stroke:#666666;stroke-width:1;stroke-linecap:butt;stroke-linejoin:miter;stroke-miterlimit:10;stroke-dasharray:none;stroke-opacity:1"
       transform="matrix(0.95652166,0,0,0.95652166,0.47826082,0.47826082)"
       clip-path="url(#clipPath4)" />
    <path
       id="path5"
       d="m 266.00009,95 c -3e-5,0.656609 -0.0641,1.306915 -0.19217,1.95092 -0.12811,0.643997 -0.31781,1.26931 -0.56909,1.875946 -0.25125,0.606636 -0.5593,1.182934 -0.92407,1.728884 -0.36478,0.54595 -0.77933,1.05108 -1.24365,1.51539 -0.4643,0.46429 -0.96943,0.87883 -1.51542,1.24363 -0.54595,0.36479 -1.12225,0.67283 -1.72888,0.9241 -0.60663,0.25127 -1.23193,0.44096 -1.87594,0.56907 -0.64399,0.1281 -1.29428,0.19215 -1.95087,0.19216 -0.65663,-1e-5 -1.30695,-0.0641 -1.95094,-0.19216 -0.644,-0.1281 -1.26932,-0.31779 -1.87596,-0.56906 -0.60665,-0.25128 -1.18294,-0.55931 -1.7289,-0.92411 -0.54595,-0.3648 -1.05107,-0.77934 -1.51537,-1.24363 -0.46429,-0.46431 -0.87884,-0.96944 -1.24363,-1.51539 -0.36481,-0.54596 -0.67286,-1.122255 -0.92412,-1.728891 -0.25127,-0.606637 -0.44095,-1.231949 -0.56905,-1.875947 -0.1281,-0.643997 -0.19215,-1.294303 -0.19214,-1.950912 -1e-5,-0.656624 0.064,-1.306931 0.19214,-1.950935 0.1281,-0.643998 0.31778,-1.26931 0.56905,-1.875946 0.25128,-0.606636 0.55932,-1.18293 0.92412,-1.728882 0.36479,-0.545952 0.77934,-1.051079 1.24365,-1.515381 0.46429,-0.464302 0.9694,-0.878845 1.51535,-1.243637 0.54596,-0.3648 1.12225,-0.672836 1.7289,-0.924111 0.60664,-0.251274 1.23196,-0.440963 1.87596,-0.569061 0.64399,-0.128097 1.29431,-0.192146 1.95094,-0.192146 0.65659,0 1.30688,0.06405 1.9509,0.192146 0.64398,0.128098 1.26928,0.317787 1.87594,0.569061 0.60663,0.251275 1.18293,0.559311 1.72885,0.924111 0.54599,0.364792 1.05112,0.779335 1.51542,1.243637 0.46432,0.464302 0.87887,0.969429 1.24365,1.515381 0.36477,0.545952 0.67282,1.122246 0.9241,1.728882 0.25125,0.606636 0.44095,1.231948 0.56906,1.875946 0.12808,0.644004 0.19214,1.294311 0.19217,1.950935 z"
       style="fill:none;stroke:#666666;stroke-width:1;stroke-linecap:butt;stroke-linejoin:miter;stroke-miterlimit:10;stroke-dasharray:none;stroke-opacity:1"
       transform="matrix(0.95652166,0,0,0.95652166,0.47826082,0.47826082)"
       clip-path="url(#clipPath6)" />
    <path
       id="path7"
       d="m 291.00012,95 c -3e-5,0.656609 -0.0641,1.306915 -0.1922,1.95092 -0.12808,0.643997 -0.31778,1.26931 -0.56906,1.875946 -0.25128,0.606636 -0.55933,1.182934 -0.9241,1.728884 -0.36478,0.54595 -0.77933,1.05108 -1.24362,1.51539 -0.46433,0.46429 -0.96946,0.87883 -1.51541,1.24363 -0.54593,0.36479 -1.12223,0.67283 -1.72889,0.9241 -0.60663,0.25127 -1.23193,0.44096 -1.87594,0.56907 -0.64402,0.1281 -1.29431,0.19215 -1.9509,0.19216 -0.65665,-1e-5 -1.30695,-0.0641 -1.95096,-0.19216 -0.64401,-0.1281 -1.26932,-0.31779 -1.87594,-0.56906 -0.60666,-0.25128 -1.18296,-0.55931 -1.72889,-0.92411 -0.54596,-0.3648 -1.05108,-0.77934 -1.51538,-1.24363 -0.46429,-0.46431 -0.87884,-0.96944 -1.24362,-1.51539 -0.36478,-0.54596 -0.67282,-1.122255 -0.92413,-1.728891 -0.25125,-0.606637 -0.44095,-1.231949 -0.56903,-1.875947 -0.12812,-0.643997 -0.19217,-1.294303 -0.19214,-1.950912 -3e-5,-0.656624 0.064,-1.306931 0.19214,-1.950935 0.12808,-0.643998 0.31778,-1.26931 0.56903,-1.875946 0.25131,-0.606636 0.55935,-1.18293 0.92413,-1.728882 0.36481,-0.545952 0.77936,-1.051079 1.24365,-1.515381 0.4643,-0.464302 0.96942,-0.878845 1.51535,-1.243637 0.54593,-0.3648 1.12223,-0.672836 1.72889,-0.924111 0.60662,-0.251274 1.23193,-0.440963 1.87594,-0.569061 0.64401,-0.128097 1.29431,-0.192146 1.95096,-0.192146 0.65659,0 1.30688,0.06405 1.9509,0.192146 0.64401,0.128098 1.26931,0.317787 1.87594,0.569061 0.60666,0.251275 1.18296,0.559311 1.72892,0.924111 0.54592,0.364792 1.05105,0.779335 1.51538,1.243637 0.46429,0.464302 0.87884,0.969429 1.24362,1.515381 0.36477,0.545952 0.67282,1.122246 0.9241,1.728882 0.25128,0.606636 0.44098,1.231948 0.56906,1.875946 0.12812,0.644004 0.19217,1.294311 0.1922,1.950935 z"
       style="fill:none;stroke:#666666;stroke-width:1;stroke-linecap:butt;stroke-linejoin:miter;stroke-miterlimit:10;stroke-dasharray:none;stroke-opacity:1"
       transform="matrix(0.95652166,0,0,0.95652166,0.47826082,0.47826082)"
       clip-path="url(#clipPath8)" />
    <path
       id="path9"
       d="m 316.00012,95 c -3e-5,0.656609 -0.0641,1.306915 -0.19217,1.95092 -0.12811,0.643997 -0.31781,1.26931 -0.56906,1.875946 -0.25128,0.606636 -0.55932,1.182934 -0.92413,1.728884 -0.36478,0.54595 -0.77933,1.05108 -1.24359,1.51539 -0.46433,0.46429 -0.96945,0.87883 -1.51541,1.24363 -0.54596,0.36479 -1.12226,0.67283 -1.72892,0.9241 -0.60663,0.25127 -1.23193,0.44096 -1.87594,0.56907 -0.64402,0.1281 -1.29431,0.19215 -1.9509,0.19216 -0.65662,-1e-5 -1.30692,-0.0641 -1.95093,-0.19216 -0.64401,-0.1281 -1.26932,-0.31779 -1.87597,-0.56906 -0.60663,-0.25128 -1.18293,-0.55931 -1.72889,-0.92411 -0.54596,-0.3648 -1.05108,-0.77934 -1.51538,-1.24363 -0.46429,-0.46431 -0.87884,-0.96944 -1.24365,-1.51539 -0.36481,-0.54596 -0.67285,-1.122255 -0.9241,-1.728891 -0.25128,-0.606637 -0.44098,-1.231949 -0.56906,-1.875947 -0.12809,-0.643997 -0.19211,-1.294303 -0.19211,-1.950912 0,-0.656624 0.064,-1.306931 0.19211,-1.950935 0.12808,-0.643998 0.31778,-1.26931 0.56906,-1.875946 0.25125,-0.606636 0.55929,-1.18293 0.9241,-1.728882 0.36484,-0.545952 0.77939,-1.051079 1.24368,-1.515381 0.4643,-0.464302 0.96942,-0.878845 1.51535,-1.243637 0.54596,-0.3648 1.12226,-0.672836 1.72889,-0.924111 0.60665,-0.251274 1.23196,-0.440963 1.87597,-0.569061 0.64401,-0.128097 1.29431,-0.192146 1.95093,-0.192146 0.65659,0 1.30688,0.06405 1.9509,0.192146 0.64401,0.128098 1.26931,0.317787 1.87594,0.569061 0.60666,0.251275 1.18296,0.559311 1.72892,0.924111 0.54596,0.364792 1.05108,0.779335 1.51541,1.243637 0.46426,0.464302 0.87881,0.969429 1.24359,1.515381 0.36481,0.545952 0.67285,1.122246 0.92413,1.728882 0.25125,0.606636 0.44095,1.231948 0.56906,1.875946 0.12809,0.644004 0.19214,1.294311 0.19217,1.950935 z"
       style="fill:none;stroke:#008cff;stroke-width:1;stroke-linecap:butt;stroke-linejoin:miter;stroke-miterlimit:10;stroke-dasharray:none;stroke-opacity:1"
       transform="matrix(0.95652166,0,0,0.95652166,0.47826082,0.47826082)"
       clip-path="url(#clipPath10)" />
    <path
       id="path11"
       d="M 1,120 H 31 V 95 c 0,-2.760002 2.240002,-5 5,-5 h 135 c 2.75999,0 5,2.239998 5,5 v 25 h 145"
       style="fill:none;stroke:#c4c4c4;stroke-width:1;stroke-linecap:butt;stroke-linejoin:miter;stroke-miterlimit:10;stroke-dasharray:none;stroke-opacity:1"
       transform="matrix(0.95652166,0,0,0.95652166,0.47826082,0.47826082)"
       clip-path="url(#clipPath12)" />
    <path
       id="path13"
       d="M 1,190 H 321"
       style="fill:none;stroke:#c4c4c4;stroke-width:1;stroke-linecap:butt;stroke-linejoin:miter;stroke-miterlimit:10;stroke-dasharray:none;stroke-opacity:1"
       transform="matrix(0.95652166,0,0,0.95652166,0.47826082,0.47826082)"
       clip-path="url(#clipPath14)" />
    <path
       id="path15"
       d="m 101,140 c 0,-2.76 2.24,-5 5,-5 h 200 c 2.76001,0 5,2.24 5,5 v 25 c 0,2.75999 -2.23999,5 -5,5 H 106 c -2.76,0 -5,-2.24001 -5,-5 z"
       style="fill:none;stroke:#c4c4c4;stroke-width:1;stroke-linecap:butt;stroke-linejoin:miter;stroke-miterlimit:10;stroke-dasharray:none;stroke-opacity:1"
       transform="matrix(0.95652166,0,0,0.95652166,0.47826082,0.47826082)"
       clip-path="url(#clipPath16)" />
    <path
       id="path17"
       d="m 38,97 h 11 l 4,4 v 14 H 38 Z"
       style="fill:none;stroke:#c4c4c4;stroke-width:1;stroke-linecap:butt;stroke-linejoin:miter;stroke-miterlimit:10;stroke-dasharray:none;stroke-opacity:1"
       transform="matrix(0.95652166,0,0,0.95652166,0.47826082,0.47826082)"
       clip-path="url(#clipPath18)" />
    <path
       id="path19"
       d="m 49,97 v 4 l 4,1"
       style="fill:none;stroke:#c4c4c4;stroke-width:1;stroke-linecap:butt;stroke-linejoin:miter;stroke-miterlimit:10;stroke-dasharray:none;stroke-opacity:1"
       transform="matrix(0.95652166,0,0,0.95652166,0.47826082,0.47826082)"
       clip-path="url(#clipPath20)" />
    <path
       id="path21"
       d="m 108,144 h 11 l 4,4 v 14 h -15 z"
       style="fill:none;stroke:#c4c4c4;stroke-width:1;stroke-linecap:butt;stroke-linejoin:miter;stroke-miterlimit:10;stroke-dasharray:none;stroke-opacity:1"
       transform="matrix(0.95652166,0,0,0.95652166,0.47826082,0.47826082)"
       clip-path="url(#clipPath22)" />
    <path
       id="path23"
       d="m 119,144 v 4 l 4,1"
       style="fill:none;stroke:#c4c4c4;stroke-width:1;stroke-linecap:butt;stroke-linejoin:miter;stroke-miterlimit:10;stroke-dasharray:none;stroke-opacity:1"
       transform="matrix(0.95652166,0,0,0.95652166,0.47826082,0.47826082)"
       clip-path="url(#clipPath24)" />
    <path
       id="path25"
       d="m 13,154 10,-10 v 6 h 10 v 8 H 23 v 6 z"
       style="fill:#c4c4c4;fill-opacity:1;fill-rule:nonzero;stroke:#c4c4c4;stroke-width:1;stroke-linecap:butt;stroke-linejoin:miter;stroke-miterlimit:10;stroke-dasharray:none;stroke-opacity:1"
       transform="matrix(0.95652166,0,0,0.95652166,0.47826082,0.47826082)"
       clip-path="url(#clipPath26)" />
    <path
       id="path27"
       d="M 63,154 53,144 v 6 H 43 v 8 h 10 v 6 z"
       style="fill:#c4c4c4;fill-opacity:1;fill-rule:nonzero;stroke:#c4c4c4;stroke-width:1;stroke-linecap:butt;stroke-linejoin:miter;stroke-miterlimit:10;stroke-dasharray:none;stroke-opacity:1"
       transform="matrix(0.95652166,0,0,0.95652166,0.47826082,0.47826082)"
       clip-path="url(#clipPath28)" />
    <path
       id="path29"
       d="m 88.599998,157.3 c -1.699996,2.84 -5.379997,3.76 -8.220001,2.06999 -2.839996,-1.69999 -3.769996,-5.36999 -2.079994,-8.22 1.68,-2.83999 5.349999,-3.78999 8.199997,-2.11 L 84.900002,150.5 92.800003,152.3 91,144.8 l -1.699997,1.59999 c -3.190002,-2.36999 -7.5,-2.57998 -10.900001,-0.53 -3.410004,2.06 -5.239998,5.96001 -4.630005,9.89 0.61,3.93001 3.530006,7.11 7.390007,8.03 C 85.029999,164.72 89.07,163.23 91.400002,160 Z"
       style="fill:#c4c4c4;fill-opacity:1;fill-rule:nonzero;stroke:#c4c4c4;stroke-width:1;stroke-linecap:butt;stroke-linejoin:miter;stroke-miterlimit:10;stroke-dasharray:none;stroke-opacity:1"
       transform="matrix(0.95652166,0,0,0.95652166,0.47826082,0.47826082)"
       clip-path="url(#clipPath30)" />
    <text
       id="text30"
       xml:space="preserve"
       transform="matrix(0.95653126,0,0,0.95653126,60.261469,106.17497)"
       clip-path="url(#clipPath31)"><tspan
         style="font-variant:normal;font-weight:normal;font-size:17px;font-family:Helvetica;writing-mode:lr-tb;fill:#666666;fill-opacity:1;fill-rule:nonzero;stroke:none"
         x="0 11.338867 20.793457 30.248047 39.702637 44.425781"
         y="0"
         sodipodi:role="line"
         id="tspan30">Page 1</tspan></text>
    <text
       id="text31"
       xml:space="preserve"
       transform="matrix(0.95653126,0,0,0.95653126,127.21866,152.08847)"
       clip-path="url(#clipPath32)"><tspan
         style="font-variant:normal;font-weight:normal;font-size:17px;font-family:Helvetica;writing-mode:lr-tb;fill:#666666;fill-opacity:1;fill-rule:nonzero;stroke:none"
         x="0 9.4545898 14.177734 18.900879 28.355469 36.855469 41.578613 46.301758 51.024902 63.301758 75.578613 86.925781 91.648926 101.10352 106.76465 116.21924 127.56641 132.28955 136.06641"
         y="0"
         sodipodi:role="line"
         id="tspan31">https://www.draw.io</tspan></text>
    <path
       id="path33"
       d="M 481,130 H 641 V 254 H 481 Z"
       style="fill:#ffffff;fill-opacity:1;fill-rule:nonzero;stroke:#000000;stroke-width:1;stroke-linecap:butt;stroke-linejoin:miter;stroke-miterlimit:10;stroke-dasharray:none;stroke-opacity:1"
       transform="scale(0.95652166)"
       clip-path="url(#clipPath34)" />
    <text
       id="text34"
       xml:space="preserve"
       transform="matrix(0.95653126,0,0,0.95653126,494.9302,188.43666)"
       clip-path="url(#clipPath35)"><tspan
         style="font-variant:normal;font-weight:normal;font-size:16px;font-family:Helvetica;writing-mode:lr-tb;fill:#000000;fill-opacity:1;fill-rule:nonzero;stroke:none"
         x="0 10.671875 18.671875 27.570312 32.898438 41.796875 49.796875 57.796875 61.367188 72.039062 82.710938"
         y="0"
         sodipodi:role="line"
         id="tspan34">Express API</tspan></text>
    <path
       id="path36"
       d="M 321,190 H 470.89999"
       style="fill:none;stroke:#000000;stroke-width:1;stroke-linecap:butt;stroke-linejoin:miter;stroke-miterlimit:10;stroke-dasharray:none;stroke-opacity:1"
       transform="matrix(0.95652166,0,0,0.95652166,0.47826082,0.47826082)"
       clip-path="url(#clipPath37)" />
    <path
       id="path38"
       d="m 477.64999,190 -9,4.5 2.25,-4.5 -2.25,-4.5 z"
       style="fill:#000000;fill-opacity:1;fill-rule:nonzero;stroke:#000000;stroke-width:1;stroke-linecap:butt;stroke-linejoin:miter;stroke-miterlimit:10;stroke-dasharray:none;stroke-opacity:1"
       transform="matrix(0.95652166,0,0,0.95652166,0.47826082,0.47826082)"
       clip-path="url(#clipPath39)" />
    <path
       id="path40"
       d="m 361,169 h 70 v 20 h -70 z"
       style="fill:#ffffff;fill-opacity:1;fill-rule:nonzero;stroke:#000000;stroke-width:1;stroke-linecap:butt;stroke-linejoin:miter;stroke-miterlimit:10;stroke-dasharray:none;stroke-opacity:1"
       transform="scale(0.95652166)"
       clip-path="url(#clipPath41)" />
    <text
       id="text41"
       xml:space="preserve"
       transform="matrix(0.95653126,0,0,0.95653126,357.51851,176.00175)"
       clip-path="url(#clipPath42)"><tspan
         style="font-variant:normal;font-weight:normal;font-size:16px;font-family:Helvetica;writing-mode:lr-tb;fill:#000000;fill-opacity:1;fill-rule:nonzero;stroke:none"
         x="0 4.4453125 17.773438 26.671875 35.570312"
         y="0"
         sodipodi:role="line"
         id="tspan41">Image</tspan></text>
    <text
       id="text42"
       xml:space="preserve"
       transform="matrix(0.95653126,0,0,0.95653126,369.04172,22.95675)"
       clip-path="url(#clipPath43)"><tspan
         style="font-variant:normal;font-weight:700;font-size:26px;font-family:Helvetica;writing-mode:lr-tb;fill:#000000;fill-opacity:1;fill-rule:nonzero;stroke:none"
         x="0 24.540039 40.421875 54.881836 65 79.459961 86.683594 102.56543 118.44727 125.6709 145.89453"
         y="0"
         sodipodi:role="line"
         id="tspan42">Where do we</tspan></text>
    <text
       id="text43"
       xml:space="preserve"
       transform="matrix(0.95653126,0,0,0.95653126,361.41936,53.56575)"
       clip-path="url(#clipPath44)"><tspan
         style="font-variant:normal;font-weight:700;font-size:26px;font-family:Helvetica;writing-mode:lr-tb;fill:#000000;fill-opacity:1;fill-rule:nonzero;stroke:none"
         x="0 14.459961 23.118164 39 49.118164 63.578125 70.801758 78.025391 101.14355 115.60352 131.48535 145.94531 160.40527"
         y="0"
         sodipodi:role="line"
         id="tspan43">store images?</tspan></text>
  </g>
</svg>
