<?xml version="1.0" encoding="UTF-8" standalone="no"?>
<!-- Created with Inkscape (http://www.inkscape.org/) -->

<svg
   version="1.1"
   id="svg1"
   width="876.15997"
   height="422.71997"
   viewBox="0 0 876.15997 422.71997"
   sodipodi:docname="node-28.pdf"
   xmlns:inkscape="http://www.inkscape.org/namespaces/inkscape"
   xmlns:sodipodi="http://sodipodi.sourceforge.net/DTD/sodipodi-0.dtd"
   xmlns="http://www.w3.org/2000/svg"
   xmlns:svg="http://www.w3.org/2000/svg">
  <defs
     id="defs1">
    <clipPath
       clipPathUnits="userSpaceOnUse"
       id="clipPath2">
      <path
         d="M 0,0 H 2737.4998 V 1320.8287 H 0 Z"
         transform="scale(0.3338813)"
         clip-rule="evenodd"
         id="path2" />
    </clipPath>
    <clipPath
       clipPathUnits="userSpaceOnUse"
       id="clipPath4">
      <path
         d="M 0,0 H 2737.4998 V 1317.8336 H 0 Z"
         transform="matrix(0.3338813,0,0,0.3338813,-0.50000001,-0.50000001)"
         clip-rule="evenodd"
         id="path4" />
    </clipPath>
    <clipPath
       clipPathUnits="userSpaceOnUse"
       id="clipPath6">
      <path
         d="M 0,0 H 2737.4998 V 1317.8336 H 0 Z"
         transform="matrix(0.3338813,0,0,0.3338813,-0.50000001,-0.50000001)"
         clip-rule="evenodd"
         id="path6" />
    </clipPath>
    <clipPath
       clipPathUnits="userSpaceOnUse"
       id="clipPath8">
      <path
         d="M 0,0 H 2737.4998 V 1317.8336 H 0 Z"
         transform="matrix(0.3338813,0,0,0.3338813,-0.50000001,-0.50000001)"
         clip-rule="evenodd"
         id="path8" />
    </clipPath>
    <clipPath
       clipPathUnits="userSpaceOnUse"
       id="clipPath10">
      <path
         d="M 0,0 H 2737.4998 V 1317.8336 H 0 Z"
         transform="matrix(0.3338813,0,0,0.3338813,-0.50000001,-0.50000001)"
         clip-rule="evenodd"
         id="path10" />
    </clipPath>
    <clipPath
       clipPathUnits="userSpaceOnUse"
       id="clipPath12">
      <path
         d="M 0,0 H 2737.4998 V 1317.8336 H 0 Z"
         transform="matrix(0.3338813,0,0,0.3338813,-0.50000001,-0.50000001)"
         clip-rule="evenodd"
         id="path12" />
    </clipPath>
    <clipPath
       clipPathUnits="userSpaceOnUse"
       id="clipPath14">
      <path
         d="M 0,0 H 2737.4998 V 1317.8336 H 0 Z"
         transform="matrix(0.3338813,0,0,0.3338813,-0.50000001,-0.50000001)"
         clip-rule="evenodd"
         id="path14" />
    </clipPath>
    <clipPath
       clipPathUnits="userSpaceOnUse"
       id="clipPath16">
      <path
         d="M 0,0 H 2737.4998 V 1317.8336 H 0 Z"
         transform="matrix(0.3338813,0,0,0.3338813,-0.50000001,-0.50000001)"
         clip-rule="evenodd"
         id="path16" />
    </clipPath>
    <clipPath
       clipPathUnits="userSpaceOnUse"
       id="clipPath18">
      <path
         d="M 0,0 H 2737.4998 V 1317.8336 H 0 Z"
         transform="matrix(0.3338813,0,0,0.3338813,-0.50000001,-0.50000001)"
         clip-rule="evenodd"
         id="path18" />
    </clipPath>
    <clipPath
       clipPathUnits="userSpaceOnUse"
       id="clipPath20">
      <path
         d="M 0,0 H 2737.4998 V 1317.8336 H 0 Z"
         transform="matrix(0.3338813,0,0,0.3338813,-0.50000001,-0.50000001)"
         clip-rule="evenodd"
         id="path20" />
    </clipPath>
    <clipPath
       clipPathUnits="userSpaceOnUse"
       id="clipPath22">
      <path
         d="M 0,0 H 2737.4998 V 1317.8336 H 0 Z"
         transform="matrix(0.3338813,0,0,0.3338813,-0.50000001,-0.50000001)"
         clip-rule="evenodd"
         id="path22" />
    </clipPath>
    <clipPath
       clipPathUnits="userSpaceOnUse"
       id="clipPath24">
      <path
         d="M 0,0 H 2737.4998 V 1317.8336 H 0 Z"
         transform="matrix(0.3338813,0,0,0.3338813,-0.50000001,-0.50000001)"
         clip-rule="evenodd"
         id="path24" />
    </clipPath>
    <clipPath
       clipPathUnits="userSpaceOnUse"
       id="clipPath26">
      <path
         d="M 0,0 H 2737.4998 V 1317.8336 H 0 Z"
         transform="matrix(0.3338813,0,0,0.3338813,-0.50000001,-0.50000001)"
         clip-rule="evenodd"
         id="path26" />
    </clipPath>
    <clipPath
       clipPathUnits="userSpaceOnUse"
       id="clipPath28">
      <path
         d="M 0,0 H 2737.4998 V 1317.8336 H 0 Z"
         transform="matrix(0.3338813,0,0,0.3338813,-0.50000001,-0.50000001)"
         clip-rule="evenodd"
         id="path28" />
    </clipPath>
    <clipPath
       clipPathUnits="userSpaceOnUse"
       id="clipPath30">
      <path
         d="M 0,0 H 2737.4998 V 1317.8336 H 0 Z"
         transform="matrix(0.3338813,0,0,0.3338813,-0.50000001,-0.50000001)"
         clip-rule="evenodd"
         id="path30" />
    </clipPath>
    <clipPath
       clipPathUnits="userSpaceOnUse"
       id="clipPath31">
      <path
         d="M 0,0 H 2737.4998 V 1317.8336 H 0 Z"
         transform="matrix(0.33387794,0,0,0.33387794,-63.000001,-32)"
         clip-rule="evenodd"
         id="path31" />
    </clipPath>
    <clipPath
       clipPathUnits="userSpaceOnUse"
       id="clipPath32">
      <path
         d="M 0,0 H 2737.4998 V 1317.8336 H 0 Z"
         transform="matrix(0.33387794,0,0,0.33387794,-133,-80)"
         clip-rule="evenodd"
         id="path32" />
    </clipPath>
    <clipPath
       clipPathUnits="userSpaceOnUse"
       id="clipPath34">
      <path
         d="M 0,0 H 2737.4998 V 1317.8336 H 0 Z"
         transform="scale(0.3338813)"
         clip-rule="evenodd"
         id="path34" />
    </clipPath>
    <clipPath
       clipPathUnits="userSpaceOnUse"
       id="clipPath35">
      <path
         d="M 0,0 H 2737.4998 V 1317.8336 H 0 Z"
         transform="matrix(0.33387794,0,0,0.33387794,-228.20313,-151)"
         clip-rule="evenodd"
         id="path35" />
    </clipPath>
    <clipPath
       clipPathUnits="userSpaceOnUse"
       id="clipPath36">
      <path
         d="M 0,0 H 2737.4998 V 1317.8336 H 0 Z"
         transform="matrix(0.33387794,0,0,0.33387794,-224.29687,-175)"
         clip-rule="evenodd"
         id="path36" />
    </clipPath>
    <clipPath
       clipPathUnits="userSpaceOnUse"
       id="clipPath38">
      <path
         d="M 0,0 H 2737.4998 V 1317.8336 H 0 Z"
         transform="matrix(0.3338813,0,0,0.3338813,-0.50000001,-0.50000001)"
         clip-rule="evenodd"
         id="path38" />
    </clipPath>
    <clipPath
       clipPathUnits="userSpaceOnUse"
       id="clipPath40">
      <path
         d="M 0,0 H 2737.4998 V 1317.8336 H 0 Z"
         transform="matrix(0.3338813,0,0,0.3338813,-0.50000001,-0.50000001)"
         clip-rule="evenodd"
         id="path40" />
    </clipPath>
    <clipPath
       clipPathUnits="userSpaceOnUse"
       id="clipPath42">
      <path
         d="M 0,0 H 2737.4998 V 1317.8336 H 0 Z"
         transform="matrix(0.3338813,0,0,0.3338813,-0.50000001,-0.50000001)"
         clip-rule="evenodd"
         id="path42" />
    </clipPath>
    <clipPath
       clipPathUnits="userSpaceOnUse"
       id="clipPath44">
      <path
         d="M 0,0 H 2737.4998 V 1317.8336 H 0 Z"
         transform="matrix(0.3338813,0,0,0.3338813,-0.50000001,-0.50000001)"
         clip-rule="evenodd"
         id="path44" />
    </clipPath>
    <clipPath
       clipPathUnits="userSpaceOnUse"
       id="clipPath46">
      <path
         d="M 0,0 H 2737.4998 V 1317.8336 H 0 Z"
         transform="matrix(0.3338813,0,0,0.3338813,-0.50000001,-0.50000001)"
         clip-rule="evenodd"
         id="path46" />
    </clipPath>
    <clipPath
       clipPathUnits="userSpaceOnUse"
       id="clipPath48">
      <path
         d="M 0,0 H 2737.4998 V 1317.8336 H 0 Z"
         transform="matrix(0.3338813,0,0,0.3338813,-0.50000001,-0.50000001)"
         clip-rule="evenodd"
         id="path48" />
    </clipPath>
    <clipPath
       clipPathUnits="userSpaceOnUse"
       id="clipPath50">
      <path
         d="M 0,0 H 2737.4998 V 1317.8336 H 0 Z"
         transform="matrix(0.3338813,0,0,0.3338813,-0.50000001,-0.50000001)"
         clip-rule="evenodd"
         id="path50" />
    </clipPath>
    <clipPath
       clipPathUnits="userSpaceOnUse"
       id="clipPath52">
      <path
         d="M 0,0 H 2737.4998 V 1317.8336 H 0 Z"
         transform="matrix(0.3338813,0,0,0.3338813,-0.50000001,-0.50000001)"
         clip-rule="evenodd"
         id="path52" />
    </clipPath>
    <clipPath
       clipPathUnits="userSpaceOnUse"
       id="clipPath54">
      <path
         d="M 0,0 H 2737.4998 V 1317.8336 H 0 Z"
         transform="matrix(0.3338813,0,0,0.3338813,-0.50000001,-0.50000001)"
         clip-rule="evenodd"
         id="path54" />
    </clipPath>
    <clipPath
       clipPathUnits="userSpaceOnUse"
       id="clipPath56">
      <path
         d="M 0,0 H 2737.4998 V 1317.8336 H 0 Z"
         transform="matrix(0.3338813,0,0,0.3338813,-0.50000001,-0.50000001)"
         clip-rule="evenodd"
         id="path56" />
    </clipPath>
    <clipPath
       clipPathUnits="userSpaceOnUse"
       id="clipPath58">
      <path
         d="M 0,0 H 2737.4998 V 1317.8336 H 0 Z"
         transform="matrix(0.3338813,0,0,0.3338813,-0.50000001,-0.50000001)"
         clip-rule="evenodd"
         id="path58" />
    </clipPath>
    <clipPath
       clipPathUnits="userSpaceOnUse"
       id="clipPath60">
      <path
         d="M 0,0 H 2737.4998 V 1317.8336 H 0 Z"
         transform="matrix(0.3338813,0,0,0.3338813,-0.50000001,-0.50000001)"
         clip-rule="evenodd"
         id="path60" />
    </clipPath>
    <clipPath
       clipPathUnits="userSpaceOnUse"
       id="clipPath62">
      <path
         d="M 0,0 H 2737.4998 V 1317.8336 H 0 Z"
         transform="matrix(0.3338813,0,0,0.3338813,-0.50000001,-0.50000001)"
         clip-rule="evenodd"
         id="path62" />
    </clipPath>
    <clipPath
       clipPathUnits="userSpaceOnUse"
       id="clipPath64">
      <path
         d="M 0,0 H 2737.4998 V 1317.8336 H 0 Z"
         transform="matrix(0.3338813,0,0,0.3338813,-0.50000001,-0.50000001)"
         clip-rule="evenodd"
         id="path64" />
    </clipPath>
    <clipPath
       clipPathUnits="userSpaceOnUse"
       id="clipPath65">
      <path
         d="M 0,0 H 2737.4998 V 1317.8336 H 0 Z"
         transform="matrix(0.33387794,0,0,0.33387794,-63.000001,-278)"
         clip-rule="evenodd"
         id="path65" />
    </clipPath>
    <clipPath
       clipPathUnits="userSpaceOnUse"
       id="clipPath66">
      <path
         d="M 0,0 H 2737.4998 V 1317.8336 H 0 Z"
         transform="matrix(0.33387794,0,0,0.33387794,-133,-326)"
         clip-rule="evenodd"
         id="path66" />
    </clipPath>
    <clipPath
       clipPathUnits="userSpaceOnUse"
       id="clipPath68">
      <path
         d="M 0,0 H 2737.4998 V 1317.8336 H 0 Z"
         transform="scale(0.3338813)"
         clip-rule="evenodd"
         id="path68" />
    </clipPath>
    <clipPath
       clipPathUnits="userSpaceOnUse"
       id="clipPath69">
      <path
         d="M 0,0 H 2737.4998 V 1317.8336 H 0 Z"
         transform="matrix(0.33387794,0,0,0.33387794,-228.20313,-391)"
         clip-rule="evenodd"
         id="path69" />
    </clipPath>
    <clipPath
       clipPathUnits="userSpaceOnUse"
       id="clipPath70">
      <path
         d="M 0,0 H 2737.4998 V 1317.8336 H 0 Z"
         transform="matrix(0.33387794,0,0,0.33387794,-224.29687,-415)"
         clip-rule="evenodd"
         id="path70" />
    </clipPath>
    <clipPath
       clipPathUnits="userSpaceOnUse"
       id="clipPath72">
      <path
         d="M 0,0 H 2737.4998 V 1317.8336 H 0 Z"
         transform="scale(0.3338813)"
         clip-rule="evenodd"
         id="path72" />
    </clipPath>
    <clipPath
       clipPathUnits="userSpaceOnUse"
       id="clipPath73">
      <path
         d="M 0,0 H 2737.4998 V 1317.8336 H 0 Z"
         transform="matrix(0.33387794,0,0,0.33387794,-721.89063,-236)"
         clip-rule="evenodd"
         id="path73" />
    </clipPath>
    <clipPath
       clipPathUnits="userSpaceOnUse"
       id="clipPath75">
      <path
         d="M 0,0 H 2737.4998 V 1317.8336 H 0 Z"
         transform="matrix(0.3338813,0,0,0.3338813,-0.50000001,-0.50000001)"
         clip-rule="evenodd"
         id="path75" />
    </clipPath>
    <clipPath
       clipPathUnits="userSpaceOnUse"
       id="clipPath77">
      <path
         d="M 0,0 H 2737.4998 V 1317.8336 H 0 Z"
         transform="matrix(0.3338813,0,0,0.3338813,-0.50000001,-0.50000001)"
         clip-rule="evenodd"
         id="path77" />
    </clipPath>
    <clipPath
       clipPathUnits="userSpaceOnUse"
       id="clipPath79">
      <path
         d="M 0,0 H 2737.4998 V 1317.8336 H 0 Z"
         transform="scale(0.3338813)"
         clip-rule="evenodd"
         id="path79" />
    </clipPath>
    <clipPath
       clipPathUnits="userSpaceOnUse"
       id="clipPath80">
      <path
         d="M 0,0 H 2737.4998 V 1317.8336 H 0 Z"
         transform="matrix(0.33387794,0,0,0.33387794,-773.20313,-292)"
         clip-rule="evenodd"
         id="path80" />
    </clipPath>
  </defs>
  <sodipodi:namedview
     id="namedview1"
     pagecolor="#ffffff"
     bordercolor="#000000"
     borderopacity="0.25"
     inkscape:showpageshadow="2"
     inkscape:pageopacity="0.0"
     inkscape:pagecheckerboard="0"
     inkscape:deskcolor="#d1d1d1">
    <inkscape:page
       x="0"
       y="0"
       inkscape:label="1"
       id="page1"
       width="876.15997"
       height="422.71997"
       margin="0"
       bleed="0" />
  </sodipodi:namedview>
  <g
     id="g1"
     inkscape:groupmode="layer"
     inkscape:label="1">
    <path
       id="path1"
       d="M 0,0 H 914 V 441 H 0 Z"
       style="fill:#ffffff;fill-opacity:1;fill-rule:nonzero;stroke:none"
       transform="scale(0.95842441)"
       clip-path="url(#clipPath2)" />
    <path
       id="path3"
       d="M 1,1 H 341 V 191 H 1 Z"
       style="fill:#ffffff;fill-opacity:1;fill-rule:nonzero;stroke:#666666;stroke-width:1;stroke-linecap:butt;stroke-linejoin:miter;stroke-miterlimit:10;stroke-dasharray:none;stroke-opacity:1"
       transform="matrix(0.95842441,0,0,0.95842441,0.47921221,0.47921221)"
       clip-path="url(#clipPath4)" />
    <path
       id="path5"
       d="m 286.00012,16 c -3e-5,0.656614 -0.0641,1.306923 -0.1922,1.950922 -0.12808,0.643999 -0.31778,1.269314 -0.56906,1.875948 -0.25128,0.606634 -0.55933,1.182928 -0.9241,1.728886 -0.36478,0.545957 -0.77933,1.051084 -1.24362,1.51538 -0.46433,0.464297 -0.96946,0.878844 -1.51545,1.243639 -0.54595,0.364796 -1.12225,0.672833 -1.72888,0.924109 -0.6066,0.251276 -1.2319,0.440964 -1.87588,0.569063 -0.64398,0.1281 -1.29428,0.19215 -1.95093,0.192152 -0.65665,-2e-6 -1.30695,-0.06405 -1.95096,-0.192152 -0.64401,-0.128099 -1.26932,-0.317787 -1.87594,-0.569063 -0.60663,-0.251276 -1.18293,-0.559313 -1.72892,-0.924109 -0.54593,-0.364795 -1.05102,-0.779342 -1.51535,-1.243639 -0.46429,-0.464296 -0.87884,-0.969423 -1.24365,-1.515378 -0.36481,-0.545958 -0.67285,-1.122254 -0.92413,-1.728888 -0.25128,-0.606634 -0.44095,-1.231949 -0.56903,-1.875948 -0.12809,-0.643999 -0.19214,-1.294308 -0.19211,-1.950922 -3e-5,-0.656616 0.064,-1.306924 0.19214,-1.950923 0.12805,-0.644 0.31772,-1.269317 0.569,-1.875951 0.25128,-0.606633 0.55932,-1.182928 0.92413,-1.728885 0.36481,-0.5459561 0.77936,-1.051083 1.24365,-1.5153803 0.46433,-0.4642973 0.96942,-0.8788443 1.51535,-1.2436409 0.54599,-0.3647962 1.12229,-0.6728325 1.72892,-0.9241085 0.60662,-0.2512756 1.23193,-0.4409633 1.87594,-0.5690623 0.64401,-0.1280994 1.29431,-0.1921491 1.95096,-0.1921491 0.65665,0 1.30695,0.06405 1.95093,0.1921491 0.64398,0.128099 1.26928,0.3177867 1.87588,0.5690623 0.60663,0.251276 1.18293,0.5593123 1.72888,0.9241085 0.54599,0.3647966 1.05112,0.7793436 1.51545,1.2436409 0.46429,0.4642973 0.87884,0.9694242 1.24362,1.5153803 0.36477,0.545957 0.67282,1.122252 0.9241,1.728885 0.25128,0.606634 0.44098,1.231951 0.56906,1.875951 0.12812,0.643999 0.19217,1.294307 0.1922,1.950923 z"
       style="fill:none;stroke:#666666;stroke-width:1;stroke-linecap:butt;stroke-linejoin:miter;stroke-miterlimit:10;stroke-dasharray:none;stroke-opacity:1"
       transform="matrix(0.95842441,0,0,0.95842441,0.47921221,0.47921221)"
       clip-path="url(#clipPath6)" />
    <path
       id="path7"
       d="m 311.00012,16 c -3e-5,0.656614 -0.0641,1.306923 -0.1922,1.950922 -0.12808,0.643999 -0.31778,1.269314 -0.56906,1.875948 -0.25125,0.606634 -0.55929,1.182928 -0.9241,1.728886 -0.36478,0.545957 -0.77933,1.051084 -1.24362,1.51538 -0.4643,0.464297 -0.96942,0.878844 -1.51541,1.243639 -0.54596,0.364796 -1.12226,0.672833 -1.72889,0.924109 -0.60663,0.251276 -1.23193,0.440964 -1.87594,0.569063 -0.64402,0.1281 -1.29431,0.19215 -1.9509,0.192152 -0.65662,-2e-6 -1.30692,-0.06405 -1.95093,-0.192152 -0.64401,-0.128099 -1.26932,-0.317787 -1.87597,-0.569063 -0.60663,-0.251276 -1.18293,-0.559313 -1.72889,-0.924109 -0.54596,-0.364795 -1.05108,-0.779342 -1.51538,-1.243639 -0.46429,-0.464296 -0.87884,-0.969423 -1.24365,-1.515378 -0.36478,-0.545958 -0.67282,-1.122254 -0.9241,-1.728888 -0.25125,-0.606634 -0.44095,-1.231949 -0.56906,-1.875948 -0.12809,-0.643999 -0.19211,-1.294308 -0.19211,-1.950922 0,-0.656616 0.0641,-1.306924 0.19214,-1.950923 0.12808,-0.644 0.31778,-1.269317 0.56903,-1.875951 0.25128,-0.606633 0.55932,-1.182928 0.9241,-1.728885 0.36481,-0.5459561 0.77936,-1.051083 1.24365,-1.5153803 0.4643,-0.4642973 0.96942,-0.8788443 1.51538,-1.2436409 0.54596,-0.3647962 1.12226,-0.6728325 1.72889,-0.9241085 0.60665,-0.2512756 1.23196,-0.4409633 1.87597,-0.5690623 0.64401,-0.1280994 1.29431,-0.1921491 1.95093,-0.1921491 0.65659,0 1.30688,0.06405 1.9509,0.1921491 0.64401,0.128099 1.26931,0.3177867 1.87594,0.5690623 0.60663,0.251276 1.18293,0.5593123 1.72889,0.9241085 0.54599,0.3647966 1.05111,0.7793436 1.51541,1.2436409 0.46429,0.4642973 0.87884,0.9694242 1.24362,1.5153803 0.36481,0.545957 0.67285,1.122252 0.9241,1.728885 0.25128,0.606634 0.44098,1.231951 0.56906,1.875951 0.12812,0.643999 0.19217,1.294307 0.1922,1.950923 z"
       style="fill:none;stroke:#666666;stroke-width:1;stroke-linecap:butt;stroke-linejoin:miter;stroke-miterlimit:10;stroke-dasharray:none;stroke-opacity:1"
       transform="matrix(0.95842441,0,0,0.95842441,0.47921221,0.47921221)"
       clip-path="url(#clipPath8)" />
    <path
       id="path9"
       d="m 336.00012,16 c -3e-5,0.656614 -0.0641,1.306923 -0.1922,1.950922 -0.12811,0.643999 -0.31781,1.269314 -0.56906,1.875948 -0.25128,0.606634 -0.55933,1.182928 -0.9241,1.728886 -0.36481,0.545957 -0.77936,1.051084 -1.24362,1.51538 -0.4643,0.464297 -0.96942,0.878844 -1.51541,1.243639 -0.54596,0.364796 -1.12226,0.672833 -1.72889,0.924109 -0.60666,0.251276 -1.23196,0.440964 -1.87594,0.569063 -0.64402,0.1281 -1.29431,0.19215 -1.9509,0.192152 -0.65665,-2e-6 -1.30695,-0.06405 -1.95096,-0.192152 -0.64401,-0.128099 -1.26932,-0.317787 -1.87594,-0.569063 -0.60666,-0.251276 -1.18296,-0.559313 -1.72889,-0.924109 -0.54599,-0.364795 -1.05111,-0.779342 -1.51538,-1.243639 -0.46432,-0.464296 -0.87887,-0.969423 -1.24365,-1.515378 -0.36481,-0.545958 -0.67285,-1.122254 -0.9241,-1.728888 -0.25128,-0.606634 -0.44098,-1.231949 -0.56906,-1.875948 -0.12809,-0.643999 -0.19211,-1.294308 -0.19211,-1.950922 0,-0.656616 0.064,-1.306924 0.19211,-1.950923 0.12808,-0.644 0.31778,-1.269317 0.56906,-1.875951 0.25125,-0.606633 0.55929,-1.182928 0.9241,-1.728885 0.36478,-0.5459561 0.77933,-1.051083 1.24365,-1.5153803 0.46427,-0.4642973 0.96939,-0.8788443 1.51538,-1.2436409 0.54593,-0.3647962 1.12223,-0.6728325 1.72889,-0.9241085 0.60662,-0.2512756 1.23193,-0.4409633 1.87594,-0.5690623 0.64401,-0.1280994 1.29431,-0.1921491 1.95096,-0.1921491 0.65659,0 1.30688,0.06405 1.9509,0.1921491 0.64398,0.128099 1.26928,0.3177867 1.87594,0.5690623 0.60663,0.251276 1.18293,0.5593123 1.72889,0.9241085 0.54599,0.3647966 1.05111,0.7793436 1.51541,1.2436409 0.46426,0.4642973 0.87881,0.9694242 1.24362,1.5153803 0.36477,0.545957 0.67282,1.122252 0.9241,1.728885 0.25125,0.606634 0.44095,1.231951 0.56906,1.875951 0.12812,0.643999 0.19217,1.294307 0.1922,1.950923 z"
       style="fill:none;stroke:#008cff;stroke-width:1;stroke-linecap:butt;stroke-linejoin:miter;stroke-miterlimit:10;stroke-dasharray:none;stroke-opacity:1"
       transform="matrix(0.95842441,0,0,0.95842441,0.47921221,0.47921221)"
       clip-path="url(#clipPath10)" />
    <path
       id="path11"
       d="M 1,41 H 31 V 16 c 0,-2.76 2.240002,-5 5,-5 h 135 c 2.75999,0 5,2.24 5,5 v 25 h 165"
       style="fill:none;stroke:#c4c4c4;stroke-width:1;stroke-linecap:butt;stroke-linejoin:miter;stroke-miterlimit:10;stroke-dasharray:none;stroke-opacity:1"
       transform="matrix(0.95842441,0,0,0.95842441,0.47921221,0.47921221)"
       clip-path="url(#clipPath12)" />
    <path
       id="path13"
       d="M 1,111 H 341"
       style="fill:none;stroke:#c4c4c4;stroke-width:1;stroke-linecap:butt;stroke-linejoin:miter;stroke-miterlimit:10;stroke-dasharray:none;stroke-opacity:1"
       transform="matrix(0.95842441,0,0,0.95842441,0.47921221,0.47921221)"
       clip-path="url(#clipPath14)" />
    <path
       id="path15"
       d="m 101,61 c 0,-2.759998 2.24,-5 5,-5 h 220 c 2.76001,0 5,2.240002 5,5 v 25 c 0,2.760002 -2.23999,5 -5,5 H 106 c -2.76,0 -5,-2.239998 -5,-5 z"
       style="fill:none;stroke:#c4c4c4;stroke-width:1;stroke-linecap:butt;stroke-linejoin:miter;stroke-miterlimit:10;stroke-dasharray:none;stroke-opacity:1"
       transform="matrix(0.95842441,0,0,0.95842441,0.47921221,0.47921221)"
       clip-path="url(#clipPath16)" />
    <path
       id="path17"
       d="m 38,18 h 11 l 4,4 V 36 H 38 Z"
       style="fill:none;stroke:#c4c4c4;stroke-width:1;stroke-linecap:butt;stroke-linejoin:miter;stroke-miterlimit:10;stroke-dasharray:none;stroke-opacity:1"
       transform="matrix(0.95842441,0,0,0.95842441,0.47921221,0.47921221)"
       clip-path="url(#clipPath18)" />
    <path
       id="path19"
       d="m 49,18 v 4 l 4,1"
       style="fill:none;stroke:#c4c4c4;stroke-width:1;stroke-linecap:butt;stroke-linejoin:miter;stroke-miterlimit:10;stroke-dasharray:none;stroke-opacity:1"
       transform="matrix(0.95842441,0,0,0.95842441,0.47921221,0.47921221)"
       clip-path="url(#clipPath20)" />
    <path
       id="path21"
       d="m 108,65 h 11 l 4,4 v 14 h -15 z"
       style="fill:none;stroke:#c4c4c4;stroke-width:1;stroke-linecap:butt;stroke-linejoin:miter;stroke-miterlimit:10;stroke-dasharray:none;stroke-opacity:1"
       transform="matrix(0.95842441,0,0,0.95842441,0.47921221,0.47921221)"
       clip-path="url(#clipPath22)" />
    <path
       id="path23"
       d="m 119,65 v 4 l 4,1"
       style="fill:none;stroke:#c4c4c4;stroke-width:1;stroke-linecap:butt;stroke-linejoin:miter;stroke-miterlimit:10;stroke-dasharray:none;stroke-opacity:1"
       transform="matrix(0.95842441,0,0,0.95842441,0.47921221,0.47921221)"
       clip-path="url(#clipPath24)" />
    <path
       id="path25"
       d="M 13,75 23,65 v 6 h 10 v 8 H 23 v 6 z"
       style="fill:#c4c4c4;fill-opacity:1;fill-rule:nonzero;stroke:#c4c4c4;stroke-width:1;stroke-linecap:butt;stroke-linejoin:miter;stroke-miterlimit:10;stroke-dasharray:none;stroke-opacity:1"
       transform="matrix(0.95842441,0,0,0.95842441,0.47921221,0.47921221)"
       clip-path="url(#clipPath26)" />
    <path
       id="path27"
       d="M 63,75 53,65 v 6 H 43 v 8 h 10 v 6 z"
       style="fill:#c4c4c4;fill-opacity:1;fill-rule:nonzero;stroke:#c4c4c4;stroke-width:1;stroke-linecap:butt;stroke-linejoin:miter;stroke-miterlimit:10;stroke-dasharray:none;stroke-opacity:1"
       transform="matrix(0.95842441,0,0,0.95842441,0.47921221,0.47921221)"
       clip-path="url(#clipPath28)" />
    <path
       id="path29"
       d="m 88.599998,78.300003 c -1.699996,2.839996 -5.379997,3.759995 -8.220001,2.059998 C 77.540001,78.669998 76.610001,75 78.300003,72.150002 79.980003,69.309998 83.650002,68.360001 86.5,70.040001 L 84.900002,71.5 92.800003,73.300003 91,65.800003 89.300003,67.400002 c -3.190002,-2.370003 -7.5,-2.580002 -10.900001,-0.529999 -3.410004,2.049995 -5.239998,5.959999 -4.630005,9.889999 0.61,3.93 3.530006,7.099999 7.390007,8.029999 C 85.029999,85.720001 89.07,84.230003 91.400002,81 Z"
       style="fill:#c4c4c4;fill-opacity:1;fill-rule:nonzero;stroke:#c4c4c4;stroke-width:1;stroke-linecap:butt;stroke-linejoin:miter;stroke-miterlimit:10;stroke-dasharray:none;stroke-opacity:1"
       transform="matrix(0.95842441,0,0,0.95842441,0.47921221,0.47921221)"
       clip-path="url(#clipPath30)" />
    <text
       id="text30"
       xml:space="preserve"
       transform="matrix(0.95843404,0,0,0.95843404,60.381345,30.669889)"
       clip-path="url(#clipPath31)"><tspan
         style="font-variant:normal;font-weight:normal;font-size:17px;font-family:Helvetica;writing-mode:lr-tb;fill:#666666;fill-opacity:1;fill-rule:nonzero;stroke:none"
         x="0 11.338867 20.793457 30.248047 39.702637 44.425781"
         y="0"
         sodipodi:role="line"
         id="tspan30">Page 1</tspan></text>
    <text
       id="text31"
       xml:space="preserve"
       transform="matrix(0.95843404,0,0,0.95843404,127.47173,76.674723)"
       clip-path="url(#clipPath32)"><tspan
         style="font-variant:normal;font-weight:normal;font-size:17px;font-family:Helvetica;writing-mode:lr-tb;fill:#666666;fill-opacity:1;fill-rule:nonzero;stroke:none"
         x="0 14.161133 22.661133 34 37.776855 47.231445 56.686035 68.024902 77.479492 86.934082 91.657227 100.15723 109.61182"
         y="0"
         sodipodi:role="line"
         id="tspan31">myBlogApp.com</tspan></text>
    <path
       id="path33"
       d="m 196,126 h 120 v 60 H 196 Z"
       style="fill:#ffffff;fill-opacity:1;fill-rule:nonzero;stroke:#000000;stroke-width:1;stroke-linecap:butt;stroke-linejoin:miter;stroke-miterlimit:10;stroke-dasharray:none;stroke-opacity:1"
       transform="scale(0.95842441)"
       clip-path="url(#clipPath34)" />
    <text
       id="text34"
       xml:space="preserve"
       transform="matrix(0.95843404,0,0,0.95843404,218.71765,144.72354)"
       clip-path="url(#clipPath35)"><tspan
         style="font-variant:normal;font-weight:normal;font-size:20px;font-family:Helvetica;writing-mode:lr-tb;fill:#000000;fill-opacity:1;fill-rule:nonzero;stroke:none"
         x="0 5.5566406 22.216797 33.339844 44.462891"
         y="0"
         sodipodi:role="line"
         id="tspan34">Image</tspan></text>
    <text
       id="text35"
       xml:space="preserve"
       transform="matrix(0.95843404,0,0,0.95843404,214.97376,167.72596)"
       clip-path="url(#clipPath36)"><tspan
         style="font-variant:normal;font-weight:normal;font-size:20px;font-family:Helvetica;writing-mode:lr-tb;fill:#000000;fill-opacity:1;fill-rule:nonzero;stroke:none"
         x="0 14.443359 25.566406 30.009766 41.132812 52.255859"
         y="0"
         sodipodi:role="line"
         id="tspan35">Upload</tspan></text>
    <path
       id="path37"
       d="M 1,247 H 341 V 437 H 1 Z"
       style="fill:#ffffff;fill-opacity:1;fill-rule:nonzero;stroke:#666666;stroke-width:1;stroke-linecap:butt;stroke-linejoin:miter;stroke-miterlimit:10;stroke-dasharray:none;stroke-opacity:1"
       transform="matrix(0.95842441,0,0,0.95842441,0.47921221,0.47921221)"
       clip-path="url(#clipPath38)" />
    <path
       id="path39"
       d="m 286.00012,262 c -3e-5,0.65659 -0.0641,1.30688 -0.1922,1.9509 -0.12808,0.64398 -0.31778,1.26928 -0.56906,1.87594 -0.25128,0.6066 -0.55933,1.1829 -0.9241,1.72889 -0.36478,0.54592 -0.77933,1.05105 -1.24362,1.51538 -0.46433,0.46426 -0.96946,0.87881 -1.51545,1.24365 -0.54595,0.36477 -1.12225,0.67282 -1.72888,0.9241 -0.6066,0.25125 -1.2319,0.44095 -1.87588,0.56906 -0.64398,0.12808 -1.29428,0.19214 -1.95093,0.19217 -0.65665,-3e-5 -1.30695,-0.0641 -1.95096,-0.19217 -0.64401,-0.12811 -1.26932,-0.31781 -1.87594,-0.56906 -0.60663,-0.25128 -1.18293,-0.55933 -1.72892,-0.92413 -0.54593,-0.36481 -1.05102,-0.77936 -1.51535,-1.24362 -0.46429,-0.46433 -0.87884,-0.96946 -1.24365,-1.51538 -0.36481,-0.54599 -0.67285,-1.12229 -0.92413,-1.72889 -0.25128,-0.60666 -0.44095,-1.23196 -0.56903,-1.87594 -0.12809,-0.64402 -0.19214,-1.29431 -0.19211,-1.9509 -3e-5,-0.65665 0.064,-1.30695 0.19214,-1.95096 0.12805,-0.64401 0.31772,-1.26932 0.569,-1.87594 0.25128,-0.60663 0.55932,-1.18293 0.92413,-1.72889 0.36481,-0.54596 0.77936,-1.05108 1.24365,-1.51538 0.46433,-0.46431 0.96942,-0.87884 1.51535,-1.24363 0.54599,-0.3648 1.12229,-0.67284 1.72892,-0.92411 0.60662,-0.25126 1.23193,-0.44096 1.87594,-0.56906 0.64401,-0.1281 1.29431,-0.19214 1.95096,-0.19214 0.65665,0 1.30695,0.0641 1.95093,0.19216 0.64398,0.12809 1.26928,0.31778 1.87588,0.56904 0.60663,0.25127 1.18293,0.55931 1.72888,0.92411 0.54599,0.36479 1.05112,0.77932 1.51545,1.24363 0.46429,0.4643 0.87884,0.96942 1.24362,1.51538 0.36477,0.54596 0.67282,1.12226 0.9241,1.72889 0.25128,0.60662 0.44098,1.23193 0.56906,1.87594 0.12812,0.64401 0.19217,1.29431 0.1922,1.95096 z"
       style="fill:none;stroke:#666666;stroke-width:1;stroke-linecap:butt;stroke-linejoin:miter;stroke-miterlimit:10;stroke-dasharray:none;stroke-opacity:1"
       transform="matrix(0.95842441,0,0,0.95842441,0.47921221,0.47921221)"
       clip-path="url(#clipPath40)" />
    <path
       id="path41"
       d="m 311.00012,262 c -3e-5,0.65659 -0.0641,1.30688 -0.1922,1.9509 -0.12808,0.64398 -0.31778,1.26928 -0.56906,1.87594 -0.25125,0.6066 -0.55929,1.1829 -0.9241,1.72889 -0.36478,0.54592 -0.77933,1.05105 -1.24362,1.51538 -0.4643,0.46426 -0.96942,0.87881 -1.51541,1.24365 -0.54596,0.36477 -1.12226,0.67282 -1.72889,0.9241 -0.60663,0.25125 -1.23193,0.44095 -1.87594,0.56906 -0.64402,0.12808 -1.29431,0.19214 -1.9509,0.19217 -0.65662,-3e-5 -1.30692,-0.0641 -1.95093,-0.19217 -0.64401,-0.12811 -1.26932,-0.31781 -1.87597,-0.56906 -0.60663,-0.25128 -1.18293,-0.55933 -1.72889,-0.92413 -0.54596,-0.36481 -1.05108,-0.77936 -1.51538,-1.24362 -0.46429,-0.46433 -0.87884,-0.96946 -1.24365,-1.51538 -0.36478,-0.54599 -0.67282,-1.12229 -0.9241,-1.72889 -0.25125,-0.60666 -0.44095,-1.23196 -0.56906,-1.87594 -0.12809,-0.64402 -0.19211,-1.29431 -0.19211,-1.9509 0,-0.65665 0.0641,-1.30695 0.19214,-1.95096 0.12808,-0.64401 0.31778,-1.26932 0.56903,-1.87594 0.25128,-0.60663 0.55932,-1.18293 0.9241,-1.72889 0.36481,-0.54596 0.77936,-1.05108 1.24365,-1.51538 0.4643,-0.46431 0.96942,-0.87884 1.51538,-1.24363 0.54596,-0.3648 1.12226,-0.67284 1.72889,-0.92411 0.60665,-0.25126 1.23196,-0.44096 1.87597,-0.56906 0.64401,-0.1281 1.29431,-0.19214 1.95093,-0.19214 0.65659,0 1.30688,0.0641 1.9509,0.19216 0.64401,0.12809 1.26931,0.31778 1.87594,0.56904 0.60663,0.25127 1.18293,0.55931 1.72889,0.92411 0.54599,0.36479 1.05111,0.77932 1.51541,1.24363 0.46429,0.4643 0.87884,0.96942 1.24362,1.51538 0.36481,0.54596 0.67285,1.12226 0.9241,1.72889 0.25128,0.60662 0.44098,1.23193 0.56906,1.87594 0.12812,0.64401 0.19217,1.29431 0.1922,1.95096 z"
       style="fill:none;stroke:#666666;stroke-width:1;stroke-linecap:butt;stroke-linejoin:miter;stroke-miterlimit:10;stroke-dasharray:none;stroke-opacity:1"
       transform="matrix(0.95842441,0,0,0.95842441,0.47921221,0.47921221)"
       clip-path="url(#clipPath42)" />
    <path
       id="path43"
       d="m 336.00012,262 c -3e-5,0.65659 -0.0641,1.30688 -0.1922,1.9509 -0.12811,0.64398 -0.31781,1.26928 -0.56906,1.87594 -0.25128,0.6066 -0.55933,1.1829 -0.9241,1.72889 -0.36481,0.54592 -0.77936,1.05105 -1.24362,1.51538 -0.4643,0.46426 -0.96942,0.87881 -1.51541,1.24365 -0.54596,0.36477 -1.12226,0.67282 -1.72889,0.9241 -0.60666,0.25125 -1.23196,0.44095 -1.87594,0.56906 -0.64402,0.12808 -1.29431,0.19214 -1.9509,0.19217 -0.65665,-3e-5 -1.30695,-0.0641 -1.95096,-0.19217 -0.64401,-0.12811 -1.26932,-0.31781 -1.87594,-0.56906 -0.60666,-0.25128 -1.18296,-0.55933 -1.72889,-0.92413 -0.54599,-0.36481 -1.05111,-0.77936 -1.51538,-1.24362 -0.46432,-0.46433 -0.87887,-0.96946 -1.24365,-1.51538 -0.36481,-0.54599 -0.67285,-1.12229 -0.9241,-1.72889 -0.25128,-0.60666 -0.44098,-1.23196 -0.56906,-1.87594 -0.12809,-0.64402 -0.19211,-1.29431 -0.19211,-1.9509 0,-0.65665 0.064,-1.30695 0.19211,-1.95096 0.12808,-0.64401 0.31778,-1.26932 0.56906,-1.87594 0.25125,-0.60663 0.55929,-1.18293 0.9241,-1.72889 0.36478,-0.54596 0.77933,-1.05108 1.24365,-1.51538 0.46427,-0.46431 0.96939,-0.87884 1.51538,-1.24363 0.54593,-0.3648 1.12223,-0.67284 1.72889,-0.92411 0.60662,-0.25126 1.23193,-0.44096 1.87594,-0.56906 0.64401,-0.1281 1.29431,-0.19214 1.95096,-0.19214 0.65659,0 1.30688,0.0641 1.9509,0.19216 0.64398,0.12809 1.26928,0.31778 1.87594,0.56904 0.60663,0.25127 1.18293,0.55931 1.72889,0.92411 0.54599,0.36479 1.05111,0.77932 1.51541,1.24363 0.46426,0.4643 0.87881,0.96942 1.24362,1.51538 0.36477,0.54596 0.67282,1.12226 0.9241,1.72889 0.25125,0.60662 0.44095,1.23193 0.56906,1.87594 0.12812,0.64401 0.19217,1.29431 0.1922,1.95096 z"
       style="fill:none;stroke:#008cff;stroke-width:1;stroke-linecap:butt;stroke-linejoin:miter;stroke-miterlimit:10;stroke-dasharray:none;stroke-opacity:1"
       transform="matrix(0.95842441,0,0,0.95842441,0.47921221,0.47921221)"
       clip-path="url(#clipPath44)" />
    <path
       id="path45"
       d="m 1,287 h 30 v -25 c 0,-2.76001 2.240002,-5 5,-5 h 135 c 2.75999,0 5,2.23999 5,5 v 25 h 165"
       style="fill:none;stroke:#c4c4c4;stroke-width:1;stroke-linecap:butt;stroke-linejoin:miter;stroke-miterlimit:10;stroke-dasharray:none;stroke-opacity:1"
       transform="matrix(0.95842441,0,0,0.95842441,0.47921221,0.47921221)"
       clip-path="url(#clipPath46)" />
    <path
       id="path47"
       d="M 1,357 H 341"
       style="fill:none;stroke:#c4c4c4;stroke-width:1;stroke-linecap:butt;stroke-linejoin:miter;stroke-miterlimit:10;stroke-dasharray:none;stroke-opacity:1"
       transform="matrix(0.95842441,0,0,0.95842441,0.47921221,0.47921221)"
       clip-path="url(#clipPath48)" />
    <path
       id="path49"
       d="m 101,307 c 0,-2.76001 2.24,-5 5,-5 h 220 c 2.76001,0 5,2.23999 5,5 v 25 c 0,2.76001 -2.23999,5 -5,5 H 106 c -2.76,0 -5,-2.23999 -5,-5 z"
       style="fill:none;stroke:#c4c4c4;stroke-width:1;stroke-linecap:butt;stroke-linejoin:miter;stroke-miterlimit:10;stroke-dasharray:none;stroke-opacity:1"
       transform="matrix(0.95842441,0,0,0.95842441,0.47921221,0.47921221)"
       clip-path="url(#clipPath50)" />
    <path
       id="path51"
       d="m 38,264 h 11 l 4,4 v 14 H 38 Z"
       style="fill:none;stroke:#c4c4c4;stroke-width:1;stroke-linecap:butt;stroke-linejoin:miter;stroke-miterlimit:10;stroke-dasharray:none;stroke-opacity:1"
       transform="matrix(0.95842441,0,0,0.95842441,0.47921221,0.47921221)"
       clip-path="url(#clipPath52)" />
    <path
       id="path53"
       d="m 49,264 v 4 l 4,1"
       style="fill:none;stroke:#c4c4c4;stroke-width:1;stroke-linecap:butt;stroke-linejoin:miter;stroke-miterlimit:10;stroke-dasharray:none;stroke-opacity:1"
       transform="matrix(0.95842441,0,0,0.95842441,0.47921221,0.47921221)"
       clip-path="url(#clipPath54)" />
    <path
       id="path55"
       d="m 108,311 h 11 l 4,4 v 14 h -15 z"
       style="fill:none;stroke:#c4c4c4;stroke-width:1;stroke-linecap:butt;stroke-linejoin:miter;stroke-miterlimit:10;stroke-dasharray:none;stroke-opacity:1"
       transform="matrix(0.95842441,0,0,0.95842441,0.47921221,0.47921221)"
       clip-path="url(#clipPath56)" />
    <path
       id="path57"
       d="m 119,311 v 4 l 4,1"
       style="fill:none;stroke:#c4c4c4;stroke-width:1;stroke-linecap:butt;stroke-linejoin:miter;stroke-miterlimit:10;stroke-dasharray:none;stroke-opacity:1"
       transform="matrix(0.95842441,0,0,0.95842441,0.47921221,0.47921221)"
       clip-path="url(#clipPath58)" />
    <path
       id="path59"
       d="m 13,321 10,-10 v 6 h 10 v 8 H 23 v 6 z"
       style="fill:#c4c4c4;fill-opacity:1;fill-rule:nonzero;stroke:#c4c4c4;stroke-width:1;stroke-linecap:butt;stroke-linejoin:miter;stroke-miterlimit:10;stroke-dasharray:none;stroke-opacity:1"
       transform="matrix(0.95842441,0,0,0.95842441,0.47921221,0.47921221)"
       clip-path="url(#clipPath60)" />
    <path
       id="path61"
       d="M 63,321 53,311 v 6 H 43 v 8 h 10 v 6 z"
       style="fill:#c4c4c4;fill-opacity:1;fill-rule:nonzero;stroke:#c4c4c4;stroke-width:1;stroke-linecap:butt;stroke-linejoin:miter;stroke-miterlimit:10;stroke-dasharray:none;stroke-opacity:1"
       transform="matrix(0.95842441,0,0,0.95842441,0.47921221,0.47921221)"
       clip-path="url(#clipPath62)" />
    <path
       id="path63"
       d="m 88.599998,324.29999 c -1.699996,2.84002 -5.379997,3.76001 -8.220001,2.07001 -2.839996,-1.69999 -3.769996,-5.37 -2.079994,-8.21 1.68,-2.85 5.349999,-3.79 8.199997,-2.11999 l -1.599998,1.45999 7.900001,1.79999 -1.800003,-7.5 -1.699997,1.6 c -3.190002,-2.36999 -7.5,-2.57998 -10.900001,-0.52999 -3.410004,2.05999 -5.239998,5.95999 -4.630005,9.89001 0.61,3.92999 3.530006,7.10999 7.390007,8.03998 C 85.029999,331.73001 89.07,330.23001 91.400002,327 Z"
       style="fill:#c4c4c4;fill-opacity:1;fill-rule:nonzero;stroke:#c4c4c4;stroke-width:1;stroke-linecap:butt;stroke-linejoin:miter;stroke-miterlimit:10;stroke-dasharray:none;stroke-opacity:1"
       transform="matrix(0.95842441,0,0,0.95842441,0.47921221,0.47921221)"
       clip-path="url(#clipPath64)" />
    <text
       id="text64"
       xml:space="preserve"
       transform="matrix(0.95843404,0,0,0.95843404,60.381345,266.44466)"
       clip-path="url(#clipPath65)"><tspan
         style="font-variant:normal;font-weight:normal;font-size:17px;font-family:Helvetica;writing-mode:lr-tb;fill:#666666;fill-opacity:1;fill-rule:nonzero;stroke:none"
         x="0 11.338867 20.793457 30.248047 39.702637 44.425781"
         y="0"
         sodipodi:role="line"
         id="tspan64">Page 1</tspan></text>
    <text
       id="text65"
       xml:space="preserve"
       transform="matrix(0.95843404,0,0,0.95843404,127.47173,312.4495)"
       clip-path="url(#clipPath66)"><tspan
         style="font-variant:normal;font-weight:normal;font-size:17px;font-family:Helvetica;writing-mode:lr-tb;fill:#666666;fill-opacity:1;fill-rule:nonzero;stroke:none"
         x="0 14.161133 23.615723 27.392578 31.169434 39.669434 43.446289 52.900879 62.355469 70.855469 82.194336 85.971191 90.694336 100.14893 104.87207 113.37207 122.82666"
         y="0"
         sodipodi:role="line"
         id="tspan65">maliciousSite.com</tspan></text>
    <path
       id="path67"
       d="m 196,366 h 120 v 60 H 196 Z"
       style="fill:#ffffff;fill-opacity:1;fill-rule:nonzero;stroke:#000000;stroke-width:1;stroke-linecap:butt;stroke-linejoin:miter;stroke-miterlimit:10;stroke-dasharray:none;stroke-opacity:1"
       transform="scale(0.95842441)"
       clip-path="url(#clipPath68)" />
    <text
       id="text68"
       xml:space="preserve"
       transform="matrix(0.95843404,0,0,0.95843404,218.71765,374.74771)"
       clip-path="url(#clipPath69)"><tspan
         style="font-variant:normal;font-weight:normal;font-size:20px;font-family:Helvetica;writing-mode:lr-tb;fill:#000000;fill-opacity:1;fill-rule:nonzero;stroke:none"
         x="0 5.5566406 22.216797 33.339844 44.462891"
         y="0"
         sodipodi:role="line"
         id="tspan68">Image</tspan></text>
    <text
       id="text69"
       xml:space="preserve"
       transform="matrix(0.95843404,0,0,0.95843404,214.97376,397.75013)"
       clip-path="url(#clipPath70)"><tspan
         style="font-variant:normal;font-weight:normal;font-size:20px;font-family:Helvetica;writing-mode:lr-tb;fill:#000000;fill-opacity:1;fill-rule:nonzero;stroke:none"
         x="0 14.443359 25.566406 30.009766 41.132812 52.255859"
         y="0"
         sodipodi:role="line"
         id="tspan69">Upload</tspan></text>
    <path
       id="path71"
       d="m 691.01001,131 h 220 v 195 h -220 z"
       style="fill:#dae8fc;fill-opacity:1;fill-rule:nonzero;stroke:#6c8ebf;stroke-width:1;stroke-linecap:butt;stroke-linejoin:miter;stroke-miterlimit:10;stroke-dasharray:none;stroke-opacity:1"
       transform="scale(0.95842441)"
       clip-path="url(#clipPath72)" />
    <text
       id="text72"
       xml:space="preserve"
       transform="matrix(0.95843404,0,0,0.95843404,691.88455,226.19043)"
       clip-path="url(#clipPath73)"><tspan
         style="font-variant:normal;font-weight:700;font-size:20px;font-family:Helvetica;writing-mode:lr-tb;fill:#000000;fill-opacity:1;fill-rule:nonzero;stroke:none"
         x="0 15.556641 27.773438 35.556641 40.380859 53.730469 72.607422 85.947266 91.503906 105.94727 118.16406 129.28711 140.41016 151.5332"
         y="0"
         sodipodi:role="line"
         id="tspan72">Our AWS Bucket</tspan></text>
    <path
       id="path74"
       d="m 316,156 h 187.5 v 72.5 h 177.40002"
       style="fill:none;stroke:#000000;stroke-width:1;stroke-linecap:butt;stroke-linejoin:miter;stroke-miterlimit:10;stroke-dasharray:none;stroke-opacity:1"
       transform="matrix(0.95842441,0,0,0.95842441,0.47921221,0.47921221)"
       clip-path="url(#clipPath75)" />
    <path
       id="path76"
       d="m 687.65002,228.5 -9,4.5 2.25,-4.5 -2.25,-4.5 z"
       style="fill:#000000;fill-opacity:1;fill-rule:nonzero;stroke:#000000;stroke-width:1;stroke-linecap:butt;stroke-linejoin:miter;stroke-miterlimit:10;stroke-dasharray:none;stroke-opacity:1"
       transform="matrix(0.95842441,0,0,0.95842441,0.47921221,0.47921221)"
       clip-path="url(#clipPath77)" />
    <path
       id="path78"
       d="m 741.01001,255 h 120 v 60 h -120 z"
       style="fill:#ffffff;fill-opacity:1;fill-rule:nonzero;stroke:#000000;stroke-width:1;stroke-linecap:butt;stroke-linejoin:miter;stroke-miterlimit:10;stroke-dasharray:none;stroke-opacity:1"
       transform="scale(0.95842441)"
       clip-path="url(#clipPath79)" />
    <text
       id="text79"
       xml:space="preserve"
       transform="matrix(0.95843404,0,0,0.95843404,741.0642,279.86274)"
       clip-path="url(#clipPath80)"><tspan
         style="font-variant:normal;font-weight:normal;font-size:20px;font-family:Helvetica;writing-mode:lr-tb;fill:#000000;fill-opacity:1;fill-rule:nonzero;stroke:none"
         x="0 5.5566406 22.216797 33.339844 44.462891"
         y="0"
         sodipodi:role="line"
         id="tspan79">Image</tspan></text>
  </g>
</svg>
