<?xml version="1.0" encoding="UTF-8" standalone="no"?>
<!-- Created with Inkscape (http://www.inkscape.org/) -->

<svg
   version="1.1"
   id="svg1"
   width="349.44"
   height="149.43999"
   viewBox="0 0 349.44 149.43999"
   sodipodi:docname="node-23.pdf"
   xmlns:inkscape="http://www.inkscape.org/namespaces/inkscape"
   xmlns:sodipodi="http://sodipodi.sourceforge.net/DTD/sodipodi-0.dtd"
   xmlns="http://www.w3.org/2000/svg"
   xmlns:svg="http://www.w3.org/2000/svg">
  <defs
     id="defs1">
    <clipPath
       clipPathUnits="userSpaceOnUse"
       id="clipPath2">
      <path
         d="M 0,0 H 1091.6666 V 464.85803 H 0 Z"
         transform="scale(0.33343514)"
         clip-rule="evenodd"
         id="path2" />
    </clipPath>
    <clipPath
       clipPathUnits="userSpaceOnUse"
       id="clipPath4">
      <path
         d="M 0,0 H 1091.6666 V 461.85895 H 0 Z"
         transform="scale(0.33343514)"
         clip-rule="evenodd"
         id="path4" />
    </clipPath>
    <clipPath
       clipPathUnits="userSpaceOnUse"
       id="clipPath5">
      <path
         d="M 0,0 H 1091.6666 V 461.85895 H 0 Z"
         transform="matrix(0.33343181,0,0,0.33343181,-141.71875,-28)"
         clip-rule="evenodd"
         id="path5" />
    </clipPath>
    <clipPath
       clipPathUnits="userSpaceOnUse"
       id="clipPath7">
      <path
         d="M 0,0 H 1091.6666 V 461.85895 H 0 Z"
         transform="scale(0.33343514)"
         clip-rule="evenodd"
         id="path7" />
    </clipPath>
    <clipPath
       clipPathUnits="userSpaceOnUse"
       id="clipPath8">
      <path
         d="M 0,0 H 1091.6666 V 461.85895 H 0 Z"
         transform="matrix(0.33343181,0,0,0.33343181,-55.640625,-79)"
         clip-rule="evenodd"
         id="path8" />
    </clipPath>
    <clipPath
       clipPathUnits="userSpaceOnUse"
       id="clipPath10">
      <path
         d="M 0,0 H 1091.6666 V 461.85895 H 0 Z"
         transform="scale(0.33343514)"
         clip-rule="evenodd"
         id="path10" />
    </clipPath>
    <clipPath
       clipPathUnits="userSpaceOnUse"
       id="clipPath11">
      <path
         d="M 0,0 H 1091.6666 V 461.85895 H 0 Z"
         transform="matrix(0.33343181,0,0,0.33343181,-244.3125,-79)"
         clip-rule="evenodd"
         id="path11" />
    </clipPath>
    <clipPath
       clipPathUnits="userSpaceOnUse"
       id="clipPath13">
      <path
         d="M 0,0 H 1091.6666 V 461.85895 H 0 Z"
         transform="scale(0.33343514)"
         clip-rule="evenodd"
         id="path13" />
    </clipPath>
    <clipPath
       clipPathUnits="userSpaceOnUse"
       id="clipPath14">
      <path
         d="M 0,0 H 1091.6666 V 461.85895 H 0 Z"
         transform="matrix(0.33343181,0,0,0.33343181,-16.796875,-123)"
         clip-rule="evenodd"
         id="path14" />
    </clipPath>
    <clipPath
       clipPathUnits="userSpaceOnUse"
       id="clipPath15">
      <path
         d="M 0,0 H 1091.6666 V 461.85895 H 0 Z"
         transform="matrix(0.33343181,0,0,0.33343181,-25.953125,-141)"
         clip-rule="evenodd"
         id="path15" />
    </clipPath>
    <clipPath
       clipPathUnits="userSpaceOnUse"
       id="clipPath17">
      <path
         d="M 0,0 H 1091.6666 V 461.85895 H 0 Z"
         transform="scale(0.33343514)"
         clip-rule="evenodd"
         id="path17" />
    </clipPath>
    <clipPath
       clipPathUnits="userSpaceOnUse"
       id="clipPath18">
      <path
         d="M 0,0 H 1091.6666 V 461.85895 H 0 Z"
         transform="matrix(0.33343181,0,0,0.33343181,-206.79688,-123)"
         clip-rule="evenodd"
         id="path18" />
    </clipPath>
    <clipPath
       clipPathUnits="userSpaceOnUse"
       id="clipPath19">
      <path
         d="M 0,0 H 1091.6666 V 461.85895 H 0 Z"
         transform="matrix(0.33343181,0,0,0.33343181,-245.98438,-141)"
         clip-rule="evenodd"
         id="path19" />
    </clipPath>
  </defs>
  <sodipodi:namedview
     id="namedview1"
     pagecolor="#ffffff"
     bordercolor="#000000"
     borderopacity="0.25"
     inkscape:showpageshadow="2"
     inkscape:pageopacity="0.0"
     inkscape:pagecheckerboard="0"
     inkscape:deskcolor="#d1d1d1">
    <inkscape:page
       x="0"
       y="0"
       inkscape:label="1"
       id="page1"
       width="349.44"
       height="149.43999"
       margin="0"
       bleed="0" />
  </sodipodi:namedview>
  <g
     id="g1"
     inkscape:groupmode="layer"
     inkscape:label="1">
    <path
       id="path1"
       d="M 0,0 H 364 V 155 H 0 Z"
       style="fill:#ffffff;fill-opacity:1;fill-rule:nonzero;stroke:none"
       transform="scale(0.95970684)"
       clip-path="url(#clipPath2)" />
    <path
       id="path3"
       d="M 1,1 H 361 V 41 H 1 Z"
       style="fill:#dae8fc;fill-opacity:1;fill-rule:nonzero;stroke:#6c8ebf;stroke-width:1;stroke-linecap:butt;stroke-linejoin:miter;stroke-miterlimit:10;stroke-dasharray:none;stroke-opacity:1"
       transform="scale(0.95970684)"
       clip-path="url(#clipPath4)" />
    <text
       id="text4"
       xml:space="preserve"
       transform="matrix(0.95971644,0,0,0.95971644,136.00981,26.87206)"
       clip-path="url(#clipPath5)"><tspan
         style="font-variant:normal;font-weight:normal;font-size:20px;font-family:Helvetica;writing-mode:lr-tb;fill:#000000;fill-opacity:1;fill-rule:nonzero;stroke:none"
         x="0 12.988281 27.431641 37.431641 42.988281 48.544922 61.884766"
         y="0"
         sodipodi:role="line"
         id="tspan4">Aws IAM</tspan></text>
    <path
       id="path6"
       d="m 1,41 h 180 v 60 H 1 Z"
       style="fill:#d5e8d4;fill-opacity:1;fill-rule:nonzero;stroke:#82b366;stroke-width:1;stroke-linecap:butt;stroke-linejoin:miter;stroke-miterlimit:10;stroke-dasharray:none;stroke-opacity:1"
       transform="scale(0.95970684)"
       clip-path="url(#clipPath7)" />
    <text
       id="text7"
       xml:space="preserve"
       transform="matrix(0.95971644,0,0,0.95971644,53.399223,75.817599)"
       clip-path="url(#clipPath8)"><tspan
         style="font-variant:normal;font-weight:700;font-size:24px;font-family:Helvetica;writing-mode:lr-tb;fill:#000000;fill-opacity:1;fill-rule:nonzero;stroke:none"
         x="0 16.007812 30.667969 37.335938 44.003906 57.351562"
         y="0"
         sodipodi:role="line"
         id="tspan7">Policy</tspan></text>
    <path
       id="path9"
       d="m 181,41 h 180 v 60 H 181 Z"
       style="fill:#d5e8d4;fill-opacity:1;fill-rule:nonzero;stroke:#82b366;stroke-width:1;stroke-linecap:butt;stroke-linejoin:miter;stroke-miterlimit:10;stroke-dasharray:none;stroke-opacity:1"
       transform="scale(0.95970684)"
       clip-path="url(#clipPath10)" />
    <text
       id="text10"
       xml:space="preserve"
       transform="matrix(0.95971644,0,0,0.95971644,234.47072,75.817599)"
       clip-path="url(#clipPath11)"><tspan
         style="font-variant:normal;font-weight:700;font-size:24px;font-family:Helvetica;writing-mode:lr-tb;fill:#000000;fill-opacity:1;fill-rule:nonzero;stroke:none"
         x="0 17.332031 30.679688 44.027344"
         y="0"
         sodipodi:role="line"
         id="tspan10">User</tspan></text>
    <path
       id="path12"
       d="m 1,101 h 180 v 50 H 1 Z"
       style="fill:#d5e8d4;fill-opacity:1;fill-rule:nonzero;stroke:#82b366;stroke-width:1;stroke-linecap:butt;stroke-linejoin:miter;stroke-miterlimit:10;stroke-dasharray:none;stroke-opacity:1"
       transform="scale(0.95970684)"
       clip-path="url(#clipPath13)" />
    <text
       id="text13"
       xml:space="preserve"
       transform="matrix(0.95971644,0,0,0.95971644,16.120237,118.04512)"
       clip-path="url(#clipPath14)"><tspan
         style="font-style:oblique;font-variant:normal;font-weight:normal;font-size:15px;font-family:Helvetica;writing-mode:lr-tb;fill:#000000;fill-opacity:1;fill-rule:nonzero;stroke:none"
         x="0 10.004883 18.347168 21.679688 25.012207 32.512207 35.844727 44.187012 51.687012 55.854492 64.196777 72.539062 80.039062 87.539062 92.53418 95.866699 104.20898 112.55127 116.71875 127.55127 135.89355 144.23584"
         y="0"
         sodipodi:role="line"
         id="tspan13">Policies describe what</tspan></text>
    <text
       id="text14"
       xml:space="preserve"
       transform="matrix(0.95971644,0,0,0.95971644,24.907641,135.32002)"
       clip-path="url(#clipPath15)"><tspan
         style="font-style:oblique;font-variant:normal;font-weight:normal;font-size:15px;font-family:Helvetica;writing-mode:lr-tb;fill:#000000;fill-opacity:1;fill-rule:nonzero;stroke:none"
         x="0 7.5 15.842285 28.337402 36.679688 40.847168 49.189453 52.521973 60.864258 69.206543 73.374023 80.874023 89.216309 97.558594 101.72607 107.56348 115.90576 124.24805"
         y="0"
         sodipodi:role="line"
         id="tspan14">something can *do*</tspan></text>
    <path
       id="path16"
       d="m 181,101 h 180 v 50 H 181 Z"
       style="fill:#d5e8d4;fill-opacity:1;fill-rule:nonzero;stroke:#82b366;stroke-width:1;stroke-linecap:butt;stroke-linejoin:miter;stroke-miterlimit:10;stroke-dasharray:none;stroke-opacity:1"
       transform="scale(0.95970684)"
       clip-path="url(#clipPath17)" />
    <text
       id="text17"
       xml:space="preserve"
       transform="matrix(0.95971644,0,0,0.95971644,198.46637,118.04512)"
       clip-path="url(#clipPath18)"><tspan
         style="font-style:oblique;font-variant:normal;font-weight:normal;font-size:15px;font-family:Helvetica;writing-mode:lr-tb;fill:#000000;fill-opacity:1;fill-rule:nonzero;stroke:none"
         x="0 10.83252 18.33252 26.674805 31.669922 39.169922 43.337402 51.679688 60.021973 64.189453 68.356934 76.699219 84.199219 91.699219 95.031738 103.37402 111.71631 120.05859"
         y="0"
         sodipodi:role="line"
         id="tspan17">Users get assigned</tspan></text>
    <text
       id="text18"
       xml:space="preserve"
       transform="matrix(0.95971644,0,0,0.95971644,236.07525,135.32002)"
       clip-path="url(#clipPath19)"><tspan
         style="font-style:oblique;font-variant:normal;font-weight:normal;font-size:15px;font-family:Helvetica;writing-mode:lr-tb;fill:#000000;fill-opacity:1;fill-rule:nonzero;stroke:none"
         x="0 8.3422852 16.68457 20.01709 23.349609 30.849609 34.182129 42.524414"
         y="0"
         sodipodi:role="line"
         id="tspan18">policies</tspan></text>
  </g>
</svg>
