<?xml version="1.0" encoding="UTF-8" standalone="no"?>
<!-- Created with Inkscape (http://www.inkscape.org/) -->

<svg
   version="1.1"
   id="svg1"
   width="632"
   height="217.27998"
   viewBox="0 0 632 217.27998"
   sodipodi:docname="node-24.pdf"
   xmlns:inkscape="http://www.inkscape.org/namespaces/inkscape"
   xmlns:sodipodi="http://sodipodi.sourceforge.net/DTD/sodipodi-0.dtd"
   xmlns="http://www.w3.org/2000/svg"
   xmlns:svg="http://www.w3.org/2000/svg">
  <defs
     id="defs1">
    <clipPath
       clipPathUnits="userSpaceOnUse"
       id="clipPath2">
      <path
         d="M 0,0 H 1974.9999 V 677.31409 H 0 Z"
         transform="scale(0.33367091)"
         clip-rule="evenodd"
         id="path2" />
    </clipPath>
    <clipPath
       clipPathUnits="userSpaceOnUse"
       id="clipPath4">
      <path
         d="M 0,0 H 1974.9999 V 671.32013 H 0 Z"
         transform="scale(0.33367091)"
         clip-rule="evenodd"
         id="path4" />
    </clipPath>
    <clipPath
       clipPathUnits="userSpaceOnUse"
       id="clipPath5">
      <path
         d="M 0,0 H 1974.9999 V 671.32013 H 0 Z"
         transform="matrix(0.33366756,0,0,0.33366756,-26.6875,-108)"
         clip-rule="evenodd"
         id="path5" />
    </clipPath>
    <clipPath
       clipPathUnits="userSpaceOnUse"
       id="clipPath6">
      <path
         d="M 0,0 H 1974.9999 V 671.32013 H 0 Z"
         transform="matrix(0.33366756,0,0,0.33366756,-9.328125,-126)"
         clip-rule="evenodd"
         id="path6" />
    </clipPath>
    <clipPath
       clipPathUnits="userSpaceOnUse"
       id="clipPath8">
      <path
         d="M 0,0 H 1974.9999 V 671.32013 H 0 Z"
         transform="matrix(0.33367091,0,0,0.33367091,-0.50000001,-0.50000001)"
         clip-rule="evenodd"
         id="path8" />
    </clipPath>
    <clipPath
       clipPathUnits="userSpaceOnUse"
       id="clipPath10">
      <path
         d="M 0,0 H 1974.9999 V 671.32013 H 0 Z"
         transform="matrix(0.33367091,0,0,0.33367091,-0.50000001,-0.50000001)"
         clip-rule="evenodd"
         id="path10" />
    </clipPath>
    <clipPath
       clipPathUnits="userSpaceOnUse"
       id="clipPath12">
      <path
         d="M 0,0 H 1974.9999 V 671.32013 H 0 Z"
         transform="scale(0.33367091)"
         clip-rule="evenodd"
         id="path12" />
    </clipPath>
    <clipPath
       clipPathUnits="userSpaceOnUse"
       id="clipPath13">
      <path
         d="M 0,0 H 1974.9999 V 671.32013 H 0 Z"
         transform="matrix(0.33366756,0,0,0.33366756,-129.71875,-37)"
         clip-rule="evenodd"
         id="path13" />
    </clipPath>
    <clipPath
       clipPathUnits="userSpaceOnUse"
       id="clipPath15">
      <path
         d="M 0,0 H 1974.9999 V 671.32013 H 0 Z"
         transform="scale(0.33367091)"
         clip-rule="evenodd"
         id="path15" />
    </clipPath>
    <clipPath
       clipPathUnits="userSpaceOnUse"
       id="clipPath16">
      <path
         d="M 0,0 H 1974.9999 V 671.32013 H 0 Z"
         transform="matrix(0.33366756,0,0,0.33366756,-303.84375,-28)"
         clip-rule="evenodd"
         id="path16" />
    </clipPath>
    <clipPath
       clipPathUnits="userSpaceOnUse"
       id="clipPath17">
      <path
         d="M 0,0 H 1974.9999 V 671.32013 H 0 Z"
         transform="matrix(0.33366756,0,0,0.33366756,-319.96875,-46)"
         clip-rule="evenodd"
         id="path17" />
    </clipPath>
    <clipPath
       clipPathUnits="userSpaceOnUse"
       id="clipPath19">
      <path
         d="M 0,0 H 1974.9999 V 671.32013 H 0 Z"
         transform="scale(0.33367091)"
         clip-rule="evenodd"
         id="path19" />
    </clipPath>
    <clipPath
       clipPathUnits="userSpaceOnUse"
       id="clipPath20">
      <path
         d="M 0,0 H 1974.9999 V 671.32013 H 0 Z"
         transform="matrix(0.33366756,0,0,0.33366756,-155.98438,-152)"
         clip-rule="evenodd"
         id="path20" />
    </clipPath>
    <clipPath
       clipPathUnits="userSpaceOnUse"
       id="clipPath22">
      <path
         d="M 0,0 H 1974.9999 V 671.32013 H 0 Z"
         transform="matrix(0.33367091,0,0,0.33367091,-0.50000001,-0.50000001)"
         clip-rule="evenodd"
         id="path22" />
    </clipPath>
    <clipPath
       clipPathUnits="userSpaceOnUse"
       id="clipPath24">
      <path
         d="M 0,0 H 1974.9999 V 671.32013 H 0 Z"
         transform="matrix(0.33367091,0,0,0.33367091,-0.50000001,-0.50000001)"
         clip-rule="evenodd"
         id="path24" />
    </clipPath>
    <clipPath
       clipPathUnits="userSpaceOnUse"
       id="clipPath26">
      <path
         d="M 0,0 H 1974.9999 V 671.32013 H 0 Z"
         transform="scale(0.33367091)"
         clip-rule="evenodd"
         id="path26" />
    </clipPath>
    <clipPath
       clipPathUnits="userSpaceOnUse"
       id="clipPath27">
      <path
         d="M 0,0 H 1974.9999 V 671.32013 H 0 Z"
         transform="matrix(0.33366756,0,0,0.33366756,-268.0625,-102)"
         clip-rule="evenodd"
         id="path27" />
    </clipPath>
    <clipPath
       clipPathUnits="userSpaceOnUse"
       id="clipPath29">
      <path
         d="M 0,0 H 1974.9999 V 671.32013 H 0 Z"
         transform="matrix(0.33367091,0,0,0.33367091,-0.50000001,-0.50000001)"
         clip-rule="evenodd"
         id="path29" />
    </clipPath>
    <clipPath
       clipPathUnits="userSpaceOnUse"
       id="clipPath31">
      <path
         d="M 0,0 H 1974.9999 V 671.32013 H 0 Z"
         transform="matrix(0.33367091,0,0,0.33367091,-0.50000001,-0.50000001)"
         clip-rule="evenodd"
         id="path31" />
    </clipPath>
    <clipPath
       clipPathUnits="userSpaceOnUse"
       id="clipPath33">
      <path
         d="M 0,0 H 1974.9999 V 671.32013 H 0 Z"
         transform="scale(0.33367091)"
         clip-rule="evenodd"
         id="path33" />
    </clipPath>
    <clipPath
       clipPathUnits="userSpaceOnUse"
       id="clipPath34">
      <path
         d="M 0,0 H 1974.9999 V 671.32013 H 0 Z"
         transform="matrix(0.33366756,0,0,0.33366756,-278.0625,-152)"
         clip-rule="evenodd"
         id="path34" />
    </clipPath>
    <clipPath
       clipPathUnits="userSpaceOnUse"
       id="clipPath36">
      <path
         d="M 0,0 H 1974.9999 V 671.32013 H 0 Z"
         transform="matrix(0.33367091,0,0,0.33367091,-0.50000001,-0.50000001)"
         clip-rule="evenodd"
         id="path36" />
    </clipPath>
    <clipPath
       clipPathUnits="userSpaceOnUse"
       id="clipPath38">
      <path
         d="M 0,0 H 1974.9999 V 671.32013 H 0 Z"
         transform="matrix(0.33367091,0,0,0.33367091,-0.50000001,-0.50000001)"
         clip-rule="evenodd"
         id="path38" />
    </clipPath>
    <clipPath
       clipPathUnits="userSpaceOnUse"
       id="clipPath40">
      <path
         d="M 0,0 H 1974.9999 V 671.32013 H 0 Z"
         transform="scale(0.33367091)"
         clip-rule="evenodd"
         id="path40" />
    </clipPath>
    <clipPath
       clipPathUnits="userSpaceOnUse"
       id="clipPath41">
      <path
         d="M 0,0 H 1974.9999 V 671.32013 H 0 Z"
         transform="matrix(0.33366756,0,0,0.33366756,-248.45313,-202)"
         clip-rule="evenodd"
         id="path41" />
    </clipPath>
    <clipPath
       clipPathUnits="userSpaceOnUse"
       id="clipPath43">
      <path
         d="M 0,0 H 1974.9999 V 671.32013 H 0 Z"
         transform="scale(0.33367091)"
         clip-rule="evenodd"
         id="path43" />
    </clipPath>
    <clipPath
       clipPathUnits="userSpaceOnUse"
       id="clipPath44">
      <path
         d="M 0,0 H 1974.9999 V 671.32013 H 0 Z"
         transform="matrix(0.33366756,0,0,0.33366756,-451.35938,-92.999999)"
         clip-rule="evenodd"
         id="path44" />
    </clipPath>
    <clipPath
       clipPathUnits="userSpaceOnUse"
       id="clipPath45">
      <path
         d="M 0,0 H 1974.9999 V 671.32013 H 0 Z"
         transform="matrix(0.33366756,0,0,0.33366756,-500.125,-111)"
         clip-rule="evenodd"
         id="path45" />
    </clipPath>
    <clipPath
       clipPathUnits="userSpaceOnUse"
       id="clipPath47">
      <path
         d="M 0,0 H 1974.9999 V 671.32013 H 0 Z"
         transform="scale(0.33367091)"
         clip-rule="evenodd"
         id="path47" />
    </clipPath>
    <clipPath
       clipPathUnits="userSpaceOnUse"
       id="clipPath48">
      <path
         d="M 0,0 H 1974.9999 V 671.32013 H 0 Z"
         transform="matrix(0.33366756,0,0,0.33366756,-429.25,-152)"
         clip-rule="evenodd"
         id="path48" />
    </clipPath>
    <clipPath
       clipPathUnits="userSpaceOnUse"
       id="clipPath50">
      <path
         d="M 0,0 H 1974.9999 V 671.32013 H 0 Z"
         transform="scale(0.33367091)"
         clip-rule="evenodd"
         id="path50" />
    </clipPath>
    <clipPath
       clipPathUnits="userSpaceOnUse"
       id="clipPath51">
      <path
         d="M 0,0 H 1974.9999 V 671.32013 H 0 Z"
         transform="matrix(0.33366756,0,0,0.33366756,-435.98438,-193)"
         clip-rule="evenodd"
         id="path51" />
    </clipPath>
    <clipPath
       clipPathUnits="userSpaceOnUse"
       id="clipPath52">
      <path
         d="M 0,0 H 1974.9999 V 671.32013 H 0 Z"
         transform="matrix(0.33366756,0,0,0.33366756,-475.09375,-211)"
         clip-rule="evenodd"
         id="path52" />
    </clipPath>
  </defs>
  <sodipodi:namedview
     id="namedview1"
     pagecolor="#ffffff"
     bordercolor="#000000"
     borderopacity="0.25"
     inkscape:showpageshadow="2"
     inkscape:pageopacity="0.0"
     inkscape:pagecheckerboard="0"
     inkscape:deskcolor="#d1d1d1">
    <inkscape:page
       x="0"
       y="0"
       inkscape:label="1"
       id="page1"
       width="632"
       height="217.27998"
       margin="0"
       bleed="0" />
  </sodipodi:namedview>
  <g
     id="g1"
     inkscape:groupmode="layer"
     inkscape:label="1">
    <path
       id="path1"
       d="M 0,0 H 659 V 226 H 0 Z"
       style="fill:#ffffff;fill-opacity:1;fill-rule:nonzero;stroke:none"
       transform="scale(0.95902873)"
       clip-path="url(#clipPath2)" />
    <path
       id="path3"
       d="M 1,1 H 121 V 221 H 1 Z"
       style="fill:#dae8fc;fill-opacity:1;fill-rule:nonzero;stroke:#6c8ebf;stroke-width:1;stroke-linecap:butt;stroke-linejoin:miter;stroke-miterlimit:10;stroke-dasharray:none;stroke-opacity:1"
       transform="scale(0.95902873)"
       clip-path="url(#clipPath4)" />
    <text
       id="text4"
       xml:space="preserve"
       transform="matrix(0.95903836,0,0,0.95903836,25.594336,103.57614)"
       clip-path="url(#clipPath5)"><tspan
         style="font-variant:normal;font-weight:700;font-size:15px;font-family:Helvetica;writing-mode:lr-tb;fill:#000000;fill-opacity:1;fill-rule:nonzero;stroke:none"
         x="0 10.012207 24.169922 34.174805 38.342285 48.347168 56.689453 60.256348"
         y="0"
         sodipodi:role="line"
         id="tspan4">AWS S3's</tspan></text>
    <text
       id="text5"
       xml:space="preserve"
       transform="matrix(0.95903836,0,0,0.95903836,8.9460297,120.83883)"
       clip-path="url(#clipPath6)"><tspan
         style="font-variant:normal;font-weight:700;font-size:15px;font-family:Helvetica;writing-mode:lr-tb;fill:#000000;fill-opacity:1;fill-rule:nonzero;stroke:none"
         x="0 9.1625977 17.504883 22.5 32.504883 36.672363 45.834961 54.997559 63.339844 72.502441 83.334961 94.16748"
         y="0"
         sodipodi:role="line"
         id="tspan5">getSignedURL</tspan></text>
    <path
       id="path7"
       d="m 241,31 h 49.89999"
       style="fill:none;stroke:#000000;stroke-width:1;stroke-linecap:butt;stroke-linejoin:miter;stroke-miterlimit:10;stroke-dasharray:none;stroke-opacity:1"
       transform="matrix(0.95902873,0,0,0.95902873,0.47951437,0.47951437)"
       clip-path="url(#clipPath8)" />
    <path
       id="path9"
       d="m 297.64999,31 -9,4.5 2.25,-4.5 -2.25,-4.5 z"
       style="fill:#000000;fill-opacity:1;fill-rule:nonzero;stroke:#000000;stroke-width:1;stroke-linecap:butt;stroke-linejoin:miter;stroke-miterlimit:10;stroke-dasharray:none;stroke-opacity:1"
       transform="matrix(0.95902873,0,0,0.95902873,0.47951437,0.47951437)"
       clip-path="url(#clipPath10)" />
    <path
       id="path11"
       d="M 121,1 H 241 V 61 H 121 Z"
       style="fill:#d5e8d4;fill-opacity:1;fill-rule:nonzero;stroke:#82b366;stroke-width:1;stroke-linecap:butt;stroke-linejoin:miter;stroke-miterlimit:10;stroke-dasharray:none;stroke-opacity:1"
       transform="scale(0.95902873)"
       clip-path="url(#clipPath12)" />
    <text
       id="text12"
       xml:space="preserve"
       transform="matrix(0.95903836,0,0,0.95903836,124.40526,35.484419)"
       clip-path="url(#clipPath13)"><tspan
         style="font-variant:normal;font-weight:normal;font-size:15px;font-family:Helvetica;writing-mode:lr-tb;fill:#000000;fill-opacity:1;fill-rule:nonzero;stroke:none"
         x="0 8.3422852 16.68457 25.026855 30.021973 38.364258 42.531738 45.864258 54.206543 62.548828 73.381348 81.723633 94.21875"
         y="0"
         sodipodi:role="line"
         id="tspan12">operationName</tspan></text>
    <path
       id="path14"
       d="M 301,12 H 531 V 50 H 301 Z"
       style="fill:#f5f5f5;fill-opacity:1;fill-rule:nonzero;stroke:#666666;stroke-width:1;stroke-linecap:butt;stroke-linejoin:miter;stroke-miterlimit:10;stroke-dasharray:none;stroke-opacity:1"
       transform="scale(0.95902873)"
       clip-path="url(#clipPath15)" />
    <text
       id="text15"
       xml:space="preserve"
       transform="matrix(0.95903836,0,0,0.95903836,291.39781,26.853074)"
       clip-path="url(#clipPath16)"><tspan
         style="font-style:oblique;font-variant:normal;font-weight:normal;font-size:15px;font-family:Helvetica;writing-mode:lr-tb;fill:#000000;fill-opacity:1;fill-rule:nonzero;stroke:none"
         x="0 10.83252 19.174805 31.669922 40.012207 44.179688 52.521973 56.689453 60.856934 65.024414 73.366699 81.708984 85.876465 94.21875 102.56104 110.90332 115.89844 124.24072 128.4082 131.74072 140.08301 148.42529 152.59277 163.42529 171.76758 175.93506 186.76758 195.10986 203.45215 207.61963 211.78711 215.95459"
         y="0"
         sodipodi:role="line"
         id="tspan15">Name of the operation we want to</tspan></text>
    <text
       id="text16"
       xml:space="preserve"
       transform="matrix(0.95903836,0,0,0.95903836,306.86231,44.115765)"
       clip-path="url(#clipPath17)"><tspan
         style="font-style:oblique;font-variant:normal;font-weight:normal;font-size:15px;font-family:Helvetica;writing-mode:lr-tb;fill:#000000;fill-opacity:1;fill-rule:nonzero;stroke:none"
         x="0 7.5 12.495117 20.837402 29.179688 33.347168 41.689453 45.856934 50.024414 58.366699 66.708984 70.876465 79.21875 84.213867 92.556152 100.05615 103.38867 111.73096 120.07324 128.41553 136.75781 140.92529 151.75781 162.59033 170.3833 174.55078 178.71826 187.06055"
         y="0"
         sodipodi:role="line"
         id="tspan16">create the presigned URL for</tspan></text>
    <path
       id="path18"
       d="M 121,71 H 241 V 221 H 121 Z"
       style="fill:#d5e8d4;fill-opacity:1;fill-rule:nonzero;stroke:#82b366;stroke-width:1;stroke-linecap:butt;stroke-linejoin:miter;stroke-miterlimit:10;stroke-dasharray:none;stroke-opacity:1"
       transform="scale(0.95902873)"
       clip-path="url(#clipPath19)" />
    <text
       id="text19"
       xml:space="preserve"
       transform="matrix(0.95903836,0,0,0.95903836,149.595,145.77383)"
       clip-path="url(#clipPath20)"><tspan
         style="font-variant:normal;font-weight:normal;font-size:15px;font-family:Helvetica;writing-mode:lr-tb;fill:#000000;fill-opacity:1;fill-rule:nonzero;stroke:none"
         x="0 8.3422852 16.68457 21.679688 30.021973 42.51709"
         y="0"
         sodipodi:role="line"
         id="tspan19">params</tspan></text>
    <path
       id="path21"
       d="m 341,96 h 42.5 32.39999"
       style="fill:none;stroke:#000000;stroke-width:1;stroke-linecap:butt;stroke-linejoin:miter;stroke-miterlimit:10;stroke-dasharray:none;stroke-opacity:1"
       transform="matrix(0.95902873,0,0,0.95902873,0.47951437,0.47951437)"
       clip-path="url(#clipPath22)" />
    <path
       id="path23"
       d="m 422.64999,96 -9,4.5 2.25,-4.5 -2.25,-4.5 z"
       style="fill:#000000;fill-opacity:1;fill-rule:nonzero;stroke:#000000;stroke-width:1;stroke-linecap:butt;stroke-linejoin:miter;stroke-miterlimit:10;stroke-dasharray:none;stroke-opacity:1"
       transform="matrix(0.95902873,0,0,0.95902873,0.47951437,0.47951437)"
       clip-path="url(#clipPath24)" />
    <path
       id="path25"
       d="m 241,71 h 100 v 50 H 241 Z"
       style="fill:#d5e8d4;fill-opacity:1;fill-rule:nonzero;stroke:#82b366;stroke-width:1;stroke-linecap:butt;stroke-linejoin:miter;stroke-miterlimit:10;stroke-dasharray:none;stroke-opacity:1"
       transform="scale(0.95902873)"
       clip-path="url(#clipPath26)" />
    <text
       id="text26"
       xml:space="preserve"
       transform="matrix(0.95903836,0,0,0.95903836,257.08222,97.821913)"
       clip-path="url(#clipPath27)"><tspan
         style="font-variant:normal;font-weight:normal;font-size:15px;font-family:Helvetica;writing-mode:lr-tb;fill:#000000;fill-opacity:1;fill-rule:nonzero;stroke:none"
         x="0 10.004883 18.347168 25.847168 33.347168 41.689453"
         y="0"
         sodipodi:role="line"
         id="tspan26">Bucket</tspan></text>
    <path
       id="path28"
       d="m 341,146 h 74.89999"
       style="fill:none;stroke:#000000;stroke-width:1;stroke-linecap:butt;stroke-linejoin:miter;stroke-miterlimit:10;stroke-dasharray:none;stroke-opacity:1"
       transform="matrix(0.95902873,0,0,0.95902873,0.47951437,0.47951437)"
       clip-path="url(#clipPath29)" />
    <path
       id="path30"
       d="m 422.64999,146 -9,4.5 2.25,-4.5 -2.25,-4.5 z"
       style="fill:#000000;fill-opacity:1;fill-rule:nonzero;stroke:#000000;stroke-width:1;stroke-linecap:butt;stroke-linejoin:miter;stroke-miterlimit:10;stroke-dasharray:none;stroke-opacity:1"
       transform="matrix(0.95902873,0,0,0.95902873,0.47951437,0.47951437)"
       clip-path="url(#clipPath31)" />
    <path
       id="path32"
       d="m 241,121 h 100 v 50 H 241 Z"
       style="fill:#d5e8d4;fill-opacity:1;fill-rule:nonzero;stroke:#82b366;stroke-width:1;stroke-linecap:butt;stroke-linejoin:miter;stroke-miterlimit:10;stroke-dasharray:none;stroke-opacity:1"
       transform="scale(0.95902873)"
       clip-path="url(#clipPath33)" />
    <text
       id="text33"
       xml:space="preserve"
       transform="matrix(0.95903836,0,0,0.95903836,266.6726,145.77383)"
       clip-path="url(#clipPath34)"><tspan
         style="font-variant:normal;font-weight:normal;font-size:15px;font-family:Helvetica;writing-mode:lr-tb;fill:#000000;fill-opacity:1;fill-rule:nonzero;stroke:none"
         x="0 10.004883 18.347168"
         y="0"
         sodipodi:role="line"
         id="tspan33">Key</tspan></text>
    <path
       id="path35"
       d="m 341,196 h 74.89999"
       style="fill:none;stroke:#000000;stroke-width:1;stroke-linecap:butt;stroke-linejoin:miter;stroke-miterlimit:10;stroke-dasharray:none;stroke-opacity:1"
       transform="matrix(0.95902873,0,0,0.95902873,0.47951437,0.47951437)"
       clip-path="url(#clipPath36)" />
    <path
       id="path37"
       d="m 422.64999,196 -9,4.5 2.25,-4.5 -2.25,-4.5 z"
       style="fill:#000000;fill-opacity:1;fill-rule:nonzero;stroke:#000000;stroke-width:1;stroke-linecap:butt;stroke-linejoin:miter;stroke-miterlimit:10;stroke-dasharray:none;stroke-opacity:1"
       transform="matrix(0.95902873,0,0,0.95902873,0.47951437,0.47951437)"
       clip-path="url(#clipPath38)" />
    <path
       id="path39"
       d="m 241,171 h 100 v 50 H 241 Z"
       style="fill:#d5e8d4;fill-opacity:1;fill-rule:nonzero;stroke:#82b366;stroke-width:1;stroke-linecap:butt;stroke-linejoin:miter;stroke-miterlimit:10;stroke-dasharray:none;stroke-opacity:1"
       transform="scale(0.95902873)"
       clip-path="url(#clipPath40)" />
    <text
       id="text40"
       xml:space="preserve"
       transform="matrix(0.95903836,0,0,0.95903836,238.27608,193.72575)"
       clip-path="url(#clipPath41)"><tspan
         style="font-variant:normal;font-weight:normal;font-size:15px;font-family:Helvetica;writing-mode:lr-tb;fill:#000000;fill-opacity:1;fill-rule:nonzero;stroke:none"
         x="0 10.83252 19.174805 27.51709 31.68457 40.026855 48.369141 52.536621 60.878906 68.378906 76.721191"
         y="0"
         sodipodi:role="line"
         id="tspan40">ContentType</tspan></text>
    <path
       id="path42"
       d="m 426,77 h 230 v 38 H 426 Z"
       style="fill:#f5f5f5;fill-opacity:1;fill-rule:nonzero;stroke:#666666;stroke-width:1;stroke-linecap:butt;stroke-linejoin:miter;stroke-miterlimit:10;stroke-dasharray:none;stroke-opacity:1"
       transform="scale(0.95902873)"
       clip-path="url(#clipPath43)" />
    <text
       id="text43"
       xml:space="preserve"
       transform="matrix(0.95903836,0,0,0.95903836,432.87096,89.190567)"
       clip-path="url(#clipPath44)"><tspan
         style="font-style:oblique;font-variant:normal;font-weight:normal;font-size:15px;font-family:Helvetica;writing-mode:lr-tb;fill:#000000;fill-opacity:1;fill-rule:nonzero;stroke:none"
         x="0 10.83252 19.174805 31.669922 40.012207 44.179688 52.521973 56.689453 60.856934 65.024414 73.366699 81.708984 85.876465 94.21875 102.56104 110.06104 117.56104 125.90332 130.0708 134.23828 145.0708 153.41309 157.58057 165.92285 170.91797"
         y="0"
         sodipodi:role="line"
         id="tspan43">Name of the bucket we are</tspan></text>
    <text
       id="text44"
       xml:space="preserve"
       transform="matrix(0.95903836,0,0,0.95903836,479.63906,106.45326)"
       clip-path="url(#clipPath45)"><tspan
         style="font-style:oblique;font-variant:normal;font-weight:normal;font-size:15px;font-family:Helvetica;writing-mode:lr-tb;fill:#000000;fill-opacity:1;fill-rule:nonzero;stroke:none"
         x="0 8.3422852 16.68457 20.01709 28.359375 36.70166 45.043945 48.376465 56.71875 65.061035 69.228516 73.395996"
         y="0"
         sodipodi:role="line"
         id="tspan44">uploading to</tspan></text>
    <path
       id="path46"
       d="m 426,127 h 230 v 38 H 426 Z"
       style="fill:#f5f5f5;fill-opacity:1;fill-rule:nonzero;stroke:#666666;stroke-width:1;stroke-linecap:butt;stroke-linejoin:miter;stroke-miterlimit:10;stroke-dasharray:none;stroke-opacity:1"
       transform="scale(0.95902873)"
       clip-path="url(#clipPath47)" />
    <g
       id="g47" />
    <text
       id="text47"
       xml:space="preserve"
       transform="matrix(0.95903836,0,0,0.95903836,411.66722,145.77383)"
       clip-path="url(#clipPath48)"><tspan
         style="font-style:oblique;font-variant:normal;font-weight:normal;font-size:15px;font-family:Helvetica;writing-mode:lr-tb;fill:#000000;fill-opacity:1;fill-rule:nonzero;stroke:none"
         x="0 10.83252 19.174805 31.669922 40.012207 44.179688 52.521973 56.689453 60.856934 65.024414 73.366699 81.708984 85.876465 93.376465 96.708984 105.05127 109.21875 120.05127 128.39355 132.56104 140.90332 145.89844 154.24072 158.4082 166.75049 175.09277 178.42529 186.76758 195.10986 203.45215 206.78467 215.12695"
         y="0"
         sodipodi:role="line"
         id="tspan47">Name of the ﬁle we are uploading</tspan></text>
    <path
       id="path49"
       d="m 426,177 h 230 v 38 H 426 Z"
       style="fill:#f5f5f5;fill-opacity:1;fill-rule:nonzero;stroke:#666666;stroke-width:1;stroke-linecap:butt;stroke-linejoin:miter;stroke-miterlimit:10;stroke-dasharray:none;stroke-opacity:1"
       transform="scale(0.95902873)"
       clip-path="url(#clipPath50)" />
    <g
       id="g50" />
    <text
       id="text50"
       xml:space="preserve"
       transform="matrix(0.95903836,0,0,0.95903836,418.12574,185.0944)"
       clip-path="url(#clipPath51)"><tspan
         style="font-style:oblique;font-variant:normal;font-weight:normal;font-size:15px;font-family:Helvetica;writing-mode:lr-tb;fill:#000000;fill-opacity:1;fill-rule:nonzero;stroke:none"
         x="0 2.8637695 13.696289 22.038574 30.380859 34.54834 42.890625 51.23291 55.400391 63.742676 71.242676 79.584961 87.927246 90.791016 94.958496 103.30078 107.46826 111.63574 115.80322 124.14551 132.48779 136.65527 144.15527 147.48779 155.83008 159.99756 164.16504 172.50732 180.84961 185.01709 189.18457 200.01709 203.34961 206.68213"
         y="0"
         sodipodi:role="line"
         id="tspan50">'ContentType' of the ﬁle that will</tspan></text>
    <text
       id="text51"
       xml:space="preserve"
       transform="matrix(0.95903836,0,0,0.95903836,455.63313,202.35709)"
       clip-path="url(#clipPath52)"><tspan
         style="font-style:oblique;font-variant:normal;font-weight:normal;font-size:15px;font-family:Helvetica;writing-mode:lr-tb;fill:#000000;fill-opacity:1;fill-rule:nonzero;stroke:none"
         x="0 8.3422852 16.68457 20.852051 29.194336 37.536621 41.704102 45.871582 49.204102 57.546387 65.888672 70.056152 78.398438 86.740723 90.073242 98.415527 106.75781 115.1001 123.44238"
         y="0"
         sodipodi:role="line"
         id="tspan51">be getting uploaded</tspan></text>
  </g>
</svg>
