<?xml version="1.0" encoding="UTF-8" standalone="no"?>
<!-- Created with Inkscape (http://www.inkscape.org/) -->

<svg
   version="1.1"
   id="svg1"
   width="603.84003"
   height="264"
   viewBox="0 0 603.84003 264"
   sodipodi:docname="node-6.pdf"
   xmlns:inkscape="http://www.inkscape.org/namespaces/inkscape"
   xmlns:sodipodi="http://sodipodi.sourceforge.net/DTD/sodipodi-0.dtd"
   xmlns="http://www.w3.org/2000/svg"
   xmlns:svg="http://www.w3.org/2000/svg">
  <defs
     id="defs1">
    <clipPath
       clipPathUnits="userSpaceOnUse"
       id="clipPath2">
      <path
         d="M 0,0 H 1887.5 V 822.60303 H 0 Z"
         transform="scale(0.33430463)"
         clip-rule="evenodd"
         id="path2" />
    </clipPath>
    <clipPath
       clipPathUnits="userSpaceOnUse"
       id="clipPath4">
      <path
         d="M 0,0 H 1887.5 V 819.61169 H 0 Z"
         transform="scale(0.33430463)"
         clip-rule="evenodd"
         id="path4" />
    </clipPath>
    <clipPath
       clipPathUnits="userSpaceOnUse"
       id="clipPath6">
      <path
         d="M 0,0 H 1887.5 V 819.61169 H 0 Z"
         transform="scale(0.33430463)"
         clip-rule="evenodd"
         id="path6" />
    </clipPath>
    <clipPath
       clipPathUnits="userSpaceOnUse"
       id="clipPath7">
      <path
         d="M 0,0 H 1887.5 V 819.61169 H 0 Z"
         transform="matrix(0.33430128,0,0,0.33430128,-359.42189,-191.00001)"
         clip-rule="evenodd"
         id="path7" />
    </clipPath>
    <clipPath
       clipPathUnits="userSpaceOnUse"
       id="clipPath9">
      <path
         d="M 0,0 H 1887.5 V 819.61169 H 0 Z"
         transform="matrix(0.33430463,0,0,0.33430463,-0.5,-0.5)"
         clip-rule="evenodd"
         id="path9" />
    </clipPath>
    <clipPath
       clipPathUnits="userSpaceOnUse"
       id="clipPath11">
      <path
         d="M 0,0 H 1887.5 V 819.61169 H 0 Z"
         transform="matrix(0.33430463,0,0,0.33430463,-0.5,-0.5)"
         clip-rule="evenodd"
         id="path11" />
    </clipPath>
    <clipPath
       clipPathUnits="userSpaceOnUse"
       id="clipPath13">
      <path
         d="M 0,0 H 1887.5 V 819.61169 H 0 Z"
         transform="scale(0.33430463)"
         clip-rule="evenodd"
         id="path13" />
    </clipPath>
    <clipPath
       clipPathUnits="userSpaceOnUse"
       id="clipPath14">
      <path
         d="M 0,0 H 1887.5 V 819.61169 H 0 Z"
         transform="matrix(0.33430128,0,0,0.33430128,-190.76563,-164)"
         clip-rule="evenodd"
         id="path14" />
    </clipPath>
    <clipPath
       clipPathUnits="userSpaceOnUse"
       id="clipPath15">
      <path
         d="M 0,0 H 1887.5 V 819.61169 H 0 Z"
         transform="matrix(0.33430128,0,0,0.33430128,-11.6875,-24)"
         clip-rule="evenodd"
         id="path15" />
    </clipPath>
    <clipPath
       clipPathUnits="userSpaceOnUse"
       id="clipPath16">
      <path
         d="M 0,0 H 1887.5 V 819.61169 H 0 Z"
         transform="matrix(0.33430128,0,0,0.33430128,-129.625,-56)"
         clip-rule="evenodd"
         id="path16" />
    </clipPath>
    <clipPath
       clipPathUnits="userSpaceOnUse"
       id="clipPath17">
      <path
         d="M 0,0 H 1887.5 V 819.61169 H 0 Z"
         transform="matrix(0.33430128,0,0,0.33430128,-392.79688,-93)"
         clip-rule="evenodd"
         id="path17" />
    </clipPath>
    <clipPath
       clipPathUnits="userSpaceOnUse"
       id="clipPath19">
      <path
         d="M 0,0 H 1887.5 V 819.61169 H 0 Z"
         transform="scale(0.33430463)"
         clip-rule="evenodd"
         id="path19" />
    </clipPath>
    <clipPath
       clipPathUnits="userSpaceOnUse"
       id="clipPath20">
      <path
         d="M 0,0 H 1887.5 V 819.61169 H 0 Z"
         transform="matrix(0.33430128,0,0,0.33430128,-514.76563,-191.00001)"
         clip-rule="evenodd"
         id="path20" />
    </clipPath>
  </defs>
  <sodipodi:namedview
     id="namedview1"
     pagecolor="#ffffff"
     bordercolor="#000000"
     borderopacity="0.25"
     inkscape:showpageshadow="2"
     inkscape:pageopacity="0.0"
     inkscape:pagecheckerboard="0"
     inkscape:deskcolor="#d1d1d1">
    <inkscape:page
       x="0"
       y="0"
       inkscape:label="1"
       id="page1"
       width="603.84003"
       height="264"
       margin="0"
       bleed="0" />
  </sodipodi:namedview>
  <g
     id="g1"
     inkscape:groupmode="layer"
     inkscape:label="1">
    <path
       id="path1"
       d="M 0,0 H 631 V 275 H 0 Z"
       style="fill:#ffffff;fill-opacity:1;fill-rule:nonzero;stroke:none"
       transform="scale(0.95721074)"
       clip-path="url(#clipPath2)" />
    <path
       id="path3"
       d="M 298,101 H 628 V 271 H 298 Z"
       style="fill:#dae8fc;fill-opacity:1;fill-rule:nonzero;stroke:#6c8ebf;stroke-width:1;stroke-linecap:butt;stroke-linejoin:miter;stroke-miterlimit:10;stroke-dasharray:none;stroke-opacity:1"
       transform="scale(0.95721074)"
       clip-path="url(#clipPath4)" />
    <path
       id="path5"
       d="M 323,121 H 483 V 251 H 323 Z"
       style="fill:#ffffff;fill-opacity:1;fill-rule:nonzero;stroke:#000000;stroke-width:1;stroke-linecap:butt;stroke-linejoin:miter;stroke-miterlimit:10;stroke-dasharray:none;stroke-opacity:1"
       transform="scale(0.95721074)"
       clip-path="url(#clipPath6)" />
    <text
       id="text6"
       xml:space="preserve"
       transform="matrix(0.95722034,0,0,0.95722034,344.04594,182.82909)"
       clip-path="url(#clipPath7)"><tspan
         style="font-variant:normal;font-weight:normal;font-size:16px;font-family:Helvetica;writing-mode:lr-tb;fill:#000000;fill-opacity:1;fill-rule:nonzero;stroke:none"
         x="0 10.671875 18.671875 27.570312 32.898438 41.796875 49.796875 57.796875 61.367188 72.039062 82.710938"
         y="0"
         sodipodi:role="line"
         id="tspan6">Express API</tspan></text>
    <path
       id="path8"
       d="M 138,170 H 287.89999"
       style="fill:none;stroke:#000000;stroke-width:1;stroke-linecap:butt;stroke-linejoin:miter;stroke-miterlimit:10;stroke-dasharray:none;stroke-opacity:1"
       transform="matrix(0.95721074,0,0,0.95721074,0.47860537,0.47860537)"
       clip-path="url(#clipPath9)" />
    <path
       id="path10"
       d="m 294.64999,170 -9,4.5 2.25,-4.5 -2.25,-4.5 z"
       style="fill:#000000;fill-opacity:1;fill-rule:nonzero;stroke:#000000;stroke-width:1;stroke-linecap:butt;stroke-linejoin:miter;stroke-miterlimit:10;stroke-dasharray:none;stroke-opacity:1"
       transform="matrix(0.95721074,0,0,0.95721074,0.47860537,0.47860537)"
       clip-path="url(#clipPath11)" />
    <path
       id="path12"
       d="m 178,149 h 70 v 20 h -70 z"
       style="fill:#ffffff;fill-opacity:1;fill-rule:nonzero;stroke:#000000;stroke-width:1;stroke-linecap:butt;stroke-linejoin:miter;stroke-miterlimit:10;stroke-dasharray:none;stroke-opacity:1"
       transform="scale(0.95721074)"
       clip-path="url(#clipPath13)" />
    <text
       id="text13"
       xml:space="preserve"
       transform="matrix(0.95722034,0,0,0.95722034,182.60474,156.98414)"
       clip-path="url(#clipPath14)"><tspan
         style="font-variant:normal;font-weight:normal;font-size:16px;font-family:Helvetica;writing-mode:lr-tb;fill:#000000;fill-opacity:1;fill-rule:nonzero;stroke:none"
         x="0 4.4453125 17.773438 26.671875 35.570312"
         y="0"
         sodipodi:role="line"
         id="tspan13">Image</tspan></text>
    <text
       id="text14"
       xml:space="preserve"
       transform="matrix(0.95722034,0,0,0.95722034,11.187513,22.973288)"
       clip-path="url(#clipPath15)"><tspan
         style="font-variant:normal;font-weight:700;font-size:26px;font-family:Helvetica;writing-mode:lr-tb;fill:#000000;fill-opacity:1;fill-rule:nonzero;stroke:none"
         x="0 17.341797 33.223633 40.447266 56.329102 64.987305 72.210938 88.092773 103.97461 111.19824 125.6582 140.11816 147.3418 156 163.22363 170.44727 186.3291 193.55273 212.3291 231.10547 237.37695 256.15332 264.81152 273.46973 287.92969 302.38965 318.27148 332.73145"
         y="0"
         sodipodi:role="line"
         id="tspan14">Solution #2 - In HD Attached</tspan></text>
    <text
       id="text15"
       xml:space="preserve"
       transform="matrix(0.95722034,0,0,0.95722034,124.07969,53.604339)"
       clip-path="url(#clipPath16)"><tspan
         style="font-variant:normal;font-weight:700;font-size:26px;font-family:Helvetica;writing-mode:lr-tb;fill:#000000;fill-opacity:1;fill-rule:nonzero;stroke:none"
         x="0 8.6582031 24.540039 31.763672 49.105469 63.56543 73.683594 88.143555 102.60352"
         y="0"
         sodipodi:role="line"
         id="tspan15">to Server</tspan></text>
    <text
       id="text16"
       xml:space="preserve"
       transform="matrix(0.95722034,0,0,0.95722034,375.99316,89.021492)"
       clip-path="url(#clipPath17)"><tspan
         style="font-variant:normal;font-weight:700;font-size:16px;font-family:Helvetica;writing-mode:lr-tb;fill:#000000;fill-opacity:1;fill-rule:nonzero;stroke:none"
         x="0 12.445312 22.21875 28.445312 32.890625 44.445312 54.21875 63.117188 68.445312 77.34375 87.117188 91.5625 102.23438 111.13281 117.35938 126.25781 135.15625"
         y="0"
         sodipodi:role="line"
         id="tspan16">Our Hosted Server</tspan></text>
    <path
       id="path18"
       d="M 498,121 H 608 V 251 H 498 Z"
       style="fill:#ffffff;fill-opacity:1;fill-rule:nonzero;stroke:#000000;stroke-width:1;stroke-linecap:butt;stroke-linejoin:miter;stroke-miterlimit:10;stroke-dasharray:none;stroke-opacity:1"
       transform="scale(0.95721074)"
       clip-path="url(#clipPath19)" />
    <text
       id="text19"
       xml:space="preserve"
       transform="matrix(0.95722034,0,0,0.95722034,492.74413,182.82909)"
       clip-path="url(#clipPath20)"><tspan
         style="font-variant:normal;font-weight:normal;font-size:16px;font-family:Helvetica;writing-mode:lr-tb;fill:#000000;fill-opacity:1;fill-rule:nonzero;stroke:none"
         x="0 11.554688 20.453125 25.78125 34.679688 39.125 50.679688 56.007812 59.5625 67.5625"
         y="0"
         sodipodi:role="line"
         id="tspan19">Hard Drive</tspan></text>
  </g>
</svg>
