<?xml version="1.0" encoding="UTF-8" standalone="no"?>
<!-- Created with Inkscape (http://www.inkscape.org/) -->

<svg
   version="1.1"
   id="svg1"
   width="1430.7198"
   height="656"
   viewBox="0 0 1430.7198 656"
   sodipodi:docname="node-17.pdf"
   xmlns:inkscape="http://www.inkscape.org/namespaces/inkscape"
   xmlns:sodipodi="http://sodipodi.sourceforge.net/DTD/sodipodi-0.dtd"
   xmlns="http://www.w3.org/2000/svg"
   xmlns:svg="http://www.w3.org/2000/svg">
  <defs
     id="defs1">
    <clipPath
       clipPathUnits="userSpaceOnUse"
       id="clipPath2">
      <path
         d="M 0,0 H 4470.833 V 2048.2585 H 0 Z"
         transform="scale(0.33394222)"
         clip-rule="evenodd"
         id="path2" />
    </clipPath>
    <clipPath
       clipPathUnits="userSpaceOnUse"
       id="clipPath4">
      <path
         d="M 0,0 H 4470.833 V 2045.2639 H 0 Z"
         transform="matrix(0.33394222,0,0,0.33394222,-0.49999999,-0.49999999)"
         clip-rule="evenodd"
         id="path4" />
    </clipPath>
    <clipPath
       clipPathUnits="userSpaceOnUse"
       id="clipPath6">
      <path
         d="M 0,0 H 4470.833 V 2045.2639 H 0 Z"
         transform="matrix(0.33394222,0,0,0.33394222,-0.49999999,-0.49999999)"
         clip-rule="evenodd"
         id="path6" />
    </clipPath>
    <clipPath
       clipPathUnits="userSpaceOnUse"
       id="clipPath8">
      <path
         d="M 0,0 H 4470.833 V 2045.2639 H 0 Z"
         transform="scale(0.33394222)"
         clip-rule="evenodd"
         id="path8" />
    </clipPath>
    <clipPath
       clipPathUnits="userSpaceOnUse"
       id="clipPath10">
      <path
         d="M 0,0 H 4470.833 V 2045.2639 H 0 Z"
         transform="matrix(0.33394222,0,0,0.33394222,-0.49999999,-0.49999999)"
         clip-rule="evenodd"
         id="path10" />
    </clipPath>
    <clipPath
       clipPathUnits="userSpaceOnUse"
       id="clipPath12">
      <path
         d="M 0,0 H 4470.833 V 2045.2639 H 0 Z"
         transform="matrix(0.33394222,0,0,0.33394222,-0.49999999,-0.49999999)"
         clip-rule="evenodd"
         id="path12" />
    </clipPath>
    <clipPath
       clipPathUnits="userSpaceOnUse"
       id="clipPath14">
      <path
         d="M 0,0 H 4470.833 V 2045.2639 H 0 Z"
         transform="scale(0.33394222)"
         clip-rule="evenodd"
         id="path14" />
    </clipPath>
    <clipPath
       clipPathUnits="userSpaceOnUse"
       id="clipPath15">
      <path
         d="M 0,0 H 4470.833 V 2045.2639 H 0 Z"
         transform="matrix(0.33393888,0,0,0.33393888,-679.0625,-246)"
         clip-rule="evenodd"
         id="path15" />
    </clipPath>
    <clipPath
       clipPathUnits="userSpaceOnUse"
       id="clipPath17">
      <path
         d="M 0,0 H 4470.833 V 2045.2639 H 0 Z"
         transform="scale(0.33394222)"
         clip-rule="evenodd"
         id="path17" />
    </clipPath>
    <clipPath
       clipPathUnits="userSpaceOnUse"
       id="clipPath18">
      <path
         d="M 0,0 H 4470.833 V 2045.2639 H 0 Z"
         transform="matrix(0.33393888,0,0,0.33393888,-618.98438,-71)"
         clip-rule="evenodd"
         id="path18" />
    </clipPath>
    <clipPath
       clipPathUnits="userSpaceOnUse"
       id="clipPath20">
      <path
         d="M 0,0 H 4470.833 V 2045.2639 H 0 Z"
         transform="scale(0.33394222)"
         clip-rule="evenodd"
         id="path20" />
    </clipPath>
    <clipPath
       clipPathUnits="userSpaceOnUse"
       id="clipPath21">
      <path
         d="M 0,0 H 4470.833 V 2045.2639 H 0 Z"
         transform="matrix(0.33393888,0,0,0.33393888,-762.95313,-71)"
         clip-rule="evenodd"
         id="path21" />
    </clipPath>
    <clipPath
       clipPathUnits="userSpaceOnUse"
       id="clipPath23">
      <path
         d="M 0,0 H 4470.833 V 2045.2639 H 0 Z"
         transform="scale(0.33394222)"
         clip-rule="evenodd"
         id="path23" />
    </clipPath>
    <clipPath
       clipPathUnits="userSpaceOnUse"
       id="clipPath24">
      <path
         d="M 0,0 H 4470.833 V 2045.2639 H 0 Z"
         transform="matrix(0.33393888,0,0,0.33393888,-624.96875,-111)"
         clip-rule="evenodd"
         id="path24" />
    </clipPath>
    <clipPath
       clipPathUnits="userSpaceOnUse"
       id="clipPath26">
      <path
         d="M 0,0 H 4470.833 V 2045.2639 H 0 Z"
         transform="scale(0.33394222)"
         clip-rule="evenodd"
         id="path26" />
    </clipPath>
    <clipPath
       clipPathUnits="userSpaceOnUse"
       id="clipPath27">
      <path
         d="M 0,0 H 4470.833 V 2045.2639 H 0 Z"
         transform="matrix(0.33393888,0,0,0.33393888,-756.28125,-111)"
         clip-rule="evenodd"
         id="path27" />
    </clipPath>
    <clipPath
       clipPathUnits="userSpaceOnUse"
       id="clipPath29">
      <path
         d="M 0,0 H 4470.833 V 2045.2639 H 0 Z"
         transform="scale(0.33394222)"
         clip-rule="evenodd"
         id="path29" />
    </clipPath>
    <clipPath
       clipPathUnits="userSpaceOnUse"
       id="clipPath30">
      <path
         d="M 0,0 H 4470.833 V 2045.2639 H 0 Z"
         transform="matrix(0.33393888,0,0,0.33393888,-614.3125,-151)"
         clip-rule="evenodd"
         id="path30" />
    </clipPath>
    <clipPath
       clipPathUnits="userSpaceOnUse"
       id="clipPath32">
      <path
         d="M 0,0 H 4470.833 V 2045.2639 H 0 Z"
         transform="scale(0.33394222)"
         clip-rule="evenodd"
         id="path32" />
    </clipPath>
    <clipPath
       clipPathUnits="userSpaceOnUse"
       id="clipPath33">
      <path
         d="M 0,0 H 4470.833 V 2045.2639 H 0 Z"
         transform="matrix(0.33393888,0,0,0.33393888,-727.625,-151)"
         clip-rule="evenodd"
         id="path33" />
    </clipPath>
    <clipPath
       clipPathUnits="userSpaceOnUse"
       id="clipPath34">
      <path
         d="M 0,0 H 4470.833 V 2045.2639 H 0 Z"
         transform="matrix(0.33393888,0,0,0.33393888,-654.10939,-23)"
         clip-rule="evenodd"
         id="path34" />
    </clipPath>
    <clipPath
       clipPathUnits="userSpaceOnUse"
       id="clipPath36">
      <path
         d="M 0,0 H 4470.833 V 2045.2639 H 0 Z"
         transform="matrix(0.33394222,0,0,0.33394222,-0.49999999,-0.49999999)"
         clip-rule="evenodd"
         id="path36" />
    </clipPath>
    <clipPath
       clipPathUnits="userSpaceOnUse"
       id="clipPath38">
      <path
         d="M 0,0 H 4470.833 V 2045.2639 H 0 Z"
         transform="matrix(0.33394222,0,0,0.33394222,-0.49999999,-0.49999999)"
         clip-rule="evenodd"
         id="path38" />
    </clipPath>
    <clipPath
       clipPathUnits="userSpaceOnUse"
       id="clipPath39">
      <path
         d="M 0,0 H 4470.833 V 2045.2639 H 0 Z"
         transform="matrix(0.33393888,0,0,0.33393888,-39.828125,-334)"
         clip-rule="evenodd"
         id="path39" />
    </clipPath>
    <clipPath
       clipPathUnits="userSpaceOnUse"
       id="clipPath41">
      <path
         d="M 0,0 H 4470.833 V 2045.2639 H 0 Z"
         transform="scale(0.33394222)"
         clip-rule="evenodd"
         id="path41" />
    </clipPath>
    <clipPath
       clipPathUnits="userSpaceOnUse"
       id="clipPath43">
      <path
         d="M 0,0 H 4470.833 V 2045.2639 H 0 Z"
         transform="scale(0.33394222)"
         clip-rule="evenodd"
         id="path43" />
    </clipPath>
    <clipPath
       clipPathUnits="userSpaceOnUse"
       id="clipPath44">
      <path
         d="M 0,0 H 4470.833 V 2045.2639 H 0 Z"
         transform="matrix(0.33393888,0,0,0.33393888,-457.64063,-453)"
         clip-rule="evenodd"
         id="path44" />
    </clipPath>
    <clipPath
       clipPathUnits="userSpaceOnUse"
       id="clipPath46">
      <path
         d="M 0,0 H 4470.833 V 2045.2639 H 0 Z"
         transform="scale(0.33394222)"
         clip-rule="evenodd"
         id="path46" />
    </clipPath>
    <clipPath
       clipPathUnits="userSpaceOnUse"
       id="clipPath47">
      <path
         d="M 0,0 H 4470.833 V 2045.2639 H 0 Z"
         transform="matrix(0.33393888,0,0,0.33393888,-618.73438,-453)"
         clip-rule="evenodd"
         id="path47" />
    </clipPath>
    <clipPath
       clipPathUnits="userSpaceOnUse"
       id="clipPath49">
      <path
         d="M 0,0 H 4470.833 V 2045.2639 H 0 Z"
         transform="scale(0.33394222)"
         clip-rule="evenodd"
         id="path49" />
    </clipPath>
    <clipPath
       clipPathUnits="userSpaceOnUse"
       id="clipPath50">
      <path
         d="M 0,0 H 4470.833 V 2045.2639 H 0 Z"
         transform="matrix(0.33393888,0,0,0.33393888,-444.3125,-493)"
         clip-rule="evenodd"
         id="path50" />
    </clipPath>
    <clipPath
       clipPathUnits="userSpaceOnUse"
       id="clipPath52">
      <path
         d="M 0,0 H 4470.833 V 2045.2639 H 0 Z"
         transform="scale(0.33394222)"
         clip-rule="evenodd"
         id="path52" />
    </clipPath>
    <clipPath
       clipPathUnits="userSpaceOnUse"
       id="clipPath53">
      <path
         d="M 0,0 H 4470.833 V 2045.2639 H 0 Z"
         transform="matrix(0.33393888,0,0,0.33393888,-790.78125,-493)"
         clip-rule="evenodd"
         id="path53" />
    </clipPath>
    <clipPath
       clipPathUnits="userSpaceOnUse"
       id="clipPath55">
      <path
         d="M 0,0 H 4470.833 V 2045.2639 H 0 Z"
         transform="scale(0.33394222)"
         clip-rule="evenodd"
         id="path55" />
    </clipPath>
    <clipPath
       clipPathUnits="userSpaceOnUse"
       id="clipPath56">
      <path
         d="M 0,0 H 4470.833 V 2045.2639 H 0 Z"
         transform="matrix(0.33393888,0,0,0.33393888,-402.73438,-533)"
         clip-rule="evenodd"
         id="path56" />
    </clipPath>
    <clipPath
       clipPathUnits="userSpaceOnUse"
       id="clipPath58">
      <path
         d="M 0,0 H 4470.833 V 2045.2639 H 0 Z"
         transform="scale(0.33394222)"
         clip-rule="evenodd"
         id="path58" />
    </clipPath>
    <clipPath
       clipPathUnits="userSpaceOnUse"
       id="clipPath59">
      <path
         d="M 0,0 H 4470.833 V 2045.2639 H 0 Z"
         transform="matrix(0.33393888,0,0,0.33393888,-823.46875,-533)"
         clip-rule="evenodd"
         id="path59" />
    </clipPath>
    <clipPath
       clipPathUnits="userSpaceOnUse"
       id="clipPath61">
      <path
         d="M 0,0 H 4470.833 V 2045.2639 H 0 Z"
         transform="scale(0.33394222)"
         clip-rule="evenodd"
         id="path61" />
    </clipPath>
    <clipPath
       clipPathUnits="userSpaceOnUse"
       id="clipPath62">
      <path
         d="M 0,0 H 4470.833 V 2045.2639 H 0 Z"
         transform="matrix(0.33393888,0,0,0.33393888,-426.95313,-573)"
         clip-rule="evenodd"
         id="path62" />
    </clipPath>
    <clipPath
       clipPathUnits="userSpaceOnUse"
       id="clipPath64">
      <path
         d="M 0,0 H 4470.833 V 2045.2639 H 0 Z"
         transform="scale(0.33394222)"
         clip-rule="evenodd"
         id="path64" />
    </clipPath>
    <clipPath
       clipPathUnits="userSpaceOnUse"
       id="clipPath65">
      <path
         d="M 0,0 H 4470.833 V 2045.2639 H 0 Z"
         transform="matrix(0.33393888,0,0,0.33393888,-790.78125,-573)"
         clip-rule="evenodd"
         id="path65" />
    </clipPath>
    <clipPath
       clipPathUnits="userSpaceOnUse"
       id="clipPath67">
      <path
         d="M 0,0 H 4470.833 V 2045.2639 H 0 Z"
         transform="scale(0.33394222)"
         clip-rule="evenodd"
         id="path67" />
    </clipPath>
    <clipPath
       clipPathUnits="userSpaceOnUse"
       id="clipPath68">
      <path
         d="M 0,0 H 4470.833 V 2045.2639 H 0 Z"
         transform="matrix(0.33393888,0,0,0.33393888,-458.98438,-613.00001)"
         clip-rule="evenodd"
         id="path68" />
    </clipPath>
    <clipPath
       clipPathUnits="userSpaceOnUse"
       id="clipPath70">
      <path
         d="M 0,0 H 4470.833 V 2045.2639 H 0 Z"
         transform="scale(0.33394222)"
         clip-rule="evenodd"
         id="path70" />
    </clipPath>
    <clipPath
       clipPathUnits="userSpaceOnUse"
       id="clipPath71">
      <path
         d="M 0,0 H 4470.833 V 2045.2639 H 0 Z"
         transform="matrix(0.33393888,0,0,0.33393888,-782.75,-613.00001)"
         clip-rule="evenodd"
         id="path71" />
    </clipPath>
    <clipPath
       clipPathUnits="userSpaceOnUse"
       id="clipPath73">
      <path
         d="M 0,0 H 4470.833 V 2045.2639 H 0 Z"
         transform="scale(0.33394222)"
         clip-rule="evenodd"
         id="path73" />
    </clipPath>
    <clipPath
       clipPathUnits="userSpaceOnUse"
       id="clipPath74">
      <path
         d="M 0,0 H 4470.833 V 2045.2639 H 0 Z"
         transform="matrix(0.33393888,0,0,0.33393888,-447.625,-653)"
         clip-rule="evenodd"
         id="path74" />
    </clipPath>
    <clipPath
       clipPathUnits="userSpaceOnUse"
       id="clipPath76">
      <path
         d="M 0,0 H 4470.833 V 2045.2639 H 0 Z"
         transform="scale(0.33394222)"
         clip-rule="evenodd"
         id="path76" />
    </clipPath>
    <clipPath
       clipPathUnits="userSpaceOnUse"
       id="clipPath77">
      <path
         d="M 0,0 H 4470.833 V 2045.2639 H 0 Z"
         transform="matrix(0.33393888,0,0,0.33393888,-803.45313,-653)"
         clip-rule="evenodd"
         id="path77" />
    </clipPath>
  </defs>
  <sodipodi:namedview
     id="namedview1"
     pagecolor="#ffffff"
     bordercolor="#000000"
     borderopacity="0.25"
     inkscape:showpageshadow="2"
     inkscape:pageopacity="0.0"
     inkscape:pagecheckerboard="0"
     inkscape:deskcolor="#d1d1d1">
    <inkscape:page
       x="0"
       y="0"
       inkscape:label="1"
       id="page1"
       width="1430.7198"
       height="656"
       margin="0"
       bleed="0" />
  </sodipodi:namedview>
  <g
     id="g1"
     inkscape:groupmode="layer"
     inkscape:label="1">
    <path
       id="path1"
       d="M 0,0 H 1493 V 684 H 0 Z"
       style="fill:#ffffff;fill-opacity:1;fill-rule:nonzero;stroke:none"
       transform="scale(0.95824956)"
       clip-path="url(#clipPath2)" />
    <path
       id="path3"
       d="m 745.51001,178 v 29.89999"
       style="fill:none;stroke:#000000;stroke-width:1;stroke-linecap:butt;stroke-linejoin:miter;stroke-miterlimit:10;stroke-dasharray:none;stroke-opacity:1"
       transform="matrix(0.95824956,0,0,0.95824956,0.47912477,0.47912477)"
       clip-path="url(#clipPath4)" />
    <path
       id="path5"
       d="m 745.51001,214.64999 -4.5,-9 4.5,2.25 4.5,-2.25 z"
       style="fill:#000000;fill-opacity:1;fill-rule:nonzero;stroke:#000000;stroke-width:1;stroke-linecap:butt;stroke-linejoin:miter;stroke-miterlimit:10;stroke-dasharray:none;stroke-opacity:1"
       transform="matrix(0.95824956,0,0,0.95824956,0.47912477,0.47912477)"
       clip-path="url(#clipPath6)" />
    <path
       id="path7"
       d="m 570.51001,28 h 350 v 150 h -350 z"
       style="fill:#dae8fc;fill-opacity:1;fill-rule:nonzero;stroke:#6c8ebf;stroke-width:1;stroke-linecap:butt;stroke-linejoin:miter;stroke-miterlimit:10;stroke-dasharray:none;stroke-opacity:1"
       transform="scale(0.95824956)"
       clip-path="url(#clipPath8)" />
    <path
       id="path9"
       d="m 745.51001,258 -0.01,26 0.31,15.89999"
       style="fill:none;stroke:#000000;stroke-width:1;stroke-linecap:butt;stroke-linejoin:miter;stroke-miterlimit:10;stroke-dasharray:none;stroke-opacity:1"
       transform="matrix(0.95824956,0,0,0.95824956,0.47912477,0.47912477)"
       clip-path="url(#clipPath10)" />
    <path
       id="path11"
       d="m 745.94,306.64999 -4.66998,-8.91 4.53998,2.16 4.46002,-2.33999 z"
       style="fill:#000000;fill-opacity:1;fill-rule:nonzero;stroke:#000000;stroke-width:1;stroke-linecap:butt;stroke-linejoin:miter;stroke-miterlimit:10;stroke-dasharray:none;stroke-opacity:1"
       transform="matrix(0.95824956,0,0,0.95824956,0.47912477,0.47912477)"
       clip-path="url(#clipPath12)" />
    <path
       id="path13"
       d="m 670.51001,218 h 150 v 40 h -150 z"
       style="fill:#f8cecc;fill-opacity:1;fill-rule:nonzero;stroke:#b85450;stroke-width:1;stroke-linecap:butt;stroke-linejoin:miter;stroke-miterlimit:10;stroke-dasharray:none;stroke-opacity:1"
       transform="scale(0.95824956)"
       clip-path="url(#clipPath14)" />
    <text
       id="text14"
       xml:space="preserve"
       transform="matrix(0.95825916,0,0,0.95825916,650.71786,235.73175)"
       clip-path="url(#clipPath15)"><tspan
         style="font-variant:normal;font-weight:normal;font-size:24px;font-family:Helvetica;writing-mode:lr-tb;fill:#000000;fill-opacity:1;fill-rule:nonzero;stroke:none"
         x="0 15.128906 37.78125 53.789062 60.457031 76.464844 89.8125 95.167969 111.17578 127.18359"
         y="0"
         sodipodi:role="line"
         id="tspan14">AWS S3 API</tspan></text>
    <path
       id="path16"
       d="m 580.51001,43 h 140 v 40 h -140 z"
       style="fill:#d5e8d4;fill-opacity:1;fill-rule:nonzero;stroke:#82b366;stroke-width:1;stroke-linecap:butt;stroke-linejoin:miter;stroke-miterlimit:10;stroke-dasharray:none;stroke-opacity:1"
       transform="scale(0.95824956)"
       clip-path="url(#clipPath17)" />
    <text
       id="text17"
       xml:space="preserve"
       transform="matrix(0.95825916,0,0,0.95825916,593.14745,68.0364)"
       clip-path="url(#clipPath18)"><tspan
         style="font-variant:normal;font-weight:normal;font-size:24px;font-family:Helvetica;writing-mode:lr-tb;fill:#000000;fill-opacity:1;fill-rule:nonzero;stroke:none"
         x="0 17.332031 30.679688 50.671875"
         y="0"
         sodipodi:role="line"
         id="tspan17">Name</tspan></text>
    <path
       id="path19"
       d="m 720.51001,43 h 190 v 40 h -190 z"
       style="fill:#ffffff;fill-opacity:1;fill-rule:nonzero;stroke:#000000;stroke-width:1;stroke-linecap:butt;stroke-linejoin:miter;stroke-miterlimit:10;stroke-dasharray:none;stroke-opacity:1"
       transform="scale(0.95824956)"
       clip-path="url(#clipPath20)" />
    <text
       id="text20"
       xml:space="preserve"
       transform="matrix(0.95825916,0,0,0.95825916,731.10683,68.0364)"
       clip-path="url(#clipPath21)"><tspan
         style="font-variant:normal;font-weight:normal;font-size:24px;font-family:Helvetica;writing-mode:lr-tb;fill:#000000;fill-opacity:1;fill-rule:nonzero;stroke:none"
         x="0 13.347656 26.695312 40.042969 52.042969 65.390625 72.058594 77.390625 90.738281"
         y="0"
         sodipodi:role="line"
         id="tspan20">house.jpg</tspan></text>
    <path
       id="path22"
       d="m 580.51001,83 h 140 v 40 h -140 z"
       style="fill:#d5e8d4;fill-opacity:1;fill-rule:nonzero;stroke:#82b366;stroke-width:1;stroke-linecap:butt;stroke-linejoin:miter;stroke-miterlimit:10;stroke-dasharray:none;stroke-opacity:1"
       transform="scale(0.95824956)"
       clip-path="url(#clipPath23)" />
    <text
       id="text23"
       xml:space="preserve"
       transform="matrix(0.95825916,0,0,0.95825916,598.88203,106.36677)"
       clip-path="url(#clipPath24)"><tspan
         style="font-variant:normal;font-weight:normal;font-size:24px;font-family:Helvetica;writing-mode:lr-tb;fill:#000000;fill-opacity:1;fill-rule:nonzero;stroke:none"
         x="0 13.347656 25.347656 38.695312"
         y="0"
         sodipodi:role="line"
         id="tspan23">Type</tspan></text>
    <path
       id="path25"
       d="m 720.51001,83 h 190 v 40 h -190 z"
       style="fill:#ffffff;fill-opacity:1;fill-rule:nonzero;stroke:#000000;stroke-width:1;stroke-linecap:butt;stroke-linejoin:miter;stroke-miterlimit:10;stroke-dasharray:none;stroke-opacity:1"
       transform="scale(0.95824956)"
       clip-path="url(#clipPath26)" />
    <text
       id="text26"
       xml:space="preserve"
       transform="matrix(0.95825916,0,0,0.95825916,724.71344,106.36677)"
       clip-path="url(#clipPath27)"><tspan
         style="font-variant:normal;font-weight:normal;font-size:24px;font-family:Helvetica;writing-mode:lr-tb;fill:#000000;fill-opacity:1;fill-rule:nonzero;stroke:none"
         x="0 5.3320312 25.324219 38.671875 52.019531 65.367188 72.035156 77.367188 90.714844 104.0625"
         y="0"
         sodipodi:role="line"
         id="tspan26">image/jpeg</tspan></text>
    <path
       id="path28"
       d="m 580.51001,123 h 140 v 40 h -140 z"
       style="fill:#d5e8d4;fill-opacity:1;fill-rule:nonzero;stroke:#82b366;stroke-width:1;stroke-linecap:butt;stroke-linejoin:miter;stroke-miterlimit:10;stroke-dasharray:none;stroke-opacity:1"
       transform="scale(0.95824956)"
       clip-path="url(#clipPath29)" />
    <text
       id="text29"
       xml:space="preserve"
       transform="matrix(0.95825916,0,0,0.95825916,588.67058,144.69713)"
       clip-path="url(#clipPath30)"><tspan
         style="font-variant:normal;font-weight:normal;font-size:24px;font-family:Helvetica;writing-mode:lr-tb;fill:#000000;fill-opacity:1;fill-rule:nonzero;stroke:none"
         x="0 16.007812 29.355469 41.355469 53.355469 66.703125"
         y="0"
         sodipodi:role="line"
         id="tspan29">Bucket</tspan></text>
    <path
       id="path31"
       d="m 720.51001,123 h 190 v 40 h -190 z"
       style="fill:#ffffff;fill-opacity:1;fill-rule:nonzero;stroke:#000000;stroke-width:1;stroke-linecap:butt;stroke-linejoin:miter;stroke-miterlimit:10;stroke-dasharray:none;stroke-opacity:1"
       transform="scale(0.95824956)"
       clip-path="url(#clipPath32)" />
    <text
       id="text32"
       xml:space="preserve"
       transform="matrix(0.95825916,0,0,0.95825916,697.25332,144.69713)"
       clip-path="url(#clipPath33)"><tspan
         style="font-variant:normal;font-weight:normal;font-size:24px;font-family:Helvetica;writing-mode:lr-tb;fill:#000000;fill-opacity:1;fill-rule:nonzero;stroke:none"
         x="0 16.007812 21.339844 34.6875 48.035156 60.035156 66.703125 80.050781 88.042969 96.035156 102.70312 122.69531 136.04297 149.39062 162.73828"
         y="0"
         sodipodi:role="line"
         id="tspan32">Blogster-Images</tspan></text>
    <text
       id="text33"
       xml:space="preserve"
       transform="matrix(0.95825916,0,0,0.95825916,626.80631,22.039961)"
       clip-path="url(#clipPath34)"><tspan
         style="font-variant:normal;font-weight:normal;font-size:24px;font-family:Helvetica;writing-mode:lr-tb;fill:#000000;fill-opacity:1;fill-rule:nonzero;stroke:none"
         x="0 17.332031 30.679688 37.347656 50.695312 56.027344 61.359375 73.359375 80.027344 93.375 100.04297 106.71094 124.04297 137.39062 142.72266 156.07031 169.41797"
         y="0"
         sodipodi:role="line"
         id="tspan33">Details of Upload</tspan></text>
    <path
       id="path35"
       d="m 745.51001,338 -0.01,26 0.31,15.89999"
       style="fill:none;stroke:#000000;stroke-width:1;stroke-linecap:butt;stroke-linejoin:miter;stroke-miterlimit:10;stroke-dasharray:none;stroke-opacity:1"
       transform="matrix(0.95824956,0,0,0.95824956,0.47912477,0.47912477)"
       clip-path="url(#clipPath36)" />
    <path
       id="path37"
       d="m 745.94,386.64999 -4.66998,-8.91 4.53998,2.16 4.46002,-2.33999 z"
       style="fill:#000000;fill-opacity:1;fill-rule:nonzero;stroke:#000000;stroke-width:1;stroke-linecap:butt;stroke-linejoin:miter;stroke-miterlimit:10;stroke-dasharray:none;stroke-opacity:1"
       transform="matrix(0.95824956,0,0,0.95824956,0.47912477,0.47912477)"
       clip-path="url(#clipPath38)" />
    <text
       id="text38"
       xml:space="preserve"
       transform="matrix(0.95825916,0,0,0.95825916,38.165666,320.05856)"
       clip-path="url(#clipPath39)"><tspan
         style="font-variant:normal;font-weight:normal;font-size:17px;font-family:Helvetica;writing-mode:lr-tb;fill:#000000;fill-opacity:1;fill-rule:nonzero;stroke:none"
         x="0 9.4545898 14.177734 18.900879 28.355469 36.855469 41.578613 46.301758 51.024902 60.479492 64.256348 73.710938 83.165527 91.665527 96.388672 105.84326 111.50439 117.16553 120.94238 135.10352 144.55811 154.0127 163.46729 171.96729 176.69043 185.19043 194.64502 199.36816 208.82275 222.98389 232.43848 240.93848 250.39307 259.84766 269.30225 281.5791 290.0791 294.80225 303.30225 312.75684 326.91797 331.64111 341.0957 350.55029 360.00488 369.45947 378.91406 387.41406 396.86865 406.32324 415.77783 424.27783 433.73242 443.18701 452.6416 462.09619 471.55078 481.00537 490.45996 499.91455 509.36914 518.82373 523.54688 533.00146 542.45605 550.95605 555.6792 565.13379 574.58838 584.04297 592.54297 601.99756 606.7207 610.49756 619.95215 629.40674 638.86133 648.31592 659.03223 675.07764 686.4165 697.75537 706.25537 714.75537 724.20996 732.70996 741.20996 752.54883 762.00342 770.50342 775.22656 784.68115 794.60889 805.94775 817.28662 829.56348 841.84033 853.1792 865.45605 874.91064 884.36523 889.08838 898.54297 907.99756 912.7207 918.38184 927.83643 936.33643 945.79102 955.24561 965.17334 968.9502 983.11133 992.56592 1002.0205 1011.4751 1026.5908 1036.0454 1046.4297 1050.2065 1059.6611 1069.1157 1078.5703 1089.9092 1101.248 1109.748 1119.2026 1122.9795 1128.6406 1138.0952 1146.5952 1156.5229 1165.9775 1175.4321 1184.8867 1194.3413 1203.7959 1213.2505 1222.7051 1232.1597 1241.6143 1251.0688 1262.4077 1273.7466 1277.5234 1286.978 1296.4326 1305.8872 1310.6104 1320.0649 1325.7261 1335.1807 1345.1084 1354.563 1364.0176 1372.5176 1381.9722 1391.4268 1400.8813"
         y="0"
         sodipodi:role="line"
         id="tspan38">https://blogster-images.s3.amazonaws.com/5a85dc351cd843163727f63c/house.jpeg?AWSAccessKeyId=ABCD&amp;Content-Type=image%2Fjpeg&amp;Expires=1519779483&amp;Signature=abcd123</tspan></text>
    <path
       id="path40"
       d="m 381,410 h 729.01 V 680 H 381 Z"
       style="fill:#dae8fc;fill-opacity:1;fill-rule:nonzero;stroke:#6c8ebf;stroke-width:1;stroke-linecap:butt;stroke-linejoin:miter;stroke-miterlimit:10;stroke-dasharray:none;stroke-opacity:1"
       transform="scale(0.95824956)"
       clip-path="url(#clipPath41)" />
    <path
       id="path42"
       d="m 391,425 h 216 v 40 H 391 Z"
       style="fill:#d5e8d4;fill-opacity:1;fill-rule:nonzero;stroke:#82b366;stroke-width:1;stroke-linecap:butt;stroke-linejoin:miter;stroke-miterlimit:10;stroke-dasharray:none;stroke-opacity:1"
       transform="scale(0.95824956)"
       clip-path="url(#clipPath43)" />
    <text
       id="text43"
       xml:space="preserve"
       transform="matrix(0.95825916,0,0,0.95825916,438.53833,434.0914)"
       clip-path="url(#clipPath44)"><tspan
         style="font-variant:normal;font-weight:normal;font-size:24px;font-family:Helvetica;writing-mode:lr-tb;fill:#000000;fill-opacity:1;fill-rule:nonzero;stroke:none"
         x="0 17.332031 30.679688 50.671875 64.019531 69.351562"
         y="0"
         sodipodi:role="line"
         id="tspan43">Domain</tspan></text>
    <path
       id="path45"
       d="M 607.01001,425 H 1092.01 v 40 H 607.01001 Z"
       style="fill:#ffffff;fill-opacity:1;fill-rule:nonzero;stroke:#000000;stroke-width:1;stroke-linecap:butt;stroke-linejoin:miter;stroke-miterlimit:10;stroke-dasharray:none;stroke-opacity:1"
       transform="scale(0.95824956)"
       clip-path="url(#clipPath46)" />
    <text
       id="text46"
       xml:space="preserve"
       transform="matrix(0.95825916,0,0,0.95825916,592.90789,434.0914)"
       clip-path="url(#clipPath47)"><tspan
         style="font-variant:normal;font-weight:normal;font-size:24px;font-family:Helvetica;writing-mode:lr-tb;fill:#000000;fill-opacity:1;fill-rule:nonzero;stroke:none"
         x="0 13.347656 20.015625 26.683594 40.03125 52.03125 58.699219 65.367188 72.035156 85.382812 90.714844 104.0625 117.41016 129.41016 136.07812 149.42578 157.41797 165.41016 170.74219 190.73438 204.08203 217.42969 230.77734 242.77734 249.44531 261.44531 274.79297 281.46094 294.80859 314.80078 328.14844 340.14844 353.49609 366.84375 380.19141 397.52344 409.52344 416.19141 428.19141 441.53906"
         y="0"
         sodipodi:role="line"
         id="tspan46">https://blogster-images.s3.amazonaws.com</tspan></text>
    <path
       id="path48"
       d="m 391,465 h 216 v 40 H 391 Z"
       style="fill:#d5e8d4;fill-opacity:1;fill-rule:nonzero;stroke:#82b366;stroke-width:1;stroke-linecap:butt;stroke-linejoin:miter;stroke-miterlimit:10;stroke-dasharray:none;stroke-opacity:1"
       transform="scale(0.95824956)"
       clip-path="url(#clipPath49)" />
    <text
       id="text49"
       xml:space="preserve"
       transform="matrix(0.95825916,0,0,0.95825916,425.76652,472.42177)"
       clip-path="url(#clipPath50)"><tspan
         style="font-variant:normal;font-weight:normal;font-size:24px;font-family:Helvetica;writing-mode:lr-tb;fill:#000000;fill-opacity:1;fill-rule:nonzero;stroke:none"
         x="0 14.660156 19.992188 25.324219 38.671875 45.339844 62.671875 76.019531 96.011719"
         y="0"
         sodipodi:role="line"
         id="tspan49">File Name</tspan></text>
    <path
       id="path51"
       d="M 607.01001,465 H 1092.01 v 40 H 607.01001 Z"
       style="fill:#ffffff;fill-opacity:1;fill-rule:nonzero;stroke:#000000;stroke-width:1;stroke-linecap:butt;stroke-linejoin:miter;stroke-miterlimit:10;stroke-dasharray:none;stroke-opacity:1"
       transform="scale(0.95824956)"
       clip-path="url(#clipPath52)" />
    <text
       id="text52"
       xml:space="preserve"
       transform="matrix(0.95825916,0,0,0.95825916,757.77338,472.42177)"
       clip-path="url(#clipPath53)"><tspan
         style="font-variant:normal;font-weight:normal;font-size:24px;font-family:Helvetica;writing-mode:lr-tb;fill:#000000;fill-opacity:1;fill-rule:nonzero;stroke:none"
         x="0 13.347656 26.695312 40.042969 52.042969 65.390625 72.058594 77.390625 90.738281 104.08594"
         y="0"
         sodipodi:role="line"
         id="tspan52">house.jpeg</tspan></text>
    <path
       id="path54"
       d="m 391,505.01001 h 216 v 40 H 391 Z"
       style="fill:#d5e8d4;fill-opacity:1;fill-rule:nonzero;stroke:#82b366;stroke-width:1;stroke-linecap:butt;stroke-linejoin:miter;stroke-miterlimit:10;stroke-dasharray:none;stroke-opacity:1"
       transform="scale(0.95824956)"
       clip-path="url(#clipPath55)" />
    <text
       id="text55"
       xml:space="preserve"
       transform="matrix(0.95825916,0,0,0.95825916,385.92391,510.75213)"
       clip-path="url(#clipPath56)"><tspan
         style="font-variant:normal;font-weight:normal;font-size:24px;font-family:Helvetica;writing-mode:lr-tb;fill:#000000;fill-opacity:1;fill-rule:nonzero;stroke:none"
         x="0 15.128906 37.78125 53.789062 69.796875 81.796875 93.796875 107.14453 119.14453 131.14453 147.15234 160.5 172.5 179.16797"
         y="0"
         sodipodi:role="line"
         id="tspan55">AWSAccessKeyId</tspan></text>
    <path
       id="path57"
       d="M 607.01001,505.01001 H 1092.01 v 40 H 607.01001 Z"
       style="fill:#ffffff;fill-opacity:1;fill-rule:nonzero;stroke:#000000;stroke-width:1;stroke-linecap:butt;stroke-linejoin:miter;stroke-miterlimit:10;stroke-dasharray:none;stroke-opacity:1"
       transform="scale(0.95824956)"
       clip-path="url(#clipPath58)" />
    <text
       id="text58"
       xml:space="preserve"
       transform="matrix(0.95825916,0,0,0.95825916,789.09647,510.75213)"
       clip-path="url(#clipPath59)"><tspan
         style="font-variant:normal;font-weight:normal;font-size:24px;font-family:Helvetica;writing-mode:lr-tb;fill:#000000;fill-opacity:1;fill-rule:nonzero;stroke:none"
         x="0 13.347656 26.695312 38.695312"
         y="0"
         sodipodi:role="line"
         id="tspan58">abcd</tspan></text>
    <path
       id="path60"
       d="m 391,545.01001 h 216 v 40 H 391 Z"
       style="fill:#d5e8d4;fill-opacity:1;fill-rule:nonzero;stroke:#82b366;stroke-width:1;stroke-linecap:butt;stroke-linejoin:miter;stroke-miterlimit:10;stroke-dasharray:none;stroke-opacity:1"
       transform="scale(0.95824956)"
       clip-path="url(#clipPath61)" />
    <text
       id="text61"
       xml:space="preserve"
       transform="matrix(0.95825916,0,0,0.95825916,409.13175,549.0825)"
       clip-path="url(#clipPath62)"><tspan
         style="font-variant:normal;font-weight:normal;font-size:24px;font-family:Helvetica;writing-mode:lr-tb;fill:#000000;fill-opacity:1;fill-rule:nonzero;stroke:none"
         x="0 17.332031 30.679688 44.027344 50.695312 64.042969 77.390625 84.058594 92.050781 105.39844 117.39844 130.74609"
         y="0"
         sodipodi:role="line"
         id="tspan61">Content-Type</tspan></text>
    <path
       id="path63"
       d="M 607.01001,545.01001 H 1092.01 v 40 H 607.01001 Z"
       style="fill:#ffffff;fill-opacity:1;fill-rule:nonzero;stroke:#000000;stroke-width:1;stroke-linecap:butt;stroke-linejoin:miter;stroke-miterlimit:10;stroke-dasharray:none;stroke-opacity:1"
       transform="scale(0.95824956)"
       clip-path="url(#clipPath64)" />
    <text
       id="text64"
       xml:space="preserve"
       transform="matrix(0.95825916,0,0,0.95825916,757.77338,549.0825)"
       clip-path="url(#clipPath65)"><tspan
         style="font-variant:normal;font-weight:normal;font-size:24px;font-family:Helvetica;writing-mode:lr-tb;fill:#000000;fill-opacity:1;fill-rule:nonzero;stroke:none"
         x="0 5.3320312 25.324219 38.671875 52.019531 65.367188 72.035156 77.367188 90.714844 104.0625"
         y="0"
         sodipodi:role="line"
         id="tspan64">image/jpeg</tspan></text>
    <path
       id="path66"
       d="m 391,585.01001 h 216 v 40 H 391 Z"
       style="fill:#d5e8d4;fill-opacity:1;fill-rule:nonzero;stroke:#82b366;stroke-width:1;stroke-linecap:butt;stroke-linejoin:miter;stroke-miterlimit:10;stroke-dasharray:none;stroke-opacity:1"
       transform="scale(0.95824956)"
       clip-path="url(#clipPath67)" />
    <text
       id="text67"
       xml:space="preserve"
       transform="matrix(0.95825916,0,0,0.95825916,439.82599,587.41287)"
       clip-path="url(#clipPath68)"><tspan
         style="font-variant:normal;font-weight:normal;font-size:24px;font-family:Helvetica;writing-mode:lr-tb;fill:#000000;fill-opacity:1;fill-rule:nonzero;stroke:none"
         x="0 16.007812 28.007812 41.355469 46.6875 54.679688 68.027344"
         y="0"
         sodipodi:role="line"
         id="tspan67">Expires</tspan></text>
    <path
       id="path69"
       d="M 607.01001,585.01001 H 1092.01 v 40 H 607.01001 Z"
       style="fill:#ffffff;fill-opacity:1;fill-rule:nonzero;stroke:#000000;stroke-width:1;stroke-linecap:butt;stroke-linejoin:miter;stroke-miterlimit:10;stroke-dasharray:none;stroke-opacity:1"
       transform="scale(0.95824956)"
       clip-path="url(#clipPath70)" />
    <text
       id="text70"
       xml:space="preserve"
       transform="matrix(0.95825916,0,0,0.95825916,750.07736,587.41287)"
       clip-path="url(#clipPath71)"><tspan
         style="font-variant:normal;font-weight:normal;font-size:24px;font-family:Helvetica;writing-mode:lr-tb;fill:#000000;fill-opacity:1;fill-rule:nonzero;stroke:none"
         x="0 13.347656 26.695312 40.042969 53.390625 66.738281 80.085938 93.433594 106.78125 120.12891"
         y="0"
         sodipodi:role="line"
         id="tspan70">1519779483</tspan></text>
    <path
       id="path72"
       d="m 391,625.01001 h 216 v 40 H 391 Z"
       style="fill:#d5e8d4;fill-opacity:1;fill-rule:nonzero;stroke:#82b366;stroke-width:1;stroke-linecap:butt;stroke-linejoin:miter;stroke-miterlimit:10;stroke-dasharray:none;stroke-opacity:1"
       transform="scale(0.95824956)"
       clip-path="url(#clipPath73)" />
    <text
       id="text73"
       xml:space="preserve"
       transform="matrix(0.95825916,0,0,0.95825916,428.94076,625.74323)"
       clip-path="url(#clipPath74)"><tspan
         style="font-variant:normal;font-weight:normal;font-size:24px;font-family:Helvetica;writing-mode:lr-tb;fill:#000000;fill-opacity:1;fill-rule:nonzero;stroke:none"
         x="0 16.007812 21.339844 34.6875 48.035156 61.382812 68.050781 81.398438 89.390625"
         y="0"
         sodipodi:role="line"
         id="tspan73">Signature</tspan></text>
    <path
       id="path75"
       d="M 607.01001,625.01001 H 1092.01 v 40 H 607.01001 Z"
       style="fill:#ffffff;fill-opacity:1;fill-rule:nonzero;stroke:#000000;stroke-width:1;stroke-linecap:butt;stroke-linejoin:miter;stroke-miterlimit:10;stroke-dasharray:none;stroke-opacity:1"
       transform="scale(0.95824956)"
       clip-path="url(#clipPath76)" />
    <text
       id="text76"
       xml:space="preserve"
       transform="matrix(0.95825916,0,0,0.95825916,769.91632,625.74323)"
       clip-path="url(#clipPath77)"><tspan
         style="font-variant:normal;font-weight:normal;font-size:24px;font-family:Helvetica;writing-mode:lr-tb;fill:#000000;fill-opacity:1;fill-rule:nonzero;stroke:none"
         x="0 13.347656 26.695312 38.695312 52.042969 65.390625 78.738281"
         y="0"
         sodipodi:role="line"
         id="tspan76">abcd123</tspan></text>
  </g>
</svg>
