<?xml version="1.0" encoding="UTF-8" standalone="no"?>
<!-- Created with Inkscape (http://www.inkscape.org/) -->

<svg
   version="1.1"
   id="svg1"
   width="482.55997"
   height="437.44"
   viewBox="0 0 482.55997 437.44"
   sodipodi:docname="node-27.pdf"
   xmlns:inkscape="http://www.inkscape.org/namespaces/inkscape"
   xmlns:sodipodi="http://sodipodi.sourceforge.net/DTD/sodipodi-0.dtd"
   xmlns="http://www.w3.org/2000/svg"
   xmlns:svg="http://www.w3.org/2000/svg">
  <defs
     id="defs1">
    <clipPath
       clipPathUnits="userSpaceOnUse"
       id="clipPath2">
      <path
         d="M 0,0 H 1508.3333 V 1364.6825 H 0 Z"
         transform="scale(0.33414367)"
         clip-rule="evenodd"
         id="path2" />
    </clipPath>
    <clipPath
       clipPathUnits="userSpaceOnUse"
       id="clipPath4">
      <path
         d="M 0,0 H 1508.3333 V 1358.697 H 0 Z"
         transform="scale(0.33414367)"
         clip-rule="evenodd"
         id="path4" />
    </clipPath>
    <clipPath
       clipPathUnits="userSpaceOnUse"
       id="clipPath5">
      <path
         d="M 0,0 H 1508.3333 V 1358.697 H 0 Z"
         transform="matrix(0.33414032,0,0,0.33414032,-210.98438,-47)"
         clip-rule="evenodd"
         id="path5" />
    </clipPath>
    <clipPath
       clipPathUnits="userSpaceOnUse"
       id="clipPath7">
      <path
         d="M 0,0 H 1508.3333 V 1358.697 H 0 Z"
         transform="scale(0.33414367)"
         clip-rule="evenodd"
         id="path7" />
    </clipPath>
    <clipPath
       clipPathUnits="userSpaceOnUse"
       id="clipPath8">
      <path
         d="M 0,0 H 1508.3333 V 1358.697 H 0 Z"
         transform="matrix(0.33414032,0,0,0.33414032,-38.5,-143)"
         clip-rule="evenodd"
         id="path8" />
    </clipPath>
    <clipPath
       clipPathUnits="userSpaceOnUse"
       id="clipPath10">
      <path
         d="M 0,0 H 1508.3333 V 1358.697 H 0 Z"
         transform="scale(0.33414367)"
         clip-rule="evenodd"
         id="path10" />
    </clipPath>
    <clipPath
       clipPathUnits="userSpaceOnUse"
       id="clipPath11">
      <path
         d="M 0,0 H 1508.3333 V 1358.697 H 0 Z"
         transform="matrix(0.33414032,0,0,0.33414032,-288.5,-143)"
         clip-rule="evenodd"
         id="path11" />
    </clipPath>
    <clipPath
       clipPathUnits="userSpaceOnUse"
       id="clipPath13">
      <path
         d="M 0,0 H 1508.3333 V 1358.697 H 0 Z"
         transform="scale(0.33414367)"
         clip-rule="evenodd"
         id="path13" />
    </clipPath>
    <clipPath
       clipPathUnits="userSpaceOnUse"
       id="clipPath14">
      <path
         d="M 0,0 H 1508.3333 V 1358.697 H 0 Z"
         transform="matrix(0.33414032,0,0,0.33414032,-38.5,-303)"
         clip-rule="evenodd"
         id="path14" />
    </clipPath>
    <clipPath
       clipPathUnits="userSpaceOnUse"
       id="clipPath16">
      <path
         d="M 0,0 H 1508.3333 V 1358.697 H 0 Z"
         transform="scale(0.33414367)"
         clip-rule="evenodd"
         id="path16" />
    </clipPath>
    <clipPath
       clipPathUnits="userSpaceOnUse"
       id="clipPath17">
      <path
         d="M 0,0 H 1508.3333 V 1358.697 H 0 Z"
         transform="matrix(0.33414032,0,0,0.33414032,-103.73438,-203)"
         clip-rule="evenodd"
         id="path17" />
    </clipPath>
    <clipPath
       clipPathUnits="userSpaceOnUse"
       id="clipPath19">
      <path
         d="M 0,0 H 1508.3333 V 1358.697 H 0 Z"
         transform="scale(0.33414367)"
         clip-rule="evenodd"
         id="path19" />
    </clipPath>
    <clipPath
       clipPathUnits="userSpaceOnUse"
       id="clipPath20">
      <path
         d="M 0,0 H 1508.3333 V 1358.697 H 0 Z"
         transform="matrix(0.33414032,0,0,0.33414032,-353.1875,-203)"
         clip-rule="evenodd"
         id="path20" />
    </clipPath>
    <clipPath
       clipPathUnits="userSpaceOnUse"
       id="clipPath22">
      <path
         d="M 0,0 H 1508.3333 V 1358.697 H 0 Z"
         transform="scale(0.33414367)"
         clip-rule="evenodd"
         id="path22" />
    </clipPath>
    <clipPath
       clipPathUnits="userSpaceOnUse"
       id="clipPath23">
      <path
         d="M 0,0 H 1508.3333 V 1358.697 H 0 Z"
         transform="matrix(0.33414032,0,0,0.33414032,-97.625,-363)"
         clip-rule="evenodd"
         id="path23" />
    </clipPath>
  </defs>
  <sodipodi:namedview
     id="namedview1"
     pagecolor="#ffffff"
     bordercolor="#000000"
     borderopacity="0.25"
     inkscape:showpageshadow="2"
     inkscape:pageopacity="0.0"
     inkscape:pagecheckerboard="0"
     inkscape:deskcolor="#d1d1d1">
    <inkscape:page
       x="0"
       y="0"
       inkscape:label="1"
       id="page1"
       width="482.55997"
       height="437.44"
       margin="0"
       bleed="0" />
  </sodipodi:namedview>
  <g
     id="g1"
     inkscape:groupmode="layer"
     inkscape:label="1">
    <path
       id="path1"
       d="M 0,0 H 504 V 456 H 0 Z"
       style="fill:#ffffff;fill-opacity:1;fill-rule:nonzero;stroke:none"
       transform="scale(0.95767186)"
       clip-path="url(#clipPath2)" />
    <path
       id="path3"
       d="M 1,1 H 501.01001 V 451 H 1 Z"
       style="fill:#dae8fc;fill-opacity:1;fill-rule:nonzero;stroke:#6c8ebf;stroke-width:1;stroke-linecap:butt;stroke-linejoin:miter;stroke-miterlimit:10;stroke-dasharray:none;stroke-opacity:1"
       transform="scale(0.95767186)"
       clip-path="url(#clipPath4)" />
    <text
       id="text4"
       xml:space="preserve"
       transform="matrix(0.95768146,0,0,0.95768146,202.05583,45.011029)"
       clip-path="url(#clipPath5)"><tspan
         style="font-variant:normal;font-weight:700;font-size:24px;font-family:Helvetica;writing-mode:lr-tb;fill:#000000;fill-opacity:1;fill-rule:nonzero;stroke:none"
         x="0 17.332031 31.992188 45.339844 58.6875 72.035156"
         y="0"
         sodipodi:role="line"
         id="tspan4">Bucket</tspan></text>
    <path
       id="path6"
       d="m 21,101 h 200 v 70 H 21 Z"
       style="fill:#fff2cc;fill-opacity:1;fill-rule:nonzero;stroke:#d6b656;stroke-width:1;stroke-linecap:butt;stroke-linejoin:miter;stroke-miterlimit:10;stroke-dasharray:none;stroke-opacity:1"
       transform="scale(0.95767186)"
       clip-path="url(#clipPath7)" />
    <text
       id="text7"
       xml:space="preserve"
       transform="matrix(0.95768146,0,0,0.95768146,36.870736,136.94845)"
       clip-path="url(#clipPath8)"><tspan
         style="font-variant:normal;font-weight:normal;font-size:20px;font-family:Helvetica;writing-mode:lr-tb;fill:#000000;fill-opacity:1;fill-rule:nonzero;stroke:none"
         x="0 14.443359 24.443359 35.566406 42.226562 47.783203 58.90625 70.029297 81.152344 84.970703 94.970703 100.52734 104.9707 121.63086 132.75391 143.87695 155"
         y="0"
         sodipodi:role="line"
         id="tspan7">User 123's images</tspan></text>
    <path
       id="path9"
       d="m 271,101 h 200 v 70 H 271 Z"
       style="fill:#fff2cc;fill-opacity:1;fill-rule:nonzero;stroke:#d6b656;stroke-width:1;stroke-linecap:butt;stroke-linejoin:miter;stroke-miterlimit:10;stroke-dasharray:none;stroke-opacity:1"
       transform="scale(0.95767186)"
       clip-path="url(#clipPath10)" />
    <text
       id="text10"
       xml:space="preserve"
       transform="matrix(0.95768146,0,0,0.95768146,276.2911,136.94845)"
       clip-path="url(#clipPath11)"><tspan
         style="font-variant:normal;font-weight:normal;font-size:20px;font-family:Helvetica;writing-mode:lr-tb;fill:#000000;fill-opacity:1;fill-rule:nonzero;stroke:none"
         x="0 14.443359 24.443359 35.566406 42.226562 47.783203 58.90625 70.029297 81.152344 84.970703 94.970703 100.52734 104.9707 121.63086 132.75391 143.87695 155"
         y="0"
         sodipodi:role="line"
         id="tspan10">User 456's images</tspan></text>
    <path
       id="path12"
       d="m 21,261 h 200 v 70 H 21 Z"
       style="fill:#fff2cc;fill-opacity:1;fill-rule:nonzero;stroke:#d6b656;stroke-width:1;stroke-linecap:butt;stroke-linejoin:miter;stroke-miterlimit:10;stroke-dasharray:none;stroke-opacity:1"
       transform="scale(0.95767186)"
       clip-path="url(#clipPath13)" />
    <text
       id="text13"
       xml:space="preserve"
       transform="matrix(0.95768146,0,0,0.95768146,36.870736,290.17748)"
       clip-path="url(#clipPath14)"><tspan
         style="font-variant:normal;font-weight:normal;font-size:20px;font-family:Helvetica;writing-mode:lr-tb;fill:#000000;fill-opacity:1;fill-rule:nonzero;stroke:none"
         x="0 14.443359 24.443359 35.566406 42.226562 47.783203 58.90625 70.029297 81.152344 84.970703 94.970703 100.52734 104.9707 121.63086 132.75391 143.87695 155"
         y="0"
         sodipodi:role="line"
         id="tspan13">User 789's images</tspan></text>
    <path
       id="path15"
       d="m 61,171 h 160 v 50 H 61 Z"
       style="fill:#ffffff;fill-opacity:1;fill-rule:nonzero;stroke:#000000;stroke-width:1;stroke-linecap:butt;stroke-linejoin:miter;stroke-miterlimit:10;stroke-dasharray:none;stroke-opacity:1"
       transform="scale(0.95767186)"
       clip-path="url(#clipPath16)" />
    <text
       id="text16"
       xml:space="preserve"
       transform="matrix(0.95768146,0,0,0.95768146,99.344488,194.40934)"
       clip-path="url(#clipPath17)"><tspan
         style="font-variant:normal;font-weight:normal;font-size:20px;font-family:Helvetica;writing-mode:lr-tb;fill:#000000;fill-opacity:1;fill-rule:nonzero;stroke:none"
         x="0 4.4433594 15.566406 26.689453 37.8125 42.255859 47.8125 52.255859 63.378906"
         y="0"
         sodipodi:role="line"
         id="tspan16">ja82l.jpg</tspan></text>
    <path
       id="path18"
       d="m 311,171 h 160 v 50 H 311 Z"
       style="fill:#ffffff;fill-opacity:1;fill-rule:nonzero;stroke:#000000;stroke-width:1;stroke-linecap:butt;stroke-linejoin:miter;stroke-miterlimit:10;stroke-dasharray:none;stroke-opacity:1"
       transform="scale(0.95767186)"
       clip-path="url(#clipPath19)" />
    <text
       id="text19"
       xml:space="preserve"
       transform="matrix(0.95768146,0,0,0.95768146,338.24112,194.40934)"
       clip-path="url(#clipPath20)"><tspan
         style="font-variant:normal;font-weight:normal;font-size:20px;font-family:Helvetica;writing-mode:lr-tb;fill:#000000;fill-opacity:1;fill-rule:nonzero;stroke:none"
         x="0 11.123047 22.246094 32.246094 43.369141 48.925781 53.369141 64.492188"
         y="0"
         sodipodi:role="line"
         id="tspan19">a9k2.jpg</tspan></text>
    <path
       id="path21"
       d="m 61,331 h 160 v 50 H 61 Z"
       style="fill:#ffffff;fill-opacity:1;fill-rule:nonzero;stroke:#000000;stroke-width:1;stroke-linecap:butt;stroke-linejoin:miter;stroke-miterlimit:10;stroke-dasharray:none;stroke-opacity:1"
       transform="scale(0.95767186)"
       clip-path="url(#clipPath22)" />
    <text
       id="text22"
       xml:space="preserve"
       transform="matrix(0.95768146,0,0,0.95768146,93.493653,347.63837)"
       clip-path="url(#clipPath23)"><tspan
         style="font-variant:normal;font-weight:normal;font-size:20px;font-family:Helvetica;writing-mode:lr-tb;fill:#000000;fill-opacity:1;fill-rule:nonzero;stroke:none"
         x="0 11.123047 21.123047 32.246094 43.369141 54.492188 60.048828 64.492188 75.615234"
         y="0"
         sodipodi:role="line"
         id="tspan22">bs882.jpg</tspan></text>
  </g>
</svg>
