<?xml version="1.0" encoding="UTF-8" standalone="no"?>
<!-- Created with Inkscape (http://www.inkscape.org/) -->

<svg
   version="1.1"
   id="svg1"
   width="650.56"
   height="340.16"
   viewBox="0 0 650.56 340.16"
   sodipodi:docname="node-10.pdf"
   xmlns:inkscape="http://www.inkscape.org/namespaces/inkscape"
   xmlns:sodipodi="http://sodipodi.sourceforge.net/DTD/sodipodi-0.dtd"
   xmlns="http://www.w3.org/2000/svg"
   xmlns:svg="http://www.w3.org/2000/svg">
  <defs
     id="defs1">
    <clipPath
       clipPathUnits="userSpaceOnUse"
       id="clipPath2">
      <path
         d="M 0,0 H 2033.3333 V 1060.0884 H 0 Z"
         transform="scale(0.33393444)"
         clip-rule="evenodd"
         id="path2" />
    </clipPath>
    <clipPath
       clipPathUnits="userSpaceOnUse"
       id="clipPath4">
      <path
         d="M 0,0 H 2033.3333 V 1060.0884 H 0 Z"
         transform="scale(0.33393444)"
         clip-rule="evenodd"
         id="path4" />
    </clipPath>
    <clipPath
       clipPathUnits="userSpaceOnUse"
       id="clipPath6">
      <path
         d="M 0,0 H 2033.3333 V 1060.0884 H 0 Z"
         transform="matrix(0.33393444,0,0,0.33393444,-0.5,-0.5)"
         clip-rule="evenodd"
         id="path6" />
    </clipPath>
    <clipPath
       clipPathUnits="userSpaceOnUse"
       id="clipPath8">
      <path
         d="M 0,0 H 2033.3333 V 1060.0884 H 0 Z"
         transform="matrix(0.33393444,0,0,0.33393444,-0.5,-0.5)"
         clip-rule="evenodd"
         id="path8" />
    </clipPath>
    <clipPath
       clipPathUnits="userSpaceOnUse"
       id="clipPath10">
      <path
         d="M 0,0 H 2033.3333 V 1060.0884 H 0 Z"
         transform="scale(0.33393444)"
         clip-rule="evenodd"
         id="path10" />
    </clipPath>
    <clipPath
       clipPathUnits="userSpaceOnUse"
       id="clipPath11">
      <path
         d="M 0,0 H 2033.3333 V 1060.0884 H 0 Z"
         transform="matrix(0.33393108,0,0,0.33393108,-322.42188,-157)"
         clip-rule="evenodd"
         id="path11" />
    </clipPath>
    <clipPath
       clipPathUnits="userSpaceOnUse"
       id="clipPath13">
      <path
         d="M 0,0 H 2033.3333 V 1060.0884 H 0 Z"
         transform="matrix(0.33393444,0,0,0.33393444,-0.5,-0.5)"
         clip-rule="evenodd"
         id="path13" />
    </clipPath>
    <clipPath
       clipPathUnits="userSpaceOnUse"
       id="clipPath15">
      <path
         d="M 0,0 H 2033.3333 V 1060.0884 H 0 Z"
         transform="matrix(0.33393444,0,0,0.33393444,-0.5,-0.5)"
         clip-rule="evenodd"
         id="path15" />
    </clipPath>
    <clipPath
       clipPathUnits="userSpaceOnUse"
       id="clipPath16">
      <path
         d="M 0,0 H 2033.3333 V 1060.0884 H 0 Z"
         transform="matrix(0.33393108,0,0,0.33393108,-57.359375,-40)"
         clip-rule="evenodd"
         id="path16" />
    </clipPath>
    <clipPath
       clipPathUnits="userSpaceOnUse"
       id="clipPath18">
      <path
         d="M 0,0 H 2033.3333 V 1060.0884 H 0 Z"
         transform="scale(0.33393444)"
         clip-rule="evenodd"
         id="path18" />
    </clipPath>
    <clipPath
       clipPathUnits="userSpaceOnUse"
       id="clipPath19">
      <path
         d="M 0,0 H 2033.3333 V 1060.0884 H 0 Z"
         transform="matrix(0.33393108,0,0,0.33393108,-545.14063,-92)"
         clip-rule="evenodd"
         id="path19" />
    </clipPath>
    <clipPath
       clipPathUnits="userSpaceOnUse"
       id="clipPath21">
      <path
         d="M 0,0 H 2033.3333 V 1060.0884 H 0 Z"
         transform="scale(0.33393444)"
         clip-rule="evenodd"
         id="path21" />
    </clipPath>
    <clipPath
       clipPathUnits="userSpaceOnUse"
       id="clipPath22">
      <path
         d="M 0,0 H 2033.3333 V 1060.0884 H 0 Z"
         transform="matrix(0.33393108,0,0,0.33393108,-520.23438,-155)"
         clip-rule="evenodd"
         id="path22" />
    </clipPath>
    <clipPath
       clipPathUnits="userSpaceOnUse"
       id="clipPath24">
      <path
         d="M 0,0 H 2033.3333 V 1060.0884 H 0 Z"
         transform="scale(0.33393444)"
         clip-rule="evenodd"
         id="path24" />
    </clipPath>
    <clipPath
       clipPathUnits="userSpaceOnUse"
       id="clipPath25">
      <path
         d="M 0,0 H 2033.3333 V 1060.0884 H 0 Z"
         transform="matrix(0.33393108,0,0,0.33393108,-537.57813,-208)"
         clip-rule="evenodd"
         id="path25" />
    </clipPath>
    <clipPath
       clipPathUnits="userSpaceOnUse"
       id="clipPath26">
      <path
         d="M 0,0 H 2033.3333 V 1060.0884 H 0 Z"
         transform="matrix(0.33393108,0,0,0.33393108,-558.46875,-228)"
         clip-rule="evenodd"
         id="path26" />
    </clipPath>
    <clipPath
       clipPathUnits="userSpaceOnUse"
       id="clipPath28">
      <path
         d="M 0,0 H 2033.3333 V 1060.0884 H 0 Z"
         transform="scale(0.33393444)"
         clip-rule="evenodd"
         id="path28" />
    </clipPath>
    <clipPath
       clipPathUnits="userSpaceOnUse"
       id="clipPath29">
      <path
         d="M 0,0 H 2033.3333 V 1060.0884 H 0 Z"
         transform="matrix(0.33393108,0,0,0.33393108,-44.1875,-294)"
         clip-rule="evenodd"
         id="path29" />
    </clipPath>
    <clipPath
       clipPathUnits="userSpaceOnUse"
       id="clipPath30">
      <path
         d="M 0,0 H 2033.3333 V 1060.0884 H 0 Z"
         transform="matrix(0.33393108,0,0,0.33393108,-20.34375,-326)"
         clip-rule="evenodd"
         id="path30" />
    </clipPath>
    <clipPath
       clipPathUnits="userSpaceOnUse"
       id="clipPath32">
      <path
         d="M 0,0 H 2033.3333 V 1060.0884 H 0 Z"
         transform="scale(0.33393444)"
         clip-rule="evenodd"
         id="path32" />
    </clipPath>
    <clipPath
       clipPathUnits="userSpaceOnUse"
       id="clipPath33">
      <path
         d="M 0,0 H 2033.3333 V 1060.0884 H 0 Z"
         transform="matrix(0.33393108,0,0,0.33393108,-164.09375,-287)"
         clip-rule="evenodd"
         id="path33" />
    </clipPath>
    <clipPath
       clipPathUnits="userSpaceOnUse"
       id="clipPath34">
      <path
         d="M 0,0 H 2033.3333 V 1060.0884 H 0 Z"
         transform="matrix(0.33393108,0,0,0.33393108,-152.09375,-306)"
         clip-rule="evenodd"
         id="path34" />
    </clipPath>
    <clipPath
       clipPathUnits="userSpaceOnUse"
       id="clipPath35">
      <path
         d="M 0,0 H 2033.3333 V 1060.0884 H 0 Z"
         transform="matrix(0.33393108,0,0,0.33393108,-195.67188,-325)"
         clip-rule="evenodd"
         id="path35" />
    </clipPath>
    <clipPath
       clipPathUnits="userSpaceOnUse"
       id="clipPath37">
      <path
         d="M 0,0 H 2033.3333 V 1060.0884 H 0 Z"
         transform="scale(0.33393444)"
         clip-rule="evenodd"
         id="path37" />
    </clipPath>
    <clipPath
       clipPathUnits="userSpaceOnUse"
       id="clipPath38">
      <path
         d="M 0,0 H 2033.3333 V 1060.0884 H 0 Z"
         transform="matrix(0.33393108,0,0,0.33393108,-118.76562,-144)"
         clip-rule="evenodd"
         id="path38" />
    </clipPath>
  </defs>
  <sodipodi:namedview
     id="namedview1"
     pagecolor="#ffffff"
     bordercolor="#000000"
     borderopacity="0.25"
     inkscape:showpageshadow="2"
     inkscape:pageopacity="0.0"
     inkscape:pagecheckerboard="0"
     inkscape:deskcolor="#d1d1d1">
    <inkscape:page
       x="0"
       y="0"
       inkscape:label="1"
       id="page1"
       width="650.56"
       height="340.16"
       margin="0"
       bleed="0" />
  </sodipodi:namedview>
  <g
     id="g1"
     inkscape:groupmode="layer"
     inkscape:label="1">
    <path
       id="path1"
       d="M 0,0 H 679 V 354 H 0 Z"
       style="fill:#ffffff;fill-opacity:1;fill-rule:nonzero;stroke:none"
       transform="scale(0.9582719)"
       clip-path="url(#clipPath2)" />
    <path
       id="path3"
       d="m 496,43.5 h 180 v 217 H 496 Z"
       style="fill:#ffffff;fill-opacity:1;fill-rule:nonzero;stroke:#000000;stroke-width:1;stroke-linecap:butt;stroke-linejoin:miter;stroke-miterlimit:10;stroke-dasharray:none;stroke-opacity:1"
       transform="scale(0.9582719)"
       clip-path="url(#clipPath4)" />
    <path
       id="path5"
       d="m 446,152 h 39.89999"
       style="fill:none;stroke:#000000;stroke-width:1;stroke-linecap:butt;stroke-linejoin:miter;stroke-miterlimit:10;stroke-dasharray:none;stroke-opacity:1"
       transform="matrix(0.9582719,0,0,0.9582719,0.47913595,0.47913595)"
       clip-path="url(#clipPath6)" />
    <path
       id="path7"
       d="m 492.64999,152 -9,4.5 2.25,-4.5 -2.25,-4.5 z"
       style="fill:#000000;fill-opacity:1;fill-rule:nonzero;stroke:#000000;stroke-width:1;stroke-linecap:butt;stroke-linejoin:miter;stroke-miterlimit:10;stroke-dasharray:none;stroke-opacity:1"
       transform="matrix(0.9582719,0,0,0.9582719,0.47913595,0.47913595)"
       clip-path="url(#clipPath8)" />
    <path
       id="path9"
       d="M 286,90 H 446 V 214 H 286 Z"
       style="fill:#ffffff;fill-opacity:1;fill-rule:nonzero;stroke:#000000;stroke-width:1;stroke-linecap:butt;stroke-linejoin:miter;stroke-miterlimit:10;stroke-dasharray:none;stroke-opacity:1"
       transform="scale(0.9582719)"
       clip-path="url(#clipPath10)" />
    <text
       id="text10"
       xml:space="preserve"
       transform="matrix(0.95828153,0,0,0.95828153,308.97093,150.4502)"
       clip-path="url(#clipPath11)"><tspan
         style="font-variant:normal;font-weight:normal;font-size:16px;font-family:Helvetica;writing-mode:lr-tb;fill:#000000;fill-opacity:1;fill-rule:nonzero;stroke:none"
         x="0 10.671875 18.671875 27.570312 32.898438 41.796875 49.796875 57.796875 61.367188 72.039062 82.710938"
         y="0"
         sodipodi:role="line"
         id="tspan10">Express API</tspan></text>
    <path
       id="path12"
       d="M 126,150 H 275.89999"
       style="fill:none;stroke:#000000;stroke-width:1;stroke-linecap:butt;stroke-linejoin:miter;stroke-miterlimit:10;stroke-dasharray:none;stroke-opacity:1"
       transform="matrix(0.9582719,0,0,0.9582719,0.47913595,0.47913595)"
       clip-path="url(#clipPath13)" />
    <path
       id="path14"
       d="m 282.64999,150 -9,4.5 2.25,-4.5 -2.25,-4.5 z"
       style="fill:#000000;fill-opacity:1;fill-rule:nonzero;stroke:#000000;stroke-width:1;stroke-linecap:butt;stroke-linejoin:miter;stroke-miterlimit:10;stroke-dasharray:none;stroke-opacity:1"
       transform="matrix(0.9582719,0,0,0.9582719,0.47913595,0.47913595)"
       clip-path="url(#clipPath15)" />
    <text
       id="text15"
       xml:space="preserve"
       transform="matrix(0.95828153,0,0,0.95828153,54.96643,38.331261)"
       clip-path="url(#clipPath16)"><tspan
         style="font-variant:normal;font-weight:700;font-size:26px;font-family:Helvetica;writing-mode:lr-tb;fill:#000000;fill-opacity:1;fill-rule:nonzero;stroke:none"
         x="0 17.341797 33.223633 40.447266 56.329102 64.987305 72.210938 88.092773 103.97461 111.19824 125.6582 140.11816 147.3418 156 163.22363 183.44727 199.3291 207.9873 222.44727 229.6709 245.55273 260.0127 267.23633 286.0127 300.47266 309.13086 323.59082 330.81445 348.15625 356.81445 372.69629 382.81445"
         y="0"
         sodipodi:role="line"
         id="tspan15">Solution #3 - Outside Data Store</tspan></text>
    <path
       id="path17"
       d="m 508.51001,60.5 h 155 v 53 h -155 z"
       style="fill:#ffffff;fill-opacity:1;fill-rule:nonzero;stroke:#000000;stroke-width:1;stroke-linecap:butt;stroke-linejoin:miter;stroke-miterlimit:10;stroke-dasharray:none;stroke-opacity:1"
       transform="scale(0.9582719)"
       clip-path="url(#clipPath18)" />
    <text
       id="text18"
       xml:space="preserve"
       transform="matrix(0.95828153,0,0,0.95828153,522.3982,88.161901)"
       clip-path="url(#clipPath19)"><tspan
         style="font-variant:normal;font-weight:normal;font-size:16px;font-family:Helvetica;writing-mode:lr-tb;fill:#000000;fill-opacity:1;fill-rule:nonzero;stroke:none"
         x="0 10.671875 24 32.898438 40.898438 49.796875 58.695312 63.140625 73.8125"
         y="0"
         sodipodi:role="line"
         id="tspan18">Amazon S3</tspan></text>
    <path
       id="path20"
       d="m 508.51001,123.5 h 155 v 53 h -155 z"
       style="fill:#ffffff;fill-opacity:1;fill-rule:nonzero;stroke:#000000;stroke-width:1;stroke-linecap:butt;stroke-linejoin:miter;stroke-miterlimit:10;stroke-dasharray:none;stroke-opacity:1"
       transform="scale(0.9582719)"
       clip-path="url(#clipPath21)" />
    <text
       id="text21"
       xml:space="preserve"
       transform="matrix(0.95828153,0,0,0.95828153,498.531,148.53364)"
       clip-path="url(#clipPath22)"><tspan
         style="font-variant:normal;font-weight:normal;font-size:16px;font-family:Helvetica;writing-mode:lr-tb;fill:#000000;fill-opacity:1;fill-rule:nonzero;stroke:none"
         x="0 10.671875 18.671875 27.570312 32.898438 41.796875 46.242188 56.015625 59.570312 63.125 72.023438 76.46875 87.140625 91.585938 100.48438 105.8125 114.71094 123.60938"
         y="0"
         sodipodi:role="line"
         id="tspan21">Azure File Storage</tspan></text>
    <path
       id="path23"
       d="m 508.51001,186.5 h 155 v 53 h -155 z"
       style="fill:#ffffff;fill-opacity:1;fill-rule:nonzero;stroke:#000000;stroke-width:1;stroke-linecap:butt;stroke-linejoin:miter;stroke-miterlimit:10;stroke-dasharray:none;stroke-opacity:1"
       transform="scale(0.9582719)"
       clip-path="url(#clipPath24)" />
    <text
       id="text24"
       xml:space="preserve"
       transform="matrix(0.95828153,0,0,0.95828153,515.15119,199.32256)"
       clip-path="url(#clipPath25)"><tspan
         style="font-variant:normal;font-weight:normal;font-size:16px;font-family:Helvetica;writing-mode:lr-tb;fill:#000000;fill-opacity:1;fill-rule:nonzero;stroke:none"
         x="0 12.445312 21.34375 30.242188 39.140625 42.695312 51.59375 56.039062 67.59375 71.148438 80.046875 88.945312"
         y="0"
         sodipodi:role="line"
         id="tspan24">Google Cloud</tspan></text>
    <text
       id="text25"
       xml:space="preserve"
       transform="matrix(0.95828153,0,0,0.95828153,535.17029,218.48819)"
       clip-path="url(#clipPath26)"><tspan
         style="font-variant:normal;font-weight:normal;font-size:16px;font-family:Helvetica;writing-mode:lr-tb;fill:#000000;fill-opacity:1;fill-rule:nonzero;stroke:none"
         x="0 10.671875 15.117188 24.015625 29.34375 38.242188 47.140625"
         y="0"
         sodipodi:role="line"
         id="tspan25">Storage</tspan></text>
    <path
       id="path27"
       d="M 1,251 H 151 V 351 H 1 Z"
       style="fill:#d5e8d4;fill-opacity:1;fill-rule:nonzero;stroke:#82b366;stroke-width:1;stroke-linecap:butt;stroke-linejoin:miter;stroke-miterlimit:10;stroke-dasharray:none;stroke-opacity:1"
       transform="scale(0.9582719)"
       clip-path="url(#clipPath28)" />
    <text
       id="text28"
       xml:space="preserve"
       transform="matrix(0.95828153,0,0,0.95828153,42.344065,281.73477)"
       clip-path="url(#clipPath29)"><tspan
         style="font-variant:normal;font-weight:normal;font-size:26px;font-family:Helvetica;writing-mode:lr-tb;fill:#000000;fill-opacity:1;fill-rule:nonzero;stroke:none"
         x="0 20.223633 34.683594 49.143555"
         y="0"
         sodipodi:role="line"
         id="tspan28">Good</tspan></text>
    <text
       id="text29"
       xml:space="preserve"
       transform="matrix(0.95828153,0,0,0.95828153,19.49504,312.39978)"
       clip-path="url(#clipPath30)"><tspan
         style="font-variant:normal;font-weight:normal;font-size:26px;font-family:Helvetica;writing-mode:lr-tb;fill:#000000;fill-opacity:1;fill-rule:nonzero;stroke:none"
         x="0 17.341797 31.801758 46.261719 54.919922 69.379883 83.839844 96.839844"
         y="0"
         sodipodi:role="line"
         id="tspan29">Approach</tspan></text>
    <path
       id="path31"
       d="M 151,251 H 436 V 351 H 151 Z"
       style="fill:#d5e8d4;fill-opacity:1;fill-rule:nonzero;stroke:#82b366;stroke-width:1;stroke-linecap:butt;stroke-linejoin:miter;stroke-miterlimit:10;stroke-dasharray:none;stroke-opacity:1"
       transform="scale(0.9582719)"
       clip-path="url(#clipPath32)" />
    <text
       id="text32"
       xml:space="preserve"
       transform="matrix(0.95828153,0,0,0.95828153,157.24801,275.0268)"
       clip-path="url(#clipPath33)"><tspan
         style="font-variant:normal;font-weight:normal;font-size:16px;font-family:Helvetica;writing-mode:lr-tb;fill:#000000;fill-opacity:1;fill-rule:nonzero;stroke:none"
         x="0 10.671875 18.671875 23.117188 28.445312 37.34375 50.671875 59.570312 63.125 71.125 75.570312 83.570312 92.46875 101.36719 110.26562 119.16406 123.60938 131.60938 136.05469 144.95312 150.28125 159.17969 168.07812 176.97656 181.42188 186.75 191.19531 200.09375 204.53906 213.4375 222.33594 231.23438 235.67969 244.57812 253.47656"
         y="0"
         sodipodi:role="line"
         id="tspan32">Extremely cheap storage - $.023 per</tspan></text>
    <text
       id="text33"
       xml:space="preserve"
       transform="matrix(0.95828153,0,0,0.95828153,145.74863,293.23415)"
       clip-path="url(#clipPath34)"><tspan
         style="font-variant:normal;font-weight:normal;font-size:16px;font-family:Helvetica;writing-mode:lr-tb;fill:#000000;fill-opacity:1;fill-rule:nonzero;stroke:none"
         x="0 12.445312 23.117188 27.5625 36.460938 45.359375 50.6875 55.132812 68.460938 77.359375 86.257812 90.703125 99.601562 104.04688 108.49219 112.9375 123.60938 132.50781 140.50781 148.50781 152.95312 161.85156 170.75 178.75 186.75 195.64844 204.54688 212.54688 216.99219 221.4375 232.10938 240.10938 249.00781 252.5625 261.46094 270.35938 273.91406"
         y="0"
         sodipodi:role="line"
         id="tspan33">GB per month.  Easy backups. Scalable</tspan></text>
    <text
       id="text34"
       xml:space="preserve"
       transform="matrix(0.95828153,0,0,0.95828153,187.50875,311.4415)"
       clip-path="url(#clipPath35)"><tspan
         style="font-variant:normal;font-weight:normal;font-size:16px;font-family:Helvetica;writing-mode:lr-tb;fill:#000000;fill-opacity:1;fill-rule:nonzero;stroke:none"
         x="0 5.328125 9.7734375 21.328125 30.226562 34.671875 43.570312 52.46875 60.46875 69.367188 74.695312 79.140625 90.695312 99.59375 104.92188 110.25 118.25 122.69531 131.59375 140.49219 149.39062 158.28906 162.73438 167.17969 175.17969 178.73438 186.73438"
         y="0"
         sodipodi:role="line"
         id="tspan34">- we never worry about size</tspan></text>
    <path
       id="path36"
       d="m 106,129 h 70 v 20 h -70 z"
       style="fill:#ffffff;fill-opacity:1;fill-rule:nonzero;stroke:#000000;stroke-width:1;stroke-linecap:butt;stroke-linejoin:miter;stroke-miterlimit:10;stroke-dasharray:none;stroke-opacity:1"
       transform="scale(0.9582719)"
       clip-path="url(#clipPath37)" />
    <text
       id="text37"
       xml:space="preserve"
       transform="matrix(0.95828153,0,0,0.95828153,113.8109,137.99254)"
       clip-path="url(#clipPath38)"><tspan
         style="font-variant:normal;font-weight:normal;font-size:16px;font-family:Helvetica;writing-mode:lr-tb;fill:#000000;fill-opacity:1;fill-rule:nonzero;stroke:none"
         x="0 4.4453125 17.773438 26.671875 35.570312"
         y="0"
         sodipodi:role="line"
         id="tspan37">Image</tspan></text>
  </g>
</svg>
