<?xml version="1.0" encoding="UTF-8" standalone="no"?>
<!-- Created with Inkscape (http://www.inkscape.org/) -->

<svg
   version="1.1"
   id="svg1"
   width="571.84003"
   height="349.44"
   viewBox="0 0 571.84003 349.44"
   sodipodi:docname="node-5.pdf"
   xmlns:inkscape="http://www.inkscape.org/namespaces/inkscape"
   xmlns:sodipodi="http://sodipodi.sourceforge.net/DTD/sodipodi-0.dtd"
   xmlns="http://www.w3.org/2000/svg"
   xmlns:svg="http://www.w3.org/2000/svg">
  <defs
     id="defs1">
    <clipPath
       clipPathUnits="userSpaceOnUse"
       id="clipPath2">
      <path
         d="M 0,0 H 1787.4999 V 1089.8658 H 0 Z"
         transform="scale(0.33398605)"
         clip-rule="evenodd"
         id="path2" />
    </clipPath>
    <clipPath
       clipPathUnits="userSpaceOnUse"
       id="clipPath4">
      <path
         d="M 0,0 H 1787.4999 V 1086.8717 H 0 Z"
         transform="matrix(0.33398605,0,0,0.33398605,-0.50000001,-0.50000001)"
         clip-rule="evenodd"
         id="path4" />
    </clipPath>
    <clipPath
       clipPathUnits="userSpaceOnUse"
       id="clipPath6">
      <path
         d="M 0,0 H 1787.4999 V 1086.8717 H 0 Z"
         transform="matrix(0.33398605,0,0,0.33398605,-0.50000001,-0.50000001)"
         clip-rule="evenodd"
         id="path6" />
    </clipPath>
    <clipPath
       clipPathUnits="userSpaceOnUse"
       id="clipPath8">
      <path
         d="M 0,0 H 1787.4999 V 1086.8717 H 0 Z"
         transform="scale(0.33398605)"
         clip-rule="evenodd"
         id="path8" />
    </clipPath>
    <clipPath
       clipPathUnits="userSpaceOnUse"
       id="clipPath9">
      <path
         d="M 0,0 H 1787.4999 V 1086.8717 H 0 Z"
         transform="matrix(0.3339827,0,0,0.3339827,-205.42188,-156.00001)"
         clip-rule="evenodd"
         id="path9" />
    </clipPath>
    <clipPath
       clipPathUnits="userSpaceOnUse"
       id="clipPath11">
      <path
         d="M 0,0 H 1787.4999 V 1086.8717 H 0 Z"
         transform="matrix(0.33398605,0,0,0.33398605,-0.50000001,-0.50000001)"
         clip-rule="evenodd"
         id="path11" />
    </clipPath>
    <clipPath
       clipPathUnits="userSpaceOnUse"
       id="clipPath13">
      <path
         d="M 0,0 H 1787.4999 V 1086.8717 H 0 Z"
         transform="matrix(0.33398605,0,0,0.33398605,-0.50000001,-0.50000001)"
         clip-rule="evenodd"
         id="path13" />
    </clipPath>
    <clipPath
       clipPathUnits="userSpaceOnUse"
       id="clipPath15">
      <path
         d="M 0,0 H 1787.4999 V 1086.8717 H 0 Z"
         transform="scale(0.33398605)"
         clip-rule="evenodd"
         id="path15" />
    </clipPath>
    <clipPath
       clipPathUnits="userSpaceOnUse"
       id="clipPath16">
      <path
         d="M 0,0 H 1787.4999 V 1086.8717 H 0 Z"
         transform="matrix(0.3339827,0,0,0.3339827,-61.765625,-143)"
         clip-rule="evenodd"
         id="path16" />
    </clipPath>
    <clipPath
       clipPathUnits="userSpaceOnUse"
       id="clipPath17">
      <path
         d="M 0,0 H 1787.4999 V 1086.8717 H 0 Z"
         transform="matrix(0.3339827,0,0,0.3339827,-205.84375,-39)"
         clip-rule="evenodd"
         id="path17" />
    </clipPath>
    <clipPath
       clipPathUnits="userSpaceOnUse"
       id="clipPath19">
      <path
         d="M 0,0 H 1787.4999 V 1086.8717 H 0 Z"
         transform="scale(0.33398605)"
         clip-rule="evenodd"
         id="path19" />
    </clipPath>
    <clipPath
       clipPathUnits="userSpaceOnUse"
       id="clipPath20">
      <path
         d="M 0,0 H 1787.4999 V 1086.8717 H 0 Z"
         transform="matrix(0.3339827,0,0,0.3339827,-478.42188,-156.00001)"
         clip-rule="evenodd"
         id="path20" />
    </clipPath>
    <clipPath
       clipPathUnits="userSpaceOnUse"
       id="clipPath22">
      <path
         d="M 0,0 H 1787.4999 V 1086.8717 H 0 Z"
         transform="scale(0.33398605)"
         clip-rule="evenodd"
         id="path22" />
    </clipPath>
    <clipPath
       clipPathUnits="userSpaceOnUse"
       id="clipPath23">
      <path
         d="M 0,0 H 1787.4999 V 1086.8717 H 0 Z"
         transform="matrix(0.3339827,0,0,0.3339827,-491.76563,-195)"
         clip-rule="evenodd"
         id="path23" />
    </clipPath>
    <clipPath
       clipPathUnits="userSpaceOnUse"
       id="clipPath25">
      <path
         d="M 0,0 H 1787.4999 V 1086.8717 H 0 Z"
         transform="scale(0.33398605)"
         clip-rule="evenodd"
         id="path25" />
    </clipPath>
    <clipPath
       clipPathUnits="userSpaceOnUse"
       id="clipPath26">
      <path
         d="M 0,0 H 1787.4999 V 1086.8717 H 0 Z"
         transform="matrix(0.3339827,0,0,0.3339827,-170.85938,-303)"
         clip-rule="evenodd"
         id="path26" />
    </clipPath>
    <clipPath
       clipPathUnits="userSpaceOnUse"
       id="clipPath27">
      <path
         d="M 0,0 H 1787.4999 V 1086.8717 H 0 Z"
         transform="matrix(0.3339827,0,0,0.3339827,-138.34375,-335)"
         clip-rule="evenodd"
         id="path27" />
    </clipPath>
    <clipPath
       clipPathUnits="userSpaceOnUse"
       id="clipPath29">
      <path
         d="M 0,0 H 1787.4999 V 1086.8717 H 0 Z"
         transform="scale(0.33398605)"
         clip-rule="evenodd"
         id="path29" />
    </clipPath>
    <clipPath
       clipPathUnits="userSpaceOnUse"
       id="clipPath30">
      <path
         d="M 0,0 H 1787.4999 V 1086.8717 H 0 Z"
         transform="matrix(0.3339827,0,0,0.3339827,-277.95313,-286)"
         clip-rule="evenodd"
         id="path30" />
    </clipPath>
    <clipPath
       clipPathUnits="userSpaceOnUse"
       id="clipPath31">
      <path
         d="M 0,0 H 1787.4999 V 1086.8717 H 0 Z"
         transform="matrix(0.3339827,0,0,0.3339827,-275.57813,-305)"
         clip-rule="evenodd"
         id="path31" />
    </clipPath>
    <clipPath
       clipPathUnits="userSpaceOnUse"
       id="clipPath32">
      <path
         d="M 0,0 H 1787.4999 V 1086.8717 H 0 Z"
         transform="matrix(0.3339827,0,0,0.3339827,-282.60939,-325.00001)"
         clip-rule="evenodd"
         id="path32" />
    </clipPath>
    <clipPath
       clipPathUnits="userSpaceOnUse"
       id="clipPath33">
      <path
         d="M 0,0 H 1787.4999 V 1086.8717 H 0 Z"
         transform="matrix(0.3339827,0,0,0.3339827,-411.20313,-344)"
         clip-rule="evenodd"
         id="path33" />
    </clipPath>
  </defs>
  <sodipodi:namedview
     id="namedview1"
     pagecolor="#ffffff"
     bordercolor="#000000"
     borderopacity="0.25"
     inkscape:showpageshadow="2"
     inkscape:pageopacity="0.0"
     inkscape:pagecheckerboard="0"
     inkscape:deskcolor="#d1d1d1">
    <inkscape:page
       x="0"
       y="0"
       inkscape:label="1"
       id="page1"
       width="571.84003"
       height="349.44"
       margin="0"
       bleed="0" />
  </sodipodi:namedview>
  <g
     id="g1"
     inkscape:groupmode="layer"
     inkscape:label="1">
    <path
       id="path1"
       d="M 0,0 H 597 V 364 H 0 Z"
       style="fill:#ffffff;fill-opacity:1;fill-rule:nonzero;stroke:none"
       transform="scale(0.9581238)"
       clip-path="url(#clipPath2)" />
    <path
       id="path3"
       d="m 329,151 h 94.89999"
       style="fill:none;stroke:#000000;stroke-width:1;stroke-linecap:butt;stroke-linejoin:miter;stroke-miterlimit:10;stroke-dasharray:none;stroke-opacity:1"
       transform="matrix(0.9581238,0,0,0.9581238,0.47906191,0.47906191)"
       clip-path="url(#clipPath4)" />
    <path
       id="path5"
       d="m 430.64999,151 -9,4.5 2.25,-4.5 -2.25,-4.5 z"
       style="fill:#000000;fill-opacity:1;fill-rule:nonzero;stroke:#000000;stroke-width:1;stroke-linecap:butt;stroke-linejoin:miter;stroke-miterlimit:10;stroke-dasharray:none;stroke-opacity:1"
       transform="matrix(0.9581238,0,0,0.9581238,0.47906191,0.47906191)"
       clip-path="url(#clipPath6)" />
    <path
       id="path7"
       d="M 169,89 H 329 V 213 H 169 Z"
       style="fill:#ffffff;fill-opacity:1;fill-rule:nonzero;stroke:#000000;stroke-width:1;stroke-linecap:butt;stroke-linejoin:miter;stroke-miterlimit:10;stroke-dasharray:none;stroke-opacity:1"
       transform="scale(0.9581238)"
       clip-path="url(#clipPath8)" />
    <text
       id="text8"
       xml:space="preserve"
       transform="matrix(0.95813343,0,0,0.95813343,196.82157,149.46882)"
       clip-path="url(#clipPath9)"><tspan
         style="font-variant:normal;font-weight:normal;font-size:16px;font-family:Helvetica;writing-mode:lr-tb;fill:#000000;fill-opacity:1;fill-rule:nonzero;stroke:none"
         x="0 10.671875 18.671875 27.570312 32.898438 41.796875 49.796875 57.796875 61.367188 72.039062 82.710938"
         y="0"
         sodipodi:role="line"
         id="tspan8">Express API</tspan></text>
    <path
       id="path10"
       d="M 9,149 H 158.89999"
       style="fill:none;stroke:#000000;stroke-width:1;stroke-linecap:butt;stroke-linejoin:miter;stroke-miterlimit:10;stroke-dasharray:none;stroke-opacity:1"
       transform="matrix(0.9581238,0,0,0.9581238,0.47906191,0.47906191)"
       clip-path="url(#clipPath11)" />
    <path
       id="path12"
       d="m 165.64999,149 -9,4.5 2.25,-4.5 -2.25,-4.5 z"
       style="fill:#000000;fill-opacity:1;fill-rule:nonzero;stroke:#000000;stroke-width:1;stroke-linecap:butt;stroke-linejoin:miter;stroke-miterlimit:10;stroke-dasharray:none;stroke-opacity:1"
       transform="matrix(0.9581238,0,0,0.9581238,0.47906191,0.47906191)"
       clip-path="url(#clipPath13)" />
    <path
       id="path14"
       d="m 49,128 h 70 v 20 H 49 Z"
       style="fill:#ffffff;fill-opacity:1;fill-rule:nonzero;stroke:#000000;stroke-width:1;stroke-linecap:butt;stroke-linejoin:miter;stroke-miterlimit:10;stroke-dasharray:none;stroke-opacity:1"
       transform="scale(0.9581238)"
       clip-path="url(#clipPath15)" />
    <text
       id="text15"
       xml:space="preserve"
       transform="matrix(0.95813343,0,0,0.95813343,59.17971,137.01308)"
       clip-path="url(#clipPath16)"><tspan
         style="font-variant:normal;font-weight:normal;font-size:16px;font-family:Helvetica;writing-mode:lr-tb;fill:#000000;fill-opacity:1;fill-rule:nonzero;stroke:none"
         x="0 4.4453125 17.773438 26.671875 35.570312"
         y="0"
         sodipodi:role="line"
         id="tspan15">Image</tspan></text>
    <text
       id="text16"
       xml:space="preserve"
       transform="matrix(0.95813343,0,0,0.95813343,197.22578,37.367204)"
       clip-path="url(#clipPath17)"><tspan
         style="font-variant:normal;font-weight:700;font-size:26px;font-family:Helvetica;writing-mode:lr-tb;fill:#000000;fill-opacity:1;fill-rule:nonzero;stroke:none"
         x="0 17.341797 33.223633 40.447266 56.329102 64.987305 72.210938 88.092773 103.97461 111.19824 125.6582 140.11816 147.3418 156 163.22363 170.44727 186.3291 193.55273 215.21094 231.09277 246.97461 262.85645 278.73828 297.51465"
         y="0"
         sodipodi:role="line"
         id="tspan16">Solution #1 - In MongoDB</tspan></text>
    <path
       id="path18"
       d="M 434,89 H 594 V 213 H 434 Z"
       style="fill:#ffffff;fill-opacity:1;fill-rule:nonzero;stroke:#000000;stroke-width:1;stroke-linecap:butt;stroke-linejoin:miter;stroke-miterlimit:10;stroke-dasharray:none;stroke-opacity:1"
       transform="scale(0.9581238)"
       clip-path="url(#clipPath19)" />
    <text
       id="text19"
       xml:space="preserve"
       transform="matrix(0.95813343,0,0,0.95813343,458.392,149.46882)"
       clip-path="url(#clipPath20)"><tspan
         style="font-variant:normal;font-weight:normal;font-size:16px;font-family:Helvetica;writing-mode:lr-tb;fill:#000000;fill-opacity:1;fill-rule:nonzero;stroke:none"
         x="0 13.328125 22.226562 31.125 40.023438 48.921875 60.476562"
         y="0"
         sodipodi:role="line"
         id="tspan19">MongoDB</tspan></text>
    <path
       id="path21"
       d="m 479,180 h 70 v 20 h -70 z"
       style="fill:#ffffff;fill-opacity:1;fill-rule:nonzero;stroke:#000000;stroke-width:1;stroke-linecap:butt;stroke-linejoin:miter;stroke-miterlimit:10;stroke-dasharray:none;stroke-opacity:1"
       transform="scale(0.9581238)"
       clip-path="url(#clipPath22)" />
    <text
       id="text22"
       xml:space="preserve"
       transform="matrix(0.95813343,0,0,0.95813343,471.17709,186.83602)"
       clip-path="url(#clipPath23)"><tspan
         style="font-variant:normal;font-weight:normal;font-size:16px;font-family:Helvetica;writing-mode:lr-tb;fill:#000000;fill-opacity:1;fill-rule:nonzero;stroke:none"
         x="0 4.4453125 17.773438 26.671875 35.570312"
         y="0"
         sodipodi:role="line"
         id="tspan22">Image</tspan></text>
    <path
       id="path24"
       d="M 119,260 H 269 V 360 H 119 Z"
       style="fill:#f8cecc;fill-opacity:1;fill-rule:nonzero;stroke:#b85450;stroke-width:1;stroke-linecap:butt;stroke-linejoin:miter;stroke-miterlimit:10;stroke-dasharray:none;stroke-opacity:1"
       transform="scale(0.9581238)"
       clip-path="url(#clipPath25)" />
    <text
       id="text25"
       xml:space="preserve"
       transform="matrix(0.95813343,0,0,0.95813343,163.70608,290.31443)"
       clip-path="url(#clipPath26)"><tspan
         style="font-variant:normal;font-weight:normal;font-size:26px;font-family:Helvetica;writing-mode:lr-tb;fill:#000000;fill-opacity:1;fill-rule:nonzero;stroke:none"
         x="0 17.341797 31.801758"
         y="0"
         sodipodi:role="line"
         id="tspan25">Bad</tspan></text>
    <text
       id="text26"
       xml:space="preserve"
       transform="matrix(0.95813343,0,0,0.95813343,132.55177,320.9747)"
       clip-path="url(#clipPath27)"><tspan
         style="font-variant:normal;font-weight:normal;font-size:26px;font-family:Helvetica;writing-mode:lr-tb;fill:#000000;fill-opacity:1;fill-rule:nonzero;stroke:none"
         x="0 17.341797 31.801758 46.261719 54.919922 69.379883 83.839844 96.839844"
         y="0"
         sodipodi:role="line"
         id="tspan26">Approach</tspan></text>
    <path
       id="path28"
       d="M 269,260 H 589 V 360 H 269 Z"
       style="fill:#f8cecc;fill-opacity:1;fill-rule:nonzero;stroke:#b85450;stroke-width:1;stroke-linecap:butt;stroke-linejoin:miter;stroke-miterlimit:10;stroke-dasharray:none;stroke-opacity:1"
       transform="scale(0.9581238)"
       clip-path="url(#clipPath29)" />
    <text
       id="text29"
       xml:space="preserve"
       transform="matrix(0.95813343,0,0,0.95813343,266.31619,274.02616)"
       clip-path="url(#clipPath30)"><tspan
         style="font-variant:normal;font-weight:normal;font-size:16px;font-family:Helvetica;writing-mode:lr-tb;fill:#000000;fill-opacity:1;fill-rule:nonzero;stroke:none"
         x="0 14.820312 23.71875 28.164062 37.0625 45.960938 53.960938 58.40625 67.304688 76.203125 81.53125 85.976562 98.421875 109.09375 113.53906 122.4375 126.88281 131.32812 144.65625 153.55469 162.45312 171.35156 180.25 184.69531 192.69531 197.14062 206.03906 211.36719 220.26562 229.16406 238.0625 242.50781 254.0625 262.96094 267.40625 276.30469 284.30469 293.20312 297.64844"
         y="0"
         sodipodi:role="line"
         id="tspan29">We pay per GB of mongo storage we use. </tspan></text>
    <text
       id="text30"
       xml:space="preserve"
       transform="matrix(0.95813343,0,0,0.95813343,264.04062,292.2307)"
       clip-path="url(#clipPath31)"><tspan
         style="font-variant:normal;font-weight:normal;font-size:16px;font-family:Helvetica;writing-mode:lr-tb;fill:#000000;fill-opacity:1;fill-rule:nonzero;stroke:none"
         x="0 13.328125 16.882812 25.78125 34.679688 39.125 43.570312 48.015625 56.914062 62.242188 66.6875 75.585938 83.585938 92.484375 105.8125 114.71094 118.26562 127.16406 131.60938 136.05469 144.05469 152.95312 161.85156 167.17969 176.07812 184.97656 192.97656 197.42188 206.32031 215.21875 224.11719 228.5625 237.46094 246.35938 251.6875 256.13281 268.57812 279.25 283.69531 292.59375 301.49219"
         y="0"
         sodipodi:role="line"
         id="tspan30">Mlab, for example, charges $15 per GB per</tspan></text>
    <text
       id="text31"
       xml:space="preserve"
       transform="matrix(0.95813343,0,0,0.95813343,270.7775,311.39337)"
       clip-path="url(#clipPath32)"><tspan
         style="font-variant:normal;font-weight:normal;font-size:16px;font-family:Helvetica;writing-mode:lr-tb;fill:#000000;fill-opacity:1;fill-rule:nonzero;stroke:none"
         x="0 13.328125 22.226562 31.125 35.570312 44.46875 48.914062 53.359375 57.523438 67.296875 76.195312 85.09375 89.539062 97.539062 101.98438 111.32812 120.22656 129.125 138.02344 142.46875 151.36719 154.92188 162.92188 167.36719 176.26562 181.59375 190.49219 198.49219 202.9375 207.38281 216.28125 225.17969 229.625 234.07031 242.96875 248.29688 257.19531 261.64062 270.53906 283.86719"
         y="0"
         sodipodi:role="line"
         id="tspan31">month.  Thats ~330 pictures that are 3mb</tspan></text>
    <text
       id="text32"
       xml:space="preserve"
       transform="matrix(0.95813343,0,0,0.95813343,393.98747,329.5979)"
       clip-path="url(#clipPath33)"><tspan
         style="font-variant:normal;font-weight:normal;font-size:16px;font-family:Helvetica;writing-mode:lr-tb;fill:#000000;fill-opacity:1;fill-rule:nonzero;stroke:none"
         x="0 3.5546875 12.453125 17.78125 26.679688"
         y="0"
         sodipodi:role="line"
         id="tspan32">large</tspan></text>
  </g>
</svg>
