<?xml version="1.0" encoding="UTF-8" standalone="no"?>
<!-- Created with Inkscape (http://www.inkscape.org/) -->

<svg
   version="1.1"
   id="svg1"
   width="597.44"
   height="254.71999"
   viewBox="0 0 597.44 254.71999"
   sodipodi:docname="node-8.pdf"
   xmlns:inkscape="http://www.inkscape.org/namespaces/inkscape"
   xmlns:sodipodi="http://sodipodi.sourceforge.net/DTD/sodipodi-0.dtd"
   xmlns="http://www.w3.org/2000/svg"
   xmlns:svg="http://www.w3.org/2000/svg">
  <defs
     id="defs1">
    <clipPath
       clipPathUnits="userSpaceOnUse"
       id="clipPath2">
      <path
         d="M 0,0 H 1866.6666 V 794.00751 H 0 Z"
         transform="scale(0.33375)"
         clip-rule="evenodd"
         id="path2" />
    </clipPath>
    <clipPath
       clipPathUnits="userSpaceOnUse"
       id="clipPath4">
      <path
         d="M 0,0 H 1866.6666 V 791.01123 H 0 Z"
         transform="scale(0.33375)"
         clip-rule="evenodd"
         id="path4" />
    </clipPath>
    <clipPath
       clipPathUnits="userSpaceOnUse"
       id="clipPath6">
      <path
         d="M 0,0 H 1866.6666 V 791.01123 H 0 Z"
         transform="matrix(0.33375,0,0,0.33375,-0.5,-0.5)"
         clip-rule="evenodd"
         id="path6" />
    </clipPath>
    <clipPath
       clipPathUnits="userSpaceOnUse"
       id="clipPath8">
      <path
         d="M 0,0 H 1866.6666 V 791.01123 H 0 Z"
         transform="matrix(0.33375,0,0,0.33375,-0.5,-0.5)"
         clip-rule="evenodd"
         id="path8" />
    </clipPath>
    <clipPath
       clipPathUnits="userSpaceOnUse"
       id="clipPath10">
      <path
         d="M 0,0 H 1866.6666 V 791.01123 H 0 Z"
         transform="scale(0.33375)"
         clip-rule="evenodd"
         id="path10" />
    </clipPath>
    <clipPath
       clipPathUnits="userSpaceOnUse"
       id="clipPath11">
      <path
         d="M 0,0 H 1866.6666 V 791.01123 H 0 Z"
         transform="matrix(0.33374666,0,0,0.33374666,-266.42189,-157)"
         clip-rule="evenodd"
         id="path11" />
    </clipPath>
    <clipPath
       clipPathUnits="userSpaceOnUse"
       id="clipPath13">
      <path
         d="M 0,0 H 1866.6666 V 791.01123 H 0 Z"
         transform="matrix(0.33375,0,0,0.33375,-0.5,-0.5)"
         clip-rule="evenodd"
         id="path13" />
    </clipPath>
    <clipPath
       clipPathUnits="userSpaceOnUse"
       id="clipPath15">
      <path
         d="M 0,0 H 1866.6666 V 791.01123 H 0 Z"
         transform="matrix(0.33375,0,0,0.33375,-0.5,-0.5)"
         clip-rule="evenodd"
         id="path15" />
    </clipPath>
    <clipPath
       clipPathUnits="userSpaceOnUse"
       id="clipPath17">
      <path
         d="M 0,0 H 1866.6666 V 791.01123 H 0 Z"
         transform="scale(0.33375)"
         clip-rule="evenodd"
         id="path17" />
    </clipPath>
    <clipPath
       clipPathUnits="userSpaceOnUse"
       id="clipPath18">
      <path
         d="M 0,0 H 1866.6666 V 791.01123 H 0 Z"
         transform="matrix(0.33374666,0,0,0.33374666,-122.76563,-144)"
         clip-rule="evenodd"
         id="path18" />
    </clipPath>
    <clipPath
       clipPathUnits="userSpaceOnUse"
       id="clipPath19">
      <path
         d="M 0,0 H 1866.6666 V 791.01123 H 0 Z"
         transform="matrix(0.33374666,0,0,0.33374666,-1.359375,-40.000001)"
         clip-rule="evenodd"
         id="path19" />
    </clipPath>
    <clipPath
       clipPathUnits="userSpaceOnUse"
       id="clipPath21">
      <path
         d="M 0,0 H 1866.6666 V 791.01123 H 0 Z"
         transform="scale(0.33375)"
         clip-rule="evenodd"
         id="path21" />
    </clipPath>
    <clipPath
       clipPathUnits="userSpaceOnUse"
       id="clipPath22">
      <path
         d="M 0,0 H 1866.6666 V 791.01123 H 0 Z"
         transform="matrix(0.33374666,0,0,0.33374666,-489.14063,-92.000001)"
         clip-rule="evenodd"
         id="path22" />
    </clipPath>
    <clipPath
       clipPathUnits="userSpaceOnUse"
       id="clipPath24">
      <path
         d="M 0,0 H 1866.6666 V 791.01123 H 0 Z"
         transform="scale(0.33375)"
         clip-rule="evenodd"
         id="path24" />
    </clipPath>
    <clipPath
       clipPathUnits="userSpaceOnUse"
       id="clipPath25">
      <path
         d="M 0,0 H 1866.6666 V 791.01123 H 0 Z"
         transform="matrix(0.33374666,0,0,0.33374666,-464.23438,-155)"
         clip-rule="evenodd"
         id="path25" />
    </clipPath>
    <clipPath
       clipPathUnits="userSpaceOnUse"
       id="clipPath27">
      <path
         d="M 0,0 H 1866.6666 V 791.01123 H 0 Z"
         transform="scale(0.33375)"
         clip-rule="evenodd"
         id="path27" />
    </clipPath>
    <clipPath
       clipPathUnits="userSpaceOnUse"
       id="clipPath28">
      <path
         d="M 0,0 H 1866.6666 V 791.01123 H 0 Z"
         transform="matrix(0.33374666,0,0,0.33374666,-481.57813,-208)"
         clip-rule="evenodd"
         id="path28" />
    </clipPath>
    <clipPath
       clipPathUnits="userSpaceOnUse"
       id="clipPath29">
      <path
         d="M 0,0 H 1866.6666 V 791.01123 H 0 Z"
         transform="matrix(0.33374666,0,0,0.33374666,-502.46876,-228)"
         clip-rule="evenodd"
         id="path29" />
    </clipPath>
  </defs>
  <sodipodi:namedview
     id="namedview1"
     pagecolor="#ffffff"
     bordercolor="#000000"
     borderopacity="0.25"
     inkscape:showpageshadow="2"
     inkscape:pageopacity="0.0"
     inkscape:pagecheckerboard="0"
     inkscape:deskcolor="#d1d1d1">
    <inkscape:page
       x="0"
       y="0"
       inkscape:label="1"
       id="page1"
       width="597.44"
       height="254.71999"
       margin="0"
       bleed="0" />
  </sodipodi:namedview>
  <g
     id="g1"
     inkscape:groupmode="layer"
     inkscape:label="1">
    <path
       id="path1"
       d="M 0,0 H 623 V 265 H 0 Z"
       style="fill:#ffffff;fill-opacity:1;fill-rule:nonzero;stroke:none"
       transform="scale(0.95880146)"
       clip-path="url(#clipPath2)" />
    <path
       id="path3"
       d="m 440,43.5 h 180 v 217 H 440 Z"
       style="fill:#ffffff;fill-opacity:1;fill-rule:nonzero;stroke:#000000;stroke-width:1;stroke-linecap:butt;stroke-linejoin:miter;stroke-miterlimit:10;stroke-dasharray:none;stroke-opacity:1"
       transform="scale(0.95880146)"
       clip-path="url(#clipPath4)" />
    <path
       id="path5"
       d="m 390,152 h 39.89999"
       style="fill:none;stroke:#000000;stroke-width:1;stroke-linecap:butt;stroke-linejoin:miter;stroke-miterlimit:10;stroke-dasharray:none;stroke-opacity:1"
       transform="matrix(0.95880146,0,0,0.95880146,0.47940073,0.47940073)"
       clip-path="url(#clipPath6)" />
    <path
       id="path7"
       d="m 436.64999,152 -9,4.5 2.25,-4.5 -2.25,-4.5 z"
       style="fill:#000000;fill-opacity:1;fill-rule:nonzero;stroke:#000000;stroke-width:1;stroke-linecap:butt;stroke-linejoin:miter;stroke-miterlimit:10;stroke-dasharray:none;stroke-opacity:1"
       transform="matrix(0.95880146,0,0,0.95880146,0.47940073,0.47940073)"
       clip-path="url(#clipPath8)" />
    <path
       id="path9"
       d="M 230,90 H 390 V 214 H 230 Z"
       style="fill:#ffffff;fill-opacity:1;fill-rule:nonzero;stroke:#000000;stroke-width:1;stroke-linecap:butt;stroke-linejoin:miter;stroke-miterlimit:10;stroke-dasharray:none;stroke-opacity:1"
       transform="scale(0.95880146)"
       clip-path="url(#clipPath10)" />
    <text
       id="text10"
       xml:space="preserve"
       transform="matrix(0.95881106,0,0,0.95881106,255.44825,150.53334)"
       clip-path="url(#clipPath11)"><tspan
         style="font-variant:normal;font-weight:normal;font-size:16px;font-family:Helvetica;writing-mode:lr-tb;fill:#000000;fill-opacity:1;fill-rule:nonzero;stroke:none"
         x="0 10.671875 18.671875 27.570312 32.898438 41.796875 49.796875 57.796875 61.367188 72.039062 82.710938"
         y="0"
         sodipodi:role="line"
         id="tspan10">Express API</tspan></text>
    <path
       id="path12"
       d="M 70,150 H 219.89999"
       style="fill:none;stroke:#000000;stroke-width:1;stroke-linecap:butt;stroke-linejoin:miter;stroke-miterlimit:10;stroke-dasharray:none;stroke-opacity:1"
       transform="matrix(0.95880146,0,0,0.95880146,0.47940073,0.47940073)"
       clip-path="url(#clipPath13)" />
    <path
       id="path14"
       d="m 226.64999,150 -9,4.5 2.25,-4.5 -2.25,-4.5 z"
       style="fill:#000000;fill-opacity:1;fill-rule:nonzero;stroke:#000000;stroke-width:1;stroke-linecap:butt;stroke-linejoin:miter;stroke-miterlimit:10;stroke-dasharray:none;stroke-opacity:1"
       transform="matrix(0.95880146,0,0,0.95880146,0.47940073,0.47940073)"
       clip-path="url(#clipPath15)" />
    <path
       id="path16"
       d="m 110,129 h 70 v 20 h -70 z"
       style="fill:#ffffff;fill-opacity:1;fill-rule:nonzero;stroke:#000000;stroke-width:1;stroke-linecap:butt;stroke-linejoin:miter;stroke-miterlimit:10;stroke-dasharray:none;stroke-opacity:1"
       transform="scale(0.95880146)"
       clip-path="url(#clipPath17)" />
    <text
       id="text17"
       xml:space="preserve"
       transform="matrix(0.95881106,0,0,0.95881106,117.70904,138.06879)"
       clip-path="url(#clipPath18)"><tspan
         style="font-variant:normal;font-weight:normal;font-size:16px;font-family:Helvetica;writing-mode:lr-tb;fill:#000000;fill-opacity:1;fill-rule:nonzero;stroke:none"
         x="0 4.4453125 17.773438 26.671875 35.570312"
         y="0"
         sodipodi:role="line"
         id="tspan17">Image</tspan></text>
    <text
       id="text18"
       xml:space="preserve"
       transform="matrix(0.95881106,0,0,0.95881106,1.3033838,38.352443)"
       clip-path="url(#clipPath19)"><tspan
         style="font-variant:normal;font-weight:700;font-size:26px;font-family:Helvetica;writing-mode:lr-tb;fill:#000000;fill-opacity:1;fill-rule:nonzero;stroke:none"
         x="0 17.341797 33.223633 40.447266 56.329102 64.987305 72.210938 88.092773 103.97461 111.19824 125.6582 140.11816 147.3418 156 163.22363 183.44727 199.3291 207.9873 222.44727 229.6709 245.55273 260.0127 267.23633 286.0127 300.47266 309.13086 323.59082 330.81445 348.15625 356.81445 372.69629 382.81445"
         y="0"
         sodipodi:role="line"
         id="tspan18">Solution #3 - Outside Data Store</tspan></text>
    <path
       id="path20"
       d="m 452.5,60.5 h 155 v 53 h -155 z"
       style="fill:#ffffff;fill-opacity:1;fill-rule:nonzero;stroke:#000000;stroke-width:1;stroke-linecap:butt;stroke-linejoin:miter;stroke-miterlimit:10;stroke-dasharray:none;stroke-opacity:1"
       transform="scale(0.95880146)"
       clip-path="url(#clipPath21)" />
    <text
       id="text21"
       xml:space="preserve"
       transform="matrix(0.95881106,0,0,0.95881106,468.99345,88.210618)"
       clip-path="url(#clipPath22)"><tspan
         style="font-variant:normal;font-weight:normal;font-size:16px;font-family:Helvetica;writing-mode:lr-tb;fill:#000000;fill-opacity:1;fill-rule:nonzero;stroke:none"
         x="0 10.671875 24 32.898438 40.898438 49.796875 58.695312 63.140625 73.8125"
         y="0"
         sodipodi:role="line"
         id="tspan21">Amazon S3</tspan></text>
    <path
       id="path23"
       d="m 452.5,123.5 h 155 v 53 h -155 z"
       style="fill:#ffffff;fill-opacity:1;fill-rule:nonzero;stroke:#000000;stroke-width:1;stroke-linecap:butt;stroke-linejoin:miter;stroke-miterlimit:10;stroke-dasharray:none;stroke-opacity:1"
       transform="scale(0.95880146)"
       clip-path="url(#clipPath24)" />
    <text
       id="text24"
       xml:space="preserve"
       transform="matrix(0.95881106,0,0,0.95881106,445.11306,148.61571)"
       clip-path="url(#clipPath25)"><tspan
         style="font-variant:normal;font-weight:normal;font-size:16px;font-family:Helvetica;writing-mode:lr-tb;fill:#000000;fill-opacity:1;fill-rule:nonzero;stroke:none"
         x="0 10.671875 18.671875 27.570312 32.898438 41.796875 46.242188 56.015625 59.570312 63.125 72.023438 76.46875 87.140625 91.585938 100.48438 105.8125 114.71094 123.60938"
         y="0"
         sodipodi:role="line"
         id="tspan24">Azure File Storage</tspan></text>
    <path
       id="path26"
       d="m 452.5,186.5 h 155 v 53 h -155 z"
       style="fill:#ffffff;fill-opacity:1;fill-rule:nonzero;stroke:#000000;stroke-width:1;stroke-linecap:butt;stroke-linejoin:miter;stroke-miterlimit:10;stroke-dasharray:none;stroke-opacity:1"
       transform="scale(0.95880146)"
       clip-path="url(#clipPath27)" />
    <text
       id="text27"
       xml:space="preserve"
       transform="matrix(0.95881106,0,0,0.95881106,461.74244,199.4327)"
       clip-path="url(#clipPath28)"><tspan
         style="font-variant:normal;font-weight:normal;font-size:16px;font-family:Helvetica;writing-mode:lr-tb;fill:#000000;fill-opacity:1;fill-rule:nonzero;stroke:none"
         x="0 12.445312 21.34375 30.242188 39.140625 42.695312 51.59375 56.039062 67.59375 71.148438 80.046875 88.945312"
         y="0"
         sodipodi:role="line"
         id="tspan27">Google Cloud</tspan></text>
    <text
       id="text28"
       xml:space="preserve"
       transform="matrix(0.95881106,0,0,0.95881106,481.7726,218.60892)"
       clip-path="url(#clipPath29)"><tspan
         style="font-variant:normal;font-weight:normal;font-size:16px;font-family:Helvetica;writing-mode:lr-tb;fill:#000000;fill-opacity:1;fill-rule:nonzero;stroke:none"
         x="0 10.671875 15.117188 24.015625 29.34375 38.242188 47.140625"
         y="0"
         sodipodi:role="line"
         id="tspan28">Storage</tspan></text>
  </g>
</svg>
