<?xml version="1.0" encoding="UTF-8" standalone="no"?>
<!-- Created with Inkscape (http://www.inkscape.org/) -->

<svg
   version="1.1"
   id="svg1"
   width="501.44"
   height="206.71999"
   viewBox="0 0 501.44 206.71999"
   sodipodi:docname="node-12.pdf"
   xmlns:inkscape="http://www.inkscape.org/namespaces/inkscape"
   xmlns:sodipodi="http://sodipodi.sourceforge.net/DTD/sodipodi-0.dtd"
   xmlns="http://www.w3.org/2000/svg"
   xmlns:svg="http://www.w3.org/2000/svg">
  <defs
     id="defs1">
    <clipPath
       clipPathUnits="userSpaceOnUse"
       id="clipPath2">
      <path
         d="M 0,0 H 1566.6665 V 644.04071 H 0 Z"
         transform="scale(0.33382983)"
         clip-rule="evenodd"
         id="path2" />
    </clipPath>
    <clipPath
       clipPathUnits="userSpaceOnUse"
       id="clipPath4">
      <path
         d="M 0,0 H 1566.6665 V 638.04962 H 0 Z"
         transform="scale(0.33382983)"
         clip-rule="evenodd"
         id="path4" />
    </clipPath>
    <clipPath
       clipPathUnits="userSpaceOnUse"
       id="clipPath5">
      <path
         d="M 0,0 H 1566.6665 V 638.04962 H 0 Z"
         transform="matrix(0.33382647,0,0,0.33382647,-4.109375,-70)"
         clip-rule="evenodd"
         id="path5" />
    </clipPath>
    <clipPath
       clipPathUnits="userSpaceOnUse"
       id="clipPath6">
      <path
         d="M 0,0 H 1566.6665 V 638.04962 H 0 Z"
         transform="matrix(0.33382647,0,0,0.33382647,-34.609375,-23)"
         clip-rule="evenodd"
         id="path6" />
    </clipPath>
    <clipPath
       clipPathUnits="userSpaceOnUse"
       id="clipPath8">
      <path
         d="M 0,0 H 1566.6665 V 638.04962 H 0 Z"
         transform="scale(0.33382983)"
         clip-rule="evenodd"
         id="path8" />
    </clipPath>
    <clipPath
       clipPathUnits="userSpaceOnUse"
       id="clipPath9">
      <path
         d="M 0,0 H 1566.6665 V 638.04962 H 0 Z"
         transform="matrix(0.33382647,0,0,0.33382647,-7.8124999,-190)"
         clip-rule="evenodd"
         id="path9" />
    </clipPath>
    <clipPath
       clipPathUnits="userSpaceOnUse"
       id="clipPath11">
      <path
         d="M 0,0 H 1566.6665 V 638.04962 H 0 Z"
         transform="scale(0.33382983)"
         clip-rule="evenodd"
         id="path11" />
    </clipPath>
    <clipPath
       clipPathUnits="userSpaceOnUse"
       id="clipPath12">
      <path
         d="M 0,0 H 1566.6665 V 638.04962 H 0 Z"
         transform="matrix(0.33382647,0,0,0.33382647,-11.65625,-120)"
         clip-rule="evenodd"
         id="path12" />
    </clipPath>
    <clipPath
       clipPathUnits="userSpaceOnUse"
       id="clipPath13">
      <path
         d="M 0,0 H 1566.6665 V 638.04962 H 0 Z"
         transform="matrix(0.33382647,0,0,0.33382647,-61.734374,-139.99999)"
         clip-rule="evenodd"
         id="path13" />
    </clipPath>
    <clipPath
       clipPathUnits="userSpaceOnUse"
       id="clipPath15">
      <path
         d="M 0,0 H 1566.6665 V 638.04962 H 0 Z"
         transform="matrix(-0.33382983,0,0,-0.33382983,722.00001,190.00001)"
         clip-rule="evenodd"
         id="path15" />
    </clipPath>
    <clipPath
       clipPathUnits="userSpaceOnUse"
       id="clipPath16">
      <path
         d="M 0,0 H 1566.6665 V 638.04962 H 0 Z"
         transform="matrix(0.33382647,0,0,0.33382647,-383,-81)"
         clip-rule="evenodd"
         id="path16" />
    </clipPath>
    <clipPath
       clipPathUnits="userSpaceOnUse"
       id="clipPath17">
      <path
         d="M 0,0 H 1566.6665 V 638.04962 H 0 Z"
         transform="matrix(0.33382647,0,0,0.33382647,-383,-100)"
         clip-rule="evenodd"
         id="path17" />
    </clipPath>
    <clipPath
       clipPathUnits="userSpaceOnUse"
       id="clipPath18">
      <path
         d="M 0,0 H 1566.6665 V 638.04962 H 0 Z"
         transform="matrix(0.33382647,0,0,0.33382647,-383,-119)"
         clip-rule="evenodd"
         id="path18" />
    </clipPath>
  </defs>
  <sodipodi:namedview
     id="namedview1"
     pagecolor="#ffffff"
     bordercolor="#000000"
     borderopacity="0.25"
     inkscape:showpageshadow="2"
     inkscape:pageopacity="0.0"
     inkscape:pagecheckerboard="0"
     inkscape:deskcolor="#d1d1d1">
    <inkscape:page
       x="0"
       y="0"
       inkscape:label="1"
       id="page1"
       width="501.44"
       height="206.71999"
       margin="0"
       bleed="0" />
  </sodipodi:namedview>
  <g
     id="g1"
     inkscape:groupmode="layer"
     inkscape:label="1">
    <path
       id="path1"
       d="M 0,0 H 523 V 215 H 0 Z"
       style="fill:#ffffff;fill-opacity:1;fill-rule:nonzero;stroke:none"
       transform="scale(0.95857218)"
       clip-path="url(#clipPath2)" />
    <path
       id="path3"
       d="M 1,40 H 331 V 90 H 1 Z"
       style="fill:#ffffff;fill-opacity:1;fill-rule:nonzero;stroke:#000000;stroke-width:1;stroke-linecap:butt;stroke-linejoin:miter;stroke-miterlimit:10;stroke-dasharray:none;stroke-opacity:1"
       transform="scale(0.95857218)"
       clip-path="url(#clipPath4)" />
    <text
       id="text4"
       xml:space="preserve"
       transform="matrix(0.95858182,0,0,0.95858182,3.9391722,67.100727)"
       clip-path="url(#clipPath5)"><tspan
         style="font-variant:normal;font-weight:normal;font-size:16px;font-family:Helvetica;writing-mode:lr-tb;fill:#000000;fill-opacity:1;fill-rule:nonzero;stroke:none"
         x="0 12.445312 21.34375 24.898438 32.898438 37.34375 45.34375 48.898438 57.796875 66.695312 75.59375 84.492188 88.9375 92.492188 101.39062 105.83594 114.73438 122.73438 131.63281 136.96094 144.96094 149.40625 157.40625 166.30469 175.20312 184.10156 187.65625 196.55469 201 209.89844 218.79688 223.24219 232.14062 241.03906 244.59375 253.49219 257.9375 262.38281 271.28125 275.72656 284.625 293.52344 297.07812 305.97656 314.875"
         y="0"
         sodipodi:role="line"
         id="tspan4">Only signed in users should be able to upload</tspan></text>
    <text
       id="text5"
       xml:space="preserve"
       transform="matrix(0.95858182,0,0,0.95858182,33.175918,22.047382)"
       clip-path="url(#clipPath6)"><tspan
         style="font-variant:normal;font-weight:700;font-size:24px;font-family:Helvetica;writing-mode:lr-tb;fill:#000000;fill-opacity:1;fill-rule:nonzero;stroke:none"
         x="0 17.332031 31.992188 38.660156 53.320312 66.667969 81.328125 87.996094 104.00391 113.34375 128.00391 141.35156 154.69922 168.04688 181.39453 188.0625 194.73047 208.07812 221.42578 236.08594 249.43359"
         y="0"
         sodipodi:role="line"
         id="tspan5">Upload Process Issues</tspan></text>
    <path
       id="path7"
       d="m 1,160 h 330 v 50 H 1 Z"
       style="fill:#ffffff;fill-opacity:1;fill-rule:nonzero;stroke:#000000;stroke-width:1;stroke-linecap:butt;stroke-linejoin:miter;stroke-miterlimit:10;stroke-dasharray:none;stroke-opacity:1"
       transform="scale(0.95857218)"
       clip-path="url(#clipPath8)" />
    <text
       id="text8"
       xml:space="preserve"
       transform="matrix(0.95858182,0,0,0.95858182,7.4889204,182.13055)"
       clip-path="url(#clipPath9)"><tspan
         style="font-variant:normal;font-weight:normal;font-size:16px;font-family:Helvetica;writing-mode:lr-tb;fill:#000000;fill-opacity:1;fill-rule:nonzero;stroke:none"
         x="0 14.820312 23.71875 28.164062 36.164062 45.0625 53.960938 62.859375 66.414062 75.3125 79.757812 88.65625 97.554688 101.10938 109.10938 113.55469 122.45312 126.00781 129.5625 138.46094 150.01562 154.46094 158.01562 171.34375 180.24219 189.14062 198.03906 206.03906 210.48438 214.92969 223.82812 228.27344 237.17188 246.07031 250.51562 259.41406 268.3125 271.86719 280.76562 289.66406 298.5625 307.46094"
         y="0"
         sodipodi:role="line"
         id="tspan8">We should only allow images to be uploaded</tspan></text>
    <path
       id="path10"
       d="m 1,100 h 330 v 50 H 1 Z"
       style="fill:#ffffff;fill-opacity:1;fill-rule:nonzero;stroke:#000000;stroke-width:1;stroke-linecap:butt;stroke-linejoin:miter;stroke-miterlimit:10;stroke-dasharray:none;stroke-opacity:1"
       transform="scale(0.95857218)"
       clip-path="url(#clipPath11)" />
    <text
       id="text11"
       xml:space="preserve"
       transform="matrix(0.95858182,0,0,0.95858182,11.173469,115.02982)"
       clip-path="url(#clipPath12)"><tspan
         style="font-variant:normal;font-weight:normal;font-size:16px;font-family:Helvetica;writing-mode:lr-tb;fill:#000000;fill-opacity:1;fill-rule:nonzero;stroke:none"
         x="0 9.7734375 18.671875 27.570312 32.015625 40.914062 49.8125 53.367188 62.265625 71.164062 80.0625 88.960938 97.859375 102.30469 105.85938 119.1875 128.08594 136.98438 145.88281 150.32812 159.22656 168.125 177.02344 185.92188 193.92188 198.36719 202.8125 211.71094 216.15625 225.05469 233.95312 238.39844 242.84375 246.39844 255.29688 264.19531 268.64062 273.08594 281.98438 286.42969 290.875 299.77344"
         y="0"
         sodipodi:role="line"
         id="tspan11">The uploaded image needs to be tied to the</tspan></text>
    <text
       id="text12"
       xml:space="preserve"
       transform="matrix(0.95858182,0,0,0.95858182,59.177449,134.20145)"
       clip-path="url(#clipPath13)"><tspan
         style="font-variant:normal;font-weight:normal;font-size:16px;font-family:Helvetica;writing-mode:lr-tb;fill:#000000;fill-opacity:1;fill-rule:nonzero;stroke:none"
         x="0 8.8984375 12.453125 21.351562 30.25 34.695312 43.59375 52.492188 60.492188 64.9375 69.382812 73.828125 82.726562 91.625 96.070312 99.125 107.125 111.57031 120.46875 129.36719 132.92188 141.82031 150.71875 155.16406 163.16406 168.49219 177.39062 186.28906 190.73438 199.63281"
         y="0"
         sodipodi:role="line"
         id="tspan12">blog post that's being created</tspan></text>
    <path
       id="path14"
       d="m 381,40 h -10 c -6.66666,0 -10,3.333332 -10,10 v 35 c 0,6.666664 -3.33334,10 -10,10 h -5 c -3.33334,0 -1.66666,0 5,0 h 5 c 3.33334,0 5,3.333336 5,10 v 35 c 0,6.66667 3.33334,10 10,10 h 10"
       style="fill:none;stroke:#000000;stroke-width:1;stroke-linecap:butt;stroke-linejoin:miter;stroke-miterlimit:10;stroke-dasharray:none;stroke-opacity:1"
       transform="matrix(-0.95857218,0,0,-0.95857218,692.08912,182.12872)"
       clip-path="url(#clipPath15)" />
    <text
       id="text15"
       xml:space="preserve"
       transform="matrix(0.95858182,0,0,0.95858182,367.13684,77.645127)"
       clip-path="url(#clipPath16)"><tspan
         style="font-variant:normal;font-weight:normal;font-size:16px;font-family:Helvetica;writing-mode:lr-tb;fill:#ff0000;fill-opacity:1;fill-rule:nonzero;stroke:none"
         x="0 11.554688 15.109375 20.4375 29.335938 37.335938 41.78125 45.335938 53.335938 57.78125 65.78125 74.679688 83.578125 91.578125 100.47656 105.80469 114.70312 123.60156"
         y="0"
         sodipodi:role="line"
         id="tspan15">Directly concerned</tspan></text>
    <text
       id="text16"
       xml:space="preserve"
       transform="matrix(0.95858182,0,0,0.95858182,367.13684,95.858182)"
       clip-path="url(#clipPath17)"><tspan
         style="font-variant:normal;font-weight:normal;font-size:16px;font-family:Helvetica;writing-mode:lr-tb;fill:#ff0000;fill-opacity:1;fill-rule:nonzero;stroke:none"
         x="0 11.554688 15.109375 19.554688 28.453125 32.898438 36.453125 45.351562 54.25 57.804688 65.804688 70.25 73.804688 82.703125 87.148438 96.046875 104.94531"
         y="0"
         sodipodi:role="line"
         id="tspan16">with logic in our</tspan></text>
    <text
       id="text17"
       xml:space="preserve"
       transform="matrix(0.95858182,0,0,0.95858182,367.13684,114.07124)"
       clip-path="url(#clipPath18)"><tspan
         style="font-variant:normal;font-weight:normal;font-size:16px;font-family:Helvetica;writing-mode:lr-tb;fill:#ff0000;fill-opacity:1;fill-rule:nonzero;stroke:none"
         x="0 10.671875 18.671875 27.570312 32.898438 41.796875 49.796875 57.796875 61.367188 72.039062 82.710938"
         y="0"
         sodipodi:role="line"
         id="tspan17">Express API</tspan></text>
  </g>
</svg>
