<?xml version="1.0" encoding="UTF-8" standalone="no"?>
<!-- Created with Inkscape (http://www.inkscape.org/) -->

<svg
   version="1.1"
   id="svg1"
   width="752"
   height="410.55997"
   viewBox="0 0 752 410.55997"
   sodipodi:docname="node-7.pdf"
   xmlns:inkscape="http://www.inkscape.org/namespaces/inkscape"
   xmlns:sodipodi="http://sodipodi.sourceforge.net/DTD/sodipodi-0.dtd"
   xmlns="http://www.w3.org/2000/svg"
   xmlns:svg="http://www.w3.org/2000/svg">
  <defs
     id="defs1">
    <clipPath
       clipPathUnits="userSpaceOnUse"
       id="clipPath2">
      <path
         d="M 0,0 H 2350 V 1282.9081 H 0 Z"
         transform="scale(0.33361703)"
         clip-rule="evenodd"
         id="path2" />
    </clipPath>
    <clipPath
       clipPathUnits="userSpaceOnUse"
       id="clipPath4">
      <path
         d="M 0,0 H 2350 V 1276.9132 H 0 Z"
         transform="scale(0.33361703)"
         clip-rule="evenodd"
         id="path4" />
    </clipPath>
    <clipPath
       clipPathUnits="userSpaceOnUse"
       id="clipPath6">
      <path
         d="M 0,0 H 2350 V 1276.9132 H 0 Z"
         transform="scale(0.33361703)"
         clip-rule="evenodd"
         id="path6" />
    </clipPath>
    <clipPath
       clipPathUnits="userSpaceOnUse"
       id="clipPath7">
      <path
         d="M 0,0 H 2350 V 1276.9132 H 0 Z"
         transform="matrix(0.33361368,0,0,0.33361368,-512.42188,-113)"
         clip-rule="evenodd"
         id="path7" />
    </clipPath>
    <clipPath
       clipPathUnits="userSpaceOnUse"
       id="clipPath9">
      <path
         d="M 0,0 H 2350 V 1276.9132 H 0 Z"
         transform="matrix(0.33361703,0,0,0.33361703,-0.50000001,-0.50000001)"
         clip-rule="evenodd"
         id="path9" />
    </clipPath>
    <clipPath
       clipPathUnits="userSpaceOnUse"
       id="clipPath11">
      <path
         d="M 0,0 H 2350 V 1276.9132 H 0 Z"
         transform="matrix(0.33361703,0,0,0.33361703,-0.50000001,-0.50000001)"
         clip-rule="evenodd"
         id="path11" />
    </clipPath>
    <clipPath
       clipPathUnits="userSpaceOnUse"
       id="clipPath13">
      <path
         d="M 0,0 H 2350 V 1276.9132 H 0 Z"
         transform="scale(0.33361703)"
         clip-rule="evenodd"
         id="path13" />
    </clipPath>
    <clipPath
       clipPathUnits="userSpaceOnUse"
       id="clipPath14">
      <path
         d="M 0,0 H 2350 V 1276.9132 H 0 Z"
         transform="matrix(0.33361368,0,0,0.33361368,-143.76563,-202)"
         clip-rule="evenodd"
         id="path14" />
    </clipPath>
    <clipPath
       clipPathUnits="userSpaceOnUse"
       id="clipPath15">
      <path
         d="M 0,0 H 2350 V 1276.9132 H 0 Z"
         transform="matrix(0.33361368,0,0,0.33361368,-59.687501,-43)"
         clip-rule="evenodd"
         id="path15" />
    </clipPath>
    <clipPath
       clipPathUnits="userSpaceOnUse"
       id="clipPath16">
      <path
         d="M 0,0 H 2350 V 1276.9132 H 0 Z"
         transform="matrix(0.33361368,0,0,0.33361368,-177.625,-75)"
         clip-rule="evenodd"
         id="path16" />
    </clipPath>
    <clipPath
       clipPathUnits="userSpaceOnUse"
       id="clipPath17">
      <path
         d="M 0,0 H 2350 V 1276.9132 H 0 Z"
         transform="matrix(0.33361368,0,0,0.33361368,-545.79688,-15)"
         clip-rule="evenodd"
         id="path17" />
    </clipPath>
    <clipPath
       clipPathUnits="userSpaceOnUse"
       id="clipPath19">
      <path
         d="M 0,0 H 2350 V 1276.9132 H 0 Z"
         transform="scale(0.33361703)"
         clip-rule="evenodd"
         id="path19" />
    </clipPath>
    <clipPath
       clipPathUnits="userSpaceOnUse"
       id="clipPath20">
      <path
         d="M 0,0 H 2350 V 1276.9132 H 0 Z"
         transform="matrix(0.33361368,0,0,0.33361368,-667.76563,-113)"
         clip-rule="evenodd"
         id="path20" />
    </clipPath>
    <clipPath
       clipPathUnits="userSpaceOnUse"
       id="clipPath22">
      <path
         d="M 0,0 H 2350 V 1276.9132 H 0 Z"
         transform="scale(0.33361703)"
         clip-rule="evenodd"
         id="path22" />
    </clipPath>
    <clipPath
       clipPathUnits="userSpaceOnUse"
       id="clipPath24">
      <path
         d="M 0,0 H 2350 V 1276.9132 H 0 Z"
         transform="scale(0.33361703)"
         clip-rule="evenodd"
         id="path24" />
    </clipPath>
    <clipPath
       clipPathUnits="userSpaceOnUse"
       id="clipPath25">
      <path
         d="M 0,0 H 2350 V 1276.9132 H 0 Z"
         transform="matrix(0.33361368,0,0,0.33361368,-512.42188,-303)"
         clip-rule="evenodd"
         id="path25" />
    </clipPath>
    <clipPath
       clipPathUnits="userSpaceOnUse"
       id="clipPath27">
      <path
         d="M 0,0 H 2350 V 1276.9132 H 0 Z"
         transform="scale(0.33361703)"
         clip-rule="evenodd"
         id="path27" />
    </clipPath>
    <clipPath
       clipPathUnits="userSpaceOnUse"
       id="clipPath28">
      <path
         d="M 0,0 H 2350 V 1276.9132 H 0 Z"
         transform="matrix(0.33361368,0,0,0.33361368,-667.76563,-303)"
         clip-rule="evenodd"
         id="path28" />
    </clipPath>
    <clipPath
       clipPathUnits="userSpaceOnUse"
       id="clipPath30">
      <path
         d="M 0,0 H 2350 V 1276.9132 H 0 Z"
         transform="matrix(0.33361703,0,0,0.33361703,-0.50000001,-0.50000001)"
         clip-rule="evenodd"
         id="path30" />
    </clipPath>
    <clipPath
       clipPathUnits="userSpaceOnUse"
       id="clipPath32">
      <path
         d="M 0,0 H 2350 V 1276.9132 H 0 Z"
         transform="matrix(0.33361703,0,0,0.33361703,-0.50000001,-0.50000001)"
         clip-rule="evenodd"
         id="path32" />
    </clipPath>
    <clipPath
       clipPathUnits="userSpaceOnUse"
       id="clipPath34">
      <path
         d="M 0,0 H 2350 V 1276.9132 H 0 Z"
         transform="matrix(0.33361703,0,0,0.33361703,-0.50000001,-0.50000001)"
         clip-rule="evenodd"
         id="path34" />
    </clipPath>
    <clipPath
       clipPathUnits="userSpaceOnUse"
       id="clipPath36">
      <path
         d="M 0,0 H 2350 V 1276.9132 H 0 Z"
         transform="matrix(0.33361703,0,0,0.33361703,-0.50000001,-0.50000001)"
         clip-rule="evenodd"
         id="path36" />
    </clipPath>
    <clipPath
       clipPathUnits="userSpaceOnUse"
       id="clipPath38">
      <path
         d="M 0,0 H 2350 V 1276.9132 H 0 Z"
         transform="scale(0.33361703)"
         clip-rule="evenodd"
         id="path38" />
    </clipPath>
    <clipPath
       clipPathUnits="userSpaceOnUse"
       id="clipPath39">
      <path
         d="M 0,0 H 2350 V 1276.9132 H 0 Z"
         transform="matrix(0.33361368,0,0,0.33361368,-258.40625,-209)"
         clip-rule="evenodd"
         id="path39" />
    </clipPath>
    <clipPath
       clipPathUnits="userSpaceOnUse"
       id="clipPath41">
      <path
         d="M 0,0 H 2350 V 1276.9132 H 0 Z"
         transform="scale(0.33361703)"
         clip-rule="evenodd"
         id="path41" />
    </clipPath>
    <clipPath
       clipPathUnits="userSpaceOnUse"
       id="clipPath42">
      <path
         d="M 0,0 H 2350 V 1276.9132 H 0 Z"
         transform="matrix(0.33361368,0,0,0.33361368,-52.859375,-366)"
         clip-rule="evenodd"
         id="path42" />
    </clipPath>
    <clipPath
       clipPathUnits="userSpaceOnUse"
       id="clipPath43">
      <path
         d="M 0,0 H 2350 V 1276.9132 H 0 Z"
         transform="matrix(0.33361368,0,0,0.33361368,-20.34375,-398)"
         clip-rule="evenodd"
         id="path43" />
    </clipPath>
    <clipPath
       clipPathUnits="userSpaceOnUse"
       id="clipPath45">
      <path
         d="M 0,0 H 2350 V 1276.9132 H 0 Z"
         transform="scale(0.33361703)"
         clip-rule="evenodd"
         id="path45" />
    </clipPath>
    <clipPath
       clipPathUnits="userSpaceOnUse"
       id="clipPath46">
      <path
         d="M 0,0 H 2350 V 1276.9132 H 0 Z"
         transform="matrix(0.33361368,0,0,0.33361368,-177.54688,-368)"
         clip-rule="evenodd"
         id="path46" />
    </clipPath>
    <clipPath
       clipPathUnits="userSpaceOnUse"
       id="clipPath47">
      <path
         d="M 0,0 H 2350 V 1276.9132 H 0 Z"
         transform="matrix(0.33361368,0,0,0.33361368,-194.1875,-388)"
         clip-rule="evenodd"
         id="path47" />
    </clipPath>
  </defs>
  <sodipodi:namedview
     id="namedview1"
     pagecolor="#ffffff"
     bordercolor="#000000"
     borderopacity="0.25"
     inkscape:showpageshadow="2"
     inkscape:pageopacity="0.0"
     inkscape:pagecheckerboard="0"
     inkscape:deskcolor="#d1d1d1">
    <inkscape:page
       x="0"
       y="0"
       inkscape:label="1"
       id="page1"
       width="752"
       height="410.55997"
       margin="0"
       bleed="0" />
  </sodipodi:namedview>
  <g
     id="g1"
     inkscape:groupmode="layer"
     inkscape:label="1">
    <path
       id="path1"
       d="M 0,0 H 784 V 428 H 0 Z"
       style="fill:#ffffff;fill-opacity:1;fill-rule:nonzero;stroke:none"
       transform="scale(0.95918361)"
       clip-path="url(#clipPath2)" />
    <path
       id="path3"
       d="M 451,23 H 781 V 193 H 451 Z"
       style="fill:#dae8fc;fill-opacity:1;fill-rule:nonzero;stroke:#6c8ebf;stroke-width:1;stroke-linecap:butt;stroke-linejoin:miter;stroke-miterlimit:10;stroke-dasharray:none;stroke-opacity:1"
       transform="scale(0.95918361)"
       clip-path="url(#clipPath4)" />
    <path
       id="path5"
       d="M 476,43 H 636 V 173 H 476 Z"
       style="fill:#ffffff;fill-opacity:1;fill-rule:nonzero;stroke:#000000;stroke-width:1;stroke-linecap:butt;stroke-linejoin:miter;stroke-miterlimit:10;stroke-dasharray:none;stroke-opacity:1"
       transform="scale(0.95918361)"
       clip-path="url(#clipPath6)" />
    <text
       id="text6"
       xml:space="preserve"
       transform="matrix(0.95919324,0,0,0.95919324,491.5116,108.38884)"
       clip-path="url(#clipPath7)"><tspan
         style="font-variant:normal;font-weight:normal;font-size:16px;font-family:Helvetica;writing-mode:lr-tb;fill:#000000;fill-opacity:1;fill-rule:nonzero;stroke:none"
         x="0 10.671875 18.671875 27.570312 32.898438 41.796875 49.796875 57.796875 61.367188 72.039062 82.710938"
         y="0"
         sodipodi:role="line"
         id="tspan6">Express API</tspan></text>
    <path
       id="path8"
       d="M 91,208 H 240.89999"
       style="fill:none;stroke:#000000;stroke-width:1;stroke-linecap:butt;stroke-linejoin:miter;stroke-miterlimit:10;stroke-dasharray:none;stroke-opacity:1"
       transform="matrix(0.95918361,0,0,0.95918361,0.47959181,0.47959181)"
       clip-path="url(#clipPath9)" />
    <path
       id="path10"
       d="m 247.64999,208 -9,4.5 2.25,-4.5 -2.25,-4.5 z"
       style="fill:#000000;fill-opacity:1;fill-rule:nonzero;stroke:#000000;stroke-width:1;stroke-linecap:butt;stroke-linejoin:miter;stroke-miterlimit:10;stroke-dasharray:none;stroke-opacity:1"
       transform="matrix(0.95918361,0,0,0.95918361,0.47959181,0.47959181)"
       clip-path="url(#clipPath11)" />
    <path
       id="path12"
       d="m 131,187 h 70 v 20 h -70 z"
       style="fill:#ffffff;fill-opacity:1;fill-rule:nonzero;stroke:#000000;stroke-width:1;stroke-linecap:butt;stroke-linejoin:miter;stroke-miterlimit:10;stroke-dasharray:none;stroke-opacity:1"
       transform="scale(0.95918361)"
       clip-path="url(#clipPath13)" />
    <text
       id="text13"
       xml:space="preserve"
       transform="matrix(0.95919324,0,0,0.95919324,137.89902,193.75703)"
       clip-path="url(#clipPath14)"><tspan
         style="font-variant:normal;font-weight:normal;font-size:16px;font-family:Helvetica;writing-mode:lr-tb;fill:#000000;fill-opacity:1;fill-rule:nonzero;stroke:none"
         x="0 4.4453125 17.773438 26.671875 35.570312"
         y="0"
         sodipodi:role="line"
         id="tspan13">Image</tspan></text>
    <text
       id="text14"
       xml:space="preserve"
       transform="matrix(0.95919324,0,0,0.95919324,57.251847,41.245309)"
       clip-path="url(#clipPath15)"><tspan
         style="font-variant:normal;font-weight:700;font-size:26px;font-family:Helvetica;writing-mode:lr-tb;fill:#000000;fill-opacity:1;fill-rule:nonzero;stroke:none"
         x="0 17.341797 33.223633 40.447266 56.329102 64.987305 72.210938 88.092773 103.97461 111.19824 125.6582 140.11816 147.3418 156 163.22363 170.44727 186.3291 193.55273 212.3291 231.10547 237.37695 256.15332 264.81152 273.46973 287.92969 302.38965 318.27148 332.73145"
         y="0"
         sodipodi:role="line"
         id="tspan14">Solution #2 - In HD Attached</tspan></text>
    <text
       id="text15"
       xml:space="preserve"
       transform="matrix(0.95919324,0,0,0.95919324,170.3767,71.939493)"
       clip-path="url(#clipPath16)"><tspan
         style="font-variant:normal;font-weight:700;font-size:26px;font-family:Helvetica;writing-mode:lr-tb;fill:#000000;fill-opacity:1;fill-rule:nonzero;stroke:none"
         x="0 8.6582031 24.540039 31.763672 49.105469 63.56543 73.683594 88.143555 102.60352"
         y="0"
         sodipodi:role="line"
         id="tspan15">to Server</tspan></text>
    <text
       id="text16"
       xml:space="preserve"
       transform="matrix(0.95919324,0,0,0.95919324,523.52468,14.387899)"
       clip-path="url(#clipPath17)"><tspan
         style="font-variant:normal;font-weight:700;font-size:16px;font-family:Helvetica;writing-mode:lr-tb;fill:#000000;fill-opacity:1;fill-rule:nonzero;stroke:none"
         x="0 12.445312 22.21875 28.445312 32.890625 44.445312 54.21875 63.117188 68.445312 77.34375 87.117188 91.5625 102.23438 111.13281 117.35938 126.25781 135.15625"
         y="0"
         sodipodi:role="line"
         id="tspan16">Our Hosted Server</tspan></text>
    <path
       id="path18"
       d="m 651.01001,43 h 110 v 130 h -110 z"
       style="fill:#ffffff;fill-opacity:1;fill-rule:nonzero;stroke:#000000;stroke-width:1;stroke-linecap:butt;stroke-linejoin:miter;stroke-miterlimit:10;stroke-dasharray:none;stroke-opacity:1"
       transform="scale(0.95918361)"
       clip-path="url(#clipPath19)" />
    <text
       id="text19"
       xml:space="preserve"
       transform="matrix(0.95919324,0,0,0.95919324,640.51628,108.38884)"
       clip-path="url(#clipPath20)"><tspan
         style="font-variant:normal;font-weight:normal;font-size:16px;font-family:Helvetica;writing-mode:lr-tb;fill:#000000;fill-opacity:1;fill-rule:nonzero;stroke:none"
         x="0 11.554688 20.453125 25.78125 34.679688 39.125 50.679688 56.007812 59.5625 67.5625"
         y="0"
         sodipodi:role="line"
         id="tspan19">Hard Drive</tspan></text>
    <path
       id="path21"
       d="M 451,213 H 781 V 383 H 451 Z"
       style="fill:#dae8fc;fill-opacity:1;fill-rule:nonzero;stroke:#6c8ebf;stroke-width:1;stroke-linecap:butt;stroke-linejoin:miter;stroke-miterlimit:10;stroke-dasharray:none;stroke-opacity:1"
       transform="scale(0.95918361)"
       clip-path="url(#clipPath22)" />
    <path
       id="path23"
       d="M 476,233 H 636 V 363 H 476 Z"
       style="fill:#ffffff;fill-opacity:1;fill-rule:nonzero;stroke:#000000;stroke-width:1;stroke-linecap:butt;stroke-linejoin:miter;stroke-miterlimit:10;stroke-dasharray:none;stroke-opacity:1"
       transform="scale(0.95918361)"
       clip-path="url(#clipPath24)" />
    <text
       id="text24"
       xml:space="preserve"
       transform="matrix(0.95919324,0,0,0.95919324,491.5116,290.63555)"
       clip-path="url(#clipPath25)"><tspan
         style="font-variant:normal;font-weight:normal;font-size:16px;font-family:Helvetica;writing-mode:lr-tb;fill:#000000;fill-opacity:1;fill-rule:nonzero;stroke:none"
         x="0 10.671875 18.671875 27.570312 32.898438 41.796875 49.796875 57.796875 61.367188 72.039062 82.710938"
         y="0"
         sodipodi:role="line"
         id="tspan24">Express API</tspan></text>
    <path
       id="path26"
       d="m 651.01001,233 h 110 v 130 h -110 z"
       style="fill:#ffffff;fill-opacity:1;fill-rule:nonzero;stroke:#000000;stroke-width:1;stroke-linecap:butt;stroke-linejoin:miter;stroke-miterlimit:10;stroke-dasharray:none;stroke-opacity:1"
       transform="scale(0.95918361)"
       clip-path="url(#clipPath27)" />
    <text
       id="text27"
       xml:space="preserve"
       transform="matrix(0.95919324,0,0,0.95919324,640.51628,290.63555)"
       clip-path="url(#clipPath28)"><tspan
         style="font-variant:normal;font-weight:normal;font-size:16px;font-family:Helvetica;writing-mode:lr-tb;fill:#000000;fill-opacity:1;fill-rule:nonzero;stroke:none"
         x="0 11.554688 20.453125 25.78125 34.679688 39.125 50.679688 56.007812 59.5625 67.5625"
         y="0"
         sodipodi:role="line"
         id="tspan27">Hard Drive</tspan></text>
    <path
       id="path29"
       d="m 369,171.5 h 41 V 108 h 30.89999"
       style="fill:none;stroke:#000000;stroke-width:1;stroke-linecap:butt;stroke-linejoin:miter;stroke-miterlimit:10;stroke-dasharray:none;stroke-opacity:1"
       transform="matrix(0.95918361,0,0,0.95918361,0.47959181,0.47959181)"
       clip-path="url(#clipPath30)" />
    <path
       id="path31"
       d="m 447.64999,108 -9,4.5 2.25,-4.5 -2.25,-4.5 z"
       style="fill:#000000;fill-opacity:1;fill-rule:nonzero;stroke:#000000;stroke-width:1;stroke-linecap:butt;stroke-linejoin:miter;stroke-miterlimit:10;stroke-dasharray:none;stroke-opacity:1"
       transform="matrix(0.95918361,0,0,0.95918361,0.47959181,0.47959181)"
       clip-path="url(#clipPath32)" />
    <path
       id="path33"
       d="m 369,236.5 h 41 V 298 h 30.89999"
       style="fill:none;stroke:#000000;stroke-width:1;stroke-linecap:butt;stroke-linejoin:miter;stroke-miterlimit:10;stroke-dasharray:none;stroke-opacity:1"
       transform="matrix(0.95918361,0,0,0.95918361,0.47959181,0.47959181)"
       clip-path="url(#clipPath34)" />
    <path
       id="path35"
       d="m 447.64999,298 -9,4.5 2.25,-4.5 -2.25,-4.5 z"
       style="fill:#000000;fill-opacity:1;fill-rule:nonzero;stroke:#000000;stroke-width:1;stroke-linecap:butt;stroke-linejoin:miter;stroke-miterlimit:10;stroke-dasharray:none;stroke-opacity:1"
       transform="matrix(0.95918361,0,0,0.95918361,0.47959181,0.47959181)"
       clip-path="url(#clipPath36)" />
    <path
       id="path37"
       d="M 251,139 H 369 V 269 H 251 Z"
       style="fill:#ffffff;fill-opacity:1;fill-rule:nonzero;stroke:#000000;stroke-width:1;stroke-linecap:butt;stroke-linejoin:miter;stroke-miterlimit:10;stroke-dasharray:none;stroke-opacity:1"
       transform="scale(0.95918361)"
       clip-path="url(#clipPath38)" />
    <text
       id="text38"
       xml:space="preserve"
       transform="matrix(0.95919324,0,0,0.95919324,247.86153,200.47139)"
       clip-path="url(#clipPath39)"><tspan
         style="font-variant:normal;font-weight:normal;font-size:16px;font-family:Helvetica;writing-mode:lr-tb;fill:#000000;fill-opacity:1;fill-rule:nonzero;stroke:none"
         x="0 8.8984375 17.796875 26.695312 35.59375 40.039062 50.710938 59.609375 63.164062 72.0625 80.960938 88.960938 97.859375"
         y="0"
         sodipodi:role="line"
         id="tspan38">Load Balancer</tspan></text>
    <path
       id="path40"
       d="M 1,323 H 151 V 423 H 1 Z"
       style="fill:#f8cecc;fill-opacity:1;fill-rule:nonzero;stroke:#b85450;stroke-width:1;stroke-linecap:butt;stroke-linejoin:miter;stroke-miterlimit:10;stroke-dasharray:none;stroke-opacity:1"
       transform="scale(0.95918361)"
       clip-path="url(#clipPath41)" />
    <text
       id="text41"
       xml:space="preserve"
       transform="matrix(0.95919324,0,0,0.95919324,50.702355,351.06473)"
       clip-path="url(#clipPath42)"><tspan
         style="font-variant:normal;font-weight:normal;font-size:26px;font-family:Helvetica;writing-mode:lr-tb;fill:#000000;fill-opacity:1;fill-rule:nonzero;stroke:none"
         x="0 17.341797 31.801758"
         y="0"
         sodipodi:role="line"
         id="tspan41">Bad</tspan></text>
    <text
       id="text42"
       xml:space="preserve"
       transform="matrix(0.95919324,0,0,0.95919324,19.513587,381.75891)"
       clip-path="url(#clipPath43)"><tspan
         style="font-variant:normal;font-weight:normal;font-size:26px;font-family:Helvetica;writing-mode:lr-tb;fill:#000000;fill-opacity:1;fill-rule:nonzero;stroke:none"
         x="0 17.341797 31.801758 46.261719 54.919922 69.379883 83.839844 96.839844"
         y="0"
         sodipodi:role="line"
         id="tspan42">Approach</tspan></text>
    <path
       id="path44"
       d="M 151,323 H 361 V 423 H 151 Z"
       style="fill:#f8cecc;fill-opacity:1;fill-rule:nonzero;stroke:#b85450;stroke-width:1;stroke-linecap:butt;stroke-linejoin:miter;stroke-miterlimit:10;stroke-dasharray:none;stroke-opacity:1"
       transform="scale(0.95918361)"
       clip-path="url(#clipPath45)" />
    <text
       id="text45"
       xml:space="preserve"
       transform="matrix(0.95919324,0,0,0.95919324,170.30177,352.98311)"
       clip-path="url(#clipPath46)"><tspan
         style="font-variant:normal;font-weight:normal;font-size:16px;font-family:Helvetica;writing-mode:lr-tb;fill:#000000;fill-opacity:1;fill-rule:nonzero;stroke:none"
         x="0 11.554688 20.453125 29.351562 37.351562 46.25 49.304688 53.75 58.195312 69.75 78.648438 83.976562 91.976562 96.421875 107.97656 116.875 120.42969 123.98438 128.42969 139.98438 143.53906 147.98438"
         y="0"
         sodipodi:role="line"
         id="tspan45">Doesn't work well with</tspan></text>
    <text
       id="text46"
       xml:space="preserve"
       transform="matrix(0.95919324,0,0,0.95919324,186.26334,372.16698)"
       clip-path="url(#clipPath47)"><tspan
         style="font-variant:normal;font-weight:normal;font-size:16px;font-family:Helvetica;writing-mode:lr-tb;fill:#000000;fill-opacity:1;fill-rule:nonzero;stroke:none"
         x="0 8.8984375 17.796875 23.125 26.679688 34.679688 43.578125 52.476562 56.921875 65.820312 69.375 73.820312 81.820312 89.820312 98.71875 102.27344 105.82812 114.72656"
         y="0"
         sodipodi:role="line"
         id="tspan46">horizontal scaling</tspan></text>
  </g>
</svg>
