<?xml version="1.0" encoding="UTF-8" standalone="no"?>
<!-- Created with Inkscape (http://www.inkscape.org/) -->

<svg
   version="1.1"
   id="svg1"
   width="474.55997"
   height="385.28"
   viewBox="0 0 474.55997 385.28"
   sodipodi:docname="node-20.pdf"
   xmlns:inkscape="http://www.inkscape.org/namespaces/inkscape"
   xmlns:sodipodi="http://sodipodi.sourceforge.net/DTD/sodipodi-0.dtd"
   xmlns="http://www.w3.org/2000/svg"
   xmlns:svg="http://www.w3.org/2000/svg">
  <defs
     id="defs1">
    <clipPath
       clipPathUnits="userSpaceOnUse"
       id="clipPath2">
      <path
         d="M 0,0 H 1483.3333 V 1201.6498 H 0 Z"
         transform="scale(0.33370789)"
         clip-rule="evenodd"
         id="path2" />
    </clipPath>
    <clipPath
       clipPathUnits="userSpaceOnUse"
       id="clipPath4">
      <path
         d="M 0,0 H 1483.3333 V 1201.6498 H 0 Z"
         transform="scale(0.33370789)"
         clip-rule="evenodd"
         id="path4" />
    </clipPath>
    <clipPath
       clipPathUnits="userSpaceOnUse"
       id="clipPath5">
      <path
         d="M 0,0 H 1483.3333 V 1201.6498 H 0 Z"
         transform="matrix(0.33370453,0,0,0.33370453,-85.390624,-214)"
         clip-rule="evenodd"
         id="path5" />
    </clipPath>
    <clipPath
       clipPathUnits="userSpaceOnUse"
       id="clipPath6">
      <path
         d="M 0,0 H 1483.3333 V 1201.6498 H 0 Z"
         transform="matrix(0.33370453,0,0,0.33370453,-238.0625,-238)"
         clip-rule="evenodd"
         id="path6" />
    </clipPath>
    <clipPath
       clipPathUnits="userSpaceOnUse"
       id="clipPath7">
      <path
         d="M 0,0 H 1483.3333 V 1201.6498 H 0 Z"
         transform="matrix(0.33370453,0,0,0.33370453,-0.14062499,-26)"
         clip-rule="evenodd"
         id="path7" />
    </clipPath>
    <clipPath
       clipPathUnits="userSpaceOnUse"
       id="clipPath9">
      <path
         d="M 0,0 H 1483.3333 V 1201.6498 H 0 Z"
         transform="matrix(0.33370789,0,0,0.33370789,-0.5,-0.5)"
         clip-rule="evenodd"
         id="path9" />
    </clipPath>
    <clipPath
       clipPathUnits="userSpaceOnUse"
       id="clipPath11">
      <path
         d="M 0,0 H 1483.3333 V 1201.6498 H 0 Z"
         transform="matrix(0.33370789,0,0,0.33370789,-0.5,-0.5)"
         clip-rule="evenodd"
         id="path11" />
    </clipPath>
    <clipPath
       clipPathUnits="userSpaceOnUse"
       id="clipPath13">
      <path
         d="M 0,0 H 1483.3333 V 1201.6498 H 0 Z"
         transform="scale(0.33370789)"
         clip-rule="evenodd"
         id="path13" />
    </clipPath>
    <clipPath
       clipPathUnits="userSpaceOnUse"
       id="clipPath14">
      <path
         d="M 0,0 H 1483.3333 V 1201.6498 H 0 Z"
         transform="matrix(0.33370453,0,0,0.33370453,-104.10937,-296)"
         clip-rule="evenodd"
         id="path14" />
    </clipPath>
    <clipPath
       clipPathUnits="userSpaceOnUse"
       id="clipPath16">
      <path
         d="M 0,0 H 1483.3333 V 1201.6498 H 0 Z"
         transform="scale(0.33370789)"
         clip-rule="evenodd"
         id="path16" />
    </clipPath>
    <clipPath
       clipPathUnits="userSpaceOnUse"
       id="clipPath17">
      <path
         d="M 0,0 H 1483.3333 V 1201.6498 H 0 Z"
         transform="matrix(0.33370453,0,0,0.33370453,-89.640625,-354)"
         clip-rule="evenodd"
         id="path17" />
    </clipPath>
    <clipPath
       clipPathUnits="userSpaceOnUse"
       id="clipPath18">
      <path
         d="M 0,0 H 1483.3333 V 1201.6498 H 0 Z"
         transform="matrix(0.33370453,0,0,0.33370453,-170.25,-378)"
         clip-rule="evenodd"
         id="path18" />
    </clipPath>
    <clipPath
       clipPathUnits="userSpaceOnUse"
       id="clipPath20">
      <path
         d="M 0,0 H 1483.3333 V 1201.6498 H 0 Z"
         transform="scale(0.33370789)"
         clip-rule="evenodd"
         id="path20" />
    </clipPath>
    <clipPath
       clipPathUnits="userSpaceOnUse"
       id="clipPath21">
      <path
         d="M 0,0 H 1483.3333 V 1201.6498 H 0 Z"
         transform="matrix(0.33370453,0,0,0.33370453,-86.5,-34)"
         clip-rule="evenodd"
         id="path21" />
    </clipPath>
    <clipPath
       clipPathUnits="userSpaceOnUse"
       id="clipPath22">
      <path
         d="M 0,0 H 1483.3333 V 1201.6498 H 0 Z"
         transform="matrix(0.33370453,0,0,0.33370453,-211.95313,-58)"
         clip-rule="evenodd"
         id="path22" />
    </clipPath>
    <clipPath
       clipPathUnits="userSpaceOnUse"
       id="clipPath24">
      <path
         d="M 0,0 H 1483.3333 V 1201.6498 H 0 Z"
         transform="matrix(0.33370789,0,0,0.33370789,-0.5,-0.5)"
         clip-rule="evenodd"
         id="path24" />
    </clipPath>
    <clipPath
       clipPathUnits="userSpaceOnUse"
       id="clipPath26">
      <path
         d="M 0,0 H 1483.3333 V 1201.6498 H 0 Z"
         transform="matrix(0.33370789,0,0,0.33370789,-0.5,-0.5)"
         clip-rule="evenodd"
         id="path26" />
    </clipPath>
    <clipPath
       clipPathUnits="userSpaceOnUse"
       id="clipPath28">
      <path
         d="M 0,0 H 1483.3333 V 1201.6498 H 0 Z"
         transform="scale(0.33370789)"
         clip-rule="evenodd"
         id="path28" />
    </clipPath>
    <clipPath
       clipPathUnits="userSpaceOnUse"
       id="clipPath29">
      <path
         d="M 0,0 H 1483.3333 V 1201.6498 H 0 Z"
         transform="matrix(0.33370453,0,0,0.33370453,-96.125,-104)"
         clip-rule="evenodd"
         id="path29" />
    </clipPath>
    <clipPath
       clipPathUnits="userSpaceOnUse"
       id="clipPath30">
      <path
         d="M 0,0 H 1483.3333 V 1201.6498 H 0 Z"
         transform="matrix(0.33370453,0,0,0.33370453,-249.57813,-128)"
         clip-rule="evenodd"
         id="path30" />
    </clipPath>
  </defs>
  <sodipodi:namedview
     id="namedview1"
     pagecolor="#ffffff"
     bordercolor="#000000"
     borderopacity="0.25"
     inkscape:showpageshadow="2"
     inkscape:pageopacity="0.0"
     inkscape:pagecheckerboard="0"
     inkscape:deskcolor="#d1d1d1">
    <inkscape:page
       x="0"
       y="0"
       inkscape:label="1"
       id="page1"
       width="474.55997"
       height="385.28"
       margin="0"
       bleed="0" />
  </sodipodi:namedview>
  <g
     id="g1"
     inkscape:groupmode="layer"
     inkscape:label="1">
    <path
       id="path1"
       d="M 0,0 H 495 V 401 H 0 Z"
       style="fill:#ffffff;fill-opacity:1;fill-rule:nonzero;stroke:none"
       transform="scale(0.95892246)"
       clip-path="url(#clipPath2)" />
    <path
       id="path3"
       d="m 82,189 h 410 v 60 H 82 Z"
       style="fill:#ffffff;fill-opacity:1;fill-rule:nonzero;stroke:#000000;stroke-width:1;stroke-linecap:butt;stroke-linejoin:miter;stroke-miterlimit:10;stroke-dasharray:none;stroke-opacity:1"
       transform="scale(0.95892246)"
       clip-path="url(#clipPath4)" />
    <text
       id="text4"
       xml:space="preserve"
       transform="matrix(0.95893209,0,0,0.95893209,81.88381,205.21147)"
       clip-path="url(#clipPath5)"><tspan
         style="font-variant:normal;font-weight:normal;font-size:20px;font-family:Helvetica;writing-mode:lr-tb;fill:#000000;fill-opacity:1;fill-rule:nonzero;stroke:none"
         x="0 5.5566406 15.556641 25.556641 36.679688 47.802734 53.359375 66.699219 82.255859 95.595703 107.46094 113.01758 119.67773 130.80078 141.92383 153.04688 164.16992 174.16992 179.72656 185.2832 190.83984 201.96289 207.51953 218.64258 229.76562 239.76562 249.76562 260.88867 272.01172 283.13477 287.59766 300.9375 314.27734 319.83398 325.39062 330.94727 342.07031 347.62695 357.62695 364.28711 375.41016 386.5332 392.08984"
         y="0"
         sodipodi:role="line"
         id="tspan4">Issue POST request to backend API to create</tspan></text>
    <text
       id="text5"
       xml:space="preserve"
       transform="matrix(0.95893209,0,0,0.95893209,228.28577,228.22584)"
       clip-path="url(#clipPath6)"><tspan
         style="font-variant:normal;font-weight:normal;font-size:20px;font-family:Helvetica;writing-mode:lr-tb;fill:#000000;fill-opacity:1;fill-rule:nonzero;stroke:none"
         x="0 11.123047 16.679688 27.802734 32.246094 43.369141 54.492188 60.048828 71.171875 82.294922 92.294922"
         y="0"
         sodipodi:role="line"
         id="tspan5">a blog post</tspan></text>
    <text
       id="text6"
       xml:space="preserve"
       transform="matrix(0.95893209,0,0,0.95893209,0.13484982,24.932234)"
       clip-path="url(#clipPath7)"><tspan
         style="font-variant:normal;font-weight:normal;font-size:20px;font-family:Helvetica;writing-mode:lr-tb;fill:#000000;fill-opacity:1;fill-rule:nonzero;stroke:none"
         x="0 11.484375 15.927734 32.587891"
         y="0"
         sodipodi:role="line"
         id="tspan6">Time</tspan></text>
    <path
       id="path8"
       d="M 62,9 V 378.89999"
       style="fill:none;stroke:#000000;stroke-width:1;stroke-linecap:butt;stroke-linejoin:miter;stroke-miterlimit:10;stroke-dasharray:none;stroke-opacity:1"
       transform="matrix(0.95892246,0,0,0.95892246,0.47946123,0.47946123)"
       clip-path="url(#clipPath9)" />
    <path
       id="path10"
       d="m 62,385.64999 -4.5,-9 4.5,2.25 4.5,-2.25 z"
       style="fill:#000000;fill-opacity:1;fill-rule:nonzero;stroke:#000000;stroke-width:1;stroke-linecap:butt;stroke-linejoin:miter;stroke-miterlimit:10;stroke-dasharray:none;stroke-opacity:1"
       transform="matrix(0.95892246,0,0,0.95892246,0.47946123,0.47946123)"
       clip-path="url(#clipPath11)" />
    <path
       id="path12"
       d="m 82,259 h 410 v 60 H 82 Z"
       style="fill:#ffffff;fill-opacity:1;fill-rule:nonzero;stroke:#000000;stroke-width:1;stroke-linecap:butt;stroke-linejoin:miter;stroke-miterlimit:10;stroke-dasharray:none;stroke-opacity:1"
       transform="scale(0.95892246)"
       clip-path="url(#clipPath13)" />
    <text
       id="text13"
       xml:space="preserve"
       transform="matrix(0.95893209,0,0,0.95893209,99.83382,283.8439)"
       clip-path="url(#clipPath14)"><tspan
         style="font-variant:normal;font-weight:normal;font-size:20px;font-family:Helvetica;writing-mode:lr-tb;fill:#000000;fill-opacity:1;fill-rule:nonzero;stroke:none"
         x="0 14.443359 25.566406 35.566406 40.009766 51.132812 62.255859 67.8125 78.935547 84.492188 90.048828 101.17188 112.29492 117.85156 128.97461 138.97461 150.09766 156.75781 162.31445 173.4375 184.56055 194.56055 204.56055 210.11719 215.67383 226.79688 232.35352 237.91016 249.0332 260.15625 265.71289 270.15625 274.59961 284.59961 290.15625 295.71289 306.83594 312.39258 317.94922 329.07227 333.51562 344.63867 355.76172"
         y="0"
         sodipodi:role="line"
         id="tspan13">Navigate the user back to the list of blogs</tspan></text>
    <path
       id="path15"
       d="m 82,329 h 410 v 60 H 82 Z"
       style="fill:#ffffff;fill-opacity:1;fill-rule:nonzero;stroke:#000000;stroke-width:1;stroke-linecap:butt;stroke-linejoin:miter;stroke-miterlimit:10;stroke-dasharray:none;stroke-opacity:1"
       transform="scale(0.95892246)"
       clip-path="url(#clipPath16)" />
    <text
       id="text16"
       xml:space="preserve"
       transform="matrix(0.95893209,0,0,0.95893209,85.959272,339.46196)"
       clip-path="url(#clipPath17)"><tspan
         style="font-variant:normal;font-weight:normal;font-size:20px;font-family:Helvetica;writing-mode:lr-tb;fill:#000000;fill-opacity:1;fill-rule:nonzero;stroke:none"
         x="0 10 21.123047 25.566406 30.009766 35.566406 41.123047 52.246094 63.369141 68.925781 83.369141 94.492188 105.61523 116.73828 126.73828 132.29492 142.29492 146.73828 157.86133 168.98438 174.54102 185.66406 191.2207 196.77734 202.33398 213.45703 224.58008 230.13672 241.25977 252.38281 263.50586 269.0625 280.18555 291.30859 302.43164 313.55469 319.11133 324.66797 330.22461 341.34766 352.4707 358.02734 369.15039 380.27344"
         y="0"
         sodipodi:role="line"
         id="tspan16">Tell the Redux side of the app about the new</tspan></text>
    <text
       id="text17"
       xml:space="preserve"
       transform="matrix(0.95893209,0,0,0.95893209,163.25819,362.47633)"
       clip-path="url(#clipPath18)"><tspan
         style="font-variant:normal;font-weight:normal;font-size:20px;font-family:Helvetica;writing-mode:lr-tb;fill:#000000;fill-opacity:1;fill-rule:nonzero;stroke:none"
         x="0 11.123047 15.566406 26.689453 37.8125 43.369141 54.492188 65.615234 75.615234 81.171875 86.728516 92.285156 103.4082 114.53125 120.08789 125.64453 140.08789 151.21094 161.21094 166.76758 176.76758 183.42773 194.55078 205.67383 211.23047 222.35352"
         y="0"
         sodipodi:role="line"
         id="tspan17">blog post that was created</tspan></text>
    <path
       id="path19"
       d="M 82,9 H 492 V 69 H 82 Z"
       style="fill:#d5e8d4;fill-opacity:1;fill-rule:nonzero;stroke:#82b366;stroke-width:1;stroke-linecap:butt;stroke-linejoin:miter;stroke-miterlimit:10;stroke-dasharray:none;stroke-opacity:1"
       transform="scale(0.95892246)"
       clip-path="url(#clipPath20)" />
    <text
       id="text20"
       xml:space="preserve"
       transform="matrix(0.95893209,0,0,0.95893209,82.947626,32.603691)"
       clip-path="url(#clipPath21)"><tspan
         style="font-variant:normal;font-weight:normal;font-size:20px;font-family:Helvetica;writing-mode:lr-tb;fill:#000000;fill-opacity:1;fill-rule:nonzero;stroke:none"
         x="0 5.5566406 15.556641 25.556641 36.679688 47.802734 53.359375 68.916016 82.255859 94.121094 99.677734 106.33789 117.46094 128.58398 139.70703 150.83008 160.83008 166.38672 171.94336 177.5 188.62305 194.17969 205.30273 216.42578 226.42578 236.42578 247.54883 258.67188 269.79492 274.25781 287.59766 300.9375 306.49414 312.05078 317.60742 328.73047 334.28711 340.94727 352.07031 363.19336 374.31641 385.43945 395.43945"
         y="0"
         sodipodi:role="line"
         id="tspan20">Issue GET request to backend API to request</tspan></text>
    <text
       id="text21"
       xml:space="preserve"
       transform="matrix(0.95893209,0,0,0.95893209,203.24866,55.618061)"
       clip-path="url(#clipPath22)"><tspan
         style="font-variant:normal;font-weight:normal;font-size:20px;font-family:Helvetica;writing-mode:lr-tb;fill:#000000;fill-opacity:1;fill-rule:nonzero;stroke:none"
         x="0 11.123047 16.679688 27.802734 34.462891 45.585938 55.585938 60.029297 71.152344 82.275391 93.398438 104.52148 110.07812 124.52148 138.96484"
         y="0"
         sodipodi:role="line"
         id="tspan21">a presigned URL</tspan></text>
    <path
       id="path23"
       d="m 287,139 v 39.89999"
       style="fill:none;stroke:#000000;stroke-width:1;stroke-linecap:butt;stroke-linejoin:miter;stroke-miterlimit:10;stroke-dasharray:none;stroke-opacity:1"
       transform="matrix(0.95892246,0,0,0.95892246,0.47946123,0.47946123)"
       clip-path="url(#clipPath24)" />
    <path
       id="path25"
       d="m 287,185.64999 -4.5,-9 4.5,2.25 4.5,-2.25 z"
       style="fill:#000000;fill-opacity:1;fill-rule:nonzero;stroke:#000000;stroke-width:1;stroke-linecap:butt;stroke-linejoin:miter;stroke-miterlimit:10;stroke-dasharray:none;stroke-opacity:1"
       transform="matrix(0.95892246,0,0,0.95892246,0.47946123,0.47946123)"
       clip-path="url(#clipPath26)" />
    <path
       id="path27"
       d="m 82,79 h 410 v 60 H 82 Z"
       style="fill:#d5e8d4;fill-opacity:1;fill-rule:nonzero;stroke:#82b366;stroke-width:1;stroke-linecap:butt;stroke-linejoin:miter;stroke-miterlimit:10;stroke-dasharray:none;stroke-opacity:1"
       transform="scale(0.95892246)"
       clip-path="url(#clipPath28)" />
    <g
       id="g28" />
    <text
       id="text28"
       xml:space="preserve"
       transform="matrix(0.95893209,0,0,0.95893209,92.177347,99.728937)"
       clip-path="url(#clipPath29)"><tspan
         style="font-variant:normal;font-weight:normal;font-size:20px;font-family:Helvetica;writing-mode:lr-tb;fill:#000000;fill-opacity:1;fill-rule:nonzero;stroke:none"
         x="0 14.443359 24.443359 35.566406 41.123047 46.679688 57.802734 68.925781 74.482422 85.605469 92.265625 103.38867 113.38867 117.83203 128.95508 140.07812 151.20117 162.32422 167.88086 182.32422 196.76758 207.1582 212.71484 218.27148 229.39453 234.95117 246.07422 257.19727 261.64062 272.76367 283.88672 295.00977 300.56641 306.12305 317.24609 328.36914 333.92578 343.92578 348.36914 359.49219 365.04883 370.60547"
         y="0"
         sodipodi:role="line"
         id="tspan28">Use the presigned URL to upload the ﬁle to</tspan></text>
    <text
       id="text29"
       xml:space="preserve"
       transform="matrix(0.95893209,0,0,0.95893209,239.32848,122.74331)"
       clip-path="url(#clipPath30)"><tspan
         style="font-variant:normal;font-weight:normal;font-size:20px;font-family:Helvetica;writing-mode:lr-tb;fill:#000000;fill-opacity:1;fill-rule:nonzero;stroke:none"
         x="0 12.607422 31.484375 44.824219 50.380859 63.720703"
         y="0"
         sodipodi:role="line"
         id="tspan29">AWS S3</tspan></text>
  </g>
</svg>
