<?xml version="1.0" encoding="UTF-8" standalone="no"?>
<!-- Created with Inkscape (http://www.inkscape.org/) -->

<svg
   version="1.1"
   id="svg1"
   width="944"
   height="158.72"
   viewBox="0 0 944 158.72"
   sodipodi:docname="node-15.pdf"
   xmlns:inkscape="http://www.inkscape.org/namespaces/inkscape"
   xmlns:sodipodi="http://sodipodi.sourceforge.net/DTD/sodipodi-0.dtd"
   xmlns="http://www.w3.org/2000/svg"
   xmlns:svg="http://www.w3.org/2000/svg">
  <defs
     id="defs1">
    <clipPath
       clipPathUnits="userSpaceOnUse"
       id="clipPath2">
      <path
         d="M 0,0 H 2950 V 494.66464 H 0 Z"
         transform="scale(0.33355932)"
         clip-rule="evenodd"
         id="path2" />
    </clipPath>
    <clipPath
       clipPathUnits="userSpaceOnUse"
       id="clipPath4">
      <path
         d="M 0,0 H 2950 V 491.66666 H 0 Z"
         transform="scale(0.33355932)"
         clip-rule="evenodd"
         id="path4" />
    </clipPath>
    <clipPath
       clipPathUnits="userSpaceOnUse"
       id="clipPath5">
      <path
         d="M 0,0 H 2950 V 491.66666 H 0 Z"
         transform="matrix(0.33355598,0,0,0.33355598,-14.703125,-62)"
         clip-rule="evenodd"
         id="path5" />
    </clipPath>
    <clipPath
       clipPathUnits="userSpaceOnUse"
       id="clipPath6">
      <path
         d="M 0,0 H 2950 V 491.66666 H 0 Z"
         transform="matrix(0.33355598,0,0,0.33355598,-47.09375,-85)"
         clip-rule="evenodd"
         id="path6" />
    </clipPath>
    <clipPath
       clipPathUnits="userSpaceOnUse"
       id="clipPath7">
      <path
         d="M 0,0 H 2950 V 491.66666 H 0 Z"
         transform="matrix(0.33355598,0,0,0.33355598,-137.82812,-158)"
         clip-rule="evenodd"
         id="path7" />
    </clipPath>
    <clipPath
       clipPathUnits="userSpaceOnUse"
       id="clipPath8">
      <path
         d="M 0,0 H 2950 V 491.66666 H 0 Z"
         transform="matrix(0.33355598,0,0,0.33355598,-645.4375,-73)"
         clip-rule="evenodd"
         id="path8" />
    </clipPath>
    <clipPath
       clipPathUnits="userSpaceOnUse"
       id="clipPath10">
      <path
         d="M 0,0 H 2950 V 491.66666 H 0 Z"
         transform="scale(0.33355932)"
         clip-rule="evenodd"
         id="path10" />
    </clipPath>
    <clipPath
       clipPathUnits="userSpaceOnUse"
       id="clipPath11">
      <path
         d="M 0,0 H 2950 V 491.66666 H 0 Z"
         transform="matrix(0.33355598,0,0,0.33355598,-453.07813,-73)"
         clip-rule="evenodd"
         id="path11" />
    </clipPath>
    <clipPath
       clipPathUnits="userSpaceOnUse"
       id="clipPath12">
      <path
         d="M 0,0 H 2950 V 491.66666 H 0 Z"
         transform="matrix(0.33355598,0,0,0.33355598,-425.4375,-73)"
         clip-rule="evenodd"
         id="path12" />
    </clipPath>
    <clipPath
       clipPathUnits="userSpaceOnUse"
       id="clipPath14">
      <path
         d="M 0,0 H 2950 V 491.66666 H 0 Z"
         transform="scale(0.33355932)"
         clip-rule="evenodd"
         id="path14" />
    </clipPath>
    <clipPath
       clipPathUnits="userSpaceOnUse"
       id="clipPath15">
      <path
         d="M 0,0 H 2950 V 491.66666 H 0 Z"
         transform="matrix(0.33355598,0,0,0.33355598,-687.35938,-73)"
         clip-rule="evenodd"
         id="path15" />
    </clipPath>
    <clipPath
       clipPathUnits="userSpaceOnUse"
       id="clipPath16">
      <path
         d="M 0,0 H 2950 V 491.66666 H 0 Z"
         transform="matrix(0.33355598,0,0,0.33355598,-754.39063,-158)"
         clip-rule="evenodd"
         id="path16" />
    </clipPath>
  </defs>
  <sodipodi:namedview
     id="namedview1"
     pagecolor="#ffffff"
     bordercolor="#000000"
     borderopacity="0.25"
     inkscape:showpageshadow="2"
     inkscape:pageopacity="0.0"
     inkscape:pagecheckerboard="0"
     inkscape:deskcolor="#d1d1d1">
    <inkscape:page
       x="0"
       y="0"
       inkscape:label="1"
       id="page1"
       width="944"
       height="158.72"
       margin="0"
       bleed="0" />
  </sodipodi:namedview>
  <g
     id="g1"
     inkscape:groupmode="layer"
     inkscape:label="1">
    <path
       id="path1"
       d="M 0,0 H 984 V 165 H 0 Z"
       style="fill:#ffffff;fill-opacity:1;fill-rule:nonzero;stroke:none"
       transform="scale(0.95934956)"
       clip-path="url(#clipPath2)" />
    <path
       id="path3"
       d="M 1,1 H 411 V 131 H 1 Z"
       style="fill:#ffffff;fill-opacity:1;fill-rule:nonzero;stroke:#000000;stroke-width:1;stroke-linecap:butt;stroke-linejoin:miter;stroke-miterlimit:10;stroke-dasharray:none;stroke-opacity:1"
       transform="scale(0.95934956)"
       clip-path="url(#clipPath4)" />
    <text
       id="text4"
       xml:space="preserve"
       transform="matrix(0.95935916,0,0,0.95935916,14.105578,59.480268)"
       clip-path="url(#clipPath5)"><tspan
         style="font-variant:normal;font-weight:normal;font-size:19px;font-family:Helvetica;writing-mode:lr-tb;fill:#000000;fill-opacity:1;fill-rule:nonzero;stroke:none"
         x="0 10.566895 20.066895 29.566895 43.288086 55.960938 68.633789 82.35498 91.85498 101.35498 116.13379 126.70068 136.20068 146.76758 160.48877 165.76758 176.33447 186.90137 196.40137 205.90137 216.46826 225.96826 236.53516 248.51221 258.01221 263.29102 267.51221 278.0791 282.30029 296.02148 313.95459 326.62744 337.19434 350.91553 368.84863"
         y="0"
         sodipodi:role="line"
         id="tspan4">eyJwYXNzcG9ydCI6eyJ1c2VyIjoiNWE4NWR</tspan></text>
    <text
       id="text5"
       xml:space="preserve"
       transform="matrix(0.95935916,0,0,0.95935916,45.17982,81.545529)"
       clip-path="url(#clipPath6)"><tspan
         style="font-variant:normal;font-weight:normal;font-size:19px;font-family:Helvetica;writing-mode:lr-tb;fill:#000000;fill-opacity:1;fill-rule:nonzero;stroke:none"
         x="0 4.2211914 20.04834 29.54834 43.269531 52.769531 65.442383 76.009277 90.788086 101.35498 115.07617 128.79736 144.62451 154.12451 167.8457 172.06689 187.89404 198.46094 214.28809 218.50928 229.07617 244.90332 258.62451 262.8457 276.56689 280.78809 286.06689 296.63379 307.20068"
         y="0"
         sodipodi:role="line"
         id="tspan5">jMzUxY2Q4NDMxNjM3MjdmNjNjIn19</tspan></text>
    <text
       id="text6"
       xml:space="preserve"
       transform="matrix(0.95935916,0,0,0.95935916,132.22667,151.57875)"
       clip-path="url(#clipPath7)"><tspan
         style="font-style:oblique;font-variant:normal;font-weight:normal;font-size:19px;font-family:Helvetica;writing-mode:lr-tb;fill:#000000;fill-opacity:1;fill-rule:nonzero;stroke:none"
         x="0 12.672852 23.239746 32.739746 43.306641 53.873535 64.44043 69.719238 82.39209 92.958984 102.45898 111.95898 116.18018 126.74707"
         y="0"
         sodipodi:role="line"
         id="tspan6">Base64 Session</tspan></text>
    <text
       id="text7"
       xml:space="preserve"
       transform="matrix(0.95935916,0,0,0.95935916,619.20638,70.033219)"
       clip-path="url(#clipPath8)"><tspan
         style="font-variant:normal;font-weight:700;font-size:19px;font-family:Helvetica;writing-mode:lr-tb;fill:#000000;fill-opacity:1;fill-rule:nonzero;stroke:none"
         x="0"
         y="0"
         id="tspan7">+</tspan></text>
    <path
       id="path9"
       d="M 451,1 H 621 V 131 H 451 Z"
       style="fill:#ffffff;fill-opacity:1;fill-rule:nonzero;stroke:#000000;stroke-width:1;stroke-linecap:butt;stroke-linejoin:miter;stroke-miterlimit:10;stroke-dasharray:none;stroke-opacity:1"
       transform="scale(0.95934956)"
       clip-path="url(#clipPath10)" />
    <text
       id="text10"
       xml:space="preserve"
       transform="matrix(0.95935916,0,0,0.95935916,434.66465,70.033219)"
       clip-path="url(#clipPath11)"><tspan
         style="font-variant:normal;font-weight:normal;font-size:19px;font-family:Helvetica;writing-mode:lr-tb;fill:#000000;fill-opacity:1;fill-rule:nonzero;stroke:none"
         x="0 13.721191 24.288086 34.85498 44.35498 48.576172 59.143066 64.421875 77.094727 81.315918 91.882812 102.44971 106.6709 117.23779 127.80469 133.0835 145.75635 156.32324"
         y="0"
         sodipodi:role="line"
         id="tspan10">Cookie Signing Key</tspan></text>
    <text
       id="text11"
       xml:space="preserve"
       transform="matrix(0.95935916,0,0,0.95935916,408.14736,70.033219)"
       clip-path="url(#clipPath12)"><tspan
         style="font-variant:normal;font-weight:700;font-size:19px;font-family:Helvetica;writing-mode:lr-tb;fill:#000000;fill-opacity:1;fill-rule:nonzero;stroke:none"
         x="0"
         y="0"
         id="tspan11">=</tspan></text>
    <path
       id="path13"
       d="m 681.01001,1 h 300 v 130 h -300 z"
       style="fill:#ffffff;fill-opacity:1;fill-rule:nonzero;stroke:#000000;stroke-width:1;stroke-linecap:butt;stroke-linejoin:miter;stroke-miterlimit:10;stroke-dasharray:none;stroke-opacity:1"
       transform="scale(0.95934956)"
       clip-path="url(#clipPath14)" />
    <text
       id="text14"
       xml:space="preserve"
       transform="matrix(0.95935916,0,0,0.95935916,659.42452,70.033219)"
       clip-path="url(#clipPath15)"><tspan
         style="font-variant:normal;font-weight:normal;font-size:19px;font-family:Helvetica;writing-mode:lr-tb;fill:#000000;fill-opacity:1;fill-rule:nonzero;stroke:none"
         x="0 12.672852 23.239746 33.806641 47.527832 58.094727 69.700684 83.421875 88.700684 101.37354 116.15234 125.65234 136.21924 146.78613 157.35303 171.07422 176.35303 186.91992 196.41992 206.98682 219.65967 224.93848 235.50537 250.28418 260.85107 271.41797 281.98486"
         y="0"
         sodipodi:role="line"
         id="tspan14">B31N3ZCfXGJhgTwtgsLEf7Q_4LI</tspan></text>
    <text
       id="text15"
       xml:space="preserve"
       transform="matrix(0.95935916,0,0,0.95935916,723.73156,151.57875)"
       clip-path="url(#clipPath16)"><tspan
         style="font-style:oblique;font-variant:normal;font-weight:normal;font-size:19px;font-family:Helvetica;writing-mode:lr-tb;fill:#000000;fill-opacity:1;fill-rule:nonzero;stroke:none"
         x="0 12.672852 23.239746 32.739746 42.239746 46.460938 57.027832 67.594727 72.873535 85.546387 89.767578 100.33447 110.90137 121.46826 126.74707 137.31396 143.64111"
         y="0"
         sodipodi:role="line"
         id="tspan15">Session Signature</tspan></text>
  </g>
</svg>
