<?xml version="1.0" encoding="UTF-8" standalone="no"?>
<!-- Created with Inkscape (http://www.inkscape.org/) -->

<svg
   version="1.1"
   id="svg1"
   width="619.83997"
   height="158.72"
   viewBox="0 0 619.83997 158.72"
   sodipodi:docname="node-14.pdf"
   xmlns:inkscape="http://www.inkscape.org/namespaces/inkscape"
   xmlns:sodipodi="http://sodipodi.sourceforge.net/DTD/sodipodi-0.dtd"
   xmlns="http://www.w3.org/2000/svg"
   xmlns:svg="http://www.w3.org/2000/svg">
  <defs
     id="defs1">
    <clipPath
       clipPathUnits="userSpaceOnUse"
       id="clipPath2">
      <path
         d="M 0,0 H 1937.4999 V 494.87225 H 0 Z"
         transform="scale(0.33341937)"
         clip-rule="evenodd"
         id="path2" />
    </clipPath>
    <clipPath
       clipPathUnits="userSpaceOnUse"
       id="clipPath4">
      <path
         d="M 0,0 H 1937.4999 V 491.87305 H 0 Z"
         transform="scale(0.33341937)"
         clip-rule="evenodd"
         id="path4" />
    </clipPath>
    <clipPath
       clipPathUnits="userSpaceOnUse"
       id="clipPath5">
      <path
         d="M 0,0 H 1937.4999 V 491.87305 H 0 Z"
         transform="matrix(0.33341603,0,0,0.33341603,-506,-28)"
         clip-rule="evenodd"
         id="path5" />
    </clipPath>
    <clipPath
       clipPathUnits="userSpaceOnUse"
       id="clipPath6">
      <path
         d="M 0,0 H 1937.4999 V 491.87305 H 0 Z"
         transform="matrix(0.33341603,0,0,0.33341603,-506,-49.999999)"
         clip-rule="evenodd"
         id="path6" />
    </clipPath>
    <clipPath
       clipPathUnits="userSpaceOnUse"
       id="clipPath7">
      <path
         d="M 0,0 H 1937.4999 V 491.87305 H 0 Z"
         transform="matrix(0.33341603,0,0,0.33341603,-506,-73)"
         clip-rule="evenodd"
         id="path7" />
    </clipPath>
    <clipPath
       clipPathUnits="userSpaceOnUse"
       id="clipPath8">
      <path
         d="M 0,0 H 1937.4999 V 491.87305 H 0 Z"
         transform="matrix(0.33341603,0,0,0.33341603,-506,-95.999999)"
         clip-rule="evenodd"
         id="path8" />
    </clipPath>
    <clipPath
       clipPathUnits="userSpaceOnUse"
       id="clipPath9">
      <path
         d="M 0,0 H 1937.4999 V 491.87305 H 0 Z"
         transform="matrix(0.33341603,0,0,0.33341603,-506,-119)"
         clip-rule="evenodd"
         id="path9" />
    </clipPath>
    <clipPath
       clipPathUnits="userSpaceOnUse"
       id="clipPath10">
      <path
         d="M 0,0 H 1937.4999 V 491.87305 H 0 Z"
         transform="matrix(0.33341603,0,0,0.33341603,-539.20313,-158)"
         clip-rule="evenodd"
         id="path10" />
    </clipPath>
    <clipPath
       clipPathUnits="userSpaceOnUse"
       id="clipPath12">
      <path
         d="M 0,0 H 1937.4999 V 491.87305 H 0 Z"
         transform="matrix(0.33341937,0,0,0.33341937,-0.49999999,-0.49999999)"
         clip-rule="evenodd"
         id="path12" />
    </clipPath>
    <clipPath
       clipPathUnits="userSpaceOnUse"
       id="clipPath14">
      <path
         d="M 0,0 H 1937.4999 V 491.87305 H 0 Z"
         transform="matrix(0.33341937,0,0,0.33341937,-0.49999999,-0.49999999)"
         clip-rule="evenodd"
         id="path14" />
    </clipPath>
    <clipPath
       clipPathUnits="userSpaceOnUse"
       id="clipPath16">
      <path
         d="M 0,0 H 1937.4999 V 491.87305 H 0 Z"
         transform="scale(0.33341937)"
         clip-rule="evenodd"
         id="path16" />
    </clipPath>
    <clipPath
       clipPathUnits="userSpaceOnUse"
       id="clipPath17">
      <path
         d="M 0,0 H 1937.4999 V 491.87305 H 0 Z"
         transform="matrix(0.33341603,0,0,0.33341603,-24.703125,-62)"
         clip-rule="evenodd"
         id="path17" />
    </clipPath>
    <clipPath
       clipPathUnits="userSpaceOnUse"
       id="clipPath18">
      <path
         d="M 0,0 H 1937.4999 V 491.87305 H 0 Z"
         transform="matrix(0.33341603,0,0,0.33341603,-6.90625,-85)"
         clip-rule="evenodd"
         id="path18" />
    </clipPath>
    <clipPath
       clipPathUnits="userSpaceOnUse"
       id="clipPath19">
      <path
         d="M 0,0 H 1937.4999 V 491.87305 H 0 Z"
         transform="matrix(0.33341603,0,0,0.33341603,-157.82812,-158)"
         clip-rule="evenodd"
         id="path19" />
    </clipPath>
  </defs>
  <sodipodi:namedview
     id="namedview1"
     pagecolor="#ffffff"
     bordercolor="#000000"
     borderopacity="0.25"
     inkscape:showpageshadow="2"
     inkscape:pageopacity="0.0"
     inkscape:pagecheckerboard="0"
     inkscape:deskcolor="#d1d1d1">
    <inkscape:page
       x="0"
       y="0"
       inkscape:label="1"
       id="page1"
       width="619.83997"
       height="158.72"
       margin="0"
       bleed="0" />
  </sodipodi:namedview>
  <g
     id="g1"
     inkscape:groupmode="layer"
     inkscape:label="1">
    <path
       id="path1"
       d="M 0,0 H 646 V 165 H 0 Z"
       style="fill:#ffffff;fill-opacity:1;fill-rule:nonzero;stroke:none"
       transform="scale(0.95975225)"
       clip-path="url(#clipPath2)" />
    <path
       id="path3"
       d="m 503.51001,1 h 140 v 130 h -140 z"
       style="fill:#ffffff;fill-opacity:1;fill-rule:nonzero;stroke:#000000;stroke-width:1;stroke-linecap:butt;stroke-linejoin:miter;stroke-miterlimit:10;stroke-dasharray:none;stroke-opacity:1"
       transform="scale(0.95975225)"
       clip-path="url(#clipPath4)" />
    <text
       id="text4"
       xml:space="preserve"
       transform="matrix(0.95976185,0,0,0.95976185,485.6395,26.873332)"
       clip-path="url(#clipPath5)"><tspan
         style="font-variant:normal;font-weight:normal;font-size:19px;font-family:Helvetica;writing-mode:lr-tb;fill:#000000;fill-opacity:1;fill-rule:nonzero;stroke:none"
         x="0 5.2788086 10.557617"
         y="0"
         sodipodi:role="line"
         id="tspan4">  {</tspan></text>
    <text
       id="text5"
       xml:space="preserve"
       transform="matrix(0.95976185,0,0,0.95976185,485.6395,47.988092)"
       clip-path="url(#clipPath6)"><tspan
         style="font-variant:normal;font-weight:normal;font-size:19px;font-family:Helvetica;writing-mode:lr-tb;fill:#000000;fill-opacity:1;fill-rule:nonzero;stroke:none"
         x="0 5.2788086 10.557617 15.836426 21.115234 31.682129 42.249023 51.749023 61.249023 71.815918 82.382812 88.709961 93.98877 99.267578 104.54639"
         y="0"
         sodipodi:role="line"
         id="tspan5">    passport: {</tspan></text>
    <text
       id="text6"
       xml:space="preserve"
       transform="matrix(0.95976185,0,0,0.95976185,485.6395,70.062615)"
       clip-path="url(#clipPath7)"><tspan
         style="font-variant:normal;font-weight:normal;font-size:19px;font-family:Helvetica;writing-mode:lr-tb;fill:#000000;fill-opacity:1;fill-rule:nonzero;stroke:none"
         x="0 5.2788086 10.557617 15.836426 21.115234 26.394043 31.672852 42.239746 51.739746 62.306641 68.633789 73.912598 79.191406 82.818848 93.385742 103.95264 114.51953 125.08643"
         y="0"
         sodipodi:role="line"
         id="tspan6">      user: '9986'</tspan></text>
    <text
       id="text7"
       xml:space="preserve"
       transform="matrix(0.95976185,0,0,0.95976185,485.6395,92.137137)"
       clip-path="url(#clipPath8)"><tspan
         style="font-variant:normal;font-weight:normal;font-size:19px;font-family:Helvetica;writing-mode:lr-tb;fill:#000000;fill-opacity:1;fill-rule:nonzero;stroke:none"
         x="0 5.2788086 10.557617 15.836426 21.115234"
         y="0"
         sodipodi:role="line"
         id="tspan7">    }</tspan></text>
    <text
       id="text8"
       xml:space="preserve"
       transform="matrix(0.95976185,0,0,0.95976185,485.6395,114.21166)"
       clip-path="url(#clipPath9)"><tspan
         style="font-variant:normal;font-weight:normal;font-size:19px;font-family:Helvetica;writing-mode:lr-tb;fill:#000000;fill-opacity:1;fill-rule:nonzero;stroke:none"
         x="0 5.2788086 10.557617"
         y="0"
         sodipodi:role="line"
         id="tspan8">  }</tspan></text>
    <text
       id="text9"
       xml:space="preserve"
       transform="matrix(0.95976185,0,0,0.95976185,517.50659,151.64237)"
       clip-path="url(#clipPath10)"><tspan
         style="font-style:oblique;font-variant:normal;font-weight:normal;font-size:19px;font-family:Helvetica;writing-mode:lr-tb;fill:#000000;fill-opacity:1;fill-rule:nonzero;stroke:none"
         x="0 12.672852 23.239746 32.739746 42.239746 46.460938 57.027832"
         y="0"
         sodipodi:role="line"
         id="tspan9">Session</tspan></text>
    <path
       id="path11"
       d="m 431,66 h 62.39999"
       style="fill:none;stroke:#000000;stroke-width:1;stroke-linecap:butt;stroke-linejoin:miter;stroke-miterlimit:10;stroke-dasharray:none;stroke-opacity:1"
       transform="matrix(0.95975225,0,0,0.95975225,0.47987612,0.47987612)"
       clip-path="url(#clipPath12)" />
    <path
       id="path13"
       d="m 500.14999,66 -9,4.5 2.25,-4.5 -2.25,-4.5 z"
       style="fill:#000000;fill-opacity:1;fill-rule:nonzero;stroke:#000000;stroke-width:1;stroke-linecap:butt;stroke-linejoin:miter;stroke-miterlimit:10;stroke-dasharray:none;stroke-opacity:1"
       transform="matrix(0.95975225,0,0,0.95975225,0.47987612,0.47987612)"
       clip-path="url(#clipPath14)" />
    <path
       id="path15"
       d="M 1,1 H 431 V 131 H 1 Z"
       style="fill:#ffffff;fill-opacity:1;fill-rule:nonzero;stroke:#000000;stroke-width:1;stroke-linecap:butt;stroke-linejoin:miter;stroke-miterlimit:10;stroke-dasharray:none;stroke-opacity:1"
       transform="scale(0.95975225)"
       clip-path="url(#clipPath16)" />
    <text
       id="text16"
       xml:space="preserve"
       transform="matrix(0.95976185,0,0,0.95976185,23.709117,59.505235)"
       clip-path="url(#clipPath17)"><tspan
         style="font-variant:normal;font-weight:normal;font-size:19px;font-family:Helvetica;writing-mode:lr-tb;fill:#000000;fill-opacity:1;fill-rule:nonzero;stroke:none"
         x="0 10.566895 20.066895 29.566895 43.288086 55.960938 68.633789 82.35498 91.85498 101.35498 116.13379 126.70068 136.20068 146.76758 160.48877 165.76758 176.33447 186.90137 196.40137 205.90137 216.46826 225.96826 236.53516 248.51221 258.01221 263.29102 267.51221 278.0791 282.30029 296.02148 313.95459 326.62744 337.19434 350.91553 368.84863"
         y="0"
         sodipodi:role="line"
         id="tspan16">eyJwYXNzcG9ydCI6eyJ1c2VyIjoiNWE4NWR</tspan></text>
    <text
       id="text17"
       xml:space="preserve"
       transform="matrix(0.95976185,0,0,0.95976185,6.6283553,81.579757)"
       clip-path="url(#clipPath18)"><tspan
         style="font-variant:normal;font-weight:normal;font-size:19px;font-family:Helvetica;writing-mode:lr-tb;fill:#000000;fill-opacity:1;fill-rule:nonzero;stroke:none"
         x="0 4.2211914 20.04834 29.54834 43.269531 52.769531 65.442383 76.009277 86.576172 90.797363 101.36426 111.93115 121.43115 125.65234 136.21924 145.71924 149.94043 160.50732 171.07422 180.57422 184.79541 195.3623 204.8623 215.4292 225.99609 236.56299 247.12988 257.69678 268.26367 272.48486 288.31201 298.87891 314.70605 318.92725 329.49414 345.32129 359.04248 363.26367 376.98486 381.20605 386.48486 397.05176 407.61865"
         y="0"
         sodipodi:role="line"
         id="tspan17">jMzUxYhbjhgkjgkjhgkjgk677g76jM3MjdmNjNjIn19</tspan></text>
    <text
       id="text18"
       xml:space="preserve"
       transform="matrix(0.95976185,0,0,0.95976185,151.47741,151.64237)"
       clip-path="url(#clipPath19)"><tspan
         style="font-style:oblique;font-variant:normal;font-weight:normal;font-size:19px;font-family:Helvetica;writing-mode:lr-tb;fill:#000000;fill-opacity:1;fill-rule:nonzero;stroke:none"
         x="0 12.672852 23.239746 32.739746 43.306641 53.873535 64.44043 69.719238 82.39209 92.958984 102.45898 111.95898 116.18018 126.74707"
         y="0"
         sodipodi:role="line"
         id="tspan18">Base64 Session</tspan></text>
  </g>
</svg>
