<?xml version="1.0" encoding="UTF-8" standalone="no"?>
<!-- Created with Inkscape (http://www.inkscape.org/) -->

<svg
   version="1.1"
   id="svg1"
   width="534.71997"
   height="234.56"
   viewBox="0 0 534.71997 234.56"
   sodipodi:docname="node-1.pdf"
   xmlns:inkscape="http://www.inkscape.org/namespaces/inkscape"
   xmlns:sodipodi="http://sodipodi.sourceforge.net/DTD/sodipodi-0.dtd"
   xmlns="http://www.w3.org/2000/svg"
   xmlns:svg="http://www.w3.org/2000/svg">
  <defs
     id="defs1">
    <clipPath
       clipPathUnits="userSpaceOnUse"
       id="clipPath2">
      <path
         d="M 0,0 H 1670.8333 V 730.6153 H 0 Z"
         transform="scale(0.33396509)"
         clip-rule="evenodd"
         id="path2" />
    </clipPath>
    <clipPath
       clipPathUnits="userSpaceOnUse"
       id="clipPath4">
      <path
         d="M 0,0 H 1670.8333 V 730.6153 H 0 Z"
         transform="matrix(0.33396509,0,0,0.33396509,-0.50000001,-0.50000001)"
         clip-rule="evenodd"
         id="path4" />
    </clipPath>
    <clipPath
       clipPathUnits="userSpaceOnUse"
       id="clipPath6">
      <path
         d="M 0,0 H 1670.8333 V 730.6153 H 0 Z"
         transform="matrix(0.33396509,0,0,0.33396509,-0.50000001,-0.50000001)"
         clip-rule="evenodd"
         id="path6" />
    </clipPath>
    <clipPath
       clipPathUnits="userSpaceOnUse"
       id="clipPath8">
      <path
         d="M 0,0 H 1670.8333 V 730.6153 H 0 Z"
         transform="matrix(0.33396509,0,0,0.33396509,-0.50000001,-0.50000001)"
         clip-rule="evenodd"
         id="path8" />
    </clipPath>
    <clipPath
       clipPathUnits="userSpaceOnUse"
       id="clipPath9">
      <path
         d="M 0,0 H 1670.8333 V 730.6153 H 0 Z"
         transform="matrix(0.33396174,0,0,0.33396174,-30.609375,-39)"
         clip-rule="evenodd"
         id="path9" />
    </clipPath>
    <clipPath
       clipPathUnits="userSpaceOnUse"
       id="clipPath11">
      <path
         d="M 0,0 H 1670.8333 V 730.6153 H 0 Z"
         transform="matrix(0.33396509,0,0,0.33396509,-0.50000001,-0.50000001)"
         clip-rule="evenodd"
         id="path11" />
    </clipPath>
    <clipPath
       clipPathUnits="userSpaceOnUse"
       id="clipPath13">
      <path
         d="M 0,0 H 1670.8333 V 730.6153 H 0 Z"
         transform="matrix(0.33396509,0,0,0.33396509,-0.50000001,-0.50000001)"
         clip-rule="evenodd"
         id="path13" />
    </clipPath>
    <clipPath
       clipPathUnits="userSpaceOnUse"
       id="clipPath15">
      <path
         d="M 0,0 H 1670.8333 V 730.6153 H 0 Z"
         transform="matrix(0.33396509,0,0,0.33396509,-0.50000001,-0.50000001)"
         clip-rule="evenodd"
         id="path15" />
    </clipPath>
    <clipPath
       clipPathUnits="userSpaceOnUse"
       id="clipPath16">
      <path
         d="M 0,0 H 1670.8333 V 730.6153 H 0 Z"
         transform="matrix(0.33396174,0,0,0.33396174,-171.98438,-129)"
         clip-rule="evenodd"
         id="path16" />
    </clipPath>
    <clipPath
       clipPathUnits="userSpaceOnUse"
       id="clipPath18">
      <path
         d="M 0,0 H 1670.8333 V 730.6153 H 0 Z"
         transform="matrix(0.33396509,0,0,0.33396509,-0.50000001,-0.50000001)"
         clip-rule="evenodd"
         id="path18" />
    </clipPath>
    <clipPath
       clipPathUnits="userSpaceOnUse"
       id="clipPath19">
      <path
         d="M 0,0 H 1670.8333 V 730.6153 H 0 Z"
         transform="matrix(0.33396174,0,0,0.33396174,-317.96875,-219)"
         clip-rule="evenodd"
         id="path19" />
    </clipPath>
    <clipPath
       clipPathUnits="userSpaceOnUse"
       id="clipPath20">
      <path
         d="M 0,0 H 1670.8333 V 730.6153 H 0 Z"
         transform="matrix(0.33396174,0,0,0.33396174,-178,-28)"
         clip-rule="evenodd"
         id="path20" />
    </clipPath>
    <clipPath
       clipPathUnits="userSpaceOnUse"
       id="clipPath21">
      <path
         d="M 0,0 H 1670.8333 V 730.6153 H 0 Z"
         transform="matrix(0.33396174,0,0,0.33396174,-178,-43)"
         clip-rule="evenodd"
         id="path21" />
    </clipPath>
    <clipPath
       clipPathUnits="userSpaceOnUse"
       id="clipPath22">
      <path
         d="M 0,0 H 1670.8333 V 730.6153 H 0 Z"
         transform="matrix(0.33396174,0,0,0.33396174,-308,-118)"
         clip-rule="evenodd"
         id="path22" />
    </clipPath>
    <clipPath
       clipPathUnits="userSpaceOnUse"
       id="clipPath23">
      <path
         d="M 0,0 H 1670.8333 V 730.6153 H 0 Z"
         transform="matrix(0.33396174,0,0,0.33396174,-308,-133)"
         clip-rule="evenodd"
         id="path23" />
    </clipPath>
    <clipPath
       clipPathUnits="userSpaceOnUse"
       id="clipPath24">
      <path
         d="M 0,0 H 1670.8333 V 730.6153 H 0 Z"
         transform="matrix(0.33396174,0,0,0.33396174,-443,-208)"
         clip-rule="evenodd"
         id="path24" />
    </clipPath>
    <clipPath
       clipPathUnits="userSpaceOnUse"
       id="clipPath25">
      <path
         d="M 0,0 H 1670.8333 V 730.6153 H 0 Z"
         transform="matrix(0.33396174,0,0,0.33396174,-443,-223)"
         clip-rule="evenodd"
         id="path25" />
    </clipPath>
  </defs>
  <sodipodi:namedview
     id="namedview1"
     pagecolor="#ffffff"
     bordercolor="#000000"
     borderopacity="0.25"
     inkscape:showpageshadow="2"
     inkscape:pageopacity="0.0"
     inkscape:pagecheckerboard="0"
     inkscape:deskcolor="#d1d1d1">
    <inkscape:page
       x="0"
       y="0"
       inkscape:label="1"
       id="page1"
       width="534.71997"
       height="234.56"
       margin="0"
       bleed="0" />
  </sodipodi:namedview>
  <g
     id="g1"
     inkscape:groupmode="layer"
     inkscape:label="1">
    <path
       id="path1"
       d="M 0,0 H 558 V 244 H 0 Z"
       style="fill:#ffffff;fill-opacity:1;fill-rule:nonzero;stroke:none"
       transform="scale(0.95818393)"
       clip-path="url(#clipPath2)" />
    <path
       id="path3"
       d="m 86,61 v 60 h 34.9"
       style="fill:none;stroke:#000000;stroke-width:1;stroke-linecap:butt;stroke-linejoin:miter;stroke-miterlimit:10;stroke-dasharray:none;stroke-opacity:1"
       transform="matrix(0.95818393,0,0,0.95818393,0.47909197,0.47909197)"
       clip-path="url(#clipPath4)" />
    <path
       id="path5"
       d="m 127.65,121 -9,4.5 2.25,-4.5 -2.25,-4.5 z"
       style="fill:#000000;fill-opacity:1;fill-rule:nonzero;stroke:#000000;stroke-width:1;stroke-linecap:butt;stroke-linejoin:miter;stroke-miterlimit:10;stroke-dasharray:none;stroke-opacity:1"
       transform="matrix(0.95818393,0,0,0.95818393,0.47909197,0.47909197)"
       clip-path="url(#clipPath6)" />
    <path
       id="path7"
       d="M 1,1 H 171 V 61 H 1 Z"
       style="fill:#d5e8d4;fill-opacity:1;fill-rule:nonzero;stroke:#82b366;stroke-width:1;stroke-linecap:butt;stroke-linejoin:miter;stroke-miterlimit:10;stroke-dasharray:none;stroke-opacity:1"
       transform="matrix(0.95818393,0,0,0.95818393,0.47909197,0.47909197)"
       clip-path="url(#clipPath8)" />
    <text
       id="text8"
       xml:space="preserve"
       transform="matrix(0.95819356,0,0,0.95819356,29.329706,37.369549)"
       clip-path="url(#clipPath9)"><tspan
         style="font-variant:normal;font-weight:normal;font-size:24px;font-family:Helvetica;writing-mode:lr-tb;fill:#000000;fill-opacity:1;fill-rule:nonzero;stroke:none"
         x="0 16.007812 29.355469 42.703125 56.050781 69.398438 76.066406 89.414062 102.76172"
         y="0"
         sodipodi:role="line"
         id="tspan8">Puppeteer</tspan></text>
    <path
       id="path10"
       d="m 216,151 v 60 h 34.89999"
       style="fill:none;stroke:#000000;stroke-width:1;stroke-linecap:butt;stroke-linejoin:miter;stroke-miterlimit:10;stroke-dasharray:none;stroke-opacity:1"
       transform="matrix(0.95818393,0,0,0.95818393,0.47909197,0.47909197)"
       clip-path="url(#clipPath11)" />
    <path
       id="path12"
       d="m 257.64999,211 -9,4.5 2.25,-4.5 -2.25,-4.5 z"
       style="fill:#000000;fill-opacity:1;fill-rule:nonzero;stroke:#000000;stroke-width:1;stroke-linecap:butt;stroke-linejoin:miter;stroke-miterlimit:10;stroke-dasharray:none;stroke-opacity:1"
       transform="matrix(0.95818393,0,0,0.95818393,0.47909197,0.47909197)"
       clip-path="url(#clipPath13)" />
    <path
       id="path14"
       d="m 131,91 h 170 v 60 H 131 Z"
       style="fill:#dae8fc;fill-opacity:1;fill-rule:nonzero;stroke:#6c8ebf;stroke-width:1;stroke-linecap:butt;stroke-linejoin:miter;stroke-miterlimit:10;stroke-dasharray:none;stroke-opacity:1"
       transform="matrix(0.95818393,0,0,0.95818393,0.47909197,0.47909197)"
       clip-path="url(#clipPath15)" />
    <text
       id="text15"
       xml:space="preserve"
       transform="matrix(0.95819356,0,0,0.95819356,164.79433,123.60697)"
       clip-path="url(#clipPath16)"><tspan
         style="font-variant:normal;font-weight:normal;font-size:24px;font-family:Helvetica;writing-mode:lr-tb;fill:#000000;fill-opacity:1;fill-rule:nonzero;stroke:none"
         x="0 16.007812 24 37.347656 54.679688 66.679688 80.027344"
         y="0"
         sodipodi:role="line"
         id="tspan15">Browser</tspan></text>
    <path
       id="path17"
       d="m 261,181 h 170 v 60 H 261 Z"
       style="fill:#ffe6cc;fill-opacity:1;fill-rule:nonzero;stroke:#d79b00;stroke-width:1;stroke-linecap:butt;stroke-linejoin:miter;stroke-miterlimit:10;stroke-dasharray:none;stroke-opacity:1"
       transform="matrix(0.95818393,0,0,0.95818393,0.47909197,0.47909197)"
       clip-path="url(#clipPath18)" />
    <text
       id="text18"
       xml:space="preserve"
       transform="matrix(0.95819356,0,0,0.95819356,304.67561,209.84439)"
       clip-path="url(#clipPath19)"><tspan
         style="font-variant:normal;font-weight:normal;font-size:24px;font-family:Helvetica;writing-mode:lr-tb;fill:#000000;fill-opacity:1;fill-rule:nonzero;stroke:none"
         x="0 16.007812 29.355469 42.703125"
         y="0"
         sodipodi:role="line"
         id="tspan18">Page</tspan></text>
    <text
       id="text19"
       xml:space="preserve"
       transform="matrix(0.95819356,0,0,0.95819356,170.55845,26.82942)"
       clip-path="url(#clipPath20)"><tspan
         style="font-style:oblique;font-variant:normal;font-weight:normal;font-size:12px;font-family:Helvetica;writing-mode:lr-tb;fill:#000000;fill-opacity:1;fill-rule:nonzero;stroke:none"
         x="0 8.0039062 11.337891 18.011719 22.007812 25.341797 31.341797 34.675781 41.349609"
         y="0"
         sodipodi:role="line"
         id="tspan19">Starts up</tspan></text>
    <text
       id="text20"
       xml:space="preserve"
       transform="matrix(0.95819356,0,0,0.95819356,170.55845,41.202323)"
       clip-path="url(#clipPath21)"><tspan
         style="font-style:oblique;font-variant:normal;font-weight:normal;font-size:12px;font-family:Helvetica;writing-mode:lr-tb;fill:#000000;fill-opacity:1;fill-rule:nonzero;stroke:none"
         x="0 8.6660156 15.339844 19.335938 26.009766 36.005859 38.671875 45.345703"
         y="0"
         sodipodi:role="line"
         id="tspan20">Chromium</tspan></text>
    <text
       id="text21"
       xml:space="preserve"
       transform="matrix(0.95819356,0,0,0.95819356,295.12362,113.06684)"
       clip-path="url(#clipPath22)"><tspan
         style="font-style:oblique;font-variant:normal;font-weight:normal;font-size:12px;font-family:Helvetica;writing-mode:lr-tb;fill:#000000;fill-opacity:1;fill-rule:nonzero;stroke:none"
         x="0 8.6660156 15.339844 22.013672 26.009766 32.683594 38.683594 45.357422 52.03125 55.365234 61.365234 64.699219 71.373047 78.046875 81.380859 88.054688 94.728516 101.40234"
         y="0"
         sodipodi:role="line"
         id="tspan21">Represents an open</tspan></text>
    <text
       id="text22"
       xml:space="preserve"
       transform="matrix(0.95819356,0,0,0.95819356,295.12362,127.43974)"
       clip-path="url(#clipPath23)"><tspan
         style="font-style:oblique;font-variant:normal;font-weight:normal;font-size:12px;font-family:Helvetica;writing-mode:lr-tb;fill:#000000;fill-opacity:1;fill-rule:nonzero;stroke:none"
         x="0 6.6738281 10.669922 17.34375 26.009766 32.009766 38.683594 42.679688 46.013672 54.679688 57.345703 64.019531 70.693359 77.367188"
         y="0"
         sodipodi:role="line"
         id="tspan22">browser window</tspan></text>
    <text
       id="text23"
       xml:space="preserve"
       transform="matrix(0.95819356,0,0,0.95819356,424.47975,199.30426)"
       clip-path="url(#clipPath24)"><tspan
         style="font-style:oblique;font-variant:normal;font-weight:normal;font-size:12px;font-family:Helvetica;writing-mode:lr-tb;fill:#000000;fill-opacity:1;fill-rule:nonzero;stroke:none"
         x="0 8.6660156 15.339844 22.013672 26.009766 32.683594 38.683594 45.357422 52.03125 55.365234 61.365234 64.699219 71.373047 78.046875"
         y="0"
         sodipodi:role="line"
         id="tspan23">Represents one</tspan></text>
    <text
       id="text24"
       xml:space="preserve"
       transform="matrix(0.95819356,0,0,0.95819356,424.47975,213.67716)"
       clip-path="url(#clipPath25)"><tspan
         style="font-style:oblique;font-variant:normal;font-weight:normal;font-size:12px;font-family:Helvetica;writing-mode:lr-tb;fill:#000000;fill-opacity:1;fill-rule:nonzero;stroke:none"
         x="0 2.6660156 9.3398438 16.013672 18.679688 24.679688 27.345703 34.019531 40.693359 47.367188 50.033203 53.367188 56.701172 63.375"
         y="0"
         sodipodi:role="line"
         id="tspan24">individual tab</tspan></text>
  </g>
</svg>
