<?xml version="1.0" encoding="UTF-8" standalone="no"?>
<!-- Created with Inkscape (http://www.inkscape.org/) -->

<svg
   version="1.1"
   id="svg1"
   width="176"
   height="360"
   viewBox="0 0 176 360"
   sodipodi:docname="node-18.pdf"
   xmlns:inkscape="http://www.inkscape.org/namespaces/inkscape"
   xmlns:sodipodi="http://sodipodi.sourceforge.net/DTD/sodipodi-0.dtd"
   xmlns="http://www.w3.org/2000/svg"
   xmlns:svg="http://www.w3.org/2000/svg">
  <defs
     id="defs1">
    <clipPath
       clipPathUnits="userSpaceOnUse"
       id="clipPath2">
      <path
         d="M 0,0 H 549.99994 V 1123.913 H 0 Z"
         transform="scale(0.33454547)"
         clip-rule="evenodd"
         id="path2" />
    </clipPath>
    <clipPath
       clipPathUnits="userSpaceOnUse"
       id="clipPath4">
      <path
         d="M 0,0 H 549.99994 V 1117.9347 H 0 Z"
         transform="scale(0.33454547)"
         clip-rule="evenodd"
         id="path4" />
    </clipPath>
    <clipPath
       clipPathUnits="userSpaceOnUse"
       id="clipPath6">
      <path
         d="M 0,0 H 549.99994 V 1117.9347 H 0 Z"
         transform="scale(0.33454547)"
         clip-rule="evenodd"
         id="path6" />
    </clipPath>
    <clipPath
       clipPathUnits="userSpaceOnUse"
       id="clipPath7">
      <path
         d="M 0,0 H 549.99994 V 1117.9347 H 0 Z"
         transform="matrix(0.33454211,0,0,0.33454211,-37.65625,-108)"
         clip-rule="evenodd"
         id="path7" />
    </clipPath>
    <clipPath
       clipPathUnits="userSpaceOnUse"
       id="clipPath9">
      <path
         d="M 0,0 H 549.99994 V 1117.9347 H 0 Z"
         transform="scale(0.33454547)"
         clip-rule="evenodd"
         id="path9" />
    </clipPath>
    <clipPath
       clipPathUnits="userSpaceOnUse"
       id="clipPath10">
      <path
         d="M 0,0 H 549.99994 V 1117.9347 H 0 Z"
         transform="matrix(0.33454211,0,0,0.33454211,-48.21875,-297.99999)"
         clip-rule="evenodd"
         id="path10" />
    </clipPath>
    <clipPath
       clipPathUnits="userSpaceOnUse"
       id="clipPath11">
      <path
         d="M 0,0 H 549.99994 V 1117.9347 H 0 Z"
         transform="matrix(0.33454211,0,0,0.33454211,-20.78125,-19)"
         clip-rule="evenodd"
         id="path11" />
    </clipPath>
  </defs>
  <sodipodi:namedview
     id="namedview1"
     pagecolor="#ffffff"
     bordercolor="#000000"
     borderopacity="0.25"
     inkscape:showpageshadow="2"
     inkscape:pageopacity="0.0"
     inkscape:pagecheckerboard="0"
     inkscape:deskcolor="#d1d1d1">
    <inkscape:page
       x="0"
       y="0"
       inkscape:label="1"
       id="page1"
       width="176"
       height="360"
       margin="0"
       bleed="0" />
  </sodipodi:namedview>
  <g
     id="g1"
     inkscape:groupmode="layer"
     inkscape:label="1">
    <path
       id="path1"
       d="M 0,0 H 184 V 376 H 0 Z"
       style="fill:#ffffff;fill-opacity:1;fill-rule:nonzero;stroke:none"
       transform="scale(0.95652166)"
       clip-path="url(#clipPath2)" />
    <path
       id="path3"
       d="M 1,31 H 181 V 371 H 1 Z"
       style="fill:#ffffff;fill-opacity:1;fill-rule:nonzero;stroke:#000000;stroke-width:1;stroke-linecap:butt;stroke-linejoin:miter;stroke-miterlimit:10;stroke-dasharray:none;stroke-opacity:1"
       transform="scale(0.95652166)"
       clip-path="url(#clipPath4)" />
    <path
       id="path5"
       d="m 31,71 h 120 v 60 H 31 Z"
       style="fill:#dae8fc;fill-opacity:1;fill-rule:nonzero;stroke:#6c8ebf;stroke-width:1;stroke-linecap:butt;stroke-linejoin:miter;stroke-miterlimit:10;stroke-dasharray:none;stroke-opacity:1"
       transform="scale(0.95652166)"
       clip-path="url(#clipPath6)" />
    <text
       id="text6"
       xml:space="preserve"
       transform="matrix(0.95653126,0,0,0.95653126,36.01938,103.30538)"
       clip-path="url(#clipPath7)"><tspan
         style="font-variant:normal;font-weight:normal;font-size:19px;font-family:Helvetica;writing-mode:lr-tb;fill:#000000;fill-opacity:1;fill-rule:nonzero;stroke:none"
         x="0 12.672852 23.239746 29.566895 39.066895 49.633789 55.960938 61.239746 74.960938 85.527832 96.094727"
         y="0"
         sodipodi:role="line"
         id="tspan6">Server Code</tspan></text>
    <path
       id="path8"
       d="m 31,261 h 120 v 60 H 31 Z"
       style="fill:#d5e8d4;fill-opacity:1;fill-rule:nonzero;stroke:#82b366;stroke-width:1;stroke-linecap:butt;stroke-linejoin:miter;stroke-miterlimit:10;stroke-dasharray:none;stroke-opacity:1"
       transform="scale(0.95652166)"
       clip-path="url(#clipPath9)" />
    <text
       id="text9"
       xml:space="preserve"
       transform="matrix(0.95653126,0,0,0.95653126,46.122742,285.04631)"
       clip-path="url(#clipPath10)"><tspan
         style="font-variant:normal;font-weight:normal;font-size:19px;font-family:Helvetica;writing-mode:lr-tb;fill:#000000;fill-opacity:1;fill-rule:nonzero;stroke:none"
         x="0 9.5 20.066895 29.566895 34.845703 40.124512 53.845703 64.412598 74.979492"
         y="0"
         sodipodi:role="line"
         id="tspan9">Test Code</tspan></text>
    <text
       id="text10"
       xml:space="preserve"
       transform="matrix(0.95653126,0,0,0.95653126,19.877915,18.174094)"
       clip-path="url(#clipPath11)"><tspan
         style="font-variant:normal;font-weight:normal;font-size:19px;font-family:Helvetica;writing-mode:lr-tb;fill:#000000;fill-opacity:1;fill-rule:nonzero;stroke:none"
         x="0 12.672852 19 29.566895 33.788086 44.35498 53.85498 59.133789 64.412598 78.133789 82.35498 88.682129 99.249023 108.74902 114.02783 124.59473 130.92188"
         y="0"
         sodipodi:role="line"
         id="tspan10">Project Directory</tspan></text>
  </g>
</svg>
