<?xml version="1.0" encoding="UTF-8" standalone="no"?>
<!-- Created with Inkscape (http://www.inkscape.org/) -->

<svg
   version="1.1"
   id="svg1"
   width="684.15997"
   height="286.72"
   viewBox="0 0 684.15997 286.72"
   sodipodi:docname="node-2.pdf"
   xmlns:inkscape="http://www.inkscape.org/namespaces/inkscape"
   xmlns:sodipodi="http://sodipodi.sourceforge.net/DTD/sodipodi-0.dtd"
   xmlns="http://www.w3.org/2000/svg"
   xmlns:svg="http://www.w3.org/2000/svg">
  <defs
     id="defs1">
    <clipPath
       clipPathUnits="userSpaceOnUse"
       id="clipPath2">
      <path
         d="M 0,0 H 2137.5 V 895.11554 H 0 Z"
         transform="scale(0.3340351)"
         clip-rule="evenodd"
         id="path2" />
    </clipPath>
    <clipPath
       clipPathUnits="userSpaceOnUse"
       id="clipPath4">
      <path
         d="M 0,0 H 2137.5 V 892.12183 H 0 Z"
         transform="matrix(0.3340351,0,0,0.3340351,-0.49999999,-0.49999999)"
         clip-rule="evenodd"
         id="path4" />
    </clipPath>
    <clipPath
       clipPathUnits="userSpaceOnUse"
       id="clipPath5">
      <path
         d="M 0,0 H 2137.5 V 892.12183 H 0 Z"
         transform="matrix(0.33403175,0,0,0.33403175,-309.98438,-39)"
         clip-rule="evenodd"
         id="path5" />
    </clipPath>
    <clipPath
       clipPathUnits="userSpaceOnUse"
       id="clipPath7">
      <path
         d="M 0,0 H 2137.5 V 892.12183 H 0 Z"
         transform="matrix(0.3340351,0,0,0.3340351,-0.49999999,-0.49999999)"
         clip-rule="evenodd"
         id="path7" />
    </clipPath>
    <clipPath
       clipPathUnits="userSpaceOnUse"
       id="clipPath8">
      <path
         d="M 0,0 H 2137.5 V 892.12183 H 0 Z"
         transform="matrix(0.33403175,0,0,0.33403175,-57.96875,-139)"
         clip-rule="evenodd"
         id="path8" />
    </clipPath>
    <clipPath
       clipPathUnits="userSpaceOnUse"
       id="clipPath10">
      <path
         d="M 0,0 H 2137.5 V 892.12183 H 0 Z"
         transform="matrix(0.3340351,0,0,0.3340351,-0.49999999,-0.49999999)"
         clip-rule="evenodd"
         id="path10" />
    </clipPath>
    <clipPath
       clipPathUnits="userSpaceOnUse"
       id="clipPath11">
      <path
         d="M 0,0 H 2137.5 V 892.12183 H 0 Z"
         transform="matrix(0.33403175,0,0,0.33403175,-237.96875,-139)"
         clip-rule="evenodd"
         id="path11" />
    </clipPath>
    <clipPath
       clipPathUnits="userSpaceOnUse"
       id="clipPath13">
      <path
         d="M 0,0 H 2137.5 V 892.12183 H 0 Z"
         transform="matrix(0.3340351,0,0,0.3340351,-0.49999999,-0.49999999)"
         clip-rule="evenodd"
         id="path13" />
    </clipPath>
    <clipPath
       clipPathUnits="userSpaceOnUse"
       id="clipPath14">
      <path
         d="M 0,0 H 2137.5 V 892.12183 H 0 Z"
         transform="matrix(0.33403175,0,0,0.33403175,-417.96875,-139)"
         clip-rule="evenodd"
         id="path14" />
    </clipPath>
    <clipPath
       clipPathUnits="userSpaceOnUse"
       id="clipPath16">
      <path
         d="M 0,0 H 2137.5 V 892.12183 H 0 Z"
         transform="matrix(0.3340351,0,0,0.3340351,-0.49999999,-0.49999999)"
         clip-rule="evenodd"
         id="path16" />
    </clipPath>
    <clipPath
       clipPathUnits="userSpaceOnUse"
       id="clipPath17">
      <path
         d="M 0,0 H 2137.5 V 892.12183 H 0 Z"
         transform="matrix(0.33403175,0,0,0.33403175,-597.96874,-139)"
         clip-rule="evenodd"
         id="path17" />
    </clipPath>
    <clipPath
       clipPathUnits="userSpaceOnUse"
       id="clipPath19">
      <path
         d="M 0,0 H 2137.5 V 892.12183 H 0 Z"
         transform="matrix(0,-0.3340351,0.3340351,0,277.00001,431)"
         clip-rule="evenodd"
         id="path19" />
    </clipPath>
    <clipPath
       clipPathUnits="userSpaceOnUse"
       id="clipPath20">
      <path
         d="M 0,0 H 2137.5 V 892.12183 H 0 Z"
         transform="matrix(0.33403175,0,0,0.33403175,-202.98438,-217.99999)"
         clip-rule="evenodd"
         id="path20" />
    </clipPath>
    <clipPath
       clipPathUnits="userSpaceOnUse"
       id="clipPath21">
      <path
         d="M 0,0 H 2137.5 V 892.12183 H 0 Z"
         transform="matrix(0.33403175,0,0,0.33403175,-210.32813,-245)"
         clip-rule="evenodd"
         id="path21" />
    </clipPath>
    <clipPath
       clipPathUnits="userSpaceOnUse"
       id="clipPath22">
      <path
         d="M 0,0 H 2137.5 V 892.12183 H 0 Z"
         transform="matrix(0.33403175,0,0,0.33403175,-236.65625,-281)"
         clip-rule="evenodd"
         id="path22" />
    </clipPath>
  </defs>
  <sodipodi:namedview
     id="namedview1"
     pagecolor="#ffffff"
     bordercolor="#000000"
     borderopacity="0.25"
     inkscape:showpageshadow="2"
     inkscape:pageopacity="0.0"
     inkscape:pagecheckerboard="0"
     inkscape:deskcolor="#d1d1d1">
    <inkscape:page
       x="0"
       y="0"
       inkscape:label="1"
       id="page1"
       width="684.15997"
       height="286.72"
       margin="0"
       bleed="0" />
  </sodipodi:namedview>
  <g
     id="g1"
     inkscape:groupmode="layer"
     inkscape:label="1">
    <path
       id="path1"
       d="M 0,0 H 714 V 299 H 0 Z"
       style="fill:#ffffff;fill-opacity:1;fill-rule:nonzero;stroke:none"
       transform="scale(0.95798313)"
       clip-path="url(#clipPath2)" />
    <path
       id="path3"
       d="M 269,1 H 439 V 61 H 269 Z"
       style="fill:#dae8fc;fill-opacity:1;fill-rule:nonzero;stroke:#6c8ebf;stroke-width:1;stroke-linecap:butt;stroke-linejoin:miter;stroke-miterlimit:10;stroke-dasharray:none;stroke-opacity:1"
       transform="matrix(0.95798313,0,0,0.95798313,0.47899156,0.47899156)"
       clip-path="url(#clipPath4)" />
    <text
       id="text4"
       xml:space="preserve"
       transform="matrix(0.95799273,0,0,0.95799273,296.96278,37.361716)"
       clip-path="url(#clipPath5)"><tspan
         style="font-variant:normal;font-weight:normal;font-size:24px;font-family:Helvetica;writing-mode:lr-tb;fill:#000000;fill-opacity:1;fill-rule:nonzero;stroke:none"
         x="0 16.007812 24 37.347656 54.679688 66.679688 80.027344"
         y="0"
         sodipodi:role="line"
         id="tspan4">Browser</tspan></text>
    <path
       id="path6"
       d="m 1,101 h 170 v 60 H 1 Z"
       style="fill:#ffe6cc;fill-opacity:1;fill-rule:nonzero;stroke:#d79b00;stroke-width:1;stroke-linecap:butt;stroke-linejoin:miter;stroke-miterlimit:10;stroke-dasharray:none;stroke-opacity:1"
       transform="matrix(0.95798313,0,0,0.95798313,0.47899156,0.47899156)"
       clip-path="url(#clipPath7)" />
    <text
       id="text7"
       xml:space="preserve"
       transform="matrix(0.95799273,0,0,0.95799273,55.533641,133.16099)"
       clip-path="url(#clipPath8)"><tspan
         style="font-variant:normal;font-weight:normal;font-size:24px;font-family:Helvetica;writing-mode:lr-tb;fill:#000000;fill-opacity:1;fill-rule:nonzero;stroke:none"
         x="0 16.007812 29.355469 42.703125"
         y="0"
         sodipodi:role="line"
         id="tspan7">Page</tspan></text>
    <path
       id="path9"
       d="m 181,101 h 170 v 60 H 181 Z"
       style="fill:#ffe6cc;fill-opacity:1;fill-rule:nonzero;stroke:#d79b00;stroke-width:1;stroke-linecap:butt;stroke-linejoin:miter;stroke-miterlimit:10;stroke-dasharray:none;stroke-opacity:1"
       transform="matrix(0.95798313,0,0,0.95798313,0.47899156,0.47899156)"
       clip-path="url(#clipPath10)" />
    <text
       id="text10"
       xml:space="preserve"
       transform="matrix(0.95799273,0,0,0.95799273,227.97233,133.16099)"
       clip-path="url(#clipPath11)"><tspan
         style="font-variant:normal;font-weight:normal;font-size:24px;font-family:Helvetica;writing-mode:lr-tb;fill:#000000;fill-opacity:1;fill-rule:nonzero;stroke:none"
         x="0 16.007812 29.355469 42.703125"
         y="0"
         sodipodi:role="line"
         id="tspan10">Page</tspan></text>
    <path
       id="path12"
       d="m 361,101 h 170 v 60 H 361 Z"
       style="fill:#ffe6cc;fill-opacity:1;fill-rule:nonzero;stroke:#d79b00;stroke-width:1;stroke-linecap:butt;stroke-linejoin:miter;stroke-miterlimit:10;stroke-dasharray:none;stroke-opacity:1"
       transform="matrix(0.95798313,0,0,0.95798313,0.47899156,0.47899156)"
       clip-path="url(#clipPath13)" />
    <text
       id="text13"
       xml:space="preserve"
       transform="matrix(0.95799273,0,0,0.95799273,400.41102,133.16099)"
       clip-path="url(#clipPath14)"><tspan
         style="font-variant:normal;font-weight:normal;font-size:24px;font-family:Helvetica;writing-mode:lr-tb;fill:#000000;fill-opacity:1;fill-rule:nonzero;stroke:none"
         x="0 16.007812 29.355469 42.703125"
         y="0"
         sodipodi:role="line"
         id="tspan13">Page</tspan></text>
    <path
       id="path15"
       d="m 541.01001,101 h 170 v 60 h -170 z"
       style="fill:#ffe6cc;fill-opacity:1;fill-rule:nonzero;stroke:#d79b00;stroke-width:1;stroke-linecap:butt;stroke-linejoin:miter;stroke-miterlimit:10;stroke-dasharray:none;stroke-opacity:1"
       transform="matrix(0.95798313,0,0,0.95798313,0.47899156,0.47899156)"
       clip-path="url(#clipPath16)" />
    <text
       id="text16"
       xml:space="preserve"
       transform="matrix(0.95799273,0,0,0.95799273,572.84971,133.16099)"
       clip-path="url(#clipPath17)"><tspan
         style="font-variant:normal;font-weight:normal;font-size:24px;font-family:Helvetica;writing-mode:lr-tb;fill:#000000;fill-opacity:1;fill-rule:nonzero;stroke:none"
         x="0 16.007812 29.355469 42.703125"
         y="0"
         sodipodi:role="line"
         id="tspan16">Page</tspan></text>
    <path
       id="path18"
       d="m 369,-276 h -7.5 c -5,0 -7.5,3.33334 -7.5,10 V 66.5 c 0,6.666664 -2.5,10 -7.5,10 h -3.75 c -2.5,0 -1.25,0 3.75,0 h 3.75 c 2.5,0 3.75,3.333336 3.75,10 V 419 c 0,6.66666 2.5,10 7.5,10 h 7.5"
       style="fill:none;stroke:#000000;stroke-width:1;stroke-linecap:butt;stroke-linejoin:miter;stroke-miterlimit:10;stroke-dasharray:none;stroke-opacity:1"
       transform="matrix(0,0.95798313,-0.95798313,0,412.89073,-265.36134)"
       clip-path="url(#clipPath19)" />
    <text
       id="text19"
       xml:space="preserve"
       transform="matrix(0.95799273,0,0,0.95799273,194.45756,208.84241)"
       clip-path="url(#clipPath20)"><tspan
         style="font-variant:normal;font-weight:700;font-size:22px;font-family:Helvetica;writing-mode:lr-tb;fill:#000000;fill-opacity:1;fill-rule:nonzero;stroke:none"
         x="0 15.887695 22 28.112305 34.224609 48.898438 61.133789 74.572266 86.807617 99.042969 105.15527 111.26758 124.70605 130.81836 143.05371 149.16602 165.05371 173.61523 187.05371 204.16602 216.40137 228.63672 237.19824 243.31055 255.5459 268.98438 281.21973 289.78125"
         y="0"
         sodipodi:role="line"
         id="tspan19">All Pages in a Browser share</tspan></text>
    <text
       id="text20"
       xml:space="preserve"
       transform="matrix(0.95799273,0,0,0.95799273,201.49282,234.70822)"
       clip-path="url(#clipPath21)"><tspan
         style="font-variant:normal;font-weight:700;font-size:22px;font-family:Helvetica;writing-mode:lr-tb;fill:#000000;fill-opacity:1;fill-rule:nonzero;stroke:none"
         x="0 12.235352 25.673828 39.112305 51.347656 57.459961 69.695312 81.930664 88.042969 94.155273 106.39062 118.62598 130.86133 144.2998 156.53516 162.64746 168.75977 180.99512 193.23047 205.46582 214.02734 226.2627 233.58887 247.02734 253.13965 266.57812 280.0166"
         y="0"
         sodipodi:role="line"
         id="tspan20">cookies, cache, everything!</tspan></text>
    <text
       id="text21"
       xml:space="preserve"
       transform="matrix(0.95799273,0,0,0.95799273,226.71497,269.19596)"
       clip-path="url(#clipPath22)"><tspan
         style="font-variant:normal;font-weight:700;font-size:22px;font-family:Helvetica;writing-mode:lr-tb;fill:#000000;fill-opacity:1;fill-rule:nonzero;stroke:none"
         x="0 13.438477 26.876953 32.989258 45.224609 51.336914 57.449219 69.68457 75.796875 89.235352 101.4707 114.90918 121.02148 128.34766 141.78613 150.34766 156.45996 163.78613 176.02148 188.25684 195.58301 201.69531 215.13379 228.57227"
         y="0"
         sodipodi:role="line"
         id="tspan21">This is bad for testing.</tspan></text>
  </g>
</svg>
