<?xml version="1.0" encoding="UTF-8" standalone="no"?>
<!-- Created with Inkscape (http://www.inkscape.org/) -->

<svg
   version="1.1"
   id="svg1"
   width="942.71997"
   height="309.44"
   viewBox="0 0 942.71997 309.44"
   sodipodi:docname="node-11.pdf"
   xmlns:inkscape="http://www.inkscape.org/namespaces/inkscape"
   xmlns:sodipodi="http://sodipodi.sourceforge.net/DTD/sodipodi-0.dtd"
   xmlns="http://www.w3.org/2000/svg"
   xmlns:svg="http://www.w3.org/2000/svg">
  <defs
     id="defs1">
    <clipPath
       clipPathUnits="userSpaceOnUse"
       id="clipPath2">
      <path
         d="M 0,0 H 2945.8333 V 963.98199 H 0 Z"
         transform="scale(0.33403113)"
         clip-rule="evenodd"
         id="path2" />
    </clipPath>
    <clipPath
       clipPathUnits="userSpaceOnUse"
       id="clipPath4">
      <path
         d="M 0,0 H 2945.8333 V 963.98199 H 0 Z"
         transform="matrix(0.33403113,0,0,0.33403113,-0.50000001,-0.50000001)"
         clip-rule="evenodd"
         id="path4" />
    </clipPath>
    <clipPath
       clipPathUnits="userSpaceOnUse"
       id="clipPath6">
      <path
         d="M 0,0 H 2945.8333 V 963.98199 H 0 Z"
         transform="matrix(0.33403113,0,0,0.33403113,-0.50000001,-0.50000001)"
         clip-rule="evenodd"
         id="path6" />
    </clipPath>
    <clipPath
       clipPathUnits="userSpaceOnUse"
       id="clipPath8">
      <path
         d="M 0,0 H 2945.8333 V 963.98199 H 0 Z"
         transform="matrix(0.33403113,0,0,0.33403113,-0.50000001,-0.50000001)"
         clip-rule="evenodd"
         id="path8" />
    </clipPath>
    <clipPath
       clipPathUnits="userSpaceOnUse"
       id="clipPath10">
      <path
         d="M 0,0 H 2945.8333 V 963.98199 H 0 Z"
         transform="matrix(0.33403113,0,0,0.33403113,-0.50000001,-0.50000001)"
         clip-rule="evenodd"
         id="path10" />
    </clipPath>
    <clipPath
       clipPathUnits="userSpaceOnUse"
       id="clipPath12">
      <path
         d="M 0,0 H 2945.8333 V 963.98199 H 0 Z"
         transform="matrix(0.33403113,0,0,0.33403113,-0.50000001,-0.50000001)"
         clip-rule="evenodd"
         id="path12" />
    </clipPath>
    <clipPath
       clipPathUnits="userSpaceOnUse"
       id="clipPath14">
      <path
         d="M 0,0 H 2945.8333 V 963.98199 H 0 Z"
         transform="matrix(0.33403113,0,0,0.33403113,-0.50000001,-0.50000001)"
         clip-rule="evenodd"
         id="path14" />
    </clipPath>
    <clipPath
       clipPathUnits="userSpaceOnUse"
       id="clipPath16">
      <path
         d="M 0,0 H 2945.8333 V 963.98199 H 0 Z"
         transform="matrix(0.33403113,0,0,0.33403113,-0.50000001,-0.50000001)"
         clip-rule="evenodd"
         id="path16" />
    </clipPath>
    <clipPath
       clipPathUnits="userSpaceOnUse"
       id="clipPath18">
      <path
         d="M 0,0 H 2945.8333 V 963.98199 H 0 Z"
         transform="matrix(0.33403113,0,0,0.33403113,-0.50000001,-0.50000001)"
         clip-rule="evenodd"
         id="path18" />
    </clipPath>
    <clipPath
       clipPathUnits="userSpaceOnUse"
       id="clipPath20">
      <path
         d="M 0,0 H 2945.8333 V 963.98199 H 0 Z"
         transform="matrix(0.33403113,0,0,0.33403113,-0.50000001,-0.50000001)"
         clip-rule="evenodd"
         id="path20" />
    </clipPath>
    <clipPath
       clipPathUnits="userSpaceOnUse"
       id="clipPath22">
      <path
         d="M 0,0 H 2945.8333 V 963.98199 H 0 Z"
         transform="matrix(0.33403113,0,0,0.33403113,-0.50000001,-0.50000001)"
         clip-rule="evenodd"
         id="path22" />
    </clipPath>
    <clipPath
       clipPathUnits="userSpaceOnUse"
       id="clipPath24">
      <path
         d="M 0,0 H 2945.8333 V 963.98199 H 0 Z"
         transform="matrix(0.33403113,0,0,0.33403113,-0.50000001,-0.50000001)"
         clip-rule="evenodd"
         id="path24" />
    </clipPath>
    <clipPath
       clipPathUnits="userSpaceOnUse"
       id="clipPath26">
      <path
         d="M 0,0 H 2945.8333 V 963.98199 H 0 Z"
         transform="matrix(0.33403113,0,0,0.33403113,-0.50000001,-0.50000001)"
         clip-rule="evenodd"
         id="path26" />
    </clipPath>
    <clipPath
       clipPathUnits="userSpaceOnUse"
       id="clipPath28">
      <path
         d="M 0,0 H 2945.8333 V 963.98199 H 0 Z"
         transform="matrix(0.33403113,0,0,0.33403113,-0.50000001,-0.50000001)"
         clip-rule="evenodd"
         id="path28" />
    </clipPath>
    <clipPath
       clipPathUnits="userSpaceOnUse"
       id="clipPath30">
      <path
         d="M 0,0 H 2945.8333 V 963.98199 H 0 Z"
         transform="matrix(0.33403113,0,0,0.33403113,-0.50000001,-0.50000001)"
         clip-rule="evenodd"
         id="path30" />
    </clipPath>
    <clipPath
       clipPathUnits="userSpaceOnUse"
       id="clipPath31">
      <path
         d="M 0,0 H 2945.8333 V 963.98199 H 0 Z"
         transform="matrix(0.33402778,0,0,0.33402778,-63,-60)"
         clip-rule="evenodd"
         id="path31" />
    </clipPath>
    <clipPath
       clipPathUnits="userSpaceOnUse"
       id="clipPath32">
      <path
         d="M 0,0 H 2945.8333 V 963.98199 H 0 Z"
         transform="matrix(0.33402778,0,0,0.33402778,-133,-107.99999)"
         clip-rule="evenodd"
         id="path32" />
    </clipPath>
    <clipPath
       clipPathUnits="userSpaceOnUse"
       id="clipPath34">
      <path
         d="M 0,0 H 2945.8333 V 963.98199 H 0 Z"
         transform="matrix(0.33403113,0,0,0.33403113,-0.50000001,-0.50000001)"
         clip-rule="evenodd"
         id="path34" />
    </clipPath>
    <clipPath
       clipPathUnits="userSpaceOnUse"
       id="clipPath36">
      <path
         d="M 0,0 H 2945.8333 V 963.98199 H 0 Z"
         transform="matrix(0.33403113,0,0,0.33403113,-0.50000001,-0.50000001)"
         clip-rule="evenodd"
         id="path36" />
    </clipPath>
    <clipPath
       clipPathUnits="userSpaceOnUse"
       id="clipPath38">
      <path
         d="M 0,0 H 2945.8333 V 963.98199 H 0 Z"
         transform="matrix(0.33403113,0,0,0.33403113,-0.50000001,-0.50000001)"
         clip-rule="evenodd"
         id="path38" />
    </clipPath>
    <clipPath
       clipPathUnits="userSpaceOnUse"
       id="clipPath40">
      <path
         d="M 0,0 H 2945.8333 V 963.98199 H 0 Z"
         transform="matrix(0.33403113,0,0,0.33403113,-0.50000001,-0.50000001)"
         clip-rule="evenodd"
         id="path40" />
    </clipPath>
    <clipPath
       clipPathUnits="userSpaceOnUse"
       id="clipPath41">
      <path
         d="M 0,0 H 2945.8333 V 963.98199 H 0 Z"
         transform="matrix(0.33402778,0,0,0.33402778,-352.26562,-56)"
         clip-rule="evenodd"
         id="path41" />
    </clipPath>
    <clipPath
       clipPathUnits="userSpaceOnUse"
       id="clipPath43">
      <path
         d="M 0,0 H 2945.8333 V 963.98199 H 0 Z"
         transform="matrix(0.33403113,0,0,0.33403113,-0.50000001,-0.50000001)"
         clip-rule="evenodd"
         id="path43" />
    </clipPath>
    <clipPath
       clipPathUnits="userSpaceOnUse"
       id="clipPath44">
      <path
         d="M 0,0 H 2945.8333 V 963.98199 H 0 Z"
         transform="matrix(0.33402778,0,0,0.33402778,-341.35938,-88)"
         clip-rule="evenodd"
         id="path44" />
    </clipPath>
    <clipPath
       clipPathUnits="userSpaceOnUse"
       id="clipPath45">
      <path
         d="M 0,0 H 2945.8333 V 963.98199 H 0 Z"
         transform="matrix(0.33402778,0,0,0.33402778,-672.8125,-23)"
         clip-rule="evenodd"
         id="path45" />
    </clipPath>
    <clipPath
       clipPathUnits="userSpaceOnUse"
       id="clipPath47">
      <path
         d="M 0,0 H 2945.8333 V 963.98199 H 0 Z"
         transform="matrix(0.33403113,0,0,0.33403113,-0.50000001,-0.50000001)"
         clip-rule="evenodd"
         id="path47" />
    </clipPath>
    <clipPath
       clipPathUnits="userSpaceOnUse"
       id="clipPath49">
      <path
         d="M 0,0 H 2945.8333 V 963.98199 H 0 Z"
         transform="matrix(0.33403113,0,0,0.33403113,-0.50000001,-0.50000001)"
         clip-rule="evenodd"
         id="path49" />
    </clipPath>
    <clipPath
       clipPathUnits="userSpaceOnUse"
       id="clipPath51">
      <path
         d="M 0,0 H 2945.8333 V 963.98199 H 0 Z"
         transform="matrix(0.33403113,0,0,0.33403113,-0.50000001,-0.50000001)"
         clip-rule="evenodd"
         id="path51" />
    </clipPath>
    <clipPath
       clipPathUnits="userSpaceOnUse"
       id="clipPath52">
      <path
         d="M 0,0 H 2945.8333 V 963.98199 H 0 Z"
         transform="matrix(0.33402778,0,0,0.33402778,-509.1875,-87)"
         clip-rule="evenodd"
         id="path52" />
    </clipPath>
    <clipPath
       clipPathUnits="userSpaceOnUse"
       id="clipPath53">
      <path
         d="M 0,0 H 2945.8333 V 963.98199 H 0 Z"
         transform="matrix(0.33402778,0,0,0.33402778,-518.90625,-104)"
         clip-rule="evenodd"
         id="path53" />
    </clipPath>
    <clipPath
       clipPathUnits="userSpaceOnUse"
       id="clipPath54">
      <path
         d="M 0,0 H 2945.8333 V 963.98199 H 0 Z"
         transform="matrix(0.33402778,0,0,0.33402778,-519.51563,-121)"
         clip-rule="evenodd"
         id="path54" />
    </clipPath>
    <clipPath
       clipPathUnits="userSpaceOnUse"
       id="clipPath56">
      <path
         d="M 0,0 H 2945.8333 V 963.98199 H 0 Z"
         transform="matrix(0.33403113,0,0,0.33403113,-0.50000001,-0.50000001)"
         clip-rule="evenodd"
         id="path56" />
    </clipPath>
    <clipPath
       clipPathUnits="userSpaceOnUse"
       id="clipPath58">
      <path
         d="M 0,0 H 2945.8333 V 963.98199 H 0 Z"
         transform="matrix(0.33403113,0,0,0.33403113,-0.50000001,-0.50000001)"
         clip-rule="evenodd"
         id="path58" />
    </clipPath>
    <clipPath
       clipPathUnits="userSpaceOnUse"
       id="clipPath60">
      <path
         d="M 0,0 H 2945.8333 V 963.98199 H 0 Z"
         transform="matrix(0.33403113,0,0,0.33403113,-0.50000001,-0.50000001)"
         clip-rule="evenodd"
         id="path60" />
    </clipPath>
    <clipPath
       clipPathUnits="userSpaceOnUse"
       id="clipPath61">
      <path
         d="M 0,0 H 2945.8333 V 963.98199 H 0 Z"
         transform="matrix(0.33402778,0,0,0.33402778,-695.8125,-96.000001)"
         clip-rule="evenodd"
         id="path61" />
    </clipPath>
    <clipPath
       clipPathUnits="userSpaceOnUse"
       id="clipPath62">
      <path
         d="M 0,0 H 2945.8333 V 963.98199 H 0 Z"
         transform="matrix(0.33402778,0,0,0.33402778,-715.26563,-113)"
         clip-rule="evenodd"
         id="path62" />
    </clipPath>
    <clipPath
       clipPathUnits="userSpaceOnUse"
       id="clipPath64">
      <path
         d="M 0,0 H 2945.8333 V 963.98199 H 0 Z"
         transform="matrix(0.33403113,0,0,0.33403113,-0.50000001,-0.50000001)"
         clip-rule="evenodd"
         id="path64" />
    </clipPath>
    <clipPath
       clipPathUnits="userSpaceOnUse"
       id="clipPath66">
      <path
         d="M 0,0 H 2945.8333 V 963.98199 H 0 Z"
         transform="matrix(0.33403113,0,0,0.33403113,-0.50000001,-0.50000001)"
         clip-rule="evenodd"
         id="path66" />
    </clipPath>
    <clipPath
       clipPathUnits="userSpaceOnUse"
       id="clipPath68">
      <path
         d="M 0,0 H 2945.8333 V 963.98199 H 0 Z"
         transform="matrix(0.33403113,0,0,0.33403113,-0.50000001,-0.50000001)"
         clip-rule="evenodd"
         id="path68" />
    </clipPath>
    <clipPath
       clipPathUnits="userSpaceOnUse"
       id="clipPath69">
      <path
         d="M 0,0 H 2945.8333 V 963.98199 H 0 Z"
         transform="matrix(0.33402778,0,0,0.33402778,-861.64063,-87)"
         clip-rule="evenodd"
         id="path69" />
    </clipPath>
    <clipPath
       clipPathUnits="userSpaceOnUse"
       id="clipPath70">
      <path
         d="M 0,0 H 2945.8333 V 963.98199 H 0 Z"
         transform="matrix(0.33402778,0,0,0.33402778,-851.90625,-104)"
         clip-rule="evenodd"
         id="path70" />
    </clipPath>
    <clipPath
       clipPathUnits="userSpaceOnUse"
       id="clipPath71">
      <path
         d="M 0,0 H 2945.8333 V 963.98199 H 0 Z"
         transform="matrix(0.33402778,0,0,0.33402778,-854.23438,-121)"
         clip-rule="evenodd"
         id="path71" />
    </clipPath>
    <clipPath
       clipPathUnits="userSpaceOnUse"
       id="clipPath73">
      <path
         d="M 0,0 H 2945.8333 V 963.98199 H 0 Z"
         transform="matrix(0.33403113,0,0,0.33403113,-0.50000001,-0.50000001)"
         clip-rule="evenodd"
         id="path73" />
    </clipPath>
    <clipPath
       clipPathUnits="userSpaceOnUse"
       id="clipPath75">
      <path
         d="M 0,0 H 2945.8333 V 963.98199 H 0 Z"
         transform="matrix(0.33403113,0,0,0.33403113,-0.50000001,-0.50000001)"
         clip-rule="evenodd"
         id="path75" />
    </clipPath>
    <clipPath
       clipPathUnits="userSpaceOnUse"
       id="clipPath77">
      <path
         d="M 0,0 H 2945.8333 V 963.98199 H 0 Z"
         transform="scale(0.33402778)"
         clip-rule="evenodd"
         id="path77" />
    </clipPath>
    <clipPath
       clipPathUnits="userSpaceOnUse"
       id="clipPath78">
      <path
         d="M 0,0 H 2945.8333 V 963.98199 H 0 Z"
         transform="matrix(0.33402778,0,0,0.33402778,-804.60938,-206)"
         clip-rule="evenodd"
         id="path78" />
    </clipPath>
    <clipPath
       clipPathUnits="userSpaceOnUse"
       id="clipPath80">
      <path
         d="M 0,0 H 2945.8333 V 963.98199 H 0 Z"
         transform="matrix(0.33403113,0,0,0.33403113,-0.50000001,-0.50000001)"
         clip-rule="evenodd"
         id="path80" />
    </clipPath>
    <clipPath
       clipPathUnits="userSpaceOnUse"
       id="clipPath82">
      <path
         d="M 0,0 H 2945.8333 V 963.98199 H 0 Z"
         transform="matrix(0.33403113,0,0,0.33403113,-0.50000001,-0.50000001)"
         clip-rule="evenodd"
         id="path82" />
    </clipPath>
    <clipPath
       clipPathUnits="userSpaceOnUse"
       id="clipPath84">
      <path
         d="M 0,0 H 2945.8333 V 963.98199 H 0 Z"
         transform="scale(0.33402778)"
         clip-rule="evenodd"
         id="path84" />
    </clipPath>
    <clipPath
       clipPathUnits="userSpaceOnUse"
       id="clipPath85">
      <path
         d="M 0,0 H 2945.8333 V 963.98199 H 0 Z"
         transform="matrix(0.33402778,0,0,0.33402778,-806.71875,-261)"
         clip-rule="evenodd"
         id="path85" />
    </clipPath>
    <clipPath
       clipPathUnits="userSpaceOnUse"
       id="clipPath87">
      <path
         d="M 0,0 H 2945.8333 V 963.98199 H 0 Z"
         transform="matrix(0.33403113,0,0,0.33403113,-0.50000001,-0.50000001)"
         clip-rule="evenodd"
         id="path87" />
    </clipPath>
    <clipPath
       clipPathUnits="userSpaceOnUse"
       id="clipPath88">
      <path
         d="M 0,0 H 2945.8333 V 963.98199 H 0 Z"
         transform="matrix(0.33402778,0,0,0.33402778,-853.85938,-236)"
         clip-rule="evenodd"
         id="path88" />
    </clipPath>
    <clipPath
       clipPathUnits="userSpaceOnUse"
       id="clipPath90">
      <path
         d="M 0,0 H 2945.8333 V 963.98199 H 0 Z"
         transform="matrix(0.33403113,0,0,0.33403113,-0.50000001,-0.50000001)"
         clip-rule="evenodd"
         id="path90" />
    </clipPath>
    <clipPath
       clipPathUnits="userSpaceOnUse"
       id="clipPath91">
      <path
         d="M 0,0 H 2945.8333 V 963.98199 H 0 Z"
         transform="matrix(0.33402778,0,0,0.33402778,-653.96875,-177)"
         clip-rule="evenodd"
         id="path91" />
    </clipPath>
    <clipPath
       clipPathUnits="userSpaceOnUse"
       id="clipPath92">
      <path
         d="M 0,0 H 2945.8333 V 963.98199 H 0 Z"
         transform="matrix(0.33402778,0,0,0.33402778,-638.39063,-194)"
         clip-rule="evenodd"
         id="path92" />
    </clipPath>
    <clipPath
       clipPathUnits="userSpaceOnUse"
       id="clipPath93">
      <path
         d="M 0,0 H 2945.8333 V 963.98199 H 0 Z"
         transform="matrix(0.33402778,0,0,0.33402778,-668.75,-211)"
         clip-rule="evenodd"
         id="path93" />
    </clipPath>
    <clipPath
       clipPathUnits="userSpaceOnUse"
       id="clipPath95">
      <path
         d="M 0,0 H 2945.8333 V 963.98199 H 0 Z"
         transform="matrix(0.33403113,0,0,0.33403113,-0.50000001,-0.50000001)"
         clip-rule="evenodd"
         id="path95" />
    </clipPath>
    <clipPath
       clipPathUnits="userSpaceOnUse"
       id="clipPath96">
      <path
         d="M 0,0 H 2945.8333 V 963.98199 H 0 Z"
         transform="matrix(0.33402778,0,0,0.33402778,-636.07813,-262)"
         clip-rule="evenodd"
         id="path96" />
    </clipPath>
    <clipPath
       clipPathUnits="userSpaceOnUse"
       id="clipPath97">
      <path
         d="M 0,0 H 2945.8333 V 963.98199 H 0 Z"
         transform="matrix(0.33402778,0,0,0.33402778,-641.75,-279)"
         clip-rule="evenodd"
         id="path97" />
    </clipPath>
    <clipPath
       clipPathUnits="userSpaceOnUse"
       id="clipPath98">
      <path
         d="M 0,0 H 2945.8333 V 963.98199 H 0 Z"
         transform="matrix(0.33402778,0,0,0.33402778,-667.96875,-296)"
         clip-rule="evenodd"
         id="path98" />
    </clipPath>
  </defs>
  <sodipodi:namedview
     id="namedview1"
     pagecolor="#ffffff"
     bordercolor="#000000"
     borderopacity="0.25"
     inkscape:showpageshadow="2"
     inkscape:pageopacity="0.0"
     inkscape:pagecheckerboard="0"
     inkscape:deskcolor="#d1d1d1">
    <inkscape:page
       x="0"
       y="0"
       inkscape:label="1"
       id="page1"
       width="942.71997"
       height="309.44"
       margin="0"
       bleed="0" />
  </sodipodi:namedview>
  <g
     id="g1"
     inkscape:groupmode="layer"
     inkscape:label="1">
    <path
       id="path1"
       d="M 0,0 H 984 V 322 H 0 Z"
       style="fill:#ffffff;fill-opacity:1;fill-rule:nonzero;stroke:none"
       transform="scale(0.95799449)"
       clip-path="url(#clipPath2)" />
    <path
       id="path3"
       d="M 1,29 H 291 V 269 H 1 Z"
       style="fill:#ffffff;fill-opacity:1;fill-rule:nonzero;stroke:#666666;stroke-width:1;stroke-linecap:butt;stroke-linejoin:miter;stroke-miterlimit:10;stroke-dasharray:none;stroke-opacity:1"
       transform="matrix(0.95799449,0,0,0.95799449,0.47899725,0.47899725)"
       clip-path="url(#clipPath4)" />
    <path
       id="path5"
       d="m 236.00009,44 c -1e-5,0.656612 -0.0641,1.306919 -0.19215,1.95092 -0.12812,0.644001 -0.31781,1.269314 -0.56908,1.875946 -0.2513,0.606632 -0.55933,1.18293 -0.92412,1.728886 -0.36479,0.545955 -0.77934,1.051082 -1.24362,1.515381 -0.46431,0.464294 -0.96945,0.878837 -1.51539,1.243633 -0.54596,0.364796 -1.12226,0.672836 -1.7289,0.924114 -0.60663,0.251278 -1.23194,0.440964 -1.87593,0.569065 -0.64398,0.128102 -1.29428,0.192154 -1.9509,0.192154 -0.65663,0 -1.30695,-0.06405 -1.95094,-0.192154 -0.644,-0.128101 -1.26932,-0.317787 -1.87595,-0.569065 -0.60664,-0.251278 -1.18294,-0.559315 -1.72888,-0.92411 -0.54598,-0.364796 -1.0511,-0.779343 -1.5154,-1.243637 -0.46431,-0.464299 -0.87886,-0.969426 -1.24366,-1.515385 -0.3648,-0.545956 -0.67284,-1.12225 -0.92411,-1.728882 -0.25128,-0.606632 -0.44096,-1.231945 -0.56906,-1.875946 -0.1281,-0.644001 -0.19212,-1.294308 -0.19211,-1.95092 -1e-5,-0.656616 0.064,-1.306927 0.19211,-1.950928 0.1281,-0.644001 0.31778,-1.269317 0.56906,-1.87595 0.25127,-0.606632 0.55931,-1.18293 0.92411,-1.728885 0.3648,-0.545956 0.77935,-1.051079 1.24366,-1.515377 0.4643,-0.464299 0.96942,-0.878846 1.51538,-1.243641 0.54596,-0.364796 1.12226,-0.672833 1.7289,-0.924111 0.60663,-0.251274 1.23195,-0.44096 1.87595,-0.569057 0.64399,-0.128101 1.29431,-0.19215 1.95094,-0.19215 0.65662,0 1.30692,0.06405 1.95091,0.19215 0.64398,0.128097 1.26929,0.317783 1.87592,0.569061 0.60664,0.251278 1.18294,0.559311 1.7289,0.924107 0.54594,0.364795 1.05108,0.779342 1.51539,1.243641 0.46428,0.464298 0.87883,0.969421 1.24362,1.515377 0.36479,0.545955 0.67282,1.122253 0.92411,1.728885 0.25126,0.606633 0.44096,1.231949 0.56906,1.87595 0.12811,0.644001 0.19217,1.294312 0.19218,1.950928 z"
       style="fill:none;stroke:#666666;stroke-width:1;stroke-linecap:butt;stroke-linejoin:miter;stroke-miterlimit:10;stroke-dasharray:none;stroke-opacity:1"
       transform="matrix(0.95799449,0,0,0.95799449,0.47899725,0.47899725)"
       clip-path="url(#clipPath6)" />
    <path
       id="path7"
       d="m 261.00009,44 c -3e-5,0.656612 -0.0641,1.306919 -0.19217,1.95092 -0.12811,0.644001 -0.31781,1.269314 -0.56906,1.875946 -0.25128,0.606632 -0.55933,1.18293 -0.9241,1.728886 -0.36481,0.545955 -0.77936,1.051082 -1.24362,1.515381 -0.46433,0.464294 -0.96946,0.878837 -1.51538,1.243633 -0.54596,0.364796 -1.12229,0.672836 -1.72893,0.924114 -0.60663,0.251278 -1.23194,0.440964 -1.87593,0.569065 -0.644,0.128102 -1.2943,0.192154 -1.9509,0.192154 -0.65663,0 -1.30695,-0.06405 -1.95094,-0.192154 -0.644,-0.128101 -1.26932,-0.317787 -1.87596,-0.569065 -0.60665,-0.251278 -1.18294,-0.559315 -1.7289,-0.92411 -0.54595,-0.364796 -1.05107,-0.779343 -1.51537,-1.243637 -0.46429,-0.464299 -0.87884,-0.969426 -1.24365,-1.515385 -0.36479,-0.545956 -0.67284,-1.12225 -0.92412,-1.728882 C 241.5098,47.220234 241.3201,46.594921 241.192,45.95092 241.06392,45.306919 240.99988,44.656612 240.99989,44 c -1e-5,-0.656616 0.064,-1.306927 0.19211,-1.950928 0.1281,-0.644001 0.3178,-1.269317 0.56906,-1.87595 0.25128,-0.606632 0.55933,-1.18293 0.92412,-1.728885 0.36481,-0.545956 0.77936,-1.051079 1.24365,-1.515377 0.4643,-0.464299 0.96942,-0.878846 1.51537,-1.243641 0.54596,-0.364796 1.12225,-0.672833 1.7289,-0.924111 0.60664,-0.251274 1.23196,-0.44096 1.87596,-0.569057 0.64399,-0.128101 1.29431,-0.19215 1.95094,-0.19215 0.6566,0 1.3069,0.06405 1.9509,0.19215 0.64399,0.128097 1.2693,0.317783 1.87593,0.569061 0.60664,0.251278 1.18294,0.559311 1.7289,0.924107 0.54595,0.364795 1.05108,0.779342 1.51541,1.243641 0.46426,0.464298 0.87881,0.969421 1.24362,1.515377 0.36477,0.545955 0.67282,1.122253 0.9241,1.728885 0.25125,0.606633 0.44095,1.231949 0.56906,1.87595 0.12808,0.644001 0.19214,1.294312 0.19217,1.950928 z"
       style="fill:none;stroke:#666666;stroke-width:1;stroke-linecap:butt;stroke-linejoin:miter;stroke-miterlimit:10;stroke-dasharray:none;stroke-opacity:1"
       transform="matrix(0.95799449,0,0,0.95799449,0.47899725,0.47899725)"
       clip-path="url(#clipPath8)" />
    <path
       id="path9"
       d="m 286.00012,44 c -3e-5,0.656612 -0.0641,1.306919 -0.1922,1.95092 -0.12808,0.644001 -0.31778,1.269314 -0.56906,1.875946 -0.25128,0.606632 -0.55933,1.18293 -0.9241,1.728886 -0.36478,0.545955 -0.77933,1.051082 -1.24362,1.515381 -0.46433,0.464294 -0.96946,0.878837 -1.51545,1.243633 -0.54595,0.364796 -1.12225,0.672836 -1.72888,0.924114 -0.6066,0.251278 -1.2319,0.440964 -1.87588,0.569065 -0.64398,0.128102 -1.29428,0.192154 -1.95093,0.192154 -0.65665,0 -1.30695,-0.06405 -1.95096,-0.192154 -0.64401,-0.128101 -1.26932,-0.317787 -1.87594,-0.569065 -0.60663,-0.251278 -1.18293,-0.559315 -1.72892,-0.92411 -0.54593,-0.364796 -1.05102,-0.779343 -1.51535,-1.243637 -0.46429,-0.464299 -0.87884,-0.969426 -1.24365,-1.515385 -0.36481,-0.545956 -0.67285,-1.12225 -0.92413,-1.728882 -0.25128,-0.606632 -0.44095,-1.231945 -0.56903,-1.875946 -0.12809,-0.644001 -0.19214,-1.294308 -0.19211,-1.95092 -3e-5,-0.656616 0.064,-1.306927 0.19214,-1.950928 0.12805,-0.644001 0.31772,-1.269317 0.569,-1.87595 0.25128,-0.606632 0.55932,-1.18293 0.92413,-1.728885 0.36481,-0.545956 0.77936,-1.051079 1.24365,-1.515377 0.46433,-0.464299 0.96942,-0.878846 1.51535,-1.243641 0.54599,-0.364796 1.12229,-0.672833 1.72892,-0.924111 0.60662,-0.251274 1.23193,-0.44096 1.87594,-0.569057 0.64401,-0.128101 1.29431,-0.19215 1.95096,-0.19215 0.65665,0 1.30695,0.06405 1.95093,0.19215 0.64398,0.128097 1.26928,0.317783 1.87588,0.569061 0.60663,0.251278 1.18293,0.559311 1.72888,0.924107 0.54599,0.364795 1.05112,0.779342 1.51545,1.243641 0.46429,0.464298 0.87884,0.969421 1.24362,1.515377 0.36477,0.545955 0.67282,1.122253 0.9241,1.728885 0.25128,0.606633 0.44098,1.231949 0.56906,1.87595 0.12812,0.644001 0.19217,1.294312 0.1922,1.950928 z"
       style="fill:none;stroke:#008cff;stroke-width:1;stroke-linecap:butt;stroke-linejoin:miter;stroke-miterlimit:10;stroke-dasharray:none;stroke-opacity:1"
       transform="matrix(0.95799449,0,0,0.95799449,0.47899725,0.47899725)"
       clip-path="url(#clipPath10)" />
    <path
       id="path11"
       d="M 1,69 H 31 V 44 c 0,-2.759998 2.240002,-5 5,-5 h 135 c 2.75999,0 5,2.240002 5,5 v 25 h 115"
       style="fill:none;stroke:#c4c4c4;stroke-width:1;stroke-linecap:butt;stroke-linejoin:miter;stroke-miterlimit:10;stroke-dasharray:none;stroke-opacity:1"
       transform="matrix(0.95799449,0,0,0.95799449,0.47899725,0.47899725)"
       clip-path="url(#clipPath12)" />
    <path
       id="path13"
       d="M 1,139 H 291"
       style="fill:none;stroke:#c4c4c4;stroke-width:1;stroke-linecap:butt;stroke-linejoin:miter;stroke-miterlimit:10;stroke-dasharray:none;stroke-opacity:1"
       transform="matrix(0.95799449,0,0,0.95799449,0.47899725,0.47899725)"
       clip-path="url(#clipPath14)" />
    <path
       id="path15"
       d="m 101,89 c 0,-2.760002 2.24,-5 5,-5 h 170 c 2.76001,0 5,2.239998 5,5 v 25 c 0,2.76 -2.23999,5 -5,5 H 106 c -2.76,0 -5,-2.24 -5,-5 z"
       style="fill:none;stroke:#c4c4c4;stroke-width:1;stroke-linecap:butt;stroke-linejoin:miter;stroke-miterlimit:10;stroke-dasharray:none;stroke-opacity:1"
       transform="matrix(0.95799449,0,0,0.95799449,0.47899725,0.47899725)"
       clip-path="url(#clipPath16)" />
    <path
       id="path17"
       d="m 38,46 h 11 l 4,4 V 64 H 38 Z"
       style="fill:none;stroke:#c4c4c4;stroke-width:1;stroke-linecap:butt;stroke-linejoin:miter;stroke-miterlimit:10;stroke-dasharray:none;stroke-opacity:1"
       transform="matrix(0.95799449,0,0,0.95799449,0.47899725,0.47899725)"
       clip-path="url(#clipPath18)" />
    <path
       id="path19"
       d="m 49,46 v 4 l 4,1"
       style="fill:none;stroke:#c4c4c4;stroke-width:1;stroke-linecap:butt;stroke-linejoin:miter;stroke-miterlimit:10;stroke-dasharray:none;stroke-opacity:1"
       transform="matrix(0.95799449,0,0,0.95799449,0.47899725,0.47899725)"
       clip-path="url(#clipPath20)" />
    <path
       id="path21"
       d="m 108,93 h 11 l 4,4 v 14 h -15 z"
       style="fill:none;stroke:#c4c4c4;stroke-width:1;stroke-linecap:butt;stroke-linejoin:miter;stroke-miterlimit:10;stroke-dasharray:none;stroke-opacity:1"
       transform="matrix(0.95799449,0,0,0.95799449,0.47899725,0.47899725)"
       clip-path="url(#clipPath22)" />
    <path
       id="path23"
       d="m 119,93 v 4 l 4,1"
       style="fill:none;stroke:#c4c4c4;stroke-width:1;stroke-linecap:butt;stroke-linejoin:miter;stroke-miterlimit:10;stroke-dasharray:none;stroke-opacity:1"
       transform="matrix(0.95799449,0,0,0.95799449,0.47899725,0.47899725)"
       clip-path="url(#clipPath24)" />
    <path
       id="path25"
       d="M 13,103 23,93 v 6 h 10 v 8 H 23 v 6 z"
       style="fill:#c4c4c4;fill-opacity:1;fill-rule:nonzero;stroke:#c4c4c4;stroke-width:1;stroke-linecap:butt;stroke-linejoin:miter;stroke-miterlimit:10;stroke-dasharray:none;stroke-opacity:1"
       transform="matrix(0.95799449,0,0,0.95799449,0.47899725,0.47899725)"
       clip-path="url(#clipPath26)" />
    <path
       id="path27"
       d="M 63,103 53,93 v 6 H 43 v 8 h 10 v 6 z"
       style="fill:#c4c4c4;fill-opacity:1;fill-rule:nonzero;stroke:#c4c4c4;stroke-width:1;stroke-linecap:butt;stroke-linejoin:miter;stroke-miterlimit:10;stroke-dasharray:none;stroke-opacity:1"
       transform="matrix(0.95799449,0,0,0.95799449,0.47899725,0.47899725)"
       clip-path="url(#clipPath28)" />
    <path
       id="path29"
       d="m 88.599998,106.3 c -1.699996,2.84 -5.379997,3.76 -8.220001,2.06 -2.839996,-1.69 -3.769996,-5.36 -2.079994,-8.21 1.68,-2.840002 5.349999,-3.789999 8.199997,-2.109999 L 84.900002,99.5 92.800003,101.3 91,93.800003 89.300003,95.400002 C 86.110001,93.029999 81.800003,92.82 78.400002,94.870003 74.989998,96.919998 73.160004,100.83 73.769997,104.76 c 0.61,3.93 3.530006,7.1 7.390007,8.03 3.869995,0.93 7.909996,-0.56 10.239998,-3.79 z"
       style="fill:#c4c4c4;fill-opacity:1;fill-rule:nonzero;stroke:#c4c4c4;stroke-width:1;stroke-linecap:butt;stroke-linejoin:miter;stroke-miterlimit:10;stroke-dasharray:none;stroke-opacity:1"
       transform="matrix(0.95799449,0,0,0.95799449,0.47899725,0.47899725)"
       clip-path="url(#clipPath30)" />
    <text
       id="text30"
       xml:space="preserve"
       transform="matrix(0.95800412,0,0,0.95800412,60.35426,57.480247)"
       clip-path="url(#clipPath31)"><tspan
         style="font-variant:normal;font-weight:normal;font-size:17px;font-family:Helvetica;writing-mode:lr-tb;fill:#666666;fill-opacity:1;fill-rule:nonzero;stroke:none"
         x="0 11.338867 20.793457 30.248047 39.702637 44.425781"
         y="0"
         sodipodi:role="line"
         id="tspan30">Page 1</tspan></text>
    <text
       id="text31"
       xml:space="preserve"
       transform="matrix(0.95800412,0,0,0.95800412,127.41455,103.46444)"
       clip-path="url(#clipPath32)"><tspan
         style="font-variant:normal;font-weight:normal;font-size:17px;font-family:Helvetica;writing-mode:lr-tb;fill:#666666;fill-opacity:1;fill-rule:nonzero;stroke:none"
         x="0 9.4545898 14.177734 18.900879 28.355469 36.855469 41.578613 46.301758 51.024902 63.301758 75.578613 86.925781 91.648926 101.10352 106.76465 116.21924 127.56641 132.28955 136.06641"
         y="0"
         sodipodi:role="line"
         id="tspan31">https://www.draw.io</tspan></text>
    <path
       id="path33"
       d="M 481,29 H 981.01001 V 319 H 481 Z"
       style="fill:#ffffff;fill-opacity:1;fill-rule:nonzero;stroke:#000000;stroke-width:1;stroke-linecap:butt;stroke-linejoin:miter;stroke-miterlimit:10;stroke-dasharray:none;stroke-opacity:1"
       transform="matrix(0.95799449,0,0,0.95799449,0.47899725,0.47899725)"
       clip-path="url(#clipPath34)" />
    <path
       id="path35"
       d="M 291,99 H 470.89999"
       style="fill:none;stroke:#000000;stroke-width:1;stroke-linecap:butt;stroke-linejoin:miter;stroke-miterlimit:10;stroke-dasharray:none;stroke-opacity:1"
       transform="matrix(0.95799449,0,0,0.95799449,0.47899725,0.47899725)"
       clip-path="url(#clipPath36)" />
    <path
       id="path37"
       d="m 477.64999,99 -9,4.5 2.25,-4.5 -2.25,-4.5 z"
       style="fill:#000000;fill-opacity:1;fill-rule:nonzero;stroke:#000000;stroke-width:1;stroke-linecap:butt;stroke-linejoin:miter;stroke-miterlimit:10;stroke-dasharray:none;stroke-opacity:1"
       transform="matrix(0.95799449,0,0,0.95799449,0.47899725,0.47899725)"
       clip-path="url(#clipPath38)" />
    <path
       id="path39"
       d="m 331,35 h 90 v 32 h -90 z"
       style="fill:#ffffff;fill-opacity:1;fill-rule:nonzero;stroke:#000000;stroke-width:1;stroke-linecap:butt;stroke-linejoin:miter;stroke-miterlimit:10;stroke-dasharray:none;stroke-opacity:1"
       transform="matrix(0.95799449,0,0,0.95799449,0.47899725,0.47899725)"
       clip-path="url(#clipPath40)" />
    <text
       id="text40"
       xml:space="preserve"
       transform="matrix(0.95800412,0,0,0.95800412,337.47192,53.648231)"
       clip-path="url(#clipPath41)"><tspan
         style="font-variant:normal;font-weight:normal;font-size:14px;font-family:Helvetica;writing-mode:lr-tb;fill:#000000;fill-opacity:1;fill-rule:nonzero;stroke:none"
         x="0 7 14.786133 21.786133 28.786133 31.896484 39.682617"
         y="0"
         sodipodi:role="line"
         id="tspan40">session</tspan></text>
    <path
       id="path42"
       d="m 331,67 h 90 v 32 h -90 z"
       style="fill:#ffffff;fill-opacity:1;fill-rule:nonzero;stroke:#000000;stroke-width:1;stroke-linecap:butt;stroke-linejoin:miter;stroke-miterlimit:10;stroke-dasharray:none;stroke-opacity:1"
       transform="matrix(0.95799449,0,0,0.95799449,0.47899725,0.47899725)"
       clip-path="url(#clipPath43)" />
    <text
       id="text43"
       xml:space="preserve"
       transform="matrix(0.95800412,0,0,0.95800412,327.02369,84.304363)"
       clip-path="url(#clipPath44)"><tspan
         style="font-variant:normal;font-weight:normal;font-size:14px;font-family:Helvetica;writing-mode:lr-tb;fill:#000000;fill-opacity:1;fill-rule:nonzero;stroke:none"
         x="0 7 14.786133 21.786133 28.786133 31.896484 39.682617 47.46875 51.358398 58.358398 61.46875"
         y="0"
         sodipodi:role="line"
         id="tspan43">session.sig</tspan></text>
    <text
       id="text44"
       xml:space="preserve"
       transform="matrix(0.95800412,0,0,0.95800412,644.55715,22.034095)"
       clip-path="url(#clipPath45)"><tspan
         style="font-variant:normal;font-weight:normal;font-size:24px;font-family:Helvetica;writing-mode:lr-tb;fill:#000000;fill-opacity:1;fill-rule:nonzero;stroke:none"
         x="0 18.667969 32.015625 40.007812 46.675781 62.683594 76.03125 84.023438 96.023438 109.37109"
         y="0"
         sodipodi:role="line"
         id="tspan44">Our Server</tspan></text>
    <path
       id="path46"
       d="m 631.01001,99 h 32.89001"
       style="fill:none;stroke:#000000;stroke-width:1;stroke-linecap:butt;stroke-linejoin:miter;stroke-miterlimit:10;stroke-dasharray:none;stroke-opacity:1"
       transform="matrix(0.95799449,0,0,0.95799449,0.47899725,0.47899725)"
       clip-path="url(#clipPath47)" />
    <path
       id="path48"
       d="m 670.65002,99 -9,4.5 2.25,-4.5 -2.25,-4.5 z"
       style="fill:#000000;fill-opacity:1;fill-rule:nonzero;stroke:#000000;stroke-width:1;stroke-linecap:butt;stroke-linejoin:miter;stroke-miterlimit:10;stroke-dasharray:none;stroke-opacity:1"
       transform="matrix(0.95799449,0,0,0.95799449,0.47899725,0.47899725)"
       clip-path="url(#clipPath49)" />
    <path
       id="path50"
       d="m 501.01001,69 h 130 v 60 h -130 z"
       style="fill:#ffffff;fill-opacity:1;fill-rule:nonzero;stroke:#000000;stroke-width:1;stroke-linecap:butt;stroke-linejoin:miter;stroke-miterlimit:10;stroke-dasharray:none;stroke-opacity:1"
       transform="matrix(0.95799449,0,0,0.95799449,0.47899725,0.47899725)"
       clip-path="url(#clipPath51)" />
    <text
       id="text51"
       xml:space="preserve"
       transform="matrix(0.95800412,0,0,0.95800412,487.80372,83.346358)"
       clip-path="url(#clipPath52)"><tspan
         style="font-variant:normal;font-weight:normal;font-size:14px;font-family:Helvetica;writing-mode:lr-tb;fill:#000000;fill-opacity:1;fill-rule:nonzero;stroke:none"
         x="0 10.110352 17.110352 24.896484 28.786133 35.786133 43.572266 50.572266 57.572266 60.682617 68.46875 76.254883 80.144531 87.144531 90.254883 98.041016 101.93066 105.82031"
         y="0"
         sodipodi:role="line"
         id="tspan51">Use session.sig to</tspan></text>
    <text
       id="text52"
       xml:space="preserve"
       transform="matrix(0.95800412,0,0,0.95800412,497.11433,99.632428)"
       clip-path="url(#clipPath53)"><tspan
         style="font-variant:normal;font-weight:normal;font-size:14px;font-family:Helvetica;writing-mode:lr-tb;fill:#000000;fill-opacity:1;fill-rule:nonzero;stroke:none"
         x="0 7.7861328 15.572266 22.572266 30.358398 35.020508 42.806641 46.696289 53.696289 61.482422 68.482422 75.482422 78.592773 86.378906"
         y="0"
         sodipodi:role="line"
         id="tspan52">ensure session</tspan></text>
    <text
       id="text53"
       xml:space="preserve"
       transform="matrix(0.95800412,0,0,0.95800412,497.69811,115.9185)"
       clip-path="url(#clipPath54)"><tspan
         style="font-variant:normal;font-weight:normal;font-size:14px;font-family:Helvetica;writing-mode:lr-tb;fill:#000000;fill-opacity:1;fill-rule:nonzero;stroke:none"
         x="0 10.110352 17.896484 24.896484 32.682617 35.355469 39.245117 43.134766 47.024414 54.810547 62.59668 69.59668 77.382812 85.168945"
         y="0"
         sodipodi:role="line"
         id="tspan53">wasn't touched</tspan></text>
    <path
       id="path55"
       d="M 804.01001,99 H 824 h -3 9.90002"
       style="fill:none;stroke:#000000;stroke-width:1;stroke-linecap:butt;stroke-linejoin:miter;stroke-miterlimit:10;stroke-dasharray:none;stroke-opacity:1"
       transform="matrix(0.95799449,0,0,0.95799449,0.47899725,0.47899725)"
       clip-path="url(#clipPath56)" />
    <path
       id="path57"
       d="m 837.65002,99 -9,4.5 2.25,-4.5 -2.25,-4.5 z"
       style="fill:#000000;fill-opacity:1;fill-rule:nonzero;stroke:#000000;stroke-width:1;stroke-linecap:butt;stroke-linejoin:miter;stroke-miterlimit:10;stroke-dasharray:none;stroke-opacity:1"
       transform="matrix(0.95799449,0,0,0.95799449,0.47899725,0.47899725)"
       clip-path="url(#clipPath58)" />
    <path
       id="path59"
       d="m 674.01001,69 h 130 v 60 h -130 z"
       style="fill:#ffffff;fill-opacity:1;fill-rule:nonzero;stroke:#000000;stroke-width:1;stroke-linecap:butt;stroke-linejoin:miter;stroke-miterlimit:10;stroke-dasharray:none;stroke-opacity:1"
       transform="matrix(0.95799449,0,0,0.95799449,0.47899725,0.47899725)"
       clip-path="url(#clipPath60)" />
    <text
       id="text60"
       xml:space="preserve"
       transform="matrix(0.95800412,0,0,0.95800412,666.59124,91.968396)"
       clip-path="url(#clipPath61)"><tspan
         style="font-variant:normal;font-weight:normal;font-size:14px;font-family:Helvetica;writing-mode:lr-tb;fill:#000000;fill-opacity:1;fill-rule:nonzero;stroke:none"
         x="0 9.3378906 16.337891 23.337891 31.124023 38.124023 45.124023 49.013672 52.124023 59.910156 63.799805 71.585938 75.475586 78.585938"
         y="0"
         sodipodi:role="line"
         id="tspan60">Access info in</tspan></text>
    <text
       id="text61"
       xml:space="preserve"
       transform="matrix(0.95800412,0,0,0.95800412,685.22742,108.25447)"
       clip-path="url(#clipPath62)"><tspan
         style="font-variant:normal;font-weight:normal;font-size:14px;font-family:Helvetica;writing-mode:lr-tb;fill:#000000;fill-opacity:1;fill-rule:nonzero;stroke:none"
         x="0 7 14.786133 21.786133 28.786133 31.896484 39.682617"
         y="0"
         sodipodi:role="line"
         id="tspan61">session</tspan></text>
    <path
       id="path63"
       d="m 906.01001,129 v 61.89999"
       style="fill:none;stroke:#000000;stroke-width:1;stroke-linecap:butt;stroke-linejoin:miter;stroke-miterlimit:10;stroke-dasharray:none;stroke-opacity:1"
       transform="matrix(0.95799449,0,0,0.95799449,0.47899725,0.47899725)"
       clip-path="url(#clipPath64)" />
    <path
       id="path65"
       d="m 906.01001,197.64999 -4.5,-9 4.5,2.25 4.5,-2.25 z"
       style="fill:#000000;fill-opacity:1;fill-rule:nonzero;stroke:#000000;stroke-width:1;stroke-linecap:butt;stroke-linejoin:miter;stroke-miterlimit:10;stroke-dasharray:none;stroke-opacity:1"
       transform="matrix(0.95799449,0,0,0.95799449,0.47899725,0.47899725)"
       clip-path="url(#clipPath66)" />
    <path
       id="path67"
       d="m 841.01001,69 h 130 v 60 h -130 z"
       style="fill:#ffffff;fill-opacity:1;fill-rule:nonzero;stroke:#000000;stroke-width:1;stroke-linecap:butt;stroke-linejoin:miter;stroke-miterlimit:10;stroke-dasharray:none;stroke-opacity:1"
       transform="matrix(0.95799449,0,0,0.95799449,0.47899725,0.47899725)"
       clip-path="url(#clipPath68)" />
    <text
       id="text68"
       xml:space="preserve"
       transform="matrix(0.95800412,0,0,0.95800412,825.45527,83.346358)"
       clip-path="url(#clipPath69)"><tspan
         style="font-variant:normal;font-weight:normal;font-size:14px;font-family:Helvetica;writing-mode:lr-tb;fill:#000000;fill-opacity:1;fill-rule:nonzero;stroke:none"
         x="0 10.110352 17.110352 24.896484 28.786133 36.572266 43.572266 51.358398 56.020508 59.910156 63.799805 73.910156 77.799805 80.910156"
         y="0"
         sodipodi:role="line"
         id="tspan68">Use user ID in</tspan></text>
    <text
       id="text69"
       xml:space="preserve"
       transform="matrix(0.95800412,0,0,0.95800412,816.1297,99.632428)"
       clip-path="url(#clipPath70)"><tspan
         style="font-variant:normal;font-weight:normal;font-size:14px;font-family:Helvetica;writing-mode:lr-tb;fill:#000000;fill-opacity:1;fill-rule:nonzero;stroke:none"
         x="0 7 14.786133 21.786133 28.786133 31.896484 39.682617 47.46875 51.358398 55.248047 63.03418 66.923828 70.03418 77.820312 85.606445 92.606445 100.39258"
         y="0"
         sodipodi:role="line"
         id="tspan69">session to lookup</tspan></text>
    <text
       id="text70"
       xml:space="preserve"
       transform="matrix(0.95800412,0,0,0.95800412,818.36006,115.9185)"
       clip-path="url(#clipPath71)"><tspan
         style="font-variant:normal;font-weight:normal;font-size:14px;font-family:Helvetica;writing-mode:lr-tb;fill:#000000;fill-opacity:1;fill-rule:nonzero;stroke:none"
         x="0 7.7861328 14.786133 22.572266 27.234375 31.124023 34.234375 42.020508 45.910156 53.696289 61.482422 65.37207 73.158203 80.944336 88.730469 95.730469"
         y="0"
         sodipodi:role="line"
         id="tspan70">user in database</tspan></text>
    <path
       id="path72"
       d="M 841.01001,216 H 801 v -27 h -29.89001"
       style="fill:none;stroke:#000000;stroke-width:1;stroke-linecap:butt;stroke-linejoin:miter;stroke-miterlimit:10;stroke-dasharray:none;stroke-opacity:1"
       transform="matrix(0.95799449,0,0,0.95799449,0.47899725,0.47899725)"
       clip-path="url(#clipPath73)" />
    <path
       id="path74"
       d="m 764.35999,189 9,-4.5 -2.25,4.5 2.25,4.5 z"
       style="fill:#000000;fill-opacity:1;fill-rule:nonzero;stroke:#000000;stroke-width:1;stroke-linecap:butt;stroke-linejoin:miter;stroke-miterlimit:10;stroke-dasharray:none;stroke-opacity:1"
       transform="matrix(0.95799449,0,0,0.95799449,0.47899725,0.47899725)"
       clip-path="url(#clipPath75)" />
    <path
       id="path76"
       d="m 805,193 h 21 v 17 h -21 z"
       style="fill:#ffffff;fill-opacity:1;fill-rule:nonzero;stroke:none"
       transform="scale(0.95800412)"
       clip-path="url(#clipPath77)" />
    <text
       id="text77"
       xml:space="preserve"
       transform="matrix(0.95800412,0,0,0.95800412,770.8191,197.34885)"
       clip-path="url(#clipPath78)"><tspan
         style="font-variant:normal;font-weight:normal;font-size:14px;font-family:Helvetica;writing-mode:lr-tb;fill:#000000;fill-opacity:1;fill-rule:nonzero;stroke:none"
         x="0 7 14.786133"
         y="0"
         sodipodi:role="line"
         id="tspan77">yes</tspan></text>
    <path
       id="path79"
       d="M 841.01001,246 H 801 v 28 h -29.89001"
       style="fill:none;stroke:#000000;stroke-width:1;stroke-linecap:butt;stroke-linejoin:miter;stroke-miterlimit:10;stroke-dasharray:none;stroke-opacity:1"
       transform="matrix(0.95799449,0,0,0.95799449,0.47899725,0.47899725)"
       clip-path="url(#clipPath80)" />
    <path
       id="path81"
       d="m 764.35999,274 9,-4.5 -2.25,4.5 2.25,4.5 z"
       style="fill:#000000;fill-opacity:1;fill-rule:nonzero;stroke:#000000;stroke-width:1;stroke-linecap:butt;stroke-linejoin:miter;stroke-miterlimit:10;stroke-dasharray:none;stroke-opacity:1"
       transform="matrix(0.95799449,0,0,0.95799449,0.47899725,0.47899725)"
       clip-path="url(#clipPath82)" />
    <path
       id="path83"
       d="m 807,248 h 15 v 17 h -15 z"
       style="fill:#ffffff;fill-opacity:1;fill-rule:nonzero;stroke:none"
       transform="scale(0.95800412)"
       clip-path="url(#clipPath84)" />
    <text
       id="text84"
       xml:space="preserve"
       transform="matrix(0.95800412,0,0,0.95800412,772.83989,250.03908)"
       clip-path="url(#clipPath85)"><tspan
         style="font-variant:normal;font-weight:normal;font-size:14px;font-family:Helvetica;writing-mode:lr-tb;fill:#000000;fill-opacity:1;fill-rule:nonzero;stroke:none"
         x="0 7.7861328"
         y="0"
         sodipodi:role="line"
         id="tspan84">no</tspan></text>
    <path
       id="path86"
       d="m 841.01001,201 h 130 v 60 h -130 z"
       style="fill:#ffffff;fill-opacity:1;fill-rule:nonzero;stroke:#000000;stroke-width:1;stroke-linecap:butt;stroke-linejoin:miter;stroke-miterlimit:10;stroke-dasharray:none;stroke-opacity:1"
       transform="matrix(0.95799449,0,0,0.95799449,0.47899725,0.47899725)"
       clip-path="url(#clipPath87)" />
    <text
       id="text87"
       xml:space="preserve"
       transform="matrix(0.95800412,0,0,0.95800412,818.0008,226.08897)"
       clip-path="url(#clipPath88)"><tspan
         style="font-variant:normal;font-weight:normal;font-size:14px;font-family:Helvetica;writing-mode:lr-tb;fill:#000000;fill-opacity:1;fill-rule:nonzero;stroke:none"
         x="0 10.110352 17.896484 25.682617 32.682617 36.572266 44.358398 51.358398 59.144531 63.806641 67.696289 75.482422 82.482422 85.592773 92.592773 96.482422"
         y="0"
         sodipodi:role="line"
         id="tspan87">Does user exist?</tspan></text>
    <path
       id="path89"
       d="m 631.01001,159 h 130 v 60 h -130 z"
       style="fill:#ffffff;fill-opacity:1;fill-rule:nonzero;stroke:#000000;stroke-width:1;stroke-linecap:butt;stroke-linejoin:miter;stroke-miterlimit:10;stroke-dasharray:none;stroke-opacity:1"
       transform="matrix(0.95799449,0,0,0.95799449,0.47899725,0.47899725)"
       clip-path="url(#clipPath90)" />
    <text
       id="text90"
       xml:space="preserve"
       transform="matrix(0.95800412,0,0,0.95800412,626.50476,169.56673)"
       clip-path="url(#clipPath91)"><tspan
         style="font-variant:normal;font-weight:normal;font-size:14px;font-family:Helvetica;writing-mode:lr-tb;fill:#000000;fill-opacity:1;fill-rule:nonzero;stroke:none"
         x="0 8.5517578 16.337891 24.124023 28.013672 31.124023 38.910156 45.910156 53.696289 65.358398 68.46875 76.254883"
         y="0"
         sodipodi:role="line"
         id="tspan90">The incoming</tspan></text>
    <text
       id="text91"
       xml:space="preserve"
       transform="matrix(0.95800412,0,0,0.95800412,611.58085,185.8528)"
       clip-path="url(#clipPath92)"><tspan
         style="font-variant:normal;font-weight:normal;font-size:14px;font-family:Helvetica;writing-mode:lr-tb;fill:#000000;fill-opacity:1;fill-rule:nonzero;stroke:none"
         x="0 4.6621094 12.448242 20.234375 28.020508 35.806641 42.806641 46.696289 50.585938 58.37207 66.158203 69.268555 77.054688 84.84082 92.626953 99.626953 103.5166 107.40625"
         y="0"
         sodipodi:role="line"
         id="tspan91">request belongs to</tspan></text>
    <text
       id="text92"
       xml:space="preserve"
       transform="matrix(0.95800412,0,0,0.95800412,640.66526,202.13887)"
       clip-path="url(#clipPath93)"><tspan
         style="font-variant:normal;font-weight:normal;font-size:14px;font-family:Helvetica;writing-mode:lr-tb;fill:#000000;fill-opacity:1;fill-rule:nonzero;stroke:none"
         x="0 3.8896484 11.675781 19.461914 23.351562 27.241211 35.027344 42.027344 49.813477"
         y="0"
         sodipodi:role="line"
         id="tspan92">that user</tspan></text>
    <path
       id="path94"
       d="m 631.01001,244 h 130 v 60 h -130 z"
       style="fill:#ffffff;fill-opacity:1;fill-rule:nonzero;stroke:#000000;stroke-width:1;stroke-linecap:butt;stroke-linejoin:miter;stroke-miterlimit:10;stroke-dasharray:none;stroke-opacity:1"
       transform="matrix(0.95799449,0,0,0.95799449,0.47899725,0.47899725)"
       clip-path="url(#clipPath95)" />
    <text
       id="text95"
       xml:space="preserve"
       transform="matrix(0.95800412,0,0,0.95800412,609.36547,250.99708)"
       clip-path="url(#clipPath96)"><tspan
         style="font-variant:normal;font-weight:normal;font-size:14px;font-family:Helvetica;writing-mode:lr-tb;fill:#000000;fill-opacity:1;fill-rule:nonzero;stroke:none"
         x="0 9.3378906 17.124023 28.786133 36.572266 40.461914 48.248047 51.358398 59.144531 66.930664 73.930664 77.820312 87.930664 92.592773 100.37891 108.16504 115.95117"
         y="0"
         sodipodi:role="line"
         id="tspan95">Somethings wrong,</tspan></text>
    <text
       id="text96"
       xml:space="preserve"
       transform="matrix(0.95800412,0,0,0.95800412,614.79914,267.28315)"
       clip-path="url(#clipPath97)"><tspan
         style="font-variant:normal;font-weight:normal;font-size:14px;font-family:Helvetica;writing-mode:lr-tb;fill:#000000;fill-opacity:1;fill-rule:nonzero;stroke:none"
         x="0 7.7861328 14.786133 21.786133 29.572266 41.234375 49.020508 52.910156 60.696289 67.696289 75.482422 80.144531 84.03418 87.144531 94.144531 101.93066 104.60352"
         y="0"
         sodipodi:role="line"
         id="tspan96">assume user isn't</tspan></text>
    <text
       id="text97"
       xml:space="preserve"
       transform="matrix(0.95800412,0,0,0.95800412,639.91681,283.56922)"
       clip-path="url(#clipPath98)"><tspan
         style="font-variant:normal;font-weight:normal;font-size:14px;font-family:Helvetica;writing-mode:lr-tb;fill:#000000;fill-opacity:1;fill-rule:nonzero;stroke:none"
         x="0 7 10.110352 17.896484 25.682617 33.46875 41.254883 45.144531 48.254883"
         y="0"
         sodipodi:role="line"
         id="tspan97">signed in</tspan></text>
  </g>
</svg>
