<?xml version="1.0" encoding="UTF-8" standalone="no"?>
<!-- Created with Inkscape (http://www.inkscape.org/) -->

<svg
   version="1.1"
   id="svg1"
   width="730.56"
   height="333.44"
   viewBox="0 0 730.56 333.44"
   sodipodi:docname="node-10.pdf"
   xmlns:inkscape="http://www.inkscape.org/namespaces/inkscape"
   xmlns:sodipodi="http://sodipodi.sourceforge.net/DTD/sodipodi-0.dtd"
   xmlns="http://www.w3.org/2000/svg"
   xmlns:svg="http://www.w3.org/2000/svg">
  <defs
     id="defs1">
    <clipPath
       clipPathUnits="userSpaceOnUse"
       id="clipPath2">
      <path
         d="M 0,0 H 2283.3333 V 1039.7856 H 0 Z"
         transform="scale(0.33372264)"
         clip-rule="evenodd"
         id="path2" />
    </clipPath>
    <clipPath
       clipPathUnits="userSpaceOnUse"
       id="clipPath4">
      <path
         d="M 0,0 H 2283.3333 V 1036.7891 H 0 Z"
         transform="scale(0.33372264)"
         clip-rule="evenodd"
         id="path4" />
    </clipPath>
    <clipPath
       clipPathUnits="userSpaceOnUse"
       id="clipPath6">
      <path
         d="M 0,0 H 2283.3333 V 1036.7891 H 0 Z"
         transform="scale(0.33372264)"
         clip-rule="evenodd"
         id="path6" />
    </clipPath>
    <clipPath
       clipPathUnits="userSpaceOnUse"
       id="clipPath8">
      <path
         d="M 0,0 H 2283.3333 V 1036.7891 H 0 Z"
         transform="scale(0.33372264)"
         clip-rule="evenodd"
         id="path8" />
    </clipPath>
    <clipPath
       clipPathUnits="userSpaceOnUse"
       id="clipPath10">
      <path
         d="M 0,0 H 2283.3333 V 1036.7891 H 0 Z"
         transform="matrix(0.33372264,0,0,0.33372264,-0.49999999,-0.49999999)"
         clip-rule="evenodd"
         id="path10" />
    </clipPath>
    <clipPath
       clipPathUnits="userSpaceOnUse"
       id="clipPath11">
      <path
         d="M 0,0 H 2283.3333 V 1036.7891 H 0 Z"
         transform="matrix(0.3337193,0,0,0.3337193,-88.890625,-18.999999)"
         clip-rule="evenodd"
         id="path11" />
    </clipPath>
    <clipPath
       clipPathUnits="userSpaceOnUse"
       id="clipPath13">
      <path
         d="M 0,0 H 2283.3333 V 1036.7891 H 0 Z"
         transform="matrix(0.33372264,0,0,0.33372264,-0.49999999,-0.49999999)"
         clip-rule="evenodd"
         id="path13" />
    </clipPath>
    <clipPath
       clipPathUnits="userSpaceOnUse"
       id="clipPath14">
      <path
         d="M 0,0 H 2283.3333 V 1036.7891 H 0 Z"
         transform="matrix(0.3337193,0,0,0.3337193,-356.09374,-18.999999)"
         clip-rule="evenodd"
         id="path14" />
    </clipPath>
    <clipPath
       clipPathUnits="userSpaceOnUse"
       id="clipPath16">
      <path
         d="M 0,0 H 2283.3333 V 1036.7891 H 0 Z"
         transform="matrix(0.33372264,0,0,0.33372264,-0.49999999,-0.49999999)"
         clip-rule="evenodd"
         id="path16" />
    </clipPath>
    <clipPath
       clipPathUnits="userSpaceOnUse"
       id="clipPath17">
      <path
         d="M 0,0 H 2283.3333 V 1036.7891 H 0 Z"
         transform="matrix(0.3337193,0,0,0.3337193,-617.75,-18.999999)"
         clip-rule="evenodd"
         id="path17" />
    </clipPath>
    <clipPath
       clipPathUnits="userSpaceOnUse"
       id="clipPath19">
      <path
         d="M 0,0 H 2283.3333 V 1036.7891 H 0 Z"
         transform="matrix(0.33372264,0,0,0.33372264,-0.49999999,-0.49999999)"
         clip-rule="evenodd"
         id="path19" />
    </clipPath>
    <clipPath
       clipPathUnits="userSpaceOnUse"
       id="clipPath21">
      <path
         d="M 0,0 H 2283.3333 V 1036.7891 H 0 Z"
         transform="matrix(0.33372264,0,0,0.33372264,-0.49999999,-0.49999999)"
         clip-rule="evenodd"
         id="path21" />
    </clipPath>
    <clipPath
       clipPathUnits="userSpaceOnUse"
       id="clipPath22">
      <path
         d="M 0,0 H 2283.3333 V 1036.7891 H 0 Z"
         transform="matrix(0.3337193,0,0,0.3337193,-216.71875,-59.999999)"
         clip-rule="evenodd"
         id="path22" />
    </clipPath>
    <clipPath
       clipPathUnits="userSpaceOnUse"
       id="clipPath23">
      <path
         d="M 0,0 H 2283.3333 V 1036.7891 H 0 Z"
         transform="matrix(0.3337193,0,0,0.3337193,-210.45313,-77)"
         clip-rule="evenodd"
         id="path23" />
    </clipPath>
    <clipPath
       clipPathUnits="userSpaceOnUse"
       id="clipPath25">
      <path
         d="M 0,0 H 2283.3333 V 1036.7891 H 0 Z"
         transform="matrix(0.33372264,0,0,0.33372264,-0.49999999,-0.49999999)"
         clip-rule="evenodd"
         id="path25" />
    </clipPath>
    <clipPath
       clipPathUnits="userSpaceOnUse"
       id="clipPath27">
      <path
         d="M 0,0 H 2283.3333 V 1036.7891 H 0 Z"
         transform="matrix(0.33372264,0,0,0.33372264,-0.49999999,-0.49999999)"
         clip-rule="evenodd"
         id="path27" />
    </clipPath>
    <clipPath
       clipPathUnits="userSpaceOnUse"
       id="clipPath28">
      <path
         d="M 0,0 H 2283.3333 V 1036.7891 H 0 Z"
         transform="matrix(0.3337193,0,0,0.3337193,-471.14063,-59.999999)"
         clip-rule="evenodd"
         id="path28" />
    </clipPath>
    <clipPath
       clipPathUnits="userSpaceOnUse"
       id="clipPath29">
      <path
         d="M 0,0 H 2283.3333 V 1036.7891 H 0 Z"
         transform="matrix(0.3337193,0,0,0.3337193,-490.18749,-77)"
         clip-rule="evenodd"
         id="path29" />
    </clipPath>
    <clipPath
       clipPathUnits="userSpaceOnUse"
       id="clipPath31">
      <path
         d="M 0,0 H 2283.3333 V 1036.7891 H 0 Z"
         transform="matrix(0.33372264,0,0,0.33372264,-0.49999999,-0.49999999)"
         clip-rule="evenodd"
         id="path31" />
    </clipPath>
    <clipPath
       clipPathUnits="userSpaceOnUse"
       id="clipPath33">
      <path
         d="M 0,0 H 2283.3333 V 1036.7891 H 0 Z"
         transform="matrix(0.33372264,0,0,0.33372264,-0.49999999,-0.49999999)"
         clip-rule="evenodd"
         id="path33" />
    </clipPath>
    <clipPath
       clipPathUnits="userSpaceOnUse"
       id="clipPath34">
      <path
         d="M 0,0 H 2283.3333 V 1036.7891 H 0 Z"
         transform="matrix(0.3337193,0,0,0.3337193,-471.14063,-114)"
         clip-rule="evenodd"
         id="path34" />
    </clipPath>
    <clipPath
       clipPathUnits="userSpaceOnUse"
       id="clipPath35">
      <path
         d="M 0,0 H 2283.3333 V 1036.7891 H 0 Z"
         transform="matrix(0.3337193,0,0,0.3337193,-470.35937,-130.99999)"
         clip-rule="evenodd"
         id="path35" />
    </clipPath>
    <clipPath
       clipPathUnits="userSpaceOnUse"
       id="clipPath36">
      <path
         d="M 0,0 H 2283.3333 V 1036.7891 H 0 Z"
         transform="matrix(0.3337193,0,0,0.3337193,-460.23438,-148)"
         clip-rule="evenodd"
         id="path36" />
    </clipPath>
    <clipPath
       clipPathUnits="userSpaceOnUse"
       id="clipPath38">
      <path
         d="M 0,0 H 2283.3333 V 1036.7891 H 0 Z"
         transform="matrix(0.33372264,0,0,0.33372264,-0.49999999,-0.49999999)"
         clip-rule="evenodd"
         id="path38" />
    </clipPath>
    <clipPath
       clipPathUnits="userSpaceOnUse"
       id="clipPath40">
      <path
         d="M 0,0 H 2283.3333 V 1036.7891 H 0 Z"
         transform="matrix(0.33372264,0,0,0.33372264,-0.49999999,-0.49999999)"
         clip-rule="evenodd"
         id="path40" />
    </clipPath>
    <clipPath
       clipPathUnits="userSpaceOnUse"
       id="clipPath41">
      <path
         d="M 0,0 H 2283.3333 V 1036.7891 H 0 Z"
         transform="matrix(0.3337193,0,0,0.3337193,-465.53125,-192)"
         clip-rule="evenodd"
         id="path41" />
    </clipPath>
    <clipPath
       clipPathUnits="userSpaceOnUse"
       id="clipPath42">
      <path
         d="M 0,0 H 2283.3333 V 1036.7891 H 0 Z"
         transform="matrix(0.3337193,0,0,0.3337193,-475.23438,-209)"
         clip-rule="evenodd"
         id="path42" />
    </clipPath>
    <clipPath
       clipPathUnits="userSpaceOnUse"
       id="clipPath44">
      <path
         d="M 0,0 H 2283.3333 V 1036.7891 H 0 Z"
         transform="matrix(0.33372264,0,0,0.33372264,-0.49999999,-0.49999999)"
         clip-rule="evenodd"
         id="path44" />
    </clipPath>
    <clipPath
       clipPathUnits="userSpaceOnUse"
       id="clipPath46">
      <path
         d="M 0,0 H 2283.3333 V 1036.7891 H 0 Z"
         transform="matrix(0.33372264,0,0,0.33372264,-0.49999999,-0.49999999)"
         clip-rule="evenodd"
         id="path46" />
    </clipPath>
    <clipPath
       clipPathUnits="userSpaceOnUse"
       id="clipPath47">
      <path
         d="M 0,0 H 2283.3333 V 1036.7891 H 0 Z"
         transform="matrix(0.3337193,0,0,0.3337193,-472.67188,-253)"
         clip-rule="evenodd"
         id="path47" />
    </clipPath>
    <clipPath
       clipPathUnits="userSpaceOnUse"
       id="clipPath48">
      <path
         d="M 0,0 H 2283.3333 V 1036.7891 H 0 Z"
         transform="matrix(0.3337193,0,0,0.3337193,-476.96875,-270)"
         clip-rule="evenodd"
         id="path48" />
    </clipPath>
    <clipPath
       clipPathUnits="userSpaceOnUse"
       id="clipPath50">
      <path
         d="M 0,0 H 2283.3333 V 1036.7891 H 0 Z"
         transform="matrix(0.33372264,0,0,0.33372264,-0.49999999,-0.49999999)"
         clip-rule="evenodd"
         id="path50" />
    </clipPath>
    <clipPath
       clipPathUnits="userSpaceOnUse"
       id="clipPath52">
      <path
         d="M 0,0 H 2283.3333 V 1036.7891 H 0 Z"
         transform="matrix(0.33372264,0,0,0.33372264,-0.49999999,-0.49999999)"
         clip-rule="evenodd"
         id="path52" />
    </clipPath>
    <clipPath
       clipPathUnits="userSpaceOnUse"
       id="clipPath53">
      <path
         d="M 0,0 H 2283.3333 V 1036.7891 H 0 Z"
         transform="matrix(0.3337193,0,0,0.3337193,-191.40625,-235)"
         clip-rule="evenodd"
         id="path53" />
    </clipPath>
    <clipPath
       clipPathUnits="userSpaceOnUse"
       id="clipPath54">
      <path
         d="M 0,0 H 2283.3333 V 1036.7891 H 0 Z"
         transform="matrix(0.3337193,0,0,0.3337193,-195.29688,-252)"
         clip-rule="evenodd"
         id="path54" />
    </clipPath>
    <clipPath
       clipPathUnits="userSpaceOnUse"
       id="clipPath55">
      <path
         d="M 0,0 H 2283.3333 V 1036.7891 H 0 Z"
         transform="matrix(0.3337193,0,0,0.3337193,-190.23438,-269)"
         clip-rule="evenodd"
         id="path55" />
    </clipPath>
    <clipPath
       clipPathUnits="userSpaceOnUse"
       id="clipPath57">
      <path
         d="M 0,0 H 2283.3333 V 1036.7891 H 0 Z"
         transform="matrix(0.33372264,0,0,0.33372264,-0.49999999,-0.49999999)"
         clip-rule="evenodd"
         id="path57" />
    </clipPath>
    <clipPath
       clipPathUnits="userSpaceOnUse"
       id="clipPath59">
      <path
         d="M 0,0 H 2283.3333 V 1036.7891 H 0 Z"
         transform="matrix(0.33372264,0,0,0.33372264,-0.49999999,-0.49999999)"
         clip-rule="evenodd"
         id="path59" />
    </clipPath>
    <clipPath
       clipPathUnits="userSpaceOnUse"
       id="clipPath60">
      <path
         d="M 0,0 H 2283.3333 V 1036.7891 H 0 Z"
         transform="matrix(0.3337193,0,0,0.3337193,-146.26562,-311)"
         clip-rule="evenodd"
         id="path60" />
    </clipPath>
    <clipPath
       clipPathUnits="userSpaceOnUse"
       id="clipPath61">
      <path
         d="M 0,0 H 2283.3333 V 1036.7891 H 0 Z"
         transform="matrix(0.3337193,0,0,0.3337193,-163.78125,-328)"
         clip-rule="evenodd"
         id="path61" />
    </clipPath>
    <clipPath
       clipPathUnits="userSpaceOnUse"
       id="clipPath63">
      <path
         d="M 0,0 H 2283.3333 V 1036.7891 H 0 Z"
         transform="matrix(-0.33372264,0,0,-0.33372264,1380.02,324)"
         clip-rule="evenodd"
         id="path63" />
    </clipPath>
    <clipPath
       clipPathUnits="userSpaceOnUse"
       id="clipPath64">
      <path
         d="M 0,0 H 2283.3333 V 1036.7891 H 0 Z"
         transform="matrix(0.3337193,0,0,0.3337193,-715.90625,-124)"
         clip-rule="evenodd"
         id="path64" />
    </clipPath>
    <clipPath
       clipPathUnits="userSpaceOnUse"
       id="clipPath65">
      <path
         d="M 0,0 H 2283.3333 V 1036.7891 H 0 Z"
         transform="matrix(0.3337193,0,0,0.3337193,-709.92188,-146)"
         clip-rule="evenodd"
         id="path65" />
    </clipPath>
    <clipPath
       clipPathUnits="userSpaceOnUse"
       id="clipPath66">
      <path
         d="M 0,0 H 2283.3333 V 1036.7891 H 0 Z"
         transform="matrix(0.3337193,0,0,0.3337193,-702.53125,-169)"
         clip-rule="evenodd"
         id="path66" />
    </clipPath>
    <clipPath
       clipPathUnits="userSpaceOnUse"
       id="clipPath67">
      <path
         d="M 0,0 H 2283.3333 V 1036.7891 H 0 Z"
         transform="matrix(0.3337193,0,0,0.3337193,-715.20312,-192)"
         clip-rule="evenodd"
         id="path67" />
    </clipPath>
    <clipPath
       clipPathUnits="userSpaceOnUse"
       id="clipPath68">
      <path
         d="M 0,0 H 2283.3333 V 1036.7891 H 0 Z"
         transform="matrix(0.3337193,0,0,0.3337193,-712.20312,-215)"
         clip-rule="evenodd"
         id="path68" />
    </clipPath>
    <clipPath
       clipPathUnits="userSpaceOnUse"
       id="clipPath70">
      <path
         d="M 0,0 H 2283.3333 V 1036.7891 H 0 Z"
         transform="scale(0.33372264)"
         clip-rule="evenodd"
         id="path70" />
    </clipPath>
    <clipPath
       clipPathUnits="userSpaceOnUse"
       id="clipPath71">
      <path
         d="M 0,0 H 2283.3333 V 1036.7891 H 0 Z"
         transform="matrix(0.3337193,0,0,0.3337193,-10.453125,-261)"
         clip-rule="evenodd"
         id="path71" />
    </clipPath>
    <clipPath
       clipPathUnits="userSpaceOnUse"
       id="clipPath72">
      <path
         d="M 0,0 H 2283.3333 V 1036.7891 H 0 Z"
         transform="matrix(0.3337193,0,0,0.3337193,-2,-284)"
         clip-rule="evenodd"
         id="path72" />
    </clipPath>
    <clipPath
       clipPathUnits="userSpaceOnUse"
       id="clipPath73">
      <path
         d="M 0,0 H 2283.3333 V 1036.7891 H 0 Z"
         transform="matrix(0.3337193,0,0,0.3337193,-13.625,-306.99999)"
         clip-rule="evenodd"
         id="path73" />
    </clipPath>
  </defs>
  <sodipodi:namedview
     id="namedview1"
     pagecolor="#ffffff"
     bordercolor="#000000"
     borderopacity="0.25"
     inkscape:showpageshadow="2"
     inkscape:pageopacity="0.0"
     inkscape:pagecheckerboard="0"
     inkscape:deskcolor="#d1d1d1">
    <inkscape:page
       x="0"
       y="0"
       inkscape:label="1"
       id="page1"
       width="730.56"
       height="333.44"
       margin="0"
       bleed="0" />
  </sodipodi:namedview>
  <g
     id="g1"
     inkscape:groupmode="layer"
     inkscape:label="1">
    <path
       id="path1"
       d="M 0,0 H 762 V 347 H 0 Z"
       style="fill:#ffffff;fill-opacity:1;fill-rule:nonzero;stroke:none"
       transform="scale(0.95888006)"
       clip-path="url(#clipPath2)" />
    <path
       id="path3"
       d="M 100,217 H 390 V 342 H 100 Z"
       style="fill:#d5e8d4;fill-opacity:1;fill-rule:nonzero;stroke:none"
       transform="scale(0.95888006)"
       clip-path="url(#clipPath4)" />
    <path
       id="path5"
       d="M 360,112 H 670 V 282 H 360 Z"
       style="fill:#fff2cc;fill-opacity:1;fill-rule:nonzero;stroke:none"
       transform="scale(0.95888006)"
       clip-path="url(#clipPath6)" />
    <path
       id="path7"
       d="m 100,42 h 570.01001 v 70 H 100 Z"
       style="fill:#fff2cc;fill-opacity:1;fill-rule:nonzero;stroke:none"
       transform="scale(0.95888006)"
       clip-path="url(#clipPath8)" />
    <path
       id="path9"
       d="m 108.5,342 v -3.00003 h 3 V 342 m -3,-6.00006 v -3.00003 h 3 v 3.00003 m -3,-6.00006 v -3.00003 h 3 v 3.00003 m -3,-6.00006 v -3.00003 h 3 v 3.00003 m -3,-6.00006 v -3.00003 h 3 v 3.00003 m -3,-6.00007 v -3.00003 h 3 v 3.00003 m -3,-6.00006 v -3.00003 h 3 v 3.00003 m -3,-6.00006 v -3.00003 h 3 v 3.00003 m -3,-6.00006 v -3.00003 h 3 v 3.00003 m -3,-6.00006 v -3.00003 h 3 v 3.00003 m -3,-6.00006 v -3.00003 h 3 v 3.00003 m -3,-6.00006 v -3.00003 h 3 v 3.00003 m -3,-6.00006 v -3 h 3 v 3 m -3,-6.00006 v -3 h 3 v 3 m -3,-6.00006 v -3.00002 h 3 v 3.00002 m -3,-6.00005 v -3.00003 h 3 v 3.00003 m -3,-6.00006 v -3.00003 h 3 v 3.00003 m -3,-6.00006 v -3.00003 h 3 v 3.00003 m -3,-6.00006 v -3.00003 h 3 v 3.00003 m -3,-6.00006 v -3.00003 h 3 v 3.00003 m -3,-6.00007 v -3.00001 h 3 v 3.00001 m -3,-6.00004 v -3.00005 h 3 v 3.00005 m -3,-6.00008 v -3.00003 h 3 v 3.00003 m -3,-6.00006 v -3.00003 h 3 v 3.00003 m -3,-6.00004 v -3.00003 h 3 v 3.00003 m -3,-6.00007 v -3.00003 h 3 v 3.00003 m -3,-6.00006 v -3.00003 h 3 v 3.00003 m -3,-6.00006 v -3.00003 h 3 v 3.00003 m -3,-6.00006 v -3.00003 h 3 v 3.00003 m -3,-6.00006 v -3.00003 h 3 v 3.00003 m -3,-6.00006 v -3.00003 h 3 v 3.00003 m -3,-6.00006 v -3.00003 h 3 v 3.00003 m -3,-6.00006 v -3.00003 h 3 v 3.00003 m -3,-6.00006 v -3.00003 h 3 v 3.00003 m -3,-6.00007 v -3.00003 h 3 v 3.00003 m -3,-6.00006 v -3.00003 h 3 v 3.00003 m -3,-6.00006 v -3.00003 h 3 v 3.00003 m -3,-6.00006 v -3.00003 h 3 v 3.00003 m -3,-6.00006 v -3.00003 h 3 v 3.00003 m -3,-6.00006 v -3.00003 h 3 v 3.00003 m -3,-6.00006 v -3.000016 h 3 v 3.000016 m -3,-6.000047 v -3.00003 h 3 v 3.00003 m -3,-6.000061 v -3.00003 h 3 v 3.00003 m -3,-6.000076 v -3.000031 h 3 v 3.000031 m -3,-6.000061 v -3.000031 h 3 v 3.000031 m -3,-6.000061 v -3.000031 h 3 v 3.000031 m -3,-6.000061 v -3.000031 h 3 v 3.000031 m -3,-6.000061 v -3.000031 h 3 v 3.000031 m -3,-6.000031 v -3.00003 h 3 v 3.00003 m -3,-6.000061 v -3.00003 h 3 v 3.00003 m -3,-6.000061 v -3.00003 h 3 v 3.00003 m -3,-6.000061 v -3.00003 h 3 v 3.00003"
       style="fill:#82b366;fill-opacity:1;fill-rule:nonzero;stroke:none"
       transform="matrix(0.95888006,0,0,0.95888006,0.47944002,0.47944002)"
       clip-path="url(#clipPath10)" />
    <text
       id="text10"
       xml:space="preserve"
       transform="matrix(0.95888966,0,0,0.95888966,85.236301,18.218903)"
       clip-path="url(#clipPath11)"><tspan
         style="font-variant:normal;font-weight:normal;font-size:20px;font-family:Helvetica;writing-mode:lr-tb;fill:#000000;fill-opacity:1;fill-rule:nonzero;stroke:none"
         x="0 14.443359 24.443359 35.566406"
         y="0"
         sodipodi:role="line"
         id="tspan10">User</tspan></text>
    <path
       id="path12"
       d="m 378.5,342 v -3.00003 h 3 V 342 m -3,-6.00006 v -3.00003 h 3 v 3.00003 m -3,-6.00006 v -3.00003 h 3 v 3.00003 m -3,-6.00006 v -3.00003 h 3 v 3.00003 m -3,-6.00006 v -3.00003 h 3 v 3.00003 m -3,-6.00007 v -3.00003 h 3 v 3.00003 m -3,-6.00006 v -3.00003 h 3 v 3.00003 m -3,-6.00006 v -3.00003 h 3 v 3.00003 m -3,-6.00006 v -3.00003 h 3 v 3.00003 m -3,-6.00006 v -3.00003 h 3 v 3.00003 m -3,-6.00006 v -3.00003 h 3 v 3.00003 m -3,-6.00006 v -3.00003 h 3 v 3.00003 m -3,-6.00006 v -3 h 3 v 3 m -3,-6.00006 v -3 h 3 v 3 m -3,-6.00006 v -3.00002 h 3 v 3.00002 m -3,-6.00005 v -3.00003 h 3 v 3.00003 m -3,-6.00006 v -3.00003 h 3 v 3.00003 m -3,-6.00006 v -3.00003 h 3 v 3.00003 m -3,-6.00006 v -3.00003 h 3 v 3.00003 m -3,-6.00006 v -3.00003 h 3 v 3.00003 m -3,-6.00007 v -3.00001 h 3 v 3.00001 m -3,-6.00004 v -3.00005 h 3 v 3.00005 m -3,-6.00008 v -3.00003 h 3 v 3.00003 m -3,-6.00006 v -3.00003 h 3 v 3.00003 m -3,-6.00004 v -3.00003 h 3 v 3.00003 m -3,-6.00007 v -3.00003 h 3 v 3.00003 m -3,-6.00006 v -3.00003 h 3 v 3.00003 m -3,-6.00006 v -3.00003 h 3 v 3.00003 m -3,-6.00006 v -3.00003 h 3 v 3.00003 m -3,-6.00006 v -3.00003 h 3 v 3.00003 m -3,-6.00006 v -3.00003 h 3 v 3.00003 m -3,-6.00006 v -3.00003 h 3 v 3.00003 m -3,-6.00006 v -3.00003 h 3 v 3.00003 m -3,-6.00006 v -3.00003 h 3 v 3.00003 m -3,-6.00007 v -3.00003 h 3 v 3.00003 m -3,-6.00006 v -3.00003 h 3 v 3.00003 m -3,-6.00006 v -3.00003 h 3 v 3.00003 m -3,-6.00006 v -3.00003 h 3 v 3.00003 m -3,-6.00006 v -3.00003 h 3 v 3.00003 m -3,-6.00006 v -3.00003 h 3 v 3.00003 m -3,-6.00006 v -3.000016 h 3 v 3.000016 m -3,-6.000047 v -3.00003 h 3 v 3.00003 m -3,-6.000061 v -3.00003 h 3 v 3.00003 m -3,-6.000076 v -3.000031 h 3 v 3.000031 m -3,-6.000061 v -3.000031 h 3 v 3.000031 m -3,-6.000061 v -3.000031 h 3 v 3.000031 m -3,-6.000061 v -3.000031 h 3 v 3.000031 m -3,-6.000061 v -3.000031 h 3 v 3.000031 m -3,-6.000031 v -3.00003 h 3 v 3.00003 m -3,-6.000061 v -3.00003 h 3 v 3.00003 m -3,-6.000061 v -3.00003 h 3 v 3.00003 m -3,-6.000061 v -3.00003 h 3 v 3.00003"
       style="fill:#b85450;fill-opacity:1;fill-rule:nonzero;stroke:none"
       transform="matrix(0.95888006,0,0,0.95888006,0.47944002,0.47944002)"
       clip-path="url(#clipPath13)" />
    <text
       id="text13"
       xml:space="preserve"
       transform="matrix(0.95888966,0,0,0.95888966,341.45461,18.218903)"
       clip-path="url(#clipPath14)"><tspan
         style="font-variant:normal;font-weight:normal;font-size:20px;font-family:Helvetica;writing-mode:lr-tb;fill:#000000;fill-opacity:1;fill-rule:nonzero;stroke:none"
         x="0 14.443359 25.566406 36.689453"
         y="0"
         sodipodi:role="line"
         id="tspan13">Node</tspan></text>
    <path
       id="path15"
       d="m 648.51001,342 v -3.00003 h 3 V 342 m -3,-6.00006 v -3.00003 h 3 v 3.00003 m -3,-6.00006 v -3.00003 h 3 v 3.00003 m -3,-6.00006 v -3.00003 h 3 v 3.00003 m -3,-6.00006 v -3.00003 h 3 v 3.00003 m -3,-6.00007 v -3.00003 h 3 v 3.00003 m -3,-6.00006 v -3.00003 h 3 v 3.00003 m -3,-6.00006 v -3.00003 h 3 v 3.00003 m -3,-6.00006 v -3.00003 h 3 v 3.00003 m -3,-6.00006 v -3.00003 h 3 v 3.00003 m -3,-6.00006 v -3.00003 h 3 v 3.00003 m -3,-6.00006 v -3.00003 h 3 v 3.00003 m -3,-6.00006 v -3 h 3 v 3 m -3,-6.00006 v -3 h 3 v 3 m -3,-6.00006 v -3.00002 h 3 v 3.00002 m -3,-6.00005 v -3.00003 h 3 v 3.00003 m -3,-6.00006 v -3.00003 h 3 v 3.00003 m -3,-6.00006 v -3.00003 h 3 v 3.00003 m -3,-6.00006 v -3.00003 h 3 v 3.00003 m -3,-6.00006 v -3.00003 h 3 v 3.00003 m -3,-6.00007 v -3.00001 h 3 v 3.00001 m -3,-6.00004 v -3.00005 h 3 v 3.00005 m -3,-6.00008 v -3.00003 h 3 v 3.00003 m -3,-6.00006 v -3.00003 h 3 v 3.00003 m -3,-6.00004 v -3.00003 h 3 v 3.00003 m -3,-6.00007 v -3.00003 h 3 v 3.00003 m -3,-6.00006 v -3.00003 h 3 v 3.00003 m -3,-6.00006 v -3.00003 h 3 v 3.00003 m -3,-6.00006 v -3.00003 h 3 v 3.00003 m -3,-6.00006 v -3.00003 h 3 v 3.00003 m -3,-6.00006 v -3.00003 h 3 v 3.00003 m -3,-6.00006 v -3.00003 h 3 v 3.00003 m -3,-6.00006 v -3.00003 h 3 v 3.00003 m -3,-6.00006 v -3.00003 h 3 v 3.00003 m -3,-6.00007 v -3.00003 h 3 v 3.00003 m -3,-6.00006 v -3.00003 h 3 v 3.00003 m -3,-6.00006 v -3.00003 h 3 v 3.00003 m -3,-6.00006 v -3.00003 h 3 v 3.00003 m -3,-6.00006 v -3.00003 h 3 v 3.00003 m -3,-6.00006 v -3.00003 h 3 v 3.00003 m -3,-6.00006 v -3.000016 h 3 v 3.000016 m -3,-6.000047 v -3.00003 h 3 v 3.00003 m -3,-6.000061 v -3.00003 h 3 v 3.00003 m -3,-6.000076 v -3.000031 h 3 v 3.000031 m -3,-6.000061 v -3.000031 h 3 v 3.000031 m -3,-6.000061 v -3.000031 h 3 v 3.000031 m -3,-6.000061 v -3.000031 h 3 v 3.000031 m -3,-6.000061 v -3.000031 h 3 v 3.000031 m -3,-6.000031 v -3.00003 h 3 v 3.00003 m -3,-6.000061 v -3.00003 h 3 v 3.00003 m -3,-6.000061 v -3.00003 h 3 v 3.00003 m -3,-6.000061 v -3.00003 h 3 v 3.00003"
       style="fill:#6c8ebf;fill-opacity:1;fill-rule:nonzero;stroke:none"
       transform="matrix(0.95888006,0,0,0.95888006,0.47944002,0.47944002)"
       clip-path="url(#clipPath16)" />
    <text
       id="text16"
       xml:space="preserve"
       transform="matrix(0.95888966,0,0,0.95888966,592.35409,18.218903)"
       clip-path="url(#clipPath17)"><tspan
         style="font-variant:normal;font-weight:normal;font-size:20px;font-family:Helvetica;writing-mode:lr-tb;fill:#000000;fill-opacity:1;fill-rule:nonzero;stroke:none"
         x="0 15.556641 26.679688 37.802734 48.925781 53.369141"
         y="0"
         sodipodi:role="line"
         id="tspan16">Google</tspan></text>
    <path
       id="path18"
       d="M 110,82 H 369.89999"
       style="fill:none;stroke:#000000;stroke-width:1;stroke-linecap:butt;stroke-linejoin:miter;stroke-miterlimit:10;stroke-dasharray:none;stroke-opacity:1"
       transform="matrix(0.95888006,0,0,0.95888006,0.47944002,0.47944002)"
       clip-path="url(#clipPath19)" />
    <path
       id="path20"
       d="m 376.64999,82 -9,4.5 2.25,-4.5 -2.25,-4.5 z"
       style="fill:#000000;fill-opacity:1;fill-rule:nonzero;stroke:#000000;stroke-width:1;stroke-linecap:butt;stroke-linejoin:miter;stroke-miterlimit:10;stroke-dasharray:none;stroke-opacity:1"
       transform="matrix(0.95888006,0,0,0.95888006,0.47944002,0.47944002)"
       clip-path="url(#clipPath21)" />
    <text
       id="text21"
       xml:space="preserve"
       transform="matrix(0.95888966,0,0,0.95888966,207.80937,57.533379)"
       clip-path="url(#clipPath22)"><tspan
         style="font-variant:normal;font-weight:normal;font-size:14px;font-family:Helvetica;writing-mode:lr-tb;fill:#000000;fill-opacity:1;fill-rule:nonzero;stroke:none"
         x="0 10.110352 17.110352 24.896484 29.558594 33.448242 40.448242 43.558594 50.558594 53.668945 57.558594"
         y="0"
         sodipodi:role="line"
         id="tspan21">User visits</tspan></text>
    <text
       id="text22"
       xml:space="preserve"
       transform="matrix(0.95888966,0,0,0.95888966,201.80133,73.834504)"
       clip-path="url(#clipPath23)"><tspan
         style="font-variant:normal;font-weight:normal;font-size:14px;font-family:Helvetica;writing-mode:lr-tb;fill:#000000;fill-opacity:1;fill-rule:nonzero;stroke:none"
         x="0 3.8896484 11.675781 19.461914 23.351562 31.137695 35.027344 42.813477 50.599609 58.385742 66.171875 69.282227"
         y="0"
         sodipodi:role="line"
         id="tspan22">/auth/google</tspan></text>
    <path
       id="path24"
       d="M 380,82 H 639.90002"
       style="fill:none;stroke:#000000;stroke-width:1;stroke-linecap:butt;stroke-linejoin:miter;stroke-miterlimit:10;stroke-dasharray:none;stroke-opacity:1"
       transform="matrix(0.95888006,0,0,0.95888006,0.47944002,0.47944002)"
       clip-path="url(#clipPath25)" />
    <path
       id="path26"
       d="m 646.65002,82 -9,4.5 2.25,-4.5 -2.25,-4.5 z"
       style="fill:#000000;fill-opacity:1;fill-rule:nonzero;stroke:#000000;stroke-width:1;stroke-linecap:butt;stroke-linejoin:miter;stroke-miterlimit:10;stroke-dasharray:none;stroke-opacity:1"
       transform="matrix(0.95888006,0,0,0.95888006,0.47944002,0.47944002)"
       clip-path="url(#clipPath27)" />
    <text
       id="text27"
       xml:space="preserve"
       transform="matrix(0.95888966,0,0,0.95888966,451.77188,57.533379)"
       clip-path="url(#clipPath28)"><tspan
         style="font-variant:normal;font-weight:normal;font-size:14px;font-family:Helvetica;writing-mode:lr-tb;fill:#000000;fill-opacity:1;fill-rule:nonzero;stroke:none"
         x="0 10.110352 17.110352 24.896484 29.558594 33.448242 37.337891 45.124023 49.786133 59.896484 67.682617 72.344727 80.130859 87.916992"
         y="0"
         sodipodi:role="line"
         id="tspan27">User forwarded</tspan></text>
    <text
       id="text28"
       xml:space="preserve"
       transform="matrix(0.95888966,0,0,0.95888966,470.03572,73.834504)"
       clip-path="url(#clipPath29)"><tspan
         style="font-variant:normal;font-weight:normal;font-size:14px;font-family:Helvetica;writing-mode:lr-tb;fill:#000000;fill-opacity:1;fill-rule:nonzero;stroke:none"
         x="0 3.8896484 11.675781 15.56543 23.351562 31.137695 38.923828 46.709961 49.820312"
         y="0"
         sodipodi:role="line"
         id="tspan28">to google</tspan></text>
    <path
       id="path30"
       d="M 650.01001,152 H 390.10999"
       style="fill:none;stroke:#000000;stroke-width:1;stroke-linecap:butt;stroke-linejoin:miter;stroke-miterlimit:10;stroke-dasharray:none;stroke-opacity:1"
       transform="matrix(0.95888006,0,0,0.95888006,0.47944002,0.47944002)"
       clip-path="url(#clipPath31)" />
    <path
       id="path32"
       d="m 383.35999,152 9,-4.5 -2.25,4.5 2.25,4.5 z"
       style="fill:#000000;fill-opacity:1;fill-rule:nonzero;stroke:#000000;stroke-width:1;stroke-linecap:butt;stroke-linejoin:miter;stroke-miterlimit:10;stroke-dasharray:none;stroke-opacity:1"
       transform="matrix(0.95888006,0,0,0.95888006,0.47944002,0.47944002)"
       clip-path="url(#clipPath33)" />
    <text
       id="text33"
       xml:space="preserve"
       transform="matrix(0.95888966,0,0,0.95888966,451.77188,109.31342)"
       clip-path="url(#clipPath34)"><tspan
         style="font-variant:normal;font-weight:normal;font-size:14px;font-family:Helvetica;writing-mode:lr-tb;fill:#000000;fill-opacity:1;fill-rule:nonzero;stroke:none"
         x="0 10.110352 17.110352 24.896484 29.558594 33.448242 41.234375 49.020508 52.910156 60.696289 65.358398 72.358398 76.248047 79.358398 87.144531 94.930664 98.041016 105.82715"
         y="0"
         sodipodi:role="line"
         id="tspan33">User enters login,</tspan></text>
    <text
       id="text34"
       xml:space="preserve"
       transform="matrix(0.95888966,0,0,0.95888966,451.02274,125.61454)"
       clip-path="url(#clipPath35)"><tspan
         style="font-variant:normal;font-weight:normal;font-size:14px;font-family:Helvetica;writing-mode:lr-tb;fill:#000000;fill-opacity:1;fill-rule:nonzero;stroke:none"
         x="0 4.6621094 12.448242 20.234375 23.344727 28.006836 35.792969 42.792969 46.682617 54.46875 62.254883 66.144531 73.930664 81.716797 88.716797 95.716797 99.606445 103.49609"
         y="0"
         sodipodi:role="line"
         id="tspan34">redirected back to</tspan></text>
    <text
       id="text35"
       xml:space="preserve"
       transform="matrix(0.95888966,0,0,0.95888966,441.31399,141.91567)"
       clip-path="url(#clipPath36)"><tspan
         style="font-variant:normal;font-weight:normal;font-size:14px;font-family:Helvetica;writing-mode:lr-tb;fill:#000000;fill-opacity:1;fill-rule:nonzero;stroke:none"
         x="0 3.8896484 11.675781 19.461914 23.351562 31.137695 35.027344 42.813477 50.599609 58.385742 66.171875 69.282227 77.068359 80.958008 87.958008 95.744141 98.854492 101.96484 109.75098 117.53711 124.53711"
         y="0"
         sodipodi:role="line"
         id="tspan35">/auth/google/callback</tspan></text>
    <path
       id="path37"
       d="M 380,214 H 639.90002"
       style="fill:none;stroke:#000000;stroke-width:1;stroke-linecap:butt;stroke-linejoin:miter;stroke-miterlimit:10;stroke-dasharray:none;stroke-opacity:1"
       transform="matrix(0.95888006,0,0,0.95888006,0.47944002,0.47944002)"
       clip-path="url(#clipPath38)" />
    <path
       id="path39"
       d="m 646.65002,214 -9,4.5 2.25,-4.5 -2.25,-4.5 z"
       style="fill:#000000;fill-opacity:1;fill-rule:nonzero;stroke:#000000;stroke-width:1;stroke-linecap:butt;stroke-linejoin:miter;stroke-miterlimit:10;stroke-dasharray:none;stroke-opacity:1"
       transform="matrix(0.95888006,0,0,0.95888006,0.47944002,0.47944002)"
       clip-path="url(#clipPath40)" />
    <text
       id="text40"
       xml:space="preserve"
       transform="matrix(0.95888966,0,0,0.95888966,446.3931,184.10681)"
       clip-path="url(#clipPath41)"><tspan
         style="font-variant:normal;font-weight:normal;font-size:14px;font-family:Helvetica;writing-mode:lr-tb;fill:#000000;fill-opacity:1;fill-rule:nonzero;stroke:none"
         x="0 9.3378906 17.124023 21.786133 28.786133 36.572266 41.234375 45.124023 52.910156 59.910156 66.910156 73.910156 77.799805 81.689453 89.475586 94.137695 98.027344 109.68945 117.47559 122.1377"
         y="0"
         sodipodi:role="line"
         id="tspan40">Server asks for more</tspan></text>
    <text
       id="text41"
       xml:space="preserve"
       transform="matrix(0.95888966,0,0,0.95888966,455.69733,200.40794)"
       clip-path="url(#clipPath42)"><tspan
         style="font-variant:normal;font-weight:normal;font-size:14px;font-family:Helvetica;writing-mode:lr-tb;fill:#000000;fill-opacity:1;fill-rule:nonzero;stroke:none"
         x="0 7.7861328 15.572266 19.461914 27.248047 30.358398 33.46875 40.46875 44.358398 52.144531 59.930664 67.716797 75.50293 79.392578 83.282227 91.068359 98.068359 105.85449"
         y="0"
         sodipodi:role="line"
         id="tspan41">details about user</tspan></text>
    <path
       id="path43"
       d="M 650.01001,273 H 390.10999"
       style="fill:none;stroke:#000000;stroke-width:1;stroke-linecap:butt;stroke-linejoin:miter;stroke-miterlimit:10;stroke-dasharray:none;stroke-opacity:1"
       transform="matrix(0.95888006,0,0,0.95888006,0.47944002,0.47944002)"
       clip-path="url(#clipPath44)" />
    <path
       id="path45"
       d="m 383.35999,273 9,-4.5 -2.25,4.5 2.25,4.5 z"
       style="fill:#000000;fill-opacity:1;fill-rule:nonzero;stroke:#000000;stroke-width:1;stroke-linecap:butt;stroke-linejoin:miter;stroke-miterlimit:10;stroke-dasharray:none;stroke-opacity:1"
       transform="matrix(0.95888006,0,0,0.95888006,0.47944002,0.47944002)"
       clip-path="url(#clipPath46)" />
    <text
       id="text46"
       xml:space="preserve"
       transform="matrix(0.95888966,0,0,0.95888966,453.24018,242.59908)"
       clip-path="url(#clipPath47)"><tspan
         style="font-variant:normal;font-weight:normal;font-size:14px;font-family:Helvetica;writing-mode:lr-tb;fill:#000000;fill-opacity:1;fill-rule:nonzero;stroke:none"
         x="0 10.889648 18.675781 26.461914 34.248047 37.358398 45.144531 49.03418 53.696289 61.482422 68.482422 76.268555 84.054688 91.84082 99.626953"
         y="0"
         sodipodi:role="line"
         id="tspan46">Google responds</tspan></text>
    <g
       id="g47" />
    <text
       id="text47"
       xml:space="preserve"
       transform="matrix(0.95888966,0,0,0.95888966,457.3604,258.90021)"
       clip-path="url(#clipPath48)"><tspan
         style="font-variant:normal;font-weight:normal;font-size:14px;font-family:Helvetica;writing-mode:lr-tb;fill:#000000;fill-opacity:1;fill-rule:nonzero;stroke:none"
         x="0 10.110352 13.220703 17.110352 24.896484 28.786133 36.572266 43.572266 51.358398 56.020508 59.910156 67.696289 72.358398 80.144531 87.144531 90.254883"
         y="0"
         sodipodi:role="line"
         id="tspan47">with user proﬁle</tspan></text>
    <path
       id="path49"
       d="M 380,273 H 120.11"
       style="fill:none;stroke:#000000;stroke-width:1;stroke-linecap:butt;stroke-linejoin:miter;stroke-miterlimit:10;stroke-dasharray:none;stroke-opacity:1"
       transform="matrix(0.95888006,0,0,0.95888006,0.47944002,0.47944002)"
       clip-path="url(#clipPath50)" />
    <path
       id="path51"
       d="m 113.36,273 9,-4.5 -2.25,4.5 2.25,4.5 z"
       style="fill:#000000;fill-opacity:1;fill-rule:nonzero;stroke:#000000;stroke-width:1;stroke-linecap:butt;stroke-linejoin:miter;stroke-miterlimit:10;stroke-dasharray:none;stroke-opacity:1"
       transform="matrix(0.95888006,0,0,0.95888006,0.47944002,0.47944002)"
       clip-path="url(#clipPath52)" />
    <text
       id="text52"
       xml:space="preserve"
       transform="matrix(0.95888966,0,0,0.95888966,183.53747,225.33907)"
       clip-path="url(#clipPath53)"><tspan
         style="font-variant:normal;font-weight:normal;font-size:14px;font-family:Helvetica;writing-mode:lr-tb;fill:#000000;fill-opacity:1;fill-rule:nonzero;stroke:none"
         x="0 9.3378906 17.124023 21.786133 28.786133 36.572266 41.234375 45.124023 52.124023 59.910156 63.799805 70.799805 74.689453 81.689453 89.475586 97.261719 104.26172 107.37207"
         y="0"
         sodipodi:role="line"
         id="tspan52">Server sets cookie</tspan></text>
    <text
       id="text53"
       xml:space="preserve"
       transform="matrix(0.95888966,0,0,0.95888966,187.26816,241.64019)"
       clip-path="url(#clipPath54)"><tspan
         style="font-variant:normal;font-weight:normal;font-size:14px;font-family:Helvetica;writing-mode:lr-tb;fill:#000000;fill-opacity:1;fill-rule:nonzero;stroke:none"
         x="0 7.7861328 15.572266 19.461914 27.248047 34.248047 42.03418 46.696289 53.696289 57.585938 65.37207 70.03418 77.820312 87.930664 94.930664 102.7168"
         y="0"
         sodipodi:role="line"
         id="tspan53">on users browser</tspan></text>
    <g
       id="g54" />
    <text
       id="text54"
       xml:space="preserve"
       transform="matrix(0.95888966,0,0,0.95888966,182.41378,257.94132)"
       clip-path="url(#clipPath55)"><tspan
         style="font-variant:normal;font-weight:normal;font-size:14px;font-family:Helvetica;writing-mode:lr-tb;fill:#000000;fill-opacity:1;fill-rule:nonzero;stroke:none"
         x="0 3.8896484 11.675781 19.461914 23.351562 27.241211 30.351562 38.137695 45.923828 53.709961 57.599609 60.709961 67.709961 75.496094 82.496094 86.385742 90.275391 98.061523 105.84766"
         y="0"
         sodipodi:role="line"
         id="tspan54">that identiﬁes them</tspan></text>
    <path
       id="path56"
       d="M 110,332 H 369.89999"
       style="fill:none;stroke:#000000;stroke-width:1;stroke-linecap:butt;stroke-linejoin:miter;stroke-miterlimit:10;stroke-dasharray:none;stroke-opacity:1"
       transform="matrix(0.95888006,0,0,0.95888006,0.47944002,0.47944002)"
       clip-path="url(#clipPath57)" />
    <path
       id="path58"
       d="m 376.64999,332 -9,4.5 2.25,-4.5 -2.25,-4.5 z"
       style="fill:#000000;fill-opacity:1;fill-rule:nonzero;stroke:#000000;stroke-width:1;stroke-linecap:butt;stroke-linejoin:miter;stroke-miterlimit:10;stroke-dasharray:none;stroke-opacity:1"
       transform="matrix(0.95888006,0,0,0.95888006,0.47944002,0.47944002)"
       clip-path="url(#clipPath59)" />
    <text
       id="text59"
       xml:space="preserve"
       transform="matrix(0.95888966,0,0,0.95888966,140.25259,298.21468)"
       clip-path="url(#clipPath60)"><tspan
         style="font-variant:normal;font-weight:normal;font-size:14px;font-family:Helvetica;writing-mode:lr-tb;fill:#000000;fill-opacity:1;fill-rule:nonzero;stroke:none"
         x="0 9.3378906 12.448242 15.558594 19.448242 23.337891 31.124023 35.013672 42.799805 47.461914 55.248047 59.137695 63.799805 71.585938 79.37207 87.158203 94.944336 101.94434 105.83398 112.83398 116.72363 119.83398 127.62012 134.62012 137.73047 145.5166 153.30273 161.08887 164.97852 171.97852 179.76465 187.55078 194.55078 197.66113"
         y="0"
         sodipodi:role="line"
         id="tspan59">All future requests include cookie</tspan></text>
    <g
       id="g60" />
    <text
       id="text60"
       xml:space="preserve"
       transform="matrix(0.95888966,0,0,0.95888966,157.04815,314.51581)"
       clip-path="url(#clipPath61)"><tspan
         style="font-variant:normal;font-weight:normal;font-size:14px;font-family:Helvetica;writing-mode:lr-tb;fill:#000000;fill-opacity:1;fill-rule:nonzero;stroke:none"
         x="0 7.7861328 15.572266 19.461914 27.248047 31.137695 35.027344 42.813477 50.599609 54.489258 58.378906 61.489258 69.275391 77.061523 84.847656 88.737305 91.847656 98.847656 106.63379 113.63379 117.52344 121.41309 129.19922 132.30957 139.30957 143.19922 150.98535 157.98535 165.77148"
         y="0"
         sodipodi:role="line"
         id="tspan60">data that identiﬁes this user</tspan></text>
    <path
       id="path62"
       d="m 700.01001,42 h -5 c -3.33331,0 -5,3.333332 -5,10 v 100 c 0,6.66667 -1.66669,10 -5,10 h -2.5 c -1.66669,0 -0.83331,0 2.5,0 h 2.5 c 1.66669,0 2.5,3.33333 2.5,10 v 100 c 0,6.66666 1.66669,10 5,10 h 5"
       style="fill:none;stroke:#000000;stroke-width:1;stroke-linecap:butt;stroke-linejoin:miter;stroke-miterlimit:10;stroke-dasharray:none;stroke-opacity:1"
       transform="matrix(-0.95888006,0,0,-0.95888006,1323.2737,310.67714)"
       clip-path="url(#clipPath63)" />
    <text
       id="text63"
       xml:space="preserve"
       transform="matrix(0.95888966,0,0,0.95888966,686.4751,118.90232)"
       clip-path="url(#clipPath64)"><tspan
         style="font-variant:normal;font-weight:normal;font-size:19px;font-family:Helvetica;writing-mode:lr-tb;fill:#ff0000;fill-opacity:1;fill-rule:nonzero;stroke:none"
         x="0 17.599121"
         y="0"
         sodipodi:role="line"
         id="tspan63">We</tspan></text>
    <text
       id="text64"
       xml:space="preserve"
       transform="matrix(0.95888966,0,0,0.95888966,680.73675,139.99789)"
       clip-path="url(#clipPath65)"><tspan
         style="font-variant:normal;font-weight:normal;font-size:19px;font-family:Helvetica;writing-mode:lr-tb;fill:#ff0000;fill-opacity:1;fill-rule:nonzero;stroke:none"
         x="0 13.721191 24.288086 34.85498"
         y="0"
         sodipodi:role="line"
         id="tspan64">want</tspan></text>
    <text
       id="text65"
       xml:space="preserve"
       transform="matrix(0.95888966,0,0,0.95888966,673.64995,162.05235)"
       clip-path="url(#clipPath66)"><tspan
         style="font-variant:normal;font-weight:normal;font-size:19px;font-family:Helvetica;writing-mode:lr-tb;fill:#ff0000;fill-opacity:1;fill-rule:nonzero;stroke:none"
         x="0 5.2788086 15.845703 21.124512 30.624512 40.124512 44.345703"
         y="0"
         sodipodi:role="line"
         id="tspan65">to skip</tspan></text>
    <text
       id="text66"
       xml:space="preserve"
       transform="matrix(0.95888966,0,0,0.95888966,685.80088,184.10681)"
       clip-path="url(#clipPath67)"><tspan
         style="font-variant:normal;font-weight:normal;font-size:19px;font-family:Helvetica;writing-mode:lr-tb;fill:#ff0000;fill-opacity:1;fill-rule:nonzero;stroke:none"
         x="0 5.2788086 15.845703 20.066895"
         y="0"
         sodipodi:role="line"
         id="tspan66">this</tspan></text>
    <text
       id="text67"
       xml:space="preserve"
       transform="matrix(0.95888966,0,0,0.95888966,682.92421,206.16128)"
       clip-path="url(#clipPath68)"><tspan
         style="font-variant:normal;font-weight:normal;font-size:19px;font-family:Helvetica;writing-mode:lr-tb;fill:#ff0000;fill-opacity:1;fill-rule:nonzero;stroke:none"
         x="0 9.5 14.778809 25.345703 30.290527"
         y="0"
         sodipodi:role="line"
         id="tspan67">stuff</tspan></text>
    <path
       id="path69"
       d="m 90,217 h -5 c -3.333336,0 -5,3.33333 -5,10 v 40 c 0,6.66666 -1.666664,10 -5,10 h -2.5 c -1.666664,0 -0.833336,0 2.5,0 h 2.5 c 1.666664,0 2.5,3.33334 2.5,10 v 40 c 0,6.66666 1.666664,10 5,10 h 5"
       style="fill:none;stroke:#000000;stroke-width:1;stroke-linecap:butt;stroke-linejoin:miter;stroke-miterlimit:10;stroke-dasharray:none;stroke-opacity:1"
       transform="scale(0.95888006)"
       clip-path="url(#clipPath70)" />
    <text
       id="text70"
       xml:space="preserve"
       transform="matrix(0.95888966,0,0,0.95888966,10.023393,250.2702)"
       clip-path="url(#clipPath71)"><tspan
         style="font-variant:normal;font-weight:normal;font-size:19px;font-family:Helvetica;writing-mode:lr-tb;fill:#ff0000;fill-opacity:1;fill-rule:nonzero;stroke:none"
         x="0 14.778809 25.345703 29.566895"
         y="0"
         sodipodi:role="line"
         id="tspan70">Only</tspan></text>
    <text
       id="text71"
       xml:space="preserve"
       transform="matrix(0.95888966,0,0,0.95888966,1.9177793,272.32466)"
       clip-path="url(#clipPath72)"><tspan
         style="font-variant:normal;font-weight:normal;font-size:19px;font-family:Helvetica;writing-mode:lr-tb;fill:#ff0000;fill-opacity:1;fill-rule:nonzero;stroke:none"
         x="0 10.566895 21.133789 26.412598 31.691406 42.258301 46.479492"
         y="0"
         sodipodi:role="line"
         id="tspan71">do this</tspan></text>
    <text
       id="text72"
       xml:space="preserve"
       transform="matrix(0.95888966,0,0,0.95888966,13.064872,294.37912)"
       clip-path="url(#clipPath73)"><tspan
         style="font-variant:normal;font-weight:normal;font-size:19px;font-family:Helvetica;writing-mode:lr-tb;fill:#ff0000;fill-opacity:1;fill-rule:nonzero;stroke:none"
         x="0 10.566895 21.133789 27.460938"
         y="0"
         sodipodi:role="line"
         id="tspan72">part</tspan></text>
  </g>
</svg>
