<?xml version="1.0" encoding="UTF-8" standalone="no"?>
<!-- Created with Inkscape (http://www.inkscape.org/) -->

<svg
   version="1.1"
   id="svg1"
   width="608"
   height="360"
   viewBox="0 0 608 360"
   sodipodi:docname="node-13.pdf"
   xmlns:inkscape="http://www.inkscape.org/namespaces/inkscape"
   xmlns:sodipodi="http://sodipodi.sourceforge.net/DTD/sodipodi-0.dtd"
   xmlns="http://www.w3.org/2000/svg"
   xmlns:svg="http://www.w3.org/2000/svg">
  <defs
     id="defs1">
    <clipPath
       clipPathUnits="userSpaceOnUse"
       id="clipPath2">
      <path
         d="M 0,0 H 1900 V 1123.817 H 0 Z"
         transform="scale(0.3336842)"
         clip-rule="evenodd"
         id="path2" />
    </clipPath>
    <clipPath
       clipPathUnits="userSpaceOnUse"
       id="clipPath4">
      <path
         d="M 0,0 H 1900 V 1120.8202 H 0 Z"
         transform="matrix(0.3336842,0,0,0.3336842,-0.5,-0.5)"
         clip-rule="evenodd"
         id="path4" />
    </clipPath>
    <clipPath
       clipPathUnits="userSpaceOnUse"
       id="clipPath6">
      <path
         d="M 0,0 H 1900 V 1120.8202 H 0 Z"
         transform="matrix(0.3336842,0,0,0.3336842,-0.5,-0.5)"
         clip-rule="evenodd"
         id="path6" />
    </clipPath>
    <clipPath
       clipPathUnits="userSpaceOnUse"
       id="clipPath8">
      <path
         d="M 0,0 H 1900 V 1120.8202 H 0 Z"
         transform="matrix(0.3336842,0,0,0.3336842,-0.5,-0.5)"
         clip-rule="evenodd"
         id="path8" />
    </clipPath>
    <clipPath
       clipPathUnits="userSpaceOnUse"
       id="clipPath9">
      <path
         d="M 0,0 H 1900 V 1120.8202 H 0 Z"
         transform="matrix(0.33368086,0,0,0.33368086,-203.64063,-21.000001)"
         clip-rule="evenodd"
         id="path9" />
    </clipPath>
    <clipPath
       clipPathUnits="userSpaceOnUse"
       id="clipPath11">
      <path
         d="M 0,0 H 1900 V 1120.8202 H 0 Z"
         transform="matrix(0.3336842,0,0,0.3336842,-0.5,-0.5)"
         clip-rule="evenodd"
         id="path11" />
    </clipPath>
    <clipPath
       clipPathUnits="userSpaceOnUse"
       id="clipPath13">
      <path
         d="M 0,0 H 1900 V 1120.8202 H 0 Z"
         transform="matrix(0.3336842,0,0,0.3336842,-0.5,-0.5)"
         clip-rule="evenodd"
         id="path13" />
    </clipPath>
    <clipPath
       clipPathUnits="userSpaceOnUse"
       id="clipPath15">
      <path
         d="M 0,0 H 1900 V 1120.8202 H 0 Z"
         transform="matrix(0.3336842,0,0,0.3336842,-0.5,-0.5)"
         clip-rule="evenodd"
         id="path15" />
    </clipPath>
    <clipPath
       clipPathUnits="userSpaceOnUse"
       id="clipPath17">
      <path
         d="M 0,0 H 1900 V 1120.8202 H 0 Z"
         transform="matrix(0.3336842,0,0,0.3336842,-0.5,-0.5)"
         clip-rule="evenodd"
         id="path17" />
    </clipPath>
    <clipPath
       clipPathUnits="userSpaceOnUse"
       id="clipPath19">
      <path
         d="M 0,0 H 1900 V 1120.8202 H 0 Z"
         transform="matrix(0.3336842,0,0,0.3336842,-0.5,-0.5)"
         clip-rule="evenodd"
         id="path19" />
    </clipPath>
    <clipPath
       clipPathUnits="userSpaceOnUse"
       id="clipPath21">
      <path
         d="M 0,0 H 1900 V 1120.8202 H 0 Z"
         transform="matrix(0.3336842,0,0,0.3336842,-0.5,-0.5)"
         clip-rule="evenodd"
         id="path21" />
    </clipPath>
    <clipPath
       clipPathUnits="userSpaceOnUse"
       id="clipPath23">
      <path
         d="M 0,0 H 1900 V 1120.8202 H 0 Z"
         transform="matrix(0.3336842,0,0,0.3336842,-0.5,-0.5)"
         clip-rule="evenodd"
         id="path23" />
    </clipPath>
    <clipPath
       clipPathUnits="userSpaceOnUse"
       id="clipPath25">
      <path
         d="M 0,0 H 1900 V 1120.8202 H 0 Z"
         transform="matrix(0.3336842,0,0,0.3336842,-0.5,-0.5)"
         clip-rule="evenodd"
         id="path25" />
    </clipPath>
    <clipPath
       clipPathUnits="userSpaceOnUse"
       id="clipPath26">
      <path
         d="M 0,0 H 1900 V 1120.8202 H 0 Z"
         transform="matrix(0.33368086,0,0,0.33368086,-174.07813,-126.00001)"
         clip-rule="evenodd"
         id="path26" />
    </clipPath>
    <clipPath
       clipPathUnits="userSpaceOnUse"
       id="clipPath28">
      <path
         d="M 0,0 H 1900 V 1120.8202 H 0 Z"
         transform="matrix(0.3336842,0,0,0.3336842,-0.5,-0.5)"
         clip-rule="evenodd"
         id="path28" />
    </clipPath>
    <clipPath
       clipPathUnits="userSpaceOnUse"
       id="clipPath29">
      <path
         d="M 0,0 H 1900 V 1120.8202 H 0 Z"
         transform="matrix(0.33368086,0,0,0.33368086,-196.3125,-206)"
         clip-rule="evenodd"
         id="path29" />
    </clipPath>
    <clipPath
       clipPathUnits="userSpaceOnUse"
       id="clipPath31">
      <path
         d="M 0,0 H 1900 V 1120.8202 H 0 Z"
         transform="matrix(0.3336842,0,0,0.3336842,-0.5,-0.5)"
         clip-rule="evenodd"
         id="path31" />
    </clipPath>
    <clipPath
       clipPathUnits="userSpaceOnUse"
       id="clipPath32">
      <path
         d="M 0,0 H 1900 V 1120.8202 H 0 Z"
         transform="matrix(0.33368086,0,0,0.33368086,-197.20313,-336)"
         clip-rule="evenodd"
         id="path32" />
    </clipPath>
    <clipPath
       clipPathUnits="userSpaceOnUse"
       id="clipPath33">
      <path
         d="M 0,0 H 1900 V 1120.8202 H 0 Z"
         transform="matrix(0.33368086,0,0,0.33368086,-198.98438,-356)"
         clip-rule="evenodd"
         id="path33" />
    </clipPath>
    <clipPath
       clipPathUnits="userSpaceOnUse"
       id="clipPath35">
      <path
         d="M 0,0 H 1900 V 1120.8202 H 0 Z"
         transform="matrix(0.3336842,0,0,0.3336842,-0.5,-0.5)"
         clip-rule="evenodd"
         id="path35" />
    </clipPath>
    <clipPath
       clipPathUnits="userSpaceOnUse"
       id="clipPath36">
      <path
         d="M 0,0 H 1900 V 1120.8202 H 0 Z"
         transform="matrix(0.33368086,0,0,0.33368086,-0.09375,-170)"
         clip-rule="evenodd"
         id="path36" />
    </clipPath>
    <clipPath
       clipPathUnits="userSpaceOnUse"
       id="clipPath38">
      <path
         d="M 0,0 H 1900 V 1120.8202 H 0 Z"
         transform="matrix(0.3336842,0,0,0.3336842,-0.5,-0.5)"
         clip-rule="evenodd"
         id="path38" />
    </clipPath>
    <clipPath
       clipPathUnits="userSpaceOnUse"
       id="clipPath40">
      <path
         d="M 0,0 H 1900 V 1120.8202 H 0 Z"
         transform="matrix(0.3336842,0,0,0.3336842,-0.5,-0.5)"
         clip-rule="evenodd"
         id="path40" />
    </clipPath>
    <clipPath
       clipPathUnits="userSpaceOnUse"
       id="clipPath42">
      <path
         d="M 0,0 H 1900 V 1120.8202 H 0 Z"
         transform="matrix(0.3336842,0,0,0.3336842,-0.5,-0.5)"
         clip-rule="evenodd"
         id="path42" />
    </clipPath>
    <clipPath
       clipPathUnits="userSpaceOnUse"
       id="clipPath43">
      <path
         d="M 0,0 H 1900 V 1120.8202 H 0 Z"
         transform="matrix(0.33368086,0,0,0.33368086,-384.875,-126.00001)"
         clip-rule="evenodd"
         id="path43" />
    </clipPath>
    <clipPath
       clipPathUnits="userSpaceOnUse"
       id="clipPath45">
      <path
         d="M 0,0 H 1900 V 1120.8202 H 0 Z"
         transform="matrix(0.3336842,0,0,0.3336842,-0.5,-0.5)"
         clip-rule="evenodd"
         id="path45" />
    </clipPath>
    <clipPath
       clipPathUnits="userSpaceOnUse"
       id="clipPath46">
      <path
         d="M 0,0 H 1900 V 1120.8202 H 0 Z"
         transform="matrix(0.33368086,0,0,0.33368086,-546.20313,-126.00001)"
         clip-rule="evenodd"
         id="path46" />
    </clipPath>
  </defs>
  <sodipodi:namedview
     id="namedview1"
     pagecolor="#ffffff"
     bordercolor="#000000"
     borderopacity="0.25"
     inkscape:showpageshadow="2"
     inkscape:pageopacity="0.0"
     inkscape:pagecheckerboard="0"
     inkscape:deskcolor="#d1d1d1">
    <inkscape:page
       x="0"
       y="0"
       inkscape:label="1"
       id="page1"
       width="608"
       height="360"
       margin="0"
       bleed="0" />
  </sodipodi:namedview>
  <g
     id="g1"
     inkscape:groupmode="layer"
     inkscape:label="1">
    <path
       id="path1"
       d="M 0,0 H 634 V 375 H 0 Z"
       style="fill:#ffffff;fill-opacity:1;fill-rule:nonzero;stroke:none"
       transform="scale(0.95899052)"
       clip-path="url(#clipPath2)" />
    <path
       id="path3"
       d="M 227,31 V 51 41 50.900002"
       style="fill:none;stroke:#000000;stroke-width:1;stroke-linecap:butt;stroke-linejoin:miter;stroke-miterlimit:10;stroke-dasharray:none;stroke-opacity:1"
       transform="matrix(0.95899052,0,0,0.95899052,0.47949526,0.47949526)"
       clip-path="url(#clipPath4)" />
    <path
       id="path5"
       d="m 227,57.650002 -4.5,-9 4.5,2.25 4.5,-2.25 z"
       style="fill:#000000;fill-opacity:1;fill-rule:nonzero;stroke:#000000;stroke-width:1;stroke-linecap:butt;stroke-linejoin:miter;stroke-miterlimit:10;stroke-dasharray:none;stroke-opacity:1"
       transform="matrix(0.95899052,0,0,0.95899052,0.47949526,0.47949526)"
       clip-path="url(#clipPath6)" />
    <path
       id="path7"
       d="M 167,1 H 287 V 31 H 167 Z"
       style="fill:#ffffff;fill-opacity:1;fill-rule:nonzero;stroke:#000000;stroke-width:1;stroke-linecap:butt;stroke-linejoin:miter;stroke-miterlimit:10;stroke-dasharray:none;stroke-opacity:1"
       transform="matrix(0.95899052,0,0,0.95899052,0.47949526,0.47949526)"
       clip-path="url(#clipPath8)" />
    <text
       id="text8"
       xml:space="preserve"
       transform="matrix(0.95900012,0,0,0.95900012,195.29139,20.139003)"
       clip-path="url(#clipPath9)"><tspan
         style="font-variant:normal;font-weight:normal;font-size:14px;font-family:Helvetica;writing-mode:lr-tb;fill:#000000;fill-opacity:1;fill-rule:nonzero;stroke:none"
         x="0 4.6621094 12.448242 20.234375 28.020508 35.806641 42.806641"
         y="0"
         sodipodi:role="line"
         id="tspan8">request</tspan></text>
    <path
       id="path10"
       d="m 227,271 v 29.89999"
       style="fill:none;stroke:#000000;stroke-width:1;stroke-linecap:butt;stroke-linejoin:miter;stroke-miterlimit:10;stroke-dasharray:none;stroke-opacity:1"
       transform="matrix(0.95899052,0,0,0.95899052,0.47949526,0.47949526)"
       clip-path="url(#clipPath11)" />
    <path
       id="path12"
       d="m 227,307.64999 -4.5,-9 4.5,2.25 4.5,-2.25 z"
       style="fill:#000000;fill-opacity:1;fill-rule:nonzero;stroke:#000000;stroke-width:1;stroke-linecap:butt;stroke-linejoin:miter;stroke-miterlimit:10;stroke-dasharray:none;stroke-opacity:1"
       transform="matrix(0.95899052,0,0,0.95899052,0.47949526,0.47949526)"
       clip-path="url(#clipPath13)" />
    <path
       id="path14"
       d="M 132,61 H 322 V 271 H 132 Z"
       style="fill:#ffffff;fill-opacity:1;fill-rule:nonzero;stroke:#000000;stroke-width:1;stroke-linecap:butt;stroke-linejoin:miter;stroke-miterlimit:10;stroke-dasharray:none;stroke-opacity:1"
       transform="matrix(0.95899052,0,0,0.95899052,0.47949526,0.47949526)"
       clip-path="url(#clipPath15)" />
    <path
       id="path16"
       d="m 287,121 h 54.89999"
       style="fill:none;stroke:#000000;stroke-width:1;stroke-linecap:butt;stroke-linejoin:miter;stroke-miterlimit:10;stroke-dasharray:none;stroke-opacity:1"
       transform="matrix(0.95899052,0,0,0.95899052,0.47949526,0.47949526)"
       clip-path="url(#clipPath17)" />
    <path
       id="path18"
       d="m 348.64999,121 -9,4.5 2.25,-4.5 -2.25,-4.5 z"
       style="fill:#000000;fill-opacity:1;fill-rule:nonzero;stroke:#000000;stroke-width:1;stroke-linecap:butt;stroke-linejoin:miter;stroke-miterlimit:10;stroke-dasharray:none;stroke-opacity:1"
       transform="matrix(0.95899052,0,0,0.95899052,0.47949526,0.47949526)"
       clip-path="url(#clipPath19)" />
    <path
       id="path20"
       d="m 227,151 v 9.89999"
       style="fill:none;stroke:#000000;stroke-width:1;stroke-linecap:butt;stroke-linejoin:miter;stroke-miterlimit:10;stroke-dasharray:none;stroke-opacity:1"
       transform="matrix(0.95899052,0,0,0.95899052,0.47949526,0.47949526)"
       clip-path="url(#clipPath21)" />
    <path
       id="path22"
       d="m 227,167.64999 -4.5,-9 4.5,2.25 4.5,-2.25 z"
       style="fill:#000000;fill-opacity:1;fill-rule:nonzero;stroke:#000000;stroke-width:1;stroke-linecap:butt;stroke-linejoin:miter;stroke-miterlimit:10;stroke-dasharray:none;stroke-opacity:1"
       transform="matrix(0.95899052,0,0,0.95899052,0.47949526,0.47949526)"
       clip-path="url(#clipPath23)" />
    <path
       id="path24"
       d="m 167,91 h 120 v 60 H 167 Z"
       style="fill:#ffffff;fill-opacity:1;fill-rule:nonzero;stroke:#000000;stroke-width:1;stroke-linecap:butt;stroke-linejoin:miter;stroke-miterlimit:10;stroke-dasharray:none;stroke-opacity:1"
       transform="matrix(0.95899052,0,0,0.95899052,0.47949526,0.47949526)"
       clip-path="url(#clipPath25)" />
    <text
       id="text25"
       xml:space="preserve"
       transform="matrix(0.95900012,0,0,0.95900012,166.94095,120.83402)"
       clip-path="url(#clipPath26)"><tspan
         style="font-variant:normal;font-weight:normal;font-size:16px;font-family:Helvetica;writing-mode:lr-tb;fill:#000000;fill-opacity:1;fill-rule:nonzero;stroke:none"
         x="0 8 16.898438 25.796875 33.796875 37.351562 46.25 51.578125 59.578125 68.476562 76.476562 84.476562 88.03125 96.929688"
         y="0"
         sodipodi:role="line"
         id="tspan25">cookie-session</tspan></text>
    <path
       id="path27"
       d="m 167,171 h 120 v 60 H 167 Z"
       style="fill:#ffffff;fill-opacity:1;fill-rule:nonzero;stroke:#000000;stroke-width:1;stroke-linecap:butt;stroke-linejoin:miter;stroke-miterlimit:10;stroke-dasharray:none;stroke-opacity:1"
       transform="matrix(0.95899052,0,0,0.95899052,0.47949526,0.47949526)"
       clip-path="url(#clipPath28)" />
    <text
       id="text28"
       xml:space="preserve"
       transform="matrix(0.95900012,0,0,0.95900012,188.26371,197.55402)"
       clip-path="url(#clipPath29)"><tspan
         style="font-variant:normal;font-weight:normal;font-size:16px;font-family:Helvetica;writing-mode:lr-tb;fill:#000000;fill-opacity:1;fill-rule:nonzero;stroke:none"
         x="0 8.8984375 17.796875 25.796875 33.796875 42.695312 51.59375 56.921875"
         y="0"
         sodipodi:role="line"
         id="tspan28">passport</tspan></text>
    <path
       id="path30"
       d="m 167,311 h 120 v 60 H 167 Z"
       style="fill:#ffffff;fill-opacity:1;fill-rule:nonzero;stroke:#000000;stroke-width:1;stroke-linecap:butt;stroke-linejoin:miter;stroke-miterlimit:10;stroke-dasharray:none;stroke-opacity:1"
       transform="matrix(0.95899052,0,0,0.95899052,0.47949526,0.47949526)"
       clip-path="url(#clipPath31)" />
    <text
       id="text31"
       xml:space="preserve"
       transform="matrix(0.95900012,0,0,0.95900012,189.11783,322.22404)"
       clip-path="url(#clipPath32)"><tspan
         style="font-variant:normal;font-weight:normal;font-size:16px;font-family:Helvetica;writing-mode:lr-tb;fill:#000000;fill-opacity:1;fill-rule:nonzero;stroke:none"
         x="0 11.554688 20.453125 29.351562 38.25 47.148438 55.148438"
         y="0"
         sodipodi:role="line"
         id="tspan31">Request</tspan></text>
    <text
       id="text32"
       xml:space="preserve"
       transform="matrix(0.95900012,0,0,0.95900012,190.82604,341.40404)"
       clip-path="url(#clipPath33)"><tspan
         style="font-variant:normal;font-weight:normal;font-size:16px;font-family:Helvetica;writing-mode:lr-tb;fill:#000000;fill-opacity:1;fill-rule:nonzero;stroke:none"
         x="0 11.554688 20.453125 29.351562 38.25 41.804688 50.703125"
         y="0"
         sodipodi:role="line"
         id="tspan32">Handler</tspan></text>
    <path
       id="path34"
       d="m 122,61 h -7.5 c -5,0 -7.5,3.333336 -7.5,10 v 85 c 0,6.66667 -2.5,10 -7.5,10 h -3.75 c -2.5,0 -1.25,0 3.75,0 h 3.75 c 2.5,0 3.75,3.33333 3.75,10 v 85 c 0,6.66666 2.5,10 7.5,10 h 7.5"
       style="fill:none;stroke:#000000;stroke-width:1;stroke-linecap:butt;stroke-linejoin:miter;stroke-miterlimit:10;stroke-dasharray:none;stroke-opacity:1"
       transform="matrix(0.95899052,0,0,0.95899052,0.47949526,0.47949526)"
       clip-path="url(#clipPath35)" />
    <text
       id="text35"
       xml:space="preserve"
       transform="matrix(0.95900012,0,0,0.95900012,0.08990626,163.03002)"
       clip-path="url(#clipPath36)"><tspan
         style="font-variant:normal;font-weight:normal;font-size:16px;font-family:Helvetica;writing-mode:lr-tb;fill:#000000;fill-opacity:1;fill-rule:nonzero;stroke:none"
         x="0 13.328125 16.882812 25.78125 34.679688 38.234375 47.132812 58.6875 67.585938 72.914062 81.8125"
         y="0"
         sodipodi:role="line"
         id="tspan35">Middlewares</tspan></text>
    <path
       id="path37"
       d="m 472,121 h 29.89999"
       style="fill:none;stroke:#000000;stroke-width:1;stroke-linecap:butt;stroke-linejoin:miter;stroke-miterlimit:10;stroke-dasharray:none;stroke-opacity:1"
       transform="matrix(0.95899052,0,0,0.95899052,0.47949526,0.47949526)"
       clip-path="url(#clipPath38)" />
    <path
       id="path39"
       d="m 508.64999,121 -9,4.5 2.25,-4.5 -2.25,-4.5 z"
       style="fill:#000000;fill-opacity:1;fill-rule:nonzero;stroke:#000000;stroke-width:1;stroke-linecap:butt;stroke-linejoin:miter;stroke-miterlimit:10;stroke-dasharray:none;stroke-opacity:1"
       transform="matrix(0.95899052,0,0,0.95899052,0.47949526,0.47949526)"
       clip-path="url(#clipPath40)" />
    <path
       id="path41"
       d="m 352,91 h 120 v 60 H 352 Z"
       style="fill:#ffffff;fill-opacity:1;fill-rule:nonzero;stroke:#000000;stroke-width:1;stroke-linecap:butt;stroke-linejoin:miter;stroke-miterlimit:10;stroke-dasharray:none;stroke-opacity:1"
       transform="matrix(0.95899052,0,0,0.95899052,0.47949526,0.47949526)"
       clip-path="url(#clipPath42)" />
    <text
       id="text42"
       xml:space="preserve"
       transform="matrix(0.95900012,0,0,0.95900012,369.09517,120.83402)"
       clip-path="url(#clipPath43)"><tspan
         style="font-variant:normal;font-weight:normal;font-size:16px;font-family:Helvetica;writing-mode:lr-tb;fill:#000000;fill-opacity:1;fill-rule:nonzero;stroke:none"
         x="0 8 16.898438 25.796875 33.796875 37.351562 46.25"
         y="0"
         sodipodi:role="line"
         id="tspan42">cookies</tspan></text>
    <path
       id="path44"
       d="m 512.01001,91 h 120 v 60 h -120 z"
       style="fill:#ffffff;fill-opacity:1;fill-rule:nonzero;stroke:#000000;stroke-width:1;stroke-linecap:butt;stroke-linejoin:miter;stroke-miterlimit:10;stroke-dasharray:none;stroke-opacity:1"
       transform="matrix(0.95899052,0,0,0.95899052,0.47949526,0.47949526)"
       clip-path="url(#clipPath45)" />
    <text
       id="text45"
       xml:space="preserve"
       transform="matrix(0.95900012,0,0,0.95900012,523.80887,120.83402)"
       clip-path="url(#clipPath46)"><tspan
         style="font-variant:normal;font-weight:normal;font-size:16px;font-family:Helvetica;writing-mode:lr-tb;fill:#000000;fill-opacity:1;fill-rule:nonzero;stroke:none"
         x="0 8 16.898438 24.898438 33.796875 39.125 42.679688"
         y="0"
         sodipodi:role="line"
         id="tspan45">keygrip</tspan></text>
  </g>
</svg>
