<?xml version="1.0" encoding="UTF-8" standalone="no"?>
<!-- Created with Inkscape (http://www.inkscape.org/) -->

<svg
   version="1.1"
   id="svg1"
   width="780.15997"
   height="381.44"
   viewBox="0 0 780.15997 381.44"
   sodipodi:docname="node-6.pdf"
   xmlns:inkscape="http://www.inkscape.org/namespaces/inkscape"
   xmlns:sodipodi="http://sodipodi.sourceforge.net/DTD/sodipodi-0.dtd"
   xmlns="http://www.w3.org/2000/svg"
   xmlns:svg="http://www.w3.org/2000/svg">
  <defs
     id="defs1">
    <clipPath
       clipPathUnits="userSpaceOnUse"
       id="clipPath2">
      <path
         d="M 0,0 H 2437.5 V 1188.8053 H 0 Z"
         transform="scale(0.33394871)"
         clip-rule="evenodd"
         id="path2" />
    </clipPath>
    <clipPath
       clipPathUnits="userSpaceOnUse"
       id="clipPath4">
      <path
         d="M 0,0 H 2437.5 V 1188.8053 H 0 Z"
         transform="matrix(0.33394871,0,0,0.33394871,-0.49999999,-0.49999999)"
         clip-rule="evenodd"
         id="path4" />
    </clipPath>
    <clipPath
       clipPathUnits="userSpaceOnUse"
       id="clipPath6">
      <path
         d="M 0,0 H 2437.5 V 1188.8053 H 0 Z"
         transform="matrix(0.33394871,0,0,0.33394871,-0.49999999,-0.49999999)"
         clip-rule="evenodd"
         id="path6" />
    </clipPath>
    <clipPath
       clipPathUnits="userSpaceOnUse"
       id="clipPath8">
      <path
         d="M 0,0 H 2437.5 V 1188.8053 H 0 Z"
         transform="matrix(0.33394871,0,0,0.33394871,-0.49999999,-0.49999999)"
         clip-rule="evenodd"
         id="path8" />
    </clipPath>
    <clipPath
       clipPathUnits="userSpaceOnUse"
       id="clipPath10">
      <path
         d="M 0,0 H 2437.5 V 1188.8053 H 0 Z"
         transform="matrix(0.33394871,0,0,0.33394871,-0.49999999,-0.49999999)"
         clip-rule="evenodd"
         id="path10" />
    </clipPath>
    <clipPath
       clipPathUnits="userSpaceOnUse"
       id="clipPath11">
      <path
         d="M 0,0 H 2437.5 V 1188.8053 H 0 Z"
         transform="matrix(0.33394536,0,0,0.33394536,-108.98438,-200)"
         clip-rule="evenodd"
         id="path11" />
    </clipPath>
    <clipPath
       clipPathUnits="userSpaceOnUse"
       id="clipPath13">
      <path
         d="M 0,0 H 2437.5 V 1188.8053 H 0 Z"
         transform="matrix(0.33394871,0,0,0.33394871,-0.49999999,-0.49999999)"
         clip-rule="evenodd"
         id="path13" />
    </clipPath>
    <clipPath
       clipPathUnits="userSpaceOnUse"
       id="clipPath15">
      <path
         d="M 0,0 H 2437.5 V 1188.8053 H 0 Z"
         transform="matrix(0.33394871,0,0,0.33394871,-0.49999999,-0.49999999)"
         clip-rule="evenodd"
         id="path15" />
    </clipPath>
    <clipPath
       clipPathUnits="userSpaceOnUse"
       id="clipPath17">
      <path
         d="M 0,0 H 2437.5 V 1188.8053 H 0 Z"
         transform="matrix(0.33394871,0,0,0.33394871,-0.49999999,-0.49999999)"
         clip-rule="evenodd"
         id="path17" />
    </clipPath>
    <clipPath
       clipPathUnits="userSpaceOnUse"
       id="clipPath19">
      <path
         d="M 0,0 H 2437.5 V 1188.8053 H 0 Z"
         transform="matrix(0.33394871,0,0,0.33394871,-0.49999999,-0.49999999)"
         clip-rule="evenodd"
         id="path19" />
    </clipPath>
    <clipPath
       clipPathUnits="userSpaceOnUse"
       id="clipPath21">
      <path
         d="M 0,0 H 2437.5 V 1188.8053 H 0 Z"
         transform="matrix(0.33394871,0,0,0.33394871,-0.49999999,-0.49999999)"
         clip-rule="evenodd"
         id="path21" />
    </clipPath>
    <clipPath
       clipPathUnits="userSpaceOnUse"
       id="clipPath23">
      <path
         d="M 0,0 H 2437.5 V 1188.8053 H 0 Z"
         transform="matrix(0.33394871,0,0,0.33394871,-0.49999999,-0.49999999)"
         clip-rule="evenodd"
         id="path23" />
    </clipPath>
    <clipPath
       clipPathUnits="userSpaceOnUse"
       id="clipPath25">
      <path
         d="M 0,0 H 2437.5 V 1188.8053 H 0 Z"
         transform="matrix(0.33394871,0,0,0.33394871,-0.49999999,-0.49999999)"
         clip-rule="evenodd"
         id="path25" />
    </clipPath>
    <clipPath
       clipPathUnits="userSpaceOnUse"
       id="clipPath27">
      <path
         d="M 0,0 H 2437.5 V 1188.8053 H 0 Z"
         transform="matrix(0.33394871,0,0,0.33394871,-0.49999999,-0.49999999)"
         clip-rule="evenodd"
         id="path27" />
    </clipPath>
    <clipPath
       clipPathUnits="userSpaceOnUse"
       id="clipPath29">
      <path
         d="M 0,0 H 2437.5 V 1188.8053 H 0 Z"
         transform="matrix(0.33394871,0,0,0.33394871,-0.49999999,-0.49999999)"
         clip-rule="evenodd"
         id="path29" />
    </clipPath>
    <clipPath
       clipPathUnits="userSpaceOnUse"
       id="clipPath31">
      <path
         d="M 0,0 H 2437.5 V 1188.8053 H 0 Z"
         transform="matrix(0.33394871,0,0,0.33394871,-0.49999999,-0.49999999)"
         clip-rule="evenodd"
         id="path31" />
    </clipPath>
    <clipPath
       clipPathUnits="userSpaceOnUse"
       id="clipPath33">
      <path
         d="M 0,0 H 2437.5 V 1188.8053 H 0 Z"
         transform="matrix(0.33394871,0,0,0.33394871,-0.49999999,-0.49999999)"
         clip-rule="evenodd"
         id="path33" />
    </clipPath>
    <clipPath
       clipPathUnits="userSpaceOnUse"
       id="clipPath35">
      <path
         d="M 0,0 H 2437.5 V 1188.8053 H 0 Z"
         transform="matrix(0.33394871,0,0,0.33394871,-0.49999999,-0.49999999)"
         clip-rule="evenodd"
         id="path35" />
    </clipPath>
    <clipPath
       clipPathUnits="userSpaceOnUse"
       id="clipPath37">
      <path
         d="M 0,0 H 2437.5 V 1188.8053 H 0 Z"
         transform="matrix(0.33394871,0,0,0.33394871,-0.49999999,-0.49999999)"
         clip-rule="evenodd"
         id="path37" />
    </clipPath>
    <clipPath
       clipPathUnits="userSpaceOnUse"
       id="clipPath39">
      <path
         d="M 0,0 H 2437.5 V 1188.8053 H 0 Z"
         transform="matrix(0.33394871,0,0,0.33394871,-0.49999999,-0.49999999)"
         clip-rule="evenodd"
         id="path39" />
    </clipPath>
    <clipPath
       clipPathUnits="userSpaceOnUse"
       id="clipPath40">
      <path
         d="M 0,0 H 2437.5 V 1188.8053 H 0 Z"
         transform="matrix(0.33394536,0,0,0.33394536,-433,-80)"
         clip-rule="evenodd"
         id="path40" />
    </clipPath>
    <clipPath
       clipPathUnits="userSpaceOnUse"
       id="clipPath41">
      <path
         d="M 0,0 H 2437.5 V 1188.8053 H 0 Z"
         transform="matrix(0.33394536,0,0,0.33394536,-503,-128)"
         clip-rule="evenodd"
         id="path41" />
    </clipPath>
    <clipPath
       clipPathUnits="userSpaceOnUse"
       id="clipPath42">
      <path
         d="M 0,0 H 2437.5 V 1188.8053 H 0 Z"
         transform="matrix(0.33394536,0,0,0.33394536,-58.265625,-89)"
         clip-rule="evenodd"
         id="path42" />
    </clipPath>
    <clipPath
       clipPathUnits="userSpaceOnUse"
       id="clipPath43">
      <path
         d="M 0,0 H 2437.5 V 1188.8053 H 0 Z"
         transform="matrix(0.33394536,0,0,0.33394536,-505.625,-37)"
         clip-rule="evenodd"
         id="path43" />
    </clipPath>
    <clipPath
       clipPathUnits="userSpaceOnUse"
       id="clipPath45">
      <path
         d="M 0,0 H 2437.5 V 1188.8053 H 0 Z"
         transform="matrix(0.33394871,0,0,0.33394871,-0.49999999,-0.49999999)"
         clip-rule="evenodd"
         id="path45" />
    </clipPath>
    <clipPath
       clipPathUnits="userSpaceOnUse"
       id="clipPath46">
      <path
         d="M 0,0 H 2437.5 V 1188.8053 H 0 Z"
         transform="matrix(0.33394536,0,0,0.33394536,-243.17188,-388)"
         clip-rule="evenodd"
         id="path46" />
    </clipPath>
  </defs>
  <sodipodi:namedview
     id="namedview1"
     pagecolor="#ffffff"
     bordercolor="#000000"
     borderopacity="0.25"
     inkscape:showpageshadow="2"
     inkscape:pageopacity="0.0"
     inkscape:pagecheckerboard="0"
     inkscape:deskcolor="#d1d1d1">
    <inkscape:page
       x="0"
       y="0"
       inkscape:label="1"
       id="page1"
       width="780.15997"
       height="381.44"
       margin="0"
       bleed="0" />
  </sodipodi:namedview>
  <g
     id="g1"
     inkscape:groupmode="layer"
     inkscape:label="1">
    <path
       id="path1"
       d="M 0,0 H 814 V 397 H 0 Z"
       style="fill:#ffffff;fill-opacity:1;fill-rule:nonzero;stroke:none"
       transform="scale(0.95823094)"
       clip-path="url(#clipPath2)" />
    <path
       id="path3"
       d="m 261,192 h 55 l 44.89999,-0.13"
       style="fill:none;stroke:#000000;stroke-width:1;stroke-linecap:butt;stroke-linejoin:miter;stroke-miterlimit:10;stroke-dasharray:none;stroke-opacity:1"
       transform="matrix(0.95823094,0,0,0.95823094,0.47911546,0.47911546)"
       clip-path="url(#clipPath4)" />
    <path
       id="path5"
       d="M 367.64999,191.85001 358.66,196.37 l 2.23999,-4.5 -2.25998,-4.5 z"
       style="fill:#000000;fill-opacity:1;fill-rule:nonzero;stroke:#000000;stroke-width:1;stroke-linecap:butt;stroke-linejoin:miter;stroke-miterlimit:10;stroke-dasharray:none;stroke-opacity:1"
       transform="matrix(0.95823094,0,0,0.95823094,0.47911546,0.47911546)"
       clip-path="url(#clipPath6)" />
    <path
       id="path7"
       d="M 1,97 H 261 V 287 H 1 Z"
       style="fill:#ffffff;fill-opacity:1;fill-rule:nonzero;stroke:#000000;stroke-width:1;stroke-linecap:butt;stroke-linejoin:miter;stroke-miterlimit:10;stroke-dasharray:none;stroke-opacity:1"
       transform="matrix(0.95823094,0,0,0.95823094,0.47911546,0.47911546)"
       clip-path="url(#clipPath8)" />
    <path
       id="path9"
       d="m 71,162 h 120 v 60 H 71 Z"
       style="fill:#dae8fc;fill-opacity:1;fill-rule:nonzero;stroke:#6c8ebf;stroke-width:1;stroke-linecap:butt;stroke-linejoin:miter;stroke-miterlimit:10;stroke-dasharray:none;stroke-opacity:1"
       transform="matrix(0.95823094,0,0,0.95823094,0.47911546,0.47911546)"
       clip-path="url(#clipPath10)" />
    <text
       id="text10"
       xml:space="preserve"
       transform="matrix(0.95824054,0,0,0.95824054,104.43325,191.64811)"
       clip-path="url(#clipPath11)"><tspan
         style="font-variant:normal;font-weight:normal;font-size:24px;font-family:Helvetica;writing-mode:lr-tb;fill:#000000;fill-opacity:1;fill-rule:nonzero;stroke:none"
         x="0 12 25.347656 37.347656"
         y="0"
         sodipodi:role="line"
         id="tspan10">Jest</tspan></text>
    <path
       id="path12"
       d="M 371,49 H 811.01001 V 314 H 371 Z"
       style="fill:#ffffff;fill-opacity:1;fill-rule:nonzero;stroke:#666666;stroke-width:1;stroke-linecap:butt;stroke-linejoin:miter;stroke-miterlimit:10;stroke-dasharray:none;stroke-opacity:1"
       transform="matrix(0.95823094,0,0,0.95823094,0.47911546,0.47911546)"
       clip-path="url(#clipPath13)" />
    <path
       id="path14"
       d="m 756.01007,64 c 0,0.656609 -0.0641,1.306915 -0.1922,1.95092 -0.12811,0.64399 -0.31781,1.269302 -0.56909,1.875939 -0.25128,0.606636 -0.55933,1.18293 -0.92413,1.728881 -0.36481,0.54596 -0.7793,1.051087 -1.2436,1.515389 -0.46435,0.464294 -0.96954,0.878837 -1.5155,1.243637 -0.5459,0.364792 -1.12219,0.672829 -1.72882,0.92411 -0.60663,0.251274 -1.23193,0.440964 -1.87591,0.569069 -0.64399,0.128105 -1.29426,0.192154 -1.95081,0.192154 -0.65668,0 -1.30695,-0.06405 -1.95093,-0.192154 -0.64404,-0.128105 -1.26941,-0.317795 -1.8761,-0.569069 -0.60663,-0.251281 -1.18298,-0.559318 -1.72894,-0.92411 -0.54584,-0.3648 -1.05096,-0.779343 -1.51526,-1.243637 -0.46429,-0.464302 -0.87884,-0.969429 -1.24365,-1.515389 -0.36481,-0.545951 -0.67285,-1.122245 -0.92413,-1.728881 -0.25129,-0.606637 -0.44092,-1.231949 -0.56903,-1.875939 -0.12812,-0.644005 -0.19214,-1.294311 -0.19208,-1.95092 -6e-5,-0.656616 0.064,-1.306923 0.19208,-1.950924 0.12811,-0.644001 0.31781,-1.269318 0.56909,-1.87595 0.25128,-0.606632 0.55926,-1.18293 0.92407,-1.728885 0.36481,-0.545956 0.77936,-1.051079 1.24365,-1.515377 0.4643,-0.464299 0.96942,-0.87885 1.51532,-1.243645 0.54596,-0.364796 1.12225,-0.672833 1.72894,-0.924107 0.60663,-0.251278 1.232,-0.440964 1.87598,-0.569061 0.64398,-0.128101 1.29431,-0.19215 1.95099,-0.19215 0.65655,0 1.30682,0.06405 1.95081,0.19215 0.64398,0.128097 1.26928,0.317783 1.87591,0.569061 0.60663,0.251274 1.18292,0.559311 1.72888,0.924111 0.54596,0.364795 1.05109,0.779338 1.51544,1.243637 0.4643,0.464298 0.87879,0.969421 1.2436,1.515377 0.3648,0.545955 0.67279,1.122253 0.92407,1.728885 0.25128,0.606633 0.44104,1.231949 0.56915,1.87595 0.12811,0.644001 0.1922,1.294312 0.1922,1.950928 z"
       style="fill:none;stroke:#666666;stroke-width:1;stroke-linecap:butt;stroke-linejoin:miter;stroke-miterlimit:10;stroke-dasharray:none;stroke-opacity:1"
       transform="matrix(0.95823094,0,0,0.95823094,0.47911546,0.47911546)"
       clip-path="url(#clipPath15)" />
    <path
       id="path16"
       d="m 781.01007,64 c -6e-5,0.656609 -0.0641,1.306915 -0.1922,1.95092 -0.12811,0.64399 -0.31781,1.269302 -0.56909,1.875939 -0.25128,0.606636 -0.55927,1.18293 -0.92407,1.728881 -0.36481,0.54596 -0.7793,1.051087 -1.24359,1.515389 -0.4643,0.464294 -0.96943,0.878837 -1.51539,1.243637 -0.54602,0.364792 -1.12231,0.672829 -1.72894,0.92411 -0.60663,0.251274 -1.23199,0.440964 -1.87597,0.569069 -0.64399,0.128105 -1.29426,0.192154 -1.95081,0.192154 -0.65668,0 -1.30701,-0.06405 -1.95099,-0.192154 -0.64404,-0.128105 -1.26941,-0.317795 -1.87604,-0.569069 -0.60663,-0.251281 -1.18292,-0.559318 -1.72876,-0.92411 -0.54596,-0.3648 -1.05108,-0.779343 -1.51538,-1.243637 -0.46429,-0.464302 -0.8789,-0.969429 -1.24371,-1.515389 -0.36481,-0.545951 -0.67291,-1.122245 -0.92419,-1.728881 -0.25123,-0.606637 -0.44092,-1.231949 -0.56904,-1.875939 -0.12799,-0.644005 -0.19201,-1.294311 -0.19201,-1.95092 0,-0.656616 0.064,-1.306923 0.19208,-1.950924 0.12811,-0.644001 0.31781,-1.269318 0.56909,-1.87595 0.25128,-0.606632 0.55926,-1.18293 0.92407,-1.728885 0.36481,-0.545956 0.77942,-1.051079 1.24371,-1.515377 0.4643,-0.464299 0.96942,-0.87885 1.51538,-1.243645 0.5459,-0.364796 1.1222,-0.672833 1.72882,-0.924107 0.60663,-0.251278 1.23194,-0.440964 1.87598,-0.569061 0.64398,-0.128101 1.29431,-0.19215 1.95099,-0.19215 0.65655,0 1.30688,0.06405 1.95087,0.19215 0.64398,0.128097 1.26928,0.317783 1.87591,0.569061 0.60663,0.251274 1.18292,0.559311 1.72888,0.924111 0.54596,0.364795 1.05115,0.779338 1.51545,1.243637 0.46429,0.464298 0.87878,0.969421 1.24359,1.515377 0.3648,0.545955 0.67279,1.122253 0.92407,1.728885 0.25128,0.606633 0.44098,1.231949 0.56909,1.87595 0.12811,0.644001 0.19214,1.294312 0.1922,1.950928 z"
       style="fill:none;stroke:#666666;stroke-width:1;stroke-linecap:butt;stroke-linejoin:miter;stroke-miterlimit:10;stroke-dasharray:none;stroke-opacity:1"
       transform="matrix(0.95823094,0,0,0.95823094,0.47911546,0.47911546)"
       clip-path="url(#clipPath17)" />
    <path
       id="path18"
       d="m 806.01007,64 c -6e-5,0.656609 -0.0641,1.306915 -0.1922,1.95092 -0.12811,0.64399 -0.31781,1.269302 -0.56909,1.875939 -0.25128,0.606636 -0.55933,1.18293 -0.92413,1.728881 -0.36481,0.54596 -0.7793,1.051087 -1.2436,1.515389 -0.46429,0.464294 -0.96948,0.878837 -1.51544,1.243637 -0.54596,0.364792 -1.12225,0.672829 -1.72888,0.92411 -0.60663,0.251274 -1.23193,0.440964 -1.87591,0.569069 -0.64399,0.128105 -1.29426,0.192154 -1.95081,0.192154 -0.65668,0 -1.30695,-0.06405 -1.95093,-0.192154 -0.64404,-0.128105 -1.26941,-0.317795 -1.87604,-0.569069 -0.60662,-0.251281 -1.18292,-0.559318 -1.72888,-0.92411 -0.54596,-0.3648 -1.05108,-0.779343 -1.51538,-1.243637 -0.46429,-0.464302 -0.8789,-0.969429 -1.24371,-1.515389 -0.36481,-0.545951 -0.67279,-1.122245 -0.92401,-1.728881 -0.25128,-0.606637 -0.44098,-1.231949 -0.56909,-1.875939 -0.12812,-0.644005 -0.19214,-1.294311 -0.19208,-1.95092 -6e-5,-0.656616 0.064,-1.306923 0.19208,-1.950924 0.12811,-0.644001 0.31774,-1.269318 0.56903,-1.87595 0.25122,-0.606632 0.5592,-1.18293 0.92401,-1.728885 0.36487,-0.545956 0.77948,-1.051079 1.24377,-1.515377 0.4643,-0.464299 0.96948,-0.87885 1.51544,-1.243645 0.54596,-0.364796 1.1222,-0.672833 1.72882,-0.924107 0.60663,-0.251278 1.232,-0.440964 1.87598,-0.569061 0.64398,-0.128101 1.29431,-0.19215 1.95099,-0.19215 0.65655,0 1.30682,0.06405 1.95081,0.19215 0.64398,0.128097 1.26928,0.317783 1.87597,0.569061 0.60663,0.251274 1.18292,0.559311 1.72888,0.924111 0.54596,0.364795 1.05109,0.779338 1.51538,1.243637 0.4643,0.464298 0.87879,0.969421 1.2436,1.515377 0.3648,0.545955 0.67285,1.122253 0.92413,1.728885 0.25128,0.606633 0.44098,1.231949 0.56909,1.87595 0.12811,0.644001 0.19214,1.294312 0.1922,1.950928 z"
       style="fill:none;stroke:#008cff;stroke-width:1;stroke-linecap:butt;stroke-linejoin:miter;stroke-miterlimit:10;stroke-dasharray:none;stroke-opacity:1"
       transform="matrix(0.95823094,0,0,0.95823094,0.47911546,0.47911546)"
       clip-path="url(#clipPath19)" />
    <path
       id="path20"
       d="m 371,89 h 30 V 64 c 0,-2.759998 2.23999,-5 5,-5 h 135.01001 c 2.76001,0 5,2.240002 5,5 v 25 h 265"
       style="fill:none;stroke:#c4c4c4;stroke-width:1;stroke-linecap:butt;stroke-linejoin:miter;stroke-miterlimit:10;stroke-dasharray:none;stroke-opacity:1"
       transform="matrix(0.95823094,0,0,0.95823094,0.47911546,0.47911546)"
       clip-path="url(#clipPath21)" />
    <path
       id="path22"
       d="M 371,159 H 811.01001"
       style="fill:none;stroke:#c4c4c4;stroke-width:1;stroke-linecap:butt;stroke-linejoin:miter;stroke-miterlimit:10;stroke-dasharray:none;stroke-opacity:1"
       transform="matrix(0.95823094,0,0,0.95823094,0.47911546,0.47911546)"
       clip-path="url(#clipPath23)" />
    <path
       id="path24"
       d="m 471,109 c 0,-2.76 2.23999,-5 5,-5 h 320.01001 c 2.76001,0 5,2.24 5,5 v 25 c 0,2.75999 -2.23999,5 -5,5 H 476 c -2.76001,0 -5,-2.24001 -5,-5 z"
       style="fill:none;stroke:#c4c4c4;stroke-width:1;stroke-linecap:butt;stroke-linejoin:miter;stroke-miterlimit:10;stroke-dasharray:none;stroke-opacity:1"
       transform="matrix(0.95823094,0,0,0.95823094,0.47911546,0.47911546)"
       clip-path="url(#clipPath25)" />
    <path
       id="path26"
       d="m 408,66 h 11 l 4,4 v 14 h -15 z"
       style="fill:none;stroke:#c4c4c4;stroke-width:1;stroke-linecap:butt;stroke-linejoin:miter;stroke-miterlimit:10;stroke-dasharray:none;stroke-opacity:1"
       transform="matrix(0.95823094,0,0,0.95823094,0.47911546,0.47911546)"
       clip-path="url(#clipPath27)" />
    <path
       id="path28"
       d="m 419,66 v 4 l 4,1"
       style="fill:none;stroke:#c4c4c4;stroke-width:1;stroke-linecap:butt;stroke-linejoin:miter;stroke-miterlimit:10;stroke-dasharray:none;stroke-opacity:1"
       transform="matrix(0.95823094,0,0,0.95823094,0.47911546,0.47911546)"
       clip-path="url(#clipPath29)" />
    <path
       id="path30"
       d="m 478,113 h 11 l 4,4 v 14 h -15 z"
       style="fill:none;stroke:#c4c4c4;stroke-width:1;stroke-linecap:butt;stroke-linejoin:miter;stroke-miterlimit:10;stroke-dasharray:none;stroke-opacity:1"
       transform="matrix(0.95823094,0,0,0.95823094,0.47911546,0.47911546)"
       clip-path="url(#clipPath31)" />
    <path
       id="path32"
       d="m 489,113 v 4 l 4,1"
       style="fill:none;stroke:#c4c4c4;stroke-width:1;stroke-linecap:butt;stroke-linejoin:miter;stroke-miterlimit:10;stroke-dasharray:none;stroke-opacity:1"
       transform="matrix(0.95823094,0,0,0.95823094,0.47911546,0.47911546)"
       clip-path="url(#clipPath33)" />
    <path
       id="path34"
       d="m 383,123 10,-10 v 6 h 10 v 8 h -10 v 6 z"
       style="fill:#c4c4c4;fill-opacity:1;fill-rule:nonzero;stroke:#c4c4c4;stroke-width:1;stroke-linecap:butt;stroke-linejoin:miter;stroke-miterlimit:10;stroke-dasharray:none;stroke-opacity:1"
       transform="matrix(0.95823094,0,0,0.95823094,0.47911546,0.47911546)"
       clip-path="url(#clipPath35)" />
    <path
       id="path36"
       d="m 433,123 -10,-10 v 6 h -10 v 8 h 10 v 6 z"
       style="fill:#c4c4c4;fill-opacity:1;fill-rule:nonzero;stroke:#c4c4c4;stroke-width:1;stroke-linecap:butt;stroke-linejoin:miter;stroke-miterlimit:10;stroke-dasharray:none;stroke-opacity:1"
       transform="matrix(0.95823094,0,0,0.95823094,0.47911546,0.47911546)"
       clip-path="url(#clipPath37)" />
    <path
       id="path38"
       d="m 458.60001,126.3 c -1.70002,2.84 -5.37,3.76 -8.21,2.06 -2.84002,-1.69 -3.78002,-5.36 -2.09002,-8.21 1.69,-2.84 5.35,-3.79 8.20001,-2.11 l -1.60001,1.46 7.9,1.8 -1.79999,-7.5 -1.70001,1.6 c -3.19,-2.37 -7.48999,-2.58 -10.9,-0.53 -3.41,2.05 -5.22998,5.96 -4.63,9.89 0.61001,3.93 3.53,7.10999 7.40002,8.02999 C 455.03,133.72 459.07999,132.23 461.39999,129 Z"
       style="fill:#c4c4c4;fill-opacity:1;fill-rule:nonzero;stroke:#c4c4c4;stroke-width:1;stroke-linecap:butt;stroke-linejoin:miter;stroke-miterlimit:10;stroke-dasharray:none;stroke-opacity:1"
       transform="matrix(0.95823094,0,0,0.95823094,0.47911546,0.47911546)"
       clip-path="url(#clipPath39)" />
    <text
       id="text39"
       xml:space="preserve"
       transform="matrix(0.95824054,0,0,0.95824054,414.91815,76.659243)"
       clip-path="url(#clipPath40)"><tspan
         style="font-variant:normal;font-weight:normal;font-size:17px;font-family:Helvetica;writing-mode:lr-tb;fill:#666666;fill-opacity:1;fill-rule:nonzero;stroke:none"
         x="0 11.338867 20.793457 30.248047 39.702637 44.425781"
         y="0"
         sodipodi:role="line"
         id="tspan39">Page 1</tspan></text>
    <text
       id="text40"
       xml:space="preserve"
       transform="matrix(0.95824054,0,0,0.95824054,481.99499,122.65479)"
       clip-path="url(#clipPath41)"><tspan
         style="font-variant:normal;font-weight:normal;font-size:17px;font-family:Helvetica;writing-mode:lr-tb;fill:#666666;fill-opacity:1;fill-rule:nonzero;stroke:none"
         x="0 9.4545898 14.177734 18.900879 28.355469 36.855469 41.578613 46.301758 51.024902 63.301758 75.578613 86.925781 91.648926 101.10352 106.76465 116.21924 127.56641 132.28955 136.06641"
         y="0"
         sodipodi:role="line"
         id="tspan40">https://www.draw.io</tspan></text>
    <text
       id="text41"
       xml:space="preserve"
       transform="matrix(0.95824054,0,0,0.95824054,55.832484,85.283408)"
       clip-path="url(#clipPath42)"><tspan
         style="font-variant:normal;font-weight:normal;font-size:24px;font-family:Helvetica;writing-mode:lr-tb;fill:#000000;fill-opacity:1;fill-rule:nonzero;stroke:none"
         x="0 17.332031 30.679688 44.027344 57.375 69.375 85.382812 92.050781 105.39844 118.74609 132.09375"
         y="0"
         sodipodi:role="line"
         id="tspan41">NodeJS Land</tspan></text>
    <text
       id="text42"
       xml:space="preserve"
       transform="matrix(0.95824054,0,0,0.95824054,484.51037,35.4549)"
       clip-path="url(#clipPath43)"><tspan
         style="font-variant:normal;font-weight:normal;font-size:24px;font-family:Helvetica;writing-mode:lr-tb;fill:#000000;fill-opacity:1;fill-rule:nonzero;stroke:none"
         x="0 17.332031 30.679688 38.671875 52.019531 72.011719 77.34375 90.691406 110.68359 117.35156 130.69922 144.04688 157.39453"
         y="0"
         sodipodi:role="line"
         id="tspan42">Chromium Land</tspan></text>
    <path
       id="path44"
       d="M 311,362 V 2"
       style="fill:none;stroke:#000000;stroke-width:1;stroke-linecap:butt;stroke-linejoin:miter;stroke-miterlimit:10;stroke-dasharray:none;stroke-opacity:1"
       transform="matrix(0.95823094,0,0,0.95823094,0.47911546,0.47911546)"
       clip-path="url(#clipPath45)" />
    <text
       id="text45"
       xml:space="preserve"
       transform="matrix(0.95824054,0,0,0.95824054,233.01715,371.79733)"
       clip-path="url(#clipPath46)"><tspan
         style="font-variant:normal;font-weight:normal;font-size:24px;font-family:Helvetica;writing-mode:lr-tb;fill:#000000;fill-opacity:1;fill-rule:nonzero;stroke:none"
         x="0 22.230469 35.578125 43.570312 48.902344 62.25 74.25 79.605469 95.613281 108.96094 122.30859 130.30078 136.96875"
         y="0"
         sodipodi:role="line"
         id="tspan45">Worlds Apart!</tspan></text>
  </g>
</svg>
