<?xml version="1.0" encoding="UTF-8" standalone="no"?>
<!-- Created with Inkscape (http://www.inkscape.org/) -->

<svg
   version="1.1"
   id="svg1"
   width="637.44"
   height="236.16"
   viewBox="0 0 637.44 236.16"
   sodipodi:docname="node-7.pdf"
   xmlns:inkscape="http://www.inkscape.org/namespaces/inkscape"
   xmlns:sodipodi="http://sodipodi.sourceforge.net/DTD/sodipodi-0.dtd"
   xmlns="http://www.w3.org/2000/svg"
   xmlns:svg="http://www.w3.org/2000/svg">
  <defs
     id="defs1">
    <clipPath
       clipPathUnits="userSpaceOnUse"
       id="clipPath2">
      <path
         d="M 0,0 H 1991.6666 V 734.87695 H 0 Z"
         transform="scale(0.33338913)"
         clip-rule="evenodd"
         id="path2" />
    </clipPath>
    <clipPath
       clipPathUnits="userSpaceOnUse"
       id="clipPath4">
      <path
         d="M 0,0 H 1991.6666 V 731.8775 H 0 Z"
         transform="matrix(0.33338913,0,0,0.33338913,-0.49999999,-0.49999999)"
         clip-rule="evenodd"
         id="path4" />
    </clipPath>
    <clipPath
       clipPathUnits="userSpaceOnUse"
       id="clipPath6">
      <path
         d="M 0,0 H 1991.6666 V 731.8775 H 0 Z"
         transform="matrix(0.33338913,0,0,0.33338913,-0.49999999,-0.49999999)"
         clip-rule="evenodd"
         id="path6" />
    </clipPath>
    <clipPath
       clipPathUnits="userSpaceOnUse"
       id="clipPath8">
      <path
         d="M 0,0 H 1991.6666 V 731.8775 H 0 Z"
         transform="scale(0.33338913)"
         clip-rule="evenodd"
         id="path8" />
    </clipPath>
    <clipPath
       clipPathUnits="userSpaceOnUse"
       id="clipPath9">
      <path
         d="M 0,0 H 1991.6666 V 731.8775 H 0 Z"
         transform="matrix(0.3333858,0,0,0.3333858,-365.35937,-105)"
         clip-rule="evenodd"
         id="path9" />
    </clipPath>
    <clipPath
       clipPathUnits="userSpaceOnUse"
       id="clipPath10">
      <path
         d="M 0,0 H 1991.6666 V 731.8775 H 0 Z"
         transform="matrix(0.3333858,0,0,0.3333858,-356.92188,-128)"
         clip-rule="evenodd"
         id="path10" />
    </clipPath>
    <clipPath
       clipPathUnits="userSpaceOnUse"
       id="clipPath11">
      <path
         d="M 0,0 H 1991.6666 V 731.8775 H 0 Z"
         transform="matrix(0.3333858,0,0,0.3333858,-364.3125,-151)"
         clip-rule="evenodd"
         id="path11" />
    </clipPath>
    <clipPath
       clipPathUnits="userSpaceOnUse"
       id="clipPath13">
      <path
         d="M 0,0 H 1991.6666 V 731.8775 H 0 Z"
         transform="matrix(0.33338913,0,0,0.33338913,-0.49999999,-0.49999999)"
         clip-rule="evenodd"
         id="path13" />
    </clipPath>
    <clipPath
       clipPathUnits="userSpaceOnUse"
       id="clipPath15">
      <path
         d="M 0,0 H 1991.6666 V 731.8775 H 0 Z"
         transform="matrix(0.33338913,0,0,0.33338913,-0.49999999,-0.49999999)"
         clip-rule="evenodd"
         id="path15" />
    </clipPath>
    <clipPath
       clipPathUnits="userSpaceOnUse"
       id="clipPath17">
      <path
         d="M 0,0 H 1991.6666 V 731.8775 H 0 Z"
         transform="scale(0.33338913)"
         clip-rule="evenodd"
         id="path17" />
    </clipPath>
    <clipPath
       clipPathUnits="userSpaceOnUse"
       id="clipPath18">
      <path
         d="M 0,0 H 1991.6666 V 731.8775 H 0 Z"
         transform="matrix(0.3333858,0,0,0.3333858,-18.59375,-38)"
         clip-rule="evenodd"
         id="path18" />
    </clipPath>
    <clipPath
       clipPathUnits="userSpaceOnUse"
       id="clipPath20">
      <path
         d="M 0,0 H 1991.6666 V 731.8775 H 0 Z"
         transform="matrix(0.33338913,0,0,0.33338913,-0.49999999,-0.49999999)"
         clip-rule="evenodd"
         id="path20" />
    </clipPath>
    <clipPath
       clipPathUnits="userSpaceOnUse"
       id="clipPath22">
      <path
         d="M 0,0 H 1991.6666 V 731.8775 H 0 Z"
         transform="matrix(0.33338913,0,0,0.33338913,-0.49999999,-0.49999999)"
         clip-rule="evenodd"
         id="path22" />
    </clipPath>
    <clipPath
       clipPathUnits="userSpaceOnUse"
       id="clipPath24">
      <path
         d="M 0,0 H 1991.6666 V 731.8775 H 0 Z"
         transform="scale(0.33338913)"
         clip-rule="evenodd"
         id="path24" />
    </clipPath>
    <clipPath
       clipPathUnits="userSpaceOnUse"
       id="clipPath25">
      <path
         d="M 0,0 H 1991.6666 V 731.8775 H 0 Z"
         transform="matrix(0.3333858,0,0,0.3333858,-18.59375,-98)"
         clip-rule="evenodd"
         id="path25" />
    </clipPath>
    <clipPath
       clipPathUnits="userSpaceOnUse"
       id="clipPath27">
      <path
         d="M 0,0 H 1991.6666 V 731.8775 H 0 Z"
         transform="matrix(0.33338913,0,0,0.33338913,-0.49999999,-0.49999999)"
         clip-rule="evenodd"
         id="path27" />
    </clipPath>
    <clipPath
       clipPathUnits="userSpaceOnUse"
       id="clipPath29">
      <path
         d="M 0,0 H 1991.6666 V 731.8775 H 0 Z"
         transform="matrix(0.33338913,0,0,0.33338913,-0.49999999,-0.49999999)"
         clip-rule="evenodd"
         id="path29" />
    </clipPath>
    <clipPath
       clipPathUnits="userSpaceOnUse"
       id="clipPath31">
      <path
         d="M 0,0 H 1991.6666 V 731.8775 H 0 Z"
         transform="scale(0.33338913)"
         clip-rule="evenodd"
         id="path31" />
    </clipPath>
    <clipPath
       clipPathUnits="userSpaceOnUse"
       id="clipPath32">
      <path
         d="M 0,0 H 1991.6666 V 731.8775 H 0 Z"
         transform="matrix(0.3333858,0,0,0.3333858,-18.59375,-158)"
         clip-rule="evenodd"
         id="path32" />
    </clipPath>
    <clipPath
       clipPathUnits="userSpaceOnUse"
       id="clipPath34">
      <path
         d="M 0,0 H 1991.6666 V 731.8775 H 0 Z"
         transform="matrix(0.33338913,0,0,0.33338913,-0.49999999,-0.49999999)"
         clip-rule="evenodd"
         id="path34" />
    </clipPath>
    <clipPath
       clipPathUnits="userSpaceOnUse"
       id="clipPath36">
      <path
         d="M 0,0 H 1991.6666 V 731.8775 H 0 Z"
         transform="matrix(0.33338913,0,0,0.33338913,-0.49999999,-0.49999999)"
         clip-rule="evenodd"
         id="path36" />
    </clipPath>
    <clipPath
       clipPathUnits="userSpaceOnUse"
       id="clipPath38">
      <path
         d="M 0,0 H 1991.6666 V 731.8775 H 0 Z"
         transform="scale(0.33338913)"
         clip-rule="evenodd"
         id="path38" />
    </clipPath>
    <clipPath
       clipPathUnits="userSpaceOnUse"
       id="clipPath39">
      <path
         d="M 0,0 H 1991.6666 V 731.8775 H 0 Z"
         transform="matrix(0.3333858,0,0,0.3333858,-18.59375,-218)"
         clip-rule="evenodd"
         id="path39" />
    </clipPath>
    <clipPath
       clipPathUnits="userSpaceOnUse"
       id="clipPath41">
      <path
         d="M 0,0 H 1991.6666 V 731.8775 H 0 Z"
         transform="scale(0.33338913)"
         clip-rule="evenodd"
         id="path41" />
    </clipPath>
    <clipPath
       clipPathUnits="userSpaceOnUse"
       id="clipPath42">
      <path
         d="M 0,0 H 1991.6666 V 731.8775 H 0 Z"
         transform="matrix(0.3333858,0,0,0.3333858,-557.96874,-128)"
         clip-rule="evenodd"
         id="path42" />
    </clipPath>
  </defs>
  <sodipodi:namedview
     id="namedview1"
     pagecolor="#ffffff"
     bordercolor="#000000"
     borderopacity="0.25"
     inkscape:showpageshadow="2"
     inkscape:pageopacity="0.0"
     inkscape:pagecheckerboard="0"
     inkscape:deskcolor="#d1d1d1">
    <inkscape:page
       x="0"
       y="0"
       inkscape:label="1"
       id="page1"
       width="637.44"
       height="236.16"
       margin="0"
       bleed="0" />
  </sodipodi:namedview>
  <g
     id="g1"
     inkscape:groupmode="layer"
     inkscape:label="1">
    <path
       id="path1"
       d="M 0,0 H 664 V 245 H 0 Z"
       style="fill:#ffffff;fill-opacity:1;fill-rule:nonzero;stroke:none"
       transform="scale(0.95983929)"
       clip-path="url(#clipPath2)" />
    <path
       id="path3"
       d="m 461,121 h 59.90002"
       style="fill:none;stroke:#000000;stroke-width:1;stroke-linecap:butt;stroke-linejoin:miter;stroke-miterlimit:10;stroke-dasharray:none;stroke-opacity:1"
       transform="matrix(0.95983929,0,0,0.95983929,0.47991964,0.47991964)"
       clip-path="url(#clipPath4)" />
    <path
       id="path5"
       d="m 527.65002,121 -9,4.5 2.25,-4.5 -2.25,-4.5 z"
       style="fill:#000000;fill-opacity:1;fill-rule:nonzero;stroke:#000000;stroke-width:1;stroke-linecap:butt;stroke-linejoin:miter;stroke-miterlimit:10;stroke-dasharray:none;stroke-opacity:1"
       transform="matrix(0.95983929,0,0,0.95983929,0.47991964,0.47991964)"
       clip-path="url(#clipPath6)" />
    <path
       id="path7"
       d="M 331,61 H 461 V 181 H 331 Z"
       style="fill:#ffffff;fill-opacity:1;fill-rule:nonzero;stroke:#000000;stroke-width:1;stroke-linecap:butt;stroke-linejoin:miter;stroke-miterlimit:10;stroke-dasharray:none;stroke-opacity:1"
       transform="scale(0.95983929)"
       clip-path="url(#clipPath8)" />
    <text
       id="text8"
       xml:space="preserve"
       transform="matrix(0.95984889,0,0,0.95984889,350.68979,100.78413)"
       clip-path="url(#clipPath9)"><tspan
         style="font-variant:normal;font-weight:normal;font-size:19px;font-family:Helvetica;writing-mode:lr-tb;fill:#000000;fill-opacity:1;fill-rule:nonzero;stroke:none"
         x="0 14.778809 25.345703 35.912598 46.479492 50.700684"
         y="0"
         sodipodi:role="line"
         id="tspan8">Google</tspan></text>
    <text
       id="text9"
       xml:space="preserve"
       transform="matrix(0.95984889,0,0,0.95984889,342.59107,122.86066)"
       clip-path="url(#clipPath10)"><tspan
         style="font-variant:normal;font-weight:normal;font-size:19px;font-family:Helvetica;writing-mode:lr-tb;fill:#000000;fill-opacity:1;fill-rule:nonzero;stroke:none"
         x="0 12.672852 22.172852 31.672852 42.239746 52.806641 63.373535 68.652344"
         y="0"
         sodipodi:role="line"
         id="tspan9">Accounts</tspan></text>
    <text
       id="text10"
       xml:space="preserve"
       transform="matrix(0.95984889,0,0,0.95984889,349.68495,144.93718)"
       clip-path="url(#clipPath11)"><tspan
         style="font-variant:normal;font-weight:normal;font-size:19px;font-family:Helvetica;writing-mode:lr-tb;fill:#000000;fill-opacity:1;fill-rule:nonzero;stroke:none"
         x="0 12.672852 23.239746 29.566895 39.066895 43.288086 52.788086"
         y="0"
         sodipodi:role="line"
         id="tspan10">Service</tspan></text>
    <path
       id="path12"
       d="m 221,31 h 55 v 90 h 44.89999"
       style="fill:none;stroke:#000000;stroke-width:1;stroke-linecap:butt;stroke-linejoin:miter;stroke-miterlimit:10;stroke-dasharray:none;stroke-opacity:1"
       transform="matrix(0.95983929,0,0,0.95983929,0.47991964,0.47991964)"
       clip-path="url(#clipPath13)" />
    <path
       id="path14"
       d="m 327.64999,121 -9,4.5 2.25,-4.5 -2.25,-4.5 z"
       style="fill:#000000;fill-opacity:1;fill-rule:nonzero;stroke:#000000;stroke-width:1;stroke-linecap:butt;stroke-linejoin:miter;stroke-miterlimit:10;stroke-dasharray:none;stroke-opacity:1"
       transform="matrix(0.95983929,0,0,0.95983929,0.47991964,0.47991964)"
       clip-path="url(#clipPath15)" />
    <path
       id="path16"
       d="M 1,1 H 221 V 61 H 1 Z"
       style="fill:#ffffff;fill-opacity:1;fill-rule:nonzero;stroke:#000000;stroke-width:1;stroke-linecap:butt;stroke-linejoin:miter;stroke-miterlimit:10;stroke-dasharray:none;stroke-opacity:1"
       transform="scale(0.95983929)"
       clip-path="url(#clipPath17)" />
    <text
       id="text17"
       xml:space="preserve"
       transform="matrix(0.95984889,0,0,0.95984889,17.84719,36.474258)"
       clip-path="url(#clipPath18)"><tspan
         style="font-variant:normal;font-weight:normal;font-size:19px;font-family:Helvetica;writing-mode:lr-tb;fill:#000000;fill-opacity:1;fill-rule:nonzero;stroke:none"
         x="0 12.672852 23.239746 28.518555 39.085449 54.912598 65.479492 70.758301 81.325195 91.89209 97.170898 110.89209 121.45898 127.78613 138.35303 154.18018 158.40137 168.96826"
         y="0"
         sodipodi:role="line"
         id="tspan17">Automated Chromium</tspan></text>
    <path
       id="path19"
       d="m 221,91 h 55 v 30 h 44.89999"
       style="fill:none;stroke:#000000;stroke-width:1;stroke-linecap:butt;stroke-linejoin:miter;stroke-miterlimit:10;stroke-dasharray:none;stroke-opacity:1"
       transform="matrix(0.95983929,0,0,0.95983929,0.47991964,0.47991964)"
       clip-path="url(#clipPath20)" />
    <path
       id="path21"
       d="m 327.64999,121 -9,4.5 2.25,-4.5 -2.25,-4.5 z"
       style="fill:#000000;fill-opacity:1;fill-rule:nonzero;stroke:#000000;stroke-width:1;stroke-linecap:butt;stroke-linejoin:miter;stroke-miterlimit:10;stroke-dasharray:none;stroke-opacity:1"
       transform="matrix(0.95983929,0,0,0.95983929,0.47991964,0.47991964)"
       clip-path="url(#clipPath22)" />
    <path
       id="path23"
       d="m 1,61 h 220 v 60 H 1 Z"
       style="fill:#ffffff;fill-opacity:1;fill-rule:nonzero;stroke:#000000;stroke-width:1;stroke-linecap:butt;stroke-linejoin:miter;stroke-miterlimit:10;stroke-dasharray:none;stroke-opacity:1"
       transform="scale(0.95983929)"
       clip-path="url(#clipPath24)" />
    <text
       id="text24"
       xml:space="preserve"
       transform="matrix(0.95984889,0,0,0.95984889,17.84719,94.065191)"
       clip-path="url(#clipPath25)"><tspan
         style="font-variant:normal;font-weight:normal;font-size:19px;font-family:Helvetica;writing-mode:lr-tb;fill:#000000;fill-opacity:1;fill-rule:nonzero;stroke:none"
         x="0 12.672852 23.239746 28.518555 39.085449 54.912598 65.479492 70.758301 81.325195 91.89209 97.170898 110.89209 121.45898 127.78613 138.35303 154.18018 158.40137 168.96826"
         y="0"
         sodipodi:role="line"
         id="tspan24">Automated Chromium</tspan></text>
    <path
       id="path26"
       d="m 221,151 h 55 v -30 h 44.89999"
       style="fill:none;stroke:#000000;stroke-width:1;stroke-linecap:butt;stroke-linejoin:miter;stroke-miterlimit:10;stroke-dasharray:none;stroke-opacity:1"
       transform="matrix(0.95983929,0,0,0.95983929,0.47991964,0.47991964)"
       clip-path="url(#clipPath27)" />
    <path
       id="path28"
       d="m 327.64999,121 -9,4.5 2.25,-4.5 -2.25,-4.5 z"
       style="fill:#000000;fill-opacity:1;fill-rule:nonzero;stroke:#000000;stroke-width:1;stroke-linecap:butt;stroke-linejoin:miter;stroke-miterlimit:10;stroke-dasharray:none;stroke-opacity:1"
       transform="matrix(0.95983929,0,0,0.95983929,0.47991964,0.47991964)"
       clip-path="url(#clipPath29)" />
    <path
       id="path30"
       d="m 1,121 h 220 v 60 H 1 Z"
       style="fill:#ffffff;fill-opacity:1;fill-rule:nonzero;stroke:#000000;stroke-width:1;stroke-linecap:butt;stroke-linejoin:miter;stroke-miterlimit:10;stroke-dasharray:none;stroke-opacity:1"
       transform="scale(0.95983929)"
       clip-path="url(#clipPath31)" />
    <text
       id="text31"
       xml:space="preserve"
       transform="matrix(0.95984889,0,0,0.95984889,17.84719,151.65612)"
       clip-path="url(#clipPath32)"><tspan
         style="font-variant:normal;font-weight:normal;font-size:19px;font-family:Helvetica;writing-mode:lr-tb;fill:#000000;fill-opacity:1;fill-rule:nonzero;stroke:none"
         x="0 12.672852 23.239746 28.518555 39.085449 54.912598 65.479492 70.758301 81.325195 91.89209 97.170898 110.89209 121.45898 127.78613 138.35303 154.18018 158.40137 168.96826"
         y="0"
         sodipodi:role="line"
         id="tspan31">Automated Chromium</tspan></text>
    <path
       id="path33"
       d="m 221,211 h 55 v -90 h 44.89999"
       style="fill:none;stroke:#000000;stroke-width:1;stroke-linecap:butt;stroke-linejoin:miter;stroke-miterlimit:10;stroke-dasharray:none;stroke-opacity:1"
       transform="matrix(0.95983929,0,0,0.95983929,0.47991964,0.47991964)"
       clip-path="url(#clipPath34)" />
    <path
       id="path35"
       d="m 327.64999,121 -9,4.5 2.25,-4.5 -2.25,-4.5 z"
       style="fill:#000000;fill-opacity:1;fill-rule:nonzero;stroke:#000000;stroke-width:1;stroke-linecap:butt;stroke-linejoin:miter;stroke-miterlimit:10;stroke-dasharray:none;stroke-opacity:1"
       transform="matrix(0.95983929,0,0,0.95983929,0.47991964,0.47991964)"
       clip-path="url(#clipPath36)" />
    <path
       id="path37"
       d="m 1,181 h 220 v 60 H 1 Z"
       style="fill:#ffffff;fill-opacity:1;fill-rule:nonzero;stroke:#000000;stroke-width:1;stroke-linecap:butt;stroke-linejoin:miter;stroke-miterlimit:10;stroke-dasharray:none;stroke-opacity:1"
       transform="scale(0.95983929)"
       clip-path="url(#clipPath38)" />
    <text
       id="text38"
       xml:space="preserve"
       transform="matrix(0.95984889,0,0,0.95984889,17.84719,209.24706)"
       clip-path="url(#clipPath39)"><tspan
         style="font-variant:normal;font-weight:normal;font-size:19px;font-family:Helvetica;writing-mode:lr-tb;fill:#000000;fill-opacity:1;fill-rule:nonzero;stroke:none"
         x="0 12.672852 23.239746 28.518555 39.085449 54.912598 65.479492 70.758301 81.325195 91.89209 97.170898 110.89209 121.45898 127.78613 138.35303 154.18018 158.40137 168.96826"
         y="0"
         sodipodi:role="line"
         id="tspan38">Automated Chromium</tspan></text>
    <path
       id="path40"
       d="m 531.01001,61 h 130 v 120 h -130 z"
       style="fill:#f8cecc;fill-opacity:1;fill-rule:nonzero;stroke:#b85450;stroke-width:1;stroke-linecap:butt;stroke-linejoin:miter;stroke-miterlimit:10;stroke-dasharray:none;stroke-opacity:1"
       transform="scale(0.95983929)"
       clip-path="url(#clipPath41)" />
    <text
       id="text41"
       xml:space="preserve"
       transform="matrix(0.95984889,0,0,0.95984889,535.56568,122.86066)"
       clip-path="url(#clipPath42)"><tspan
         style="font-variant:normal;font-weight:normal;font-size:19px;font-family:Helvetica;writing-mode:lr-tb;fill:#000000;fill-opacity:1;fill-rule:nonzero;stroke:none"
         x="0 13.721191 24.288086 34.85498 40.133789 49.633789 60.200684 70.767578"
         y="0"
         sodipodi:role="line"
         id="tspan41">Captcha!</tspan></text>
  </g>
</svg>
