<?xml version="1.0" encoding="UTF-8" standalone="no"?>
<!-- Created with Inkscape (http://www.inkscape.org/) -->

<svg
   version="1.1"
   id="svg1"
   width="697.27997"
   height="361.28"
   viewBox="0 0 697.27997 361.28"
   sodipodi:docname="node-5.pdf"
   xmlns:inkscape="http://www.inkscape.org/namespaces/inkscape"
   xmlns:sodipodi="http://sodipodi.sourceforge.net/DTD/sodipodi-0.dtd"
   xmlns="http://www.w3.org/2000/svg"
   xmlns:svg="http://www.w3.org/2000/svg">
  <defs
     id="defs1">
    <clipPath
       clipPathUnits="userSpaceOnUse"
       id="clipPath2">
      <path
         d="M 0,0 H 2179.1665 V 1127.0518 H 0 Z"
         transform="scale(0.33361379)"
         clip-rule="evenodd"
         id="path2" />
    </clipPath>
    <clipPath
       clipPathUnits="userSpaceOnUse"
       id="clipPath4">
      <path
         d="M 0,0 H 2179.1665 V 1127.0518 H 0 Z"
         transform="matrix(0.33361379,0,0,0.33361379,-0.5,-0.5)"
         clip-rule="evenodd"
         id="path4" />
    </clipPath>
    <clipPath
       clipPathUnits="userSpaceOnUse"
       id="clipPath6">
      <path
         d="M 0,0 H 2179.1665 V 1127.0518 H 0 Z"
         transform="matrix(0.33361379,0,0,0.33361379,-0.5,-0.5)"
         clip-rule="evenodd"
         id="path6" />
    </clipPath>
    <clipPath
       clipPathUnits="userSpaceOnUse"
       id="clipPath8">
      <path
         d="M 0,0 H 2179.1665 V 1127.0518 H 0 Z"
         transform="matrix(0.33361379,0,0,0.33361379,-0.5,-0.5)"
         clip-rule="evenodd"
         id="path8" />
    </clipPath>
    <clipPath
       clipPathUnits="userSpaceOnUse"
       id="clipPath10">
      <path
         d="M 0,0 H 2179.1665 V 1127.0518 H 0 Z"
         transform="matrix(0.33361379,0,0,0.33361379,-0.5,-0.5)"
         clip-rule="evenodd"
         id="path10" />
    </clipPath>
    <clipPath
       clipPathUnits="userSpaceOnUse"
       id="clipPath12">
      <path
         d="M 0,0 H 2179.1665 V 1127.0518 H 0 Z"
         transform="matrix(0.33361379,0,0,0.33361379,-0.5,-0.5)"
         clip-rule="evenodd"
         id="path12" />
    </clipPath>
    <clipPath
       clipPathUnits="userSpaceOnUse"
       id="clipPath14">
      <path
         d="M 0,0 H 2179.1665 V 1127.0518 H 0 Z"
         transform="matrix(0.33361379,0,0,0.33361379,-0.5,-0.5)"
         clip-rule="evenodd"
         id="path14" />
    </clipPath>
    <clipPath
       clipPathUnits="userSpaceOnUse"
       id="clipPath16">
      <path
         d="M 0,0 H 2179.1665 V 1127.0518 H 0 Z"
         transform="matrix(0.33361379,0,0,0.33361379,-0.5,-0.5)"
         clip-rule="evenodd"
         id="path16" />
    </clipPath>
    <clipPath
       clipPathUnits="userSpaceOnUse"
       id="clipPath18">
      <path
         d="M 0,0 H 2179.1665 V 1127.0518 H 0 Z"
         transform="matrix(0.33361379,0,0,0.33361379,-0.5,-0.5)"
         clip-rule="evenodd"
         id="path18" />
    </clipPath>
    <clipPath
       clipPathUnits="userSpaceOnUse"
       id="clipPath20">
      <path
         d="M 0,0 H 2179.1665 V 1127.0518 H 0 Z"
         transform="matrix(0.33361379,0,0,0.33361379,-0.5,-0.5)"
         clip-rule="evenodd"
         id="path20" />
    </clipPath>
    <clipPath
       clipPathUnits="userSpaceOnUse"
       id="clipPath22">
      <path
         d="M 0,0 H 2179.1665 V 1127.0518 H 0 Z"
         transform="matrix(0.33361379,0,0,0.33361379,-0.5,-0.5)"
         clip-rule="evenodd"
         id="path22" />
    </clipPath>
    <clipPath
       clipPathUnits="userSpaceOnUse"
       id="clipPath24">
      <path
         d="M 0,0 H 2179.1665 V 1127.0518 H 0 Z"
         transform="matrix(0.33361379,0,0,0.33361379,-0.5,-0.5)"
         clip-rule="evenodd"
         id="path24" />
    </clipPath>
    <clipPath
       clipPathUnits="userSpaceOnUse"
       id="clipPath26">
      <path
         d="M 0,0 H 2179.1665 V 1127.0518 H 0 Z"
         transform="matrix(0.33361379,0,0,0.33361379,-0.5,-0.5)"
         clip-rule="evenodd"
         id="path26" />
    </clipPath>
    <clipPath
       clipPathUnits="userSpaceOnUse"
       id="clipPath28">
      <path
         d="M 0,0 H 2179.1665 V 1127.0518 H 0 Z"
         transform="matrix(0.33361379,0,0,0.33361379,-0.5,-0.5)"
         clip-rule="evenodd"
         id="path28" />
    </clipPath>
    <clipPath
       clipPathUnits="userSpaceOnUse"
       id="clipPath30">
      <path
         d="M 0,0 H 2179.1665 V 1127.0518 H 0 Z"
         transform="matrix(0.33361379,0,0,0.33361379,-0.5,-0.5)"
         clip-rule="evenodd"
         id="path30" />
    </clipPath>
    <clipPath
       clipPathUnits="userSpaceOnUse"
       id="clipPath32">
      <path
         d="M 0,0 H 2179.1665 V 1127.0518 H 0 Z"
         transform="matrix(0.33361379,0,0,0.33361379,-0.5,-0.5)"
         clip-rule="evenodd"
         id="path32" />
    </clipPath>
    <clipPath
       clipPathUnits="userSpaceOnUse"
       id="clipPath33">
      <path
         d="M 0,0 H 2179.1665 V 1127.0518 H 0 Z"
         transform="matrix(0.33361045,0,0,0.33361045,-169,-32)"
         clip-rule="evenodd"
         id="path33" />
    </clipPath>
    <clipPath
       clipPathUnits="userSpaceOnUse"
       id="clipPath34">
      <path
         d="M 0,0 H 2179.1665 V 1127.0518 H 0 Z"
         transform="matrix(0.33361045,0,0,0.33361045,-239,-80)"
         clip-rule="evenodd"
         id="path34" />
    </clipPath>
    <clipPath
       clipPathUnits="userSpaceOnUse"
       id="clipPath36">
      <path
         d="M 0,0 H 2179.1665 V 1127.0518 H 0 Z"
         transform="matrix(0.33361379,0,0,0.33361379,-0.5,-0.5)"
         clip-rule="evenodd"
         id="path36" />
    </clipPath>
    <clipPath
       clipPathUnits="userSpaceOnUse"
       id="clipPath37">
      <path
         d="M 0,0 H 2179.1665 V 1127.0518 H 0 Z"
         transform="matrix(0.33361045,0,0,0.33361045,-95.765625,-360)"
         clip-rule="evenodd"
         id="path37" />
    </clipPath>
    <clipPath
       clipPathUnits="userSpaceOnUse"
       id="clipPath39">
      <path
         d="M 0,0 H 2179.1665 V 1127.0518 H 0 Z"
         transform="matrix(0.33361379,0,0,0.33361379,-0.5,-0.5)"
         clip-rule="evenodd"
         id="path39" />
    </clipPath>
    <clipPath
       clipPathUnits="userSpaceOnUse"
       id="clipPath41">
      <path
         d="M 0,0 H 2179.1665 V 1127.0518 H 0 Z"
         transform="matrix(0.33361379,0,0,0.33361379,-0.5,-0.5)"
         clip-rule="evenodd"
         id="path41" />
    </clipPath>
    <clipPath
       clipPathUnits="userSpaceOnUse"
       id="clipPath43">
      <path
         d="M 0,0 H 2179.1665 V 1127.0518 H 0 Z"
         transform="matrix(0.33361379,0,0,0.33361379,-0.5,-0.5)"
         clip-rule="evenodd"
         id="path43" />
    </clipPath>
  </defs>
  <sodipodi:namedview
     id="namedview1"
     pagecolor="#ffffff"
     bordercolor="#000000"
     borderopacity="0.25"
     inkscape:showpageshadow="2"
     inkscape:pageopacity="0.0"
     inkscape:pagecheckerboard="0"
     inkscape:deskcolor="#d1d1d1">
    <inkscape:page
       x="0"
       y="0"
       inkscape:label="1"
       id="page1"
       width="697.27997"
       height="361.28"
       margin="0"
       bleed="0" />
  </sodipodi:namedview>
  <g
     id="g1"
     inkscape:groupmode="layer"
     inkscape:label="1">
    <path
       id="path1"
       d="M 0,0 H 727 V 376 H 0 Z"
       style="fill:#ffffff;fill-opacity:1;fill-rule:nonzero;stroke:none"
       transform="scale(0.95919292)"
       clip-path="url(#clipPath2)" />
    <path
       id="path3"
       d="m 417,333 h 210 v 40 H 417 Z"
       style="fill:#d5e8d4;fill-opacity:1;fill-rule:nonzero;stroke:#82b366;stroke-width:1;stroke-linecap:butt;stroke-linejoin:miter;stroke-miterlimit:10;stroke-dasharray:none;stroke-opacity:1"
       transform="matrix(0.95919292,0,0,0.95919292,0.47959646,0.47959646)"
       clip-path="url(#clipPath4)" />
    <path
       id="path5"
       d="M 107,1 H 647.01001 V 221 H 107 Z"
       style="fill:#ffffff;fill-opacity:1;fill-rule:nonzero;stroke:#666666;stroke-width:1;stroke-linecap:butt;stroke-linejoin:miter;stroke-miterlimit:10;stroke-dasharray:none;stroke-opacity:1"
       transform="matrix(0.95919292,0,0,0.95919292,0.47959646,0.47959646)"
       clip-path="url(#clipPath6)" />
    <path
       id="path7"
       d="m 592.01007,16 c -6e-5,0.656614 -0.0641,1.306923 -0.1922,1.950922 -0.12811,0.643999 -0.31787,1.269314 -0.56915,1.875948 -0.25122,0.606634 -0.55921,1.182928 -0.92401,1.728886 -0.36481,0.545957 -0.7793,1.051084 -1.24359,1.51538 -0.4643,0.464297 -0.96943,0.878844 -1.51539,1.243639 -0.54602,0.364796 -1.12231,0.672833 -1.72894,0.924109 -0.60663,0.251276 -1.23193,0.440964 -1.87591,0.569063 -0.64399,0.1281 -1.29432,0.19215 -1.95087,0.192152 -0.65662,-2e-6 -1.30695,-0.06405 -1.95099,-0.192152 -0.64398,-0.128099 -1.26935,-0.317787 -1.87598,-0.569063 -0.60662,-0.251276 -1.18292,-0.559313 -1.72888,-0.924109 -0.54596,-0.364795 -1.05108,-0.779342 -1.51538,-1.243639 -0.46429,-0.464296 -0.8789,-0.969423 -1.24371,-1.515378 -0.36481,-0.545958 -0.67279,-1.122254 -0.92401,-1.728888 -0.25128,-0.606634 -0.44104,-1.231949 -0.56916,-1.875948 -0.12805,-0.643999 -0.19207,-1.294308 -0.19201,-1.950922 -6e-5,-0.656616 0.064,-1.306924 0.19208,-1.950923 0.12811,-0.644 0.31781,-1.269317 0.56909,-1.875951 0.25122,-0.606633 0.55926,-1.182928 0.92407,-1.728885 0.36481,-0.5459561 0.77942,-1.051083 1.24371,-1.5153803 0.4643,-0.4642973 0.96942,-0.8788443 1.51538,-1.2436409 0.54596,-0.3647962 1.12226,-0.6728325 1.72889,-0.9241085 0.60662,-0.2512756 1.23193,-0.4409633 1.87591,-0.5690623 0.64404,-0.1280994 1.29437,-0.1921491 1.95099,-0.1921491 0.65655,0 1.30688,0.06405 1.95087,0.1921491 0.64398,0.128099 1.26928,0.3177867 1.87591,0.5690623 0.60663,0.251276 1.18292,0.5593123 1.72888,0.9241085 0.54596,0.3647966 1.05115,0.7793436 1.51545,1.2436409 0.46429,0.4642973 0.87878,0.9694242 1.24359,1.5153803 0.3648,0.545957 0.67279,1.122252 0.92401,1.728885 0.25128,0.606634 0.44098,1.231951 0.56909,1.875951 0.12811,0.643999 0.1922,1.294307 0.19226,1.950923 z"
       style="fill:none;stroke:#666666;stroke-width:1;stroke-linecap:butt;stroke-linejoin:miter;stroke-miterlimit:10;stroke-dasharray:none;stroke-opacity:1"
       transform="matrix(0.95919292,0,0,0.95919292,0.47959646,0.47959646)"
       clip-path="url(#clipPath8)" />
    <path
       id="path9"
       d="m 617.01007,16 c -6e-5,0.656614 -0.0641,1.306923 -0.1922,1.950922 -0.12811,0.643999 -0.31781,1.269314 -0.56909,1.875948 -0.25128,0.606634 -0.55933,1.182928 -0.92413,1.728886 -0.36481,0.545957 -0.7793,1.051084 -1.2436,1.51538 -0.46429,0.464297 -0.96942,0.878844 -1.51538,1.243639 -0.54596,0.364796 -1.12225,0.672833 -1.72888,0.924109 -0.60663,0.251276 -1.23199,0.440964 -1.87597,0.569063 -0.64399,0.1281 -1.29426,0.19215 -1.95081,0.192152 -0.65668,-2e-6 -1.30701,-0.06405 -1.95105,-0.192152 -0.64404,-0.128099 -1.26935,-0.317787 -1.87598,-0.569063 -0.60663,-0.251276 -1.18292,-0.559313 -1.72888,-0.924109 -0.54596,-0.364795 -1.05102,-0.779342 -1.51532,-1.243639 -0.46429,-0.464296 -0.87884,-0.969423 -1.24365,-1.515378 -0.36481,-0.545958 -0.67285,-1.122254 -0.92407,-1.728888 -0.25128,-0.606634 -0.44092,-1.231949 -0.56903,-1.875948 -0.12812,-0.643999 -0.1922,-1.294308 -0.19214,-1.950922 -6e-5,-0.656616 0.064,-1.306924 0.19214,-1.950923 0.12811,-0.644 0.31775,-1.269317 0.56903,-1.875951 0.25122,-0.606633 0.55926,-1.182928 0.92407,-1.728885 0.36481,-0.5459561 0.77936,-1.051083 1.24365,-1.5153803 0.4643,-0.4642973 0.96942,-0.8788443 1.51538,-1.2436409 0.54596,-0.3647962 1.12219,-0.6728325 1.72882,-0.9241085 0.60663,-0.2512756 1.23194,-0.4409633 1.87598,-0.5690623 0.64404,-0.1280994 1.29437,-0.1921491 1.95105,-0.1921491 0.65655,0 1.30682,0.06405 1.95081,0.1921491 0.64398,0.128099 1.26934,0.3177867 1.87597,0.5690623 0.60663,0.251276 1.18292,0.5593123 1.72888,0.9241085 0.54596,0.3647966 1.05109,0.7793436 1.51538,1.2436409 0.4643,0.4642973 0.87879,0.9694242 1.2436,1.5153803 0.3648,0.545957 0.67285,1.122252 0.92413,1.728885 0.25128,0.606634 0.44098,1.231951 0.56909,1.875951 0.12811,0.643999 0.19214,1.294307 0.1922,1.950923 z"
       style="fill:none;stroke:#666666;stroke-width:1;stroke-linecap:butt;stroke-linejoin:miter;stroke-miterlimit:10;stroke-dasharray:none;stroke-opacity:1"
       transform="matrix(0.95919292,0,0,0.95919292,0.47959646,0.47959646)"
       clip-path="url(#clipPath10)" />
    <path
       id="path11"
       d="m 642.01007,16 c 0,0.656614 -0.0641,1.306923 -0.1922,1.950922 -0.12811,0.643999 -0.31781,1.269314 -0.56909,1.875948 -0.25122,0.606634 -0.55927,1.182928 -0.92407,1.728886 -0.36481,0.545957 -0.7793,1.051084 -1.24359,1.51538 -0.4643,0.464297 -0.96949,0.878844 -1.51545,1.243639 -0.54596,0.364796 -1.12225,0.672833 -1.72882,0.924109 -0.60663,0.251276 -1.23193,0.440964 -1.87591,0.569063 -0.64398,0.1281 -1.29425,0.19215 -1.95093,0.192152 -0.65662,-2e-6 -1.30695,-0.06405 -1.95099,-0.192152 -0.64404,-0.128099 -1.26935,-0.317787 -1.87598,-0.569063 -0.60662,-0.251276 -1.18286,-0.559313 -1.72882,-0.924109 -0.54596,-0.364795 -1.05108,-0.779342 -1.51538,-1.243639 -0.46429,-0.464296 -0.87884,-0.969423 -1.24365,-1.515378 -0.36481,-0.545958 -0.67291,-1.122254 -0.92419,-1.728888 -0.25129,-0.606634 -0.44092,-1.231949 -0.56903,-1.875948 -0.12812,-0.643999 -0.19214,-1.294308 -0.19208,-1.950922 -6e-5,-0.656616 0.064,-1.306924 0.19208,-1.950923 0.12811,-0.644 0.31774,-1.269317 0.56903,-1.875951 0.25128,-0.606633 0.55938,-1.182928 0.92419,-1.728885 0.36481,-0.5459561 0.77936,-1.051083 1.24365,-1.5153803 0.4643,-0.4642973 0.96936,-0.8788443 1.51532,-1.2436409 0.54596,-0.3647962 1.12226,-0.6728325 1.72888,-0.9241085 0.60663,-0.2512756 1.23194,-0.4409633 1.87598,-0.5690623 0.64404,-0.1280994 1.29437,-0.1921491 1.95099,-0.1921491 0.65668,0 1.30695,0.06405 1.95093,0.1921491 0.64398,0.128099 1.26928,0.3177867 1.87591,0.5690623 0.60657,0.251276 1.18286,0.5593123 1.72882,0.9241085 0.54596,0.3647966 1.05115,0.7793436 1.51545,1.2436409 0.46429,0.4642973 0.87878,0.9694242 1.24359,1.5153803 0.3648,0.545957 0.67285,1.122252 0.92407,1.728885 0.25128,0.606634 0.44098,1.231951 0.56909,1.875951 0.12811,0.643999 0.1922,1.294307 0.1922,1.950923 z"
       style="fill:none;stroke:#008cff;stroke-width:1;stroke-linecap:butt;stroke-linejoin:miter;stroke-miterlimit:10;stroke-dasharray:none;stroke-opacity:1"
       transform="matrix(0.95919292,0,0,0.95919292,0.47959646,0.47959646)"
       clip-path="url(#clipPath12)" />
    <path
       id="path13"
       d="m 107,41 h 30 V 16 c 0,-2.76 2.24,-5 5,-5 h 135 c 2.76001,0 5,2.24 5,5 v 25 h 365.01001"
       style="fill:none;stroke:#c4c4c4;stroke-width:1;stroke-linecap:butt;stroke-linejoin:miter;stroke-miterlimit:10;stroke-dasharray:none;stroke-opacity:1"
       transform="matrix(0.95919292,0,0,0.95919292,0.47959646,0.47959646)"
       clip-path="url(#clipPath14)" />
    <path
       id="path15"
       d="M 107,111 H 647.01001"
       style="fill:none;stroke:#c4c4c4;stroke-width:1;stroke-linecap:butt;stroke-linejoin:miter;stroke-miterlimit:10;stroke-dasharray:none;stroke-opacity:1"
       transform="matrix(0.95919292,0,0,0.95919292,0.47959646,0.47959646)"
       clip-path="url(#clipPath16)" />
    <path
       id="path17"
       d="m 207,61 c 0,-2.759998 2.24001,-5 5,-5 h 420.01001 c 2.76001,0 5,2.240002 5,5 v 25 c 0,2.760002 -2.23999,5 -5,5 H 212 c -2.75999,0 -5,-2.239998 -5,-5 z"
       style="fill:none;stroke:#c4c4c4;stroke-width:1;stroke-linecap:butt;stroke-linejoin:miter;stroke-miterlimit:10;stroke-dasharray:none;stroke-opacity:1"
       transform="matrix(0.95919292,0,0,0.95919292,0.47959646,0.47959646)"
       clip-path="url(#clipPath18)" />
    <path
       id="path19"
       d="m 144,18 h 11 l 4,4 v 14 h -15 z"
       style="fill:none;stroke:#c4c4c4;stroke-width:1;stroke-linecap:butt;stroke-linejoin:miter;stroke-miterlimit:10;stroke-dasharray:none;stroke-opacity:1"
       transform="matrix(0.95919292,0,0,0.95919292,0.47959646,0.47959646)"
       clip-path="url(#clipPath20)" />
    <path
       id="path21"
       d="m 155,18 v 4 l 4,1"
       style="fill:none;stroke:#c4c4c4;stroke-width:1;stroke-linecap:butt;stroke-linejoin:miter;stroke-miterlimit:10;stroke-dasharray:none;stroke-opacity:1"
       transform="matrix(0.95919292,0,0,0.95919292,0.47959646,0.47959646)"
       clip-path="url(#clipPath22)" />
    <path
       id="path23"
       d="m 214,65 h 11 l 4,4 v 14 h -15 z"
       style="fill:none;stroke:#c4c4c4;stroke-width:1;stroke-linecap:butt;stroke-linejoin:miter;stroke-miterlimit:10;stroke-dasharray:none;stroke-opacity:1"
       transform="matrix(0.95919292,0,0,0.95919292,0.47959646,0.47959646)"
       clip-path="url(#clipPath24)" />
    <path
       id="path25"
       d="m 225,65 v 4 l 4,1"
       style="fill:none;stroke:#c4c4c4;stroke-width:1;stroke-linecap:butt;stroke-linejoin:miter;stroke-miterlimit:10;stroke-dasharray:none;stroke-opacity:1"
       transform="matrix(0.95919292,0,0,0.95919292,0.47959646,0.47959646)"
       clip-path="url(#clipPath26)" />
    <path
       id="path27"
       d="m 119,75 10,-10 v 6 h 10 v 8 h -10 v 6 z"
       style="fill:#c4c4c4;fill-opacity:1;fill-rule:nonzero;stroke:#c4c4c4;stroke-width:1;stroke-linecap:butt;stroke-linejoin:miter;stroke-miterlimit:10;stroke-dasharray:none;stroke-opacity:1"
       transform="matrix(0.95919292,0,0,0.95919292,0.47959646,0.47959646)"
       clip-path="url(#clipPath28)" />
    <path
       id="path29"
       d="M 169,75 159,65 v 6 h -10 v 8 h 10 v 6 z"
       style="fill:#c4c4c4;fill-opacity:1;fill-rule:nonzero;stroke:#c4c4c4;stroke-width:1;stroke-linecap:butt;stroke-linejoin:miter;stroke-miterlimit:10;stroke-dasharray:none;stroke-opacity:1"
       transform="matrix(0.95919292,0,0,0.95919292,0.47959646,0.47959646)"
       clip-path="url(#clipPath30)" />
    <path
       id="path31"
       d="M 194.60001,78.300003 C 192.89999,81.139999 189.22,82.059998 186.38,80.360001 183.53999,78.669998 182.61,75 184.3,72.150002 c 1.68,-2.840004 5.34999,-3.790001 8.2,-2.110001 L 190.89999,71.5 198.8,73.300003 l -1.8,-7.5 -1.7,1.599999 c -3.19,-2.370003 -7.5,-2.580002 -10.90001,-0.529999 -3.40998,2.049995 -5.23999,5.959999 -4.62999,9.889999 0.61,3.93 3.53,7.099999 7.39,8.029999 3.87,0.93 7.91001,-0.559998 10.23999,-3.790001 z"
       style="fill:#c4c4c4;fill-opacity:1;fill-rule:nonzero;stroke:#c4c4c4;stroke-width:1;stroke-linecap:butt;stroke-linejoin:miter;stroke-miterlimit:10;stroke-dasharray:none;stroke-opacity:1"
       transform="matrix(0.95919292,0,0,0.95919292,0.47959646,0.47959646)"
       clip-path="url(#clipPath32)" />
    <text
       id="text32"
       xml:space="preserve"
       transform="matrix(0.95920252,0,0,0.95920252,162.10523,30.694481)"
       clip-path="url(#clipPath33)"><tspan
         style="font-variant:normal;font-weight:normal;font-size:17px;font-family:Helvetica;writing-mode:lr-tb;fill:#666666;fill-opacity:1;fill-rule:nonzero;stroke:none"
         x="0 11.338867 20.793457 30.248047 39.702637 44.425781"
         y="0"
         sodipodi:role="line"
         id="tspan32">Page 1</tspan></text>
    <text
       id="text33"
       xml:space="preserve"
       transform="matrix(0.95920252,0,0,0.95920252,229.2494,76.736202)"
       clip-path="url(#clipPath34)"><tspan
         style="font-variant:normal;font-weight:normal;font-size:17px;font-family:Helvetica;writing-mode:lr-tb;fill:#666666;fill-opacity:1;fill-rule:nonzero;stroke:none"
         x="0 9.4545898 14.177734 18.900879 28.355469 36.855469 41.578613 46.301758 51.024902 63.301758 75.578613 86.925781 91.648926 101.10352 106.76465 116.21924 127.56641 132.28955 136.06641"
         y="0"
         sodipodi:role="line"
         id="tspan33">https://www.draw.io</tspan></text>
    <path
       id="path35"
       d="m 222,333 h 185 v 40 H 222 Z"
       style="fill:#dae8fc;fill-opacity:1;fill-rule:nonzero;stroke:#6c8ebf;stroke-width:1;stroke-linecap:butt;stroke-linejoin:miter;stroke-miterlimit:10;stroke-dasharray:none;stroke-opacity:1"
       transform="matrix(0.95919292,0,0,0.95919292,0.47959646,0.47959646)"
       clip-path="url(#clipPath36)" />
    <text
       id="text36"
       xml:space="preserve"
       transform="matrix(0.95920252,0,0,0.95920252,91.858629,345.31291)"
       clip-path="url(#clipPath37)"><tspan
         style="font-variant:normal;font-weight:normal;font-size:24px;font-family:Helvetica;writing-mode:lr-tb;fill:#000000;fill-opacity:1;fill-rule:nonzero;stroke:none"
         x="0 13.347656 26.695312 40.042969 53.390625 60.058594 73.40625 86.753906 98.753906 112.10156 117.43359 125.42578 130.00781 143.35547 150.02344 155.35547 168.70312 175.37109 182.03906 188.70703 202.05469 210.04688 223.39453 236.74219 250.08984 258.08203 263.41406 276.76172 290.10938 303.45703 308.03906 314.70703 321.375 334.72266 340.05469 346.72266 360.73828 374.75391 381.42188 394.76953 400.10156 406.76953 412.10156 425.44922 438.79688 452.14453 460.13672 477.46875 492.12891 512.12109 525.46875"
         y="0"
         sodipodi:role="line"
         id="tspan36">page.$eval('a.left.brand-logo', el =&gt; el.innerHTML)</tspan></text>
    <path
       id="path38"
       d="M 377,310.89999 V 231.11"
       style="fill:none;stroke:#000000;stroke-width:1;stroke-linecap:butt;stroke-linejoin:miter;stroke-miterlimit:10;stroke-dasharray:none;stroke-opacity:1"
       transform="matrix(0.95919292,0,0,0.95919292,0.47959646,0.47959646)"
       clip-path="url(#clipPath39)" />
    <path
       id="path40"
       d="m 377,317.64999 -4.5,-9 4.5,2.25 4.5,-2.25 z"
       style="fill:#000000;fill-opacity:1;fill-rule:nonzero;stroke:#000000;stroke-width:1;stroke-linecap:butt;stroke-linejoin:miter;stroke-miterlimit:10;stroke-dasharray:none;stroke-opacity:1"
       transform="matrix(0.95919292,0,0,0.95919292,0.47959646,0.47959646)"
       clip-path="url(#clipPath41)" />
    <path
       id="path42"
       d="m 377,224.36 4.5,9 -4.5,-2.25 -4.5,2.25 z"
       style="fill:#000000;fill-opacity:1;fill-rule:nonzero;stroke:#000000;stroke-width:1;stroke-linecap:butt;stroke-linejoin:miter;stroke-miterlimit:10;stroke-dasharray:none;stroke-opacity:1"
       transform="matrix(0.95919292,0,0,0.95919292,0.47959646,0.47959646)"
       clip-path="url(#clipPath43)" />
  </g>
</svg>
