<?xml version="1.0" encoding="UTF-8" standalone="no"?>
<!-- Created with Inkscape (http://www.inkscape.org/) -->

<svg
   version="1.1"
   id="svg1"
   width="299.84"
   height="157.43999"
   viewBox="0 0 299.84 157.43999"
   sodipodi:docname="node-3.pdf"
   xmlns:inkscape="http://www.inkscape.org/namespaces/inkscape"
   xmlns:sodipodi="http://sodipodi.sourceforge.net/DTD/sodipodi-0.dtd"
   xmlns="http://www.w3.org/2000/svg"
   xmlns:svg="http://www.w3.org/2000/svg">
  <defs
     id="defs1">
    <clipPath
       clipPathUnits="userSpaceOnUse"
       id="clipPath2">
      <path
         d="M 0,0 H 937.49994 V 489.64966 H 0 Z"
         transform="scale(0.33493334)"
         clip-rule="evenodd"
         id="path2" />
    </clipPath>
    <clipPath
       clipPathUnits="userSpaceOnUse"
       id="clipPath3">
      <path
         d="M 0,0 H 937.49994 V 483.67831 H 0 Z"
         transform="matrix(0.33493,0,0,0.33493,-85.593751,-15)"
         clip-rule="evenodd"
         id="path3" />
    </clipPath>
    <clipPath
       clipPathUnits="userSpaceOnUse"
       id="clipPath5">
      <path
         d="M 0,0 H 937.49994 V 483.67831 H 0 Z"
         transform="matrix(0.33493334,0,0,0.33493334,-0.5,-0.5)"
         clip-rule="evenodd"
         id="path5" />
    </clipPath>
    <clipPath
       clipPathUnits="userSpaceOnUse"
       id="clipPath6">
      <path
         d="M 0,0 H 937.49994 V 483.67831 H 0 Z"
         transform="matrix(0.33493,0,0,0.33493,-102.67187,-65)"
         clip-rule="evenodd"
         id="path6" />
    </clipPath>
    <clipPath
       clipPathUnits="userSpaceOnUse"
       id="clipPath8">
      <path
         d="M 0,0 H 937.49994 V 483.67831 H 0 Z"
         transform="matrix(0.33493334,0,0,0.33493334,-0.5,-0.5)"
         clip-rule="evenodd"
         id="path8" />
    </clipPath>
    <clipPath
       clipPathUnits="userSpaceOnUse"
       id="clipPath9">
      <path
         d="M 0,0 H 937.49994 V 483.67831 H 0 Z"
         transform="matrix(0.33493,0,0,0.33493,-29.3125,-68)"
         clip-rule="evenodd"
         id="path9" />
    </clipPath>
    <clipPath
       clipPathUnits="userSpaceOnUse"
       id="clipPath11">
      <path
         d="M 0,0 H 937.49994 V 483.67831 H 0 Z"
         transform="matrix(0.33493334,0,0,0.33493334,-0.5,-0.5)"
         clip-rule="evenodd"
         id="path11" />
    </clipPath>
    <clipPath
       clipPathUnits="userSpaceOnUse"
       id="clipPath12">
      <path
         d="M 0,0 H 937.49994 V 483.67831 H 0 Z"
         transform="matrix(0.33493,0,0,0.33493,-91.234375,-127)"
         clip-rule="evenodd"
         id="path12" />
    </clipPath>
    <clipPath
       clipPathUnits="userSpaceOnUse"
       id="clipPath13">
      <path
         d="M 0,0 H 937.49994 V 483.67831 H 0 Z"
         transform="matrix(0.33493,0,0,0.33493,-169.98438,-144)"
         clip-rule="evenodd"
         id="path13" />
    </clipPath>
    <clipPath
       clipPathUnits="userSpaceOnUse"
       id="clipPath15">
      <path
         d="M 0,0 H 937.49994 V 483.67831 H 0 Z"
         transform="matrix(0.33493334,0,0,0.33493334,-0.5,-0.5)"
         clip-rule="evenodd"
         id="path15" />
    </clipPath>
    <clipPath
       clipPathUnits="userSpaceOnUse"
       id="clipPath16">
      <path
         d="M 0,0 H 937.49994 V 483.67831 H 0 Z"
         transform="matrix(0.33493,0,0,0.33493,-29.3125,-138)"
         clip-rule="evenodd"
         id="path16" />
    </clipPath>
  </defs>
  <sodipodi:namedview
     id="namedview1"
     pagecolor="#ffffff"
     bordercolor="#000000"
     borderopacity="0.25"
     inkscape:showpageshadow="2"
     inkscape:pageopacity="0.0"
     inkscape:pagecheckerboard="0"
     inkscape:deskcolor="#d1d1d1">
    <inkscape:page
       x="0"
       y="0"
       inkscape:label="1"
       id="page1"
       width="299.84"
       height="157.43999"
       margin="0"
       bleed="0" />
  </sodipodi:namedview>
  <g
     id="g1"
     inkscape:groupmode="layer"
     inkscape:label="1">
    <path
       id="path1"
       d="M 0,0 H 314 V 164 H 0 Z"
       style="fill:#ffffff;fill-opacity:1;fill-rule:nonzero;stroke:none"
       transform="scale(0.95541394)"
       clip-path="url(#clipPath2)" />
    <text
       id="text2"
       xml:space="preserve"
       transform="matrix(0.95542348,0,0,0.95542348,81.778279,14.331352)"
       clip-path="url(#clipPath3)"><tspan
         style="font-variant:normal;font-weight:700;font-size:14px;font-family:Helvetica;writing-mode:lr-tb;fill:#000000;fill-opacity:1;fill-rule:nonzero;stroke:none"
         x="0 9.3378906 17.124023 21.786133 26.448242 30.337891 38.889648 47.441406 51.331055 59.882812 68.43457 72.324219 81.662109 90.213867 98.765625 107.31738 115.10352 119.76562 127.55176 135.33789"
         y="0"
         sodipodi:role="line"
         id="tspan2">Setting up Puppeteer</tspan></text>
    <path
       id="path4"
       d="M 71,30 H 311 V 90 H 71 Z"
       style="fill:#ffffff;fill-opacity:1;fill-rule:nonzero;stroke:#000000;stroke-width:1;stroke-linecap:butt;stroke-linejoin:miter;stroke-miterlimit:10;stroke-dasharray:none;stroke-opacity:1"
       transform="matrix(0.95541394,0,0,0.95541394,0.47770697,0.47770697)"
       clip-path="url(#clipPath5)" />
    <text
       id="text5"
       xml:space="preserve"
       transform="matrix(0.95542348,0,0,0.95542348,98.09512,62.102526)"
       clip-path="url(#clipPath6)"><tspan
         style="font-variant:normal;font-weight:normal;font-size:14px;font-family:Helvetica;writing-mode:lr-tb;fill:#000000;fill-opacity:1;fill-rule:nonzero;stroke:none"
         x="0 7.7861328 15.572266 27.234375 31.124023 34.234375 42.020508 49.020508 52.910156 60.696289 63.806641 66.916992 70.806641 75.46875 80.130859 87.130859 94.916992 101.91699 109.70312 113.59277 121.37891 129.16504 136.95117 144.7373 152.52344 156.41309 164.19922 171.98535"
         y="0"
         sodipodi:role="line"
         id="tspan5">npm install --save puppeteer</tspan></text>
    <path
       id="path7"
       d="M 1,30 H 71 V 90 H 1 Z"
       style="fill:#dae8fc;fill-opacity:1;fill-rule:nonzero;stroke:#6c8ebf;stroke-width:1;stroke-linecap:butt;stroke-linejoin:miter;stroke-miterlimit:10;stroke-dasharray:none;stroke-opacity:1"
       transform="matrix(0.95541394,0,0,0.95541394,0.47770697,0.47770697)"
       clip-path="url(#clipPath8)" />
    <text
       id="text8"
       xml:space="preserve"
       transform="matrix(0.95542348,0,0,0.95542348,28.005851,64.968797)"
       clip-path="url(#clipPath9)"><tspan
         style="font-variant:normal;font-weight:normal;font-size:24px;font-family:Helvetica;writing-mode:lr-tb;fill:#000000;fill-opacity:1;fill-rule:nonzero;stroke:none"
         x="0"
         y="0"
         id="tspan8">1</tspan></text>
    <path
       id="path10"
       d="m 71,100 h 240 v 60 H 71 Z"
       style="fill:#ffffff;fill-opacity:1;fill-rule:nonzero;stroke:#000000;stroke-width:1;stroke-linecap:butt;stroke-linejoin:miter;stroke-miterlimit:10;stroke-dasharray:none;stroke-opacity:1"
       transform="matrix(0.95541394,0,0,0.95541394,0.47770697,0.47770697)"
       clip-path="url(#clipPath11)" />
    <text
       id="text11"
       xml:space="preserve"
       transform="matrix(0.95542348,0,0,0.95542348,87.167464,121.33878)"
       clip-path="url(#clipPath12)"><tspan
         style="font-variant:normal;font-weight:normal;font-size:14px;font-family:Helvetica;writing-mode:lr-tb;fill:#000000;fill-opacity:1;fill-rule:nonzero;stroke:none"
         x="0 8.5517578 16.337891 24.124023 28.013672 30.686523 37.686523 41.576172 44.686523 48.576172 52.46582 56.355469 66.46582 73.46582 81.251953 85.141602 88.251953 92.141602 96.03125 106.1416 113.92773 121.71387 126.37598 134.16211 141.16211 148.94824 153.61035 157.5 160.61035 168.39648 172.28613 179.28613 187.07227 194.8584"
         y="0"
         sodipodi:role="line"
         id="tspan11">That's it. Use it wherever in your</tspan></text>
    <text
       id="text12"
       xml:space="preserve"
       transform="matrix(0.95542348,0,0,0.95542348,162.40707,137.58098)"
       clip-path="url(#clipPath13)"><tspan
         style="font-variant:normal;font-weight:normal;font-size:14px;font-family:Helvetica;writing-mode:lr-tb;fill:#000000;fill-opacity:1;fill-rule:nonzero;stroke:none"
         x="0 7.7861328 12.448242 20.234375 23.344727 31.130859 38.130859"
         y="0"
         sodipodi:role="line"
         id="tspan12">project</tspan></text>
    <path
       id="path14"
       d="m 1,100 h 70 v 60 H 1 Z"
       style="fill:#dae8fc;fill-opacity:1;fill-rule:nonzero;stroke:#6c8ebf;stroke-width:1;stroke-linecap:butt;stroke-linejoin:miter;stroke-miterlimit:10;stroke-dasharray:none;stroke-opacity:1"
       transform="matrix(0.95541394,0,0,0.95541394,0.47770697,0.47770697)"
       clip-path="url(#clipPath15)" />
    <text
       id="text15"
       xml:space="preserve"
       transform="matrix(0.95542348,0,0,0.95542348,28.005851,131.84844)"
       clip-path="url(#clipPath16)"><tspan
         style="font-variant:normal;font-weight:normal;font-size:24px;font-family:Helvetica;writing-mode:lr-tb;fill:#000000;fill-opacity:1;fill-rule:nonzero;stroke:none"
         x="0"
         y="0"
         id="tspan15">2</tspan></text>
  </g>
</svg>
