<?xml version="1.0" encoding="UTF-8" standalone="no"?>
<!-- Created with Inkscape (http://www.inkscape.org/) -->

<svg
   version="1.1"
   id="svg1"
   width="992"
   height="360"
   viewBox="0 0 992 360"
   sodipodi:docname="node-12.pdf"
   xmlns:inkscape="http://www.inkscape.org/namespaces/inkscape"
   xmlns:sodipodi="http://sodipodi.sourceforge.net/DTD/sodipodi-0.dtd"
   xmlns="http://www.w3.org/2000/svg"
   xmlns:svg="http://www.w3.org/2000/svg">
  <defs
     id="defs1">
    <clipPath
       clipPathUnits="userSpaceOnUse"
       id="clipPath2">
      <path
         d="M 0,0 H 3099.9998 V 1124.2745 H 0 Z"
         transform="scale(0.33354842)"
         clip-rule="evenodd"
         id="path2" />
    </clipPath>
    <clipPath
       clipPathUnits="userSpaceOnUse"
       id="clipPath4">
      <path
         d="M 0,0 H 3099.9998 V 1121.2765 H 0 Z"
         transform="matrix(0.33354842,0,0,0.33354842,-0.5,-0.5)"
         clip-rule="evenodd"
         id="path4" />
    </clipPath>
    <clipPath
       clipPathUnits="userSpaceOnUse"
       id="clipPath6">
      <path
         d="M 0,0 H 3099.9998 V 1121.2765 H 0 Z"
         transform="matrix(0.33354842,0,0,0.33354842,-0.5,-0.5)"
         clip-rule="evenodd"
         id="path6" />
    </clipPath>
    <clipPath
       clipPathUnits="userSpaceOnUse"
       id="clipPath8">
      <path
         d="M 0,0 H 3099.9998 V 1121.2765 H 0 Z"
         transform="matrix(0.33354842,0,0,0.33354842,-0.5,-0.5)"
         clip-rule="evenodd"
         id="path8" />
    </clipPath>
    <clipPath
       clipPathUnits="userSpaceOnUse"
       id="clipPath9">
      <path
         d="M 0,0 H 3099.9998 V 1121.2765 H 0 Z"
         transform="matrix(0.33354508,0,0,0.33354508,-203.64063,-21)"
         clip-rule="evenodd"
         id="path9" />
    </clipPath>
    <clipPath
       clipPathUnits="userSpaceOnUse"
       id="clipPath11">
      <path
         d="M 0,0 H 3099.9998 V 1121.2765 H 0 Z"
         transform="matrix(0.33354842,0,0,0.33354842,-0.5,-0.5)"
         clip-rule="evenodd"
         id="path11" />
    </clipPath>
    <clipPath
       clipPathUnits="userSpaceOnUse"
       id="clipPath13">
      <path
         d="M 0,0 H 3099.9998 V 1121.2765 H 0 Z"
         transform="matrix(0.33354842,0,0,0.33354842,-0.5,-0.5)"
         clip-rule="evenodd"
         id="path13" />
    </clipPath>
    <clipPath
       clipPathUnits="userSpaceOnUse"
       id="clipPath15">
      <path
         d="M 0,0 H 3099.9998 V 1121.2765 H 0 Z"
         transform="matrix(0.33354842,0,0,0.33354842,-0.5,-0.5)"
         clip-rule="evenodd"
         id="path15" />
    </clipPath>
    <clipPath
       clipPathUnits="userSpaceOnUse"
       id="clipPath17">
      <path
         d="M 0,0 H 3099.9998 V 1121.2765 H 0 Z"
         transform="matrix(0.33354842,0,0,0.33354842,-0.5,-0.5)"
         clip-rule="evenodd"
         id="path17" />
    </clipPath>
    <clipPath
       clipPathUnits="userSpaceOnUse"
       id="clipPath19">
      <path
         d="M 0,0 H 3099.9998 V 1121.2765 H 0 Z"
         transform="matrix(0.33354842,0,0,0.33354842,-0.5,-0.5)"
         clip-rule="evenodd"
         id="path19" />
    </clipPath>
    <clipPath
       clipPathUnits="userSpaceOnUse"
       id="clipPath21">
      <path
         d="M 0,0 H 3099.9998 V 1121.2765 H 0 Z"
         transform="matrix(0.33354842,0,0,0.33354842,-0.5,-0.5)"
         clip-rule="evenodd"
         id="path21" />
    </clipPath>
    <clipPath
       clipPathUnits="userSpaceOnUse"
       id="clipPath23">
      <path
         d="M 0,0 H 3099.9998 V 1121.2765 H 0 Z"
         transform="matrix(0.33354842,0,0,0.33354842,-0.5,-0.5)"
         clip-rule="evenodd"
         id="path23" />
    </clipPath>
    <clipPath
       clipPathUnits="userSpaceOnUse"
       id="clipPath25">
      <path
         d="M 0,0 H 3099.9998 V 1121.2765 H 0 Z"
         transform="matrix(0.33354842,0,0,0.33354842,-0.5,-0.5)"
         clip-rule="evenodd"
         id="path25" />
    </clipPath>
    <clipPath
       clipPathUnits="userSpaceOnUse"
       id="clipPath26">
      <path
         d="M 0,0 H 3099.9998 V 1121.2765 H 0 Z"
         transform="matrix(0.33354508,0,0,0.33354508,-174.07813,-126)"
         clip-rule="evenodd"
         id="path26" />
    </clipPath>
    <clipPath
       clipPathUnits="userSpaceOnUse"
       id="clipPath28">
      <path
         d="M 0,0 H 3099.9998 V 1121.2765 H 0 Z"
         transform="matrix(0.33354842,0,0,0.33354842,-0.5,-0.5)"
         clip-rule="evenodd"
         id="path28" />
    </clipPath>
    <clipPath
       clipPathUnits="userSpaceOnUse"
       id="clipPath30">
      <path
         d="M 0,0 H 3099.9998 V 1121.2765 H 0 Z"
         transform="matrix(0.33354842,0,0,0.33354842,-0.5,-0.5)"
         clip-rule="evenodd"
         id="path30" />
    </clipPath>
    <clipPath
       clipPathUnits="userSpaceOnUse"
       id="clipPath32">
      <path
         d="M 0,0 H 3099.9998 V 1121.2765 H 0 Z"
         transform="matrix(0.33354842,0,0,0.33354842,-0.5,-0.5)"
         clip-rule="evenodd"
         id="path32" />
    </clipPath>
    <clipPath
       clipPathUnits="userSpaceOnUse"
       id="clipPath33">
      <path
         d="M 0,0 H 3099.9998 V 1121.2765 H 0 Z"
         transform="matrix(0.33354508,0,0,0.33354508,-196.3125,-206)"
         clip-rule="evenodd"
         id="path33" />
    </clipPath>
    <clipPath
       clipPathUnits="userSpaceOnUse"
       id="clipPath35">
      <path
         d="M 0,0 H 3099.9998 V 1121.2765 H 0 Z"
         transform="matrix(0.33354842,0,0,0.33354842,-0.5,-0.5)"
         clip-rule="evenodd"
         id="path35" />
    </clipPath>
    <clipPath
       clipPathUnits="userSpaceOnUse"
       id="clipPath36">
      <path
         d="M 0,0 H 3099.9998 V 1121.2765 H 0 Z"
         transform="matrix(0.33354508,0,0,0.33354508,-197.20313,-336)"
         clip-rule="evenodd"
         id="path36" />
    </clipPath>
    <clipPath
       clipPathUnits="userSpaceOnUse"
       id="clipPath37">
      <path
         d="M 0,0 H 3099.9998 V 1121.2765 H 0 Z"
         transform="matrix(0.33354508,0,0,0.33354508,-198.98438,-356.00001)"
         clip-rule="evenodd"
         id="path37" />
    </clipPath>
    <clipPath
       clipPathUnits="userSpaceOnUse"
       id="clipPath39">
      <path
         d="M 0,0 H 3099.9998 V 1121.2765 H 0 Z"
         transform="matrix(0.33354842,0,0,0.33354842,-0.5,-0.5)"
         clip-rule="evenodd"
         id="path39" />
    </clipPath>
    <clipPath
       clipPathUnits="userSpaceOnUse"
       id="clipPath40">
      <path
         d="M 0,0 H 3099.9998 V 1121.2765 H 0 Z"
         transform="matrix(0.33354508,0,0,0.33354508,-0.09375,-170)"
         clip-rule="evenodd"
         id="path40" />
    </clipPath>
    <clipPath
       clipPathUnits="userSpaceOnUse"
       id="clipPath42">
      <path
         d="M 0,0 H 3099.9998 V 1121.2765 H 0 Z"
         transform="matrix(0.33354842,0,0,0.33354842,-0.5,-0.5)"
         clip-rule="evenodd"
         id="path42" />
    </clipPath>
    <clipPath
       clipPathUnits="userSpaceOnUse"
       id="clipPath44">
      <path
         d="M 0,0 H 3099.9998 V 1121.2765 H 0 Z"
         transform="matrix(0.33354842,0,0,0.33354842,-0.5,-0.5)"
         clip-rule="evenodd"
         id="path44" />
    </clipPath>
    <clipPath
       clipPathUnits="userSpaceOnUse"
       id="clipPath46">
      <path
         d="M 0,0 H 3099.9998 V 1121.2765 H 0 Z"
         transform="matrix(0.33354842,0,0,0.33354842,-0.5,-0.5)"
         clip-rule="evenodd"
         id="path46" />
    </clipPath>
    <clipPath
       clipPathUnits="userSpaceOnUse"
       id="clipPath47">
      <path
         d="M 0,0 H 3099.9998 V 1121.2765 H 0 Z"
         transform="matrix(0.33354508,0,0,0.33354508,-381.85938,-107)"
         clip-rule="evenodd"
         id="path47" />
    </clipPath>
    <clipPath
       clipPathUnits="userSpaceOnUse"
       id="clipPath48">
      <path
         d="M 0,0 H 3099.9998 V 1121.2765 H 0 Z"
         transform="matrix(0.33354508,0,0,0.33354508,-391.25,-126)"
         clip-rule="evenodd"
         id="path48" />
    </clipPath>
    <clipPath
       clipPathUnits="userSpaceOnUse"
       id="clipPath49">
      <path
         d="M 0,0 H 3099.9998 V 1121.2765 H 0 Z"
         transform="matrix(0.33354508,0,0,0.33354508,-358.04688,-145)"
         clip-rule="evenodd"
         id="path49" />
    </clipPath>
    <clipPath
       clipPathUnits="userSpaceOnUse"
       id="clipPath51">
      <path
         d="M 0,0 H 3099.9998 V 1121.2765 H 0 Z"
         transform="matrix(0.33354842,0,0,0.33354842,-0.5,-0.5)"
         clip-rule="evenodd"
         id="path51" />
    </clipPath>
    <clipPath
       clipPathUnits="userSpaceOnUse"
       id="clipPath53">
      <path
         d="M 0,0 H 3099.9998 V 1121.2765 H 0 Z"
         transform="matrix(0.33354842,0,0,0.33354842,-0.5,-0.5)"
         clip-rule="evenodd"
         id="path53" />
    </clipPath>
    <clipPath
       clipPathUnits="userSpaceOnUse"
       id="clipPath55">
      <path
         d="M 0,0 H 3099.9998 V 1121.2765 H 0 Z"
         transform="matrix(0.33354842,0,0,0.33354842,-0.5,-0.5)"
         clip-rule="evenodd"
         id="path55" />
    </clipPath>
    <clipPath
       clipPathUnits="userSpaceOnUse"
       id="clipPath56">
      <path
         d="M 0,0 H 3099.9998 V 1121.2765 H 0 Z"
         transform="matrix(0.33354508,0,0,0.33354508,-565.01563,-107)"
         clip-rule="evenodd"
         id="path56" />
    </clipPath>
    <clipPath
       clipPathUnits="userSpaceOnUse"
       id="clipPath57">
      <path
         d="M 0,0 H 3099.9998 V 1121.2765 H 0 Z"
         transform="matrix(0.33354508,0,0,0.33354508,-557.01562,-126)"
         clip-rule="evenodd"
         id="path57" />
    </clipPath>
    <clipPath
       clipPathUnits="userSpaceOnUse"
       id="clipPath58">
      <path
         d="M 0,0 H 3099.9998 V 1121.2765 H 0 Z"
         transform="matrix(0.33354508,0,0,0.33354508,-593.40625,-145)"
         clip-rule="evenodd"
         id="path58" />
    </clipPath>
    <clipPath
       clipPathUnits="userSpaceOnUse"
       id="clipPath60">
      <path
         d="M 0,0 H 3099.9998 V 1121.2765 H 0 Z"
         transform="matrix(0.33354842,0,0,0.33354842,-0.5,-0.5)"
         clip-rule="evenodd"
         id="path60" />
    </clipPath>
    <clipPath
       clipPathUnits="userSpaceOnUse"
       id="clipPath62">
      <path
         d="M 0,0 H 3099.9998 V 1121.2765 H 0 Z"
         transform="matrix(0.33354842,0,0,0.33354842,-0.5,-0.5)"
         clip-rule="evenodd"
         id="path62" />
    </clipPath>
    <clipPath
       clipPathUnits="userSpaceOnUse"
       id="clipPath64">
      <path
         d="M 0,0 H 3099.9998 V 1121.2765 H 0 Z"
         transform="matrix(0.33354842,0,0,0.33354842,-0.5,-0.5)"
         clip-rule="evenodd"
         id="path64" />
    </clipPath>
    <clipPath
       clipPathUnits="userSpaceOnUse"
       id="clipPath65">
      <path
         d="M 0,0 H 3099.9998 V 1121.2765 H 0 Z"
         transform="matrix(0.33354508,0,0,0.33354508,-757.01563,-116)"
         clip-rule="evenodd"
         id="path65" />
    </clipPath>
    <clipPath
       clipPathUnits="userSpaceOnUse"
       id="clipPath66">
      <path
         d="M 0,0 H 3099.9998 V 1121.2765 H 0 Z"
         transform="matrix(0.33354508,0,0,0.33354508,-768.96875,-136)"
         clip-rule="evenodd"
         id="path66" />
    </clipPath>
    <clipPath
       clipPathUnits="userSpaceOnUse"
       id="clipPath68">
      <path
         d="M 0,0 H 3099.9998 V 1121.2765 H 0 Z"
         transform="matrix(0.33354842,0,0,0.33354842,-0.5,-0.5)"
         clip-rule="evenodd"
         id="path68" />
    </clipPath>
    <clipPath
       clipPathUnits="userSpaceOnUse"
       id="clipPath69">
      <path
         d="M 0,0 H 3099.9998 V 1121.2765 H 0 Z"
         transform="matrix(0.33354508,0,0,0.33354508,-907.84375,-116)"
         clip-rule="evenodd"
         id="path69" />
    </clipPath>
    <clipPath
       clipPathUnits="userSpaceOnUse"
       id="clipPath70">
      <path
         d="M 0,0 H 3099.9998 V 1121.2765 H 0 Z"
         transform="matrix(0.33354508,0,0,0.33354508,-911.90625,-136)"
         clip-rule="evenodd"
         id="path70" />
    </clipPath>
    <clipPath
       clipPathUnits="userSpaceOnUse"
       id="clipPath72">
      <path
         d="M 0,0 H 3099.9998 V 1121.2765 H 0 Z"
         transform="matrix(0.33354842,0,0,0.33354842,-0.5,-0.5)"
         clip-rule="evenodd"
         id="path72" />
    </clipPath>
    <clipPath
       clipPathUnits="userSpaceOnUse"
       id="clipPath74">
      <path
         d="M 0,0 H 3099.9998 V 1121.2765 H 0 Z"
         transform="matrix(0.33354842,0,0,0.33354842,-0.5,-0.5)"
         clip-rule="evenodd"
         id="path74" />
    </clipPath>
    <clipPath
       clipPathUnits="userSpaceOnUse"
       id="clipPath76">
      <path
         d="M 0,0 H 3099.9998 V 1121.2765 H 0 Z"
         transform="matrix(0.33354842,0,0,0.33354842,-0.5,-0.5)"
         clip-rule="evenodd"
         id="path76" />
    </clipPath>
    <clipPath
       clipPathUnits="userSpaceOnUse"
       id="clipPath77">
      <path
         d="M 0,0 H 3099.9998 V 1121.2765 H 0 Z"
         transform="matrix(0.33354508,0,0,0.33354508,-360.9375,-187)"
         clip-rule="evenodd"
         id="path77" />
    </clipPath>
    <clipPath
       clipPathUnits="userSpaceOnUse"
       id="clipPath78">
      <path
         d="M 0,0 H 3099.9998 V 1121.2765 H 0 Z"
         transform="matrix(0.33354508,0,0,0.33354508,-435.20313,-206)"
         clip-rule="evenodd"
         id="path78" />
    </clipPath>
    <clipPath
       clipPathUnits="userSpaceOnUse"
       id="clipPath79">
      <path
         d="M 0,0 H 3099.9998 V 1121.2765 H 0 Z"
         transform="matrix(0.33354508,0,0,0.33354508,-362.34375,-225)"
         clip-rule="evenodd"
         id="path79" />
    </clipPath>
    <clipPath
       clipPathUnits="userSpaceOnUse"
       id="clipPath81">
      <path
         d="M 0,0 H 3099.9998 V 1121.2765 H 0 Z"
         transform="matrix(0.33354842,0,0,0.33354842,-0.5,-0.5)"
         clip-rule="evenodd"
         id="path81" />
    </clipPath>
    <clipPath
       clipPathUnits="userSpaceOnUse"
       id="clipPath83">
      <path
         d="M 0,0 H 3099.9998 V 1121.2765 H 0 Z"
         transform="matrix(0.33354842,0,0,0.33354842,-0.5,-0.5)"
         clip-rule="evenodd"
         id="path83" />
    </clipPath>
    <clipPath
       clipPathUnits="userSpaceOnUse"
       id="clipPath85">
      <path
         d="M 0,0 H 3099.9998 V 1121.2765 H 0 Z"
         transform="matrix(0.33354842,0,0,0.33354842,-0.5,-0.5)"
         clip-rule="evenodd"
         id="path85" />
    </clipPath>
    <clipPath
       clipPathUnits="userSpaceOnUse"
       id="clipPath86">
      <path
         d="M 0,0 H 3099.9998 V 1121.2765 H 0 Z"
         transform="matrix(0.33354508,0,0,0.33354508,-613.75,-187)"
         clip-rule="evenodd"
         id="path86" />
    </clipPath>
    <clipPath
       clipPathUnits="userSpaceOnUse"
       id="clipPath87">
      <path
         d="M 0,0 H 3099.9998 V 1121.2765 H 0 Z"
         transform="matrix(0.33354508,0,0,0.33354508,-617.29688,-206)"
         clip-rule="evenodd"
         id="path87" />
    </clipPath>
    <clipPath
       clipPathUnits="userSpaceOnUse"
       id="clipPath88">
      <path
         d="M 0,0 H 3099.9998 V 1121.2765 H 0 Z"
         transform="matrix(0.33354508,0,0,0.33354508,-613.8125,-225)"
         clip-rule="evenodd"
         id="path88" />
    </clipPath>
    <clipPath
       clipPathUnits="userSpaceOnUse"
       id="clipPath90">
      <path
         d="M 0,0 H 3099.9998 V 1121.2765 H 0 Z"
         transform="matrix(0.33354842,0,0,0.33354842,-0.5,-0.5)"
         clip-rule="evenodd"
         id="path90" />
    </clipPath>
    <clipPath
       clipPathUnits="userSpaceOnUse"
       id="clipPath91">
      <path
         d="M 0,0 H 3099.9998 V 1121.2765 H 0 Z"
         transform="matrix(0.33354508,0,0,0.33354508,-795.51563,-187)"
         clip-rule="evenodd"
         id="path91" />
    </clipPath>
    <clipPath
       clipPathUnits="userSpaceOnUse"
       id="clipPath92">
      <path
         d="M 0,0 H 3099.9998 V 1121.2765 H 0 Z"
         transform="matrix(0.33354508,0,0,0.33354508,-798.1875,-206)"
         clip-rule="evenodd"
         id="path92" />
    </clipPath>
    <clipPath
       clipPathUnits="userSpaceOnUse"
       id="clipPath93">
      <path
         d="M 0,0 H 3099.9998 V 1121.2765 H 0 Z"
         transform="matrix(0.33354508,0,0,0.33354508,-819.59375,-225)"
         clip-rule="evenodd"
         id="path93" />
    </clipPath>
  </defs>
  <sodipodi:namedview
     id="namedview1"
     pagecolor="#ffffff"
     bordercolor="#000000"
     borderopacity="0.25"
     inkscape:showpageshadow="2"
     inkscape:pageopacity="0.0"
     inkscape:pagecheckerboard="0"
     inkscape:deskcolor="#d1d1d1">
    <inkscape:page
       x="0"
       y="0"
       inkscape:label="1"
       id="page1"
       width="992"
       height="360"
       margin="0"
       bleed="0" />
  </sodipodi:namedview>
  <g
     id="g1"
     inkscape:groupmode="layer"
     inkscape:label="1">
    <path
       id="path1"
       d="M 0,0 H 1034 V 375 H 0 Z"
       style="fill:#ffffff;fill-opacity:1;fill-rule:nonzero;stroke:none"
       transform="scale(0.95938092)"
       clip-path="url(#clipPath2)" />
    <path
       id="path3"
       d="M 227,31 V 51 41 50.900002"
       style="fill:none;stroke:#000000;stroke-width:1;stroke-linecap:butt;stroke-linejoin:miter;stroke-miterlimit:10;stroke-dasharray:none;stroke-opacity:1"
       transform="matrix(0.95938092,0,0,0.95938092,0.47969046,0.47969046)"
       clip-path="url(#clipPath4)" />
    <path
       id="path5"
       d="m 227,57.650002 -4.5,-9 4.5,2.25 4.5,-2.25 z"
       style="fill:#000000;fill-opacity:1;fill-rule:nonzero;stroke:#000000;stroke-width:1;stroke-linecap:butt;stroke-linejoin:miter;stroke-miterlimit:10;stroke-dasharray:none;stroke-opacity:1"
       transform="matrix(0.95938092,0,0,0.95938092,0.47969046,0.47969046)"
       clip-path="url(#clipPath6)" />
    <path
       id="path7"
       d="M 167,1 H 287 V 31 H 167 Z"
       style="fill:#ffffff;fill-opacity:1;fill-rule:nonzero;stroke:#000000;stroke-width:1;stroke-linecap:butt;stroke-linejoin:miter;stroke-miterlimit:10;stroke-dasharray:none;stroke-opacity:1"
       transform="matrix(0.95938092,0,0,0.95938092,0.47969046,0.47969046)"
       clip-path="url(#clipPath8)" />
    <text
       id="text8"
       xml:space="preserve"
       transform="matrix(0.95939052,0,0,0.95939052,195.37089,20.147201)"
       clip-path="url(#clipPath9)"><tspan
         style="font-variant:normal;font-weight:normal;font-size:14px;font-family:Helvetica;writing-mode:lr-tb;fill:#000000;fill-opacity:1;fill-rule:nonzero;stroke:none"
         x="0 4.6621094 12.448242 20.234375 28.020508 35.806641 42.806641"
         y="0"
         sodipodi:role="line"
         id="tspan8">request</tspan></text>
    <path
       id="path10"
       d="m 227,271 v 29.89999"
       style="fill:none;stroke:#000000;stroke-width:1;stroke-linecap:butt;stroke-linejoin:miter;stroke-miterlimit:10;stroke-dasharray:none;stroke-opacity:1"
       transform="matrix(0.95938092,0,0,0.95938092,0.47969046,0.47969046)"
       clip-path="url(#clipPath11)" />
    <path
       id="path12"
       d="m 227,307.64999 -4.5,-9 4.5,2.25 4.5,-2.25 z"
       style="fill:#000000;fill-opacity:1;fill-rule:nonzero;stroke:#000000;stroke-width:1;stroke-linecap:butt;stroke-linejoin:miter;stroke-miterlimit:10;stroke-dasharray:none;stroke-opacity:1"
       transform="matrix(0.95938092,0,0,0.95938092,0.47969046,0.47969046)"
       clip-path="url(#clipPath13)" />
    <path
       id="path14"
       d="M 132,61 H 322 V 271 H 132 Z"
       style="fill:#ffffff;fill-opacity:1;fill-rule:nonzero;stroke:#000000;stroke-width:1;stroke-linecap:butt;stroke-linejoin:miter;stroke-miterlimit:10;stroke-dasharray:none;stroke-opacity:1"
       transform="matrix(0.95938092,0,0,0.95938092,0.47969046,0.47969046)"
       clip-path="url(#clipPath15)" />
    <path
       id="path16"
       d="m 227,151 v 9.89999"
       style="fill:none;stroke:#000000;stroke-width:1;stroke-linecap:butt;stroke-linejoin:miter;stroke-miterlimit:10;stroke-dasharray:none;stroke-opacity:1"
       transform="matrix(0.95938092,0,0,0.95938092,0.47969046,0.47969046)"
       clip-path="url(#clipPath17)" />
    <path
       id="path18"
       d="m 227,167.64999 -4.5,-9 4.5,2.25 4.5,-2.25 z"
       style="fill:#000000;fill-opacity:1;fill-rule:nonzero;stroke:#000000;stroke-width:1;stroke-linecap:butt;stroke-linejoin:miter;stroke-miterlimit:10;stroke-dasharray:none;stroke-opacity:1"
       transform="matrix(0.95938092,0,0,0.95938092,0.47969046,0.47969046)"
       clip-path="url(#clipPath19)" />
    <path
       id="path20"
       d="m 287,121 h 54.89999"
       style="fill:none;stroke:#000000;stroke-width:1;stroke-linecap:butt;stroke-linejoin:miter;stroke-miterlimit:10;stroke-dasharray:none;stroke-opacity:1"
       transform="matrix(0.95938092,0,0,0.95938092,0.47969046,0.47969046)"
       clip-path="url(#clipPath21)" />
    <path
       id="path22"
       d="m 348.64999,121 -9,4.5 2.25,-4.5 -2.25,-4.5 z"
       style="fill:#000000;fill-opacity:1;fill-rule:nonzero;stroke:#000000;stroke-width:1;stroke-linecap:butt;stroke-linejoin:miter;stroke-miterlimit:10;stroke-dasharray:none;stroke-opacity:1"
       transform="matrix(0.95938092,0,0,0.95938092,0.47969046,0.47969046)"
       clip-path="url(#clipPath23)" />
    <path
       id="path24"
       d="m 167,91 h 120 v 60 H 167 Z"
       style="fill:#ffffff;fill-opacity:1;fill-rule:nonzero;stroke:#000000;stroke-width:1;stroke-linecap:butt;stroke-linejoin:miter;stroke-miterlimit:10;stroke-dasharray:none;stroke-opacity:1"
       transform="matrix(0.95938092,0,0,0.95938092,0.47969046,0.47969046)"
       clip-path="url(#clipPath25)" />
    <text
       id="text25"
       xml:space="preserve"
       transform="matrix(0.95939052,0,0,0.95939052,167.00891,120.88321)"
       clip-path="url(#clipPath26)"><tspan
         style="font-variant:normal;font-weight:normal;font-size:16px;font-family:Helvetica;writing-mode:lr-tb;fill:#000000;fill-opacity:1;fill-rule:nonzero;stroke:none"
         x="0 8 16.898438 25.796875 33.796875 37.351562 46.25 51.578125 59.578125 68.476562 76.476562 84.476562 88.03125 96.929688"
         y="0"
         sodipodi:role="line"
         id="tspan25">cookie-session</tspan></text>
    <path
       id="path27"
       d="m 287,201 h 54.89999"
       style="fill:none;stroke:#000000;stroke-width:1;stroke-linecap:butt;stroke-linejoin:miter;stroke-miterlimit:10;stroke-dasharray:none;stroke-opacity:1"
       transform="matrix(0.95938092,0,0,0.95938092,0.47969046,0.47969046)"
       clip-path="url(#clipPath28)" />
    <path
       id="path29"
       d="m 348.64999,201 -9,4.5 2.25,-4.5 -2.25,-4.5 z"
       style="fill:#000000;fill-opacity:1;fill-rule:nonzero;stroke:#000000;stroke-width:1;stroke-linecap:butt;stroke-linejoin:miter;stroke-miterlimit:10;stroke-dasharray:none;stroke-opacity:1"
       transform="matrix(0.95938092,0,0,0.95938092,0.47969046,0.47969046)"
       clip-path="url(#clipPath30)" />
    <path
       id="path31"
       d="m 167,171 h 120 v 60 H 167 Z"
       style="fill:#ffffff;fill-opacity:1;fill-rule:nonzero;stroke:#000000;stroke-width:1;stroke-linecap:butt;stroke-linejoin:miter;stroke-miterlimit:10;stroke-dasharray:none;stroke-opacity:1"
       transform="matrix(0.95938092,0,0,0.95938092,0.47969046,0.47969046)"
       clip-path="url(#clipPath32)" />
    <text
       id="text32"
       xml:space="preserve"
       transform="matrix(0.95939052,0,0,0.95939052,188.34035,197.63445)"
       clip-path="url(#clipPath33)"><tspan
         style="font-variant:normal;font-weight:normal;font-size:16px;font-family:Helvetica;writing-mode:lr-tb;fill:#000000;fill-opacity:1;fill-rule:nonzero;stroke:none"
         x="0 8.8984375 17.796875 25.796875 33.796875 42.695312 51.59375 56.921875"
         y="0"
         sodipodi:role="line"
         id="tspan32">passport</tspan></text>
    <path
       id="path34"
       d="m 167,311 h 120 v 60 H 167 Z"
       style="fill:#ffffff;fill-opacity:1;fill-rule:nonzero;stroke:#000000;stroke-width:1;stroke-linecap:butt;stroke-linejoin:miter;stroke-miterlimit:10;stroke-dasharray:none;stroke-opacity:1"
       transform="matrix(0.95938092,0,0,0.95938092,0.47969046,0.47969046)"
       clip-path="url(#clipPath35)" />
    <text
       id="text35"
       xml:space="preserve"
       transform="matrix(0.95939052,0,0,0.95939052,189.19481,322.35521)"
       clip-path="url(#clipPath36)"><tspan
         style="font-variant:normal;font-weight:normal;font-size:16px;font-family:Helvetica;writing-mode:lr-tb;fill:#000000;fill-opacity:1;fill-rule:nonzero;stroke:none"
         x="0 11.554688 20.453125 29.351562 38.25 47.148438 55.148438"
         y="0"
         sodipodi:role="line"
         id="tspan35">Request</tspan></text>
    <text
       id="text36"
       xml:space="preserve"
       transform="matrix(0.95939052,0,0,0.95939052,190.90373,341.54303)"
       clip-path="url(#clipPath37)"><tspan
         style="font-variant:normal;font-weight:normal;font-size:16px;font-family:Helvetica;writing-mode:lr-tb;fill:#000000;fill-opacity:1;fill-rule:nonzero;stroke:none"
         x="0 11.554688 20.453125 29.351562 38.25 41.804688 50.703125"
         y="0"
         sodipodi:role="line"
         id="tspan36">Handler</tspan></text>
    <path
       id="path38"
       d="m 122,61 h -7.5 c -5,0 -7.5,3.333336 -7.5,10 v 85 c 0,6.66667 -2.5,10 -7.5,10 h -3.75 c -2.5,0 -1.25,0 3.75,0 h 3.75 c 2.5,0 3.75,3.33333 3.75,10 v 85 c 0,6.66666 2.5,10 7.5,10 h 7.5"
       style="fill:none;stroke:#000000;stroke-width:1;stroke-linecap:butt;stroke-linejoin:miter;stroke-miterlimit:10;stroke-dasharray:none;stroke-opacity:1"
       transform="matrix(0.95938092,0,0,0.95938092,0.47969046,0.47969046)"
       clip-path="url(#clipPath39)" />
    <text
       id="text39"
       xml:space="preserve"
       transform="matrix(0.95939052,0,0,0.95939052,0.08994286,163.09639)"
       clip-path="url(#clipPath40)"><tspan
         style="font-variant:normal;font-weight:normal;font-size:16px;font-family:Helvetica;writing-mode:lr-tb;fill:#000000;fill-opacity:1;fill-rule:nonzero;stroke:none"
         x="0 13.328125 16.882812 25.78125 34.679688 38.234375 47.132812 58.6875 67.585938 72.914062 81.8125"
         y="0"
         sodipodi:role="line"
         id="tspan39">Middlewares</tspan></text>
    <path
       id="path41"
       d="M 522.01001,121 H 542 h -10 9.90002"
       style="fill:none;stroke:#000000;stroke-width:1;stroke-linecap:butt;stroke-linejoin:miter;stroke-miterlimit:10;stroke-dasharray:none;stroke-opacity:1"
       transform="matrix(0.95938092,0,0,0.95938092,0.47969046,0.47969046)"
       clip-path="url(#clipPath42)" />
    <path
       id="path43"
       d="m 548.65002,121 -9,4.5 2.25,-4.5 -2.25,-4.5 z"
       style="fill:#000000;fill-opacity:1;fill-rule:nonzero;stroke:#000000;stroke-width:1;stroke-linecap:butt;stroke-linejoin:miter;stroke-miterlimit:10;stroke-dasharray:none;stroke-opacity:1"
       transform="matrix(0.95938092,0,0,0.95938092,0.47969046,0.47969046)"
       clip-path="url(#clipPath44)" />
    <path
       id="path45"
       d="m 352,91 h 170 v 60 H 352 Z"
       style="fill:#ffffff;fill-opacity:1;fill-rule:nonzero;stroke:#000000;stroke-width:1;stroke-linecap:butt;stroke-linejoin:miter;stroke-miterlimit:10;stroke-dasharray:none;stroke-opacity:1"
       transform="matrix(0.95938092,0,0,0.95938092,0.47969046,0.47969046)"
       clip-path="url(#clipPath46)" />
    <text
       id="text46"
       xml:space="preserve"
       transform="matrix(0.95939052,0,0,0.95939052,366.35227,102.65479)"
       clip-path="url(#clipPath47)"><tspan
         style="font-variant:normal;font-weight:normal;font-size:16px;font-family:Helvetica;writing-mode:lr-tb;fill:#000000;fill-opacity:1;fill-rule:nonzero;stroke:none"
         x="0 10.671875 19.570312 23.125 26.679688 34.679688 39.125 48.023438 53.351562 62.25 71.148438 80.046875 85.375 89.820312 93.375 102.27344"
         y="0"
         sodipodi:role="line"
         id="tspan46">Pulls properties</tspan></text>
    <text
       id="text47"
       xml:space="preserve"
       transform="matrix(0.95939052,0,0,0.95939052,375.36154,120.88321)"
       clip-path="url(#clipPath48)"><tspan
         style="font-variant:normal;font-weight:normal;font-size:16px;font-family:Helvetica;writing-mode:lr-tb;fill:#000000;fill-opacity:1;fill-rule:nonzero;stroke:none"
         x="0 3.0546875 11.054688 19.953125 27.953125 35.953125 39.507812 48.40625 57.304688 60.359375 64.804688 73.703125 82.601562"
         y="0"
         sodipodi:role="line"
         id="tspan47">'session' and</tspan></text>
    <text
       id="text48"
       xml:space="preserve"
       transform="matrix(0.95939052,0,0,0.95939052,343.50678,139.11163)"
       clip-path="url(#clipPath49)"><tspan
         style="font-variant:normal;font-weight:normal;font-size:16px;font-family:Helvetica;writing-mode:lr-tb;fill:#000000;fill-opacity:1;fill-rule:nonzero;stroke:none"
         x="0 3.0546875 11.054688 19.953125 27.953125 35.953125 39.507812 48.40625 57.304688 61.75 69.75 73.304688 82.203125 85.257812 89.703125 98.601562 102.76562 107.21094 111.65625 119.65625 128.55469 137.45312 145.45312 149.00781"
         y="0"
         sodipodi:role="line"
         id="tspan48">'session.sig' off cookie</tspan></text>
    <path
       id="path50"
       d="M 722.01001,121 H 742 h -10 9.90002"
       style="fill:none;stroke:#000000;stroke-width:1;stroke-linecap:butt;stroke-linejoin:miter;stroke-miterlimit:10;stroke-dasharray:none;stroke-opacity:1"
       transform="matrix(0.95938092,0,0,0.95938092,0.47969046,0.47969046)"
       clip-path="url(#clipPath51)" />
    <path
       id="path52"
       d="m 748.65002,121 -9,4.5 2.25,-4.5 -2.25,-4.5 z"
       style="fill:#000000;fill-opacity:1;fill-rule:nonzero;stroke:#000000;stroke-width:1;stroke-linecap:butt;stroke-linejoin:miter;stroke-miterlimit:10;stroke-dasharray:none;stroke-opacity:1"
       transform="matrix(0.95938092,0,0,0.95938092,0.47969046,0.47969046)"
       clip-path="url(#clipPath53)" />
    <path
       id="path54"
       d="m 552.01001,91 h 170 v 60 h -170 z"
       style="fill:#ffffff;fill-opacity:1;fill-rule:nonzero;stroke:#000000;stroke-width:1;stroke-linecap:butt;stroke-linejoin:miter;stroke-miterlimit:10;stroke-dasharray:none;stroke-opacity:1"
       transform="matrix(0.95938092,0,0,0.95938092,0.47969046,0.47969046)"
       clip-path="url(#clipPath55)" />
    <text
       id="text55"
       xml:space="preserve"
       transform="matrix(0.95939052,0,0,0.95939052,542.07064,102.65479)"
       clip-path="url(#clipPath56)"><tspan
         style="font-variant:normal;font-weight:normal;font-size:16px;font-family:Helvetica;writing-mode:lr-tb;fill:#000000;fill-opacity:1;fill-rule:nonzero;stroke:none"
         x="0 11.554688 19.554688 28.453125 36.453125 40.898438 43.953125 51.953125 60.851562 68.851562 76.851562 80.40625 89.304688 98.203125 102.64844 110.64844 114.20312 123.10156 126.15625 130.60156 135.04688"
         y="0"
         sodipodi:role="line"
         id="tspan55">Uses 'session.sig' to</tspan></text>
    <text
       id="text56"
       xml:space="preserve"
       transform="matrix(0.95939052,0,0,0.95939052,534.39551,120.88321)"
       clip-path="url(#clipPath57)"><tspan
         style="font-variant:normal;font-weight:normal;font-size:16px;font-family:Helvetica;writing-mode:lr-tb;fill:#000000;fill-opacity:1;fill-rule:nonzero;stroke:none"
         x="0 8.8984375 17.796875 25.796875 34.695312 40.023438 48.921875 53.367188 56.421875 64.421875 73.320312 81.320312 89.320312 92.875 101.77344 110.67188 113.72656 118.17188 129.72656 138.625 146.625 155.52344"
         y="0"
         sodipodi:role="line"
         id="tspan56">ensure 'session' wasnt</tspan></text>
    <text
       id="text57"
       xml:space="preserve"
       transform="matrix(0.95939052,0,0,0.95939052,569.30833,139.11163)"
       clip-path="url(#clipPath58)"><tspan
         style="font-variant:normal;font-weight:normal;font-size:16px;font-family:Helvetica;writing-mode:lr-tb;fill:#000000;fill-opacity:1;fill-rule:nonzero;stroke:none"
         x="0 13.328125 22.226562 31.125 34.679688 43.578125 52.476562 56.03125 64.929688 69.375 78.273438"
         y="0"
         sodipodi:role="line"
         id="tspan57">manipulated</tspan></text>
    <path
       id="path59"
       d="M 882.01001,121 H 902 h -20 9.90002"
       style="fill:none;stroke:#000000;stroke-width:1;stroke-linecap:butt;stroke-linejoin:miter;stroke-miterlimit:10;stroke-dasharray:none;stroke-opacity:1"
       transform="matrix(0.95938092,0,0,0.95938092,0.47969046,0.47969046)"
       clip-path="url(#clipPath60)" />
    <path
       id="path61"
       d="m 898.65002,121 -9,4.5 2.25,-4.5 -2.25,-4.5 z"
       style="fill:#000000;fill-opacity:1;fill-rule:nonzero;stroke:#000000;stroke-width:1;stroke-linecap:butt;stroke-linejoin:miter;stroke-miterlimit:10;stroke-dasharray:none;stroke-opacity:1"
       transform="matrix(0.95938092,0,0,0.95938092,0.47969046,0.47969046)"
       clip-path="url(#clipPath62)" />
    <path
       id="path63"
       d="m 752.01001,91 h 130 v 60 h -130 z"
       style="fill:#ffffff;fill-opacity:1;fill-rule:nonzero;stroke:#000000;stroke-width:1;stroke-linecap:butt;stroke-linejoin:miter;stroke-miterlimit:10;stroke-dasharray:none;stroke-opacity:1"
       transform="matrix(0.95938092,0,0,0.95938092,0.47969046,0.47969046)"
       clip-path="url(#clipPath64)" />
    <text
       id="text64"
       xml:space="preserve"
       transform="matrix(0.95939052,0,0,0.95939052,726.27362,111.2893)"
       clip-path="url(#clipPath65)"><tspan
         style="font-variant:normal;font-weight:normal;font-size:16px;font-family:Helvetica;writing-mode:lr-tb;fill:#000000;fill-opacity:1;fill-rule:nonzero;stroke:none"
         x="0 11.554688 20.453125 28.453125 37.351562 46.25 55.148438 59.59375 62.648438 70.648438 79.546875 87.546875 95.546875 99.101562 108 116.89844"
         y="0"
         sodipodi:role="line"
         id="tspan64">Decode 'session'</tspan></text>
    <text
       id="text65"
       xml:space="preserve"
       transform="matrix(0.95939052,0,0,0.95939052,737.74133,130.47711)"
       clip-path="url(#clipPath66)"><tspan
         style="font-variant:normal;font-weight:normal;font-size:16px;font-family:Helvetica;writing-mode:lr-tb;fill:#000000;fill-opacity:1;fill-rule:nonzero;stroke:none"
         x="0 3.5546875 12.453125 16.898438 25.796875 30.242188 38.242188 48.914062 53.359375 62.257812 71.15625 74.710938 83.609375 91.609375"
         y="0"
         sodipodi:role="line"
         id="tspan65">into JS object</tspan></text>
    <path
       id="path67"
       d="M 902.01001,91 H 1032.01 v 60 H 902.01001 Z"
       style="fill:#ffffff;fill-opacity:1;fill-rule:nonzero;stroke:#000000;stroke-width:1;stroke-linecap:butt;stroke-linejoin:miter;stroke-miterlimit:10;stroke-dasharray:none;stroke-opacity:1"
       transform="matrix(0.95938092,0,0,0.95938092,0.47969046,0.47969046)"
       clip-path="url(#clipPath68)" />
    <text
       id="text68"
       xml:space="preserve"
       transform="matrix(0.95939052,0,0,0.95939052,870.97669,111.2893)"
       clip-path="url(#clipPath69)"><tspan
         style="font-variant:normal;font-weight:normal;font-size:16px;font-family:Helvetica;writing-mode:lr-tb;fill:#000000;fill-opacity:1;fill-rule:nonzero;stroke:none"
         x="0 10.671875 14.226562 23.125 31.125 40.023438 44.46875 48.914062 57.8125 66.710938 71.15625 75.601562 84.5 93.398438 96.953125 105.85156 113.85156"
         y="0"
         sodipodi:role="line"
         id="tspan68">Place that object</tspan></text>
    <text
       id="text69"
       xml:space="preserve"
       transform="matrix(0.95939052,0,0,0.95939052,874.87421,130.47711)"
       clip-path="url(#clipPath70)"><tspan
         style="font-variant:normal;font-weight:normal;font-size:16px;font-family:Helvetica;writing-mode:lr-tb;fill:#000000;fill-opacity:1;fill-rule:nonzero;stroke:none"
         x="0 8.8984375 17.796875 22.242188 25.296875 30.625 39.523438 48.421875 52.867188 60.867188 69.765625 77.765625 85.765625 89.320312 98.21875 107.11719"
         y="0"
         sodipodi:role="line"
         id="tspan69">on 'req.session'</tspan></text>
    <path
       id="path71"
       d="m 562.01001,201 h 29.89001"
       style="fill:none;stroke:#000000;stroke-width:1;stroke-linecap:butt;stroke-linejoin:miter;stroke-miterlimit:10;stroke-dasharray:none;stroke-opacity:1"
       transform="matrix(0.95938092,0,0,0.95938092,0.47969046,0.47969046)"
       clip-path="url(#clipPath72)" />
    <path
       id="path73"
       d="m 598.65002,201 -9,4.5 2.25,-4.5 -2.25,-4.5 z"
       style="fill:#000000;fill-opacity:1;fill-rule:nonzero;stroke:#000000;stroke-width:1;stroke-linecap:butt;stroke-linejoin:miter;stroke-miterlimit:10;stroke-dasharray:none;stroke-opacity:1"
       transform="matrix(0.95938092,0,0,0.95938092,0.47969046,0.47969046)"
       clip-path="url(#clipPath74)" />
    <path
       id="path75"
       d="m 352,171 h 210 v 60 H 352 Z"
       style="fill:#ffffff;fill-opacity:1;fill-rule:nonzero;stroke:#000000;stroke-width:1;stroke-linecap:butt;stroke-linejoin:miter;stroke-miterlimit:10;stroke-dasharray:none;stroke-opacity:1"
       transform="matrix(0.95938092,0,0,0.95938092,0.47969046,0.47969046)"
       clip-path="url(#clipPath76)" />
    <text
       id="text76"
       xml:space="preserve"
       transform="matrix(0.95939052,0,0,0.95939052,346.28002,179.40603)"
       clip-path="url(#clipPath77)"><tspan
         style="font-variant:normal;font-weight:normal;font-size:16px;font-family:Helvetica;writing-mode:lr-tb;fill:#000000;fill-opacity:1;fill-rule:nonzero;stroke:none"
         x="0 8.8984375 17.796875 26.695312 34.695312 39.140625 48.039062 52.484375 56.929688 62.257812 71.15625 80.054688 84.5 92.5 101.39844 109.39844 117.39844 120.95312 129.85156 138.75 143.19531 152.09375 160.99219 169.89062 174.33594 178.78125 184.10938"
         y="0"
         sodipodi:role="line"
         id="tspan76">Look at req.session and try</tspan></text>
    <g
       id="g77" />
    <text
       id="text77"
       xml:space="preserve"
       transform="matrix(0.95939052,0,0,0.95939052,417.52976,197.63445)"
       clip-path="url(#clipPath78)"><tspan
         style="font-variant:normal;font-weight:normal;font-size:16px;font-family:Helvetica;writing-mode:lr-tb;fill:#000000;fill-opacity:1;fill-rule:nonzero;stroke:none"
         x="0 4.4453125 13.34375 17.789062 25.789062 34.6875"
         y="0"
         sodipodi:role="line"
         id="tspan77">to ﬁnd</tspan></text>
    <text
       id="text78"
       xml:space="preserve"
       transform="matrix(0.95939052,0,0,0.95939052,347.62916,215.86287)"
       clip-path="url(#clipPath79)"><tspan
         style="font-variant:normal;font-weight:normal;font-size:16px;font-family:Helvetica;writing-mode:lr-tb;fill:#000000;fill-opacity:1;fill-rule:nonzero;stroke:none"
         x="0 3.0546875 8.3828125 17.28125 26.179688 30.625 38.625 47.523438 55.523438 63.523438 67.078125 75.976562 84.875 89.320312 98.21875 107.11719 115.11719 123.11719 132.01562 140.91406 146.24219 150.6875 155.13281 164.03125 172.03125 180.92969 186.25781"
         y="0"
         sodipodi:role="line"
         id="tspan78">'req.session.passport.user'</tspan></text>
    <path
       id="path80"
       d="m 742.01001,201 h 29.89001"
       style="fill:none;stroke:#000000;stroke-width:1;stroke-linecap:butt;stroke-linejoin:miter;stroke-miterlimit:10;stroke-dasharray:none;stroke-opacity:1"
       transform="matrix(0.95938092,0,0,0.95938092,0.47969046,0.47969046)"
       clip-path="url(#clipPath81)" />
    <path
       id="path82"
       d="m 778.65002,201 -9,4.5 2.25,-4.5 -2.25,-4.5 z"
       style="fill:#000000;fill-opacity:1;fill-rule:nonzero;stroke:#000000;stroke-width:1;stroke-linecap:butt;stroke-linejoin:miter;stroke-miterlimit:10;stroke-dasharray:none;stroke-opacity:1"
       transform="matrix(0.95938092,0,0,0.95938092,0.47969046,0.47969046)"
       clip-path="url(#clipPath83)" />
    <path
       id="path84"
       d="m 602.01001,171 h 140 v 60 h -140 z"
       style="fill:#ffffff;fill-opacity:1;fill-rule:nonzero;stroke:#000000;stroke-width:1;stroke-linecap:butt;stroke-linejoin:miter;stroke-miterlimit:10;stroke-dasharray:none;stroke-opacity:1"
       transform="matrix(0.95938092,0,0,0.95938092,0.47969046,0.47969046)"
       clip-path="url(#clipPath85)" />
    <text
       id="text85"
       xml:space="preserve"
       transform="matrix(0.95939052,0,0,0.95939052,588.82593,179.40603)"
       clip-path="url(#clipPath86)"><tspan
         style="font-variant:normal;font-weight:normal;font-size:16px;font-family:Helvetica;writing-mode:lr-tb;fill:#000000;fill-opacity:1;fill-rule:nonzero;stroke:none"
         x="0 4.4453125 8.890625 13.335938 22.234375 31.132812 35.578125 40.023438 51.578125 56.023438 59.578125 67.578125 72.023438 80.023438 84.46875 93.367188 98.695312 107.59375"
         y="0"
         sodipodi:role="line"
         id="tspan85">If an ID is stored</tspan></text>
    <text
       id="text86"
       xml:space="preserve"
       transform="matrix(0.95939052,0,0,0.95939052,592.22877,197.63445)"
       clip-path="url(#clipPath87)"><tspan
         style="font-variant:normal;font-weight:normal;font-size:16px;font-family:Helvetica;writing-mode:lr-tb;fill:#000000;fill-opacity:1;fill-rule:nonzero;stroke:none"
         x="0 4.4453125 13.34375 22.242188 27.570312 36.46875 40.914062 45.359375 54.257812 63.15625 71.15625 79.15625 83.601562 87.15625 91.601562 96.046875 100.49219"
         y="0"
         sodipodi:role="line"
         id="tspan86">there, pass it to</tspan></text>
    <text
       id="text87"
       xml:space="preserve"
       transform="matrix(0.95939052,0,0,0.95939052,588.88589,215.86287)"
       clip-path="url(#clipPath88)"><tspan
         style="font-variant:normal;font-weight:normal;font-size:16px;font-family:Helvetica;writing-mode:lr-tb;fill:#000000;fill-opacity:1;fill-rule:nonzero;stroke:none"
         x="0 3.0546875 11.953125 20.851562 28.851562 37.75 43.078125 46.632812 55.53125 59.085938 62.640625 70.640625 79.539062 91.09375 99.09375 107.99219 113.32031"
         y="0"
         sodipodi:role="line"
         id="tspan87">'deserializeUser'</tspan></text>
    <path
       id="path89"
       d="m 782.01001,171 h 140 v 60 h -140 z"
       style="fill:#ffffff;fill-opacity:1;fill-rule:nonzero;stroke:#000000;stroke-width:1;stroke-linecap:butt;stroke-linejoin:miter;stroke-miterlimit:10;stroke-dasharray:none;stroke-opacity:1"
       transform="matrix(0.95938092,0,0,0.95938092,0.47969046,0.47969046)"
       clip-path="url(#clipPath90)" />
    <text
       id="text90"
       xml:space="preserve"
       transform="matrix(0.95939052,0,0,0.95939052,763.21015,179.40603)"
       clip-path="url(#clipPath91)"><tspan
         style="font-variant:normal;font-weight:normal;font-size:16px;font-family:Helvetica;writing-mode:lr-tb;fill:#000000;fill-opacity:1;fill-rule:nonzero;stroke:none"
         x="0 12.445312 21.34375 25.789062 30.234375 39.132812 48.03125 56.03125 64.03125 68.476562 77.375 81.820312 90.71875 98.71875 107.61719"
         y="0"
         sodipodi:role="line"
         id="tspan90">Get back a user</tspan></text>
    <text
       id="text91"
       xml:space="preserve"
       transform="matrix(0.95939052,0,0,0.95939052,765.77352,197.63445)"
       clip-path="url(#clipPath92)"><tspan
         style="font-variant:normal;font-weight:normal;font-size:16px;font-family:Helvetica;writing-mode:lr-tb;fill:#000000;fill-opacity:1;fill-rule:nonzero;stroke:none"
         x="0 8.8984375 17.796875 26.695312 31.140625 40.039062 48.039062 56.039062 59.59375 68.492188 77.390625 81.835938 85.390625 89.835938 94.28125 98.726562"
         y="0"
         sodipodi:role="line"
         id="tspan91">and assign it to</tspan></text>
    <text
       id="text92"
       xml:space="preserve"
       transform="matrix(0.95939052,0,0,0.95939052,786.31047,215.86287)"
       clip-path="url(#clipPath93)"><tspan
         style="font-variant:normal;font-weight:normal;font-size:16px;font-family:Helvetica;writing-mode:lr-tb;fill:#000000;fill-opacity:1;fill-rule:nonzero;stroke:none"
         x="0 3.0546875 8.3828125 17.28125 26.179688 30.625 39.523438 47.523438 56.421875 61.75"
         y="0"
         sodipodi:role="line"
         id="tspan92">'req.user'</tspan></text>
  </g>
</svg>
